<?xml version="1.0" standalone="no"?>
<!DOCTYPE svg PUBLIC "-//W3C//DTD SVG 20010904//EN"
 "http://www.w3.org/TR/2001/REC-SVG-20010904/DTD/svg10.dtd">
<svg version="1.0" xmlns="http://www.w3.org/2000/svg"
 width="700.000000pt" height="700.000000pt" viewBox="0 0 700.000000 700.000000"
 preserveAspectRatio="xMidYMid meet">
<metadata>
Created by potrace 1.14, written by Peter Selinger 2001-2017
</metadata>
<g transform="translate(0.000000,700.000000) scale(0.100000,-0.100000)"
fill="#000000" stroke="none">
<path d="M3278 6995 c-1 -1 -42 -5 -89 -9 -47 -4 -95 -8 -106 -10 -11 -3 -44
-7 -74 -11 -102 -12 -217 -34 -344 -67 -44 -11 -89 -22 -101 -24 -91 -17 -415
-140 -579 -220 -180 -87 -448 -247 -555 -331 -8 -6 -51 -40 -95 -74 -353 -275
-673 -651 -897 -1054 -49 -87 -148 -289 -148 -301 0 -2 -9 -23 -20 -47 -57
-123 -157 -435 -186 -582 -2 -11 -10 -54 -19 -95 -29 -147 -36 -200 -52 -370
-15 -165 -8 -592 12 -711 2 -13 6 -46 9 -74 9 -78 23 -156 51 -285 23 -107 88
-333 114 -395 5 -11 25 -65 46 -120 63 -166 249 -531 312 -610 4 -6 34 -49 65
-95 171 -256 432 -534 708 -755 92 -74 370 -265 386 -265 4 0 15 -6 23 -14 26
-22 298 -158 408 -204 282 -116 583 -199 862 -238 25 -3 57 -8 71 -10 163 -25
682 -25 842 1 13 2 46 7 73 10 71 10 87 13 115 18 14 3 43 8 65 12 325 59 741
212 1039 384 49 28 91 51 93 51 9 0 267 179 343 239 157 122 333 287 460 430
36 41 70 79 76 85 6 6 48 61 94 121 152 200 276 403 388 638 29 59 52 110 52
113 0 3 8 24 19 47 53 118 147 417 177 562 17 81 54 301 59 350 4 33 9 71 11
85 9 47 11 525 3 605 -15 165 -21 220 -24 225 -2 3 -6 30 -10 60 -9 75 -69
337 -99 435 -203 669 -578 1239 -1111 1691 -311 264 -728 497 -1130 632 -168
57 -420 119 -555 137 -19 3 -46 7 -60 10 -13 2 -52 7 -86 11 -33 3 -74 8 -90
10 -32 5 -540 14 -546 9z m456 -1761 c387 -54 722 -221 1002 -499 278 -275
440 -606 500 -1015 10 -68 10 -366 0 -440 -32 -238 -127 -511 -236 -680 -17
-25 -33 -52 -37 -60 -36 -76 -238 -299 -361 -399 -119 -97 -344 -230 -432
-256 -14 -4 -29 -11 -35 -15 -32 -24 -257 -82 -410 -107 -133 -21 -461 -4
-610 30 -214 50 -421 140 -590 256 -111 76 -158 114 -251 206 -289 285 -453
618 -511 1035 -10 70 -10 370 0 435 26 167 56 279 109 415 133 337 365 622
671 823 85 56 239 138 287 152 14 4 30 11 35 15 32 26 302 93 420 106 33 3 61
7 63 9 9 9 304 0 386 -11z"/>
</g>
</svg>
