<?xml version="1.0" encoding="UTF-8"?>
<svg id="Layer_2" data-name="Layer 2" xmlns="http://www.w3.org/2000/svg" viewBox="0 0 1010.9 1143.56">
  <defs>
    <style>
      .cls-1 {
        opacity: .5;
      }

      .cls-2 {
        fill: red;
      }
    </style>
  </defs>
  <g class="cls-1">
    <path d="M505.45,1121.06c-9.2,0-18.27-2.43-26.24-7.03L48.76,865.63c-16.2-9.35-26.26-26.77-26.26-45.47V323.41c0-18.7,10.06-36.12,26.26-45.47L479.21,29.53c7.97-4.6,17.04-7.03,26.24-7.03s18.27,2.43,26.24,7.03l430.45,248.41c16.2,9.35,26.26,26.77,26.26,45.47v496.75c0,18.7-10.06,36.12-26.26,45.47l-430.45,248.41c-7.97,4.6-17.04,7.03-26.24,7.03Z"/>
    <path class="cls-2" d="M505.45,45c5.26,0,10.44,1.39,14.99,4.02l430.45,248.4c9.26,5.34,15.01,15.3,15.01,25.98v496.75c0,10.69-5.75,20.64-15.01,25.98l-430.45,248.41c-4.55,2.63-9.74,4.02-14.99,4.02s-10.44-1.39-14.99-4.02L60,846.14c-9.26-5.34-15.01-15.3-15.01-25.98V323.41c0-10.69,5.75-20.64,15.01-25.98L490.45,49.02c4.55-2.63,9.74-4.02,14.99-4.02m0-45c-12.94,0-25.89,3.35-37.49,10.04L37.51,258.45C14.3,271.84,0,296.6,0,323.41v496.75c0,26.8,14.3,51.56,37.51,64.96l430.45,248.41c11.6,6.69,24.54,10.04,37.49,10.04s25.89-3.35,37.49-10.04l430.45-248.41c23.21-13.4,37.51-38.16,37.51-64.96V323.41c0-26.8-14.3-51.56-37.51-64.96L542.94,10.04c-11.6-6.69-24.54-10.04-37.49-10.04h0Z"/>
  </g>
  <g class="cls-1">
    <path class="cls-2" d="M292.23,824.23c-17.93,0-26.89-9.43-26.89-28.29V343.97c0-18.85,8.96-28.29,26.89-28.29,7.54,0,13.56,1.54,18.04,4.6,4.48,3.07,8.6,8.13,12.38,15.21l183.28,345.16,182.57-345.16c3.77-7.07,7.78-12.14,12.03-15.21,4.25-3.06,10.37-4.6,18.4-4.6,17.45,0,26.18,9.44,26.18,28.29v451.97c0,18.87-8.97,28.29-26.89,28.29s-26.89-9.43-26.89-28.29V429.55l-159.92,300.6c-3.31,6.13-6.72,10.5-10.26,13.09-3.54,2.6-8.61,3.89-15.21,3.89s-11.8-1.41-15.57-4.24c-3.78-2.83-7.08-7.07-9.91-12.73l-162.05-299.9v365.68c0,18.87-8.73,28.29-26.18,28.29Z"/>
  </g>
</svg>