<?xml version="1.0" encoding="utf-8"?>
<!-- Generator: Adobe Illustrator 26.1.0, SVG Export Plug-In . SVG Version: 6.00 Build 0)  -->
<svg version="1.1" id="centr" xmlns="http://www.w3.org/2000/svg" xmlns:xlink="http://www.w3.org/1999/xlink" x="0px" y="0px"
	 viewBox="0 0 3942.6 1379.2" style="enable-background:new 0 0 3942.6 1379.2;" xml:space="preserve">
<style type="text/css">
	.st0{fill:url(#SVGID_1_);}
	.st1{enable-background:new    ;}
	.st2{fill:#FFFFFF;}
</style>
<linearGradient id="SVGID_1_" gradientUnits="userSpaceOnUse" x1="1286.1915" y1="2609.5044" x2="944.0685" y2="1669.5557" gradientTransform="matrix(1 0 0 1 -615.13 -1400.33)">
	<stop  offset="0" style="stop-color:#3767E5"/>
	<stop  offset="0.65" style="stop-color:#9F58F2"/>
</linearGradient>
<path class="st0" d="M500,239.2c-276.1,0-500,223.9-500,500s223.9,500,500,500s500-223.8,500-500S776.2,239.2,500,239.2z M500,989.2
	c-138.1,0-250-111.9-250-250s111.9-250,250-250s250,111.9,250,250l0,0C750,877.3,638.1,989.2,500,989.2L500,989.2z"/>
<g class="st1">
	<path class="st2" d="M1412.4,1052.2c-62.6,0-117.1-12.8-163.5-38.4s-82.1-62-107.4-109.2c-25.2-47.2-37.8-102.5-37.8-165.9
		s12.6-118.1,37.8-164.1s61-81.3,107.4-106.1s100.9-37.2,163.5-37.2c26.8,0,55.9,3.7,87.2,11c31.3,7.3,60.8,19.5,88.5,36.6
		c16.2,9.8,25.8,22.4,28.7,37.8s0.8,29.7-6.1,42.7s-17.1,22.4-30.5,28.1s-28.7,3.7-45.8-6.1c-37.4-21.1-73.6-31.7-108.6-31.7
		c-52.9,0-93.7,16.5-122.6,49.4s-43.3,79.9-43.3,140.9c0,60.2,14.4,107.6,43.3,142.1s69.7,51.8,122.6,51.8
		c35,0,71.2-10.2,108.6-30.5c17.1-9.8,32.1-11.8,45.1-6.1s22.4,15.2,28.1,28.7s6.9,27.7,3.7,42.7s-12.6,27.5-28.1,37.2
		c-26.8,16.3-55.3,28.1-85.4,35.4S1439.2,1052.2,1412.4,1052.2z"/>
</g>
<g class="st1">
	<path class="st2" d="M1994.3,1052.2c-67.5,0-125.7-12.6-174.5-37.8c-48.8-25.2-86.4-61-112.9-107.4s-39.6-101.3-39.6-164.7
		c0-61.8,12.8-115.9,38.4-162.2s61-82.8,106.1-109.2s96.6-39.7,154.3-39.7c84.6,0,151.5,26.8,200.7,80.5
		c49.2,53.7,73.8,126.9,73.8,219.6c0,30.1-19.5,45.1-58.6,45.1h-368.4c11.4,106.5,72.4,159.8,183,159.8c21.1,0,44.9-2.6,71.4-7.9
		s51.4-14.4,75-27.5c21.1-12.2,39-16,53.7-11.6s25,13.2,31.1,26.2c6.1,13,6.9,27.5,2.5,43.3s-16.1,29.5-34.8,40.9
		c-28.5,17.9-61.2,31.1-98.2,39.7S2026,1052.2,1994.3,1052.2z M1972.4,535c-44.7,0-80.9,13.8-108.6,41.5s-44.3,65.1-50,112.2h300.1
		c-3.2-49.6-16.9-87.6-40.9-114.1S2015.5,535,1972.4,535z"/>
	<path class="st2" d="M2437.2,1049.8c-50.4,0-75.6-26-75.6-78.1V510.6c0-51.2,24.8-76.9,74.4-76.9c49.6,0,74.4,25.6,74.4,76.9v25.6
		c20.3-34.2,47.8-60.2,82.3-78.1c34.6-17.9,73.4-26.8,116.5-26.8c140.7,0,211.1,81.8,211.1,245.2v295.2c0,52.1-25.2,78.1-75.6,78.1
		c-51.2,0-76.9-26-76.9-78.1V683.8c0-46.4-8.8-80.1-26.2-101.3c-17.5-21.1-44.5-31.7-81.1-31.7c-44.8,0-80.3,14-106.8,42.1
		s-39.6,65.3-39.6,111.6v267.2C2514,1023.8,2488.4,1049.8,2437.2,1049.8z"/>
	<path class="st2" d="M3348.5,1052.2c-157.8,0-236.7-78.1-236.7-234.2V558.1h-63.5c-40.7,0-61-19.1-61-57.3s20.3-57.3,61-57.3h63.5
		v-111c0-51.2,25.6-76.9,76.9-76.9c50.4,0,75.6,25.6,75.6,76.9v111h129.3c40.7,0,61,19.1,61,57.3s-20.3,57.3-61,57.3h-129.3v251.3
		c0,39,8.5,68.3,25.6,87.8c17.1,19.5,44.7,29.3,83,29.3c13.8,0,26-1.2,36.6-3.7c10.6-2.4,19.9-4.1,28.1-4.9
		c9.8-0.8,17.9,2.2,24.4,9.2s9.8,20.9,9.8,42.1c0,16.3-2.7,30.7-7.9,43.3c-5.3,12.6-14.8,21.4-28.7,26.2
		c-10.6,3.2-24.4,6.3-41.5,9.2C3376.5,1050.8,3361.5,1052.2,3348.5,1052.2z"/>
	<path class="st2" d="M3621.8,1049.8c-52.1,0-78.1-26-78.1-78.1V510.6c0-51.2,24.8-76.9,74.4-76.9c49.6,0,74.4,25.6,74.4,76.9v37.8
		c29.3-69.9,91.9-109,187.9-117.1c35-4.1,54.5,15.9,58.6,59.8c4.1,43.1-17.1,67.1-63.4,72l-26.8,2.4c-100,9.8-150.1,61-150.1,153.7
		v252.5C3698.6,1023.8,3673,1049.8,3621.8,1049.8z"/>
</g>
</svg>
