<?xml version="1.0" encoding="UTF-8"?>
<svg id="Coin_Toss" data-name="Coin Toss" xmlns="http://www.w3.org/2000/svg" xmlns:xlink="http://www.w3.org/1999/xlink" viewBox="0 0 1080 2272">
  <defs>
    <style>
      .cls-1 {
        letter-spacing: 0em;
      }

      .cls-2 {
        letter-spacing: 0em;
      }

      .cls-3 {
        font-size: 152px;
      }

      .cls-3, .cls-4 {
        fill: #fff;
        font-family: Nunito-SemiBold, Nunito;
      }

      .cls-5 {
        fill: url(#linear-gradient);
      }

      .cls-6 {
        letter-spacing: 0em;
      }

      .cls-7 {
        letter-spacing: -.01em;
      }

      .cls-8 {
        letter-spacing: 0em;
      }

      .cls-9 {
        letter-spacing: 0em;
      }

      .cls-4 {
        font-size: 67px;
        opacity: .5;
      }

      .cls-10 {
        fill: #0c0414;
      }

      .cls-11 {
        letter-spacing: 0em;
      }

      .cls-12 {
        letter-spacing: 0em;
      }

      .cls-13 {
        letter-spacing: 0em;
      }

      .cls-14 {
        letter-spacing: 0em;
      }

      .cls-15 {
        letter-spacing: 0em;
      }

      .cls-16 {
        letter-spacing: .03em;
      }
    </style>
    <linearGradient id="linear-gradient" x1="631.14" y1="1547.87" x2="447.86" y2="1044.33" gradientTransform="matrix(1, 0, 0, 1, 0, 0)" gradientUnits="userSpaceOnUse">
      <stop offset="0" stop-color="#3767e5"/>
      <stop offset=".65" stop-color="#9f58f2"/>
    </linearGradient>
  </defs>
  <rect id="Background" class="cls-10" width="1080" height="2272" rx="100" ry="100"/>
  <text id="Title" class="cls-3" transform="translate(235.66 299.74)"><tspan class="cls-9" x="0" y="0">c</tspan><tspan class="cls-11" x="69.46" y="0">oin </tspan><tspan class="cls-15" x="319.95" y="0">t</tspan><tspan x="374.67" y="0">oss</tspan></text>
  <text id="Inst" class="cls-4" transform="translate(116.33 416.83)"><tspan x="0" y="0">tap a</tspan><tspan class="cls-6" x="153.69" y="0">n</tspan><tspan class="cls-16" x="191.95" y="0">y</tspan><tspan x="228.67" y="0">whe</tspan><tspan class="cls-13" x="359.92" y="0">r</tspan><tspan x="384.44" y="0">e on </tspan><tspan class="cls-2" x="532.24" y="0">t</tspan><tspan class="cls-1" x="557.29" y="0">he sc</tspan><tspan class="cls-12" x="713.27" y="0">r</tspan><tspan x="737.79" y="0">een</tspan><tspan class="cls-7" x="208.26" y="94">f</tspan><tspan x="230.58" y="94">or a n</tspan><tspan class="cls-13" x="403.36" y="94">e</tspan><tspan class="cls-14" x="438.87" y="94">w </tspan><tspan class="cls-8" x="513.24" y="94">t</tspan><tspan x="537.36" y="94">oss</tspan></text>
  <path id="Heads" class="cls-5" d="M539.5,1028.25c-147.93,0-267.85,119.92-267.85,267.85s119.92,267.85,267.85,267.85,267.85-119.92,267.85-267.85-119.92-267.85-267.85-267.85Zm.27,514.54c-136.1,0-246.42-110.33-246.42-246.42s110.33-246.42,246.42-246.42,246.42,110.33,246.42,246.42-110.33,246.42-246.42,246.42Zm16.75-432.05c76.56,0,138.9,62.38,138.9,138.99,0,38.83-16.47,76.18-45.09,102.41-2.41,2.24-3.79,5.35-3.79,8.54v92.06c-.09,.43-.69,1.21-1.12,1.38l-153.64,27.18-.09-40.12c0-3.36-1.47-6.64-4.05-8.8-2.16-1.81-4.83-2.85-7.59-2.85-.6,0-1.12,0-1.72,.09l-42.5,6.3c-10.69-.43-19.23-9.23-19.23-20.02v-55.74c0-6.47-5.17-11.65-11.64-11.65h-14.23c-4.4,0-6.72-1.21-7.33-2.24-.6-1.04-.69-3.71,1.38-7.59l30.69-58.58c.86-1.64,1.29-3.54,1.29-5.44v-25.02c0-53.84,31.56-103.19,80.35-125.88h.09c18.54-8.63,38.54-13.03,59.32-13.03m0-21.43c-23.51,0-46.12,4.88-67.23,14.51-.41,.16-.81,.33-1.21,.52-56.34,26.2-92.75,83.24-92.75,145.31v22.71l-29.51,56.33c-5.29,9.98-5.64,20.32-.94,28.38,4.77,8.19,14.19,12.88,25.84,12.88h4.44v45.96c0,10.78,4.12,20.99,11.6,28.76,7.45,7.74,17.47,12.24,28.19,12.67,.29,.01,.58,.02,.86,.02,1.05,0,2.1-.08,3.14-.23l31.32-4.64,.06,28.87c.01,6.33,2.82,12.33,7.68,16.39,3.89,3.25,8.76,4.99,13.75,4.99,1.24,0,2.49-.11,3.73-.33l153.64-27.18c1.45-.26,2.86-.66,4.23-1.21,7.1-2.84,12.67-9.54,14.17-17.07,.28-1.38,.42-2.79,.42-4.2v-87.78c31.12-30.12,48.89-71.87,48.89-115.24,0-88.46-71.92-160.42-160.32-160.42h0Z"/>
</svg>