<?xml version="1.0" encoding="UTF-8"?>
<svg id="Coin_Toss" data-name="Coin Toss" xmlns="http://www.w3.org/2000/svg" xmlns:xlink="http://www.w3.org/1999/xlink" viewBox="0 0 1080 2272">
  <defs>
    <style>
      .cls-1 {
        fill: #fff;
      }

      .cls-2 {
        opacity: .5;
      }

      .cls-3 {
        fill: #0c0414;
      }

      .cls-4 {
        fill: url(#linear-gradient);
      }
    </style>
    <linearGradient id="linear-gradient" x1="631.14" y1="1547.87" x2="447.86" y2="1044.33" gradientTransform="matrix(1, 0, 0, 1, 0, 0)" gradientUnits="userSpaceOnUse">
      <stop offset="0" stop-color="#3767e5"/>
      <stop offset=".65" stop-color="#9f58f2"/>
    </linearGradient>
  </defs>
  <rect id="Background" class="cls-3" width="1080" height="2272" rx="100" ry="100"/>
  <g>
    <path class="cls-1" d="M279.13,301.11c-7.6,0-14.16-1.6-19.68-4.79-5.52-3.19-9.8-7.7-12.84-13.53-3.04-5.83-4.56-12.69-4.56-20.6,0-11.75,3.34-21.03,10.03-27.82,6.69-6.79,15.71-10.18,27.06-10.18,3.55,0,7.27,.53,11.17,1.6,3.9,1.06,7.52,2.81,10.87,5.24,1.62,1.01,2.56,2.31,2.81,3.88,.25,1.57,0,3.04-.76,4.41-.76,1.37-1.85,2.28-3.27,2.74-1.42,.46-3.04,.18-4.86-.84-2.43-1.72-4.92-2.96-7.45-3.72-2.53-.76-4.97-1.14-7.3-1.14-7.2,0-12.74,2.26-16.64,6.76-3.9,4.51-5.85,10.92-5.85,19.23s1.95,14.82,5.85,19.53c3.9,4.71,9.45,7.07,16.64,7.07,2.33,0,4.74-.35,7.22-1.06,2.48-.71,4.99-1.92,7.52-3.65,1.82-1.01,3.42-1.27,4.79-.76,1.37,.51,2.38,1.44,3.04,2.81,.66,1.37,.86,2.84,.61,4.41-.25,1.57-1.19,2.86-2.81,3.88-3.24,2.33-6.76,4-10.56,5.02-3.8,1.01-7.47,1.52-11.02,1.52Z"/>
    <path class="cls-1" d="M348.14,301.11c-7.5,0-13.98-1.57-19.46-4.71-5.47-3.14-9.7-7.57-12.69-13.3-2.99-5.72-4.48-12.54-4.48-20.44s1.49-14.72,4.48-20.44c2.99-5.72,7.22-10.16,12.69-13.3,5.47-3.14,11.96-4.71,19.46-4.71s13.68,1.57,19.15,4.71c5.47,3.14,9.73,7.58,12.77,13.3,3.04,5.73,4.56,12.54,4.56,20.44s-1.52,14.72-4.56,20.44c-3.04,5.73-7.3,10.16-12.77,13.3-5.47,3.14-11.86,4.71-19.15,4.71Zm0-11.86c6.28,0,11.35-2.28,15.2-6.84,3.85-4.56,5.78-11.15,5.78-19.76s-1.93-15.17-5.78-19.68c-3.85-4.51-8.92-6.76-15.2-6.76s-11.5,2.26-15.35,6.76c-3.85,4.51-5.78,11.07-5.78,19.68s1.92,15.2,5.78,19.76c3.85,4.56,8.97,6.84,15.35,6.84Z"/>
    <path class="cls-1" d="M409.39,208.99c-3.04,0-5.4-.76-7.07-2.28s-2.51-3.65-2.51-6.38c0-5.78,3.19-8.66,9.58-8.66s9.58,2.89,9.58,8.66-3.19,8.66-9.58,8.66Zm0,91.66c-5.07,0-7.6-2.79-7.6-8.36v-59.28c0-5.47,2.53-8.21,7.6-8.21s7.75,2.74,7.75,8.21v59.28c0,5.57-2.58,8.36-7.75,8.36Z"/>
    <path class="cls-1" d="M446.33,300.8c-5.07,0-7.6-2.58-7.6-7.75v-60.8c0-5.17,2.48-7.75,7.45-7.75s7.45,2.58,7.45,7.75v5.62c2.53-4.46,6-7.85,10.41-10.18,4.41-2.33,9.35-3.5,14.82-3.5,17.53,0,26.3,9.93,26.3,29.79v39.06c0,5.17-2.53,7.75-7.6,7.75s-7.75-2.58-7.75-7.75v-38.15c0-6.38-1.24-11.04-3.72-13.98-2.48-2.94-6.36-4.41-11.63-4.41-6.18,0-11.12,1.95-14.82,5.85-3.7,3.9-5.55,9.04-5.55,15.43v35.26c0,5.17-2.58,7.75-7.75,7.75Z"/>
    <path class="cls-1" d="M598.02,301.11c-9.32,0-16.26-2.38-20.82-7.14-4.56-4.76-6.84-11.65-6.84-20.67v-35.87h-9.12c-4.26,0-6.38-1.98-6.38-5.93s2.13-5.93,6.38-5.93h9.12v-15.66c0-5.17,2.58-7.75,7.75-7.75s7.6,2.58,7.6,7.75v15.66h17.78c4.26,0,6.38,1.98,6.38,5.93s-2.13,5.93-6.38,5.93h-17.78v34.66c0,5.37,1.14,9.42,3.42,12.16,2.28,2.74,6,4.1,11.17,4.1,1.82,0,3.39-.18,4.71-.53,1.32-.35,2.48-.58,3.5-.68,1.11,0,2.03,.38,2.74,1.14,.71,.76,1.06,2.2,1.06,4.33,0,1.62-.28,3.07-.84,4.33-.56,1.27-1.55,2.1-2.96,2.51-1.22,.51-2.86,.91-4.94,1.22-2.08,.3-3.93,.46-5.55,.46Z"/>
    <path class="cls-1" d="M653.35,301.11c-7.5,0-13.98-1.57-19.46-4.71-5.47-3.14-9.7-7.57-12.69-13.3-2.99-5.72-4.48-12.54-4.48-20.44s1.49-14.72,4.48-20.44c2.99-5.72,7.22-10.16,12.69-13.3,5.47-3.14,11.96-4.71,19.46-4.71s13.68,1.57,19.15,4.71c5.47,3.14,9.73,7.58,12.77,13.3,3.04,5.73,4.56,12.54,4.56,20.44s-1.52,14.72-4.56,20.44c-3.04,5.73-7.3,10.16-12.77,13.3-5.47,3.14-11.86,4.71-19.15,4.71Zm0-11.86c6.28,0,11.35-2.28,15.2-6.84,3.85-4.56,5.78-11.15,5.78-19.76s-1.93-15.17-5.78-19.68c-3.85-4.51-8.92-6.76-15.2-6.76s-11.5,2.26-15.35,6.76c-3.85,4.51-5.78,11.07-5.78,19.68s1.92,15.2,5.78,19.76c3.85,4.56,8.97,6.84,15.35,6.84Z"/>
    <path class="cls-1" d="M733,301.11c-4.46,0-9.07-.51-13.83-1.52-4.76-1.01-9.07-2.74-12.92-5.17-1.72-1.01-2.79-2.28-3.19-3.8-.41-1.52-.3-2.94,.3-4.26,.61-1.32,1.6-2.25,2.96-2.81,1.37-.56,2.91-.38,4.64,.53,3.95,2.13,7.75,3.65,11.4,4.56,3.65,.91,7.24,1.37,10.79,1.37,5.37,0,9.42-.96,12.16-2.89,2.74-1.92,4.1-4.51,4.1-7.75,0-2.63-.91-4.69-2.74-6.16-1.82-1.47-4.56-2.61-8.21-3.42l-14.44-2.89c-12.77-2.63-19.15-9.22-19.15-19.76,0-6.99,2.79-12.56,8.36-16.72,5.57-4.15,12.87-6.23,21.89-6.23s16.97,2.23,23.56,6.69c1.62,1.01,2.58,2.26,2.89,3.72,.3,1.47,.1,2.84-.61,4.1-.71,1.27-1.75,2.15-3.12,2.66-1.37,.51-2.96,.3-4.79-.61-3.04-1.82-6.08-3.17-9.12-4.03-3.04-.86-5.98-1.29-8.82-1.29-5.27,0-9.27,.99-12.01,2.96-2.74,1.98-4.1,4.64-4.1,7.98,0,5.07,3.34,8.31,10.03,9.73l14.44,2.89c6.58,1.32,11.58,3.55,14.97,6.69,3.39,3.14,5.09,7.4,5.09,12.77,0,7.09-2.79,12.64-8.36,16.64-5.57,4-12.97,6-22.19,6Z"/>
    <path class="cls-1" d="M806.56,301.11c-4.46,0-9.07-.51-13.83-1.52-4.76-1.01-9.07-2.74-12.92-5.17-1.72-1.01-2.79-2.28-3.19-3.8-.41-1.52-.3-2.94,.3-4.26,.61-1.32,1.6-2.25,2.96-2.81,1.37-.56,2.91-.38,4.64,.53,3.95,2.13,7.75,3.65,11.4,4.56,3.65,.91,7.24,1.37,10.79,1.37,5.37,0,9.42-.96,12.16-2.89,2.74-1.92,4.1-4.51,4.1-7.75,0-2.63-.91-4.69-2.74-6.16-1.82-1.47-4.56-2.61-8.21-3.42l-14.44-2.89c-12.77-2.63-19.15-9.22-19.15-19.76,0-6.99,2.79-12.56,8.36-16.72,5.57-4.15,12.87-6.23,21.89-6.23s16.97,2.23,23.56,6.69c1.62,1.01,2.58,2.26,2.89,3.72,.3,1.47,.1,2.84-.61,4.1-.71,1.27-1.75,2.15-3.12,2.66-1.37,.51-2.96,.3-4.79-.61-3.04-1.82-6.08-3.17-9.12-4.03-3.04-.86-5.98-1.29-8.82-1.29-5.27,0-9.27,.99-12.01,2.96-2.74,1.98-4.1,4.64-4.1,7.98,0,5.07,3.34,8.31,10.03,9.73l14.44,2.89c6.58,1.32,11.58,3.55,14.97,6.69,3.39,3.14,5.09,7.4,5.09,12.77,0,7.09-2.79,12.64-8.36,16.64-5.57,4-12.97,6-22.19,6Z"/>
  </g>
  <g class="cls-2">
    <path class="cls-1" d="M135.02,417.44c-4.11,0-7.17-1.05-9.18-3.15-2.01-2.1-3.02-5.14-3.02-9.11v-15.81h-4.02c-1.88,0-2.81-.87-2.81-2.61s.94-2.61,2.81-2.61h4.02v-6.9c0-2.28,1.14-3.42,3.42-3.42s3.35,1.14,3.35,3.42v6.9h7.84c1.88,0,2.81,.87,2.81,2.61s-.94,2.61-2.81,2.61h-7.84v15.28c0,2.37,.5,4.15,1.51,5.36s2.65,1.81,4.92,1.81c.8,0,1.5-.08,2.08-.23,.58-.16,1.09-.26,1.54-.3,.49,0,.89,.17,1.21,.5,.31,.33,.47,.97,.47,1.91,0,.71-.12,1.35-.37,1.91-.25,.56-.68,.93-1.31,1.11-.54,.22-1.26,.4-2.18,.54-.92,.13-1.73,.2-2.45,.2Z"/>
    <path class="cls-1" d="M155.99,417.44c-2.28,0-4.31-.45-6.1-1.34-1.79-.89-3.21-2.1-4.25-3.62-1.05-1.52-1.57-3.24-1.57-5.16,0-2.41,.61-4.31,1.84-5.69,1.23-1.38,3.26-2.39,6.1-3.02,2.84-.62,6.67-.94,11.49-.94h2.28v-1.74c0-2.55-.54-4.38-1.61-5.49-1.07-1.12-2.84-1.68-5.29-1.68-1.43,0-2.91,.18-4.46,.54-1.54,.36-3.14,.96-4.79,1.81-.94,.45-1.71,.51-2.31,.2-.6-.31-1.02-.8-1.24-1.47-.22-.67-.2-1.36,.07-2.08,.27-.71,.83-1.25,1.68-1.61,1.96-.89,3.91-1.55,5.83-1.98,1.92-.42,3.73-.64,5.43-.64,4.47,0,7.77,1.06,9.92,3.18,2.14,2.12,3.22,5.44,3.22,9.95v17.22c0,2.28-1.05,3.42-3.15,3.42s-3.22-1.14-3.22-3.42v-2.48c-.8,1.88-2.06,3.35-3.75,4.42-1.7,1.07-3.73,1.61-6.1,1.61Zm1.34-4.82c2.41,0,4.42-.85,6.03-2.55,1.61-1.7,2.41-3.84,2.41-6.43v-1.81h-2.21c-3.26,0-5.82,.16-7.67,.47-1.85,.31-3.17,.84-3.95,1.57-.78,.74-1.17,1.75-1.17,3.05,0,1.7,.58,3.07,1.74,4.12,1.16,1.05,2.77,1.57,4.82,1.57Z"/>
    <path class="cls-1" d="M184.87,429.36c-2.23,0-3.35-1.14-3.35-3.42v-38.86c0-2.28,1.09-3.42,3.28-3.42s3.35,1.14,3.35,3.42v2.55c.98-1.88,2.43-3.36,4.35-4.46,1.92-1.09,4.11-1.64,6.57-1.64,2.9,0,5.44,.69,7.6,2.08,2.17,1.39,3.84,3.34,5.02,5.86,1.18,2.52,1.78,5.53,1.78,9.01s-.59,6.5-1.78,9.04c-1.18,2.55-2.86,4.5-5.02,5.86-2.17,1.36-4.7,2.04-7.6,2.04-2.41,0-4.57-.53-6.47-1.57-1.9-1.05-3.34-2.49-4.32-4.32v14.4c0,2.28-1.14,3.42-3.42,3.42Zm12.53-17.15c2.81,0,5.06-1,6.73-3.02,1.67-2.01,2.51-4.91,2.51-8.71s-.84-6.69-2.51-8.68c-1.68-1.99-3.92-2.98-6.73-2.98s-5.06,.99-6.73,2.98c-1.67,1.99-2.51,4.88-2.51,8.68s.84,6.7,2.51,8.71c1.68,2.01,3.92,3.02,6.73,3.02Z"/>
    <path class="cls-1" d="M249.26,417.44c-2.28,0-4.31-.45-6.1-1.34-1.79-.89-3.21-2.1-4.25-3.62-1.05-1.52-1.57-3.24-1.57-5.16,0-2.41,.61-4.31,1.84-5.69,1.23-1.38,3.26-2.39,6.1-3.02,2.84-.62,6.67-.94,11.49-.94h2.28v-1.74c0-2.55-.54-4.38-1.61-5.49-1.07-1.12-2.84-1.68-5.29-1.68-1.43,0-2.91,.18-4.46,.54-1.54,.36-3.14,.96-4.79,1.81-.94,.45-1.71,.51-2.31,.2-.6-.31-1.02-.8-1.24-1.47-.22-.67-.2-1.36,.07-2.08,.27-.71,.83-1.25,1.68-1.61,1.96-.89,3.91-1.55,5.83-1.98,1.92-.42,3.73-.64,5.43-.64,4.47,0,7.77,1.06,9.92,3.18,2.14,2.12,3.22,5.44,3.22,9.95v17.22c0,2.28-1.05,3.42-3.15,3.42s-3.22-1.14-3.22-3.42v-2.48c-.8,1.88-2.06,3.35-3.75,4.42-1.7,1.07-3.73,1.61-6.1,1.61Zm1.34-4.82c2.41,0,4.42-.85,6.03-2.55,1.61-1.7,2.41-3.84,2.41-6.43v-1.81h-2.21c-3.26,0-5.82,.16-7.67,.47-1.85,.31-3.17,.84-3.95,1.57-.78,.74-1.17,1.75-1.17,3.05,0,1.7,.58,3.07,1.74,4.12,1.16,1.05,2.77,1.57,4.82,1.57Z"/>
    <path class="cls-1" d="M278.13,417.3c-2.23,0-3.35-1.14-3.35-3.42v-26.8c0-2.28,1.09-3.42,3.28-3.42s3.28,1.14,3.28,3.42v2.48c1.12-1.96,2.65-3.46,4.59-4.49,1.94-1.03,4.12-1.54,6.53-1.54,7.73,0,11.59,4.38,11.59,13.13v17.22c0,2.28-1.12,3.42-3.35,3.42s-3.42-1.14-3.42-3.42v-16.82c0-2.81-.55-4.87-1.64-6.16-1.1-1.29-2.8-1.94-5.13-1.94-2.73,0-4.9,.86-6.53,2.58-1.63,1.72-2.45,3.99-2.45,6.8v15.54c0,2.28-1.14,3.42-3.42,3.42Z"/>
    <path class="cls-1" d="M320.74,429.36c-1.25,0-2.11-.46-2.58-1.37-.47-.92-.44-1.98,.1-3.18l3.95-8.84-11.93-27.67c-.54-1.21-.55-2.28-.03-3.22,.51-.94,1.53-1.41,3.05-1.41,.8,0,1.46,.2,1.98,.6,.51,.4,.97,1.1,1.37,2.08l9.18,22.65,9.31-22.65c.4-1.03,.87-1.73,1.41-2.11,.54-.38,1.27-.57,2.21-.57,1.21,0,2.03,.47,2.48,1.41,.45,.94,.42,1.99-.07,3.15l-16.75,38.52c-.45,1.03-.95,1.72-1.51,2.08-.56,.36-1.28,.54-2.18,.54Z"/>
    <path class="cls-1" d="M361.68,417.3c-1.97,0-3.33-.98-4.09-2.95l-9.85-26.06c-.54-1.34-.53-2.45,.03-3.32,.56-.87,1.51-1.31,2.85-1.31,.8,0,1.45,.19,1.94,.57,.49,.38,.94,1.11,1.34,2.18l7.97,22.51,8.31-22.78c.62-1.65,1.74-2.48,3.35-2.48s2.77,.83,3.35,2.48l8.17,22.91,8.17-22.78c.36-1.03,.81-1.72,1.37-2.08,.56-.36,1.19-.54,1.91-.54,1.34,0,2.2,.47,2.58,1.41,.38,.94,.35,2.01-.1,3.22l-9.85,26.06c-.8,1.97-2.14,2.95-4.02,2.95-2.01,0-3.37-.98-4.09-2.95l-7.71-20.9-7.64,20.9c-.72,1.97-2.06,2.95-4.02,2.95Z"/>
    <path class="cls-1" d="M409.79,417.3c-2.23,0-3.35-1.14-3.35-3.42v-41.34c0-2.28,1.12-3.42,3.35-3.42s3.42,1.14,3.42,3.42v16.68c1.12-1.88,2.62-3.29,4.52-4.25,1.9-.96,4.03-1.44,6.4-1.44,7.73,0,11.59,4.38,11.59,13.13v17.22c0,2.28-1.12,3.42-3.35,3.42s-3.42-1.14-3.42-3.42v-16.82c0-2.81-.55-4.87-1.64-6.16-1.1-1.29-2.8-1.94-5.13-1.94-2.73,0-4.9,.86-6.53,2.58-1.63,1.72-2.45,3.99-2.45,6.8v15.54c0,2.28-1.14,3.42-3.42,3.42Z"/>
    <path class="cls-1" d="M460.37,417.44c-5.36,0-9.58-1.51-12.66-4.52s-4.62-7.14-4.62-12.36c0-3.35,.68-6.31,2.04-8.88,1.36-2.57,3.25-4.57,5.66-6,2.41-1.43,5.18-2.14,8.31-2.14,4.51,0,8.06,1.44,10.65,4.32,2.59,2.88,3.89,6.85,3.89,11.89,0,1.52-.89,2.28-2.68,2.28h-21.31c.49,6.79,4.09,10.18,10.79,10.18,1.34,0,2.75-.17,4.22-.5,1.47-.33,2.9-.95,4.29-1.84,.94-.54,1.75-.73,2.45-.57,.69,.16,1.19,.54,1.51,1.14,.31,.6,.37,1.27,.17,2.01-.2,.74-.73,1.37-1.57,1.91-1.52,1.03-3.29,1.8-5.33,2.31-2.03,.51-3.96,.77-5.8,.77Zm-1-29.15c-2.81,0-5.05,.87-6.7,2.61-1.65,1.74-2.66,4.07-3.02,6.97h18.29c-.13-3.04-.94-5.39-2.41-7.07-1.47-1.68-3.53-2.51-6.16-2.51Z"/>
    <path class="cls-1" d="M484.42,417.3c-2.28,0-3.42-1.14-3.42-3.42v-26.8c0-2.28,1.09-3.42,3.28-3.42s3.28,1.14,3.28,3.42v2.88c.89-2.01,2.24-3.55,4.05-4.62,1.81-1.07,4.01-1.7,6.6-1.88,1.65-.13,2.55,.76,2.68,2.68,.18,1.97-.78,3.04-2.88,3.22l-1.27,.13c-5.94,.58-8.91,3.64-8.91,9.18v15.21c0,2.28-1.14,3.42-3.42,3.42Z"/>
    <path class="cls-1" d="M520.87,417.44c-5.36,0-9.58-1.51-12.66-4.52s-4.62-7.14-4.62-12.36c0-3.35,.68-6.31,2.04-8.88,1.36-2.57,3.25-4.57,5.66-6,2.41-1.43,5.18-2.14,8.31-2.14,4.51,0,8.06,1.44,10.65,4.32,2.59,2.88,3.89,6.85,3.89,11.89,0,1.52-.89,2.28-2.68,2.28h-21.31c.49,6.79,4.09,10.18,10.79,10.18,1.34,0,2.75-.17,4.22-.5,1.47-.33,2.9-.95,4.29-1.84,.94-.54,1.75-.73,2.45-.57,.69,.16,1.19,.54,1.51,1.14,.31,.6,.37,1.27,.17,2.01-.2,.74-.73,1.37-1.57,1.91-1.52,1.03-3.29,1.8-5.33,2.31-2.03,.51-3.96,.77-5.8,.77Zm-1-29.15c-2.81,0-5.05,.87-6.7,2.61-1.65,1.74-2.66,4.07-3.02,6.97h18.29c-.13-3.04-.94-5.39-2.41-7.07-1.47-1.68-3.53-2.51-6.16-2.51Z"/>
    <path class="cls-1" d="M573.4,417.44c-3.31,0-6.16-.69-8.58-2.08-2.41-1.38-4.28-3.34-5.59-5.86-1.32-2.52-1.98-5.53-1.98-9.01s.66-6.49,1.98-9.01c1.32-2.52,3.18-4.48,5.59-5.86,2.41-1.38,5.27-2.08,8.58-2.08s6.03,.69,8.44,2.08c2.41,1.39,4.29,3.34,5.63,5.86,1.34,2.52,2.01,5.53,2.01,9.01s-.67,6.49-2.01,9.01c-1.34,2.52-3.22,4.48-5.63,5.86-2.41,1.39-5.23,2.08-8.44,2.08Zm0-5.23c2.77,0,5-1,6.7-3.02,1.7-2.01,2.55-4.91,2.55-8.71s-.85-6.69-2.55-8.68c-1.7-1.99-3.93-2.98-6.7-2.98s-5.07,.99-6.77,2.98c-1.7,1.99-2.55,4.88-2.55,8.68s.85,6.7,2.55,8.71c1.7,2.01,3.95,3.02,6.77,3.02Z"/>
    <path class="cls-1" d="M600.4,417.3c-2.23,0-3.35-1.14-3.35-3.42v-26.8c0-2.28,1.09-3.42,3.28-3.42s3.28,1.14,3.28,3.42v2.48c1.12-1.96,2.65-3.46,4.59-4.49,1.94-1.03,4.12-1.54,6.53-1.54,7.73,0,11.59,4.38,11.59,13.13v17.22c0,2.28-1.12,3.42-3.35,3.42s-3.42-1.14-3.42-3.42v-16.82c0-2.81-.55-4.87-1.64-6.16-1.1-1.29-2.8-1.94-5.13-1.94-2.72,0-4.9,.86-6.53,2.58-1.63,1.72-2.45,3.99-2.45,6.8v15.54c0,2.28-1.14,3.42-3.42,3.42Z"/>
    <path class="cls-1" d="M667.26,417.44c-4.11,0-7.17-1.05-9.18-3.15-2.01-2.1-3.01-5.14-3.01-9.11v-15.81h-4.02c-1.88,0-2.81-.87-2.81-2.61s.94-2.61,2.81-2.61h4.02v-6.9c0-2.28,1.14-3.42,3.42-3.42s3.35,1.14,3.35,3.42v6.9h7.84c1.88,0,2.81,.87,2.81,2.61s-.94,2.61-2.81,2.61h-7.84v15.28c0,2.37,.5,4.15,1.51,5.36s2.65,1.81,4.92,1.81c.8,0,1.5-.08,2.08-.23,.58-.16,1.09-.26,1.54-.3,.49,0,.89,.17,1.21,.5,.31,.33,.47,.97,.47,1.91,0,.71-.12,1.35-.37,1.91-.25,.56-.68,.93-1.31,1.11-.54,.22-1.26,.4-2.18,.54-.92,.13-1.73,.2-2.45,.2Z"/>
    <path class="cls-1" d="M681.73,417.3c-2.23,0-3.35-1.14-3.35-3.42v-41.34c0-2.28,1.12-3.42,3.35-3.42s3.42,1.14,3.42,3.42v16.68c1.12-1.88,2.62-3.29,4.52-4.25,1.9-.96,4.03-1.44,6.4-1.44,7.73,0,11.59,4.38,11.59,13.13v17.22c0,2.28-1.12,3.42-3.35,3.42s-3.42-1.14-3.42-3.42v-16.82c0-2.81-.55-4.87-1.64-6.16-1.1-1.29-2.8-1.94-5.13-1.94-2.72,0-4.9,.86-6.53,2.58-1.63,1.72-2.45,3.99-2.45,6.8v15.54c0,2.28-1.14,3.42-3.42,3.42Z"/>
    <path class="cls-1" d="M732.32,417.44c-5.36,0-9.58-1.51-12.66-4.52-3.08-3.02-4.62-7.14-4.62-12.36,0-3.35,.68-6.31,2.04-8.88,1.36-2.57,3.25-4.57,5.66-6,2.41-1.43,5.18-2.14,8.31-2.14,4.51,0,8.06,1.44,10.65,4.32,2.59,2.88,3.89,6.85,3.89,11.89,0,1.52-.89,2.28-2.68,2.28h-21.31c.49,6.79,4.09,10.18,10.79,10.18,1.34,0,2.75-.17,4.22-.5,1.47-.33,2.9-.95,4.29-1.84,.94-.54,1.75-.73,2.45-.57,.69,.16,1.2,.54,1.51,1.14s.37,1.27,.17,2.01c-.2,.74-.73,1.37-1.58,1.91-1.52,1.03-3.29,1.8-5.33,2.31-2.03,.51-3.96,.77-5.8,.77Zm-1-29.15c-2.81,0-5.05,.87-6.7,2.61-1.65,1.74-2.66,4.07-3.01,6.97h18.29c-.13-3.04-.94-5.39-2.41-7.07-1.47-1.68-3.53-2.51-6.16-2.51Z"/>
    <path class="cls-1" d="M782.1,417.44c-1.97,0-4-.22-6.1-.67-2.1-.45-4-1.21-5.7-2.28-.76-.45-1.23-1-1.41-1.67s-.13-1.29,.13-1.88c.27-.58,.7-.99,1.31-1.24,.6-.24,1.28-.17,2.04,.23,1.74,.94,3.42,1.61,5.03,2.01,1.61,.4,3.19,.6,4.76,.6,2.37,0,4.15-.42,5.36-1.27,1.21-.85,1.81-1.99,1.81-3.42,0-1.16-.4-2.07-1.21-2.71-.8-.65-2.01-1.15-3.62-1.51l-6.37-1.27c-5.63-1.16-8.44-4.06-8.44-8.71,0-3.08,1.23-5.54,3.68-7.37,2.46-1.83,5.67-2.75,9.65-2.75s7.48,.98,10.38,2.95c.71,.45,1.14,.99,1.27,1.64,.13,.65,.04,1.25-.27,1.81-.31,.56-.77,.95-1.37,1.17-.6,.22-1.31,.13-2.11-.27-1.34-.8-2.68-1.4-4.02-1.78-1.34-.38-2.64-.57-3.89-.57-2.32,0-4.09,.44-5.29,1.31-1.21,.87-1.81,2.04-1.81,3.52,0,2.23,1.47,3.66,4.42,4.29l6.37,1.27c2.9,.58,5.1,1.56,6.6,2.95,1.5,1.38,2.24,3.26,2.24,5.63,0,3.13-1.23,5.57-3.68,7.34-2.46,1.77-5.72,2.65-9.78,2.65Z"/>
    <path class="cls-1" d="M817.47,417.44c-3.35,0-6.24-.7-8.68-2.11-2.43-1.41-4.32-3.39-5.66-5.96-1.34-2.57-2.01-5.59-2.01-9.08,0-5.18,1.47-9.27,4.42-12.26,2.95-2.99,6.92-4.49,11.93-4.49,1.56,0,3.2,.23,4.92,.7,1.72,.47,3.32,1.24,4.79,2.31,.71,.45,1.13,1.02,1.24,1.71,.11,.69,0,1.34-.33,1.94s-.82,1-1.44,1.21c-.63,.2-1.34,.08-2.14-.37-1.07-.76-2.17-1.31-3.28-1.64-1.12-.33-2.19-.5-3.22-.5-3.17,0-5.62,.99-7.34,2.98-1.72,1.99-2.58,4.81-2.58,8.48s.86,6.53,2.58,8.61c1.72,2.08,4.17,3.12,7.34,3.12,1.03,0,2.09-.16,3.18-.47,1.09-.31,2.2-.85,3.32-1.61,.8-.45,1.51-.56,2.11-.33,.6,.22,1.05,.64,1.34,1.24,.29,.6,.38,1.25,.27,1.94-.11,.69-.53,1.26-1.24,1.71-1.43,1.03-2.98,1.76-4.66,2.21-1.67,.45-3.29,.67-4.86,.67Z"/>
    <path class="cls-1" d="M837.77,417.3c-2.28,0-3.42-1.14-3.42-3.42v-26.8c0-2.28,1.09-3.42,3.28-3.42s3.28,1.14,3.28,3.42v2.88c.89-2.01,2.24-3.55,4.05-4.62,1.81-1.07,4.01-1.7,6.6-1.88,1.65-.13,2.55,.76,2.68,2.68,.18,1.97-.78,3.04-2.88,3.22l-1.27,.13c-5.94,.58-8.91,3.64-8.91,9.18v15.21c0,2.28-1.14,3.42-3.42,3.42Z"/>
    <path class="cls-1" d="M874.22,417.44c-5.36,0-9.58-1.51-12.66-4.52-3.08-3.02-4.62-7.14-4.62-12.36,0-3.35,.68-6.31,2.04-8.88,1.36-2.57,3.25-4.57,5.66-6,2.41-1.43,5.18-2.14,8.31-2.14,4.51,0,8.06,1.44,10.65,4.32,2.59,2.88,3.89,6.85,3.89,11.89,0,1.52-.89,2.28-2.68,2.28h-21.31c.49,6.79,4.09,10.18,10.79,10.18,1.34,0,2.75-.17,4.22-.5,1.47-.33,2.9-.95,4.29-1.84,.94-.54,1.75-.73,2.45-.57,.69,.16,1.2,.54,1.51,1.14s.37,1.27,.17,2.01c-.2,.74-.73,1.37-1.58,1.91-1.52,1.03-3.29,1.8-5.33,2.31-2.03,.51-3.96,.77-5.8,.77Zm-1-29.15c-2.81,0-5.05,.87-6.7,2.61-1.65,1.74-2.66,4.07-3.01,6.97h18.29c-.13-3.04-.94-5.39-2.41-7.07-1.47-1.68-3.53-2.51-6.16-2.51Z"/>
    <path class="cls-1" d="M910.2,417.44c-5.36,0-9.58-1.51-12.66-4.52-3.08-3.02-4.62-7.14-4.62-12.36,0-3.35,.68-6.31,2.04-8.88,1.36-2.57,3.25-4.57,5.66-6,2.41-1.43,5.18-2.14,8.31-2.14,4.51,0,8.06,1.44,10.65,4.32,2.59,2.88,3.89,6.85,3.89,11.89,0,1.52-.89,2.28-2.68,2.28h-21.31c.49,6.79,4.09,10.18,10.79,10.18,1.34,0,2.75-.17,4.22-.5,1.47-.33,2.9-.95,4.29-1.84,.94-.54,1.75-.73,2.45-.57,.69,.16,1.2,.54,1.51,1.14s.37,1.27,.17,2.01c-.2,.74-.73,1.37-1.58,1.91-1.52,1.03-3.29,1.8-5.33,2.31-2.03,.51-3.96,.77-5.8,.77Zm-1-29.15c-2.81,0-5.05,.87-6.7,2.61-1.65,1.74-2.66,4.07-3.01,6.97h18.29c-.13-3.04-.94-5.39-2.41-7.07-1.47-1.68-3.53-2.51-6.16-2.51Z"/>
    <path class="cls-1" d="M934.19,417.3c-2.23,0-3.35-1.14-3.35-3.42v-26.8c0-2.28,1.09-3.42,3.28-3.42s3.28,1.14,3.28,3.42v2.48c1.12-1.96,2.65-3.46,4.59-4.49,1.94-1.03,4.12-1.54,6.53-1.54,7.73,0,11.59,4.38,11.59,13.13v17.22c0,2.28-1.12,3.42-3.35,3.42s-3.42-1.14-3.42-3.42v-16.82c0-2.81-.55-4.87-1.64-6.16-1.1-1.29-2.8-1.94-5.13-1.94-2.72,0-4.9,.86-6.53,2.58-1.63,1.72-2.45,3.99-2.45,6.8v15.54c0,2.28-1.14,3.42-3.42,3.42Z"/>
    <path class="cls-1" d="M334.71,511.3c-2.28,0-3.42-1.14-3.42-3.42v-24.52h-3.75c-1.83,0-2.75-.87-2.75-2.61s.92-2.61,2.75-2.61h3.75v-.6c0-4.42,1.09-7.76,3.28-10.02,2.19-2.25,5.38-3.58,9.58-3.99l2.08-.13c.94-.09,1.64,.1,2.11,.57s.7,1.05,.7,1.74-.18,1.31-.54,1.84c-.36,.54-.89,.85-1.61,.94l-1.27,.07c-2.64,.18-4.56,.92-5.76,2.21-1.21,1.3-1.81,3.24-1.81,5.83v1.54h6.5c1.88,0,2.81,.87,2.81,2.61s-.94,2.61-2.81,2.61h-6.5v24.52c0,2.28-1.12,3.42-3.35,3.42Z"/>
    <path class="cls-1" d="M365.87,511.44c-3.31,0-6.16-.69-8.58-2.08-2.41-1.38-4.28-3.34-5.59-5.86-1.32-2.52-1.98-5.53-1.98-9.01s.66-6.49,1.98-9.01c1.32-2.52,3.18-4.48,5.59-5.86,2.41-1.38,5.27-2.08,8.58-2.08s6.03,.69,8.44,2.08c2.41,1.39,4.29,3.34,5.63,5.86,1.34,2.52,2.01,5.53,2.01,9.01s-.67,6.49-2.01,9.01c-1.34,2.52-3.22,4.48-5.63,5.86-2.41,1.39-5.23,2.08-8.44,2.08Zm0-5.23c2.77,0,5-1,6.7-3.02,1.7-2.01,2.55-4.91,2.55-8.71s-.85-6.69-2.55-8.68c-1.7-1.99-3.93-2.98-6.7-2.98s-5.07,.99-6.77,2.98c-1.7,1.99-2.55,4.88-2.55,8.68s.85,6.7,2.55,8.71c1.7,2.01,3.95,3.02,6.77,3.02Z"/>
    <path class="cls-1" d="M392.93,511.3c-2.28,0-3.42-1.14-3.42-3.42v-26.8c0-2.28,1.09-3.42,3.28-3.42s3.28,1.14,3.28,3.42v2.88c.89-2.01,2.24-3.55,4.05-4.62,1.81-1.07,4.01-1.7,6.6-1.88,1.65-.13,2.55,.76,2.68,2.68,.18,1.97-.78,3.04-2.88,3.22l-1.27,.13c-5.94,.58-8.91,3.64-8.91,9.18v15.21c0,2.28-1.14,3.42-3.42,3.42Z"/>
    <path class="cls-1" d="M442.65,511.44c-2.28,0-4.31-.45-6.1-1.34-1.79-.89-3.21-2.1-4.25-3.62-1.05-1.52-1.57-3.24-1.57-5.16,0-2.41,.61-4.31,1.84-5.69,1.23-1.38,3.26-2.39,6.1-3.02,2.84-.62,6.67-.94,11.49-.94h2.28v-1.74c0-2.55-.54-4.38-1.61-5.49-1.07-1.12-2.84-1.68-5.29-1.68-1.43,0-2.91,.18-4.46,.54-1.54,.36-3.14,.96-4.79,1.81-.94,.45-1.71,.51-2.31,.2-.6-.31-1.02-.8-1.24-1.47-.22-.67-.2-1.36,.07-2.08,.27-.71,.83-1.25,1.68-1.61,1.96-.89,3.91-1.55,5.83-1.98,1.92-.42,3.73-.64,5.43-.64,4.47,0,7.77,1.06,9.92,3.18,2.14,2.12,3.22,5.44,3.22,9.95v17.22c0,2.28-1.05,3.42-3.15,3.42s-3.22-1.14-3.22-3.42v-2.48c-.8,1.88-2.06,3.35-3.75,4.42-1.7,1.07-3.73,1.61-6.1,1.61Zm1.34-4.82c2.41,0,4.42-.85,6.03-2.55,1.61-1.7,2.41-3.84,2.41-6.43v-1.81h-2.21c-3.26,0-5.82,.16-7.67,.47-1.85,.31-3.17,.84-3.95,1.57-.78,.74-1.17,1.75-1.17,3.05,0,1.7,.58,3.07,1.74,4.12,1.16,1.05,2.77,1.57,4.82,1.57Z"/>
    <path class="cls-1" d="M489.21,511.3c-2.23,0-3.35-1.14-3.35-3.42v-26.8c0-2.28,1.09-3.42,3.28-3.42s3.28,1.14,3.28,3.42v2.48c1.12-1.96,2.65-3.46,4.59-4.49,1.94-1.03,4.12-1.54,6.53-1.54,7.73,0,11.59,4.38,11.59,13.13v17.22c0,2.28-1.12,3.42-3.35,3.42s-3.42-1.14-3.42-3.42v-16.82c0-2.81-.55-4.87-1.64-6.16-1.1-1.29-2.8-1.94-5.13-1.94-2.73,0-4.9,.86-6.53,2.58-1.63,1.72-2.45,3.99-2.45,6.8v15.54c0,2.28-1.14,3.42-3.42,3.42Z"/>
    <path class="cls-1" d="M539.8,511.44c-5.36,0-9.58-1.51-12.66-4.52s-4.62-7.14-4.62-12.36c0-3.35,.68-6.31,2.04-8.88,1.36-2.57,3.25-4.57,5.66-6,2.41-1.43,5.18-2.14,8.31-2.14,4.51,0,8.06,1.44,10.65,4.32,2.59,2.88,3.89,6.85,3.89,11.89,0,1.52-.89,2.28-2.68,2.28h-21.31c.49,6.79,4.09,10.18,10.79,10.18,1.34,0,2.75-.17,4.22-.5,1.47-.33,2.9-.95,4.29-1.84,.94-.54,1.75-.73,2.45-.57,.69,.16,1.19,.54,1.51,1.14s.37,1.27,.17,2.01c-.2,.74-.73,1.37-1.57,1.91-1.52,1.03-3.29,1.8-5.33,2.31-2.03,.51-3.96,.77-5.8,.77Zm-1-29.15c-2.81,0-5.05,.87-6.7,2.61-1.65,1.74-2.66,4.07-3.02,6.97h18.29c-.13-3.04-.94-5.39-2.41-7.07-1.47-1.68-3.53-2.51-6.16-2.51Z"/>
    <path class="cls-1" d="M571.89,511.3c-1.97,0-3.33-.98-4.09-2.95l-9.85-26.06c-.54-1.34-.53-2.45,.03-3.32s1.51-1.31,2.85-1.31c.8,0,1.45,.19,1.94,.57,.49,.38,.94,1.11,1.34,2.18l7.97,22.51,8.31-22.78c.62-1.65,1.74-2.48,3.35-2.48s2.77,.83,3.35,2.48l8.18,22.91,8.17-22.78c.36-1.03,.81-1.72,1.37-2.08,.56-.36,1.19-.54,1.91-.54,1.34,0,2.2,.47,2.58,1.41s.35,2.01-.1,3.22l-9.85,26.06c-.8,1.97-2.14,2.95-4.02,2.95-2.01,0-3.37-.98-4.09-2.95l-7.71-20.9-7.64,20.9c-.72,1.97-2.06,2.95-4.02,2.95Z"/>
    <path class="cls-1" d="M648.27,511.44c-4.11,0-7.17-1.05-9.18-3.15-2.01-2.1-3.01-5.14-3.01-9.11v-15.81h-4.02c-1.88,0-2.81-.87-2.81-2.61s.94-2.61,2.81-2.61h4.02v-6.9c0-2.28,1.14-3.42,3.42-3.42s3.35,1.14,3.35,3.42v6.9h7.84c1.88,0,2.81,.87,2.81,2.61s-.94,2.61-2.81,2.61h-7.84v15.28c0,2.37,.5,4.15,1.51,5.36s2.65,1.81,4.92,1.81c.8,0,1.5-.08,2.08-.23,.58-.16,1.09-.26,1.54-.3,.49,0,.89,.17,1.21,.5,.31,.33,.47,.97,.47,1.91,0,.71-.12,1.35-.37,1.91-.25,.56-.68,.93-1.31,1.11-.54,.22-1.26,.4-2.18,.54-.92,.13-1.73,.2-2.45,.2Z"/>
    <path class="cls-1" d="M672.66,511.44c-3.31,0-6.16-.69-8.58-2.08-2.41-1.38-4.28-3.34-5.59-5.86-1.32-2.52-1.98-5.53-1.98-9.01s.66-6.49,1.98-9.01c1.32-2.52,3.18-4.48,5.59-5.86,2.41-1.38,5.27-2.08,8.58-2.08s6.03,.69,8.44,2.08c2.41,1.39,4.29,3.34,5.63,5.86,1.34,2.52,2.01,5.53,2.01,9.01s-.67,6.49-2.01,9.01c-1.34,2.52-3.22,4.48-5.63,5.86-2.41,1.39-5.23,2.08-8.44,2.08Zm0-5.23c2.77,0,5-1,6.7-3.02,1.7-2.01,2.55-4.91,2.55-8.71s-.85-6.69-2.55-8.68c-1.7-1.99-3.93-2.98-6.7-2.98s-5.07,.99-6.77,2.98c-1.7,1.99-2.55,4.88-2.55,8.68s.85,6.7,2.55,8.71c1.7,2.01,3.95,3.02,6.77,3.02Z"/>
    <path class="cls-1" d="M707.76,511.44c-1.97,0-4-.22-6.1-.67-2.1-.45-4-1.21-5.7-2.28-.76-.45-1.23-1-1.41-1.67s-.13-1.29,.13-1.88c.27-.58,.7-.99,1.31-1.24,.6-.24,1.28-.17,2.04,.23,1.74,.94,3.42,1.61,5.03,2.01,1.61,.4,3.19,.6,4.76,.6,2.37,0,4.15-.42,5.36-1.27,1.21-.85,1.81-1.99,1.81-3.42,0-1.16-.4-2.07-1.21-2.71-.8-.65-2.01-1.15-3.62-1.51l-6.37-1.27c-5.63-1.16-8.44-4.06-8.44-8.71,0-3.08,1.23-5.54,3.68-7.37,2.46-1.83,5.67-2.75,9.65-2.75s7.48,.98,10.38,2.95c.71,.45,1.14,.99,1.27,1.64,.13,.65,.04,1.25-.27,1.81-.31,.56-.77,.95-1.37,1.17-.6,.22-1.31,.13-2.11-.27-1.34-.8-2.68-1.4-4.02-1.78-1.34-.38-2.64-.57-3.89-.57-2.32,0-4.09,.44-5.29,1.31-1.21,.87-1.81,2.04-1.81,3.52,0,2.23,1.47,3.66,4.42,4.29l6.37,1.27c2.9,.58,5.1,1.56,6.6,2.95,1.5,1.38,2.24,3.26,2.24,5.63,0,3.13-1.23,5.57-3.68,7.34-2.46,1.77-5.72,2.65-9.78,2.65Z"/>
    <path class="cls-1" d="M740.19,511.44c-1.97,0-4-.22-6.1-.67-2.1-.45-4-1.21-5.7-2.28-.76-.45-1.23-1-1.41-1.67s-.13-1.29,.13-1.88c.27-.58,.7-.99,1.31-1.24,.6-.24,1.28-.17,2.04,.23,1.74,.94,3.42,1.61,5.03,2.01,1.61,.4,3.19,.6,4.76,.6,2.37,0,4.15-.42,5.36-1.27,1.21-.85,1.81-1.99,1.81-3.42,0-1.16-.4-2.07-1.21-2.71-.8-.65-2.01-1.15-3.62-1.51l-6.37-1.27c-5.63-1.16-8.44-4.06-8.44-8.71,0-3.08,1.23-5.54,3.68-7.37,2.46-1.83,5.67-2.75,9.65-2.75s7.48,.98,10.38,2.95c.71,.45,1.14,.99,1.27,1.64,.13,.65,.04,1.25-.27,1.81-.31,.56-.77,.95-1.37,1.17-.6,.22-1.31,.13-2.11-.27-1.34-.8-2.68-1.4-4.02-1.78-1.34-.38-2.64-.57-3.89-.57-2.32,0-4.09,.44-5.29,1.31-1.21,.87-1.81,2.04-1.81,3.52,0,2.23,1.47,3.66,4.42,4.29l6.37,1.27c2.9,.58,5.1,1.56,6.6,2.95,1.5,1.38,2.24,3.26,2.24,5.63,0,3.13-1.23,5.57-3.68,7.34-2.46,1.77-5.72,2.65-9.78,2.65Z"/>
  </g>
  <path id="Heads" class="cls-4" d="M539.5,1028.25c-147.93,0-267.85,119.92-267.85,267.85s119.92,267.85,267.85,267.85,267.85-119.92,267.85-267.85-119.92-267.85-267.85-267.85Zm.27,514.54c-136.1,0-246.42-110.33-246.42-246.42s110.33-246.42,246.42-246.42,246.42,110.33,246.42,246.42-110.33,246.42-246.42,246.42Zm16.75-432.05c76.56,0,138.9,62.38,138.9,138.99,0,38.83-16.47,76.18-45.09,102.41-2.41,2.24-3.79,5.35-3.79,8.54v92.06c-.09,.43-.69,1.21-1.12,1.38l-153.64,27.18-.09-40.12c0-3.36-1.47-6.64-4.05-8.8-2.16-1.81-4.83-2.85-7.59-2.85-.6,0-1.12,0-1.72,.09l-42.5,6.3c-10.69-.43-19.23-9.23-19.23-20.02v-55.74c0-6.47-5.17-11.65-11.64-11.65h-14.23c-4.4,0-6.72-1.21-7.33-2.24-.6-1.04-.69-3.71,1.38-7.59l30.69-58.58c.86-1.64,1.29-3.54,1.29-5.44v-25.02c0-53.84,31.56-103.19,80.35-125.88h.09c18.54-8.63,38.54-13.03,59.32-13.03m0-21.43c-23.51,0-46.12,4.88-67.23,14.51-.41,.16-.81,.33-1.21,.52-56.34,26.2-92.75,83.24-92.75,145.31v22.71l-29.51,56.33c-5.29,9.98-5.64,20.32-.94,28.38,4.77,8.19,14.19,12.88,25.84,12.88h4.44v45.96c0,10.78,4.12,20.99,11.6,28.76,7.45,7.74,17.47,12.24,28.19,12.67,.29,.01,.58,.02,.86,.02,1.05,0,2.1-.08,3.14-.23l31.32-4.64,.06,28.87c.01,6.33,2.82,12.33,7.68,16.39,3.89,3.25,8.76,4.99,13.75,4.99,1.24,0,2.49-.11,3.73-.33l153.64-27.18c1.45-.26,2.86-.66,4.23-1.21,7.1-2.84,12.67-9.54,14.17-17.07,.28-1.38,.42-2.79,.42-4.2v-87.78c31.12-30.12,48.89-71.87,48.89-115.24,0-88.46-71.92-160.42-160.32-160.42h0Z"/>
</svg>