<?xml version="1.0" encoding="UTF-8"?>
<svg id="Color_Picker" data-name="Color Picker" xmlns="http://www.w3.org/2000/svg" viewBox="0 0 1080 2272">
  <defs>
    <style>
      .cls-1 {
        fill: #fff;
      }

      .cls-2 {
        opacity: .5;
      }

      .cls-3 {
        fill: #9f58f2;
      }

      .cls-4 {
        fill: #2b324d;
      }

      .cls-5 {
        fill: #0c0414;
      }

      .cls-6 {
        fill: #22283d;
      }
    </style>
  </defs>
  <rect id="Background" class="cls-5" width="1080" height="2272" rx="100" ry="100"/>
  <rect id="Result" class="cls-3" x="269.5" y="806" width="540" height="540" rx="50" ry="50"/>
  <g>
    <path class="cls-1" d="M184.66,304.11c-7.6,0-14.16-1.6-19.68-4.79-5.52-3.19-9.8-7.7-12.84-13.53-3.04-5.83-4.56-12.69-4.56-20.6,0-11.75,3.34-21.03,10.03-27.82,6.69-6.79,15.71-10.18,27.06-10.18,3.55,0,7.27,.53,11.17,1.6,3.9,1.06,7.52,2.81,10.87,5.24,1.62,1.01,2.56,2.31,2.81,3.88,.25,1.57,0,3.04-.76,4.41-.76,1.37-1.85,2.28-3.27,2.74-1.42,.46-3.04,.18-4.86-.84-2.43-1.72-4.92-2.96-7.45-3.72-2.53-.76-4.97-1.14-7.3-1.14-7.2,0-12.74,2.26-16.64,6.76-3.9,4.51-5.85,10.92-5.85,19.23s1.95,14.82,5.85,19.53c3.9,4.71,9.45,7.07,16.64,7.07,2.33,0,4.74-.35,7.22-1.06,2.48-.71,4.99-1.92,7.52-3.65,1.82-1.01,3.42-1.27,4.79-.76,1.37,.51,2.38,1.44,3.04,2.81,.66,1.37,.86,2.84,.61,4.41-.25,1.57-1.19,2.86-2.81,3.88-3.24,2.33-6.76,4-10.56,5.02-3.8,1.01-7.47,1.52-11.02,1.52Z"/>
    <path class="cls-1" d="M253.67,304.11c-7.5,0-13.98-1.57-19.46-4.71-5.47-3.14-9.7-7.57-12.69-13.3-2.99-5.72-4.48-12.54-4.48-20.44s1.49-14.72,4.48-20.44c2.99-5.72,7.22-10.16,12.69-13.3,5.47-3.14,11.96-4.71,19.46-4.71s13.68,1.57,19.15,4.71c5.47,3.14,9.73,7.58,12.77,13.3,3.04,5.73,4.56,12.54,4.56,20.44s-1.52,14.72-4.56,20.44c-3.04,5.73-7.3,10.16-12.77,13.3-5.47,3.14-11.86,4.71-19.15,4.71Zm0-11.86c6.28,0,11.35-2.28,15.2-6.84,3.85-4.56,5.78-11.15,5.78-19.76s-1.93-15.17-5.78-19.68c-3.85-4.51-8.92-6.76-15.2-6.76s-11.5,2.26-15.35,6.76c-3.85,4.51-5.78,11.07-5.78,19.68s1.92,15.2,5.78,19.76c3.85,4.56,8.97,6.84,15.35,6.84Z"/>
    <path class="cls-1" d="M331.19,304.11c-7.9,0-13.86-2.28-17.86-6.84-4-4.56-6-11.25-6-20.06v-74.94c0-5.17,2.53-7.75,7.6-7.75s7.75,2.58,7.75,7.75v74.02c0,10.03,4.05,15.05,12.16,15.05,.91,0,1.72-.05,2.43-.15,.71-.1,1.42-.15,2.13-.15,1.22-.1,2.08,.23,2.58,.99,.51,.76,.76,2.31,.76,4.64,0,4.16-1.93,6.54-5.78,7.14-1.01,.1-2,.18-2.96,.23-.96,.05-1.9,.08-2.81,.08Z"/>
    <path class="cls-1" d="M385.3,304.11c-7.5,0-13.98-1.57-19.46-4.71-5.47-3.14-9.7-7.57-12.69-13.3-2.99-5.72-4.48-12.54-4.48-20.44s1.49-14.72,4.48-20.44c2.99-5.72,7.22-10.16,12.69-13.3,5.47-3.14,11.96-4.71,19.46-4.71s13.68,1.57,19.15,4.71c5.47,3.14,9.73,7.58,12.77,13.3,3.04,5.73,4.56,12.54,4.56,20.44s-1.52,14.72-4.56,20.44c-3.04,5.73-7.3,10.16-12.77,13.3-5.47,3.14-11.86,4.71-19.15,4.71Zm0-11.86c6.28,0,11.35-2.28,15.2-6.84,3.85-4.56,5.78-11.15,5.78-19.76s-1.93-15.17-5.78-19.68c-3.85-4.51-8.92-6.76-15.2-6.76s-11.5,2.26-15.35,6.76c-3.85,4.51-5.78,11.07-5.78,19.68s1.92,15.2,5.78,19.76c3.85,4.56,8.97,6.84,15.35,6.84Z"/>
    <path class="cls-1" d="M446.71,303.8c-5.17,0-7.75-2.58-7.75-7.75v-60.8c0-5.17,2.48-7.75,7.45-7.75s7.45,2.58,7.45,7.75v6.54c2.03-4.56,5.09-8.06,9.2-10.49s9.09-3.85,14.97-4.26c3.75-.3,5.78,1.72,6.08,6.08,.4,4.46-1.77,6.89-6.54,7.3l-2.89,.3c-13.48,1.32-20.22,8.26-20.22,20.82v34.5c0,5.17-2.58,7.75-7.75,7.75Z"/>
    <path class="cls-1" d="M543.38,331.16c-5.07,0-7.6-2.58-7.6-7.75v-88.16c0-5.17,2.48-7.75,7.45-7.75s7.6,2.58,7.6,7.75v5.78c2.23-4.26,5.52-7.62,9.88-10.11,4.36-2.48,9.32-3.72,14.9-3.72,6.59,0,12.34,1.57,17.25,4.71,4.91,3.14,8.71,7.58,11.4,13.3,2.68,5.73,4.03,12.54,4.03,20.44s-1.34,14.74-4.03,20.52c-2.69,5.78-6.49,10.21-11.4,13.3-4.92,3.09-10.67,4.64-17.25,4.64-5.47,0-10.36-1.19-14.67-3.57-4.31-2.38-7.58-5.65-9.8-9.8v32.68c0,5.17-2.58,7.75-7.75,7.75Zm28.42-38.91c6.38,0,11.48-2.28,15.28-6.84s5.7-11.15,5.7-19.76-1.9-15.17-5.7-19.68c-3.8-4.51-8.89-6.76-15.28-6.76s-11.48,2.26-15.28,6.76c-3.8,4.51-5.7,11.07-5.7,19.68s1.9,15.2,5.7,19.76,8.89,6.84,15.28,6.84Z"/>
    <path class="cls-1" d="M633.21,211.99c-3.04,0-5.4-.76-7.07-2.28s-2.51-3.65-2.51-6.38c0-5.78,3.19-8.66,9.58-8.66s9.58,2.89,9.58,8.66-3.19,8.66-9.58,8.66Zm0,91.66c-5.07,0-7.6-2.79-7.6-8.36v-59.28c0-5.47,2.53-8.21,7.6-8.21s7.75,2.74,7.75,8.21v59.28c0,5.57-2.58,8.36-7.75,8.36Z"/>
    <path class="cls-1" d="M695.22,304.11c-7.6,0-14.16-1.6-19.68-4.79-5.52-3.19-9.8-7.7-12.84-13.53-3.04-5.83-4.56-12.69-4.56-20.6,0-11.75,3.34-21.03,10.03-27.82,6.69-6.79,15.71-10.18,27.06-10.18,3.55,0,7.27,.53,11.17,1.6,3.9,1.06,7.52,2.81,10.87,5.24,1.62,1.01,2.56,2.31,2.81,3.88,.25,1.57,0,3.04-.76,4.41-.76,1.37-1.85,2.28-3.27,2.74-1.42,.46-3.04,.18-4.86-.84-2.43-1.72-4.92-2.96-7.45-3.72-2.53-.76-4.97-1.14-7.3-1.14-7.2,0-12.75,2.26-16.64,6.76-3.9,4.51-5.85,10.92-5.85,19.23s1.95,14.82,5.85,19.53c3.9,4.71,9.45,7.07,16.64,7.07,2.33,0,4.74-.35,7.22-1.06,2.48-.71,4.99-1.92,7.52-3.65,1.82-1.01,3.42-1.27,4.79-.76,1.37,.51,2.38,1.44,3.04,2.81,.66,1.37,.86,2.84,.61,4.41-.25,1.57-1.19,2.86-2.81,3.88-3.24,2.33-6.76,4-10.56,5.02s-7.47,1.52-11.02,1.52Z"/>
    <path class="cls-1" d="M741.13,303.8c-5.07,0-7.6-2.58-7.6-7.75v-93.78c0-5.17,2.53-7.75,7.6-7.75s7.75,2.58,7.75,7.75v58.67h.3l28.42-28.27c1.62-1.62,3.09-2.89,4.41-3.8,1.32-.91,3.04-1.37,5.17-1.37,3.14,0,5.19,1.17,6.16,3.5,.96,2.33,.33,4.66-1.9,6.99l-26.6,26.3,29.34,29.03c1.62,1.62,2.38,3.24,2.28,4.86-.1,1.62-.76,2.96-1.98,4.03-1.22,1.06-2.74,1.6-4.56,1.6-2.33,0-4.18-.46-5.55-1.37-1.37-.91-2.96-2.28-4.79-4.1l-30.4-29.49h-.3v27.21c0,5.17-2.58,7.75-7.75,7.75Z"/>
    <path class="cls-1" d="M845.09,304.11c-12.16,0-21.74-3.42-28.73-10.26-6.99-6.84-10.49-16.19-10.49-28.04,0-7.6,1.54-14.31,4.64-20.14,3.09-5.83,7.37-10.36,12.84-13.6,5.47-3.24,11.75-4.86,18.85-4.86,10.23,0,18.29,3.27,24.17,9.8,5.88,6.54,8.82,15.53,8.82,26.98,0,3.45-2.03,5.17-6.08,5.17h-48.34c1.11,15.4,9.27,23.1,24.47,23.1,3.04,0,6.23-.38,9.58-1.14,3.34-.76,6.59-2.15,9.73-4.18,2.13-1.22,3.98-1.65,5.55-1.29,1.57,.36,2.71,1.22,3.42,2.58,.71,1.37,.84,2.89,.38,4.56s-1.65,3.12-3.57,4.33c-3.45,2.33-7.47,4.08-12.08,5.24-4.61,1.16-8.99,1.75-13.15,1.75Zm-2.28-66.12c-6.38,0-11.45,1.98-15.2,5.93-3.75,3.95-6.03,9.22-6.84,15.81h41.5c-.3-6.89-2.13-12.24-5.47-16.04-3.34-3.8-8.01-5.7-13.98-5.7Z"/>
    <path class="cls-1" d="M899.66,303.8c-5.17,0-7.75-2.58-7.75-7.75v-60.8c0-5.17,2.48-7.75,7.45-7.75s7.45,2.58,7.45,7.75v6.54c2.03-4.56,5.09-8.06,9.2-10.49,4.1-2.43,9.09-3.85,14.97-4.26,3.75-.3,5.78,1.72,6.08,6.08,.4,4.46-1.77,6.89-6.54,7.3l-2.89,.3c-13.48,1.32-20.22,8.26-20.22,20.82v34.5c0,5.17-2.58,7.75-7.75,7.75Z"/>
  </g>
  <g class="cls-2">
    <path class="cls-1" d="M185.7,417.44c-4.11,0-7.17-1.05-9.18-3.15-2.01-2.1-3.02-5.14-3.02-9.11v-15.81h-4.02c-1.88,0-2.81-.87-2.81-2.61s.94-2.61,2.81-2.61h4.02v-6.9c0-2.28,1.14-3.42,3.42-3.42s3.35,1.14,3.35,3.42v6.9h7.84c1.88,0,2.81,.87,2.81,2.61s-.94,2.61-2.81,2.61h-7.84v15.28c0,2.37,.5,4.15,1.51,5.36s2.65,1.81,4.92,1.81c.8,0,1.5-.08,2.08-.23,.58-.16,1.09-.26,1.54-.3,.49,0,.89,.17,1.21,.5,.31,.33,.47,.97,.47,1.91,0,.71-.12,1.35-.37,1.91-.25,.56-.68,.93-1.31,1.11-.54,.22-1.26,.4-2.18,.54-.92,.13-1.73,.2-2.45,.2Z"/>
    <path class="cls-1" d="M206.68,417.44c-2.28,0-4.31-.45-6.1-1.34-1.79-.89-3.21-2.1-4.25-3.62-1.05-1.52-1.57-3.24-1.57-5.16,0-2.41,.61-4.31,1.84-5.69,1.23-1.38,3.26-2.39,6.1-3.02,2.84-.62,6.67-.94,11.49-.94h2.28v-1.74c0-2.55-.54-4.38-1.61-5.49-1.07-1.12-2.84-1.68-5.29-1.68-1.43,0-2.91,.18-4.46,.54-1.54,.36-3.14,.96-4.79,1.81-.94,.45-1.71,.51-2.31,.2-.6-.31-1.02-.8-1.24-1.47-.22-.67-.2-1.36,.07-2.08,.27-.71,.83-1.25,1.68-1.61,1.96-.89,3.91-1.55,5.83-1.98,1.92-.42,3.73-.64,5.43-.64,4.47,0,7.77,1.06,9.92,3.18,2.14,2.12,3.22,5.44,3.22,9.95v17.22c0,2.28-1.05,3.42-3.15,3.42s-3.22-1.14-3.22-3.42v-2.48c-.8,1.88-2.06,3.35-3.75,4.42-1.7,1.07-3.73,1.61-6.1,1.61Zm1.34-4.82c2.41,0,4.42-.85,6.03-2.55,1.61-1.7,2.41-3.84,2.41-6.43v-1.81h-2.21c-3.26,0-5.82,.16-7.67,.47-1.85,.31-3.17,.84-3.95,1.57-.78,.74-1.17,1.75-1.17,3.05,0,1.7,.58,3.07,1.74,4.12,1.16,1.05,2.77,1.57,4.82,1.57Z"/>
    <path class="cls-1" d="M235.55,429.36c-2.23,0-3.35-1.14-3.35-3.42v-38.86c0-2.28,1.09-3.42,3.28-3.42s3.35,1.14,3.35,3.42v2.55c.98-1.88,2.43-3.36,4.35-4.46,1.92-1.09,4.11-1.64,6.57-1.64,2.9,0,5.44,.69,7.6,2.08,2.17,1.39,3.84,3.34,5.02,5.86,1.18,2.52,1.78,5.53,1.78,9.01s-.59,6.5-1.78,9.04c-1.18,2.55-2.86,4.5-5.02,5.86-2.17,1.36-4.7,2.04-7.6,2.04-2.41,0-4.57-.53-6.47-1.57-1.9-1.05-3.34-2.49-4.32-4.32v14.4c0,2.28-1.14,3.42-3.42,3.42Zm12.53-17.15c2.81,0,5.06-1,6.73-3.02,1.67-2.01,2.51-4.91,2.51-8.71s-.84-6.69-2.51-8.68c-1.68-1.99-3.92-2.98-6.73-2.98s-5.06,.99-6.73,2.98c-1.67,1.99-2.51,4.88-2.51,8.68s.84,6.7,2.51,8.71c1.68,2.01,3.92,3.02,6.73,3.02Z"/>
    <path class="cls-1" d="M303.42,417.44c-4.11,0-7.17-1.05-9.18-3.15-2.01-2.1-3.02-5.14-3.02-9.11v-15.81h-4.02c-1.88,0-2.81-.87-2.81-2.61s.94-2.61,2.81-2.61h4.02v-6.9c0-2.28,1.14-3.42,3.42-3.42s3.35,1.14,3.35,3.42v6.9h7.84c1.88,0,2.81,.87,2.81,2.61s-.94,2.61-2.81,2.61h-7.84v15.28c0,2.37,.5,4.15,1.51,5.36s2.65,1.81,4.92,1.81c.8,0,1.5-.08,2.08-.23,.58-.16,1.09-.26,1.54-.3,.49,0,.89,.17,1.21,.5,.31,.33,.47,.97,.47,1.91,0,.71-.12,1.35-.37,1.91-.25,.56-.68,.93-1.31,1.11-.54,.22-1.26,.4-2.18,.54-.92,.13-1.73,.2-2.45,.2Z"/>
    <path class="cls-1" d="M317.89,417.3c-2.23,0-3.35-1.14-3.35-3.42v-41.34c0-2.28,1.12-3.42,3.35-3.42s3.42,1.14,3.42,3.42v16.68c1.12-1.88,2.62-3.29,4.52-4.25,1.9-.96,4.03-1.44,6.4-1.44,7.73,0,11.59,4.38,11.59,13.13v17.22c0,2.28-1.12,3.42-3.35,3.42s-3.42-1.14-3.42-3.42v-16.82c0-2.81-.55-4.87-1.64-6.16-1.1-1.29-2.8-1.94-5.13-1.94-2.73,0-4.9,.86-6.53,2.58-1.63,1.72-2.45,3.99-2.45,6.8v15.54c0,2.28-1.14,3.42-3.42,3.42Z"/>
    <path class="cls-1" d="M368.48,417.44c-5.36,0-9.58-1.51-12.66-4.52s-4.62-7.14-4.62-12.36c0-3.35,.68-6.31,2.04-8.88,1.36-2.57,3.25-4.57,5.66-6,2.41-1.43,5.18-2.14,8.31-2.14,4.51,0,8.06,1.44,10.65,4.32,2.59,2.88,3.89,6.85,3.89,11.89,0,1.52-.89,2.28-2.68,2.28h-21.31c.49,6.79,4.09,10.18,10.79,10.18,1.34,0,2.75-.17,4.22-.5,1.47-.33,2.9-.95,4.29-1.84,.94-.54,1.75-.73,2.45-.57,.69,.16,1.19,.54,1.51,1.14,.31,.6,.37,1.27,.17,2.01-.2,.74-.73,1.37-1.57,1.91-1.52,1.03-3.29,1.8-5.33,2.31-2.03,.51-3.96,.77-5.8,.77Zm-1-29.15c-2.81,0-5.05,.87-6.7,2.61-1.65,1.74-2.66,4.07-3.02,6.97h18.29c-.13-3.04-.94-5.39-2.41-7.07-1.47-1.68-3.53-2.51-6.16-2.51Z"/>
    <path class="cls-1" d="M421.2,417.44c-3.35,0-6.24-.7-8.68-2.11-2.44-1.41-4.32-3.39-5.66-5.96-1.34-2.57-2.01-5.59-2.01-9.08,0-5.18,1.47-9.27,4.42-12.26,2.95-2.99,6.92-4.49,11.93-4.49,1.56,0,3.2,.23,4.92,.7,1.72,.47,3.32,1.24,4.79,2.31,.71,.45,1.13,1.02,1.24,1.71,.11,.69,0,1.34-.33,1.94-.34,.6-.82,1-1.44,1.21-.63,.2-1.34,.08-2.14-.37-1.07-.76-2.17-1.31-3.28-1.64-1.12-.33-2.19-.5-3.22-.5-3.17,0-5.62,.99-7.34,2.98-1.72,1.99-2.58,4.81-2.58,8.48s.86,6.53,2.58,8.61c1.72,2.08,4.16,3.12,7.34,3.12,1.03,0,2.09-.16,3.18-.47,1.09-.31,2.2-.85,3.32-1.61,.8-.45,1.51-.56,2.11-.33,.6,.22,1.05,.64,1.34,1.24,.29,.6,.38,1.25,.27,1.94-.11,.69-.53,1.26-1.24,1.71-1.43,1.03-2.98,1.76-4.66,2.21-1.67,.45-3.29,.67-4.86,.67Z"/>
    <path class="cls-1" d="M451.62,417.44c-3.31,0-6.16-.69-8.58-2.08-2.41-1.38-4.28-3.34-5.59-5.86-1.32-2.52-1.98-5.53-1.98-9.01s.66-6.49,1.98-9.01c1.32-2.52,3.18-4.48,5.59-5.86,2.41-1.38,5.27-2.08,8.58-2.08s6.03,.69,8.44,2.08c2.41,1.39,4.29,3.34,5.63,5.86,1.34,2.52,2.01,5.53,2.01,9.01s-.67,6.49-2.01,9.01c-1.34,2.52-3.22,4.48-5.63,5.86-2.41,1.39-5.23,2.08-8.44,2.08Zm0-5.23c2.77,0,5-1,6.7-3.02,1.7-2.01,2.55-4.91,2.55-8.71s-.85-6.69-2.55-8.68c-1.7-1.99-3.93-2.98-6.7-2.98s-5.07,.99-6.77,2.98c-1.7,1.99-2.55,4.88-2.55,8.68s.85,6.7,2.55,8.71c1.7,2.01,3.95,3.02,6.77,3.02Z"/>
    <path class="cls-1" d="M485.79,417.44c-3.48,0-6.11-1-7.87-3.02-1.76-2.01-2.65-4.96-2.65-8.84v-33.03c0-2.28,1.12-3.42,3.35-3.42s3.42,1.14,3.42,3.42v32.63c0,4.42,1.79,6.63,5.36,6.63,.4,0,.76-.02,1.07-.07,.31-.04,.62-.07,.94-.07,.54-.04,.92,.1,1.14,.44,.22,.33,.33,1.02,.33,2.04,0,1.83-.85,2.88-2.55,3.15-.45,.04-.88,.08-1.31,.1-.43,.02-.84,.03-1.24,.03Z"/>
    <path class="cls-1" d="M509.64,417.44c-3.31,0-6.16-.69-8.58-2.08-2.41-1.38-4.28-3.34-5.59-5.86-1.32-2.52-1.98-5.53-1.98-9.01s.66-6.49,1.98-9.01c1.32-2.52,3.18-4.48,5.59-5.86,2.41-1.38,5.27-2.08,8.58-2.08s6.03,.69,8.44,2.08c2.41,1.39,4.29,3.34,5.63,5.86,1.34,2.52,2.01,5.53,2.01,9.01s-.67,6.49-2.01,9.01c-1.34,2.52-3.22,4.48-5.63,5.86-2.41,1.39-5.23,2.08-8.44,2.08Zm0-5.23c2.77,0,5-1,6.7-3.02,1.7-2.01,2.55-4.91,2.55-8.71s-.85-6.69-2.55-8.68c-1.7-1.99-3.93-2.98-6.7-2.98s-5.07,.99-6.77,2.98c-1.7,1.99-2.55,4.88-2.55,8.68s.85,6.7,2.55,8.71c1.7,2.01,3.95,3.02,6.77,3.02Z"/>
    <path class="cls-1" d="M536.71,417.3c-2.28,0-3.42-1.14-3.42-3.42v-26.8c0-2.28,1.09-3.42,3.28-3.42s3.28,1.14,3.28,3.42v2.88c.89-2.01,2.24-3.55,4.05-4.62,1.81-1.07,4.01-1.7,6.6-1.88,1.65-.13,2.55,.76,2.68,2.68,.18,1.97-.78,3.04-2.88,3.22l-1.27,.13c-5.94,.58-8.91,3.64-8.91,9.18v15.21c0,2.28-1.14,3.42-3.42,3.42Z"/>
    <path class="cls-1" d="M589.91,417.44c-4.11,0-7.17-1.05-9.18-3.15-2.01-2.1-3.01-5.14-3.01-9.11v-15.81h-4.02c-1.88,0-2.81-.87-2.81-2.61s.94-2.61,2.81-2.61h4.02v-6.9c0-2.28,1.14-3.42,3.42-3.42s3.35,1.14,3.35,3.42v6.9h7.84c1.88,0,2.81,.87,2.81,2.61s-.94,2.61-2.81,2.61h-7.84v15.28c0,2.37,.5,4.15,1.51,5.36s2.65,1.81,4.92,1.81c.8,0,1.5-.08,2.08-.23,.58-.16,1.09-.26,1.54-.3,.49,0,.89,.17,1.21,.5,.31,.33,.47,.97,.47,1.91,0,.71-.12,1.35-.37,1.91-.25,.56-.68,.93-1.31,1.11-.54,.22-1.26,.4-2.18,.54-.92,.13-1.73,.2-2.45,.2Z"/>
    <path class="cls-1" d="M614.29,417.44c-3.31,0-6.16-.69-8.58-2.08-2.41-1.38-4.28-3.34-5.59-5.86-1.32-2.52-1.98-5.53-1.98-9.01s.66-6.49,1.98-9.01c1.32-2.52,3.18-4.48,5.59-5.86,2.41-1.38,5.27-2.08,8.58-2.08s6.03,.69,8.44,2.08c2.41,1.39,4.29,3.34,5.63,5.86,1.34,2.52,2.01,5.53,2.01,9.01s-.67,6.49-2.01,9.01c-1.34,2.52-3.22,4.48-5.63,5.86-2.41,1.39-5.23,2.08-8.44,2.08Zm0-5.23c2.77,0,5-1,6.7-3.02,1.7-2.01,2.55-4.91,2.55-8.71s-.85-6.69-2.55-8.68c-1.7-1.99-3.93-2.98-6.7-2.98s-5.07,.99-6.77,2.98c-1.7,1.99-2.55,4.88-2.55,8.68s.85,6.7,2.55,8.71c1.7,2.01,3.95,3.02,6.77,3.02Z"/>
    <path class="cls-1" d="M670.98,417.44c-5.36,0-9.58-1.51-12.66-4.52-3.08-3.02-4.62-7.14-4.62-12.36,0-3.35,.68-6.31,2.04-8.88,1.36-2.57,3.25-4.57,5.66-6,2.41-1.43,5.18-2.14,8.31-2.14,4.51,0,8.06,1.44,10.65,4.32,2.59,2.88,3.89,6.85,3.89,11.89,0,1.52-.89,2.28-2.68,2.28h-21.31c.49,6.79,4.09,10.18,10.79,10.18,1.34,0,2.75-.17,4.22-.5,1.47-.33,2.9-.95,4.29-1.84,.94-.54,1.75-.73,2.45-.57,.69,.16,1.2,.54,1.51,1.14s.37,1.27,.17,2.01c-.2,.74-.73,1.37-1.58,1.91-1.52,1.03-3.29,1.8-5.33,2.31-2.03,.51-3.96,.77-5.8,.77Zm-1-29.15c-2.81,0-5.05,.87-6.7,2.61-1.65,1.74-2.66,4.07-3.01,6.97h18.29c-.13-3.04-.94-5.39-2.41-7.07-1.47-1.68-3.53-2.51-6.16-2.51Z"/>
    <path class="cls-1" d="M704.07,417.44c-2.86,0-5.37-.68-7.54-2.04-2.17-1.36-3.85-3.32-5.06-5.86-1.21-2.55-1.81-5.56-1.81-9.04s.6-6.49,1.81-9.01c1.21-2.52,2.88-4.48,5.03-5.86,2.14-1.38,4.67-2.08,7.57-2.08,2.46,0,4.65,.54,6.57,1.61,1.92,1.07,3.35,2.52,4.29,4.35v-16.95c0-2.28,1.12-3.42,3.35-3.42s3.42,1.14,3.42,3.42v41.34c0,2.28-1.12,3.42-3.35,3.42s-3.35-1.14-3.35-3.42v-2.55c-.98,1.88-2.43,3.36-4.35,4.46-1.92,1.09-4.11,1.64-6.57,1.64Zm1.74-5.23c2.77,0,5-1,6.7-3.02,1.7-2.01,2.55-4.91,2.55-8.71s-.85-6.69-2.55-8.68c-1.7-1.99-3.93-2.98-6.7-2.98s-5.07,.99-6.77,2.98c-1.7,1.99-2.55,4.88-2.55,8.68s.85,6.7,2.55,8.71c1.7,2.01,3.95,3.02,6.77,3.02Z"/>
    <path class="cls-1" d="M734.56,376.83c-1.34,0-2.38-.33-3.12-1-.74-.67-1.11-1.61-1.11-2.81,0-2.55,1.41-3.82,4.22-3.82s4.22,1.27,4.22,3.82-1.41,3.82-4.22,3.82Zm0,40.4c-2.23,0-3.35-1.23-3.35-3.69v-26.13c0-2.41,1.12-3.62,3.35-3.62s3.42,1.21,3.42,3.62v26.13c0,2.46-1.14,3.69-3.42,3.69Z"/>
    <path class="cls-1" d="M761.42,417.44c-4.11,0-7.17-1.05-9.18-3.15-2.01-2.1-3.01-5.14-3.01-9.11v-15.81h-4.02c-1.88,0-2.81-.87-2.81-2.61s.94-2.61,2.81-2.61h4.02v-6.9c0-2.28,1.14-3.42,3.42-3.42s3.35,1.14,3.35,3.42v6.9h7.84c1.88,0,2.81,.87,2.81,2.61s-.94,2.61-2.81,2.61h-7.84v15.28c0,2.37,.5,4.15,1.51,5.36s2.65,1.81,4.92,1.81c.8,0,1.5-.08,2.08-.23,.58-.16,1.09-.26,1.54-.3,.49,0,.89,.17,1.21,.5,.31,.33,.47,.97,.47,1.91,0,.71-.12,1.35-.37,1.91-.25,.56-.68,.93-1.31,1.11-.54,.22-1.26,.4-2.18,.54-.92,.13-1.73,.2-2.45,.2Z"/>
    <path class="cls-1" d="M777.03,423.6c-.67,.8-1.37,1.16-2.11,1.07-.74-.09-1.24-.46-1.51-1.11-.27-.65-.04-1.44,.67-2.38,.54-.67,.95-1.35,1.24-2.04,.29-.69,.5-1.37,.64-2.04-1.21-.09-2.18-.52-2.92-1.31-.74-.78-1.11-1.78-1.11-2.98s.38-2.27,1.14-3.05c.76-.78,1.79-1.17,3.08-1.17s2.4,.46,3.18,1.37c.78,.92,1.17,2.22,1.17,3.92,0,1.47-.23,3.04-.7,4.69-.47,1.65-1.4,3.33-2.78,5.02Z"/>
    <path class="cls-1" d="M817.03,417.44c-2.28,0-4.31-.45-6.1-1.34-1.79-.89-3.21-2.1-4.25-3.62-1.05-1.52-1.57-3.24-1.57-5.16,0-2.41,.61-4.31,1.84-5.69,1.23-1.38,3.26-2.39,6.1-3.02,2.84-.62,6.67-.94,11.49-.94h2.28v-1.74c0-2.55-.54-4.38-1.61-5.49-1.07-1.12-2.84-1.68-5.29-1.68-1.43,0-2.91,.18-4.46,.54-1.54,.36-3.14,.96-4.79,1.81-.94,.45-1.71,.51-2.31,.2-.6-.31-1.02-.8-1.24-1.47-.22-.67-.2-1.36,.07-2.08,.27-.71,.83-1.25,1.67-1.61,1.96-.89,3.91-1.55,5.83-1.98,1.92-.42,3.73-.64,5.43-.64,4.47,0,7.77,1.06,9.92,3.18,2.14,2.12,3.22,5.44,3.22,9.95v17.22c0,2.28-1.05,3.42-3.15,3.42s-3.22-1.14-3.22-3.42v-2.48c-.8,1.88-2.05,3.35-3.75,4.42-1.7,1.07-3.73,1.61-6.1,1.61Zm1.34-4.82c2.41,0,4.42-.85,6.03-2.55,1.61-1.7,2.41-3.84,2.41-6.43v-1.81h-2.21c-3.26,0-5.82,.16-7.67,.47-1.85,.31-3.17,.84-3.95,1.57-.78,.74-1.17,1.75-1.17,3.05,0,1.7,.58,3.07,1.74,4.12,1.16,1.05,2.77,1.57,4.82,1.57Z"/>
    <path class="cls-1" d="M845.91,417.3c-2.23,0-3.35-1.14-3.35-3.42v-26.8c0-2.28,1.09-3.42,3.28-3.42s3.28,1.14,3.28,3.42v2.48c1.12-1.96,2.65-3.46,4.59-4.49,1.94-1.03,4.12-1.54,6.53-1.54,7.73,0,11.59,4.38,11.59,13.13v17.22c0,2.28-1.12,3.42-3.35,3.42s-3.42-1.14-3.42-3.42v-16.82c0-2.81-.55-4.87-1.64-6.16-1.1-1.29-2.8-1.94-5.13-1.94-2.72,0-4.9,.86-6.53,2.58-1.63,1.72-2.45,3.99-2.45,6.8v15.54c0,2.28-1.14,3.42-3.42,3.42Z"/>
    <path class="cls-1" d="M893.61,417.44c-2.86,0-5.37-.68-7.54-2.04-2.17-1.36-3.85-3.32-5.06-5.86-1.21-2.55-1.81-5.56-1.81-9.04s.6-6.49,1.81-9.01c1.21-2.52,2.88-4.48,5.03-5.86,2.14-1.38,4.67-2.08,7.57-2.08,2.46,0,4.65,.54,6.57,1.61,1.92,1.07,3.35,2.52,4.29,4.35v-16.95c0-2.28,1.12-3.42,3.35-3.42s3.42,1.14,3.42,3.42v41.34c0,2.28-1.12,3.42-3.35,3.42s-3.35-1.14-3.35-3.42v-2.55c-.98,1.88-2.43,3.36-4.35,4.46-1.92,1.09-4.11,1.64-6.57,1.64Zm1.74-5.23c2.77,0,5-1,6.7-3.02,1.7-2.01,2.55-4.91,2.55-8.71s-.85-6.69-2.55-8.68c-1.7-1.99-3.93-2.98-6.7-2.98s-5.07,.99-6.77,2.98c-1.7,1.99-2.55,4.88-2.55,8.68s.85,6.7,2.55,8.71c1.7,2.01,3.95,3.02,6.77,3.02Z"/>
    <path class="cls-1" d="M175.65,511.44c-3.48,0-6.11-1-7.87-3.02-1.76-2.01-2.65-4.96-2.65-8.84v-33.03c0-2.28,1.12-3.42,3.35-3.42s3.42,1.14,3.42,3.42v32.63c0,4.42,1.79,6.63,5.36,6.63,.4,0,.76-.02,1.07-.07,.31-.04,.62-.07,.94-.07,.54-.04,.92,.1,1.14,.44,.22,.33,.33,1.02,.33,2.04,0,1.83-.85,2.88-2.55,3.15-.45,.04-.88,.08-1.31,.1-.43,.02-.84,.03-1.24,.03Z"/>
    <path class="cls-1" d="M199.5,511.44c-3.31,0-6.16-.69-8.58-2.08-2.41-1.38-4.28-3.34-5.59-5.86-1.32-2.52-1.98-5.53-1.98-9.01s.66-6.49,1.98-9.01c1.32-2.52,3.18-4.48,5.59-5.86,2.41-1.38,5.27-2.08,8.58-2.08s6.03,.69,8.44,2.08c2.41,1.39,4.29,3.34,5.63,5.86,1.34,2.52,2.01,5.53,2.01,9.01s-.67,6.49-2.01,9.01c-1.34,2.52-3.22,4.48-5.63,5.86-2.41,1.39-5.23,2.08-8.44,2.08Zm0-5.23c2.77,0,5-1,6.7-3.02,1.7-2.01,2.55-4.91,2.55-8.71s-.85-6.69-2.55-8.68c-1.7-1.99-3.93-2.98-6.7-2.98s-5.07,.99-6.77,2.98c-1.7,1.99-2.55,4.88-2.55,8.68s.85,6.7,2.55,8.71c1.7,2.01,3.95,3.02,6.77,3.02Z"/>
    <path class="cls-1" d="M226.5,511.3c-2.23,0-3.35-1.14-3.35-3.42v-26.8c0-2.28,1.09-3.42,3.28-3.42s3.28,1.14,3.28,3.42v2.48c1.12-1.96,2.65-3.46,4.59-4.49,1.94-1.03,4.12-1.54,6.53-1.54,7.73,0,11.59,4.38,11.59,13.13v17.22c0,2.28-1.12,3.42-3.35,3.42s-3.42-1.14-3.42-3.42v-16.82c0-2.81-.55-4.87-1.64-6.16-1.1-1.29-2.8-1.94-5.13-1.94-2.73,0-4.9,.86-6.53,2.58-1.63,1.72-2.45,3.99-2.45,6.8v15.54c0,2.28-1.14,3.42-3.42,3.42Z"/>
    <path class="cls-1" d="M276.55,523.5c-2.41,0-4.75-.25-7-.74-2.26-.49-4.3-1.3-6.13-2.41-.8-.45-1.3-1.01-1.47-1.68-.18-.67-.1-1.32,.23-1.94,.33-.63,.8-1.08,1.41-1.37,.6-.29,1.26-.23,1.98,.17,1.96,1.07,3.83,1.8,5.59,2.18,1.76,.38,3.41,.57,4.92,.57,6.25,0,9.38-3.13,9.38-9.38v-5.16c-.94,1.97-2.4,3.51-4.39,4.62-1.99,1.12-4.21,1.67-6.67,1.67-2.95,0-5.52-.68-7.71-2.04-2.19-1.36-3.89-3.26-5.09-5.69-1.21-2.43-1.81-5.28-1.81-8.54s.6-6.04,1.81-8.48c1.21-2.43,2.9-4.33,5.09-5.69,2.19-1.36,4.76-2.04,7.71-2.04,2.46,0,4.66,.55,6.6,1.64,1.94,1.1,3.38,2.58,4.32,4.46v-2.55c0-2.28,1.12-3.42,3.35-3.42s3.35,1.14,3.35,3.42v27c0,5.14-1.32,8.99-3.95,11.56-2.64,2.57-6.48,3.85-11.52,3.85Zm-.54-18.76c2.86,0,5.14-.98,6.83-2.95,1.7-1.96,2.55-4.65,2.55-8.04s-.85-6.06-2.55-8.01c-1.7-1.94-3.98-2.91-6.83-2.91s-5.14,.97-6.83,2.91c-1.7,1.94-2.55,4.61-2.55,8.01s.85,6.08,2.55,8.04c1.7,1.97,3.98,2.95,6.83,2.95Z"/>
    <path class="cls-1" d="M303.82,495.69c-.8,0-1.47-.27-2.01-.8-.54-.54-.8-1.18-.8-1.94,0-.8,.27-1.46,.8-1.98,.54-.51,1.21-.77,2.01-.77h14.74c.76,0,1.41,.26,1.94,.77,.54,.51,.8,1.17,.8,1.98,0,.76-.27,1.41-.8,1.94s-1.18,.8-1.94,.8h-14.74Z"/>
    <path class="cls-1" d="M333.64,523.36c-2.23,0-3.35-1.14-3.35-3.42v-38.86c0-2.28,1.09-3.42,3.28-3.42s3.35,1.14,3.35,3.42v2.55c.98-1.88,2.43-3.36,4.35-4.46,1.92-1.09,4.11-1.64,6.57-1.64,2.9,0,5.44,.69,7.6,2.08,2.17,1.39,3.84,3.34,5.02,5.86,1.18,2.52,1.78,5.53,1.78,9.01s-.59,6.5-1.78,9.04c-1.18,2.55-2.86,4.5-5.02,5.86-2.17,1.36-4.7,2.04-7.6,2.04-2.41,0-4.57-.53-6.47-1.57-1.9-1.05-3.34-2.49-4.32-4.32v14.4c0,2.28-1.14,3.42-3.42,3.42Zm12.53-17.15c2.81,0,5.06-1,6.73-3.02,1.67-2.01,2.51-4.91,2.51-8.71s-.84-6.69-2.51-8.68c-1.68-1.99-3.92-2.98-6.73-2.98s-5.06,.99-6.73,2.98c-1.67,1.99-2.51,4.88-2.51,8.68s.84,6.7,2.51,8.71c1.68,2.01,3.92,3.02,6.73,3.02Z"/>
    <path class="cls-1" d="M373.3,511.3c-2.28,0-3.42-1.14-3.42-3.42v-26.8c0-2.28,1.09-3.42,3.28-3.42s3.28,1.14,3.28,3.42v2.88c.89-2.01,2.24-3.55,4.05-4.62,1.81-1.07,4.01-1.7,6.6-1.88,1.65-.13,2.55,.76,2.68,2.68,.18,1.97-.78,3.04-2.88,3.22l-1.27,.13c-5.94,.58-8.91,3.64-8.91,9.18v15.21c0,2.28-1.14,3.42-3.42,3.42Z"/>
    <path class="cls-1" d="M409.75,511.44c-5.36,0-9.58-1.51-12.66-4.52s-4.62-7.14-4.62-12.36c0-3.35,.68-6.31,2.04-8.88,1.36-2.57,3.25-4.57,5.66-6,2.41-1.43,5.18-2.14,8.31-2.14,4.51,0,8.06,1.44,10.65,4.32,2.59,2.88,3.89,6.85,3.89,11.89,0,1.52-.89,2.28-2.68,2.28h-21.31c.49,6.79,4.09,10.18,10.79,10.18,1.34,0,2.75-.17,4.22-.5,1.47-.33,2.9-.95,4.29-1.84,.94-.54,1.75-.73,2.45-.57,.69,.16,1.19,.54,1.51,1.14,.31,.6,.37,1.27,.17,2.01-.2,.74-.73,1.37-1.57,1.91-1.52,1.03-3.29,1.8-5.33,2.31-2.03,.51-3.96,.77-5.8,.77Zm-1-29.15c-2.81,0-5.05,.87-6.7,2.61-1.65,1.74-2.66,4.07-3.02,6.97h18.29c-.13-3.04-.94-5.39-2.41-7.07-1.47-1.68-3.53-2.51-6.16-2.51Z"/>
    <path class="cls-1" d="M441.84,511.44c-1.97,0-4-.22-6.1-.67-2.1-.45-4-1.21-5.7-2.28-.76-.45-1.23-1-1.41-1.67-.18-.67-.13-1.29,.13-1.88,.27-.58,.7-.99,1.31-1.24,.6-.24,1.28-.17,2.04,.23,1.74,.94,3.42,1.61,5.02,2.01,1.61,.4,3.19,.6,4.76,.6,2.37,0,4.15-.42,5.36-1.27,1.21-.85,1.81-1.99,1.81-3.42,0-1.16-.4-2.07-1.21-2.71-.8-.65-2.01-1.15-3.62-1.51l-6.36-1.27c-5.63-1.16-8.44-4.06-8.44-8.71,0-3.08,1.23-5.54,3.69-7.37,2.46-1.83,5.67-2.75,9.65-2.75s7.48,.98,10.39,2.95c.71,.45,1.14,.99,1.27,1.64,.13,.65,.04,1.25-.27,1.81-.31,.56-.77,.95-1.37,1.17-.6,.22-1.31,.13-2.11-.27-1.34-.8-2.68-1.4-4.02-1.78-1.34-.38-2.64-.57-3.89-.57-2.32,0-4.09,.44-5.29,1.31-1.21,.87-1.81,2.04-1.81,3.52,0,2.23,1.47,3.66,4.42,4.29l6.36,1.27c2.9,.58,5.1,1.56,6.6,2.95,1.5,1.38,2.24,3.26,2.24,5.63,0,3.13-1.23,5.57-3.69,7.34-2.46,1.77-5.72,2.65-9.78,2.65Z"/>
    <path class="cls-1" d="M474.27,511.44c-1.97,0-4-.22-6.1-.67-2.1-.45-4-1.21-5.7-2.28-.76-.45-1.23-1-1.41-1.67-.18-.67-.13-1.29,.13-1.88,.27-.58,.7-.99,1.31-1.24,.6-.24,1.28-.17,2.04,.23,1.74,.94,3.42,1.61,5.02,2.01,1.61,.4,3.19,.6,4.76,.6,2.37,0,4.15-.42,5.36-1.27,1.21-.85,1.81-1.99,1.81-3.42,0-1.16-.4-2.07-1.21-2.71-.8-.65-2.01-1.15-3.62-1.51l-6.36-1.27c-5.63-1.16-8.44-4.06-8.44-8.71,0-3.08,1.23-5.54,3.69-7.37,2.46-1.83,5.67-2.75,9.65-2.75s7.48,.98,10.39,2.95c.71,.45,1.14,.99,1.27,1.64,.13,.65,.04,1.25-.27,1.81-.31,.56-.77,.95-1.37,1.17-.6,.22-1.31,.13-2.11-.27-1.34-.8-2.68-1.4-4.02-1.78-1.34-.38-2.64-.57-3.89-.57-2.32,0-4.09,.44-5.29,1.31-1.21,.87-1.81,2.04-1.81,3.52,0,2.23,1.47,3.66,4.42,4.29l6.36,1.27c2.9,.58,5.1,1.56,6.6,2.95,1.5,1.38,2.24,3.26,2.24,5.63,0,3.13-1.23,5.57-3.69,7.34-2.46,1.77-5.72,2.65-9.78,2.65Z"/>
    <path class="cls-1" d="M516.28,470.83c-1.34,0-2.38-.33-3.12-1-.74-.67-1.11-1.61-1.11-2.81,0-2.55,1.41-3.82,4.22-3.82s4.22,1.27,4.22,3.82-1.41,3.82-4.22,3.82Zm0,40.4c-2.23,0-3.35-1.23-3.35-3.69v-26.13c0-2.41,1.12-3.62,3.35-3.62s3.42,1.21,3.42,3.62v26.13c0,2.46-1.14,3.69-3.42,3.69Z"/>
    <path class="cls-1" d="M543.14,511.44c-4.11,0-7.17-1.05-9.18-3.15-2.01-2.1-3.02-5.14-3.02-9.11v-15.81h-4.02c-1.88,0-2.81-.87-2.81-2.61s.94-2.61,2.81-2.61h4.02v-6.9c0-2.28,1.14-3.42,3.42-3.42s3.35,1.14,3.35,3.42v6.9h7.84c1.88,0,2.81,.87,2.81,2.61s-.94,2.61-2.81,2.61h-7.84v15.28c0,2.37,.5,4.15,1.51,5.36s2.65,1.81,4.92,1.81c.8,0,1.5-.08,2.08-.23,.58-.16,1.09-.26,1.54-.3,.49,0,.89,.17,1.21,.5,.31,.33,.47,.97,.47,1.91,0,.71-.12,1.35-.37,1.91-.25,.56-.68,.93-1.31,1.11-.54,.22-1.26,.4-2.18,.54-.92,.13-1.73,.2-2.45,.2Z"/>
    <path class="cls-1" d="M585.29,511.44c-4.11,0-7.17-1.05-9.18-3.15-2.01-2.1-3.01-5.14-3.01-9.11v-15.81h-4.02c-1.88,0-2.81-.87-2.81-2.61s.94-2.61,2.81-2.61h4.02v-6.9c0-2.28,1.14-3.42,3.42-3.42s3.35,1.14,3.35,3.42v6.9h7.84c1.88,0,2.81,.87,2.81,2.61s-.94,2.61-2.81,2.61h-7.84v15.28c0,2.37,.5,4.15,1.51,5.36s2.65,1.81,4.92,1.81c.8,0,1.5-.08,2.08-.23,.58-.16,1.09-.26,1.54-.3,.49,0,.89,.17,1.21,.5,.31,.33,.47,.97,.47,1.91,0,.71-.12,1.35-.37,1.91-.25,.56-.68,.93-1.31,1.11-.54,.22-1.26,.4-2.18,.54-.92,.13-1.73,.2-2.45,.2Z"/>
    <path class="cls-1" d="M609.67,511.44c-3.31,0-6.16-.69-8.58-2.08-2.41-1.38-4.28-3.34-5.59-5.86-1.32-2.52-1.98-5.53-1.98-9.01s.66-6.49,1.98-9.01c1.32-2.52,3.18-4.48,5.59-5.86,2.41-1.38,5.27-2.08,8.58-2.08s6.03,.69,8.44,2.08c2.41,1.39,4.29,3.34,5.63,5.86,1.34,2.52,2.01,5.53,2.01,9.01s-.67,6.49-2.01,9.01c-1.34,2.52-3.22,4.48-5.63,5.86-2.41,1.39-5.23,2.08-8.44,2.08Zm0-5.23c2.77,0,5-1,6.7-3.02,1.7-2.01,2.55-4.91,2.55-8.71s-.85-6.69-2.55-8.68c-1.7-1.99-3.93-2.98-6.7-2.98s-5.07,.99-6.77,2.98c-1.7,1.99-2.55,4.88-2.55,8.68s.85,6.7,2.55,8.71c1.7,2.01,3.95,3.02,6.77,3.02Z"/>
    <path class="cls-1" d="M662.47,511.44c-1.97,0-4-.22-6.1-.67-2.1-.45-4-1.21-5.7-2.28-.76-.45-1.23-1-1.41-1.67s-.13-1.29,.13-1.88c.27-.58,.7-.99,1.31-1.24,.6-.24,1.28-.17,2.04,.23,1.74,.94,3.42,1.61,5.03,2.01,1.61,.4,3.19,.6,4.76,.6,2.37,0,4.15-.42,5.36-1.27,1.21-.85,1.81-1.99,1.81-3.42,0-1.16-.4-2.07-1.21-2.71-.8-.65-2.01-1.15-3.62-1.51l-6.37-1.27c-5.63-1.16-8.44-4.06-8.44-8.71,0-3.08,1.23-5.54,3.68-7.37,2.46-1.83,5.67-2.75,9.65-2.75s7.48,.98,10.38,2.95c.71,.45,1.14,.99,1.27,1.64,.13,.65,.04,1.25-.27,1.81-.31,.56-.77,.95-1.37,1.17-.6,.22-1.31,.13-2.11-.27-1.34-.8-2.68-1.4-4.02-1.78-1.34-.38-2.64-.57-3.89-.57-2.32,0-4.09,.44-5.29,1.31-1.21,.87-1.81,2.04-1.81,3.52,0,2.23,1.47,3.66,4.42,4.29l6.37,1.27c2.9,.58,5.1,1.56,6.6,2.95,1.5,1.38,2.24,3.26,2.24,5.63,0,3.13-1.23,5.57-3.68,7.34-2.46,1.77-5.72,2.65-9.78,2.65Z"/>
    <path class="cls-1" d="M693.89,511.44c-2.28,0-4.31-.45-6.1-1.34-1.79-.89-3.21-2.1-4.25-3.62-1.05-1.52-1.57-3.24-1.57-5.16,0-2.41,.61-4.31,1.84-5.69,1.23-1.38,3.26-2.39,6.1-3.02,2.84-.62,6.67-.94,11.49-.94h2.28v-1.74c0-2.55-.54-4.38-1.61-5.49-1.07-1.12-2.84-1.68-5.29-1.68-1.43,0-2.91,.18-4.46,.54-1.54,.36-3.14,.96-4.79,1.81-.94,.45-1.71,.51-2.31,.2-.6-.31-1.02-.8-1.24-1.47-.22-.67-.2-1.36,.07-2.08,.27-.71,.83-1.25,1.67-1.61,1.96-.89,3.91-1.55,5.83-1.98,1.92-.42,3.73-.64,5.43-.64,4.47,0,7.77,1.06,9.92,3.18,2.14,2.12,3.22,5.44,3.22,9.95v17.22c0,2.28-1.05,3.42-3.15,3.42s-3.22-1.14-3.22-3.42v-2.48c-.8,1.88-2.05,3.35-3.75,4.42-1.7,1.07-3.73,1.61-6.1,1.61Zm1.34-4.82c2.41,0,4.42-.85,6.03-2.55,1.61-1.7,2.41-3.84,2.41-6.43v-1.81h-2.21c-3.26,0-5.82,.16-7.67,.47-1.85,.31-3.17,.84-3.95,1.57-.78,.74-1.17,1.75-1.17,3.05,0,1.7,.58,3.07,1.74,4.12,1.16,1.05,2.77,1.57,4.82,1.57Z"/>
    <path class="cls-1" d="M731.75,511.3c-1.88,0-3.26-1.01-4.15-3.02l-11.19-26c-.54-1.21-.56-2.28-.07-3.22,.49-.94,1.5-1.41,3.02-1.41,.8,0,1.46,.2,1.98,.6,.51,.4,.97,1.1,1.37,2.08l9.18,22.65,9.38-22.65c.4-.98,.86-1.68,1.37-2.08,.51-.4,1.24-.6,2.18-.6,1.21,0,2.03,.47,2.48,1.41,.45,.94,.42,1.99-.07,3.15l-11.32,26.06c-.85,2.01-2.23,3.02-4.15,3.02Z"/>
    <path class="cls-1" d="M768.66,511.44c-5.36,0-9.58-1.51-12.66-4.52-3.08-3.02-4.62-7.14-4.62-12.36,0-3.35,.68-6.31,2.04-8.88,1.36-2.57,3.25-4.57,5.66-6,2.41-1.43,5.18-2.14,8.31-2.14,4.51,0,8.06,1.44,10.65,4.32,2.59,2.88,3.89,6.85,3.89,11.89,0,1.52-.89,2.28-2.68,2.28h-21.31c.49,6.79,4.09,10.18,10.79,10.18,1.34,0,2.75-.17,4.22-.5,1.47-.33,2.9-.95,4.29-1.84,.94-.54,1.75-.73,2.45-.57,.69,.16,1.2,.54,1.51,1.14s.37,1.27,.17,2.01c-.2,.74-.73,1.37-1.58,1.91-1.52,1.03-3.29,1.8-5.33,2.31-2.03,.51-3.96,.77-5.8,.77Zm-1-29.15c-2.81,0-5.05,.87-6.7,2.61-1.65,1.74-2.66,4.07-3.01,6.97h18.29c-.13-3.04-.94-5.39-2.41-7.07-1.47-1.68-3.53-2.51-6.16-2.51Z"/>
    <path class="cls-1" d="M810.34,470.83c-1.34,0-2.38-.33-3.12-1-.74-.67-1.11-1.61-1.11-2.81,0-2.55,1.41-3.82,4.22-3.82s4.22,1.27,4.22,3.82-1.41,3.82-4.22,3.82Zm0,40.4c-2.23,0-3.35-1.23-3.35-3.69v-26.13c0-2.41,1.12-3.62,3.35-3.62s3.42,1.21,3.42,3.62v26.13c0,2.46-1.14,3.69-3.42,3.69Z"/>
    <path class="cls-1" d="M837.2,511.44c-4.11,0-7.17-1.05-9.18-3.15-2.01-2.1-3.01-5.14-3.01-9.11v-15.81h-4.02c-1.88,0-2.81-.87-2.81-2.61s.94-2.61,2.81-2.61h4.02v-6.9c0-2.28,1.14-3.42,3.42-3.42s3.35,1.14,3.35,3.42v6.9h7.84c1.88,0,2.81,.87,2.81,2.61s-.94,2.61-2.81,2.61h-7.84v15.28c0,2.37,.5,4.15,1.51,5.36s2.65,1.81,4.92,1.81c.8,0,1.5-.08,2.08-.23,.58-.16,1.09-.26,1.54-.3,.49,0,.89,.17,1.21,.5,.31,.33,.47,.97,.47,1.91,0,.71-.12,1.35-.37,1.91-.25,.56-.68,.93-1.31,1.11-.54,.22-1.26,.4-2.18,.54-.92,.13-1.73,.2-2.45,.2Z"/>
    <path class="cls-1" d="M879.34,511.44c-4.11,0-7.17-1.05-9.18-3.15-2.01-2.1-3.01-5.14-3.01-9.11v-15.81h-4.02c-1.88,0-2.81-.87-2.81-2.61s.94-2.61,2.81-2.61h4.02v-6.9c0-2.28,1.14-3.42,3.42-3.42s3.35,1.14,3.35,3.42v6.9h7.84c1.88,0,2.81,.87,2.81,2.61s-.94,2.61-2.81,2.61h-7.84v15.28c0,2.37,.5,4.15,1.51,5.36s2.65,1.81,4.92,1.81c.8,0,1.5-.08,2.08-.23,.58-.16,1.09-.26,1.54-.3,.49,0,.89,.17,1.21,.5,.31,.33,.47,.97,.47,1.91,0,.71-.12,1.35-.37,1.91-.25,.56-.68,.93-1.31,1.11-.54,.22-1.26,.4-2.18,.54-.92,.13-1.73,.2-2.45,.2Z"/>
    <path class="cls-1" d="M903.73,511.44c-3.31,0-6.16-.69-8.58-2.08-2.41-1.38-4.28-3.34-5.59-5.86-1.32-2.52-1.98-5.53-1.98-9.01s.66-6.49,1.98-9.01c1.32-2.52,3.18-4.48,5.59-5.86,2.41-1.38,5.27-2.08,8.58-2.08s6.03,.69,8.44,2.08c2.41,1.39,4.29,3.34,5.63,5.86,1.34,2.52,2.01,5.53,2.01,9.01s-.67,6.49-2.01,9.01c-1.34,2.52-3.22,4.48-5.63,5.86-2.41,1.39-5.23,2.08-8.44,2.08Zm0-5.23c2.77,0,5-1,6.7-3.02,1.7-2.01,2.55-4.91,2.55-8.71s-.85-6.69-2.55-8.68c-1.7-1.99-3.93-2.98-6.7-2.98s-5.07,.99-6.77,2.98c-1.7,1.99-2.55,4.88-2.55,8.68s.85,6.7,2.55,8.71c1.7,2.01,3.95,3.02,6.77,3.02Z"/>
    <path class="cls-1" d="M370.39,617.36c-1.25,0-2.11-.46-2.58-1.37-.47-.92-.44-1.98,.1-3.18l3.95-8.84-11.93-27.67c-.54-1.21-.55-2.28-.03-3.22,.51-.94,1.53-1.41,3.05-1.41,.8,0,1.46,.2,1.98,.6,.51,.4,.97,1.1,1.37,2.08l9.18,22.65,9.31-22.65c.4-1.03,.87-1.73,1.41-2.11,.54-.38,1.27-.57,2.21-.57,1.21,0,2.03,.47,2.48,1.41,.45,.94,.42,1.99-.07,3.15l-16.75,38.52c-.45,1.03-.95,1.72-1.51,2.08-.56,.36-1.28,.54-2.18,.54Z"/>
    <path class="cls-1" d="M411.12,605.44c-3.31,0-6.16-.69-8.58-2.08-2.41-1.38-4.28-3.34-5.59-5.86-1.32-2.52-1.98-5.53-1.98-9.01s.66-6.49,1.98-9.01c1.32-2.52,3.18-4.48,5.59-5.86,2.41-1.38,5.27-2.08,8.58-2.08s6.03,.69,8.44,2.08c2.41,1.39,4.29,3.34,5.63,5.86,1.34,2.52,2.01,5.53,2.01,9.01s-.67,6.49-2.01,9.01c-1.34,2.52-3.22,4.48-5.63,5.86-2.41,1.39-5.23,2.08-8.44,2.08Zm0-5.23c2.77,0,5-1,6.7-3.02,1.7-2.01,2.55-4.91,2.55-8.71s-.85-6.69-2.55-8.68c-1.7-1.99-3.93-2.98-6.7-2.98s-5.07,.99-6.77,2.98c-1.7,1.99-2.55,4.88-2.55,8.68s.85,6.7,2.55,8.71c1.7,2.01,3.95,3.02,6.77,3.02Z"/>
    <path class="cls-1" d="M446.43,605.44c-7.91,0-11.86-4.4-11.86-13.2v-17.15c0-2.28,1.12-3.42,3.35-3.42s3.42,1.14,3.42,3.42v17.22c0,2.64,.54,4.58,1.61,5.83,1.07,1.25,2.77,1.88,5.09,1.88,2.55,0,4.61-.85,6.2-2.55,1.58-1.7,2.38-3.98,2.38-6.83v-15.54c0-2.28,1.14-3.42,3.42-3.42s3.35,1.14,3.35,3.42v26.8c0,2.28-1.1,3.42-3.28,3.42s-3.28-1.14-3.28-3.42v-2.28c-1.07,1.92-2.5,3.37-4.29,4.35-1.79,.98-3.82,1.47-6.1,1.47Z"/>
    <path class="cls-1" d="M476.31,605.3c-2.28,0-3.42-1.14-3.42-3.42v-26.8c0-2.28,1.09-3.42,3.28-3.42s3.28,1.14,3.28,3.42v2.88c.89-2.01,2.24-3.55,4.05-4.62,1.81-1.07,4.01-1.7,6.6-1.88,1.65-.13,2.55,.76,2.68,2.68,.18,1.97-.78,3.04-2.88,3.22l-1.27,.13c-5.94,.58-8.91,3.64-8.91,9.18v15.21c0,2.28-1.14,3.42-3.42,3.42Z"/>
    <path class="cls-1" d="M530.38,617.5c-2.41,0-4.75-.25-7-.74-2.26-.49-4.3-1.3-6.13-2.41-.8-.45-1.3-1.01-1.47-1.68-.18-.67-.1-1.32,.23-1.94,.33-.63,.8-1.08,1.41-1.37,.6-.29,1.26-.23,1.98,.17,1.96,1.07,3.83,1.8,5.59,2.18,1.76,.38,3.41,.57,4.92,.57,6.25,0,9.38-3.13,9.38-9.38v-5.16c-.94,1.97-2.4,3.51-4.39,4.62-1.99,1.12-4.21,1.67-6.67,1.67-2.95,0-5.52-.68-7.71-2.04-2.19-1.36-3.89-3.26-5.09-5.69-1.21-2.43-1.81-5.28-1.81-8.54s.6-6.04,1.81-8.48c1.21-2.43,2.9-4.33,5.09-5.69,2.19-1.36,4.76-2.04,7.71-2.04,2.46,0,4.66,.55,6.6,1.64,1.94,1.1,3.38,2.58,4.32,4.46v-2.55c0-2.28,1.12-3.42,3.35-3.42s3.35,1.14,3.35,3.42v27c0,5.14-1.32,8.99-3.95,11.56-2.64,2.57-6.48,3.85-11.52,3.85Zm-.54-18.76c2.86,0,5.14-.98,6.83-2.95,1.7-1.96,2.55-4.65,2.55-8.04s-.85-6.06-2.55-8.01c-1.7-1.94-3.98-2.91-6.83-2.91s-5.14,.97-6.83,2.91c-1.7,1.94-2.55,4.61-2.55,8.01s.85,6.08,2.55,8.04c1.7,1.97,3.98,2.95,6.83,2.95Z"/>
    <path class="cls-1" d="M565.82,605.44c-2.28,0-4.31-.45-6.1-1.34-1.79-.89-3.21-2.1-4.25-3.62-1.05-1.52-1.57-3.24-1.57-5.16,0-2.41,.61-4.31,1.84-5.69,1.23-1.38,3.26-2.39,6.1-3.02,2.84-.62,6.67-.94,11.49-.94h2.28v-1.74c0-2.55-.54-4.38-1.61-5.49-1.07-1.12-2.84-1.68-5.29-1.68-1.43,0-2.91,.18-4.46,.54-1.54,.36-3.14,.96-4.79,1.81-.94,.45-1.71,.51-2.31,.2-.6-.31-1.02-.8-1.24-1.47s-.2-1.36,.07-2.08c.27-.71,.83-1.25,1.67-1.61,1.96-.89,3.91-1.55,5.83-1.98,1.92-.42,3.73-.64,5.43-.64,4.47,0,7.77,1.06,9.92,3.18,2.14,2.12,3.22,5.44,3.22,9.95v17.22c0,2.28-1.05,3.42-3.15,3.42s-3.22-1.14-3.22-3.42v-2.48c-.8,1.88-2.06,3.35-3.75,4.42-1.7,1.07-3.73,1.61-6.1,1.61Zm1.34-4.82c2.41,0,4.42-.85,6.03-2.55,1.61-1.7,2.41-3.84,2.41-6.43v-1.81h-2.21c-3.26,0-5.82,.16-7.67,.47-1.85,.31-3.17,.84-3.95,1.57-.78,.74-1.17,1.75-1.17,3.05,0,1.7,.58,3.07,1.74,4.12,1.16,1.05,2.77,1.57,4.82,1.57Z"/>
    <path class="cls-1" d="M601.87,605.44c-3.48,0-6.11-1-7.87-3.02-1.76-2.01-2.65-4.96-2.65-8.84v-33.03c0-2.28,1.12-3.42,3.35-3.42s3.42,1.14,3.42,3.42v32.63c0,4.42,1.79,6.63,5.36,6.63,.4,0,.76-.02,1.07-.07,.31-.04,.62-.07,.94-.07,.54-.04,.92,.1,1.14,.44,.22,.33,.33,1.02,.33,2.04,0,1.83-.85,2.88-2.55,3.15-.45,.04-.88,.08-1.31,.1-.42,.02-.84,.03-1.24,.03Z"/>
    <path class="cls-1" d="M622.37,605.44c-3.48,0-6.11-1-7.87-3.02-1.76-2.01-2.65-4.96-2.65-8.84v-33.03c0-2.28,1.12-3.42,3.35-3.42s3.42,1.14,3.42,3.42v32.63c0,4.42,1.79,6.63,5.36,6.63,.4,0,.76-.02,1.07-.07,.31-.04,.62-.07,.94-.07,.54-.04,.92,.1,1.14,.44,.22,.33,.33,1.02,.33,2.04,0,1.83-.85,2.88-2.55,3.15-.45,.04-.88,.08-1.31,.1-.42,.02-.84,.03-1.24,.03Z"/>
    <path class="cls-1" d="M647.36,605.44c-5.36,0-9.58-1.51-12.66-4.52-3.08-3.02-4.62-7.14-4.62-12.36,0-3.35,.68-6.31,2.04-8.88,1.36-2.57,3.25-4.57,5.66-6,2.41-1.43,5.18-2.14,8.31-2.14,4.51,0,8.06,1.44,10.65,4.32,2.59,2.88,3.89,6.85,3.89,11.89,0,1.52-.89,2.28-2.68,2.28h-21.31c.49,6.79,4.09,10.18,10.79,10.18,1.34,0,2.75-.17,4.22-.5,1.47-.33,2.9-.95,4.29-1.84,.94-.54,1.75-.73,2.45-.57,.69,.16,1.2,.54,1.51,1.14s.37,1.27,.17,2.01c-.2,.74-.73,1.37-1.58,1.91-1.52,1.03-3.29,1.8-5.33,2.31-2.03,.51-3.96,.77-5.8,.77Zm-1-29.15c-2.81,0-5.05,.87-6.7,2.61-1.65,1.74-2.66,4.07-3.01,6.97h18.29c-.13-3.04-.94-5.39-2.41-7.07-1.47-1.68-3.53-2.51-6.16-2.51Z"/>
    <path class="cls-1" d="M671.41,605.3c-2.28,0-3.42-1.14-3.42-3.42v-26.8c0-2.28,1.09-3.42,3.28-3.42s3.28,1.14,3.28,3.42v2.88c.89-2.01,2.24-3.55,4.05-4.62,1.81-1.07,4.01-1.7,6.6-1.88,1.65-.13,2.55,.76,2.68,2.68,.18,1.97-.78,3.04-2.88,3.22l-1.27,.13c-5.94,.58-8.91,3.64-8.91,9.18v15.21c0,2.28-1.14,3.42-3.42,3.42Z"/>
    <path class="cls-1" d="M702.7,617.36c-1.25,0-2.11-.46-2.58-1.37-.47-.92-.44-1.98,.1-3.18l3.95-8.84-11.93-27.67c-.54-1.21-.55-2.28-.03-3.22,.51-.94,1.53-1.41,3.05-1.41,.8,0,1.46,.2,1.98,.6,.51,.4,.97,1.1,1.37,2.08l9.18,22.65,9.31-22.65c.4-1.03,.87-1.73,1.41-2.11,.54-.38,1.27-.57,2.21-.57,1.21,0,2.03,.47,2.48,1.41,.45,.94,.42,1.99-.07,3.15l-16.75,38.52c-.45,1.03-.95,1.72-1.51,2.08-.56,.36-1.28,.54-2.18,.54Z"/>
  </g>
  <g id="HEXInputBox">
    <rect class="cls-6" x="94" y="1746.5" width="895" height="163" rx="57.5" ry="57.5"/>
    <path class="cls-3" d="M931.5,1749c30.33,0,55,24.67,55,55v48c0,30.33-24.67,55-55,55H151.5c-30.33,0-55-24.67-55-55v-48c0-30.33,24.67-55,55-55H931.5m0-5H151.5c-33.14,0-60,26.86-60,60v48c0,33.14,26.86,60,60,60H931.5c33.14,0,60-26.86,60-60v-48c0-33.14-26.86-60-60-60h0Z"/>
  </g>
  <g>
    <path class="cls-1" d="M176.89,1856.45c-2.04,0-4.14-.32-6.32-.96-2.18-.64-4.21-1.6-6.11-2.88-.9-.62-1.43-1.41-1.6-2.38-.17-.97-.04-1.89,.39-2.77,.43-.88,1.08-1.47,1.95-1.78,.88-.31,1.88-.13,3.02,.53,1.61,.95,3.12,1.61,4.54,1.99,1.42,.38,2.84,.57,4.26,.57,4.12,0,7.27-1.44,9.44-4.33,2.18-2.89,3.27-7.19,3.27-12.92v-2.06c-.99,2.6-2.6,4.64-4.83,6.11-2.23,1.47-4.78,2.2-7.67,2.2s-5.38-.69-7.63-2.06c-2.25-1.37-4.01-3.28-5.29-5.71-1.28-2.44-1.92-5.19-1.92-8.27,0-3.27,.7-6.15,2.09-8.66,1.4-2.51,3.35-4.48,5.86-5.93,2.51-1.44,5.37-2.17,8.59-2.17,6.2,0,10.99,2.17,14.38,6.5,3.38,4.33,5.08,10.45,5.08,18.35,0,8.47-1.89,15.03-5.68,19.67-3.79,4.64-9.06,6.96-15.83,6.96Zm2.63-25.92c2.56,0,4.63-.85,6.21-2.56,1.59-1.7,2.38-3.93,2.38-6.67s-.79-4.96-2.38-6.64c-1.59-1.68-3.66-2.52-6.21-2.52s-4.63,.84-6.21,2.52c-1.59,1.68-2.38,3.89-2.38,6.64s.79,4.97,2.38,6.67c1.59,1.7,3.66,2.56,6.21,2.56Z"/>
    <path class="cls-1" d="M212.25,1856.31c-3.12,0-4.69-1.61-4.69-4.83v-40.97c0-3.22,1.61-4.83,4.83-4.83h24.78c2.46,0,3.69,1.18,3.69,3.55s-1.23,3.69-3.69,3.69h-20.52v14.13h19.03c2.46,0,3.69,1.18,3.69,3.55s-1.23,3.69-3.69,3.69h-19.03v17.18c0,3.22-1.47,4.83-4.4,4.83Z"/>
    <path class="cls-1" d="M263.73,1856.45c-2.51,0-5.07-.33-7.67-.99-2.6-.66-4.99-1.68-7.17-3.05-1.14-.71-1.81-1.57-2.02-2.59-.21-1.02-.08-1.96,.39-2.84,.47-.88,1.17-1.47,2.09-1.78,.92-.31,1.98-.13,3.16,.53,1.75,.99,3.53,1.75,5.33,2.27,1.8,.52,3.71,.78,5.75,.78,2.98,0,5.31-.77,6.99-2.31,1.68-1.54,2.52-3.61,2.52-6.21s-.8-4.79-2.41-6.42c-1.61-1.63-3.81-2.45-6.6-2.45-1.52,0-2.98,.25-4.4,.75s-2.82,1.36-4.19,2.59c-.43,.38-.97,.75-1.63,1.1-.66,.36-1.37,.53-2.13,.53-2.41,0-3.62-1.16-3.62-3.48v-23.22c0-2.65,1.32-3.98,3.98-3.98h23.36c2.65,0,3.98,1.25,3.98,3.76s-1.33,3.76-3.98,3.76h-18.46v13.56c2.51-1.89,5.58-2.84,9.23-2.84,3.17,0,5.93,.67,8.27,2.02,2.34,1.35,4.17,3.22,5.47,5.61,1.3,2.39,1.95,5.17,1.95,8.34s-.73,6.14-2.2,8.63c-1.47,2.49-3.56,4.43-6.28,5.82-2.72,1.4-5.95,2.09-9.69,2.09Z"/>
    <path class="cls-1" d="M305.9,1856.45c-5.82,0-10.38-1.25-13.67-3.76-3.29-2.51-4.93-5.99-4.93-10.44,0-3.03,.79-5.61,2.38-7.74s3.66-3.62,6.21-4.47c-2.27-.99-4.06-2.51-5.36-4.54-1.3-2.04-1.95-4.38-1.95-7.03,0-4.21,1.56-7.51,4.69-9.9,3.12-2.39,7.34-3.59,12.64-3.59s9.58,1.2,12.71,3.59c3.12,2.39,4.69,5.69,4.69,9.9,0,2.65-.65,5.01-1.95,7.06-1.3,2.06-3.06,3.56-5.29,4.51,2.56,.85,4.6,2.36,6.14,4.51,1.54,2.15,2.31,4.72,2.31,7.7,0,4.45-1.65,7.93-4.93,10.44-3.29,2.51-7.85,3.76-13.67,3.76Zm0-7.1c6.77,0,10.15-2.58,10.15-7.74s-3.38-7.67-10.15-7.67c-3.31,0-5.83,.64-7.56,1.92-1.73,1.28-2.59,3.19-2.59,5.75s.86,4.49,2.59,5.79c1.73,1.3,4.25,1.95,7.56,1.95Zm0-22.51c2.79,0,4.98-.66,6.57-1.99s2.38-3.15,2.38-5.47-.79-4.06-2.38-5.36c-1.59-1.3-3.77-1.95-6.57-1.95s-4.97,.65-6.53,1.95c-1.56,1.3-2.34,3.09-2.34,5.36s.78,4.14,2.34,5.47c1.56,1.33,3.74,1.99,6.53,1.99Z"/>
    <path class="cls-1" d="M337.35,1856.31c-3.12,0-4.69-1.61-4.69-4.83v-40.97c0-3.22,1.61-4.83,4.83-4.83h24.78c2.46,0,3.69,1.18,3.69,3.55s-1.23,3.69-3.69,3.69h-20.52v14.13h19.03c2.46,0,3.69,1.18,3.69,3.55s-1.23,3.69-3.69,3.69h-19.03v17.18c0,3.22-1.47,4.83-4.4,4.83Z"/>
    <path class="cls-1" d="M376.54,1855.74c-1.52,0-2.62-.34-3.3-1.03-.69-.69-1.03-1.69-1.03-3.02,0-.8,.21-1.59,.64-2.34,.43-.76,1.04-1.56,1.85-2.41l14.27-15.19c2.18-2.27,3.74-4.34,4.69-6.21,.95-1.87,1.42-3.75,1.42-5.64,0-4.83-2.91-7.24-8.73-7.24-1.61,0-3.22,.23-4.83,.67-1.61,.45-3.24,1.22-4.9,2.31-1.04,.71-2.01,.92-2.91,.64-.9-.28-1.59-.86-2.06-1.74-.47-.88-.63-1.81-.46-2.8s.77-1.85,1.81-2.56c2.04-1.37,4.32-2.41,6.85-3.12s5.08-1.07,7.63-1.07c5.35,0,9.45,1.21,12.32,3.62,2.86,2.41,4.3,5.87,4.3,10.37,0,3.03-.72,5.94-2.17,8.73-1.44,2.79-3.7,5.8-6.78,9.02l-11,11.5h18.53c2.6,0,3.9,1.23,3.9,3.69s-1.3,3.83-3.9,3.83h-26.13Z"/>
  </g>
  <g id="RGBInputBox">
    <path class="cls-4" d="M929.5,1532c30.33,0,55,24.67,55,55v48c0,30.33-24.67,55-55,55H149.5c-30.33,0-55-24.67-55-55v-48c0-30.33,24.67-55,55-55H929.5m0-5H149.5c-33.14,0-60,26.86-60,60v48c0,33.14,26.86,60,60,60H929.5c33.14,0,60-26.86,60-60v-48c0-33.14-26.86-60-60-60h0Z"/>
  </g>
  <g>
    <path class="cls-1" d="M168.58,1638.74c-2.6,0-3.91-1.28-3.91-3.83s1.3-3.69,3.91-3.69h7.95v-32.16l-6.03,3.62c-1.14,.66-2.17,.83-3.09,.5-.92-.33-1.62-.92-2.09-1.78-.47-.85-.62-1.79-.43-2.8,.19-1.02,.85-1.86,1.99-2.52l9.8-5.89c.95-.57,1.89-1.05,2.84-1.46,.95-.4,1.82-.6,2.63-.6,.99,0,1.82,.27,2.48,.82,.66,.54,.99,1.43,.99,2.66v39.62h7.24c2.6,0,3.9,1.23,3.9,3.69s-1.3,3.83-3.9,3.83h-24.28Z"/>
    <path class="cls-1" d="M221.82,1639.45c-2.51,0-5.07-.33-7.67-.99-2.6-.66-4.99-1.68-7.17-3.05-1.14-.71-1.81-1.57-2.02-2.59-.21-1.02-.08-1.96,.39-2.84,.47-.88,1.17-1.47,2.09-1.78,.92-.31,1.98-.13,3.16,.53,1.75,.99,3.53,1.75,5.33,2.27,1.8,.52,3.71,.78,5.75,.78,2.98,0,5.31-.77,6.99-2.31,1.68-1.54,2.52-3.61,2.52-6.21s-.8-4.79-2.41-6.42c-1.61-1.63-3.81-2.45-6.6-2.45-1.52,0-2.98,.25-4.4,.75s-2.82,1.36-4.19,2.59c-.43,.38-.97,.75-1.63,1.1-.66,.36-1.37,.53-2.13,.53-2.41,0-3.62-1.16-3.62-3.48v-23.22c0-2.65,1.32-3.98,3.98-3.98h23.36c2.65,0,3.98,1.25,3.98,3.76s-1.33,3.76-3.98,3.76h-18.46v13.56c2.51-1.89,5.58-2.84,9.23-2.84,3.17,0,5.93,.67,8.27,2.02,2.34,1.35,4.17,3.22,5.47,5.61,1.3,2.39,1.95,5.17,1.95,8.34s-.73,6.14-2.2,8.63c-1.47,2.49-3.56,4.43-6.28,5.82-2.72,1.4-5.95,2.09-9.69,2.09Z"/>
    <path class="cls-1" d="M260.09,1639.45c-2.04,0-4.14-.32-6.32-.96-2.18-.64-4.21-1.6-6.11-2.88-.9-.62-1.43-1.41-1.6-2.38-.17-.97-.04-1.89,.39-2.77,.43-.88,1.08-1.47,1.95-1.78,.88-.31,1.88-.13,3.02,.53,1.61,.95,3.12,1.61,4.54,1.99,1.42,.38,2.84,.57,4.26,.57,4.12,0,7.27-1.44,9.44-4.33,2.18-2.89,3.27-7.19,3.27-12.92v-2.06c-.99,2.6-2.6,4.64-4.83,6.11-2.23,1.47-4.78,2.2-7.67,2.2s-5.38-.69-7.63-2.06c-2.25-1.37-4.01-3.28-5.29-5.71s-1.92-5.19-1.92-8.27c0-3.27,.7-6.15,2.09-8.66,1.4-2.51,3.35-4.48,5.86-5.93,2.51-1.44,5.37-2.17,8.59-2.17,6.2,0,10.99,2.17,14.38,6.5s5.08,10.45,5.08,18.35c0,8.47-1.89,15.03-5.68,19.67-3.79,4.64-9.06,6.96-15.83,6.96Zm2.63-25.92c2.56,0,4.63-.85,6.21-2.56,1.58-1.7,2.38-3.93,2.38-6.67s-.79-4.96-2.38-6.64c-1.59-1.68-3.66-2.52-6.21-2.52s-4.63,.84-6.21,2.52c-1.59,1.68-2.38,3.89-2.38,6.64s.79,4.97,2.38,6.67c1.58,1.7,3.66,2.56,6.21,2.56Z"/>
    <path class="cls-1" d="M295.31,1646.33c-.62,.76-1.27,1.2-1.95,1.31-.69,.12-1.29-.01-1.81-.39-.52-.38-.81-.91-.85-1.6-.05-.69,.26-1.43,.92-2.24,.57-.71,1.02-1.44,1.35-2.2,.33-.76,.59-1.47,.78-2.13-1.47-.14-2.65-.69-3.55-1.63-.9-.95-1.35-2.18-1.35-3.69s.47-2.76,1.42-3.73c.95-.97,2.22-1.46,3.83-1.46s2.96,.56,3.91,1.67c.95,1.11,1.42,2.71,1.42,4.79,0,1.7-.27,3.49-.82,5.36-.54,1.87-1.65,3.85-3.3,5.93Z"/>
    <path class="cls-1" d="M343.45,1639.45c-5.82,0-10.38-1.25-13.67-3.76-3.29-2.51-4.93-5.99-4.93-10.44,0-3.03,.79-5.61,2.38-7.74s3.66-3.62,6.21-4.47c-2.27-.99-4.06-2.51-5.36-4.54-1.3-2.04-1.95-4.38-1.95-7.03,0-4.21,1.56-7.51,4.69-9.9,3.12-2.39,7.34-3.59,12.64-3.59s9.58,1.2,12.71,3.59c3.12,2.39,4.69,5.69,4.69,9.9,0,2.65-.65,5.01-1.95,7.06-1.3,2.06-3.06,3.56-5.29,4.51,2.56,.85,4.6,2.36,6.14,4.51,1.54,2.15,2.31,4.72,2.31,7.7,0,4.45-1.65,7.93-4.93,10.44-3.29,2.51-7.85,3.76-13.67,3.76Zm0-7.1c6.77,0,10.15-2.58,10.15-7.74s-3.38-7.67-10.15-7.67c-3.31,0-5.83,.64-7.56,1.92-1.73,1.28-2.59,3.19-2.59,5.75s.86,4.49,2.59,5.79c1.73,1.3,4.25,1.95,7.56,1.95Zm0-22.51c2.79,0,4.98-.66,6.57-1.99s2.38-3.15,2.38-5.47-.79-4.06-2.38-5.36c-1.59-1.3-3.77-1.95-6.57-1.95s-4.97,.65-6.53,1.95c-1.56,1.3-2.34,3.09-2.34,5.36s.78,4.14,2.34,5.47c1.56,1.33,3.74,1.99,6.53,1.99Z"/>
    <path class="cls-1" d="M386.04,1639.45c-5.82,0-10.38-1.25-13.67-3.76-3.29-2.51-4.93-5.99-4.93-10.44,0-3.03,.79-5.61,2.38-7.74s3.66-3.62,6.21-4.47c-2.27-.99-4.06-2.51-5.36-4.54-1.3-2.04-1.95-4.38-1.95-7.03,0-4.21,1.56-7.51,4.69-9.9,3.12-2.39,7.34-3.59,12.64-3.59s9.58,1.2,12.71,3.59c3.12,2.39,4.69,5.69,4.69,9.9,0,2.65-.65,5.01-1.95,7.06-1.3,2.06-3.06,3.56-5.29,4.51,2.56,.85,4.6,2.36,6.14,4.51,1.54,2.15,2.31,4.72,2.31,7.7,0,4.45-1.65,7.93-4.93,10.44-3.29,2.51-7.85,3.76-13.67,3.76Zm0-7.1c6.77,0,10.15-2.58,10.15-7.74s-3.38-7.67-10.15-7.67c-3.31,0-5.83,.64-7.56,1.92-1.73,1.28-2.59,3.19-2.59,5.75s.86,4.49,2.59,5.79c1.73,1.3,4.25,1.95,7.56,1.95Zm0-22.51c2.79,0,4.98-.66,6.57-1.99s2.38-3.15,2.38-5.47-.79-4.06-2.38-5.36c-1.59-1.3-3.77-1.95-6.57-1.95s-4.97,.65-6.53,1.95c-1.56,1.3-2.34,3.09-2.34,5.36s.78,4.14,2.34,5.47c1.56,1.33,3.74,1.99,6.53,1.99Z"/>
    <path class="cls-1" d="M417.35,1646.33c-.62,.76-1.27,1.2-1.95,1.31-.69,.12-1.29-.01-1.81-.39-.52-.38-.81-.91-.85-1.6-.05-.69,.26-1.43,.92-2.24,.57-.71,1.02-1.44,1.35-2.2,.33-.76,.59-1.47,.78-2.13-1.47-.14-2.65-.69-3.55-1.63-.9-.95-1.35-2.18-1.35-3.69s.47-2.76,1.42-3.73c.95-.97,2.22-1.46,3.83-1.46s2.96,.56,3.91,1.67c.95,1.11,1.42,2.71,1.42,4.79,0,1.7-.27,3.49-.82,5.36-.54,1.87-1.65,3.85-3.3,5.93Z"/>
    <path class="cls-1" d="M453.63,1638.74c-1.52,0-2.62-.34-3.3-1.03-.69-.69-1.03-1.69-1.03-3.02,0-.8,.21-1.59,.64-2.34,.43-.76,1.04-1.56,1.85-2.41l14.27-15.19c2.18-2.27,3.74-4.34,4.69-6.21,.95-1.87,1.42-3.75,1.42-5.64,0-4.83-2.91-7.24-8.73-7.24-1.61,0-3.22,.23-4.83,.67-1.61,.45-3.24,1.22-4.9,2.31-1.04,.71-2.01,.92-2.91,.64-.9-.28-1.59-.86-2.06-1.74-.47-.88-.63-1.81-.46-2.8s.77-1.85,1.81-2.56c2.04-1.37,4.32-2.41,6.85-3.12s5.08-1.07,7.63-1.07c5.35,0,9.45,1.21,12.32,3.62,2.86,2.41,4.3,5.87,4.3,10.37,0,3.03-.72,5.94-2.17,8.73-1.44,2.79-3.7,5.8-6.78,9.02l-11,11.5h18.53c2.6,0,3.9,1.23,3.9,3.69s-1.3,3.83-3.9,3.83h-26.13Z"/>
    <path class="cls-1" d="M516.11,1639.31c-1.42,0-2.53-.39-3.34-1.17-.81-.78-1.21-1.91-1.21-3.37v-5.54h-17.54c-1.47,0-2.64-.31-3.51-.92-.88-.61-1.31-1.56-1.31-2.84,0-.8,.2-1.66,.6-2.56,.4-.9,1.12-2.08,2.17-3.55l19.45-28.19c.66-.99,1.4-1.75,2.2-2.27,.8-.52,1.73-.78,2.77-.78,1.23,0,2.25,.37,3.05,1.1,.8,.73,1.21,1.88,1.21,3.44v29.04h3.48c2.75,0,4.12,1.25,4.12,3.76s-1.37,3.76-4.12,3.76h-3.48v5.54c0,1.47-.4,2.59-1.21,3.37-.81,.78-1.92,1.17-3.34,1.17Zm-4.54-17.61v-19.1l-13.06,19.1h13.06Z"/>
    <path class="cls-1" d="M538.83,1638.74c-1.52,0-2.62-.34-3.3-1.03-.69-.69-1.03-1.69-1.03-3.02,0-.8,.21-1.59,.64-2.34,.43-.76,1.04-1.56,1.85-2.41l14.27-15.19c2.18-2.27,3.74-4.34,4.69-6.21,.95-1.87,1.42-3.75,1.42-5.64,0-4.83-2.91-7.24-8.73-7.24-1.61,0-3.22,.23-4.83,.67-1.61,.45-3.24,1.22-4.9,2.31-1.04,.71-2.01,.92-2.91,.64-.9-.28-1.59-.86-2.06-1.74-.47-.88-.63-1.81-.46-2.8s.77-1.85,1.81-2.56c2.04-1.37,4.32-2.41,6.85-3.12s5.08-1.07,7.63-1.07c5.35,0,9.45,1.21,12.32,3.62,2.86,2.41,4.3,5.87,4.3,10.37,0,3.03-.72,5.94-2.17,8.73-1.44,2.79-3.7,5.8-6.78,9.02l-11,11.5h18.53c2.6,0,3.9,1.23,3.9,3.69s-1.3,3.83-3.9,3.83h-26.13Z"/>
  </g>
</svg>