<?xml version="1.0" encoding="UTF-8"?><svg id="a" xmlns="http://www.w3.org/2000/svg" viewBox="0 0 1000 1000"><defs><style>.b{fill:#fff;}.c{fill:#313957;}.d{fill:none;}</style></defs><rect class="d" x="149.5" y="60" width="700" height="880"/><rect class="c" x="0" width="1000" height="1000" rx="200" ry="200"/><path class="b" d="M849.5,642.57V357.43c0-35.77-19-68.55-50-85.94l-250-143.08c-15.5-8.94-32.5-13.41-50-13.41s-34.5,4.47-50,13.41l-250,142.58c-31,17.88-50,50.67-50,86.44v285.15c0,35.77,19,68.55,50,85.94l250,143.07c15.5,8.94,32.5,13.41,50,13.41s34.5-4.47,50-13.41l250-143.07c31-17.39,50-50.17,50-85.94h0Zm-400,114.25l-200-114.26v-230.01l200,115.75v228.52Zm50-314.46l-198-114.75,198-113.26,198,113.26-198,114.75Zm250,200.2l-200,114.26v-228.52l200-115.75v230.01Z"/></svg>