<svg id="Layer_1" data-name="Layer 1" xmlns="http://www.w3.org/2000/svg" xmlns:xlink="http://www.w3.org/1999/xlink" viewBox="0 0 1000 1000"><defs><style>.cls-1{fill:none;}.cls-2{fill:url(#linear-gradient);}</style><linearGradient id="linear-gradient" x1="670.4" y1="913.13" x2="368.96" y2="84.94" gradientUnits="userSpaceOnUse"><stop offset="0" stop-color="#3767e5"/><stop offset="0.65" stop-color="#9f58f2"/></linearGradient></defs><path class="cls-1" d="M0,0V1000H1000V0ZM41.67,541.67v-250a124.83,124.83,0,0,1,125-125h500a124.83,124.83,0,0,1,125,125V583.33a83.58,83.58,0,0,1-83.34,83.34H166.67A124.83,124.83,0,0,1,41.67,541.67ZM958.33,750A83.58,83.58,0,0,1,875,833.33H208.33a41.67,41.67,0,0,1,0-83.33H875V333.33a41.67,41.67,0,0,1,83.33,0Z"/><path class="cls-2" d="M958.33,333.33V750A83.58,83.58,0,0,1,875,833.33H208.33a41.67,41.67,0,0,1,0-83.33H875V333.33a41.67,41.67,0,0,1,83.33,0ZM166.67,666.67a124.83,124.83,0,0,1-125-125v-250a124.83,124.83,0,0,1,125-125h500a124.83,124.83,0,0,1,125,125V583.33a83.58,83.58,0,0,1-83.34,83.34Zm125-250a125,125,0,1,0,125-125A124.83,124.83,0,0,0,291.67,416.67Z"/></svg>