<svg id="centr" xmlns="http://www.w3.org/2000/svg" xmlns:xlink="http://www.w3.org/1999/xlink" viewBox="0 0 1000 1000"><defs><style>.cls-1{fill:url(#linear-gradient);}</style><linearGradient id="linear-gradient" x1="709.56" y1="1075.76" x2="290.44" y2="-75.76" gradientUnits="userSpaceOnUse"><stop offset="0" stop-color="#3767e5"/><stop offset="0.65" stop-color="#9f58f2"/></linearGradient></defs><path class="cls-1" d="M900,0H100A100,100,0,0,0,0,100V900a100,100,0,0,0,100,100H900a100,100,0,0,0,100-100V100A100,100,0,0,0,900,0Zm60,868a92,92,0,0,1-92,92H132a92,92,0,0,1-92-92V132a92,92,0,0,1,92-92H868a92,92,0,0,1,92,92ZM325,250a75,75,0,1,1-75-75A75,75,0,0,1,325,250ZM825,750a75,75,0,1,1-75-75A75,75,0,0,1,825,750Zm-500,0a75,75,0,1,1-75-75A75,75,0,0,1,325,750ZM825,250a75,75,0,1,1-75-75A75,75,0,0,1,825,250ZM175,500a75,75,0,1,1,75,75,75,75,0,0,1-75-75m500,0a75,75,0,1,1,75,75,75,75,0,0,1-75-75"/></svg>