<?xml version="1.0" encoding="UTF-8"?>
<svg id="Die_Roll" data-name="Die Roll" xmlns="http://www.w3.org/2000/svg" xmlns:xlink="http://www.w3.org/1999/xlink" viewBox="0 0 1080 2272">
  <defs>
    <style>
      .cls-1 {
        fill: #fff;
      }

      .cls-2 {
        opacity: .5;
      }

      .cls-3 {
        fill: #9f58f2;
      }

      .cls-4 {
        fill: #0c0414;
      }

      .cls-5 {
        fill: url(#linear-gradient);
      }
    </style>
    <linearGradient id="linear-gradient" x1="649.6" y1="1608.5" x2="429.4" y2="1003.5" gradientTransform="matrix(1, 0, 0, 1, 0, 0)" gradientUnits="userSpaceOnUse">
      <stop offset="0" stop-color="#3767e5"/>
      <stop offset=".65" stop-color="#9f58f2"/>
    </linearGradient>
  </defs>
  <rect id="Background" class="cls-4" width="1080" height="2272" rx="100" ry="100"/>
  <g>
    <path class="cls-1" d="M337.04,301.11c-6.49,0-12.19-1.54-17.1-4.64-4.92-3.09-8.74-7.52-11.48-13.3-2.74-5.78-4.1-12.62-4.1-20.52s1.37-14.72,4.1-20.44c2.74-5.72,6.54-10.16,11.4-13.3,4.86-3.14,10.59-4.71,17.18-4.71,5.57,0,10.54,1.22,14.9,3.65,4.36,2.43,7.6,5.73,9.73,9.88v-38.46c0-5.17,2.53-7.75,7.6-7.75s7.75,2.58,7.75,7.75v93.78c0,5.17-2.53,7.75-7.6,7.75s-7.6-2.58-7.6-7.75v-5.78c-2.23,4.26-5.52,7.63-9.88,10.11-4.36,2.48-9.32,3.72-14.9,3.72Zm3.95-11.86c6.28,0,11.35-2.28,15.2-6.84,3.85-4.56,5.78-11.15,5.78-19.76s-1.93-15.17-5.78-19.68c-3.85-4.51-8.92-6.76-15.2-6.76s-11.5,2.26-15.35,6.76c-3.85,4.51-5.78,11.07-5.78,19.68s1.92,15.2,5.78,19.76c3.85,4.56,8.97,6.84,15.35,6.84Z"/>
    <path class="cls-1" d="M406.2,208.99c-3.04,0-5.4-.76-7.07-2.28-1.67-1.52-2.51-3.65-2.51-6.38,0-5.78,3.19-8.66,9.58-8.66s9.58,2.89,9.58,8.66-3.19,8.66-9.58,8.66Zm0,91.66c-5.07,0-7.6-2.79-7.6-8.36v-59.28c0-5.47,2.53-8.21,7.6-8.21s7.75,2.74,7.75,8.21v59.28c0,5.57-2.58,8.36-7.75,8.36Z"/>
    <path class="cls-1" d="M470.34,301.11c-12.16,0-21.74-3.42-28.73-10.26-6.99-6.84-10.49-16.19-10.49-28.04,0-7.6,1.54-14.31,4.64-20.14,3.09-5.83,7.37-10.36,12.84-13.6,5.47-3.24,11.75-4.86,18.85-4.86,10.23,0,18.29,3.27,24.17,9.8,5.88,6.54,8.82,15.53,8.82,26.98,0,3.45-2.03,5.17-6.08,5.17h-48.34c1.11,15.4,9.27,23.1,24.47,23.1,3.04,0,6.23-.38,9.58-1.14,3.34-.76,6.59-2.15,9.73-4.18,2.13-1.22,3.98-1.65,5.55-1.29,1.57,.36,2.71,1.22,3.42,2.58,.71,1.37,.84,2.89,.38,4.56-.46,1.67-1.65,3.12-3.57,4.33-3.45,2.33-7.47,4.08-12.08,5.24-4.61,1.16-8.99,1.75-13.15,1.75Zm-2.28-66.12c-6.38,0-11.45,1.98-15.2,5.93-3.75,3.95-6.03,9.22-6.84,15.81h41.5c-.3-6.89-2.13-12.24-5.47-16.04-3.34-3.8-8.01-5.7-13.98-5.7Z"/>
    <path class="cls-1" d="M565.04,300.8c-5.17,0-7.75-2.58-7.75-7.75v-60.8c0-5.17,2.48-7.75,7.45-7.75s7.45,2.58,7.45,7.75v6.54c2.03-4.56,5.09-8.06,9.2-10.49,4.1-2.43,9.09-3.85,14.97-4.26,3.75-.3,5.78,1.72,6.08,6.08,.4,4.46-1.77,6.89-6.54,7.3l-2.89,.3c-13.48,1.32-20.22,8.26-20.22,20.82v34.5c0,5.17-2.58,7.75-7.75,7.75Z"/>
    <path class="cls-1" d="M645.14,301.11c-7.5,0-13.98-1.57-19.46-4.71-5.47-3.14-9.7-7.57-12.69-13.3-2.99-5.72-4.48-12.54-4.48-20.44s1.49-14.72,4.48-20.44c2.99-5.72,7.22-10.16,12.69-13.3,5.47-3.14,11.96-4.71,19.46-4.71s13.68,1.57,19.15,4.71c5.47,3.14,9.73,7.58,12.77,13.3,3.04,5.73,4.56,12.54,4.56,20.44s-1.52,14.72-4.56,20.44c-3.04,5.73-7.3,10.16-12.77,13.3-5.47,3.14-11.86,4.71-19.15,4.71Zm0-11.86c6.28,0,11.35-2.28,15.2-6.84,3.85-4.56,5.78-11.15,5.78-19.76s-1.93-15.17-5.78-19.68c-3.85-4.51-8.92-6.76-15.2-6.76s-11.5,2.26-15.35,6.76c-3.85,4.51-5.78,11.07-5.78,19.68s1.92,15.2,5.78,19.76c3.85,4.56,8.97,6.84,15.35,6.84Z"/>
    <path class="cls-1" d="M722.66,301.11c-7.9,0-13.86-2.28-17.86-6.84-4-4.56-6-11.25-6-20.06v-74.94c0-5.17,2.53-7.75,7.6-7.75s7.75,2.58,7.75,7.75v74.02c0,10.03,4.05,15.05,12.16,15.05,.91,0,1.72-.05,2.43-.15,.71-.1,1.42-.15,2.13-.15,1.22-.1,2.08,.23,2.58,.99,.51,.76,.76,2.31,.76,4.64,0,4.16-1.93,6.54-5.78,7.14-1.01,.1-2,.18-2.96,.23-.96,.05-1.9,.08-2.81,.08Z"/>
    <path class="cls-1" d="M769.17,301.11c-7.9,0-13.86-2.28-17.86-6.84-4-4.56-6-11.25-6-20.06v-74.94c0-5.17,2.53-7.75,7.6-7.75s7.75,2.58,7.75,7.75v74.02c0,10.03,4.05,15.05,12.16,15.05,.91,0,1.72-.05,2.43-.15,.71-.1,1.42-.15,2.13-.15,1.22-.1,2.08,.23,2.58,.99,.51,.76,.76,2.31,.76,4.64,0,4.16-1.93,6.54-5.78,7.14-1.01,.1-2,.18-2.96,.23-.96,.05-1.9,.08-2.81,.08Z"/>
  </g>
  <g class="cls-2">
    <path class="cls-1" d="M135.02,417.44c-4.11,0-7.17-1.05-9.18-3.15-2.01-2.1-3.02-5.14-3.02-9.11v-15.81h-4.02c-1.88,0-2.81-.87-2.81-2.61s.94-2.61,2.81-2.61h4.02v-6.9c0-2.28,1.14-3.42,3.42-3.42s3.35,1.14,3.35,3.42v6.9h7.84c1.88,0,2.81,.87,2.81,2.61s-.94,2.61-2.81,2.61h-7.84v15.28c0,2.37,.5,4.15,1.51,5.36s2.65,1.81,4.92,1.81c.8,0,1.5-.08,2.08-.23,.58-.16,1.09-.26,1.54-.3,.49,0,.89,.17,1.21,.5,.31,.33,.47,.97,.47,1.91,0,.71-.12,1.35-.37,1.91-.25,.56-.68,.93-1.31,1.11-.54,.22-1.26,.4-2.18,.54-.92,.13-1.73,.2-2.45,.2Z"/>
    <path class="cls-1" d="M155.99,417.44c-2.28,0-4.31-.45-6.1-1.34-1.79-.89-3.21-2.1-4.25-3.62-1.05-1.52-1.57-3.24-1.57-5.16,0-2.41,.61-4.31,1.84-5.69,1.23-1.38,3.26-2.39,6.1-3.02,2.84-.62,6.67-.94,11.49-.94h2.28v-1.74c0-2.55-.54-4.38-1.61-5.49-1.07-1.12-2.84-1.68-5.29-1.68-1.43,0-2.91,.18-4.46,.54-1.54,.36-3.14,.96-4.79,1.81-.94,.45-1.71,.51-2.31,.2-.6-.31-1.02-.8-1.24-1.47-.22-.67-.2-1.36,.07-2.08,.27-.71,.83-1.25,1.68-1.61,1.96-.89,3.91-1.55,5.83-1.98,1.92-.42,3.73-.64,5.43-.64,4.47,0,7.77,1.06,9.92,3.18,2.14,2.12,3.22,5.44,3.22,9.95v17.22c0,2.28-1.05,3.42-3.15,3.42s-3.22-1.14-3.22-3.42v-2.48c-.8,1.88-2.06,3.35-3.75,4.42-1.7,1.07-3.73,1.61-6.1,1.61Zm1.34-4.82c2.41,0,4.42-.85,6.03-2.55,1.61-1.7,2.41-3.84,2.41-6.43v-1.81h-2.21c-3.26,0-5.82,.16-7.67,.47-1.85,.31-3.17,.84-3.95,1.57-.78,.74-1.17,1.75-1.17,3.05,0,1.7,.58,3.07,1.74,4.12,1.16,1.05,2.77,1.57,4.82,1.57Z"/>
    <path class="cls-1" d="M184.87,429.36c-2.23,0-3.35-1.14-3.35-3.42v-38.86c0-2.28,1.09-3.42,3.28-3.42s3.35,1.14,3.35,3.42v2.55c.98-1.88,2.43-3.36,4.35-4.46,1.92-1.09,4.11-1.64,6.57-1.64,2.9,0,5.44,.69,7.6,2.08,2.17,1.39,3.84,3.34,5.02,5.86,1.18,2.52,1.78,5.53,1.78,9.01s-.59,6.5-1.78,9.04c-1.18,2.55-2.86,4.5-5.02,5.86-2.17,1.36-4.7,2.04-7.6,2.04-2.41,0-4.57-.53-6.47-1.57-1.9-1.05-3.34-2.49-4.32-4.32v14.4c0,2.28-1.14,3.42-3.42,3.42Zm12.53-17.15c2.81,0,5.06-1,6.73-3.02,1.67-2.01,2.51-4.91,2.51-8.71s-.84-6.69-2.51-8.68c-1.68-1.99-3.92-2.98-6.73-2.98s-5.06,.99-6.73,2.98c-1.67,1.99-2.51,4.88-2.51,8.68s.84,6.7,2.51,8.71c1.68,2.01,3.92,3.02,6.73,3.02Z"/>
    <path class="cls-1" d="M249.26,417.44c-2.28,0-4.31-.45-6.1-1.34-1.79-.89-3.21-2.1-4.25-3.62-1.05-1.52-1.57-3.24-1.57-5.16,0-2.41,.61-4.31,1.84-5.69,1.23-1.38,3.26-2.39,6.1-3.02,2.84-.62,6.67-.94,11.49-.94h2.28v-1.74c0-2.55-.54-4.38-1.61-5.49-1.07-1.12-2.84-1.68-5.29-1.68-1.43,0-2.91,.18-4.46,.54-1.54,.36-3.14,.96-4.79,1.81-.94,.45-1.71,.51-2.31,.2-.6-.31-1.02-.8-1.24-1.47-.22-.67-.2-1.36,.07-2.08,.27-.71,.83-1.25,1.68-1.61,1.96-.89,3.91-1.55,5.83-1.98,1.92-.42,3.73-.64,5.43-.64,4.47,0,7.77,1.06,9.92,3.18,2.14,2.12,3.22,5.44,3.22,9.95v17.22c0,2.28-1.05,3.42-3.15,3.42s-3.22-1.14-3.22-3.42v-2.48c-.8,1.88-2.06,3.35-3.75,4.42-1.7,1.07-3.73,1.61-6.1,1.61Zm1.34-4.82c2.41,0,4.42-.85,6.03-2.55,1.61-1.7,2.41-3.84,2.41-6.43v-1.81h-2.21c-3.26,0-5.82,.16-7.67,.47-1.85,.31-3.17,.84-3.95,1.57-.78,.74-1.17,1.75-1.17,3.05,0,1.7,.58,3.07,1.74,4.12,1.16,1.05,2.77,1.57,4.82,1.57Z"/>
    <path class="cls-1" d="M278.13,417.3c-2.23,0-3.35-1.14-3.35-3.42v-26.8c0-2.28,1.09-3.42,3.28-3.42s3.28,1.14,3.28,3.42v2.48c1.12-1.96,2.65-3.46,4.59-4.49,1.94-1.03,4.12-1.54,6.53-1.54,7.73,0,11.59,4.38,11.59,13.13v17.22c0,2.28-1.12,3.42-3.35,3.42s-3.42-1.14-3.42-3.42v-16.82c0-2.81-.55-4.87-1.64-6.16-1.1-1.29-2.8-1.94-5.13-1.94-2.73,0-4.9,.86-6.53,2.58-1.63,1.72-2.45,3.99-2.45,6.8v15.54c0,2.28-1.14,3.42-3.42,3.42Z"/>
    <path class="cls-1" d="M320.74,429.36c-1.25,0-2.11-.46-2.58-1.37-.47-.92-.44-1.98,.1-3.18l3.95-8.84-11.93-27.67c-.54-1.21-.55-2.28-.03-3.22,.51-.94,1.53-1.41,3.05-1.41,.8,0,1.46,.2,1.98,.6,.51,.4,.97,1.1,1.37,2.08l9.18,22.65,9.31-22.65c.4-1.03,.87-1.73,1.41-2.11,.54-.38,1.27-.57,2.21-.57,1.21,0,2.03,.47,2.48,1.41,.45,.94,.42,1.99-.07,3.15l-16.75,38.52c-.45,1.03-.95,1.72-1.51,2.08-.56,.36-1.28,.54-2.18,.54Z"/>
    <path class="cls-1" d="M361.68,417.3c-1.97,0-3.33-.98-4.09-2.95l-9.85-26.06c-.54-1.34-.53-2.45,.03-3.32,.56-.87,1.51-1.31,2.85-1.31,.8,0,1.45,.19,1.94,.57,.49,.38,.94,1.11,1.34,2.18l7.97,22.51,8.31-22.78c.62-1.65,1.74-2.48,3.35-2.48s2.77,.83,3.35,2.48l8.17,22.91,8.17-22.78c.36-1.03,.81-1.72,1.37-2.08,.56-.36,1.19-.54,1.91-.54,1.34,0,2.2,.47,2.58,1.41,.38,.94,.35,2.01-.1,3.22l-9.85,26.06c-.8,1.97-2.14,2.95-4.02,2.95-2.01,0-3.37-.98-4.09-2.95l-7.71-20.9-7.64,20.9c-.72,1.97-2.06,2.95-4.02,2.95Z"/>
    <path class="cls-1" d="M409.79,417.3c-2.23,0-3.35-1.14-3.35-3.42v-41.34c0-2.28,1.12-3.42,3.35-3.42s3.42,1.14,3.42,3.42v16.68c1.12-1.88,2.62-3.29,4.52-4.25,1.9-.96,4.03-1.44,6.4-1.44,7.73,0,11.59,4.38,11.59,13.13v17.22c0,2.28-1.12,3.42-3.35,3.42s-3.42-1.14-3.42-3.42v-16.82c0-2.81-.55-4.87-1.64-6.16-1.1-1.29-2.8-1.94-5.13-1.94-2.73,0-4.9,.86-6.53,2.58-1.63,1.72-2.45,3.99-2.45,6.8v15.54c0,2.28-1.14,3.42-3.42,3.42Z"/>
    <path class="cls-1" d="M460.37,417.44c-5.36,0-9.58-1.51-12.66-4.52s-4.62-7.14-4.62-12.36c0-3.35,.68-6.31,2.04-8.88,1.36-2.57,3.25-4.57,5.66-6,2.41-1.43,5.18-2.14,8.31-2.14,4.51,0,8.06,1.44,10.65,4.32,2.59,2.88,3.89,6.85,3.89,11.89,0,1.52-.89,2.28-2.68,2.28h-21.31c.49,6.79,4.09,10.18,10.79,10.18,1.34,0,2.75-.17,4.22-.5,1.47-.33,2.9-.95,4.29-1.84,.94-.54,1.75-.73,2.45-.57,.69,.16,1.19,.54,1.51,1.14,.31,.6,.37,1.27,.17,2.01-.2,.74-.73,1.37-1.57,1.91-1.52,1.03-3.29,1.8-5.33,2.31-2.03,.51-3.96,.77-5.8,.77Zm-1-29.15c-2.81,0-5.05,.87-6.7,2.61-1.65,1.74-2.66,4.07-3.02,6.97h18.29c-.13-3.04-.94-5.39-2.41-7.07-1.47-1.68-3.53-2.51-6.16-2.51Z"/>
    <path class="cls-1" d="M484.42,417.3c-2.28,0-3.42-1.14-3.42-3.42v-26.8c0-2.28,1.09-3.42,3.28-3.42s3.28,1.14,3.28,3.42v2.88c.89-2.01,2.24-3.55,4.05-4.62,1.81-1.07,4.01-1.7,6.6-1.88,1.65-.13,2.55,.76,2.68,2.68,.18,1.97-.78,3.04-2.88,3.22l-1.27,.13c-5.94,.58-8.91,3.64-8.91,9.18v15.21c0,2.28-1.14,3.42-3.42,3.42Z"/>
    <path class="cls-1" d="M520.87,417.44c-5.36,0-9.58-1.51-12.66-4.52s-4.62-7.14-4.62-12.36c0-3.35,.68-6.31,2.04-8.88,1.36-2.57,3.25-4.57,5.66-6,2.41-1.43,5.18-2.14,8.31-2.14,4.51,0,8.06,1.44,10.65,4.32,2.59,2.88,3.89,6.85,3.89,11.89,0,1.52-.89,2.28-2.68,2.28h-21.31c.49,6.79,4.09,10.18,10.79,10.18,1.34,0,2.75-.17,4.22-.5,1.47-.33,2.9-.95,4.29-1.84,.94-.54,1.75-.73,2.45-.57,.69,.16,1.19,.54,1.51,1.14,.31,.6,.37,1.27,.17,2.01-.2,.74-.73,1.37-1.57,1.91-1.52,1.03-3.29,1.8-5.33,2.31-2.03,.51-3.96,.77-5.8,.77Zm-1-29.15c-2.81,0-5.05,.87-6.7,2.61-1.65,1.74-2.66,4.07-3.02,6.97h18.29c-.13-3.04-.94-5.39-2.41-7.07-1.47-1.68-3.53-2.51-6.16-2.51Z"/>
    <path class="cls-1" d="M573.4,417.44c-3.31,0-6.16-.69-8.58-2.08-2.41-1.38-4.28-3.34-5.59-5.86-1.32-2.52-1.98-5.53-1.98-9.01s.66-6.49,1.98-9.01c1.32-2.52,3.18-4.48,5.59-5.86,2.41-1.38,5.27-2.08,8.58-2.08s6.03,.69,8.44,2.08c2.41,1.39,4.29,3.34,5.63,5.86,1.34,2.52,2.01,5.53,2.01,9.01s-.67,6.49-2.01,9.01c-1.34,2.52-3.22,4.48-5.63,5.86-2.41,1.39-5.23,2.08-8.44,2.08Zm0-5.23c2.77,0,5-1,6.7-3.02,1.7-2.01,2.55-4.91,2.55-8.71s-.85-6.69-2.55-8.68c-1.7-1.99-3.93-2.98-6.7-2.98s-5.07,.99-6.77,2.98c-1.7,1.99-2.55,4.88-2.55,8.68s.85,6.7,2.55,8.71c1.7,2.01,3.95,3.02,6.77,3.02Z"/>
    <path class="cls-1" d="M600.4,417.3c-2.23,0-3.35-1.14-3.35-3.42v-26.8c0-2.28,1.09-3.42,3.28-3.42s3.28,1.14,3.28,3.42v2.48c1.12-1.96,2.65-3.46,4.59-4.49,1.94-1.03,4.12-1.54,6.53-1.54,7.73,0,11.59,4.38,11.59,13.13v17.22c0,2.28-1.12,3.42-3.35,3.42s-3.42-1.14-3.42-3.42v-16.82c0-2.81-.55-4.87-1.64-6.16-1.1-1.29-2.8-1.94-5.13-1.94-2.72,0-4.9,.86-6.53,2.58-1.63,1.72-2.45,3.99-2.45,6.8v15.54c0,2.28-1.14,3.42-3.42,3.42Z"/>
    <path class="cls-1" d="M667.26,417.44c-4.11,0-7.17-1.05-9.18-3.15-2.01-2.1-3.01-5.14-3.01-9.11v-15.81h-4.02c-1.88,0-2.81-.87-2.81-2.61s.94-2.61,2.81-2.61h4.02v-6.9c0-2.28,1.14-3.42,3.42-3.42s3.35,1.14,3.35,3.42v6.9h7.84c1.88,0,2.81,.87,2.81,2.61s-.94,2.61-2.81,2.61h-7.84v15.28c0,2.37,.5,4.15,1.51,5.36s2.65,1.81,4.92,1.81c.8,0,1.5-.08,2.08-.23,.58-.16,1.09-.26,1.54-.3,.49,0,.89,.17,1.21,.5,.31,.33,.47,.97,.47,1.91,0,.71-.12,1.35-.37,1.91-.25,.56-.68,.93-1.31,1.11-.54,.22-1.26,.4-2.18,.54-.92,.13-1.73,.2-2.45,.2Z"/>
    <path class="cls-1" d="M681.73,417.3c-2.23,0-3.35-1.14-3.35-3.42v-41.34c0-2.28,1.12-3.42,3.35-3.42s3.42,1.14,3.42,3.42v16.68c1.12-1.88,2.62-3.29,4.52-4.25,1.9-.96,4.03-1.44,6.4-1.44,7.73,0,11.59,4.38,11.59,13.13v17.22c0,2.28-1.12,3.42-3.35,3.42s-3.42-1.14-3.42-3.42v-16.82c0-2.81-.55-4.87-1.64-6.16-1.1-1.29-2.8-1.94-5.13-1.94-2.72,0-4.9,.86-6.53,2.58-1.63,1.72-2.45,3.99-2.45,6.8v15.54c0,2.28-1.14,3.42-3.42,3.42Z"/>
    <path class="cls-1" d="M732.32,417.44c-5.36,0-9.58-1.51-12.66-4.52-3.08-3.02-4.62-7.14-4.62-12.36,0-3.35,.68-6.31,2.04-8.88,1.36-2.57,3.25-4.57,5.66-6,2.41-1.43,5.18-2.14,8.31-2.14,4.51,0,8.06,1.44,10.65,4.32,2.59,2.88,3.89,6.85,3.89,11.89,0,1.52-.89,2.28-2.68,2.28h-21.31c.49,6.79,4.09,10.18,10.79,10.18,1.34,0,2.75-.17,4.22-.5,1.47-.33,2.9-.95,4.29-1.84,.94-.54,1.75-.73,2.45-.57,.69,.16,1.2,.54,1.51,1.14s.37,1.27,.17,2.01c-.2,.74-.73,1.37-1.58,1.91-1.52,1.03-3.29,1.8-5.33,2.31-2.03,.51-3.96,.77-5.8,.77Zm-1-29.15c-2.81,0-5.05,.87-6.7,2.61-1.65,1.74-2.66,4.07-3.01,6.97h18.29c-.13-3.04-.94-5.39-2.41-7.07-1.47-1.68-3.53-2.51-6.16-2.51Z"/>
    <path class="cls-1" d="M782.1,417.44c-1.97,0-4-.22-6.1-.67-2.1-.45-4-1.21-5.7-2.28-.76-.45-1.23-1-1.41-1.67s-.13-1.29,.13-1.88c.27-.58,.7-.99,1.31-1.24,.6-.24,1.28-.17,2.04,.23,1.74,.94,3.42,1.61,5.03,2.01,1.61,.4,3.19,.6,4.76,.6,2.37,0,4.15-.42,5.36-1.27,1.21-.85,1.81-1.99,1.81-3.42,0-1.16-.4-2.07-1.21-2.71-.8-.65-2.01-1.15-3.62-1.51l-6.37-1.27c-5.63-1.16-8.44-4.06-8.44-8.71,0-3.08,1.23-5.54,3.68-7.37,2.46-1.83,5.67-2.75,9.65-2.75s7.48,.98,10.38,2.95c.71,.45,1.14,.99,1.27,1.64,.13,.65,.04,1.25-.27,1.81-.31,.56-.77,.95-1.37,1.17-.6,.22-1.31,.13-2.11-.27-1.34-.8-2.68-1.4-4.02-1.78-1.34-.38-2.64-.57-3.89-.57-2.32,0-4.09,.44-5.29,1.31-1.21,.87-1.81,2.04-1.81,3.52,0,2.23,1.47,3.66,4.42,4.29l6.37,1.27c2.9,.58,5.1,1.56,6.6,2.95,1.5,1.38,2.24,3.26,2.24,5.63,0,3.13-1.23,5.57-3.68,7.34-2.46,1.77-5.72,2.65-9.78,2.65Z"/>
    <path class="cls-1" d="M817.47,417.44c-3.35,0-6.24-.7-8.68-2.11-2.43-1.41-4.32-3.39-5.66-5.96-1.34-2.57-2.01-5.59-2.01-9.08,0-5.18,1.47-9.27,4.42-12.26,2.95-2.99,6.92-4.49,11.93-4.49,1.56,0,3.2,.23,4.92,.7,1.72,.47,3.32,1.24,4.79,2.31,.71,.45,1.13,1.02,1.24,1.71,.11,.69,0,1.34-.33,1.94s-.82,1-1.44,1.21c-.63,.2-1.34,.08-2.14-.37-1.07-.76-2.17-1.31-3.28-1.64-1.12-.33-2.19-.5-3.22-.5-3.17,0-5.62,.99-7.34,2.98-1.72,1.99-2.58,4.81-2.58,8.48s.86,6.53,2.58,8.61c1.72,2.08,4.17,3.12,7.34,3.12,1.03,0,2.09-.16,3.18-.47,1.09-.31,2.2-.85,3.32-1.61,.8-.45,1.51-.56,2.11-.33,.6,.22,1.05,.64,1.34,1.24,.29,.6,.38,1.25,.27,1.94-.11,.69-.53,1.26-1.24,1.71-1.43,1.03-2.98,1.76-4.66,2.21-1.67,.45-3.29,.67-4.86,.67Z"/>
    <path class="cls-1" d="M837.77,417.3c-2.28,0-3.42-1.14-3.42-3.42v-26.8c0-2.28,1.09-3.42,3.28-3.42s3.28,1.14,3.28,3.42v2.88c.89-2.01,2.24-3.55,4.05-4.62,1.81-1.07,4.01-1.7,6.6-1.88,1.65-.13,2.55,.76,2.68,2.68,.18,1.97-.78,3.04-2.88,3.22l-1.27,.13c-5.94,.58-8.91,3.64-8.91,9.18v15.21c0,2.28-1.14,3.42-3.42,3.42Z"/>
    <path class="cls-1" d="M874.22,417.44c-5.36,0-9.58-1.51-12.66-4.52-3.08-3.02-4.62-7.14-4.62-12.36,0-3.35,.68-6.31,2.04-8.88,1.36-2.57,3.25-4.57,5.66-6,2.41-1.43,5.18-2.14,8.31-2.14,4.51,0,8.06,1.44,10.65,4.32,2.59,2.88,3.89,6.85,3.89,11.89,0,1.52-.89,2.28-2.68,2.28h-21.31c.49,6.79,4.09,10.18,10.79,10.18,1.34,0,2.75-.17,4.22-.5,1.47-.33,2.9-.95,4.29-1.84,.94-.54,1.75-.73,2.45-.57,.69,.16,1.2,.54,1.51,1.14s.37,1.27,.17,2.01c-.2,.74-.73,1.37-1.58,1.91-1.52,1.03-3.29,1.8-5.33,2.31-2.03,.51-3.96,.77-5.8,.77Zm-1-29.15c-2.81,0-5.05,.87-6.7,2.61-1.65,1.74-2.66,4.07-3.01,6.97h18.29c-.13-3.04-.94-5.39-2.41-7.07-1.47-1.68-3.53-2.51-6.16-2.51Z"/>
    <path class="cls-1" d="M910.2,417.44c-5.36,0-9.58-1.51-12.66-4.52-3.08-3.02-4.62-7.14-4.62-12.36,0-3.35,.68-6.31,2.04-8.88,1.36-2.57,3.25-4.57,5.66-6,2.41-1.43,5.18-2.14,8.31-2.14,4.51,0,8.06,1.44,10.65,4.32,2.59,2.88,3.89,6.85,3.89,11.89,0,1.52-.89,2.28-2.68,2.28h-21.31c.49,6.79,4.09,10.18,10.79,10.18,1.34,0,2.75-.17,4.22-.5,1.47-.33,2.9-.95,4.29-1.84,.94-.54,1.75-.73,2.45-.57,.69,.16,1.2,.54,1.51,1.14s.37,1.27,.17,2.01c-.2,.74-.73,1.37-1.58,1.91-1.52,1.03-3.29,1.8-5.33,2.31-2.03,.51-3.96,.77-5.8,.77Zm-1-29.15c-2.81,0-5.05,.87-6.7,2.61-1.65,1.74-2.66,4.07-3.01,6.97h18.29c-.13-3.04-.94-5.39-2.41-7.07-1.47-1.68-3.53-2.51-6.16-2.51Z"/>
    <path class="cls-1" d="M934.19,417.3c-2.23,0-3.35-1.14-3.35-3.42v-26.8c0-2.28,1.09-3.42,3.28-3.42s3.28,1.14,3.28,3.42v2.48c1.12-1.96,2.65-3.46,4.59-4.49,1.94-1.03,4.12-1.54,6.53-1.54,7.73,0,11.59,4.38,11.59,13.13v17.22c0,2.28-1.12,3.42-3.35,3.42s-3.42-1.14-3.42-3.42v-16.82c0-2.81-.55-4.87-1.64-6.16-1.1-1.29-2.8-1.94-5.13-1.94-2.72,0-4.9,.86-6.53,2.58-1.63,1.72-2.45,3.99-2.45,6.8v15.54c0,2.28-1.14,3.42-3.42,3.42Z"/>
    <path class="cls-1" d="M346.44,511.3c-2.28,0-3.42-1.14-3.42-3.42v-24.52h-3.75c-1.83,0-2.75-.87-2.75-2.61s.92-2.61,2.75-2.61h3.75v-.6c0-4.42,1.09-7.76,3.28-10.02,2.19-2.25,5.38-3.58,9.58-3.99l2.08-.13c.94-.09,1.64,.1,2.11,.57s.7,1.05,.7,1.74-.18,1.31-.54,1.84c-.36,.54-.89,.85-1.61,.94l-1.27,.07c-2.64,.18-4.56,.92-5.76,2.21-1.21,1.3-1.81,3.24-1.81,5.83v1.54h6.5c1.88,0,2.81,.87,2.81,2.61s-.94,2.61-2.81,2.61h-6.5v24.52c0,2.28-1.12,3.42-3.35,3.42Z"/>
    <path class="cls-1" d="M377.59,511.44c-3.31,0-6.16-.69-8.58-2.08-2.41-1.38-4.28-3.34-5.59-5.86-1.32-2.52-1.98-5.53-1.98-9.01s.66-6.49,1.98-9.01c1.32-2.52,3.18-4.48,5.59-5.86,2.41-1.38,5.27-2.08,8.58-2.08s6.03,.69,8.44,2.08c2.41,1.39,4.29,3.34,5.63,5.86,1.34,2.52,2.01,5.53,2.01,9.01s-.67,6.49-2.01,9.01c-1.34,2.52-3.22,4.48-5.63,5.86-2.41,1.39-5.23,2.08-8.44,2.08Zm0-5.23c2.77,0,5-1,6.7-3.02,1.7-2.01,2.55-4.91,2.55-8.71s-.85-6.69-2.55-8.68c-1.7-1.99-3.93-2.98-6.7-2.98s-5.07,.99-6.77,2.98c-1.7,1.99-2.55,4.88-2.55,8.68s.85,6.7,2.55,8.71c1.7,2.01,3.95,3.02,6.77,3.02Z"/>
    <path class="cls-1" d="M404.66,511.3c-2.28,0-3.42-1.14-3.42-3.42v-26.8c0-2.28,1.09-3.42,3.28-3.42s3.28,1.14,3.28,3.42v2.88c.89-2.01,2.24-3.55,4.05-4.62,1.81-1.07,4.01-1.7,6.6-1.88,1.65-.13,2.55,.76,2.68,2.68,.18,1.97-.78,3.04-2.88,3.22l-1.27,.13c-5.94,.58-8.91,3.64-8.91,9.18v15.21c0,2.28-1.14,3.42-3.42,3.42Z"/>
    <path class="cls-1" d="M454.37,511.44c-2.28,0-4.31-.45-6.1-1.34-1.79-.89-3.21-2.1-4.25-3.62-1.05-1.52-1.57-3.24-1.57-5.16,0-2.41,.61-4.31,1.84-5.69,1.23-1.38,3.26-2.39,6.1-3.02,2.84-.62,6.67-.94,11.49-.94h2.28v-1.74c0-2.55-.54-4.38-1.61-5.49-1.07-1.12-2.84-1.68-5.29-1.68-1.43,0-2.91,.18-4.46,.54-1.54,.36-3.14,.96-4.79,1.81-.94,.45-1.71,.51-2.31,.2-.6-.31-1.02-.8-1.24-1.47-.22-.67-.2-1.36,.07-2.08,.27-.71,.83-1.25,1.68-1.61,1.96-.89,3.91-1.55,5.83-1.98,1.92-.42,3.73-.64,5.43-.64,4.47,0,7.77,1.06,9.92,3.18,2.14,2.12,3.22,5.44,3.22,9.95v17.22c0,2.28-1.05,3.42-3.15,3.42s-3.22-1.14-3.22-3.42v-2.48c-.8,1.88-2.06,3.35-3.75,4.42-1.7,1.07-3.73,1.61-6.1,1.61Zm1.34-4.82c2.41,0,4.42-.85,6.03-2.55,1.61-1.7,2.41-3.84,2.41-6.43v-1.81h-2.21c-3.26,0-5.82,.16-7.67,.47-1.85,.31-3.17,.84-3.95,1.57-.78,.74-1.17,1.75-1.17,3.05,0,1.7,.58,3.07,1.74,4.12,1.16,1.05,2.77,1.57,4.82,1.57Z"/>
    <path class="cls-1" d="M500.94,511.3c-2.23,0-3.35-1.14-3.35-3.42v-26.8c0-2.28,1.09-3.42,3.28-3.42s3.28,1.14,3.28,3.42v2.48c1.12-1.96,2.65-3.46,4.59-4.49,1.94-1.03,4.12-1.54,6.53-1.54,7.73,0,11.59,4.38,11.59,13.13v17.22c0,2.28-1.12,3.42-3.35,3.42s-3.42-1.14-3.42-3.42v-16.82c0-2.81-.55-4.87-1.64-6.16-1.1-1.29-2.8-1.94-5.13-1.94-2.73,0-4.9,.86-6.53,2.58-1.63,1.72-2.45,3.99-2.45,6.8v15.54c0,2.28-1.14,3.42-3.42,3.42Z"/>
    <path class="cls-1" d="M551.52,511.44c-5.36,0-9.58-1.51-12.66-4.52-3.08-3.02-4.62-7.14-4.62-12.36,0-3.35,.68-6.31,2.04-8.88,1.36-2.57,3.25-4.57,5.66-6,2.41-1.43,5.18-2.14,8.31-2.14,4.51,0,8.06,1.44,10.65,4.32,2.59,2.88,3.89,6.85,3.89,11.89,0,1.52-.89,2.28-2.68,2.28h-21.31c.49,6.79,4.09,10.18,10.79,10.18,1.34,0,2.75-.17,4.22-.5,1.47-.33,2.9-.95,4.29-1.84,.94-.54,1.75-.73,2.45-.57,.69,.16,1.19,.54,1.51,1.14s.37,1.27,.17,2.01c-.2,.74-.73,1.37-1.57,1.91-1.52,1.03-3.29,1.8-5.33,2.31-2.03,.51-3.96,.77-5.79,.77Zm-1-29.15c-2.81,0-5.05,.87-6.7,2.61-1.65,1.74-2.66,4.07-3.02,6.97h18.29c-.13-3.04-.94-5.39-2.41-7.07-1.47-1.68-3.53-2.51-6.16-2.51Z"/>
    <path class="cls-1" d="M583.61,511.3c-1.96,0-3.33-.98-4.09-2.95l-9.85-26.06c-.54-1.34-.53-2.45,.03-3.32s1.51-1.31,2.85-1.31c.8,0,1.45,.19,1.94,.57,.49,.38,.94,1.11,1.34,2.18l7.97,22.51,8.31-22.78c.62-1.65,1.74-2.48,3.35-2.48s2.77,.83,3.35,2.48l8.18,22.91,8.17-22.78c.36-1.03,.81-1.72,1.37-2.08,.56-.36,1.19-.54,1.91-.54,1.34,0,2.2,.47,2.58,1.41s.35,2.01-.1,3.22l-9.85,26.06c-.8,1.97-2.14,2.95-4.02,2.95-2.01,0-3.37-.98-4.09-2.95l-7.71-20.9-7.64,20.9c-.71,1.97-2.05,2.95-4.02,2.95Z"/>
    <path class="cls-1" d="M649.47,511.3c-2.28,0-3.42-1.14-3.42-3.42v-26.8c0-2.28,1.09-3.42,3.28-3.42s3.28,1.14,3.28,3.42v2.88c.89-2.01,2.24-3.55,4.05-4.62,1.81-1.07,4.01-1.7,6.6-1.88,1.65-.13,2.55,.76,2.68,2.68,.18,1.97-.78,3.04-2.88,3.22l-1.27,.13c-5.94,.58-8.91,3.64-8.91,9.18v15.21c0,2.28-1.14,3.42-3.42,3.42Z"/>
    <path class="cls-1" d="M684.78,511.44c-3.31,0-6.16-.69-8.58-2.08-2.41-1.38-4.28-3.34-5.59-5.86-1.32-2.52-1.98-5.53-1.98-9.01s.66-6.49,1.98-9.01c1.32-2.52,3.18-4.48,5.59-5.86,2.41-1.38,5.27-2.08,8.58-2.08s6.03,.69,8.44,2.08c2.41,1.39,4.29,3.34,5.63,5.86,1.34,2.52,2.01,5.53,2.01,9.01s-.67,6.49-2.01,9.01c-1.34,2.52-3.22,4.48-5.63,5.86-2.41,1.39-5.23,2.08-8.44,2.08Zm0-5.23c2.77,0,5-1,6.7-3.02,1.7-2.01,2.55-4.91,2.55-8.71s-.85-6.69-2.55-8.68c-1.7-1.99-3.93-2.98-6.7-2.98s-5.07,.99-6.77,2.98c-1.7,1.99-2.55,4.88-2.55,8.68s.85,6.7,2.55,8.71c1.7,2.01,3.95,3.02,6.77,3.02Z"/>
    <path class="cls-1" d="M718.95,511.44c-3.48,0-6.11-1-7.87-3.02-1.76-2.01-2.65-4.96-2.65-8.84v-33.03c0-2.28,1.12-3.42,3.35-3.42s3.42,1.14,3.42,3.42v32.63c0,4.42,1.79,6.63,5.36,6.63,.4,0,.76-.02,1.07-.07,.31-.04,.62-.07,.94-.07,.54-.04,.92,.1,1.14,.44,.22,.33,.33,1.02,.33,2.04,0,1.83-.85,2.88-2.55,3.15-.45,.04-.88,.08-1.31,.1-.42,.02-.84,.03-1.24,.03Z"/>
    <path class="cls-1" d="M739.45,511.44c-3.48,0-6.11-1-7.87-3.02-1.76-2.01-2.65-4.96-2.65-8.84v-33.03c0-2.28,1.12-3.42,3.35-3.42s3.42,1.14,3.42,3.42v32.63c0,4.42,1.79,6.63,5.36,6.63,.4,0,.76-.02,1.07-.07,.31-.04,.62-.07,.94-.07,.54-.04,.92,.1,1.14,.44,.22,.33,.33,1.02,.33,2.04,0,1.83-.85,2.88-2.55,3.15-.45,.04-.88,.08-1.31,.1-.42,.02-.84,.03-1.24,.03Z"/>
  </g>
  <g class="cls-2">
    <path class="cls-1" d="M172.07,1699.01c-2.31,0-4.38-.45-6.19-1.36-1.81-.91-3.25-2.13-4.32-3.67-1.07-1.54-1.6-3.29-1.6-5.24,0-2.45,.62-4.37,1.87-5.78,1.25-1.4,3.31-2.42,6.19-3.06,2.88-.63,6.77-.95,11.66-.95h2.31v-1.77c0-2.58-.54-4.44-1.63-5.58-1.09-1.13-2.88-1.7-5.37-1.7-1.45,0-2.96,.18-4.52,.54-1.56,.36-3.19,.98-4.86,1.84-.95,.45-1.73,.52-2.35,.2-.61-.32-1.03-.82-1.26-1.5-.23-.68-.2-1.38,.07-2.11,.27-.72,.84-1.27,1.7-1.63,1.99-.91,3.97-1.57,5.92-2.01,1.95-.43,3.78-.65,5.51-.65,4.53,0,7.89,1.08,10.06,3.23,2.18,2.15,3.26,5.52,3.26,10.1v17.48c0,2.31-1.07,3.47-3.2,3.47s-3.26-1.16-3.26-3.47v-2.52c-.82,1.9-2.09,3.4-3.81,4.49-1.72,1.09-3.79,1.63-6.19,1.63Zm1.36-4.9c2.45,0,4.49-.86,6.12-2.58,1.63-1.72,2.45-3.9,2.45-6.53v-1.84h-2.24c-3.31,0-5.91,.16-7.79,.48-1.88,.32-3.22,.85-4.01,1.6-.79,.75-1.19,1.78-1.19,3.09,0,1.72,.59,3.12,1.77,4.18,1.18,1.07,2.81,1.6,4.9,1.6Z"/>
    <path class="cls-1" d="M208.65,1699.01c-3.54,0-6.2-1.02-7.99-3.06-1.79-2.04-2.69-5.03-2.69-8.98v-33.52c0-2.31,1.13-3.47,3.4-3.47s3.47,1.16,3.47,3.47v33.12c0,4.49,1.81,6.73,5.44,6.73,.41,0,.77-.02,1.09-.07,.32-.04,.63-.07,.95-.07,.54-.04,.93,.1,1.16,.44,.23,.34,.34,1.03,.34,2.07,0,1.86-.86,2.92-2.58,3.2-.45,.04-.9,.08-1.33,.1-.43,.02-.85,.03-1.26,.03Z"/>
    <path class="cls-1" d="M229.46,1699.01c-3.54,0-6.2-1.02-7.99-3.06-1.79-2.04-2.69-5.03-2.69-8.98v-33.52c0-2.31,1.13-3.47,3.4-3.47s3.47,1.16,3.47,3.47v33.12c0,4.49,1.81,6.73,5.44,6.73,.41,0,.77-.02,1.09-.07,.32-.04,.63-.07,.95-.07,.54-.04,.93,.1,1.16,.44,.23,.34,.34,1.03,.34,2.07,0,1.86-.86,2.92-2.58,3.2-.45,.04-.9,.08-1.33,.1-.43,.02-.85,.03-1.26,.03Z"/>
    <path class="cls-1" d="M253.67,1699.01c-3.36,0-6.26-.7-8.7-2.11-2.45-1.4-4.34-3.39-5.68-5.95-1.34-2.56-2.01-5.61-2.01-9.15s.67-6.58,2.01-9.15c1.34-2.56,3.23-4.54,5.68-5.95,2.45-1.4,5.35-2.11,8.7-2.11s6.12,.7,8.57,2.11c2.45,1.41,4.35,3.39,5.71,5.95,1.36,2.56,2.04,5.61,2.04,9.15s-.68,6.58-2.04,9.15c-1.36,2.56-3.26,4.55-5.71,5.95-2.45,1.41-5.3,2.11-8.57,2.11Zm0-5.3c2.81,0,5.08-1.02,6.8-3.06,1.72-2.04,2.58-4.99,2.58-8.84s-.86-6.79-2.58-8.81c-1.72-2.02-3.99-3.03-6.8-3.03s-5.15,1.01-6.87,3.03c-1.72,2.02-2.58,4.95-2.58,8.81s.86,6.8,2.58,8.84c1.72,2.04,4.01,3.06,6.87,3.06Z"/>
    <path class="cls-1" d="M289.16,1698.87c-2,0-3.38-1-4.15-2.99l-10-26.45c-.54-1.36-.53-2.48,.03-3.37,.57-.88,1.53-1.33,2.89-1.33,.82,0,1.47,.19,1.97,.58,.5,.39,.95,1.12,1.36,2.21l8.09,22.85,8.43-23.12c.63-1.68,1.77-2.52,3.4-2.52s2.81,.84,3.4,2.52l8.3,23.26,8.3-23.12c.36-1.04,.83-1.75,1.39-2.11,.57-.36,1.21-.54,1.94-.54,1.36,0,2.23,.48,2.62,1.43,.38,.95,.35,2.04-.1,3.26l-10,26.45c-.82,2-2.18,2.99-4.08,2.99-2.04,0-3.42-1-4.15-2.99l-7.82-21.22-7.75,21.22c-.73,2-2.09,2.99-4.08,2.99Z"/>
    <path class="cls-1" d="M356.01,1698.87c-2.31,0-3.47-1.16-3.47-3.47v-27.2c0-2.31,1.11-3.47,3.33-3.47s3.33,1.16,3.33,3.47v2.92c.91-2.04,2.28-3.6,4.11-4.69s4.07-1.72,6.7-1.9c1.68-.14,2.58,.77,2.72,2.72,.18,2-.79,3.08-2.92,3.26l-1.29,.14c-6.03,.59-9.04,3.7-9.04,9.32v15.44c0,2.31-1.16,3.47-3.47,3.47Z"/>
    <path class="cls-1" d="M393,1699.01c-5.44,0-9.72-1.53-12.85-4.59-3.13-3.06-4.69-7.24-4.69-12.55,0-3.4,.69-6.4,2.07-9.01,1.38-2.61,3.3-4.63,5.75-6.09,2.45-1.45,5.26-2.18,8.43-2.18,4.58,0,8.18,1.46,10.81,4.39,2.63,2.92,3.94,6.95,3.94,12.07,0,1.54-.91,2.31-2.72,2.31h-21.62c.5,6.89,4.15,10.34,10.95,10.34,1.36,0,2.79-.17,4.28-.51s2.95-.96,4.35-1.87c.95-.54,1.78-.74,2.48-.58,.7,.16,1.21,.54,1.53,1.16,.32,.61,.37,1.29,.17,2.04s-.74,1.39-1.6,1.94c-1.54,1.04-3.34,1.83-5.41,2.35-2.06,.52-4.02,.78-5.88,.78Zm-1.02-29.58c-2.86,0-5.12,.88-6.8,2.65-1.68,1.77-2.7,4.13-3.06,7.07h18.56c-.14-3.08-.95-5.47-2.45-7.17-1.5-1.7-3.58-2.55-6.26-2.55Z"/>
    <path class="cls-1" d="M417.34,1711.11c-2.27,0-3.4-1.16-3.4-3.47v-39.44c0-2.31,1.11-3.47,3.33-3.47s3.4,1.16,3.4,3.47v2.58c1-1.9,2.47-3.41,4.42-4.52,1.95-1.11,4.17-1.67,6.66-1.67,2.95,0,5.52,.7,7.72,2.11,2.2,1.41,3.9,3.39,5.1,5.95,1.2,2.56,1.8,5.61,1.8,9.15s-.6,6.6-1.8,9.18c-1.2,2.58-2.9,4.57-5.1,5.95-2.2,1.38-4.77,2.07-7.72,2.07-2.45,0-4.64-.53-6.56-1.6-1.93-1.06-3.39-2.53-4.39-4.39v14.62c0,2.31-1.16,3.47-3.47,3.47Zm12.72-17.41c2.86,0,5.13-1.02,6.83-3.06,1.7-2.04,2.55-4.99,2.55-8.84s-.85-6.79-2.55-8.81c-1.7-2.02-3.98-3.03-6.83-3.03s-5.13,1.01-6.83,3.03c-1.7,2.02-2.55,4.95-2.55,8.81s.85,6.8,2.55,8.84c1.7,2.04,3.98,3.06,6.83,3.06Z"/>
    <path class="cls-1" d="M469.7,1699.01c-5.44,0-9.72-1.53-12.85-4.59-3.13-3.06-4.69-7.24-4.69-12.55,0-3.4,.69-6.4,2.07-9.01,1.38-2.61,3.3-4.63,5.75-6.09,2.45-1.45,5.26-2.18,8.43-2.18,4.58,0,8.18,1.46,10.81,4.39,2.63,2.92,3.94,6.95,3.94,12.07,0,1.54-.91,2.31-2.72,2.31h-21.62c.5,6.89,4.15,10.34,10.95,10.34,1.36,0,2.79-.17,4.28-.51s2.95-.96,4.35-1.87c.95-.54,1.78-.74,2.48-.58,.7,.16,1.21,.54,1.53,1.16,.32,.61,.37,1.29,.17,2.04s-.74,1.39-1.6,1.94c-1.54,1.04-3.34,1.83-5.41,2.35-2.06,.52-4.02,.78-5.88,.78Zm-1.02-29.58c-2.86,0-5.12,.88-6.8,2.65-1.68,1.77-2.7,4.13-3.06,7.07h18.56c-.14-3.08-.95-5.47-2.45-7.17-1.5-1.7-3.58-2.55-6.26-2.55Z"/>
    <path class="cls-1" d="M501.25,1699.01c-2.31,0-4.38-.45-6.19-1.36-1.81-.91-3.25-2.13-4.32-3.67-1.07-1.54-1.6-3.29-1.6-5.24,0-2.45,.62-4.37,1.87-5.78,1.25-1.4,3.31-2.42,6.19-3.06,2.88-.63,6.77-.95,11.66-.95h2.31v-1.77c0-2.58-.54-4.44-1.63-5.58-1.09-1.13-2.88-1.7-5.37-1.7-1.45,0-2.96,.18-4.52,.54-1.56,.36-3.19,.98-4.86,1.84-.95,.45-1.73,.52-2.35,.2-.61-.32-1.03-.82-1.26-1.5-.23-.68-.2-1.38,.07-2.11,.27-.72,.84-1.27,1.7-1.63,1.99-.91,3.97-1.57,5.92-2.01,1.95-.43,3.78-.65,5.51-.65,4.53,0,7.89,1.08,10.06,3.23,2.18,2.15,3.26,5.52,3.26,10.1v17.48c0,2.31-1.07,3.47-3.2,3.47s-3.26-1.16-3.26-3.47v-2.52c-.82,1.9-2.09,3.4-3.81,4.49-1.72,1.09-3.79,1.63-6.19,1.63Zm1.36-4.9c2.45,0,4.49-.86,6.12-2.58,1.63-1.72,2.45-3.9,2.45-6.53v-1.84h-2.24c-3.31,0-5.91,.16-7.79,.48-1.88,.32-3.22,.85-4.01,1.6-.79,.75-1.19,1.78-1.19,3.09,0,1.72,.59,3.12,1.77,4.18,1.18,1.07,2.81,1.6,4.9,1.6Z"/>
    <path class="cls-1" d="M541.3,1699.01c-4.17,0-7.28-1.06-9.32-3.2-2.04-2.13-3.06-5.21-3.06-9.25v-16.05h-4.08c-1.9,0-2.86-.88-2.86-2.65s.95-2.65,2.86-2.65h4.08v-7c0-2.31,1.16-3.47,3.47-3.47s3.4,1.16,3.4,3.47v7h7.96c1.9,0,2.86,.88,2.86,2.65s-.95,2.65-2.86,2.65h-7.96v15.5c0,2.4,.51,4.22,1.53,5.44,1.02,1.22,2.69,1.84,5,1.84,.82,0,1.52-.08,2.11-.24,.59-.16,1.11-.26,1.56-.31,.5,0,.91,.17,1.22,.51,.32,.34,.48,.99,.48,1.94,0,.73-.13,1.37-.37,1.94-.25,.57-.69,.94-1.33,1.12-.54,.23-1.28,.41-2.21,.54-.93,.14-1.76,.2-2.48,.2Z"/>
    <path class="cls-1" d="M567.21,1699.01c-5.44,0-9.72-1.53-12.85-4.59-3.13-3.06-4.69-7.24-4.69-12.55,0-3.4,.69-6.4,2.07-9.01,1.38-2.61,3.3-4.63,5.75-6.09,2.45-1.45,5.26-2.18,8.43-2.18,4.58,0,8.18,1.46,10.81,4.39,2.63,2.92,3.94,6.95,3.94,12.07,0,1.54-.91,2.31-2.72,2.31h-21.62c.5,6.89,4.15,10.34,10.95,10.34,1.36,0,2.79-.17,4.28-.51s2.95-.96,4.35-1.87c.95-.54,1.78-.74,2.48-.58,.7,.16,1.21,.54,1.53,1.16,.32,.61,.37,1.29,.17,2.04s-.74,1.39-1.6,1.94c-1.54,1.04-3.34,1.83-5.41,2.35-2.06,.52-4.02,.78-5.88,.78Zm-1.02-29.58c-2.86,0-5.12,.88-6.8,2.65-1.68,1.77-2.7,4.13-3.06,7.07h18.56c-.14-3.08-.95-5.47-2.45-7.17s-3.58-2.55-6.26-2.55Z"/>
    <path class="cls-1" d="M600.8,1699.01c-2.9,0-5.45-.69-7.65-2.07-2.2-1.38-3.91-3.37-5.13-5.95-1.22-2.58-1.84-5.64-1.84-9.18s.61-6.58,1.84-9.15c1.22-2.56,2.92-4.54,5.1-5.95,2.18-1.4,4.74-2.11,7.68-2.11,2.49,0,4.71,.54,6.66,1.63s3.4,2.56,4.35,4.42v-17.2c0-2.31,1.13-3.47,3.4-3.47s3.47,1.16,3.47,3.47v41.96c0,2.31-1.13,3.47-3.4,3.47s-3.4-1.16-3.4-3.47v-2.58c-1,1.9-2.47,3.41-4.42,4.52s-4.17,1.67-6.66,1.67Zm1.77-5.3c2.81,0,5.08-1.02,6.8-3.06,1.72-2.04,2.58-4.99,2.58-8.84s-.86-6.79-2.58-8.81c-1.72-2.02-3.99-3.03-6.8-3.03s-5.15,1.01-6.87,3.03c-1.72,2.02-2.58,4.95-2.58,8.81s.86,6.8,2.58,8.84c1.72,2.04,4.01,3.06,6.87,3.06Z"/>
    <path class="cls-1" d="M649.76,1698.87c-2.31,0-3.47-1.16-3.47-3.47v-27.2c0-2.31,1.11-3.47,3.33-3.47s3.33,1.16,3.33,3.47v2.92c.91-2.04,2.28-3.6,4.11-4.69,1.84-1.09,4.07-1.72,6.7-1.9,1.68-.14,2.58,.77,2.72,2.72,.18,2-.79,3.08-2.92,3.26l-1.29,.14c-6.03,.59-9.04,3.7-9.04,9.32v15.44c0,2.31-1.16,3.47-3.47,3.47Z"/>
    <path class="cls-1" d="M686.75,1699.01c-5.44,0-9.72-1.53-12.85-4.59-3.13-3.06-4.69-7.24-4.69-12.55,0-3.4,.69-6.4,2.07-9.01,1.38-2.61,3.3-4.63,5.75-6.09,2.45-1.45,5.26-2.18,8.43-2.18,4.58,0,8.18,1.46,10.81,4.39,2.63,2.92,3.94,6.95,3.94,12.07,0,1.54-.91,2.31-2.72,2.31h-21.62c.5,6.89,4.15,10.34,10.95,10.34,1.36,0,2.79-.17,4.28-.51s2.95-.96,4.35-1.87c.95-.54,1.78-.74,2.48-.58,.7,.16,1.21,.54,1.53,1.16,.32,.61,.37,1.29,.17,2.04s-.74,1.39-1.6,1.94c-1.54,1.04-3.34,1.83-5.41,2.35-2.06,.52-4.02,.78-5.88,.78Zm-1.02-29.58c-2.86,0-5.12,.88-6.8,2.65-1.68,1.77-2.7,4.13-3.06,7.07h18.56c-.14-3.08-.95-5.47-2.45-7.17s-3.58-2.55-6.26-2.55Z"/>
    <path class="cls-1" d="M719.32,1699.01c-2,0-4.06-.23-6.19-.68-2.13-.45-4.06-1.22-5.78-2.31-.77-.45-1.25-1.02-1.43-1.7-.18-.68-.14-1.31,.14-1.9,.27-.59,.71-1.01,1.33-1.26,.61-.25,1.3-.17,2.07,.24,1.77,.95,3.47,1.63,5.1,2.04,1.63,.41,3.24,.61,4.83,.61,2.4,0,4.22-.43,5.44-1.29,1.22-.86,1.84-2.02,1.84-3.47,0-1.18-.41-2.1-1.22-2.75-.82-.66-2.04-1.17-3.67-1.53l-6.46-1.29c-5.71-1.18-8.57-4.12-8.57-8.84,0-3.13,1.25-5.62,3.74-7.48,2.49-1.86,5.76-2.79,9.79-2.79s7.59,1,10.54,2.99c.72,.45,1.16,1.01,1.29,1.67,.14,.66,.04,1.27-.27,1.84-.32,.57-.78,.96-1.39,1.19-.61,.23-1.33,.14-2.14-.27-1.36-.82-2.72-1.42-4.08-1.8-1.36-.38-2.67-.58-3.94-.58-2.36,0-4.15,.44-5.37,1.33-1.22,.88-1.84,2.07-1.84,3.57,0,2.27,1.5,3.72,4.49,4.35l6.46,1.29c2.95,.59,5.18,1.59,6.7,2.99,1.52,1.41,2.28,3.31,2.28,5.71,0,3.17-1.25,5.66-3.74,7.45-2.49,1.79-5.8,2.69-9.93,2.69Z"/>
    <path class="cls-1" d="M752.44,1699.01c-8.02,0-12.04-4.46-12.04-13.4v-17.41c0-2.31,1.13-3.47,3.4-3.47s3.47,1.16,3.47,3.47v17.48c0,2.67,.54,4.65,1.63,5.92s2.81,1.9,5.17,1.9c2.58,0,4.68-.86,6.29-2.58,1.61-1.72,2.41-4.03,2.41-6.94v-15.78c0-2.31,1.16-3.47,3.47-3.47s3.4,1.16,3.4,3.47v27.2c0,2.31-1.11,3.47-3.33,3.47s-3.33-1.16-3.33-3.47v-2.31c-1.09,1.95-2.54,3.42-4.35,4.42-1.81,1-3.88,1.5-6.19,1.5Z"/>
    <path class="cls-1" d="M789.97,1699.01c-3.54,0-6.2-1.02-7.99-3.06s-2.69-5.03-2.69-8.98v-33.52c0-2.31,1.13-3.47,3.4-3.47s3.47,1.16,3.47,3.47v33.12c0,4.49,1.81,6.73,5.44,6.73,.41,0,.77-.02,1.09-.07,.32-.04,.63-.07,.95-.07,.54-.04,.93,.1,1.16,.44,.23,.34,.34,1.03,.34,2.07,0,1.86-.86,2.92-2.58,3.2-.45,.04-.9,.08-1.33,.1-.43,.02-.85,.03-1.26,.03Z"/>
    <path class="cls-1" d="M813.5,1699.01c-4.17,0-7.28-1.06-9.32-3.2s-3.06-5.21-3.06-9.25v-16.05h-4.08c-1.9,0-2.86-.88-2.86-2.65s.95-2.65,2.86-2.65h4.08v-7c0-2.31,1.16-3.47,3.47-3.47s3.4,1.16,3.4,3.47v7h7.96c1.9,0,2.86,.88,2.86,2.65s-.95,2.65-2.86,2.65h-7.96v15.5c0,2.4,.51,4.22,1.53,5.44,1.02,1.22,2.69,1.84,5,1.84,.82,0,1.52-.08,2.11-.24,.59-.16,1.11-.26,1.56-.31,.5,0,.91,.17,1.22,.51,.32,.34,.48,.99,.48,1.94,0,.73-.13,1.37-.37,1.94-.25,.57-.69,.94-1.33,1.12-.54,.23-1.28,.41-2.21,.54-.93,.14-1.76,.2-2.48,.2Z"/>
    <path class="cls-1" d="M835.81,1699.01c-2,0-4.06-.23-6.19-.68-2.13-.45-4.06-1.22-5.78-2.31-.77-.45-1.25-1.02-1.43-1.7-.18-.68-.14-1.31,.14-1.9,.27-.59,.71-1.01,1.33-1.26,.61-.25,1.3-.17,2.07,.24,1.77,.95,3.47,1.63,5.1,2.04,1.63,.41,3.24,.61,4.83,.61,2.4,0,4.22-.43,5.44-1.29,1.22-.86,1.84-2.02,1.84-3.47,0-1.18-.41-2.1-1.22-2.75-.82-.66-2.04-1.17-3.67-1.53l-6.46-1.29c-5.71-1.18-8.57-4.12-8.57-8.84,0-3.13,1.25-5.62,3.74-7.48,2.49-1.86,5.76-2.79,9.79-2.79s7.59,1,10.54,2.99c.72,.45,1.16,1.01,1.29,1.67,.14,.66,.04,1.27-.27,1.84-.32,.57-.78,.96-1.39,1.19-.61,.23-1.33,.14-2.14-.27-1.36-.82-2.72-1.42-4.08-1.8-1.36-.38-2.67-.58-3.94-.58-2.36,0-4.15,.44-5.37,1.33-1.22,.88-1.84,2.07-1.84,3.57,0,2.27,1.5,3.72,4.49,4.35l6.46,1.29c2.95,.59,5.18,1.59,6.7,2.99,1.52,1.41,2.28,3.31,2.28,5.71,0,3.17-1.25,5.66-3.74,7.45-2.49,1.79-5.8,2.69-9.93,2.69Z"/>
  </g>
  <path id="AllowRepeatCB" class="cls-3" d="M916.81,1646h-38.89c-3.06,0-5.56,2.5-5.56,5.56v38.89c0,3.06,2.5,5.56,5.56,5.56h38.89c3.06,0,5.56-2.5,5.56-5.56v-38.89c0-3.06-2.5-5.56-5.56-5.56Zm-23.03,36.92c-1.08,1.08-2.83,1.08-3.92,0l-9.97-9.97c-1.08-1.08-1.08-2.83,0-3.92,1.08-1.08,2.83-1.08,3.92,0l8,8,19.11-19.11c1.08-1.08,2.83-1.08,3.92,0s1.08,2.83,0,3.92l-21.06,21.08Z"/>
  <path id="Die" class="cls-5" d="M753.9,1045H325.1c-29.6,0-53.6,23.37-53.6,52.2v417.6c0,28.83,24,52.2,53.6,52.2h428.8c29.6,0,53.6-23.37,53.6-52.2v-417.6c0-28.83-24-52.2-53.6-52.2Zm32.16,453.1c0,26.52-22.08,48.02-49.31,48.02H342.25c-27.23,0-49.31-21.5-49.31-48.02v-384.19c0-26.52,22.08-48.02,49.31-48.02h394.5c27.23,0,49.31,21.5,49.31,48.02v384.19Zm-340.36-322.6c0,21.62-18,39.15-40.2,39.15s-40.2-17.53-40.2-39.15,18-39.15,40.2-39.15,40.2,17.53,40.2,39.15Zm268,261c0,21.62-18,39.15-40.2,39.15s-40.2-17.53-40.2-39.15,18-39.15,40.2-39.15,40.2,17.53,40.2,39.15Zm-268,0c0,21.62-18,39.15-40.2,39.15s-40.2-17.53-40.2-39.15,18-39.15,40.2-39.15,40.2,17.53,40.2,39.15Zm268-261c0,21.62-18,39.15-40.2,39.15s-40.2-17.53-40.2-39.15,18-39.15,40.2-39.15,40.2,17.53,40.2,39.15Zm-348.4,130.5c0-21.62,18-39.15,40.2-39.15s40.2,17.53,40.2,39.15-18,39.15-40.2,39.15-40.2-17.53-40.2-39.15m268,0c0-21.62,18-39.15,40.2-39.15s40.2,17.53,40.2,39.15-18,39.15-40.2,39.15-40.2-17.53-40.2-39.15"/>
</svg>