<?xml version="1.0" encoding="UTF-8"?>
<svg id="Layer_2" data-name="Layer 2" xmlns="http://www.w3.org/2000/svg" viewBox="0 0 1009.67 1142.14">
  <defs>
    <style>
      .cls-1 {
        fill: #c923fe;
      }
    </style>
  </defs>
  <path d="M467.35,10.04L37.51,258.09C14.3,271.49,0,296.25,0,323.05v496.04c0,26.8,14.3,51.56,37.51,64.96l429.83,248.05c23.2,13.39,51.78,13.39,74.97,0l429.83-248.05c23.21-13.4,37.51-38.16,37.51-64.96V323.05c0-26.8-14.3-51.56-37.51-64.96L542.32,10.04c-23.2-13.39-51.78-13.39-74.97,0Z"/>
  <g id="Background"/>
  <g>
    <path d="M505.37,983.94c-4.38,0-8.7-1.16-12.5-3.35l-336.18-194c-7.71-4.45-12.5-12.75-12.5-21.65V376.99c0-8.91,4.79-17.2,12.5-21.65L492.87,161.33c3.79-2.19,8.12-3.35,12.5-3.35s8.7,1.16,12.49,3.35l336.18,194c7.71,4.45,12.5,12.75,12.5,21.65v387.95c0,8.91-4.79,17.2-12.5,21.65l-336.18,194c-3.79,2.19-8.12,3.35-12.5,3.35Z"/>
    <path class="cls-1" d="M517.86,204.64h0m-12.5,7.21l311.18,179.58v359.07l-311.18,179.58-311.18-179.58V391.43L505.37,211.85m0-103.86c-12.94,0-25.89,3.35-37.49,10.04L131.7,312.03c-23.21,13.4-37.51,38.16-37.51,64.96v387.95c0,26.8,14.3,51.56,37.51,64.96l336.18,194c11.6,6.69,24.54,10.04,37.49,10.04s25.89-3.35,37.49-10.04l336.18-194c23.21-13.4,37.51-38.16,37.51-64.96V376.99c0-26.8-14.3-51.56-37.51-64.96L542.86,118.03c-11.6-6.69-24.54-10.04-37.49-10.04h0Z"/>
  </g>
</svg>