<?xml version="1.0" encoding="UTF-8"?>
<svg id="Homescreen" xmlns="http://www.w3.org/2000/svg" xmlns:xlink="http://www.w3.org/1999/xlink" viewBox="0 0 1080 2272">
  <defs>
    <style>
      .cls-1 {
        fill: #fff;
      }

      .cls-2 {
        fill: #9f58f2;
      }

      .cls-3 {
        fill: #0c0414;
      }

      .cls-4 {
        fill: url(#linear-gradient);
      }

      .cls-5 {
        fill: #22283d;
      }
    </style>
    <linearGradient id="linear-gradient" x1="1252.13" y1="2885.02" x2="1057.13" y2="2349.24" gradientTransform="translate(-615.13 -1879.13)" gradientUnits="userSpaceOnUse">
      <stop offset="0" stop-color="#3767e5"/>
      <stop offset=".65" stop-color="#9f58f2"/>
    </linearGradient>
  </defs>
  <rect id="Background" class="cls-3" width="1080" height="2272" rx="100" ry="100"/>
  <circle id="OthersDot1" class="cls-2" cx="933.5" cy="114" r="11"/>
  <circle id="OthersDot2" class="cls-2" cx="967.5" cy="114" r="11"/>
  <circle id="OthersDot3" class="cls-2" cx="1001.5" cy="114" r="11"/>
  <path id="FinanceButton" class="cls-5" d="M987.73,2221v-400c0-44.18-35.82-80-80-80H172.52c-44.18,0-80,35.82-80,80v400c0,19.38,6.9,37.15,18.37,51H969.36c11.47-13.85,18.37-31.62,18.37-51Z"/>
  <rect id="ConversionsButton" class="cls-5" x="91.9" y="1111" width="895.2" height="560" rx="80" ry="80"/>
  <g>
    <path class="cls-2" d="M406.17,2057.71c-3.06,0-4.59-1.53-4.59-4.59v-32.94h-5.04c-2.46,0-3.69-1.17-3.69-3.51s1.23-3.51,3.69-3.51h5.04v-.81c0-5.82,1.44-10.26,4.32-13.32,2.88-3.06,7.11-4.86,12.69-5.4l2.7-.18c1.38-.18,2.4,.06,3.06,.72,.66,.66,1.02,1.46,1.08,2.38,.06,.93-.15,1.76-.63,2.48-.48,.72-1.17,1.14-2.07,1.26l-2.43,.18c-3.36,.24-5.81,1.23-7.34,2.97-1.53,1.74-2.29,4.29-2.29,7.65v2.07h23.4c3.06,0,4.59,1.62,4.59,4.86v34.65c0,3.3-1.53,4.95-4.59,4.95s-4.5-1.65-4.5-4.95v-32.49h-18.9v32.94c0,3.06-1.5,4.59-4.5,4.59Zm28.08-54.36c-3.66,0-5.49-1.71-5.49-5.13s1.83-5.13,5.49-5.13,5.49,1.71,5.49,5.13-1.83,5.13-5.49,5.13Z"/>
    <path class="cls-2" d="M455.85,2057.71c-3,0-4.5-1.53-4.5-4.59v-36c0-3.06,1.47-4.59,4.41-4.59s4.41,1.53,4.41,4.59v3.33c1.5-2.64,3.56-4.65,6.17-6.03,2.61-1.38,5.54-2.07,8.77-2.07,10.38,0,15.57,5.88,15.57,17.64v23.13c0,3.06-1.5,4.59-4.5,4.59s-4.59-1.53-4.59-4.59v-22.59c0-3.78-.74-6.54-2.21-8.28-1.47-1.74-3.77-2.61-6.88-2.61-3.66,0-6.59,1.16-8.77,3.46-2.19,2.31-3.29,5.35-3.29,9.13v20.88c0,3.06-1.53,4.59-4.59,4.59Z"/>
    <path class="cls-2" d="M517.23,2057.89c-3.06,0-5.79-.6-8.19-1.8-2.4-1.2-4.31-2.82-5.72-4.86-1.41-2.04-2.11-4.35-2.11-6.93,0-3.24,.82-5.79,2.47-7.65,1.65-1.86,4.38-3.21,8.19-4.05,3.81-.84,8.95-1.26,15.43-1.26h3.06v-2.34c0-3.42-.72-5.88-2.16-7.38-1.44-1.5-3.81-2.25-7.11-2.25-1.92,0-3.92,.24-5.98,.72-2.07,.48-4.22,1.29-6.44,2.43-1.26,.6-2.29,.69-3.1,.27-.81-.42-1.37-1.08-1.67-1.98-.3-.9-.27-1.83,.09-2.79,.36-.96,1.11-1.68,2.25-2.16,2.64-1.2,5.25-2.08,7.83-2.65,2.58-.57,5.01-.86,7.29-.86,6,0,10.44,1.43,13.32,4.28,2.88,2.85,4.32,7.31,4.32,13.37v23.13c0,3.06-1.41,4.59-4.23,4.59s-4.32-1.53-4.32-4.59v-3.33c-1.08,2.52-2.76,4.5-5.04,5.94-2.28,1.44-5.01,2.16-8.19,2.16Zm1.8-6.48c3.24,0,5.94-1.14,8.1-3.42,2.16-2.28,3.24-5.16,3.24-8.64v-2.43h-2.97c-4.38,0-7.82,.21-10.31,.63-2.49,.42-4.26,1.12-5.31,2.11-1.05,.99-1.57,2.36-1.57,4.09,0,2.28,.78,4.13,2.34,5.54,1.56,1.41,3.72,2.12,6.48,2.12Z"/>
    <path class="cls-2" d="M556.01,2057.71c-3,0-4.5-1.53-4.5-4.59v-36c0-3.06,1.47-4.59,4.41-4.59s4.41,1.53,4.41,4.59v3.33c1.5-2.64,3.55-4.65,6.17-6.03,2.61-1.38,5.54-2.07,8.78-2.07,10.38,0,15.57,5.88,15.57,17.64v23.13c0,3.06-1.5,4.59-4.5,4.59s-4.59-1.53-4.59-4.59v-22.59c0-3.78-.74-6.54-2.21-8.28-1.47-1.74-3.77-2.61-6.88-2.61-3.66,0-6.59,1.16-8.78,3.46-2.19,2.31-3.29,5.35-3.29,9.13v20.88c0,3.06-1.53,4.59-4.59,4.59Z"/>
    <path class="cls-2" d="M622.7,2057.89c-4.5,0-8.39-.95-11.66-2.84-3.27-1.89-5.8-4.56-7.6-8.01-1.8-3.45-2.7-7.51-2.7-12.2,0-6.96,1.98-12.45,5.94-16.47,3.96-4.02,9.3-6.03,16.02-6.03,2.1,0,4.3,.32,6.62,.95,2.31,.63,4.45,1.67,6.43,3.11,.96,.6,1.51,1.37,1.67,2.29,.15,.93,0,1.8-.45,2.61-.45,.81-1.1,1.35-1.93,1.62-.84,.27-1.8,.11-2.88-.5-1.44-1.02-2.91-1.75-4.41-2.21-1.5-.45-2.94-.67-4.32-.67-4.26,0-7.55,1.34-9.85,4-2.31,2.67-3.47,6.47-3.47,11.38s1.16,8.78,3.47,11.57c2.31,2.79,5.59,4.18,9.85,4.18,1.38,0,2.8-.21,4.28-.63,1.47-.42,2.95-1.14,4.46-2.16,1.08-.6,2.02-.75,2.83-.45,.81,.3,1.41,.85,1.8,1.67,.39,.81,.51,1.68,.36,2.61-.15,.93-.71,1.7-1.67,2.29-1.92,1.38-4,2.37-6.25,2.97s-4.42,.9-6.52,.9Z"/>
    <path class="cls-2" d="M665.09,2057.89c-7.2,0-12.87-2.03-17.01-6.08-4.14-4.05-6.21-9.58-6.21-16.6,0-4.5,.91-8.47,2.75-11.92,1.83-3.45,4.36-6.13,7.6-8.05s6.96-2.88,11.16-2.88c6.06,0,10.83,1.94,14.31,5.81,3.48,3.87,5.22,9.2,5.22,15.97,0,2.04-1.2,3.06-3.6,3.06h-28.62c.66,9.12,5.49,13.68,14.49,13.68,1.8,0,3.69-.23,5.67-.67,1.98-.45,3.9-1.27,5.76-2.47,1.26-.72,2.35-.97,3.29-.77,.93,.21,1.6,.72,2.03,1.53,.42,.81,.5,1.71,.22,2.7-.27,.99-.98,1.84-2.11,2.56-2.04,1.38-4.43,2.42-7.16,3.11-2.73,.69-5.33,1.04-7.79,1.04Zm-1.35-39.15c-3.78,0-6.78,1.17-9,3.51-2.22,2.34-3.57,5.46-4.05,9.36h24.57c-.18-4.08-1.26-7.24-3.24-9.49-1.98-2.25-4.74-3.38-8.28-3.38Z"/>
  </g>
  <g>
    <path class="cls-2" d="M324,1427.55c-4.5,0-8.39-.94-11.66-2.83-3.27-1.89-5.81-4.56-7.6-8.01-1.8-3.45-2.7-7.51-2.7-12.2,0-6.96,1.98-12.45,5.94-16.47,3.96-4.02,9.3-6.03,16.02-6.03,2.1,0,4.3,.32,6.61,.95,2.31,.63,4.46,1.67,6.44,3.1,.96,.6,1.51,1.37,1.67,2.3,.15,.93,0,1.8-.45,2.61-.45,.81-1.1,1.35-1.94,1.62-.84,.27-1.8,.11-2.88-.5-1.44-1.02-2.91-1.75-4.41-2.21-1.5-.45-2.94-.67-4.32-.67-4.26,0-7.55,1.34-9.85,4-2.31,2.67-3.46,6.47-3.46,11.38s1.15,8.78,3.46,11.57c2.31,2.79,5.59,4.18,9.85,4.18,1.38,0,2.8-.21,4.27-.63,1.47-.42,2.95-1.14,4.46-2.16,1.08-.6,2.02-.75,2.83-.45,.81,.3,1.41,.85,1.8,1.67,.39,.81,.51,1.68,.36,2.61-.15,.93-.71,1.7-1.67,2.29-1.92,1.38-4,2.37-6.25,2.97-2.25,.6-4.43,.9-6.52,.9Z"/>
    <path class="cls-2" d="M364.86,1427.55c-4.44,0-8.28-.93-11.52-2.79-3.24-1.86-5.75-4.48-7.52-7.88-1.77-3.39-2.66-7.42-2.66-12.1s.88-8.71,2.66-12.11c1.77-3.39,4.27-6.01,7.52-7.88,3.24-1.86,7.08-2.79,11.52-2.79s8.1,.93,11.34,2.79c3.24,1.86,5.76,4.49,7.56,7.88,1.8,3.39,2.7,7.42,2.7,12.11s-.9,8.72-2.7,12.1c-1.8,3.39-4.32,6.02-7.56,7.88-3.24,1.86-7.02,2.79-11.34,2.79Zm0-7.02c3.72,0,6.72-1.35,9-4.05,2.28-2.7,3.42-6.6,3.42-11.7s-1.14-8.98-3.42-11.66c-2.28-2.67-5.28-4-9-4s-6.81,1.34-9.09,4c-2.28,2.67-3.42,6.56-3.42,11.66s1.14,9,3.42,11.7c2.28,2.7,5.31,4.05,9.09,4.05Z"/>
    <path class="cls-2" d="M401.13,1427.37c-3,0-4.5-1.53-4.5-4.59v-36c0-3.06,1.47-4.59,4.41-4.59s4.41,1.53,4.41,4.59v3.33c1.5-2.64,3.56-4.65,6.17-6.03,2.61-1.38,5.54-2.07,8.77-2.07,10.38,0,15.57,5.88,15.57,17.64v23.13c0,3.06-1.5,4.59-4.5,4.59s-4.59-1.53-4.59-4.59v-22.59c0-3.78-.74-6.54-2.21-8.28-1.47-1.74-3.77-2.61-6.88-2.61-3.66,0-6.59,1.16-8.77,3.46-2.19,2.31-3.29,5.36-3.29,9.14v20.88c0,3.06-1.53,4.59-4.59,4.59Z"/>
    <path class="cls-2" d="M465.03,1427.37c-2.52,0-4.38-1.35-5.58-4.05l-15.03-34.92c-.72-1.62-.75-3.06-.09-4.32,.66-1.26,2.01-1.89,4.05-1.89,1.08,0,1.96,.27,2.65,.81,.69,.54,1.31,1.47,1.85,2.79l12.33,30.42,12.6-30.42c.54-1.32,1.15-2.25,1.84-2.79,.69-.54,1.67-.81,2.93-.81,1.62,0,2.73,.63,3.33,1.89,.6,1.26,.57,2.67-.09,4.23l-15.21,35.01c-1.14,2.7-3,4.05-5.58,4.05Z"/>
    <path class="cls-2" d="M514.62,1427.55c-7.2,0-12.87-2.02-17.01-6.08-4.14-4.05-6.21-9.58-6.21-16.6,0-4.5,.91-8.47,2.75-11.92,1.83-3.45,4.37-6.13,7.6-8.06,3.24-1.92,6.96-2.88,11.16-2.88,6.06,0,10.83,1.94,14.31,5.81,3.48,3.87,5.22,9.2,5.22,15.97,0,2.04-1.2,3.06-3.6,3.06h-28.62c.66,9.12,5.49,13.68,14.49,13.68,1.8,0,3.69-.23,5.67-.67,1.98-.45,3.9-1.27,5.76-2.48,1.26-.72,2.35-.97,3.29-.76,.93,.21,1.6,.72,2.02,1.53,.42,.81,.5,1.71,.23,2.7-.27,.99-.98,1.85-2.12,2.57-2.04,1.38-4.43,2.42-7.15,3.1-2.73,.69-5.33,1.04-7.79,1.04Zm-1.35-39.15c-3.78,0-6.78,1.17-9,3.51-2.22,2.34-3.57,5.46-4.05,9.36h24.57c-.18-4.08-1.26-7.24-3.24-9.49s-4.74-3.38-8.28-3.38Z"/>
    <path class="cls-2" d="M546.93,1427.37c-3.06,0-4.59-1.53-4.59-4.59v-36c0-3.06,1.47-4.59,4.41-4.59s4.41,1.53,4.41,4.59v3.87c1.2-2.7,3.02-4.77,5.45-6.21,2.43-1.44,5.38-2.28,8.87-2.52,2.22-.18,3.42,1.02,3.6,3.6,.24,2.64-1.05,4.08-3.87,4.32l-1.71,.18c-7.98,.78-11.97,4.89-11.97,12.33v20.43c0,3.06-1.53,4.59-4.59,4.59Z"/>
    <path class="cls-2" d="M590.85,1427.55c-2.64,0-5.37-.3-8.19-.9-2.82-.6-5.37-1.62-7.65-3.06-1.02-.6-1.65-1.35-1.89-2.25-.24-.9-.18-1.74,.18-2.52,.36-.78,.95-1.33,1.75-1.67,.81-.33,1.72-.23,2.75,.31,2.34,1.26,4.59,2.16,6.75,2.7s4.29,.81,6.39,.81c3.18,0,5.58-.57,7.2-1.71,1.62-1.14,2.43-2.67,2.43-4.59,0-1.56-.54-2.77-1.62-3.64-1.08-.87-2.7-1.54-4.86-2.03l-8.55-1.71c-7.56-1.56-11.34-5.46-11.34-11.7,0-4.14,1.65-7.44,4.95-9.9,3.3-2.46,7.62-3.69,12.96-3.69s10.05,1.32,13.95,3.96c.96,.6,1.53,1.34,1.71,2.21,.18,.87,.06,1.68-.36,2.43s-1.04,1.28-1.84,1.57c-.81,.3-1.76,.18-2.84-.36-1.8-1.08-3.6-1.88-5.4-2.39-1.8-.51-3.54-.76-5.22-.76-3.12,0-5.49,.58-7.11,1.75-1.62,1.17-2.43,2.75-2.43,4.73,0,3,1.98,4.92,5.94,5.76l8.55,1.71c3.9,.78,6.85,2.1,8.87,3.96,2.01,1.86,3.02,4.38,3.02,7.56,0,4.2-1.65,7.49-4.95,9.86-3.3,2.37-7.68,3.55-13.14,3.55Z"/>
    <path class="cls-2" d="M623.51,1373.01c-1.8,0-3.19-.45-4.18-1.35-.99-.9-1.49-2.16-1.49-3.78,0-3.42,1.89-5.13,5.67-5.13s5.67,1.71,5.67,5.13-1.89,5.13-5.67,5.13Zm0,54.27c-3,0-4.5-1.65-4.5-4.95v-35.1c0-3.24,1.5-4.86,4.5-4.86s4.59,1.62,4.59,4.86v35.1c0,3.3-1.53,4.95-4.59,4.95Z"/>
    <path class="cls-2" d="M659.96,1427.55c-4.44,0-8.28-.93-11.52-2.79-3.24-1.86-5.75-4.48-7.52-7.88-1.77-3.39-2.65-7.42-2.65-12.1s.88-8.71,2.65-12.11c1.77-3.39,4.28-6.01,7.52-7.88,3.24-1.86,7.08-2.79,11.52-2.79s8.1,.93,11.34,2.79c3.24,1.86,5.76,4.49,7.56,7.88,1.8,3.39,2.7,7.42,2.7,12.11s-.9,8.72-2.7,12.1c-1.8,3.39-4.32,6.02-7.56,7.88-3.24,1.86-7.02,2.79-11.34,2.79Zm0-7.02c3.72,0,6.72-1.35,9-4.05,2.28-2.7,3.42-6.6,3.42-11.7s-1.14-8.98-3.42-11.66c-2.28-2.67-5.28-4-9-4s-6.81,1.34-9.09,4c-2.28,2.67-3.42,6.56-3.42,11.66s1.14,9,3.42,11.7c2.28,2.7,5.31,4.05,9.09,4.05Z"/>
    <path class="cls-2" d="M696.23,1427.37c-3,0-4.5-1.53-4.5-4.59v-36c0-3.06,1.47-4.59,4.41-4.59s4.41,1.53,4.41,4.59v3.33c1.5-2.64,3.55-4.65,6.17-6.03,2.61-1.38,5.54-2.07,8.78-2.07,10.38,0,15.57,5.88,15.57,17.64v23.13c0,3.06-1.5,4.59-4.5,4.59s-4.59-1.53-4.59-4.59v-22.59c0-3.78-.74-6.54-2.21-8.28-1.47-1.74-3.77-2.61-6.88-2.61-3.66,0-6.59,1.16-8.78,3.46-2.19,2.31-3.28,5.36-3.28,9.14v20.88c0,3.06-1.53,4.59-4.59,4.59Z"/>
    <path class="cls-2" d="M758.96,1427.55c-2.64,0-5.37-.3-8.19-.9-2.82-.6-5.37-1.62-7.65-3.06-1.02-.6-1.65-1.35-1.89-2.25-.24-.9-.18-1.74,.18-2.52,.36-.78,.94-1.33,1.75-1.67,.81-.33,1.72-.23,2.75,.31,2.34,1.26,4.59,2.16,6.75,2.7,2.16,.54,4.29,.81,6.39,.81,3.18,0,5.58-.57,7.2-1.71,1.62-1.14,2.43-2.67,2.43-4.59,0-1.56-.54-2.77-1.62-3.64-1.08-.87-2.7-1.54-4.86-2.03l-8.55-1.71c-7.56-1.56-11.34-5.46-11.34-11.7,0-4.14,1.65-7.44,4.95-9.9,3.3-2.46,7.62-3.69,12.96-3.69s10.05,1.32,13.95,3.96c.96,.6,1.53,1.34,1.71,2.21,.18,.87,.06,1.68-.36,2.43-.42,.75-1.04,1.28-1.84,1.57-.81,.3-1.75,.18-2.83-.36-1.8-1.08-3.6-1.88-5.4-2.39-1.8-.51-3.54-.76-5.22-.76-3.12,0-5.49,.58-7.11,1.75s-2.43,2.75-2.43,4.73c0,3,1.98,4.92,5.94,5.76l8.55,1.71c3.9,.78,6.85,2.1,8.87,3.96,2.01,1.86,3.01,4.38,3.01,7.56,0,4.2-1.65,7.49-4.95,9.86-3.3,2.37-7.68,3.55-13.14,3.55Z"/>
  </g>
  <g>
    <path class="cls-1" d="M407.57,346.11c-7.6,0-14.16-1.6-19.68-4.79-5.52-3.19-9.8-7.7-12.84-13.53-3.04-5.83-4.56-12.69-4.56-20.6,0-11.75,3.34-21.03,10.03-27.82,6.69-6.79,15.71-10.18,27.06-10.18,3.55,0,7.27,.53,11.17,1.6,3.9,1.06,7.52,2.81,10.87,5.24,1.62,1.01,2.56,2.31,2.81,3.88,.25,1.57,0,3.04-.76,4.41-.76,1.37-1.85,2.28-3.27,2.74-1.42,.46-3.04,.18-4.86-.84-2.43-1.72-4.92-2.96-7.45-3.72-2.53-.76-4.97-1.14-7.3-1.14-7.2,0-12.74,2.26-16.64,6.76-3.9,4.51-5.85,10.92-5.85,19.23s1.95,14.82,5.85,19.53c3.9,4.71,9.45,7.07,16.64,7.07,2.33,0,4.74-.35,7.22-1.06,2.48-.71,4.99-1.92,7.52-3.65,1.82-1.01,3.42-1.27,4.79-.76,1.37,.51,2.38,1.44,3.04,2.81,.66,1.37,.86,2.84,.61,4.41-.25,1.57-1.19,2.86-2.81,3.88-3.24,2.33-6.76,4-10.56,5.02-3.8,1.01-7.47,1.52-11.02,1.52Z"/>
    <path class="cls-1" d="M479.16,346.11c-12.16,0-21.74-3.42-28.73-10.26-6.99-6.84-10.49-16.19-10.49-28.04,0-7.6,1.54-14.31,4.64-20.14,3.09-5.83,7.37-10.36,12.84-13.6,5.47-3.24,11.75-4.86,18.85-4.86,10.23,0,18.29,3.27,24.17,9.8,5.88,6.54,8.82,15.53,8.82,26.98,0,3.45-2.03,5.17-6.08,5.17h-48.34c1.11,15.4,9.27,23.1,24.47,23.1,3.04,0,6.23-.38,9.58-1.14,3.34-.76,6.59-2.15,9.73-4.18,2.13-1.22,3.98-1.65,5.55-1.29,1.57,.36,2.71,1.22,3.42,2.58,.71,1.37,.84,2.89,.38,4.56-.46,1.67-1.65,3.12-3.57,4.33-3.45,2.33-7.47,4.08-12.08,5.24-4.61,1.16-8.99,1.75-13.15,1.75Zm-2.28-66.12c-6.38,0-11.45,1.98-15.2,5.93-3.75,3.95-6.03,9.22-6.84,15.81h41.5c-.3-6.89-2.13-12.24-5.47-16.04-3.34-3.8-8.01-5.7-13.98-5.7Z"/>
    <path class="cls-1" d="M533.57,345.8c-5.07,0-7.6-2.58-7.6-7.75v-60.8c0-5.17,2.48-7.75,7.45-7.75s7.45,2.58,7.45,7.75v5.62c2.53-4.46,6-7.85,10.41-10.18,4.41-2.33,9.35-3.5,14.82-3.5,17.53,0,26.3,9.93,26.3,29.79v39.06c0,5.17-2.53,7.75-7.6,7.75s-7.75-2.58-7.75-7.75v-38.15c0-6.38-1.24-11.04-3.72-13.98-2.48-2.94-6.36-4.41-11.63-4.41-6.18,0-11.12,1.95-14.82,5.85-3.7,3.9-5.55,9.04-5.55,15.43v35.26c0,5.17-2.58,7.75-7.75,7.75Z"/>
    <path class="cls-1" d="M645.14,346.11c-9.32,0-16.26-2.38-20.82-7.14-4.56-4.76-6.84-11.65-6.84-20.67v-35.87h-9.12c-4.26,0-6.38-1.98-6.38-5.93s2.13-5.93,6.38-5.93h9.12v-15.66c0-5.17,2.58-7.75,7.75-7.75s7.6,2.58,7.6,7.75v15.66h17.78c4.26,0,6.38,1.98,6.38,5.93s-2.13,5.93-6.38,5.93h-17.78v34.66c0,5.37,1.14,9.42,3.42,12.16,2.28,2.74,6,4.1,11.17,4.1,1.82,0,3.39-.18,4.71-.53,1.32-.35,2.48-.58,3.5-.68,1.11,0,2.03,.38,2.74,1.14,.71,.76,1.06,2.2,1.06,4.33,0,1.62-.28,3.07-.84,4.33-.56,1.27-1.55,2.1-2.96,2.51-1.22,.51-2.86,.91-4.94,1.22-2.08,.3-3.93,.46-5.55,.46Z"/>
    <path class="cls-1" d="M676.75,345.8c-5.17,0-7.75-2.58-7.75-7.75v-60.8c0-5.17,2.48-7.75,7.45-7.75s7.45,2.58,7.45,7.75v6.54c2.03-4.56,5.09-8.06,9.2-10.49,4.1-2.43,9.09-3.85,14.97-4.26,3.75-.3,5.78,1.72,6.08,6.08,.4,4.46-1.77,6.89-6.54,7.3l-2.89,.3c-13.48,1.32-20.22,8.26-20.22,20.82v34.5c0,5.17-2.58,7.75-7.75,7.75Z"/>
  </g>
  <path id="CentrIcon" class="cls-4" d="M539.5,453c-157.41,0-285,127.59-285,285s127.59,285,285,285,285-127.59,285-285-127.59-285-285-285Zm0,427.5c-78.71,0-142.5-63.8-142.5-142.5s63.79-142.5,142.5-142.5,142.5,63.79,142.5,142.5h0c0,78.7-63.8,142.5-142.5,142.5Z"/>
</svg>