<?xml version="1.0" encoding="UTF-8"?><svg id="a" xmlns="http://www.w3.org/2000/svg" xmlns:xlink="http://www.w3.org/1999/xlink" viewBox="0 0 1080 2272"><defs><style>.c{letter-spacing:0em;}.d,.e{fill:#9f58f2;}.f{fill:#fff;font-size:152px;}.f,.e{font-family:Nunito-SemiBold, Nunito;}.g{letter-spacing:0em;}.h{letter-spacing:0em;}.i{fill:url(#b);}.j{fill:#0c0414;}.k{letter-spacing:0em;}.l{letter-spacing:0em;}.m{letter-spacing:0em;}.e{font-size:90px;}.n{fill:#22283d;}</style><linearGradient id="b" x1="1252.13" y1="2885.02" x2="1057.13" y2="2349.24" gradientTransform="translate(-615.13 -1879.13)" gradientUnits="userSpaceOnUse"><stop offset="0" stop-color="#3767e5"/><stop offset=".65" stop-color="#9f58f2"/></linearGradient></defs><rect class="j" width="1080" height="2272" rx="100" ry="100"/><circle class="d" cx="933.5" cy="114" r="11"/><circle class="d" cx="967.5" cy="114" r="11"/><circle class="d" cx="1001.5" cy="114" r="11"/><rect class="n" x="91.9" y="1111" width="895.2" height="560" rx="80" ry="80"/><path class="n" d="M987.73,2221v-400c0-44.18-35.82-80-80-80H172.52c-44.18,0-80,35.82-80,80v400c0,19.38,6.9,37.15,18.37,51H969.36c11.47-13.85,18.37-31.62,18.37-51Z"/><text class="f" transform="translate(364.1 344.74)"><tspan class="k" x="0" y="0">c</tspan><tspan x="69.46" y="0">entr</tspan></text><text class="e" transform="translate(298.26 1426.74)"><tspan class="h" x="0" y="0">c</tspan><tspan class="c" x="41.13" y="0">o</tspan><tspan class="g" x="91.98" y="0">n</tspan><tspan class="m" x="143.37" y="0">v</tspan><tspan class="c" x="189.36" y="0">e</tspan><tspan class="g" x="237.69" y="0">r</tspan><tspan class="c" x="270.81" y="0">sions</tspan></text><text class="e" transform="translate(392.58 2057.08)"><tspan x="0" y="0">finan</tspan><tspan class="l" x="204.39" y="0">c</tspan><tspan x="245.52" y="0">e</tspan></text><path class="i" d="M539.5,453c-157.41,0-285,127.59-285,285s127.59,285,285,285,285-127.59,285-285-127.59-285-285-285Zm0,427.5c-78.71,0-142.5-63.8-142.5-142.5s63.79-142.5,142.5-142.5,142.5,63.79,142.5,142.5h0c0,78.7-63.8,142.5-142.5,142.5Z"/></svg>