<?xml version="1.0" encoding="UTF-8"?><svg id="a" xmlns="http://www.w3.org/2000/svg" viewBox="0 0 3118.14 1142.14"><defs><style>.b{fill:#b524ea;}</style></defs><g><path class="b" d="M1238.66,822.07c-17.74,0-26.6-9.33-26.6-28V346.77c0-18.66,8.86-28,26.6-28,7.46,0,13.41,1.52,17.85,4.55,4.43,3.04,8.51,8.05,12.25,15.05l181.3,341.6,180.6-341.6c3.73-7,7.7-12.01,11.9-15.05,4.2-3.03,10.26-4.55,18.2-4.55,17.26,0,25.9,9.34,25.9,28v447.3c0,18.67-8.87,28-26.6,28s-26.6-9.33-26.6-28V431.47l-158.2,297.5c-3.27,6.07-6.65,10.39-10.15,12.95-3.5,2.57-8.52,3.85-15.05,3.85s-11.67-1.4-15.4-4.2c-3.74-2.8-7-7-9.8-12.6l-160.3-296.8v361.9c0,18.67-8.64,28-25.9,28Z"/><path class="b" d="M1908.55,823.47c-23.34,0-44.22-4.55-62.65-13.65-18.44-9.1-33.02-21.58-43.75-37.45-10.74-15.86-16.1-33.6-16.1-53.2,0-24.73,6.41-44.33,19.25-58.8,12.83-14.46,34.06-24.85,63.7-31.15,29.63-6.3,70.11-9.45,121.45-9.45h22.4v-21.7c0-28.93-5.95-49.81-17.85-62.65-11.9-12.83-30.92-19.25-57.05-19.25-16.34,0-32.79,2.1-49.35,6.3-16.57,4.2-33.72,10.97-51.45,20.3-7.94,4.2-14.59,5.02-19.95,2.45-5.37-2.56-9.1-6.76-11.2-12.6-2.1-5.83-2.1-11.9,0-18.2s6.65-11.08,13.65-14.35c20.06-10.26,40.25-17.73,60.55-22.4,20.3-4.66,39.55-7,57.75-7,43.86,0,76.41,10.74,97.65,32.2,21.23,21.47,31.85,54.84,31.85,100.1v189.7c0,19.6-8.64,29.4-25.9,29.4-18.2,0-27.3-9.8-27.3-29.4v-34.3c-8.87,20.07-22.52,35.94-40.95,47.6-18.44,11.66-40.02,17.5-64.75,17.5Zm9.1-42.7c28,0,50.86-9.68,68.6-29.05,17.73-19.36,26.6-43.98,26.6-73.85v-21h-21.7c-37.8,0-67.55,1.75-89.25,5.25-21.7,3.5-36.87,9.57-45.5,18.2-8.64,8.64-12.95,20.42-12.95,35.35,0,19.14,6.65,34.77,19.95,46.9,13.3,12.14,31.38,18.2,54.25,18.2Z"/><path class="b" d="M2201.15,822.07c-19.14,0-28.7-9.8-28.7-29.4V500.77c0-19.13,9.1-28.7,27.3-28.7s28,9.57,28,28.7v37.1c9.33-21.46,23.8-37.91,43.4-49.35,19.6-11.43,42.93-17.61,70-18.55,14.93-1.4,22.86,6.07,23.8,22.4,1.4,16.34-7,25.44-25.2,27.3l-11.2,1.4c-32.2,2.8-56.7,12.95-73.5,30.45s-25.2,41.42-25.2,71.75v169.4c0,19.6-9.57,29.4-28.7,29.4Z"/><path class="b" d="M2570.74,822.07c-16.34,0-28.47-9.1-36.4-27.3l-121.1-282.8c-4.67-10.73-4.9-20.06-.7-28,4.2-7.93,12.6-11.9,25.2-11.9s22.63,7.47,28.7,22.4l105.7,258.3,107.1-258.3c3.26-8.4,7-14.23,11.2-17.5,4.2-3.26,10.26-4.9,18.2-4.9,10.73,0,17.96,3.97,21.7,11.9,3.73,7.94,3.5,17.04-.7,27.3l-122.5,283.5c-7.47,18.2-19.6,27.3-36.4,27.3Z"/><path class="b" d="M2832.54,395.07c-24.74,0-37.1-11.66-37.1-35s12.36-34.3,37.1-34.3,37.1,11.44,37.1,34.3-12.37,35-37.1,35Zm0,425.6c-18.67,0-28-10.26-28-30.8V503.57c0-20.06,9.33-30.1,28-30.1s28.7,10.04,28.7,30.1v286.3c0,20.54-9.57,30.8-28.7,30.8Z"/><path class="b" d="M3070.54,823.47c-33.6,0-59.27-10.15-77-30.45-17.74-20.3-26.6-49.81-26.6-88.55V347.47c0-19.13,9.33-28.7,28-28.7s28.7,9.57,28.7,28.7v352.8c0,49.94,19.83,74.9,59.5,74.9,4.2,0,7.93-.23,11.2-.7,3.26-.46,6.53-.7,9.8-.7,5.13-.46,8.75,.7,10.85,3.5,2.1,2.8,3.15,8.4,3.15,16.8,0,15.87-7.94,24.96-23.8,27.3-3.74,.93-7.7,1.51-11.9,1.75-4.2,.23-8.17,.35-11.9,.35Z"/></g><path class="b" d="M504.83,45c5.26,0,10.44,1.39,14.99,4.02l429.83,248.05c9.26,5.34,15.01,15.3,15.01,25.98v496.04c0,10.69-5.75,20.64-15.01,25.98l-429.83,248.05c-4.55,2.63-9.74,4.02-14.99,4.02s-10.44-1.39-14.99-4.02L60.01,845.08c-9.26-5.34-15.01-15.3-15.01-25.98V323.05c0-10.69,5.75-20.64,15.01-25.98L489.84,49.02c4.55-2.63,9.74-4.02,14.99-4.02m0-45c-12.94,0-25.89,3.35-37.49,10.04L37.51,258.09C14.3,271.49,0,296.25,0,323.05v496.04c0,26.8,14.3,51.56,37.51,64.96l429.83,248.05c11.6,6.69,24.54,10.04,37.49,10.04s25.89-3.35,37.49-10.04l429.83-248.05c23.21-13.4,37.51-38.16,37.51-64.96V323.05c0-26.8-14.3-51.56-37.51-64.96L542.32,10.04c-11.6-6.69-24.54-10.04-37.49-10.04h0Z"/><path class="b" d="M291.87,823.21c-17.91,0-26.86-9.42-26.86-28.26V343.54c0-18.83,8.95-28.26,26.86-28.26,7.53,0,13.54,1.53,18.02,4.59,4.47,3.07,8.59,8.12,12.37,15.19l183.05,344.74,182.35-344.74c3.76-7.06,7.77-12.12,12.01-15.19,4.24-3.06,10.36-4.59,18.38-4.59,17.43,0,26.15,9.43,26.15,28.26v451.42c0,18.84-8.96,28.26-26.86,28.26s-26.86-9.42-26.86-28.26V429.02l-159.73,300.24c-3.3,6.13-6.71,10.49-10.25,13.07-3.53,2.59-8.6,3.89-15.2,3.89s-11.78-1.41-15.55-4.24c-3.78-2.83-7.07-7.06-9.89-12.72l-161.85-299.53v365.23c0,18.84-8.72,28.26-26.15,28.26Z"/></svg>