<svg id="Layer_1" data-name="Layer 1" xmlns="http://www.w3.org/2000/svg" xmlns:xlink="http://www.w3.org/1999/xlink" viewBox="0 0 1000 1000"><defs><style>.cls-1{fill:none;}.cls-2{fill:url(#linear-gradient);}</style><linearGradient id="linear-gradient" x1="671.05" y1="969.95" x2="328.95" y2="30.05" gradientUnits="userSpaceOnUse"><stop offset="0" stop-color="#3767e5"/><stop offset="0.65" stop-color="#9f58f2"/></linearGradient></defs><rect class="cls-1" width="1000" height="1000"/><path class="cls-2" d="M500,1000c259.09,0,472.27-197.27,497.73-450,2.72-26.82-18.64-50-45.46-50-23.18,0-42.72,17.27-45,40-20,207.27-195,369.09-407.27,369.09-141.82,0-266.82-72.27-340-181.82h67.27a45.46,45.46,0,1,0,0-90.91H45.45A45.59,45.59,0,0,0,0,681.82V863.64a45.46,45.46,0,0,0,90.91,0V787.73C181.36,915.91,330.91,1000,500,1000ZM500,0C240.91,0,27.73,197.27,2.27,450,0,476.82,20.91,500,47.73,500c23.18,0,42.72-17.27,45-40,20-207.27,195-369.09,407.27-369.09,141.82,0,266.82,72.27,340,181.82H772.73a45.46,45.46,0,1,0,0,90.91H954.55A45.59,45.59,0,0,0,1000,318.18V136.36a45.46,45.46,0,0,0-90.91,0v75.91C818.64,84.09,669.09,0,500,0Z"/></svg>