<?xml version="1.0" encoding="UTF-8"?>
<svg id="Layer_2" data-name="Layer 2" xmlns="http://www.w3.org/2000/svg" xmlns:xlink="http://www.w3.org/1999/xlink" viewBox="0 0 1832.87 1089.71">
  <defs>
    <style>
      .cls-1 {
        fill: #fff;
      }

      .cls-2 {
        fill: url(#linear-gradient-5);
      }

      .cls-3 {
        fill: #9f58f2;
      }

      .cls-4 {
        fill: url(#linear-gradient);
      }

      .cls-5 {
        fill: #222;
      }

      .cls-6 {
        fill: #313131;
      }

      .cls-7 {
        fill: url(#linear-gradient-2);
      }

      .cls-8 {
        fill: #0c0414;
      }

      .cls-9 {
        fill: url(#linear-gradient-4);
      }

      .cls-10 {
        fill: url(#linear-gradient-3);
      }

      .cls-11 {
        fill: #191919;
      }

      .cls-12 {
        fill: #141f4e;
      }

      .cls-13 {
        fill: #3e58a6;
      }

      .cls-14 {
        fill: #22283d;
      }
    </style>
    <linearGradient id="linear-gradient" x1="208.04" y1="956.19" x2="1762.92" y2="58.48" gradientTransform="matrix(1, 0, 0, 1, 0, 0)" gradientUnits="userSpaceOnUse">
      <stop offset=".04" stop-color="#324788"/>
      <stop offset="1" stop-color="#314685"/>
    </linearGradient>
    <linearGradient id="linear-gradient-2" x1="6.14" y1="530.65" x2="1825.82" y2="530.65" gradientTransform="matrix(1, 0, 0, 1, 0, 0)" gradientUnits="userSpaceOnUse">
      <stop offset=".04" stop-color="#6e97ff"/>
      <stop offset="1" stop-color="#8fc3ff"/>
    </linearGradient>
    <linearGradient id="linear-gradient-3" x1="1808.36" y1="2397.6" x2="1714.84" y2="2140.67" gradientTransform="translate(-615.13 -1879.13)" gradientUnits="userSpaceOnUse">
      <stop offset="0" stop-color="#3767e5"/>
      <stop offset=".65" stop-color="#9f58f2"/>
    </linearGradient>
    <linearGradient id="linear-gradient-4" x1="223.37" y1="895.58" x2="292.88" y2="935.71" gradientTransform="matrix(1, 0, 0, 1, 0, 0)" gradientUnits="userSpaceOnUse">
      <stop offset=".04" stop-color="#182558"/>
      <stop offset="1" stop-color="#111b43"/>
    </linearGradient>
    <linearGradient id="linear-gradient-5" x1="234.71" y1="895.28" x2="293.99" y2="929.51" gradientTransform="matrix(1, 0, 0, 1, 0, 0)" gradientUnits="userSpaceOnUse">
      <stop offset=".04" stop-color="#4560b4"/>
      <stop offset="1" stop-color="#314685"/>
    </linearGradient>
  </defs>
  <path id="Base" class="cls-4" d="M.38,731.02c2.43-16.57,4.72-28.35,17.77-36.45S1205.25,30.38,1211.33,26.78s29.7-15.75,43.65-20.25,24.08-6.53,36.45-6.53,24.07,1.8,31.95,5.62,430.43,254.7,445.95,264.15,31.73,20.47,38.92,29.47c7.2,9,18.45,22.5,21.83,36.9s4.05,27.9,0,38.93c-4.05,11.02-10.12,19.57-14.85,23.4s-26.55,16.43-36,21.82S638.48,1058.85,627.9,1064.47s-30.15,17.1-50.17,21.37-30.6,4.73-48.15,2.7-31.72-6.75-45.9-14.62c-14.17-7.88-424.8-253.57-433.35-259.87s-20.25-14.85-26.55-22.73-13.05-18.9-16.88-28.35-8.23-20.37-6.53-31.95Z"/>
  <path id="Buffer" class="cls-7" d="M28.83,688.49c-10.9,7.28-33.1,22.13-17.05,35.93,16.05,13.8,27.6,21,35.85,26.1s125.1,76.01,125.1,76.01c0,0-3.71,9.11-5.18,15.19s-3.71,18.9-2.48,26.77,5.35,18.24,5.35,18.24l15.42,9.26s-6.25-8.82-6.14-22.77,.23-18.56,2.93-25.99c2.7-7.43,4.73-12.04,4.73-12.04l283.72,169.2s37.35,22.73,50.62,28.13,37.57,14.62,51.98,15.3,30.6-.23,41.85-3.83,17.4-7.27,17.4-7.27c0,0,2.48,6.9,2.25,13.8s-1.55,10.78-1.55,10.78l16.36-9.13s1.23-6.15,1.01-10.87-2.77-12.75-2.77-12.75L1786.58,390.98s2.77,5.7,2.77,12.22-1.96,12.4-1.96,12.4l15.6-9.2s1.36-7.85,.99-13.4-2.77-10.8-2.77-10.8c0,0,11.92-9.38,15.98-16.05,4.05-6.68,8.32-16.43,8.47-22.88,.15-6.45,1.41-15.81-6.31-29.47-7.72-13.66-21-24.47-26.32-28.3-5.32-3.83-91.58-56.15-98.03-59.99-6.45-3.83-344-203.83-350.97-207.92s-18.69-11.85-24.39-13.54c-5.7-1.69-13.58-4.15-26.74-4.05-13.16,.1-19.36,1.3-25.5,2.94-6.15,1.65-16.75,4.73-24.94,8.42-8.19,3.69-12.33,5.2-22.31,10.63C1210.16,27.44,28.83,688.49,28.83,688.49Z"/>
  <path id="Screen" d="M49.2,678.26c-9.45,5.85-16.99,10.01-21.49,13.5s-18.23,12.71-6.41,22.84,30.6,24.53,40.95,31.05,419.85,251.1,426.6,254.92,37.8,19.57,46.8,23.17,20.25,8.78,30.38,11.03,23.85,4.95,33.98,3.6,25.2-6.52,34.65-11.7S1771.88,390.08,1779.53,386.03s18.15-10.95,24-18.45c5.85-7.5,8.55-12.45,10.05-16.5s3-13.65,2.85-18.9-1.5-13.95-3.6-18-8.55-14.55-12-18.15-20.85-16.35-26.85-19.8S1350.38,21.68,1341.68,17.03s-21.45-10.65-30-12.3-15.6-2.7-22.8-2.25-17.7,1.35-26.55,4.05c-8.85,2.7-26.25,9-31.5,11.85S49.2,678.26,49.2,678.26Z"/>
  <g id="Panel">
    <path id="Background" class="cls-8" d="M75.67,732.46c-8.02-5.48-26.49-16.31-28.51-18.19s-22.46-15.08,15.8-34.02c3.32-1.64,1142.7-639.3,1143.82-639.75s26.1-13.5,32.4-15.98c6.3-2.47,19.95-7.65,26.92-8.92s17.78-2.32,23.03-2.1,17.17,1.65,23.1,4.35,17.17,8.47,22.88,11.92c5.7,3.45,426.45,255.83,430.05,258.08,3.6,2.25,19.05,12.75,22.2,16.5s9.75,10.11,10.8,19.45c1.05,9.35-.75,17.52-2.55,21.16s-11.4,15.79-15.3,18.79-21.3,13.35-30.45,18.3S638.65,1003.2,635.2,1005.3s-18.15,9.9-22.65,11.7-10.95,4.65-18.6,5.55-13.35,.3-17.25,0-16.35-4.2-22.2-6.3-27.9-12.45-37.2-16.95S79.74,735.36,75.67,732.46"/>
    <path id="OthersDot1" class="cls-3" d="M1702.43,322.05c3.38-1.89,3.57-4.95,.43-6.84-3.14-1.89-8.43-1.89-11.81,0-3.38,1.89-3.57,4.95-.43,6.84,3.14,1.89,8.43,1.89,11.81,0Z"/>
    <path id="OthersDot2" class="cls-3" d="M1720.02,332.63c3.38-1.89,3.57-4.95,.43-6.84-3.14-1.89-8.43-1.89-11.81,0s-3.57,4.95-.43,6.84c3.14,1.89,8.43,1.89,11.81,0Z"/>
    <path id="OthersDot3" class="cls-3" d="M1737.61,343.21c3.38-1.89,3.57-4.95,.43-6.84-3.14-1.89-8.43-1.89-11.81,0-3.38,1.89-3.57,4.95-.43,6.84,3.14,1.89,8.43,1.89,11.81,0Z"/>
    <path id="FinanceButton" class="cls-14" d="M555.01,989.23l221.68-123.89c24.5-13.69,25.9-35.93,3.12-49.68l-378.65-228.53c-22.74-13.72-60.99-13.75-85.45-.06l-221.29,123.89c-10.72,6-17,13.64-18.76,21.49l441.64,266.84c13.57-.72,26.97-4.07,37.71-10.07Z"/>
    <path id="ConversionsButton" class="cls-14" d="M818.31,793.78l-378.7-228.53c-22.74-13.72-21.34-35.95,3.12-49.65l221.58-124.05c24.49-13.71,62.79-13.7,85.56,.02l379.15,228.54c22.8,13.74,21.4,36-3.13,49.71l-221.97,124.05c-24.51,13.7-62.84,13.65-85.61-.09Z"/>
    <g id="FinanceText">
      <path class="cls-3" d="M346.08,757.84c-1.57-.95-1.51-1.9,.18-2.85l18.23-10.2-2.59-1.57c-1.27-.76-1.25-1.51,.04-2.23,1.3-.72,2.58-.71,3.84,.06l2.59,1.57,.45-.25c3.22-1.8,6.42-2.73,9.6-2.78,3.18-.05,6.35,.7,9.52,2.27l1.49,.78c.81,.37,1.2,.76,1.18,1.17-.03,.41-.28,.77-.76,1.07-.49,.31-1.05,.5-1.69,.57-.65,.07-1.23-.01-1.76-.25l-1.35-.7c-1.86-.97-3.67-1.42-5.42-1.36-1.75,.06-3.56,.62-5.42,1.66l-1.15,.64,12.04,7.27c1.57,.95,1.47,1.93-.33,2.93l-19.18,10.73c-1.83,1.02-3.53,1.06-5.1,.11s-1.4-1.91,.42-2.93l17.99-10.06-9.73-5.87-18.23,10.2c-1.69,.95-3.31,.96-4.86,.02Zm44.54-8.11c-1.88-1.14-1.88-2.24,.01-3.29s3.78-1.02,5.67,.12,1.88,2.24-.02,3.3-3.78,1.02-5.66-.12Z"/>
      <path class="cls-3" d="M371.64,773.28c-1.54-.93-1.47-1.87,.23-2.82l19.93-11.15c1.69-.95,3.3-.97,4.81-.05s1.42,1.84-.27,2.79l-1.84,1.03c2.23-.35,4.4-.33,6.51,.05,2.11,.38,3.99,1.08,5.66,2.09,5.34,3.23,4.76,6.66-1.75,10.3l-12.81,7.16c-1.69,.95-3.31,.95-4.86,.02s-1.52-1.9,.18-2.85l12.51-7c2.09-1.17,3.24-2.25,3.45-3.25,.21-1-.49-1.98-2.1-2.95-1.88-1.14-4.03-1.69-6.43-1.65-2.41,.03-4.66,.64-6.75,1.81l-11.56,6.47c-1.69,.95-3.33,.95-4.9,0Z"/>
      <path class="cls-3" d="M403.13,792.41c-1.58-.95-2.65-1.99-3.22-3.1-.57-1.12-.65-2.21-.25-3.28,.4-1.07,1.32-2,2.75-2.8,1.79-1,3.63-1.54,5.51-1.6,1.88-.06,4.03,.37,6.46,1.29,2.43,.92,5.31,2.39,8.64,4.41l1.58,.95,1.3-.72c1.89-1.06,2.88-2.04,2.97-2.96,.09-.91-.72-1.88-2.41-2.91-.99-.6-2.15-1.14-3.48-1.64-1.33-.49-2.88-.91-4.66-1.25-.98-.21-1.56-.5-1.75-.88-.19-.38-.1-.76,.24-1.13,.34-.37,.87-.65,1.59-.84,.72-.19,1.5-.18,2.35,.03,2.02,.45,3.86,.99,5.5,1.61,1.64,.63,3.05,1.29,4.23,2,3.09,1.86,4.58,3.69,4.49,5.46-.1,1.78-1.82,3.61-5.18,5.48l-12.81,7.16c-1.69,.95-3.27,.98-4.72,.11s-1.38-1.82,.32-2.76l1.84-1.03c-1.95,.44-3.91,.54-5.88,.27-1.97-.26-3.77-.89-5.41-1.88Zm4.51-1.45c1.67,1.01,3.69,1.49,6.06,1.46,2.37-.03,4.52-.59,6.45-1.67l1.35-.75-1.53-.92c-2.25-1.36-4.14-2.36-5.65-3.01-1.51-.64-2.82-.98-3.9-1-1.09-.02-2.11,.24-3.08,.78-1.26,.71-1.88,1.52-1.86,2.44,.02,.92,.74,1.81,2.16,2.67Z"/>
      <path class="cls-3" d="M423.19,804.41c-1.54-.93-1.47-1.87,.23-2.82l19.93-11.15c1.69-.95,3.3-.96,4.81-.05s1.42,1.84-.27,2.79l-1.84,1.03c2.23-.35,4.4-.34,6.51,.05,2.11,.38,4,1.08,5.66,2.09,5.34,3.23,4.76,6.66-1.75,10.3l-12.81,7.16c-1.69,.95-3.31,.96-4.86,.02s-1.52-1.9,.18-2.85l12.51-7c2.09-1.17,3.24-2.25,3.45-3.25,.21-1-.49-1.98-2.1-2.95-1.88-1.14-4.03-1.69-6.44-1.65-2.41,.03-4.66,.64-6.75,1.81l-11.56,6.47c-1.69,.95-3.33,.95-4.9,0Z"/>
      <path class="cls-3" d="M457.42,825.2c-2.32-1.4-3.79-2.9-4.43-4.5-.64-1.6-.46-3.22,.52-4.84,.98-1.63,2.77-3.17,5.36-4.62,3.85-2.16,7.91-3.24,12.18-3.25,4.26-.01,8.13,1.02,11.59,3.11,1.08,.65,2.04,1.44,2.88,2.35,.84,.91,1.37,1.9,1.59,2.96,.16,.48,.02,.89-.41,1.23-.44,.33-1,.56-1.68,.67-.68,.11-1.31,.08-1.89-.1-.58-.18-.99-.53-1.21-1.05-.18-.76-.53-1.45-1.05-2.05-.52-.61-1.14-1.12-1.85-1.55-2.19-1.32-4.62-1.93-7.29-1.82-2.67,.11-5.37,.93-8.09,2.45-2.73,1.52-4.26,3.08-4.62,4.66-.36,1.58,.56,3.03,2.76,4.36,.71,.43,1.56,.81,2.55,1.13,.99,.33,2.15,.57,3.49,.72,.89,.15,1.46,.4,1.71,.74,.25,.34,.25,.7,0,1.08-.25,.37-.67,.68-1.26,.92-.59,.24-1.3,.31-2.13,.19-1.75-.17-3.37-.51-4.86-1.02s-2.78-1.1-3.86-1.75Z"/>
      <path class="cls-3" d="M479.24,838.38c-3.71-2.24-5.5-4.63-5.39-7.17,.11-2.54,2.11-4.9,6-7.07,2.49-1.39,5.16-2.34,8.02-2.84,2.85-.5,5.64-.54,8.38-.13s5.18,1.27,7.34,2.58c3.12,1.88,4.5,3.97,4.15,6.25-.35,2.28-2.41,4.47-6.16,6.57-1.13,.63-2.31,.57-3.55-.17l-14.73-8.9c-4.71,3.03-4.75,5.94-.12,8.74,.93,.56,2.02,1.08,3.29,1.55,1.27,.48,2.71,.82,4.34,1.02,1.05,.17,1.75,.43,2.12,.78,.36,.35,.43,.72,.2,1.1-.23,.38-.69,.68-1.38,.91-.69,.22-1.52,.27-2.51,.14-1.82-.21-3.62-.63-5.4-1.26-1.79-.64-3.31-1.34-4.58-2.1Zm20.99-12.54c-1.95-1.18-4.14-1.75-6.58-1.71-2.44,.03-4.86,.58-7.27,1.64l12.65,7.64c2.17-1.32,3.36-2.64,3.59-3.95,.23-1.31-.57-2.52-2.39-3.62Z"/>
    </g>
    <g id="ConversionsText">
      <path class="cls-3" d="M652.78,537.02c-2.32-1.4-3.8-2.9-4.43-4.5-.64-1.6-.46-3.22,.52-4.85,.98-1.63,2.77-3.17,5.37-4.62,3.86-2.16,7.92-3.25,12.19-3.26,4.27-.02,8.13,1.02,11.6,3.11,1.08,.65,2.04,1.44,2.88,2.35,.84,.91,1.37,1.9,1.59,2.96,.16,.48,.02,.89-.41,1.23-.44,.33-1,.56-1.68,.67-.68,.11-1.31,.08-1.9-.1-.58-.18-.99-.53-1.21-1.05-.18-.76-.53-1.45-1.05-2.05s-1.14-1.12-1.85-1.55c-2.2-1.32-4.63-1.93-7.3-1.82-2.67,.11-5.37,.93-8.09,2.45-2.73,1.53-4.27,3.08-4.62,4.66-.36,1.58,.56,3.04,2.76,4.36,.71,.43,1.56,.81,2.55,1.13,.99,.33,2.15,.57,3.49,.71,.89,.15,1.46,.4,1.71,.74,.25,.35,.25,.7,0,1.08-.25,.37-.67,.68-1.26,.92-.59,.24-1.3,.31-2.13,.19-1.75-.17-3.38-.51-4.87-1.02-1.49-.51-2.78-1.1-3.86-1.75Z"/>
      <path class="cls-3" d="M673.83,549.71c-2.29-1.38-3.75-2.86-4.39-4.44-.64-1.58-.48-3.18,.49-4.78,.97-1.6,2.75-3.13,5.34-4.58,2.59-1.45,5.29-2.43,8.08-2.93,2.79-.5,5.54-.54,8.24-.11,2.7,.43,5.19,1.33,7.48,2.71,2.23,1.34,3.66,2.81,4.3,4.39,.64,1.58,.48,3.18-.47,4.79-.95,1.61-2.72,3.14-5.32,4.59-2.59,1.45-5.29,2.42-8.1,2.92-2.81,.49-5.56,.52-8.26,.09-2.7-.43-5.16-1.32-7.39-2.66Zm3.89-2.18c1.92,1.16,4.21,1.67,6.88,1.54,2.67-.13,5.42-.98,8.25-2.57,2.83-1.58,4.39-3.14,4.7-4.68,.3-1.54-.5-2.88-2.42-4.04s-4.25-1.7-6.9-1.58c-2.66,.12-5.4,.97-8.22,2.55-2.83,1.58-4.4,3.14-4.72,4.69-.32,1.55,.49,2.91,2.44,4.08Z"/>
      <path class="cls-3" d="M692.62,560.93c-1.55-.93-1.47-1.87,.23-2.82l19.95-11.16c1.7-.95,3.3-.97,4.82-.05,1.51,.91,1.42,1.84-.27,2.79l-1.85,1.03c2.24-.35,4.41-.34,6.52,.05,2.11,.38,4,1.08,5.67,2.09,5.35,3.23,4.76,6.66-1.76,10.31l-12.82,7.17c-1.7,.95-3.32,.96-4.86,.02-1.58-.95-1.52-1.9,.18-2.85l12.52-7.01c2.1-1.17,3.25-2.26,3.45-3.25,.21-1-.49-1.98-2.1-2.95-1.89-1.14-4.03-1.69-6.44-1.65-2.41,.04-4.66,.64-6.76,1.81l-11.57,6.48c-1.7,.95-3.33,.95-4.91,0Z"/>
      <path class="cls-3" d="M725.54,580.79c-1.3-.78-1.51-1.78-.63-2.99l11.61-15.5c.53-.73,1.31-1.18,2.35-1.37,1.04-.19,2.08,.04,3.13,.67,.56,.34,.86,.69,.92,1.08,.06,.38-.14,.86-.6,1.44l-10.51,13.27,23.36-5.52c1.01-.24,1.84-.34,2.5-.29,.65,.05,1.31,.27,1.96,.66,.83,.5,1.06,1.04,.67,1.62-.39,.58-1.19,1-2.39,1.28l-27.25,6.13c-2.08,.48-3.79,.32-5.12-.48Z"/>
      <path class="cls-3" d="M751,596.26c-3.71-2.24-5.51-4.63-5.4-7.17,.11-2.54,2.11-4.9,6-7.08,2.49-1.4,5.17-2.34,8.03-2.84,2.86-.5,5.65-.55,8.39-.13,2.73,.41,5.18,1.27,7.35,2.58,3.12,1.88,4.51,3.97,4.16,6.25-.35,2.28-2.41,4.47-6.17,6.58-1.13,.63-2.32,.58-3.55-.17l-14.75-8.9c-4.72,3.03-4.76,5.95-.12,8.75,.93,.56,2.03,1.08,3.3,1.55,1.27,.48,2.72,.82,4.34,1.02,1.05,.17,1.75,.43,2.12,.78,.36,.35,.43,.72,.2,1.1-.23,.38-.69,.68-1.38,.91-.69,.22-1.53,.27-2.51,.14-1.82-.21-3.62-.63-5.41-1.26-1.79-.63-3.32-1.33-4.59-2.1Zm21.01-12.56c-1.95-1.18-4.14-1.74-6.58-1.71-2.44,.04-4.87,.58-7.28,1.64l12.66,7.64c2.17-1.32,3.37-2.64,3.59-3.95,.23-1.31-.57-2.52-2.4-3.62Z"/>
      <path class="cls-3" d="M767.75,606.24c-1.58-.95-1.52-1.9,.18-2.85l19.96-11.16c1.7-.95,3.3-.97,4.82-.05s1.43,1.85-.27,2.79l-2.15,1.2c2.12-.46,4.2-.54,6.25-.23,2.05,.31,4.04,.97,5.97,1.97,1.24,.63,1.2,1.38-.14,2.24-1.34,.89-2.8,.94-4.39,.14l-.98-.48c-4.55-2.24-8.88-2.2-13.01,.1l-11.33,6.34c-1.7,.95-3.33,.95-4.91,0Z"/>
      <path class="cls-3" d="M790.28,619.95c-1.36-.82-2.6-1.76-3.72-2.83-1.12-1.06-1.87-2.17-2.25-3.33-.19-.5-.1-.93,.27-1.29,.37-.35,.87-.6,1.49-.73,.62-.13,1.23-.12,1.83,.03,.6,.15,1.01,.47,1.24,.95,.51,1.12,1.17,2.1,1.98,2.94,.81,.84,1.76,1.58,2.84,2.24,1.64,.99,3.19,1.56,4.66,1.71,1.47,.15,2.73-.07,3.8-.67,.86-.48,1.26-1.03,1.19-1.63-.07-.61-.54-1.32-1.38-2.14l-3.46-3.19c-3.03-2.83-2.82-5.22,.64-7.15,2.3-1.28,4.97-1.79,8.04-1.53,3.06,.26,5.97,1.22,8.73,2.88,2.78,1.68,4.45,3.53,5,5.56,.16,.48,.05,.89-.34,1.22-.39,.33-.9,.54-1.53,.64-.63,.1-1.24,.07-1.82-.09-.58-.16-1-.49-1.26-.99-.33-.89-.82-1.7-1.46-2.42-.65-.72-1.4-1.34-2.27-1.86-1.61-.97-3.15-1.53-4.64-1.67-1.48-.14-2.77,.1-3.87,.71-1.66,.93-1.71,2.14-.13,3.63l3.46,3.19c1.58,1.45,2.37,2.78,2.37,3.98,0,1.2-.88,2.3-2.64,3.28-2.33,1.3-5,1.81-8.02,1.52-3.02-.29-5.93-1.29-8.74-2.98Z"/>
      <path class="cls-3" d="M837.37,613.2c-.93-.56-1.4-1.13-1.41-1.72-.01-.59,.43-1.13,1.33-1.63,1.9-1.06,3.82-1,5.77,.17,1.95,1.18,1.97,2.29,.08,3.35s-3.82,1-5.77-.17Zm-30.09,16.83c-1.55-.93-1.4-1.91,.43-2.93l19.46-10.88c1.8-1,3.47-1.04,5.01-.11,1.58,.95,1.47,1.93-.33,2.93l-19.46,10.88c-1.83,1.02-3.53,1.06-5.11,.11Z"/>
      <path class="cls-3" d="M825.91,641.44c-2.29-1.38-3.75-2.86-4.39-4.45-.64-1.58-.48-3.18,.49-4.78,.97-1.6,2.75-3.13,5.34-4.58s5.29-2.43,8.08-2.93c2.79-.5,5.54-.54,8.24-.11,2.7,.43,5.2,1.34,7.49,2.72s3.66,2.81,4.3,4.39c.64,1.58,.48,3.18-.47,4.79-.95,1.61-2.73,3.14-5.32,4.59-2.6,1.45-5.3,2.42-8.1,2.91-2.81,.49-5.56,.52-8.26,.09-2.7-.43-5.17-1.32-7.39-2.66Zm3.89-2.18c1.92,1.16,4.21,1.67,6.89,1.54,2.67-.13,5.42-.98,8.25-2.57,2.83-1.58,4.39-3.14,4.7-4.68,.3-1.54-.5-2.88-2.42-4.04-1.95-1.18-4.25-1.7-6.91-1.58-2.66,.12-5.4,.97-8.23,2.55-2.83,1.58-4.4,3.15-4.73,4.69-.32,1.55,.49,2.91,2.44,4.08Z"/>
      <path class="cls-3" d="M844.71,652.66c-1.55-.93-1.47-1.87,.23-2.82l19.97-11.16c1.7-.95,3.3-.97,4.82-.05,1.52,.91,1.43,1.85-.27,2.79l-1.85,1.03c2.24-.35,4.41-.34,6.52,.05,2.11,.38,4,1.08,5.67,2.09,5.35,3.23,4.77,6.67-1.76,10.31l-12.83,7.17c-1.7,.95-3.32,.96-4.87,.02s-1.52-1.9,.18-2.85l12.53-7.01c2.1-1.17,3.25-2.26,3.46-3.25,.21-1-.49-1.98-2.1-2.95-1.89-1.14-4.04-1.69-6.45-1.65-2.41,.04-4.66,.64-6.76,1.81l-11.58,6.48c-1.7,.95-3.33,.95-4.91,0Z"/>
      <path class="cls-3" d="M876.95,672.23c-1.36-.82-2.6-1.76-3.72-2.83-1.12-1.06-1.87-2.17-2.25-3.33-.19-.5-.1-.93,.27-1.29,.37-.35,.87-.6,1.49-.73,.62-.13,1.23-.12,1.83,.03,.6,.15,1.01,.47,1.24,.95,.51,1.12,1.17,2.1,1.98,2.94,.81,.84,1.76,1.59,2.84,2.24,1.64,.99,3.19,1.56,4.66,1.71,1.47,.15,2.73-.07,3.8-.67,.87-.48,1.26-1.03,1.19-1.63-.07-.61-.54-1.32-1.38-2.14l-3.46-3.19c-3.03-2.83-2.82-5.22,.64-7.15,2.3-1.28,4.98-1.79,8.04-1.53,3.07,.26,5.98,1.22,8.73,2.89,2.78,1.68,4.45,3.53,5,5.57,.16,.48,.05,.89-.34,1.22-.39,.33-.9,.54-1.53,.64-.63,.1-1.24,.07-1.82-.09-.58-.16-1.01-.49-1.26-.99-.33-.89-.82-1.7-1.46-2.42-.65-.72-1.4-1.34-2.27-1.86-1.61-.97-3.16-1.53-4.64-1.67s-2.78,.1-3.87,.71c-1.66,.93-1.71,2.14-.13,3.63l3.46,3.19c1.58,1.45,2.37,2.78,2.37,3.99,0,1.2-.88,2.3-2.64,3.28-2.33,1.3-5,1.81-8.02,1.52-3.02-.29-5.93-1.29-8.75-2.98Z"/>
    </g>
    <g id="Title">
      <path class="cls-1" d="M1295.91,227.25c-3.92-2.36-6.43-4.9-7.51-7.61-1.08-2.71-.79-5.44,.88-8.2,1.67-2.76,4.7-5.36,9.09-7.82,6.53-3.65,13.41-5.5,20.63-5.53,7.23-.03,13.77,1.72,19.63,5.24,1.83,1.1,3.46,2.42,4.88,3.97,1.42,1.54,2.32,3.21,2.7,5.01,.27,.82,.04,1.51-.7,2.08-.74,.57-1.69,.94-2.84,1.13s-2.22,.13-3.21-.17c-.99-.3-1.67-.89-2.05-1.77-.3-1.29-.89-2.45-1.78-3.47-.89-1.02-1.93-1.9-3.14-2.62-3.72-2.24-7.84-3.26-12.35-3.07-4.52,.19-9.09,1.58-13.7,4.16-4.62,2.58-7.23,5.21-7.83,7.89-.6,2.68,.95,5.13,4.67,7.37,1.2,.72,2.64,1.36,4.32,1.91,1.67,.55,3.65,.95,5.91,1.2,1.5,.25,2.47,.67,2.9,1.25,.42,.58,.43,1.19,0,1.82-.42,.63-1.13,1.15-2.13,1.56-1,.41-2.21,.52-3.61,.33-2.97-.28-5.72-.86-8.24-1.72-2.52-.87-4.7-1.85-6.54-2.95Z"/>
      <path class="cls-1" d="M1332.88,249.5c-6.28-3.78-9.33-7.82-9.14-12.12,.19-4.3,3.58-8.29,10.16-11.98,4.22-2.36,8.75-3.97,13.58-4.82,4.83-.85,9.56-.93,14.19-.24,4.63,.69,8.77,2.14,12.44,4.35,5.29,3.18,7.63,6.7,7.04,10.56-.6,3.86-4.08,7.57-10.44,11.13-1.91,1.07-3.92,.98-6.01-.28l-24.97-15.02c-7.98,5.13-8.05,10.06-.2,14.79,1.57,.94,3.43,1.82,5.58,2.62,2.15,.8,4.6,1.38,7.35,1.72,1.77,.28,2.97,.72,3.58,1.32,.61,.6,.72,1.22,.33,1.87-.39,.65-1.17,1.16-2.34,1.54-1.16,.38-2.58,.46-4.25,.24-3.08-.35-6.13-1.06-9.16-2.13-3.03-1.07-5.62-2.25-7.76-3.54Zm35.56-21.26c-3.3-1.98-7.01-2.95-11.14-2.88-4.13,.06-8.24,.99-12.32,2.79l21.43,12.9c3.67-2.24,5.7-4.46,6.08-6.69,.38-2.22-.97-4.26-4.06-6.12Z"/>
      <path class="cls-1" d="M1361.15,266.32c-2.62-1.58-2.49-3.17,.38-4.77l33.79-18.9c2.87-1.61,5.59-1.64,8.16-.09,2.56,1.54,2.41,3.12-.46,4.72l-3.13,1.75c3.79-.6,7.47-.57,11.04,.07,3.57,.65,6.77,1.82,9.6,3.52,9.06,5.45,8.07,11.26-2.97,17.44l-21.71,12.14c-2.87,1.61-5.62,1.62-8.23,.05s-2.57-3.21,.3-4.82l21.2-11.86c3.55-1.98,5.5-3.82,5.85-5.5,.35-1.69-.84-3.35-3.56-4.99-3.19-1.92-6.83-2.85-10.91-2.79-4.08,.06-7.89,1.09-11.44,3.07l-19.6,10.96c-2.87,1.61-5.64,1.61-8.31,0Z"/>
      <path class="cls-1" d="M1418.62,301.1c-4.82-2.9-7.08-5.8-6.79-8.7,.29-2.9,2.94-5.75,7.95-8.55l19.94-11.15-4.71-2.84c-2.2-1.32-2.2-2.6,0-3.83,2.2-1.23,4.39-1.18,6.59,.14l4.71,2.84,8.7-4.87c2.87-1.61,5.64-1.61,8.31,0s2.49,3.17-.38,4.77l-8.7,4.87,9.19,5.53c2.2,1.32,2.2,2.6,0,3.83-2.2,1.23-4.39,1.18-6.59-.14l-9.19-5.53-19.26,10.77c-2.99,1.67-4.65,3.28-4.99,4.84-.34,1.56,.82,3.14,3.49,4.75,.94,.57,1.85,1,2.73,1.3,.88,.3,1.61,.59,2.19,.87,.58,.35,.84,.75,.78,1.2-.06,.46-.68,1.02-1.86,1.68-.9,.5-1.85,.87-2.84,1.09-.99,.22-1.97,.17-2.93-.14-.91-.22-1.99-.61-3.23-1.16-1.24-.55-2.28-1.08-3.12-1.58Z"/>
      <path class="cls-1" d="M1435.12,310.83c-2.67-1.61-2.57-3.21,.3-4.82l33.79-18.9c2.87-1.61,5.59-1.64,8.16-.09s2.41,3.12-.46,4.73l-3.63,2.03c3.58-.79,7.11-.92,10.58-.4,3.47,.52,6.84,1.63,10.1,3.33,2.11,1.07,2.03,2.33-.24,3.78-2.27,1.51-4.75,1.59-7.43,.24l-1.66-.8c-7.7-3.78-15.04-3.72-22.02,.19l-19.18,10.72c-2.87,1.61-5.64,1.61-8.31,0Z"/>
    </g>
    <path id="CentrIcon" class="cls-10" d="M1304.66,301.48c-81.28-48.92-217.97-48.93-305.33-.04-87.33,48.87-92.31,128.13-11.13,177.05,81.2,48.94,217.89,49.01,305.32,.14,87.45-48.89,92.44-128.21,11.14-177.15Zm-237.38,132.78c-40.61-24.46-38.11-64.1,5.57-88.54,43.69-24.44,112.03-24.43,152.66,.03,40.64,24.47,38.14,64.12-5.57,88.56h0c-43.7,24.44-112.05,24.41-152.66-.06Z"/>
  </g>
  <g id="Camera">
    <ellipse id="Outermost" class="cls-6" cx="1288.39" cy="39.79" rx="21.71" ry="12.04"/>
    <ellipse id="Middle" class="cls-5" cx="1288.39" cy="39.79" rx="12.96" ry="7.43"/>
    <ellipse id="Innermost" class="cls-11" cx="1288.39" cy="39.79" rx="4.72" ry="2.69"/>
  </g>
  <ellipse id="SIMSlotHole" class="cls-12" cx="137.56" cy="844.7" rx="3.46" ry="5.28" transform="translate(-376.09 160.15) rotate(-27.63)"/>
  <ellipse id="MicHoleLeft" class="cls-13" cx="172.77" cy="866.79" rx="3.46" ry="5.28" transform="translate(-382.32 179) rotate(-27.63)"/>
  <ellipse id="MicHoleRight" class="cls-12" cx="341.46" cy="967.73" rx="3.46" ry="5.28" transform="translate(-409.9 268.76) rotate(-27.63)"/>
  <path id="USB-CPort" class="cls-9" d="M236.83,890.38l45.61,27.61s10.15,7.58,8.8,18.54-10.15,5.14-13.26,3.52-42.5-25.31-45.61-27.88-10.42-10.96-8.26-17.46,8.95-6.61,12.72-4.33Z"/>
  <ellipse id="SpeakerHoleLM" class="cls-12" cx="391.5" cy="996.74" rx="5.87" ry="9.96" transform="translate(-417.64 295.28) rotate(-27.63)"/>
  <ellipse id="SpeakerHoleL" class="cls-12" cx="409.92" cy="1007.99" rx="5.87" ry="9.96" transform="translate(-420.76 305.11) rotate(-27.63)"/>
  <ellipse id="SpeakerHoleM" class="cls-12" cx="428.89" cy="1019.22" rx="5.87" ry="9.96" transform="translate(-423.81 315.18) rotate(-27.63)"/>
  <ellipse id="SpeakerHoleR" class="cls-12" cx="447.14" cy="1030.05" rx="5.87" ry="9.96" transform="translate(-426.75 324.88) rotate(-27.63)"/>
  <ellipse id="SpeakerHoleRM" class="cls-12" cx="466.58" cy="1042.88" rx="5.87" ry="9.96" transform="translate(-430.48 335.36) rotate(-27.63)"/>
  <path id="USB-CPortHighlight" class="cls-2" d="M237.36,890.7s.51,10.19,7.82,14.97,46.17,28.41,46.17,28.41c0,0,.29-10.53-12.13-18.05l-41.86-25.34Z"/>
</svg>