<svg id="Layer_1" data-name="Layer 1" xmlns="http://www.w3.org/2000/svg" xmlns:xlink="http://www.w3.org/1999/xlink" viewBox="0 0 970.07 900"><defs><style>.cls-1{fill:url(#linear-gradient);}</style><linearGradient id="linear-gradient" x1="607.62" y1="968.65" x2="279.02" y2="65.83" gradientUnits="userSpaceOnUse"><stop offset="0" stop-color="#3767e5"/><stop offset="0.65" stop-color="#9f58f2"/></linearGradient></defs><path class="cls-1" d="M723.55,224.7c0,123.94-100.58,224.4-224.66,224.4S274.23,348.64,274.23,224.7,374.81.3,498.89.3,723.55,100.77,723.55,224.7ZM45.82,788.06c62,107.33,199.44,144.1,306.9,82.14S497,671,435,563.66s-199.44-144.11-306.9-82.14S-16.22,680.73,45.82,788.06Zm909.8-1.9c62-107.33,25.23-244.57-82.23-306.54S628.54,454.43,566.5,561.76,541.28,806.33,648.73,868.3,893.59,893.49,955.62,786.16Z" transform="translate(-15.69 -0.3)"/></svg>