<?xml version="1.0" encoding="UTF-8"?>
<svg id="Layer_1" data-name="Layer 1" xmlns="http://www.w3.org/2000/svg" viewBox="0 0 1080 2272">
  <defs>
    <style>
      .cls-1 {
        letter-spacing: 0em;
      }

      .cls-2 {
        letter-spacing: 0em;
      }

      .cls-3 {
        font-size: 91px;
      }

      .cls-3, .cls-4, .cls-5, .cls-6, .cls-7 {
        fill: #fff;
        font-family: Nunito-SemiBold, Nunito;
      }

      .cls-3, .cls-5, .cls-6, .cls-7 {
        opacity: .5;
      }

      .cls-8 {
        letter-spacing: 0em;
      }

      .cls-9 {
        letter-spacing: 0em;
      }

      .cls-10 {
        letter-spacing: 0em;
      }

      .cls-11 {
        letter-spacing: -.05em;
      }

      .cls-12 {
        fill: #9f58f2;
      }

      .cls-4 {
        font-size: 152px;
      }

      .cls-13 {
        letter-spacing: 0em;
      }

      .cls-14 {
        letter-spacing: 0em;
      }

      .cls-15 {
        letter-spacing: 0em;
      }

      .cls-16 {
        letter-spacing: -.01em;
      }

      .cls-17 {
        letter-spacing: 0em;
      }

      .cls-18 {
        letter-spacing: 0em;
      }

      .cls-19 {
        fill: #2b324d;
      }

      .cls-20 {
        letter-spacing: 0em;
      }

      .cls-5 {
        font-size: 70px;
      }

      .cls-21 {
        letter-spacing: 0em;
      }

      .cls-22 {
        letter-spacing: 0em;
      }

      .cls-23 {
        letter-spacing: 0em;
      }

      .cls-24 {
        letter-spacing: 0em;
      }

      .cls-6 {
        font-size: 67px;
      }

      .cls-25 {
        fill: #0c0414;
      }

      .cls-26 {
        letter-spacing: 0em;
      }

      .cls-27 {
        letter-spacing: 0em;
      }

      .cls-28 {
        letter-spacing: 0em;
      }

      .cls-29 {
        letter-spacing: 0em;
      }

      .cls-30 {
        letter-spacing: 0em;
      }

      .cls-7 {
        font-size: 68px;
      }

      .cls-31 {
        letter-spacing: 0em;
      }

      .cls-32 {
        letter-spacing: -.02em;
      }

      .cls-33 {
        letter-spacing: -.08em;
      }

      .cls-34 {
        letter-spacing: 0em;
      }

      .cls-35 {
        fill: #22283d;
      }

      .cls-36 {
        letter-spacing: 0em;
      }

      .cls-37 {
        letter-spacing: 0em;
      }

      .cls-38 {
        letter-spacing: .03em;
      }
    </style>
  </defs>
  <rect id="Background" class="cls-25" width="1080" height="2272" rx="100" ry="100"/>
  <text id="Title" class="cls-4" transform="translate(201.68 302.74)"><tspan x="0" y="0">pas</tspan><tspan class="cls-27" x="245.02" y="0">s</tspan><tspan class="cls-36" x="317.07" y="0">w</tspan><tspan x="444.29" y="0">o</tspan><tspan class="cls-15" x="530.17" y="0">r</tspan><tspan x="585.8" y="0">d</tspan><tspan x="-.15" y="205">gene</tspan><tspan class="cls-34" x="340.93" y="205">r</tspan><tspan x="396.87" y="205">a</tspan><tspan class="cls-29" x="478.49" y="205">t</tspan><tspan x="533.21" y="205">or</tspan></text>
  <text id="Inst" class="cls-6" transform="translate(115.33 624.83)"><tspan x="0" y="0">tap a</tspan><tspan class="cls-13" x="153.69" y="0">n</tspan><tspan class="cls-38" x="191.95" y="0">y</tspan><tspan x="228.67" y="0">whe</tspan><tspan class="cls-30" x="359.92" y="0">r</tspan><tspan x="384.44" y="0">e on </tspan><tspan class="cls-10" x="532.24" y="0">t</tspan><tspan class="cls-8" x="557.29" y="0">he sc</tspan><tspan class="cls-26" x="713.27" y="0">r</tspan><tspan x="737.79" y="0">een</tspan><tspan class="cls-16" x="-8.34" y="94">f</tspan><tspan x="13.97" y="94">or a n</tspan><tspan class="cls-30" x="186.76" y="94">e</tspan><tspan x="222.27" y="94">w pas</tspan><tspan class="cls-24" x="404.64" y="94">s</tspan><tspan class="cls-9" x="436.4" y="94">w</tspan><tspan x="492.47" y="94">o</tspan><tspan class="cls-26" x="530.33" y="94">r</tspan><tspan x="554.85" y="94">d. </tspan><tspan class="cls-33" x="628.01" y="94">T</tspan><tspan x="663.79" y="94">ap </tspan><tspan class="cls-10" x="757.05" y="94">t</tspan><tspan class="cls-8" x="782.11" y="94">he</tspan><tspan x="1.4" y="188">pas</tspan><tspan class="cls-24" x="109.41" y="188">s</tspan><tspan class="cls-9" x="141.16" y="188">w</tspan><tspan x="197.24" y="188">o</tspan><tspan class="cls-30" x="235.1" y="188">r</tspan><tspan x="259.62" y="188">d itse</tspan><tspan class="cls-9" x="426.04" y="188">l</tspan><tspan class="cls-31" x="445.94" y="188">f </tspan><tspan class="cls-2" x="486.88" y="188">t</tspan><tspan class="cls-18" x="511" y="188">o </tspan><tspan class="cls-24" x="566.54" y="188">c</tspan><tspan x="597.16" y="188">o</tspan><tspan class="cls-22" x="635.01" y="188">p</tspan><tspan x="674.01" y="188">y it </tspan><tspan class="cls-2" x="784.96" y="188">t</tspan><tspan x="809.08" y="188">o</tspan><tspan class="cls-9" x="197.18" y="282">y</tspan><tspan x="231.41" y="282">our clipboa</tspan><tspan class="cls-26" x="571.16" y="282">r</tspan><tspan class="cls-18" x="595.69" y="282">d.</tspan></text>
  <text id="Result" class="cls-3" transform="translate(230.88 1171.28)"><tspan x="0" y="0">j3</tspan><tspan class="cls-11" x="76.98" y="0">W</tspan><tspan x="173.17" y="0">uf12XT%#</tspan></text>
  <g id="CharNumBox">
    <rect class="cls-19" x="89.5" y="1937" width="520" height="168" rx="60" ry="60"/>
  </g>
  <text id="CharNumText" class="cls-5" transform="translate(133.69 2045.74)"><tspan x="0" y="0">12 cha</tspan><tspan class="cls-1" x="213.08" y="0">r</tspan><tspan class="cls-21" x="238.84" y="0">a</tspan><tspan class="cls-20" x="276.42" y="0">c</tspan><tspan class="cls-37" x="309.18" y="0">t</tspan><tspan class="cls-17" x="334.38" y="0">e</tspan><tspan class="cls-28" x="371.97" y="0">r</tspan><tspan class="cls-14" x="397.73" y="0">s</tspan></text>
  <g id="MoreCharsBox">
    <rect class="cls-35" x="825.5" y="1937" width="168" height="168" rx="60" ry="60"/>
  </g>
  <g id="LessCharsBox">
    <rect class="cls-35" x="640.5" y="1937" width="168" height="168" rx="60" ry="60"/>
  </g>
  <text class="cls-7" transform="translate(437.59 1459.22)"><tspan class="cls-32" x="0" y="0">A</tspan><tspan x="48.76" y="0">-Z</tspan></text>
  <text class="cls-7" transform="translate(446.55 1593.54)"><tspan x="0" y="0">a</tspan><tspan class="cls-23" x="36.52" y="0">-</tspan><tspan x="65.01" y="0">z</tspan></text>
  <text class="cls-7" transform="translate(440.58 1729.81)"><tspan x="0" y="0">0-9</tspan></text>
  <text class="cls-7" transform="translate(346.86 1863.39)"><tspan x="0" y="0">!@#$%^*</tspan></text>
  <path id="A-Z_CB" data-name="A-Z CB" class="cls-12" d="M619.94,1406h-38.89c-3.06,0-5.56,2.5-5.56,5.56v38.89c0,3.06,2.5,5.56,5.56,5.56h38.89c3.06,0,5.56-2.5,5.56-5.56v-38.89c0-3.06-2.5-5.56-5.56-5.56Zm-23.03,36.92c-1.08,1.08-2.83,1.08-3.92,0l-9.97-9.97c-1.08-1.08-1.08-2.83,0-3.92,1.08-1.08,2.83-1.08,3.92,0l8,8,19.11-19.11c1.08-1.08,2.83-1.08,3.92,0s1.08,2.83,0,3.92l-21.06,21.08Z"/>
  <path id="a-z_CB" data-name="a-z CB" class="cls-12" d="M609.94,1541h-38.89c-3.06,0-5.56,2.5-5.56,5.56v38.89c0,3.06,2.5,5.56,5.56,5.56h38.89c3.06,0,5.56-2.5,5.56-5.56v-38.89c0-3.06-2.5-5.56-5.56-5.56Zm-23.03,36.92c-1.08,1.08-2.83,1.08-3.92,0l-9.97-9.97c-1.08-1.08-1.08-2.83,0-3.92,1.08-1.08,2.83-1.08,3.92,0l8,8,19.11-19.11c1.08-1.08,2.83-1.08,3.92,0s1.08,2.83,0,3.92l-21.06,21.08Z"/>
  <path id="_-9_CB" data-name="0-9 CB" class="cls-12" d="M615.94,1676h-38.89c-3.06,0-5.56,2.5-5.56,5.56v38.89c0,3.06,2.5,5.56,5.56,5.56h38.89c3.06,0,5.56-2.5,5.56-5.56v-38.89c0-3.06-2.5-5.56-5.56-5.56Zm-23.03,36.92c-1.08,1.08-2.83,1.08-3.92,0l-9.97-9.97c-1.08-1.08-1.08-2.83,0-3.92,1.08-1.08,2.83-1.08,3.92,0l8,8,19.11-19.11c1.08-1.08,2.83-1.08,3.92,0s1.08,2.83,0,3.92l-21.06,21.08Z"/>
  <path id="________CB" data-name="!@#$%^* CB" class="cls-12" d="M708.94,1811h-38.89c-3.06,0-5.56,2.5-5.56,5.56v38.89c0,3.06,2.5,5.56,5.56,5.56h38.89c3.06,0,5.56-2.5,5.56-5.56v-38.89c0-3.06-2.5-5.56-5.56-5.56Zm-23.03,36.92c-1.08,1.08-2.83,1.08-3.92,0l-9.97-9.97c-1.08-1.08-1.08-2.83,0-3.92,1.08-1.08,2.83-1.08,3.92,0l8,8,19.11-19.11c1.08-1.08,2.83-1.08,3.92,0s1.08,2.83,0,3.92l-21.06,21.08Z"/>
  <path id="MoreCharsIcon" class="cls-12" d="M952.36,2028.14h-35.71v35.71c0,3.93-3.21,7.14-7.14,7.14s-7.14-3.21-7.14-7.14v-35.71h-35.71c-3.93,0-7.14-3.21-7.14-7.14s3.21-7.14,7.14-7.14h35.71v-35.71c0-3.93,3.21-7.14,7.14-7.14s7.14,3.21,7.14,7.14v35.71h35.71c3.93,0,7.14,3.21,7.14,7.14s-3.21,7.14-7.14,7.14Z"/>
  <path id="LessCharsIcon" class="cls-12" d="M767.36,2028.14h-85.71c-3.93,0-7.14-3.21-7.14-7.14s3.21-7.14,7.14-7.14h85.71c3.93,0,7.14,3.21,7.14,7.14s-3.21,7.14-7.14,7.14Z"/>
</svg>