<?xml version="1.0" encoding="UTF-8"?>
<svg id="Layer_1" data-name="Layer 1" xmlns="http://www.w3.org/2000/svg" viewBox="0 0 1080 2272">
  <defs>
    <style>
      .cls-1 {
        fill: #fff;
      }

      .cls-2 {
        opacity: .5;
      }

      .cls-3 {
        fill: #9f58f2;
      }

      .cls-4 {
        fill: #2b324d;
      }

      .cls-5 {
        fill: #0c0414;
      }

      .cls-6 {
        fill: #22283d;
      }
    </style>
  </defs>
  <rect id="Background" class="cls-5" width="1080" height="2272" rx="100" ry="100"/>
  <g>
    <path class="cls-1" d="M220.08,331.16c-5.07,0-7.6-2.58-7.6-7.75v-88.16c0-5.17,2.48-7.75,7.45-7.75s7.6,2.58,7.6,7.75v5.78c2.23-4.26,5.52-7.62,9.88-10.11,4.36-2.48,9.32-3.72,14.9-3.72,6.59,0,12.34,1.57,17.25,4.71,4.91,3.14,8.71,7.58,11.4,13.3,2.68,5.73,4.03,12.54,4.03,20.44s-1.34,14.74-4.03,20.52c-2.69,5.78-6.49,10.21-11.4,13.3-4.92,3.09-10.67,4.64-17.25,4.64-5.47,0-10.36-1.19-14.67-3.57-4.31-2.38-7.58-5.65-9.8-9.8v32.68c0,5.17-2.58,7.75-7.75,7.75Zm28.42-38.91c6.38,0,11.48-2.28,15.28-6.84,3.8-4.56,5.7-11.15,5.7-19.76s-1.9-15.17-5.7-19.68c-3.8-4.51-8.89-6.76-15.28-6.76s-11.48,2.26-15.28,6.76c-3.8,4.51-5.7,11.07-5.7,19.68s1.9,15.2,5.7,19.76,8.89,6.84,15.28,6.84Z"/>
    <path class="cls-1" d="M326.02,304.11c-5.17,0-9.78-1.01-13.83-3.04-4.05-2.03-7.27-4.76-9.65-8.21-2.38-3.44-3.57-7.35-3.57-11.7,0-5.47,1.39-9.78,4.18-12.92,2.79-3.14,7.4-5.42,13.83-6.84,6.43-1.42,15.12-2.13,26.07-2.13h5.17v-3.95c0-5.78-1.22-9.93-3.65-12.46-2.43-2.53-6.44-3.8-12.01-3.8-3.24,0-6.61,.41-10.11,1.22-3.5,.81-7.12,2.18-10.87,4.1-2.13,1.01-3.88,1.17-5.24,.46-1.37-.71-2.31-1.82-2.81-3.34-.51-1.52-.46-3.09,.15-4.71,.61-1.62,1.87-2.84,3.8-3.65,4.46-2.03,8.87-3.52,13.22-4.48,4.36-.96,8.46-1.44,12.31-1.44,10.13,0,17.63,2.41,22.5,7.22,4.86,4.81,7.3,12.34,7.3,22.57v39.06c0,5.17-2.38,7.75-7.14,7.75s-7.3-2.58-7.3-7.75v-5.62c-1.82,4.26-4.66,7.6-8.51,10.03-3.85,2.43-8.46,3.65-13.83,3.65Zm3.04-10.94c5.47,0,10.03-1.92,13.68-5.78,3.65-3.85,5.47-8.71,5.47-14.59v-4.1h-5.02c-7.4,0-13.2,.36-17.4,1.06-4.21,.71-7.2,1.9-8.97,3.57-1.77,1.67-2.66,3.98-2.66,6.92,0,3.85,1.32,6.97,3.95,9.35,2.63,2.38,6.28,3.57,10.94,3.57Z"/>
    <path class="cls-1" d="M409.92,304.11c-4.46,0-9.07-.51-13.83-1.52-4.76-1.01-9.07-2.74-12.92-5.17-1.72-1.01-2.79-2.28-3.19-3.8-.41-1.52-.3-2.94,.3-4.26,.61-1.32,1.6-2.25,2.96-2.81,1.37-.56,2.91-.38,4.64,.53,3.95,2.13,7.75,3.65,11.4,4.56,3.65,.91,7.24,1.37,10.79,1.37,5.37,0,9.42-.96,12.16-2.89,2.74-1.92,4.1-4.51,4.1-7.75,0-2.63-.91-4.69-2.74-6.16-1.82-1.47-4.56-2.61-8.21-3.42l-14.44-2.89c-12.77-2.63-19.15-9.22-19.15-19.76,0-6.99,2.79-12.56,8.36-16.72,5.57-4.15,12.87-6.23,21.89-6.23s16.97,2.23,23.56,6.69c1.62,1.01,2.58,2.26,2.89,3.72,.3,1.47,.1,2.84-.61,4.1-.71,1.27-1.75,2.15-3.12,2.66-1.37,.51-2.96,.3-4.79-.61-3.04-1.82-6.08-3.17-9.12-4.03-3.04-.86-5.98-1.29-8.82-1.29-5.27,0-9.27,.99-12.01,2.96-2.74,1.98-4.1,4.64-4.1,7.98,0,5.07,3.34,8.31,10.03,9.73l14.44,2.89c6.59,1.32,11.58,3.55,14.97,6.69,3.39,3.14,5.09,7.4,5.09,12.77,0,7.09-2.79,12.64-8.36,16.64-5.57,4-12.97,6-22.19,6Z"/>
    <path class="cls-1" d="M483.49,304.11c-4.46,0-9.07-.51-13.83-1.52-4.76-1.01-9.07-2.74-12.92-5.17-1.72-1.01-2.79-2.28-3.19-3.8-.41-1.52-.3-2.94,.3-4.26,.61-1.32,1.6-2.25,2.96-2.81,1.37-.56,2.91-.38,4.64,.53,3.95,2.13,7.75,3.65,11.4,4.56,3.65,.91,7.24,1.37,10.79,1.37,5.37,0,9.42-.96,12.16-2.89,2.74-1.92,4.1-4.51,4.1-7.75,0-2.63-.91-4.69-2.74-6.16-1.82-1.47-4.56-2.61-8.21-3.42l-14.44-2.89c-12.77-2.63-19.15-9.22-19.15-19.76,0-6.99,2.79-12.56,8.36-16.72,5.57-4.15,12.87-6.23,21.89-6.23s16.97,2.23,23.56,6.69c1.62,1.01,2.58,2.26,2.89,3.72,.3,1.47,.1,2.84-.61,4.1-.71,1.27-1.75,2.15-3.12,2.66-1.37,.51-2.96,.3-4.79-.61-3.04-1.82-6.08-3.17-9.12-4.03-3.04-.86-5.98-1.29-8.82-1.29-5.27,0-9.27,.99-12.01,2.96-2.74,1.98-4.1,4.64-4.1,7.98,0,5.07,3.34,8.31,10.03,9.73l14.44,2.89c6.59,1.32,11.58,3.55,14.97,6.69,3.39,3.14,5.09,7.4,5.09,12.77,0,7.09-2.79,12.64-8.36,16.64-5.57,4-12.97,6-22.19,6Z"/>
    <path class="cls-1" d="M556.6,303.8c-4.46,0-7.55-2.23-9.27-6.69l-22.34-59.13c-1.22-3.04-1.19-5.55,.08-7.52,1.27-1.98,3.42-2.96,6.46-2.96,1.82,0,3.29,.43,4.41,1.29,1.11,.86,2.13,2.51,3.04,4.94l18.09,51.07,18.85-51.68c1.42-3.75,3.95-5.62,7.6-5.62s6.28,1.88,7.6,5.62l18.54,51.98,18.54-51.68c.81-2.33,1.85-3.9,3.12-4.71,1.27-.81,2.71-1.22,4.33-1.22,3.04,0,4.99,1.06,5.85,3.19,.86,2.13,.78,4.56-.23,7.3l-22.34,59.13c-1.82,4.46-4.86,6.69-9.12,6.69-4.56,0-7.65-2.23-9.27-6.69l-17.48-47.42-17.33,47.42c-1.62,4.46-4.66,6.69-9.12,6.69Z"/>
    <path class="cls-1" d="M688.99,304.11c-7.5,0-13.98-1.57-19.46-4.71-5.47-3.14-9.7-7.57-12.69-13.3-2.99-5.72-4.48-12.54-4.48-20.44s1.49-14.72,4.48-20.44c2.99-5.72,7.22-10.16,12.69-13.3,5.47-3.14,11.96-4.71,19.46-4.71s13.68,1.57,19.15,4.71c5.47,3.14,9.73,7.58,12.77,13.3,3.04,5.73,4.56,12.54,4.56,20.44s-1.52,14.72-4.56,20.44c-3.04,5.73-7.3,10.16-12.77,13.3-5.47,3.14-11.86,4.71-19.15,4.71Zm0-11.86c6.28,0,11.35-2.28,15.2-6.84,3.85-4.56,5.78-11.15,5.78-19.76s-1.93-15.17-5.78-19.68c-3.85-4.51-8.92-6.76-15.2-6.76s-11.5,2.26-15.35,6.76c-3.85,4.51-5.78,11.07-5.78,19.68s1.92,15.2,5.78,19.76c3.85,4.56,8.97,6.84,15.35,6.84Z"/>
    <path class="cls-1" d="M750.4,303.8c-5.17,0-7.75-2.58-7.75-7.75v-60.8c0-5.17,2.48-7.75,7.45-7.75s7.45,2.58,7.45,7.75v6.54c2.03-4.56,5.09-8.06,9.2-10.49,4.1-2.43,9.09-3.85,14.97-4.26,3.75-.3,5.78,1.72,6.08,6.08,.4,4.46-1.77,6.89-6.54,7.3l-2.89,.3c-13.48,1.32-20.22,8.26-20.22,20.82v34.5c0,5.17-2.58,7.75-7.75,7.75Z"/>
    <path class="cls-1" d="M826.55,304.11c-6.49,0-12.19-1.54-17.1-4.64-4.92-3.09-8.74-7.52-11.48-13.3-2.74-5.78-4.1-12.62-4.1-20.52s1.37-14.72,4.1-20.44c2.74-5.72,6.54-10.16,11.4-13.3,4.86-3.14,10.59-4.71,17.18-4.71,5.57,0,10.54,1.22,14.9,3.65,4.36,2.43,7.6,5.73,9.73,9.88v-38.46c0-5.17,2.53-7.75,7.6-7.75s7.75,2.58,7.75,7.75v93.78c0,5.17-2.53,7.75-7.6,7.75s-7.6-2.58-7.6-7.75v-5.78c-2.23,4.26-5.52,7.63-9.88,10.11-4.36,2.48-9.32,3.72-14.9,3.72Zm3.95-11.86c6.28,0,11.35-2.28,15.2-6.84,3.85-4.56,5.78-11.15,5.78-19.76s-1.93-15.17-5.78-19.68c-3.85-4.51-8.92-6.76-15.2-6.76s-11.5,2.26-15.35,6.76c-3.85,4.51-5.78,11.07-5.78,19.68s1.92,15.2,5.78,19.76c3.85,4.56,8.97,6.84,15.35,6.84Z"/>
    <path class="cls-1" d="M245.92,536.47c-5.47,0-10.77-.56-15.88-1.67-5.12-1.12-9.75-2.94-13.91-5.47-1.82-1.01-2.94-2.28-3.34-3.8-.41-1.52-.23-2.99,.53-4.41,.76-1.42,1.82-2.46,3.19-3.12,1.37-.66,2.86-.53,4.48,.38,4.46,2.43,8.69,4.08,12.69,4.94,4,.86,7.73,1.29,11.17,1.29,14.19,0,21.28-7.09,21.28-21.28v-11.7c-2.13,4.46-5.45,7.96-9.96,10.49-4.51,2.53-9.55,3.8-15.12,3.8-6.69,0-12.52-1.54-17.48-4.64-4.97-3.09-8.82-7.4-11.55-12.92-2.74-5.52-4.1-11.98-4.1-19.38s1.37-13.7,4.1-19.23c2.74-5.52,6.59-9.83,11.55-12.92,4.96-3.09,10.79-4.64,17.48-4.64,5.57,0,10.56,1.24,14.97,3.72,4.41,2.48,7.68,5.85,9.8,10.11v-5.78c0-5.17,2.53-7.75,7.6-7.75s7.6,2.58,7.6,7.75v61.26c0,11.65-2.99,20.39-8.97,26.22-5.98,5.83-14.69,8.74-26.14,8.74Zm-1.22-42.56c6.48,0,11.65-2.23,15.5-6.69,3.85-4.46,5.78-10.54,5.78-18.24s-1.93-13.76-5.78-18.16c-3.85-4.41-9.02-6.61-15.5-6.61s-11.65,2.2-15.5,6.61c-3.85,4.41-5.78,10.46-5.78,18.16s1.92,13.78,5.78,18.24c3.85,4.46,9.02,6.69,15.5,6.69Z"/>
    <path class="cls-1" d="M337.42,509.11c-12.16,0-21.74-3.42-28.73-10.26-6.99-6.84-10.49-16.19-10.49-28.04,0-7.6,1.54-14.31,4.64-20.14,3.09-5.83,7.37-10.36,12.84-13.6,5.47-3.24,11.75-4.86,18.85-4.86,10.23,0,18.29,3.27,24.17,9.8,5.88,6.54,8.82,15.53,8.82,26.98,0,3.45-2.03,5.17-6.08,5.17h-48.34c1.11,15.4,9.27,23.1,24.47,23.1,3.04,0,6.23-.38,9.58-1.14,3.34-.76,6.59-2.15,9.73-4.18,2.13-1.22,3.98-1.65,5.55-1.29,1.57,.36,2.71,1.22,3.42,2.58,.71,1.37,.84,2.89,.38,4.56-.46,1.67-1.65,3.12-3.57,4.33-3.45,2.33-7.47,4.08-12.08,5.24-4.61,1.16-8.99,1.75-13.15,1.75Zm-2.28-66.12c-6.38,0-11.45,1.98-15.2,5.93-3.75,3.95-6.03,9.22-6.84,15.81h41.5c-.3-6.89-2.13-12.24-5.47-16.04-3.34-3.8-8.01-5.7-13.98-5.7Z"/>
    <path class="cls-1" d="M391.84,508.8c-5.07,0-7.6-2.58-7.6-7.75v-60.8c0-5.17,2.48-7.75,7.45-7.75s7.45,2.58,7.45,7.75v5.62c2.53-4.46,6-7.85,10.41-10.18,4.41-2.33,9.35-3.5,14.82-3.5,17.53,0,26.3,9.93,26.3,29.79v39.06c0,5.17-2.53,7.75-7.6,7.75s-7.75-2.58-7.75-7.75v-38.15c0-6.38-1.24-11.04-3.72-13.98-2.48-2.94-6.36-4.41-11.63-4.41-6.18,0-11.12,1.95-14.82,5.85-3.7,3.9-5.55,9.04-5.55,15.43v35.26c0,5.17-2.58,7.75-7.75,7.75Z"/>
    <path class="cls-1" d="M506.59,509.11c-12.16,0-21.74-3.42-28.73-10.26-6.99-6.84-10.49-16.19-10.49-28.04,0-7.6,1.54-14.31,4.64-20.14,3.09-5.83,7.37-10.36,12.84-13.6,5.47-3.24,11.75-4.86,18.85-4.86,10.23,0,18.29,3.27,24.17,9.8,5.88,6.54,8.82,15.53,8.82,26.98,0,3.45-2.03,5.17-6.08,5.17h-48.34c1.11,15.4,9.27,23.1,24.47,23.1,3.04,0,6.23-.38,9.58-1.14,3.34-.76,6.59-2.15,9.73-4.18,2.13-1.22,3.98-1.65,5.55-1.29,1.57,.36,2.71,1.22,3.42,2.58,.71,1.37,.84,2.89,.38,4.56-.46,1.67-1.65,3.12-3.57,4.33-3.45,2.33-7.47,4.08-12.08,5.24-4.61,1.16-8.99,1.75-13.15,1.75Zm-2.28-66.12c-6.38,0-11.45,1.98-15.2,5.93-3.75,3.95-6.03,9.22-6.84,15.81h41.5c-.3-6.89-2.13-12.24-5.47-16.04-3.34-3.8-8.01-5.7-13.98-5.7Z"/>
    <path class="cls-1" d="M561.16,508.8c-5.17,0-7.75-2.58-7.75-7.75v-60.8c0-5.17,2.48-7.75,7.45-7.75s7.45,2.58,7.45,7.75v6.54c2.03-4.56,5.09-8.06,9.2-10.49,4.1-2.43,9.09-3.85,14.97-4.26,3.75-.3,5.78,1.72,6.08,6.08,.4,4.46-1.77,6.89-6.54,7.3l-2.89,.3c-13.48,1.32-20.21,8.26-20.21,20.82v34.5c0,5.17-2.58,7.75-7.75,7.75Z"/>
    <path class="cls-1" d="M633.05,509.11c-5.17,0-9.78-1.01-13.83-3.04-4.05-2.03-7.27-4.76-9.65-8.21-2.38-3.44-3.57-7.35-3.57-11.7,0-5.47,1.39-9.78,4.18-12.92,2.79-3.14,7.4-5.42,13.83-6.84,6.43-1.42,15.12-2.13,26.07-2.13h5.17v-3.95c0-5.78-1.22-9.93-3.65-12.46-2.43-2.53-6.44-3.8-12.01-3.8-3.24,0-6.61,.41-10.11,1.22-3.5,.81-7.12,2.18-10.87,4.1-2.13,1.01-3.88,1.17-5.24,.46-1.37-.71-2.31-1.82-2.81-3.34-.51-1.52-.46-3.09,.15-4.71,.61-1.62,1.87-2.84,3.8-3.65,4.46-2.03,8.87-3.52,13.22-4.48,4.36-.96,8.46-1.44,12.31-1.44,10.13,0,17.63,2.41,22.5,7.22,4.86,4.81,7.3,12.34,7.3,22.57v39.06c0,5.17-2.38,7.75-7.14,7.75s-7.3-2.58-7.3-7.75v-5.62c-1.82,4.26-4.66,7.6-8.51,10.03-3.85,2.43-8.46,3.65-13.83,3.65Zm3.04-10.94c5.47,0,10.03-1.92,13.68-5.78,3.65-3.85,5.47-8.71,5.47-14.59v-4.1h-5.02c-7.4,0-13.2,.36-17.4,1.06-4.21,.71-7.2,1.9-8.97,3.57-1.77,1.67-2.66,3.98-2.66,6.92,0,3.85,1.32,6.97,3.95,9.35,2.63,2.38,6.28,3.57,10.94,3.57Z"/>
    <path class="cls-1" d="M722.58,509.11c-9.32,0-16.26-2.38-20.82-7.14-4.56-4.76-6.84-11.65-6.84-20.67v-35.87h-9.12c-4.26,0-6.38-1.98-6.38-5.93s2.13-5.93,6.38-5.93h9.12v-15.66c0-5.17,2.58-7.75,7.75-7.75s7.6,2.58,7.6,7.75v15.66h17.78c4.26,0,6.38,1.98,6.38,5.93s-2.13,5.93-6.38,5.93h-17.78v34.66c0,5.37,1.14,9.42,3.42,12.16,2.28,2.74,6,4.1,11.17,4.1,1.82,0,3.39-.18,4.71-.53,1.32-.35,2.48-.58,3.5-.68,1.11,0,2.03,.38,2.74,1.14,.71,.76,1.06,2.2,1.06,4.33,0,1.62-.28,3.07-.84,4.33-.56,1.27-1.55,2.1-2.96,2.51-1.22,.51-2.86,.91-4.94,1.22-2.08,.3-3.93,.46-5.55,.46Z"/>
    <path class="cls-1" d="M777.91,509.11c-7.5,0-13.98-1.57-19.46-4.71-5.47-3.14-9.7-7.57-12.69-13.3-2.99-5.72-4.48-12.54-4.48-20.44s1.49-14.72,4.48-20.44c2.99-5.72,7.22-10.16,12.69-13.3,5.47-3.14,11.96-4.71,19.46-4.71s13.68,1.57,19.15,4.71c5.47,3.14,9.73,7.58,12.77,13.3,3.04,5.73,4.56,12.54,4.56,20.44s-1.52,14.72-4.56,20.44c-3.04,5.73-7.3,10.16-12.77,13.3-5.47,3.14-11.86,4.71-19.15,4.71Zm0-11.86c6.28,0,11.35-2.28,15.2-6.84,3.85-4.56,5.78-11.15,5.78-19.76s-1.93-15.17-5.78-19.68c-3.85-4.51-8.92-6.76-15.2-6.76s-11.5,2.26-15.35,6.76c-3.85,4.51-5.78,11.07-5.78,19.68s1.92,15.2,5.78,19.76c3.85,4.56,8.97,6.84,15.35,6.84Z"/>
    <path class="cls-1" d="M839.32,508.8c-5.17,0-7.75-2.58-7.75-7.75v-60.8c0-5.17,2.48-7.75,7.45-7.75s7.45,2.58,7.45,7.75v6.54c2.03-4.56,5.09-8.06,9.2-10.49,4.1-2.43,9.09-3.85,14.97-4.26,3.75-.3,5.78,1.72,6.08,6.08,.4,4.46-1.77,6.89-6.54,7.3l-2.89,.3c-13.48,1.32-20.22,8.26-20.22,20.82v34.5c0,5.17-2.58,7.75-7.75,7.75Z"/>
  </g>
  <g class="cls-2">
    <path class="cls-1" d="M134.02,625.44c-4.11,0-7.17-1.05-9.18-3.15-2.01-2.1-3.02-5.14-3.02-9.11v-15.81h-4.02c-1.88,0-2.81-.87-2.81-2.61s.94-2.61,2.81-2.61h4.02v-6.9c0-2.28,1.14-3.42,3.42-3.42s3.35,1.14,3.35,3.42v6.9h7.84c1.88,0,2.81,.87,2.81,2.61s-.94,2.61-2.81,2.61h-7.84v15.28c0,2.37,.5,4.15,1.51,5.36s2.65,1.81,4.92,1.81c.8,0,1.5-.08,2.08-.23,.58-.16,1.09-.26,1.54-.3,.49,0,.89,.17,1.21,.5,.31,.33,.47,.97,.47,1.91,0,.71-.12,1.35-.37,1.91-.25,.56-.68,.93-1.31,1.11-.54,.22-1.26,.4-2.18,.54-.92,.13-1.73,.2-2.45,.2Z"/>
    <path class="cls-1" d="M154.99,625.44c-2.28,0-4.31-.45-6.1-1.34-1.79-.89-3.21-2.1-4.25-3.62-1.05-1.52-1.57-3.24-1.57-5.16,0-2.41,.61-4.31,1.84-5.69,1.23-1.38,3.26-2.39,6.1-3.02,2.84-.62,6.67-.94,11.49-.94h2.28v-1.74c0-2.55-.54-4.38-1.61-5.49-1.07-1.12-2.84-1.68-5.29-1.68-1.43,0-2.91,.18-4.46,.54-1.54,.36-3.14,.96-4.79,1.81-.94,.45-1.71,.51-2.31,.2-.6-.31-1.02-.8-1.24-1.47-.22-.67-.2-1.36,.07-2.08,.27-.71,.83-1.25,1.68-1.61,1.96-.89,3.91-1.55,5.83-1.98,1.92-.42,3.73-.64,5.43-.64,4.47,0,7.77,1.06,9.92,3.18,2.14,2.12,3.22,5.44,3.22,9.95v17.22c0,2.28-1.05,3.42-3.15,3.42s-3.22-1.14-3.22-3.42v-2.48c-.8,1.88-2.06,3.35-3.75,4.42-1.7,1.07-3.73,1.61-6.1,1.61Zm1.34-4.82c2.41,0,4.42-.85,6.03-2.55,1.61-1.7,2.41-3.84,2.41-6.43v-1.81h-2.21c-3.26,0-5.82,.16-7.67,.47-1.85,.31-3.17,.84-3.95,1.57-.78,.74-1.17,1.75-1.17,3.05,0,1.7,.58,3.07,1.74,4.12,1.16,1.05,2.77,1.57,4.82,1.57Z"/>
    <path class="cls-1" d="M183.87,637.36c-2.23,0-3.35-1.14-3.35-3.42v-38.86c0-2.28,1.09-3.42,3.28-3.42s3.35,1.14,3.35,3.42v2.55c.98-1.88,2.43-3.36,4.35-4.46,1.92-1.09,4.11-1.64,6.57-1.64,2.9,0,5.44,.69,7.6,2.08,2.17,1.39,3.84,3.34,5.02,5.86,1.18,2.52,1.78,5.53,1.78,9.01s-.59,6.5-1.78,9.04c-1.18,2.55-2.86,4.5-5.02,5.86-2.17,1.36-4.7,2.04-7.6,2.04-2.41,0-4.57-.53-6.47-1.57-1.9-1.05-3.34-2.49-4.32-4.32v14.4c0,2.28-1.14,3.42-3.42,3.42Zm12.53-17.15c2.81,0,5.06-1,6.73-3.02,1.67-2.01,2.51-4.91,2.51-8.71s-.84-6.69-2.51-8.68c-1.68-1.99-3.92-2.98-6.73-2.98s-5.06,.99-6.73,2.98c-1.67,1.99-2.51,4.88-2.51,8.68s.84,6.7,2.51,8.71c1.68,2.01,3.92,3.02,6.73,3.02Z"/>
    <path class="cls-1" d="M248.26,625.44c-2.28,0-4.31-.45-6.1-1.34-1.79-.89-3.21-2.1-4.25-3.62-1.05-1.52-1.57-3.24-1.57-5.16,0-2.41,.61-4.31,1.84-5.69,1.23-1.38,3.26-2.39,6.1-3.02,2.84-.62,6.67-.94,11.49-.94h2.28v-1.74c0-2.55-.54-4.38-1.61-5.49-1.07-1.12-2.84-1.68-5.29-1.68-1.43,0-2.91,.18-4.46,.54-1.54,.36-3.14,.96-4.79,1.81-.94,.45-1.71,.51-2.31,.2-.6-.31-1.02-.8-1.24-1.47-.22-.67-.2-1.36,.07-2.08,.27-.71,.83-1.25,1.68-1.61,1.96-.89,3.91-1.55,5.83-1.98,1.92-.42,3.73-.64,5.43-.64,4.47,0,7.77,1.06,9.92,3.18,2.14,2.12,3.22,5.44,3.22,9.95v17.22c0,2.28-1.05,3.42-3.15,3.42s-3.22-1.14-3.22-3.42v-2.48c-.8,1.88-2.06,3.35-3.75,4.42-1.7,1.07-3.73,1.61-6.1,1.61Zm1.34-4.82c2.41,0,4.42-.85,6.03-2.55,1.61-1.7,2.41-3.84,2.41-6.43v-1.81h-2.21c-3.26,0-5.82,.16-7.67,.47-1.85,.31-3.17,.84-3.95,1.57-.78,.74-1.17,1.75-1.17,3.05,0,1.7,.58,3.07,1.74,4.12,1.16,1.05,2.77,1.57,4.82,1.57Z"/>
    <path class="cls-1" d="M277.13,625.3c-2.23,0-3.35-1.14-3.35-3.42v-26.8c0-2.28,1.09-3.42,3.28-3.42s3.28,1.14,3.28,3.42v2.48c1.12-1.96,2.65-3.46,4.59-4.49,1.94-1.03,4.12-1.54,6.53-1.54,7.73,0,11.59,4.38,11.59,13.13v17.22c0,2.28-1.12,3.42-3.35,3.42s-3.42-1.14-3.42-3.42v-16.82c0-2.81-.55-4.87-1.64-6.16-1.1-1.29-2.8-1.94-5.13-1.94-2.73,0-4.9,.86-6.53,2.58-1.63,1.72-2.45,3.99-2.45,6.8v15.54c0,2.28-1.14,3.42-3.42,3.42Z"/>
    <path class="cls-1" d="M319.74,637.36c-1.25,0-2.11-.46-2.58-1.37-.47-.92-.44-1.98,.1-3.18l3.95-8.84-11.93-27.67c-.54-1.21-.55-2.28-.03-3.22,.51-.94,1.53-1.41,3.05-1.41,.8,0,1.46,.2,1.98,.6,.51,.4,.97,1.1,1.37,2.08l9.18,22.65,9.31-22.65c.4-1.03,.87-1.73,1.41-2.11,.54-.38,1.27-.57,2.21-.57,1.21,0,2.03,.47,2.48,1.41,.45,.94,.42,1.99-.07,3.15l-16.75,38.52c-.45,1.03-.95,1.72-1.51,2.08-.56,.36-1.28,.54-2.18,.54Z"/>
    <path class="cls-1" d="M360.68,625.3c-1.97,0-3.33-.98-4.09-2.95l-9.85-26.06c-.54-1.34-.53-2.45,.03-3.32,.56-.87,1.51-1.31,2.85-1.31,.8,0,1.45,.19,1.94,.57,.49,.38,.94,1.11,1.34,2.18l7.97,22.51,8.31-22.78c.62-1.65,1.74-2.48,3.35-2.48s2.77,.83,3.35,2.48l8.17,22.91,8.17-22.78c.36-1.03,.81-1.72,1.37-2.08,.56-.36,1.19-.54,1.91-.54,1.34,0,2.2,.47,2.58,1.41,.38,.94,.35,2.01-.1,3.22l-9.85,26.06c-.8,1.97-2.14,2.95-4.02,2.95-2.01,0-3.37-.98-4.09-2.95l-7.71-20.9-7.64,20.9c-.72,1.97-2.06,2.95-4.02,2.95Z"/>
    <path class="cls-1" d="M408.79,625.3c-2.23,0-3.35-1.14-3.35-3.42v-41.34c0-2.28,1.12-3.42,3.35-3.42s3.42,1.14,3.42,3.42v16.68c1.12-1.88,2.62-3.29,4.52-4.25,1.9-.96,4.03-1.44,6.4-1.44,7.73,0,11.59,4.38,11.59,13.13v17.22c0,2.28-1.12,3.42-3.35,3.42s-3.42-1.14-3.42-3.42v-16.82c0-2.81-.55-4.87-1.64-6.16-1.1-1.29-2.8-1.94-5.13-1.94-2.73,0-4.9,.86-6.53,2.58-1.63,1.72-2.45,3.99-2.45,6.8v15.54c0,2.28-1.14,3.42-3.42,3.42Z"/>
    <path class="cls-1" d="M459.37,625.44c-5.36,0-9.58-1.51-12.66-4.52s-4.62-7.14-4.62-12.36c0-3.35,.68-6.31,2.04-8.88,1.36-2.57,3.25-4.57,5.66-6,2.41-1.43,5.18-2.14,8.31-2.14,4.51,0,8.06,1.44,10.65,4.32,2.59,2.88,3.89,6.85,3.89,11.89,0,1.52-.89,2.28-2.68,2.28h-21.31c.49,6.79,4.09,10.18,10.79,10.18,1.34,0,2.75-.17,4.22-.5,1.47-.33,2.9-.95,4.29-1.84,.94-.54,1.75-.73,2.45-.57,.69,.16,1.19,.54,1.51,1.14,.31,.6,.37,1.27,.17,2.01-.2,.74-.73,1.37-1.57,1.91-1.52,1.03-3.29,1.8-5.33,2.31-2.03,.51-3.96,.77-5.8,.77Zm-1-29.15c-2.81,0-5.05,.87-6.7,2.61-1.65,1.74-2.66,4.07-3.02,6.97h18.29c-.13-3.04-.94-5.39-2.41-7.07-1.47-1.68-3.53-2.51-6.16-2.51Z"/>
    <path class="cls-1" d="M483.42,625.3c-2.28,0-3.42-1.14-3.42-3.42v-26.8c0-2.28,1.09-3.42,3.28-3.42s3.28,1.14,3.28,3.42v2.88c.89-2.01,2.24-3.55,4.05-4.62,1.81-1.07,4.01-1.7,6.6-1.88,1.65-.13,2.55,.76,2.68,2.68,.18,1.97-.78,3.04-2.88,3.22l-1.27,.13c-5.94,.58-8.91,3.64-8.91,9.18v15.21c0,2.28-1.14,3.42-3.42,3.42Z"/>
    <path class="cls-1" d="M519.87,625.44c-5.36,0-9.58-1.51-12.66-4.52s-4.62-7.14-4.62-12.36c0-3.35,.68-6.31,2.04-8.88,1.36-2.57,3.25-4.57,5.66-6,2.41-1.43,5.18-2.14,8.31-2.14,4.51,0,8.06,1.44,10.65,4.32,2.59,2.88,3.89,6.85,3.89,11.89,0,1.52-.89,2.28-2.68,2.28h-21.31c.49,6.79,4.09,10.18,10.79,10.18,1.34,0,2.75-.17,4.22-.5,1.47-.33,2.9-.95,4.29-1.84,.94-.54,1.75-.73,2.45-.57,.69,.16,1.19,.54,1.51,1.14,.31,.6,.37,1.27,.17,2.01-.2,.74-.73,1.37-1.57,1.91-1.52,1.03-3.29,1.8-5.33,2.31-2.03,.51-3.96,.77-5.8,.77Zm-1-29.15c-2.81,0-5.05,.87-6.7,2.61-1.65,1.74-2.66,4.07-3.02,6.97h18.29c-.13-3.04-.94-5.39-2.41-7.07-1.47-1.68-3.53-2.51-6.16-2.51Z"/>
    <path class="cls-1" d="M572.4,625.44c-3.31,0-6.16-.69-8.58-2.08-2.41-1.38-4.28-3.34-5.59-5.86-1.32-2.52-1.98-5.53-1.98-9.01s.66-6.49,1.98-9.01c1.32-2.52,3.18-4.48,5.59-5.86,2.41-1.38,5.27-2.08,8.58-2.08s6.03,.69,8.44,2.08c2.41,1.39,4.29,3.34,5.63,5.86,1.34,2.52,2.01,5.53,2.01,9.01s-.67,6.49-2.01,9.01c-1.34,2.52-3.22,4.48-5.63,5.86-2.41,1.39-5.23,2.08-8.44,2.08Zm0-5.23c2.77,0,5-1,6.7-3.02,1.7-2.01,2.55-4.91,2.55-8.71s-.85-6.69-2.55-8.68c-1.7-1.99-3.93-2.98-6.7-2.98s-5.07,.99-6.77,2.98c-1.7,1.99-2.55,4.88-2.55,8.68s.85,6.7,2.55,8.71c1.7,2.01,3.95,3.02,6.77,3.02Z"/>
    <path class="cls-1" d="M599.4,625.3c-2.23,0-3.35-1.14-3.35-3.42v-26.8c0-2.28,1.09-3.42,3.28-3.42s3.28,1.14,3.28,3.42v2.48c1.12-1.96,2.65-3.46,4.59-4.49,1.94-1.03,4.12-1.54,6.53-1.54,7.73,0,11.59,4.38,11.59,13.13v17.22c0,2.28-1.12,3.42-3.35,3.42s-3.42-1.14-3.42-3.42v-16.82c0-2.81-.55-4.87-1.64-6.16-1.1-1.29-2.8-1.94-5.13-1.94-2.72,0-4.9,.86-6.53,2.58-1.63,1.72-2.45,3.99-2.45,6.8v15.54c0,2.28-1.14,3.42-3.42,3.42Z"/>
    <path class="cls-1" d="M666.26,625.44c-4.11,0-7.17-1.05-9.18-3.15-2.01-2.1-3.01-5.14-3.01-9.11v-15.81h-4.02c-1.88,0-2.81-.87-2.81-2.61s.94-2.61,2.81-2.61h4.02v-6.9c0-2.28,1.14-3.42,3.42-3.42s3.35,1.14,3.35,3.42v6.9h7.84c1.88,0,2.81,.87,2.81,2.61s-.94,2.61-2.81,2.61h-7.84v15.28c0,2.37,.5,4.15,1.51,5.36s2.65,1.81,4.92,1.81c.8,0,1.5-.08,2.08-.23,.58-.16,1.09-.26,1.54-.3,.49,0,.89,.17,1.21,.5,.31,.33,.47,.97,.47,1.91,0,.71-.12,1.35-.37,1.91-.25,.56-.68,.93-1.31,1.11-.54,.22-1.26,.4-2.18,.54-.92,.13-1.73,.2-2.45,.2Z"/>
    <path class="cls-1" d="M680.73,625.3c-2.23,0-3.35-1.14-3.35-3.42v-41.34c0-2.28,1.12-3.42,3.35-3.42s3.42,1.14,3.42,3.42v16.68c1.12-1.88,2.62-3.29,4.52-4.25,1.9-.96,4.03-1.44,6.4-1.44,7.73,0,11.59,4.38,11.59,13.13v17.22c0,2.28-1.12,3.42-3.35,3.42s-3.42-1.14-3.42-3.42v-16.82c0-2.81-.55-4.87-1.64-6.16-1.1-1.29-2.8-1.94-5.13-1.94-2.72,0-4.9,.86-6.53,2.58-1.63,1.72-2.45,3.99-2.45,6.8v15.54c0,2.28-1.14,3.42-3.42,3.42Z"/>
    <path class="cls-1" d="M731.32,625.44c-5.36,0-9.58-1.51-12.66-4.52-3.08-3.02-4.62-7.14-4.62-12.36,0-3.35,.68-6.31,2.04-8.88,1.36-2.57,3.25-4.57,5.66-6,2.41-1.43,5.18-2.14,8.31-2.14,4.51,0,8.06,1.44,10.65,4.32,2.59,2.88,3.89,6.85,3.89,11.89,0,1.52-.89,2.28-2.68,2.28h-21.31c.49,6.79,4.09,10.18,10.79,10.18,1.34,0,2.75-.17,4.22-.5,1.47-.33,2.9-.95,4.29-1.84,.94-.54,1.75-.73,2.45-.57,.69,.16,1.2,.54,1.51,1.14s.37,1.27,.17,2.01c-.2,.74-.73,1.37-1.58,1.91-1.52,1.03-3.29,1.8-5.33,2.31-2.03,.51-3.96,.77-5.8,.77Zm-1-29.15c-2.81,0-5.05,.87-6.7,2.61-1.65,1.74-2.66,4.07-3.01,6.97h18.29c-.13-3.04-.94-5.39-2.41-7.07-1.47-1.68-3.53-2.51-6.16-2.51Z"/>
    <path class="cls-1" d="M781.1,625.44c-1.97,0-4-.22-6.1-.67-2.1-.45-4-1.21-5.7-2.28-.76-.45-1.23-1-1.41-1.67s-.13-1.29,.13-1.88c.27-.58,.7-.99,1.31-1.24,.6-.24,1.28-.17,2.04,.23,1.74,.94,3.42,1.61,5.03,2.01,1.61,.4,3.19,.6,4.76,.6,2.37,0,4.15-.42,5.36-1.27,1.21-.85,1.81-1.99,1.81-3.42,0-1.16-.4-2.07-1.21-2.71-.8-.65-2.01-1.15-3.62-1.51l-6.37-1.27c-5.63-1.16-8.44-4.06-8.44-8.71,0-3.08,1.23-5.54,3.68-7.37,2.46-1.83,5.67-2.75,9.65-2.75s7.48,.98,10.38,2.95c.71,.45,1.14,.99,1.27,1.64,.13,.65,.04,1.25-.27,1.81-.31,.56-.77,.95-1.37,1.17-.6,.22-1.31,.13-2.11-.27-1.34-.8-2.68-1.4-4.02-1.78-1.34-.38-2.64-.57-3.89-.57-2.32,0-4.09,.44-5.29,1.31-1.21,.87-1.81,2.04-1.81,3.52,0,2.23,1.47,3.66,4.42,4.29l6.37,1.27c2.9,.58,5.1,1.56,6.6,2.95,1.5,1.38,2.24,3.26,2.24,5.63,0,3.13-1.23,5.57-3.68,7.34-2.46,1.77-5.72,2.65-9.78,2.65Z"/>
    <path class="cls-1" d="M816.47,625.44c-3.35,0-6.24-.7-8.68-2.11-2.43-1.41-4.32-3.39-5.66-5.96-1.34-2.57-2.01-5.59-2.01-9.08,0-5.18,1.47-9.27,4.42-12.26,2.95-2.99,6.92-4.49,11.93-4.49,1.56,0,3.2,.23,4.92,.7,1.72,.47,3.32,1.24,4.79,2.31,.71,.45,1.13,1.02,1.24,1.71,.11,.69,0,1.34-.33,1.94s-.82,1-1.44,1.21c-.63,.2-1.34,.08-2.14-.37-1.07-.76-2.17-1.31-3.28-1.64-1.12-.33-2.19-.5-3.22-.5-3.17,0-5.62,.99-7.34,2.98-1.72,1.99-2.58,4.81-2.58,8.48s.86,6.53,2.58,8.61c1.72,2.08,4.17,3.12,7.34,3.12,1.03,0,2.09-.16,3.18-.47,1.09-.31,2.2-.85,3.32-1.61,.8-.45,1.51-.56,2.11-.33,.6,.22,1.05,.64,1.34,1.24,.29,.6,.38,1.25,.27,1.94-.11,.69-.53,1.26-1.24,1.71-1.43,1.03-2.98,1.76-4.66,2.21-1.67,.45-3.29,.67-4.86,.67Z"/>
    <path class="cls-1" d="M836.77,625.3c-2.28,0-3.42-1.14-3.42-3.42v-26.8c0-2.28,1.09-3.42,3.28-3.42s3.28,1.14,3.28,3.42v2.88c.89-2.01,2.24-3.55,4.05-4.62,1.81-1.07,4.01-1.7,6.6-1.88,1.65-.13,2.55,.76,2.68,2.68,.18,1.97-.78,3.04-2.88,3.22l-1.27,.13c-5.94,.58-8.91,3.64-8.91,9.18v15.21c0,2.28-1.14,3.42-3.42,3.42Z"/>
    <path class="cls-1" d="M873.22,625.44c-5.36,0-9.58-1.51-12.66-4.52-3.08-3.02-4.62-7.14-4.62-12.36,0-3.35,.68-6.31,2.04-8.88,1.36-2.57,3.25-4.57,5.66-6,2.41-1.43,5.18-2.14,8.31-2.14,4.51,0,8.06,1.44,10.65,4.32,2.59,2.88,3.89,6.85,3.89,11.89,0,1.52-.89,2.28-2.68,2.28h-21.31c.49,6.79,4.09,10.18,10.79,10.18,1.34,0,2.75-.17,4.22-.5,1.47-.33,2.9-.95,4.29-1.84,.94-.54,1.75-.73,2.45-.57,.69,.16,1.2,.54,1.51,1.14s.37,1.27,.17,2.01c-.2,.74-.73,1.37-1.58,1.91-1.52,1.03-3.29,1.8-5.33,2.31-2.03,.51-3.96,.77-5.8,.77Zm-1-29.15c-2.81,0-5.05,.87-6.7,2.61-1.65,1.74-2.66,4.07-3.01,6.97h18.29c-.13-3.04-.94-5.39-2.41-7.07-1.47-1.68-3.53-2.51-6.16-2.51Z"/>
    <path class="cls-1" d="M909.2,625.44c-5.36,0-9.58-1.51-12.66-4.52-3.08-3.02-4.62-7.14-4.62-12.36,0-3.35,.68-6.31,2.04-8.88,1.36-2.57,3.25-4.57,5.66-6,2.41-1.43,5.18-2.14,8.31-2.14,4.51,0,8.06,1.44,10.65,4.32,2.59,2.88,3.89,6.85,3.89,11.89,0,1.52-.89,2.28-2.68,2.28h-21.31c.49,6.79,4.09,10.18,10.79,10.18,1.34,0,2.75-.17,4.22-.5,1.47-.33,2.9-.95,4.29-1.84,.94-.54,1.75-.73,2.45-.57,.69,.16,1.2,.54,1.51,1.14s.37,1.27,.17,2.01c-.2,.74-.73,1.37-1.58,1.91-1.52,1.03-3.29,1.8-5.33,2.31-2.03,.51-3.96,.77-5.8,.77Zm-1-29.15c-2.81,0-5.05,.87-6.7,2.61-1.65,1.74-2.66,4.07-3.01,6.97h18.29c-.13-3.04-.94-5.39-2.41-7.07-1.47-1.68-3.53-2.51-6.16-2.51Z"/>
    <path class="cls-1" d="M933.19,625.3c-2.23,0-3.35-1.14-3.35-3.42v-26.8c0-2.28,1.09-3.42,3.28-3.42s3.28,1.14,3.28,3.42v2.48c1.12-1.96,2.65-3.46,4.59-4.49,1.94-1.03,4.12-1.54,6.53-1.54,7.73,0,11.59,4.38,11.59,13.13v17.22c0,2.28-1.12,3.42-3.35,3.42s-3.42-1.14-3.42-3.42v-16.82c0-2.81-.55-4.87-1.64-6.16-1.1-1.29-2.8-1.94-5.13-1.94-2.72,0-4.9,.86-6.53,2.58-1.63,1.72-2.45,3.99-2.45,6.8v15.54c0,2.28-1.14,3.42-3.42,3.42Z"/>
    <path class="cls-1" d="M117.11,719.3c-2.28,0-3.42-1.14-3.42-3.42v-24.52h-3.75c-1.83,0-2.75-.87-2.75-2.61s.92-2.61,2.75-2.61h3.75v-.6c0-4.42,1.09-7.76,3.28-10.02,2.19-2.25,5.38-3.58,9.58-3.99l2.08-.13c.94-.09,1.64,.1,2.11,.57s.7,1.05,.7,1.74-.18,1.31-.54,1.84c-.36,.54-.89,.85-1.61,.94l-1.27,.07c-2.64,.18-4.56,.92-5.76,2.21-1.21,1.3-1.81,3.24-1.81,5.83v1.54h6.5c1.88,0,2.81,.87,2.81,2.61s-.94,2.61-2.81,2.61h-6.5v24.52c0,2.28-1.12,3.42-3.35,3.42Z"/>
    <path class="cls-1" d="M148.26,719.44c-3.31,0-6.16-.69-8.58-2.08-2.41-1.38-4.28-3.34-5.59-5.86-1.32-2.52-1.98-5.53-1.98-9.01s.66-6.49,1.98-9.01c1.32-2.52,3.18-4.48,5.59-5.86,2.41-1.38,5.27-2.08,8.58-2.08s6.03,.69,8.44,2.08c2.41,1.39,4.29,3.34,5.63,5.86,1.34,2.52,2.01,5.53,2.01,9.01s-.67,6.49-2.01,9.01c-1.34,2.52-3.22,4.48-5.63,5.86-2.41,1.39-5.23,2.08-8.44,2.08Zm0-5.23c2.77,0,5-1,6.7-3.02,1.7-2.01,2.55-4.91,2.55-8.71s-.85-6.69-2.55-8.68c-1.7-1.99-3.93-2.98-6.7-2.98s-5.07,.99-6.77,2.98c-1.7,1.99-2.55,4.88-2.55,8.68s.85,6.7,2.55,8.71c1.7,2.01,3.95,3.02,6.77,3.02Z"/>
    <path class="cls-1" d="M175.33,719.3c-2.28,0-3.42-1.14-3.42-3.42v-26.8c0-2.28,1.09-3.42,3.28-3.42s3.28,1.14,3.28,3.42v2.88c.89-2.01,2.24-3.55,4.05-4.62,1.81-1.07,4.01-1.7,6.6-1.88,1.65-.13,2.55,.76,2.68,2.68,.18,1.97-.78,3.04-2.88,3.22l-1.27,.13c-5.94,.58-8.91,3.64-8.91,9.18v15.21c0,2.28-1.14,3.42-3.42,3.42Z"/>
    <path class="cls-1" d="M225.04,719.44c-2.28,0-4.31-.45-6.1-1.34-1.79-.89-3.21-2.1-4.25-3.62-1.05-1.52-1.57-3.24-1.57-5.16,0-2.41,.61-4.31,1.84-5.69,1.23-1.38,3.26-2.39,6.1-3.02,2.84-.62,6.67-.94,11.49-.94h2.28v-1.74c0-2.55-.54-4.38-1.61-5.49-1.07-1.12-2.84-1.68-5.29-1.68-1.43,0-2.91,.18-4.46,.54-1.54,.36-3.14,.96-4.79,1.81-.94,.45-1.71,.51-2.31,.2-.6-.31-1.02-.8-1.24-1.47-.22-.67-.2-1.36,.07-2.08,.27-.71,.83-1.25,1.68-1.61,1.96-.89,3.91-1.55,5.83-1.98,1.92-.42,3.73-.64,5.43-.64,4.47,0,7.77,1.06,9.92,3.18,2.14,2.12,3.22,5.44,3.22,9.95v17.22c0,2.28-1.05,3.42-3.15,3.42s-3.22-1.14-3.22-3.42v-2.48c-.8,1.88-2.06,3.35-3.75,4.42-1.7,1.07-3.73,1.61-6.1,1.61Zm1.34-4.82c2.41,0,4.42-.85,6.03-2.55,1.61-1.7,2.41-3.84,2.41-6.43v-1.81h-2.21c-3.26,0-5.82,.16-7.67,.47-1.85,.31-3.17,.84-3.95,1.57-.78,.74-1.17,1.75-1.17,3.05,0,1.7,.58,3.07,1.74,4.12,1.16,1.05,2.77,1.57,4.82,1.57Z"/>
    <path class="cls-1" d="M271.6,719.3c-2.23,0-3.35-1.14-3.35-3.42v-26.8c0-2.28,1.09-3.42,3.28-3.42s3.28,1.14,3.28,3.42v2.48c1.12-1.96,2.65-3.46,4.59-4.49,1.94-1.03,4.12-1.54,6.53-1.54,7.73,0,11.59,4.38,11.59,13.13v17.22c0,2.28-1.12,3.42-3.35,3.42s-3.42-1.14-3.42-3.42v-16.82c0-2.81-.55-4.87-1.64-6.16-1.1-1.29-2.8-1.94-5.13-1.94-2.73,0-4.9,.86-6.53,2.58-1.63,1.72-2.45,3.99-2.45,6.8v15.54c0,2.28-1.14,3.42-3.42,3.42Z"/>
    <path class="cls-1" d="M322.19,719.44c-5.36,0-9.58-1.51-12.66-4.52s-4.62-7.14-4.62-12.36c0-3.35,.68-6.31,2.04-8.88,1.36-2.57,3.25-4.57,5.66-6,2.41-1.43,5.18-2.14,8.31-2.14,4.51,0,8.06,1.44,10.65,4.32,2.59,2.88,3.89,6.85,3.89,11.89,0,1.52-.89,2.28-2.68,2.28h-21.31c.49,6.79,4.09,10.18,10.79,10.18,1.34,0,2.75-.17,4.22-.5,1.47-.33,2.9-.95,4.29-1.84,.94-.54,1.75-.73,2.45-.57,.69,.16,1.19,.54,1.51,1.14,.31,.6,.37,1.27,.17,2.01-.2,.74-.73,1.37-1.57,1.91-1.52,1.03-3.29,1.8-5.33,2.31-2.03,.51-3.96,.77-5.8,.77Zm-1-29.15c-2.81,0-5.05,.87-6.7,2.61-1.65,1.74-2.66,4.07-3.02,6.97h18.29c-.13-3.04-.94-5.39-2.41-7.07-1.47-1.68-3.53-2.51-6.16-2.51Z"/>
    <path class="cls-1" d="M354.28,719.3c-1.97,0-3.33-.98-4.09-2.95l-9.85-26.06c-.54-1.34-.53-2.45,.03-3.32,.56-.87,1.51-1.31,2.85-1.31,.8,0,1.45,.19,1.94,.57,.49,.38,.94,1.11,1.34,2.18l7.97,22.51,8.31-22.78c.62-1.65,1.74-2.48,3.35-2.48s2.77,.83,3.35,2.48l8.17,22.91,8.17-22.78c.36-1.03,.81-1.72,1.37-2.08,.56-.36,1.19-.54,1.91-.54,1.34,0,2.2,.47,2.58,1.41,.38,.94,.35,2.01-.1,3.22l-9.85,26.06c-.8,1.97-2.14,2.95-4.02,2.95-2.01,0-3.37-.98-4.09-2.95l-7.71-20.9-7.64,20.9c-.72,1.97-2.06,2.95-4.02,2.95Z"/>
    <path class="cls-1" d="M420.07,731.36c-2.23,0-3.35-1.14-3.35-3.42v-38.86c0-2.28,1.09-3.42,3.28-3.42s3.35,1.14,3.35,3.42v2.55c.98-1.88,2.43-3.36,4.35-4.46,1.92-1.09,4.11-1.64,6.57-1.64,2.9,0,5.44,.69,7.6,2.08,2.17,1.39,3.84,3.34,5.02,5.86,1.18,2.52,1.78,5.53,1.78,9.01s-.59,6.5-1.78,9.04c-1.18,2.55-2.86,4.5-5.02,5.86-2.17,1.36-4.7,2.04-7.6,2.04-2.41,0-4.57-.53-6.47-1.57-1.9-1.05-3.34-2.49-4.32-4.32v14.4c0,2.28-1.14,3.42-3.42,3.42Zm12.53-17.15c2.81,0,5.06-1,6.73-3.02,1.67-2.01,2.51-4.91,2.51-8.71s-.84-6.69-2.51-8.68c-1.68-1.99-3.92-2.98-6.73-2.98s-5.06,.99-6.73,2.98c-1.67,1.99-2.51,4.88-2.51,8.68s.84,6.7,2.51,8.71c1.68,2.01,3.92,3.02,6.73,3.02Z"/>
    <path class="cls-1" d="M466.77,719.44c-2.28,0-4.31-.45-6.1-1.34-1.79-.89-3.21-2.1-4.25-3.62-1.05-1.52-1.57-3.24-1.57-5.16,0-2.41,.61-4.31,1.84-5.69,1.23-1.38,3.26-2.39,6.1-3.02,2.84-.62,6.67-.94,11.49-.94h2.28v-1.74c0-2.55-.54-4.38-1.61-5.49-1.07-1.12-2.84-1.68-5.29-1.68-1.43,0-2.91,.18-4.46,.54-1.54,.36-3.14,.96-4.79,1.81-.94,.45-1.71,.51-2.31,.2-.6-.31-1.02-.8-1.24-1.47-.22-.67-.2-1.36,.07-2.08,.27-.71,.83-1.25,1.68-1.61,1.96-.89,3.91-1.55,5.83-1.98,1.92-.42,3.73-.64,5.43-.64,4.47,0,7.77,1.06,9.92,3.18,2.14,2.12,3.22,5.44,3.22,9.95v17.22c0,2.28-1.05,3.42-3.15,3.42s-3.22-1.14-3.22-3.42v-2.48c-.8,1.88-2.06,3.35-3.75,4.42-1.7,1.07-3.73,1.61-6.1,1.61Zm1.34-4.82c2.41,0,4.42-.85,6.03-2.55,1.61-1.7,2.41-3.84,2.41-6.43v-1.81h-2.21c-3.26,0-5.82,.16-7.67,.47-1.85,.31-3.17,.84-3.95,1.57-.78,.74-1.17,1.75-1.17,3.05,0,1.7,.58,3.07,1.74,4.12,1.16,1.05,2.77,1.57,4.82,1.57Z"/>
    <path class="cls-1" d="M503.76,719.44c-1.97,0-4-.22-6.1-.67-2.1-.45-4-1.21-5.7-2.28-.76-.45-1.23-1-1.41-1.67-.18-.67-.13-1.29,.13-1.88,.27-.58,.7-.99,1.31-1.24,.6-.24,1.28-.17,2.04,.23,1.74,.94,3.42,1.61,5.02,2.01,1.61,.4,3.19,.6,4.76,.6,2.37,0,4.15-.42,5.36-1.27,1.21-.85,1.81-1.99,1.81-3.42,0-1.16-.4-2.07-1.21-2.71-.8-.65-2.01-1.15-3.62-1.51l-6.36-1.27c-5.63-1.16-8.44-4.06-8.44-8.71,0-3.08,1.23-5.54,3.69-7.37,2.46-1.83,5.67-2.75,9.65-2.75s7.48,.98,10.39,2.95c.71,.45,1.14,.99,1.27,1.64,.13,.65,.04,1.25-.27,1.81-.31,.56-.77,.95-1.37,1.17-.6,.22-1.31,.13-2.11-.27-1.34-.8-2.68-1.4-4.02-1.78-1.34-.38-2.64-.57-3.89-.57-2.32,0-4.09,.44-5.29,1.31-1.21,.87-1.81,2.04-1.81,3.52,0,2.23,1.47,3.66,4.42,4.29l6.36,1.27c2.9,.58,5.1,1.56,6.6,2.95,1.5,1.38,2.24,3.26,2.24,5.63,0,3.13-1.23,5.57-3.69,7.34-2.46,1.77-5.72,2.65-9.78,2.65Z"/>
    <path class="cls-1" d="M536.18,719.44c-1.97,0-4-.22-6.1-.67-2.1-.45-4-1.21-5.7-2.28-.76-.45-1.23-1-1.41-1.67-.18-.67-.13-1.29,.13-1.88,.27-.58,.7-.99,1.31-1.24,.6-.24,1.28-.17,2.04,.23,1.74,.94,3.42,1.61,5.02,2.01,1.61,.4,3.19,.6,4.76,.6,2.37,0,4.15-.42,5.36-1.27,1.21-.85,1.81-1.99,1.81-3.42,0-1.16-.4-2.07-1.21-2.71-.8-.65-2.01-1.15-3.62-1.51l-6.36-1.27c-5.63-1.16-8.44-4.06-8.44-8.71,0-3.08,1.23-5.54,3.69-7.37,2.46-1.83,5.67-2.75,9.65-2.75s7.48,.98,10.39,2.95c.71,.45,1.14,.99,1.27,1.64,.13,.65,.04,1.25-.27,1.81-.31,.56-.77,.95-1.37,1.17-.6,.22-1.31,.13-2.11-.27-1.34-.8-2.68-1.4-4.02-1.78-1.34-.38-2.64-.57-3.89-.57-2.32,0-4.09,.44-5.29,1.31-1.21,.87-1.81,2.04-1.81,3.52,0,2.23,1.47,3.66,4.42,4.29l6.37,1.27c2.9,.58,5.1,1.56,6.6,2.95,1.5,1.38,2.24,3.26,2.24,5.63,0,3.13-1.23,5.57-3.68,7.34-2.46,1.77-5.72,2.65-9.78,2.65Z"/>
    <path class="cls-1" d="M568.41,719.3c-1.97,0-3.33-.98-4.09-2.95l-9.85-26.06c-.54-1.34-.53-2.45,.03-3.32s1.51-1.31,2.85-1.31c.8,0,1.45,.19,1.94,.57,.49,.38,.94,1.11,1.34,2.18l7.97,22.51,8.31-22.78c.62-1.65,1.74-2.48,3.35-2.48s2.77,.83,3.35,2.48l8.17,22.91,8.17-22.78c.36-1.03,.81-1.72,1.37-2.08,.56-.36,1.2-.54,1.91-.54,1.34,0,2.2,.47,2.58,1.41,.38,.94,.35,2.01-.1,3.22l-9.85,26.06c-.8,1.97-2.14,2.95-4.02,2.95-2.01,0-3.37-.98-4.09-2.95l-7.71-20.9-7.64,20.9c-.71,1.97-2.05,2.95-4.02,2.95Z"/>
    <path class="cls-1" d="M626.77,719.44c-3.31,0-6.16-.69-8.58-2.08-2.41-1.38-4.28-3.34-5.59-5.86-1.32-2.52-1.98-5.53-1.98-9.01s.66-6.49,1.98-9.01c1.32-2.52,3.18-4.48,5.59-5.86,2.41-1.38,5.27-2.08,8.58-2.08s6.03,.69,8.44,2.08c2.41,1.39,4.29,3.34,5.63,5.86,1.34,2.52,2.01,5.53,2.01,9.01s-.67,6.49-2.01,9.01c-1.34,2.52-3.22,4.48-5.63,5.86-2.41,1.39-5.23,2.08-8.44,2.08Zm0-5.23c2.77,0,5-1,6.7-3.02,1.7-2.01,2.55-4.91,2.55-8.71s-.85-6.69-2.55-8.68c-1.7-1.99-3.93-2.98-6.7-2.98s-5.07,.99-6.77,2.98c-1.7,1.99-2.55,4.88-2.55,8.68s.85,6.7,2.55,8.71c1.7,2.01,3.95,3.02,6.77,3.02Z"/>
    <path class="cls-1" d="M653.83,719.3c-2.28,0-3.42-1.14-3.42-3.42v-26.8c0-2.28,1.09-3.42,3.28-3.42s3.28,1.14,3.28,3.42v2.88c.89-2.01,2.24-3.55,4.05-4.62,1.81-1.07,4.01-1.7,6.6-1.88,1.65-.13,2.55,.76,2.68,2.68,.18,1.97-.78,3.04-2.88,3.22l-1.27,.13c-5.94,.58-8.91,3.64-8.91,9.18v15.21c0,2.28-1.14,3.42-3.42,3.42Z"/>
    <path class="cls-1" d="M687.4,719.44c-2.86,0-5.37-.68-7.54-2.04-2.17-1.36-3.85-3.32-5.06-5.86-1.21-2.55-1.81-5.56-1.81-9.04s.6-6.49,1.81-9.01c1.21-2.52,2.88-4.48,5.03-5.86,2.14-1.38,4.67-2.08,7.57-2.08,2.46,0,4.65,.54,6.57,1.61,1.92,1.07,3.35,2.52,4.29,4.35v-16.95c0-2.28,1.12-3.42,3.35-3.42s3.42,1.14,3.42,3.42v41.34c0,2.28-1.12,3.42-3.35,3.42s-3.35-1.14-3.35-3.42v-2.55c-.98,1.88-2.43,3.36-4.35,4.46-1.92,1.09-4.11,1.64-6.57,1.64Zm1.74-5.23c2.77,0,5-1,6.7-3.02,1.7-2.01,2.55-4.91,2.55-8.71s-.85-6.69-2.55-8.68c-1.7-1.99-3.93-2.98-6.7-2.98s-5.07,.99-6.77,2.98c-1.7,1.99-2.55,4.88-2.55,8.68s.85,6.7,2.55,8.71c1.7,2.01,3.95,3.02,6.77,3.02Z"/>
    <path class="cls-1" d="M717.82,719.1c-1.34,0-2.4-.4-3.18-1.21-.78-.8-1.17-1.83-1.17-3.08s.39-2.27,1.17-3.05c.78-.78,1.84-1.17,3.18-1.17s2.32,.39,3.08,1.17c.76,.78,1.14,1.8,1.14,3.05s-.38,2.28-1.14,3.08c-.76,.8-1.79,1.21-3.08,1.21Z"/>
    <path class="cls-1" d="M763.85,719.3c-2.32,0-3.48-1.18-3.48-3.55v-38.32h-14.2c-2.01,0-3.02-.98-3.02-2.95s1-2.88,3.02-2.88h35.31c2.05,0,3.08,.96,3.08,2.88s-1.03,2.95-3.08,2.95h-14.2v38.32c0,2.37-1.14,3.55-3.42,3.55Z"/>
    <path class="cls-1" d="M794.33,719.44c-2.28,0-4.31-.45-6.1-1.34-1.79-.89-3.21-2.1-4.25-3.62-1.05-1.52-1.57-3.24-1.57-5.16,0-2.41,.61-4.31,1.84-5.69,1.23-1.38,3.26-2.39,6.1-3.02,2.84-.62,6.67-.94,11.49-.94h2.28v-1.74c0-2.55-.54-4.38-1.61-5.49-1.07-1.12-2.84-1.68-5.29-1.68-1.43,0-2.91,.18-4.46,.54-1.54,.36-3.14,.96-4.79,1.81-.94,.45-1.71,.51-2.31,.2-.6-.31-1.02-.8-1.24-1.47-.22-.67-.2-1.36,.07-2.08,.27-.71,.83-1.25,1.67-1.61,1.96-.89,3.91-1.55,5.83-1.98,1.92-.42,3.73-.64,5.43-.64,4.47,0,7.77,1.06,9.92,3.18,2.14,2.12,3.22,5.44,3.22,9.95v17.22c0,2.28-1.05,3.42-3.15,3.42s-3.22-1.14-3.22-3.42v-2.48c-.8,1.88-2.05,3.35-3.75,4.42-1.7,1.07-3.73,1.61-6.1,1.61Zm1.34-4.82c2.41,0,4.42-.85,6.03-2.55,1.61-1.7,2.41-3.84,2.41-6.43v-1.81h-2.21c-3.26,0-5.82,.16-7.67,.47-1.85,.31-3.17,.84-3.95,1.57-.78,.74-1.17,1.75-1.17,3.05,0,1.7,.58,3.07,1.74,4.12,1.16,1.05,2.77,1.57,4.82,1.57Z"/>
    <path class="cls-1" d="M823.21,731.36c-2.23,0-3.35-1.14-3.35-3.42v-38.86c0-2.28,1.09-3.42,3.28-3.42s3.35,1.14,3.35,3.42v2.55c.98-1.88,2.43-3.36,4.36-4.46,1.92-1.09,4.11-1.64,6.57-1.64,2.9,0,5.44,.69,7.6,2.08,2.17,1.39,3.84,3.34,5.03,5.86,1.18,2.52,1.78,5.53,1.78,9.01s-.59,6.5-1.78,9.04c-1.18,2.55-2.86,4.5-5.03,5.86-2.17,1.36-4.7,2.04-7.6,2.04-2.41,0-4.57-.53-6.46-1.57-1.9-1.05-3.34-2.49-4.32-4.32v14.4c0,2.28-1.14,3.42-3.42,3.42Zm12.53-17.15c2.81,0,5.06-1,6.73-3.02,1.68-2.01,2.51-4.91,2.51-8.71s-.84-6.69-2.51-8.68c-1.67-1.99-3.92-2.98-6.73-2.98s-5.06,.99-6.73,2.98c-1.67,1.99-2.51,4.88-2.51,8.68s.84,6.7,2.51,8.71c1.67,2.01,3.92,3.02,6.73,3.02Z"/>
    <path class="cls-1" d="M891.08,719.44c-4.11,0-7.17-1.05-9.18-3.15-2.01-2.1-3.01-5.14-3.01-9.11v-15.81h-4.02c-1.88,0-2.81-.87-2.81-2.61s.94-2.61,2.81-2.61h4.02v-6.9c0-2.28,1.14-3.42,3.42-3.42s3.35,1.14,3.35,3.42v6.9h7.84c1.88,0,2.81,.87,2.81,2.61s-.94,2.61-2.81,2.61h-7.84v15.28c0,2.37,.5,4.15,1.51,5.36s2.65,1.81,4.92,1.81c.8,0,1.5-.08,2.08-.23,.58-.16,1.09-.26,1.54-.3,.49,0,.89,.17,1.21,.5,.31,.33,.47,.97,.47,1.91,0,.71-.12,1.35-.37,1.91-.25,.56-.68,.93-1.31,1.11-.54,.22-1.26,.4-2.18,.54-.92,.13-1.73,.2-2.45,.2Z"/>
    <path class="cls-1" d="M905.55,719.3c-2.23,0-3.35-1.14-3.35-3.42v-41.34c0-2.28,1.12-3.42,3.35-3.42s3.42,1.14,3.42,3.42v16.68c1.12-1.88,2.62-3.29,4.52-4.25,1.9-.96,4.03-1.44,6.4-1.44,7.73,0,11.59,4.38,11.59,13.13v17.22c0,2.28-1.12,3.42-3.35,3.42s-3.42-1.14-3.42-3.42v-16.82c0-2.81-.55-4.87-1.64-6.16-1.1-1.29-2.8-1.94-5.13-1.94-2.72,0-4.9,.86-6.53,2.58-1.63,1.72-2.45,3.99-2.45,6.8v15.54c0,2.28-1.14,3.42-3.42,3.42Z"/>
    <path class="cls-1" d="M956.13,719.44c-5.36,0-9.58-1.51-12.66-4.52-3.08-3.02-4.62-7.14-4.62-12.36,0-3.35,.68-6.31,2.04-8.88,1.36-2.57,3.25-4.57,5.66-6,2.41-1.43,5.18-2.14,8.31-2.14,4.51,0,8.06,1.44,10.65,4.32,2.59,2.88,3.89,6.85,3.89,11.89,0,1.52-.89,2.28-2.68,2.28h-21.31c.49,6.79,4.09,10.18,10.79,10.18,1.34,0,2.75-.17,4.22-.5,1.47-.33,2.9-.95,4.29-1.84,.94-.54,1.75-.73,2.45-.57,.69,.16,1.2,.54,1.51,1.14s.37,1.27,.17,2.01c-.2,.74-.73,1.37-1.58,1.91-1.52,1.03-3.29,1.8-5.33,2.31-2.03,.51-3.96,.77-5.8,.77Zm-1-29.15c-2.81,0-5.05,.87-6.7,2.61-1.65,1.74-2.66,4.07-3.01,6.97h18.29c-.13-3.04-.94-5.39-2.41-7.07-1.47-1.68-3.53-2.51-6.16-2.51Z"/>
    <path class="cls-1" d="M124.84,825.36c-2.23,0-3.35-1.14-3.35-3.42v-38.86c0-2.28,1.09-3.42,3.28-3.42s3.35,1.14,3.35,3.42v2.55c.98-1.88,2.43-3.36,4.35-4.46,1.92-1.09,4.11-1.64,6.57-1.64,2.9,0,5.44,.69,7.6,2.08,2.17,1.39,3.84,3.34,5.02,5.86,1.18,2.52,1.78,5.53,1.78,9.01s-.59,6.5-1.78,9.04c-1.18,2.55-2.86,4.5-5.02,5.86-2.17,1.36-4.7,2.04-7.6,2.04-2.41,0-4.57-.53-6.47-1.57-1.9-1.05-3.34-2.49-4.32-4.32v14.4c0,2.28-1.14,3.42-3.42,3.42Zm12.53-17.15c2.81,0,5.06-1,6.73-3.02,1.67-2.01,2.51-4.91,2.51-8.71s-.84-6.69-2.51-8.68c-1.68-1.99-3.92-2.98-6.73-2.98s-5.06,.99-6.73,2.98c-1.67,1.99-2.51,4.88-2.51,8.68s.84,6.7,2.51,8.71c1.68,2.01,3.92,3.02,6.73,3.02Z"/>
    <path class="cls-1" d="M171.54,813.44c-2.28,0-4.31-.45-6.1-1.34-1.79-.89-3.21-2.1-4.25-3.62-1.05-1.52-1.57-3.24-1.57-5.16,0-2.41,.61-4.31,1.84-5.69,1.23-1.38,3.26-2.39,6.1-3.02,2.84-.62,6.67-.94,11.49-.94h2.28v-1.74c0-2.55-.54-4.38-1.61-5.49-1.07-1.12-2.84-1.68-5.29-1.68-1.43,0-2.91,.18-4.46,.54-1.54,.36-3.14,.96-4.79,1.81-.94,.45-1.71,.51-2.31,.2-.6-.31-1.02-.8-1.24-1.47-.22-.67-.2-1.36,.07-2.08,.27-.71,.83-1.25,1.68-1.61,1.96-.89,3.91-1.55,5.83-1.98,1.92-.42,3.73-.64,5.43-.64,4.47,0,7.77,1.06,9.92,3.18,2.14,2.12,3.22,5.44,3.22,9.95v17.22c0,2.28-1.05,3.42-3.15,3.42s-3.22-1.14-3.22-3.42v-2.48c-.8,1.88-2.06,3.35-3.75,4.42-1.7,1.07-3.73,1.61-6.1,1.61Zm1.34-4.82c2.41,0,4.42-.85,6.03-2.55,1.61-1.7,2.41-3.84,2.41-6.43v-1.81h-2.21c-3.26,0-5.82,.16-7.67,.47-1.85,.31-3.17,.84-3.95,1.57-.78,.74-1.17,1.75-1.17,3.05,0,1.7,.58,3.07,1.74,4.12,1.16,1.05,2.77,1.57,4.82,1.57Z"/>
    <path class="cls-1" d="M208.52,813.44c-1.97,0-4-.22-6.1-.67-2.1-.45-4-1.21-5.7-2.28-.76-.45-1.23-1-1.41-1.67-.18-.67-.13-1.29,.13-1.88,.27-.58,.7-.99,1.31-1.24,.6-.24,1.28-.17,2.04,.23,1.74,.94,3.42,1.61,5.02,2.01,1.61,.4,3.19,.6,4.76,.6,2.37,0,4.15-.42,5.36-1.27,1.21-.85,1.81-1.99,1.81-3.42,0-1.16-.4-2.07-1.21-2.71-.8-.65-2.01-1.15-3.62-1.51l-6.36-1.27c-5.63-1.16-8.44-4.06-8.44-8.71,0-3.08,1.23-5.54,3.69-7.37,2.46-1.83,5.67-2.75,9.65-2.75s7.48,.98,10.39,2.95c.71,.45,1.14,.99,1.27,1.64,.13,.65,.04,1.25-.27,1.81-.31,.56-.77,.95-1.37,1.17-.6,.22-1.31,.13-2.11-.27-1.34-.8-2.68-1.4-4.02-1.78-1.34-.38-2.64-.57-3.89-.57-2.32,0-4.09,.44-5.29,1.31-1.21,.87-1.81,2.04-1.81,3.52,0,2.23,1.47,3.66,4.42,4.29l6.36,1.27c2.9,.58,5.1,1.56,6.6,2.95,1.5,1.38,2.24,3.26,2.24,5.63,0,3.13-1.23,5.57-3.69,7.34-2.46,1.77-5.72,2.65-9.78,2.65Z"/>
    <path class="cls-1" d="M240.95,813.44c-1.97,0-4-.22-6.1-.67-2.1-.45-4-1.21-5.7-2.28-.76-.45-1.23-1-1.41-1.67-.18-.67-.13-1.29,.13-1.88,.27-.58,.7-.99,1.31-1.24,.6-.24,1.28-.17,2.04,.23,1.74,.94,3.42,1.61,5.02,2.01,1.61,.4,3.19,.6,4.76,.6,2.37,0,4.15-.42,5.36-1.27,1.21-.85,1.81-1.99,1.81-3.42,0-1.16-.4-2.07-1.21-2.71-.8-.65-2.01-1.15-3.62-1.51l-6.36-1.27c-5.63-1.16-8.44-4.06-8.44-8.71,0-3.08,1.23-5.54,3.69-7.37,2.46-1.83,5.67-2.75,9.65-2.75s7.48,.98,10.39,2.95c.71,.45,1.14,.99,1.27,1.64,.13,.65,.04,1.25-.27,1.81-.31,.56-.77,.95-1.37,1.17-.6,.22-1.31,.13-2.11-.27-1.34-.8-2.68-1.4-4.02-1.78-1.34-.38-2.64-.57-3.89-.57-2.32,0-4.09,.44-5.29,1.31-1.21,.87-1.81,2.04-1.81,3.52,0,2.23,1.47,3.66,4.42,4.29l6.36,1.27c2.9,.58,5.1,1.56,6.6,2.95,1.5,1.38,2.24,3.26,2.24,5.63,0,3.13-1.23,5.57-3.69,7.34-2.46,1.77-5.72,2.65-9.78,2.65Z"/>
    <path class="cls-1" d="M273.18,813.3c-1.97,0-3.33-.98-4.09-2.95l-9.85-26.06c-.54-1.34-.53-2.45,.03-3.32,.56-.87,1.51-1.31,2.85-1.31,.8,0,1.45,.19,1.94,.57,.49,.38,.94,1.11,1.34,2.18l7.97,22.51,8.31-22.78c.62-1.65,1.74-2.48,3.35-2.48s2.77,.83,3.35,2.48l8.17,22.91,8.17-22.78c.36-1.03,.81-1.72,1.37-2.08,.56-.36,1.19-.54,1.91-.54,1.34,0,2.2,.47,2.58,1.41,.38,.94,.35,2.01-.1,3.22l-9.85,26.06c-.8,1.97-2.14,2.95-4.02,2.95-2.01,0-3.37-.98-4.09-2.95l-7.71-20.9-7.64,20.9c-.72,1.97-2.06,2.95-4.02,2.95Z"/>
    <path class="cls-1" d="M331.54,813.44c-3.31,0-6.16-.69-8.58-2.08-2.41-1.38-4.28-3.34-5.59-5.86-1.32-2.52-1.98-5.53-1.98-9.01s.66-6.49,1.98-9.01c1.32-2.52,3.18-4.48,5.59-5.86,2.41-1.38,5.27-2.08,8.58-2.08s6.03,.69,8.44,2.08c2.41,1.39,4.29,3.34,5.63,5.86,1.34,2.52,2.01,5.53,2.01,9.01s-.67,6.49-2.01,9.01c-1.34,2.52-3.22,4.48-5.63,5.86-2.41,1.39-5.23,2.08-8.44,2.08Zm0-5.23c2.77,0,5-1,6.7-3.02,1.7-2.01,2.55-4.91,2.55-8.71s-.85-6.69-2.55-8.68c-1.7-1.99-3.93-2.98-6.7-2.98s-5.07,.99-6.77,2.98c-1.7,1.99-2.55,4.88-2.55,8.68s.85,6.7,2.55,8.71c1.7,2.01,3.95,3.02,6.77,3.02Z"/>
    <path class="cls-1" d="M358.6,813.3c-2.28,0-3.42-1.14-3.42-3.42v-26.8c0-2.28,1.09-3.42,3.28-3.42s3.28,1.14,3.28,3.42v2.88c.89-2.01,2.24-3.55,4.05-4.62,1.81-1.07,4.01-1.7,6.6-1.88,1.65-.13,2.55,.76,2.68,2.68,.18,1.97-.78,3.04-2.88,3.22l-1.27,.13c-5.94,.58-8.91,3.64-8.91,9.18v15.21c0,2.28-1.14,3.42-3.42,3.42Z"/>
    <path class="cls-1" d="M392.17,813.44c-2.86,0-5.37-.68-7.54-2.04-2.17-1.36-3.85-3.32-5.06-5.86-1.21-2.55-1.81-5.56-1.81-9.04s.6-6.49,1.81-9.01c1.21-2.52,2.88-4.48,5.02-5.86,2.14-1.38,4.67-2.08,7.57-2.08,2.46,0,4.64,.54,6.57,1.61,1.92,1.07,3.35,2.52,4.29,4.35v-16.95c0-2.28,1.12-3.42,3.35-3.42s3.42,1.14,3.42,3.42v41.34c0,2.28-1.12,3.42-3.35,3.42s-3.35-1.14-3.35-3.42v-2.55c-.98,1.88-2.44,3.36-4.35,4.46-1.92,1.09-4.11,1.64-6.57,1.64Zm1.74-5.23c2.77,0,5-1,6.7-3.02,1.7-2.01,2.55-4.91,2.55-8.71s-.85-6.69-2.55-8.68c-1.7-1.99-3.93-2.98-6.7-2.98s-5.07,.99-6.77,2.98c-1.7,1.99-2.55,4.88-2.55,8.68s.85,6.7,2.55,8.71c1.7,2.01,3.95,3.02,6.77,3.02Z"/>
    <path class="cls-1" d="M440.34,772.83c-1.34,0-2.38-.33-3.12-1-.74-.67-1.11-1.61-1.11-2.81,0-2.55,1.41-3.82,4.22-3.82s4.22,1.27,4.22,3.82-1.41,3.82-4.22,3.82Zm0,40.4c-2.23,0-3.35-1.23-3.35-3.69v-26.13c0-2.41,1.12-3.62,3.35-3.62s3.42,1.21,3.42,3.62v26.13c0,2.46-1.14,3.69-3.42,3.69Z"/>
    <path class="cls-1" d="M467.21,813.44c-4.11,0-7.17-1.05-9.18-3.15-2.01-2.1-3.02-5.14-3.02-9.11v-15.81h-4.02c-1.88,0-2.81-.87-2.81-2.61s.94-2.61,2.81-2.61h4.02v-6.9c0-2.28,1.14-3.42,3.42-3.42s3.35,1.14,3.35,3.42v6.9h7.84c1.88,0,2.81,.87,2.81,2.61s-.94,2.61-2.81,2.61h-7.84v15.28c0,2.37,.5,4.15,1.51,5.36s2.65,1.81,4.92,1.81c.8,0,1.5-.08,2.08-.23,.58-.16,1.09-.26,1.54-.3,.49,0,.89,.17,1.21,.5,.31,.33,.47,.97,.47,1.91,0,.71-.12,1.35-.37,1.91-.25,.56-.68,.93-1.31,1.11-.54,.22-1.26,.4-2.18,.54-.92,.13-1.73,.2-2.45,.2Z"/>
    <path class="cls-1" d="M489.18,813.44c-1.97,0-4-.22-6.1-.67-2.1-.45-4-1.21-5.7-2.28-.76-.45-1.23-1-1.41-1.67-.18-.67-.13-1.29,.13-1.88,.27-.58,.7-.99,1.31-1.24,.6-.24,1.28-.17,2.04,.23,1.74,.94,3.42,1.61,5.02,2.01,1.61,.4,3.19,.6,4.76,.6,2.37,0,4.15-.42,5.36-1.27,1.21-.85,1.81-1.99,1.81-3.42,0-1.16-.4-2.07-1.21-2.71-.8-.65-2.01-1.15-3.62-1.51l-6.36-1.27c-5.63-1.16-8.44-4.06-8.44-8.71,0-3.08,1.23-5.54,3.69-7.37,2.46-1.83,5.67-2.75,9.65-2.75s7.48,.98,10.39,2.95c.71,.45,1.14,.99,1.27,1.64,.13,.65,.04,1.25-.27,1.81-.31,.56-.77,.95-1.37,1.17-.6,.22-1.31,.13-2.11-.27-1.34-.8-2.68-1.4-4.02-1.78-1.34-.38-2.64-.57-3.89-.57-2.32,0-4.09,.44-5.29,1.31-1.21,.87-1.81,2.04-1.81,3.52,0,2.23,1.47,3.66,4.42,4.29l6.36,1.27c2.9,.58,5.1,1.56,6.6,2.95,1.5,1.38,2.24,3.26,2.24,5.63,0,3.13-1.23,5.57-3.69,7.34-2.46,1.77-5.72,2.65-9.78,2.65Z"/>
    <path class="cls-1" d="M525.5,813.44c-5.36,0-9.58-1.51-12.66-4.52s-4.62-7.14-4.62-12.36c0-3.35,.68-6.31,2.04-8.88,1.36-2.57,3.25-4.57,5.66-6,2.41-1.43,5.18-2.14,8.31-2.14,4.51,0,8.06,1.44,10.65,4.32,2.59,2.88,3.89,6.85,3.89,11.89,0,1.52-.89,2.28-2.68,2.28h-21.31c.49,6.79,4.09,10.18,10.79,10.18,1.34,0,2.75-.17,4.22-.5,1.47-.33,2.9-.95,4.29-1.84,.94-.54,1.75-.73,2.45-.57,.69,.16,1.19,.54,1.51,1.14,.31,.6,.37,1.27,.17,2.01-.2,.74-.73,1.37-1.57,1.91-1.52,1.03-3.29,1.8-5.33,2.31-2.03,.51-3.96,.77-5.8,.77Zm-1-29.15c-2.81,0-5.05,.87-6.7,2.61-1.65,1.74-2.66,4.07-3.02,6.97h18.29c-.13-3.04-.94-5.39-2.41-7.07-1.47-1.68-3.53-2.51-6.16-2.51Z"/>
    <path class="cls-1" d="M556.65,813.44c-3.48,0-6.11-1-7.87-3.02-1.76-2.01-2.65-4.96-2.65-8.84v-33.03c0-2.28,1.12-3.42,3.35-3.42s3.42,1.14,3.42,3.42v32.63c0,4.42,1.79,6.63,5.36,6.63,.4,0,.76-.02,1.07-.07,.31-.04,.62-.07,.94-.07,.54-.04,.92,.1,1.14,.44,.22,.33,.33,1.02,.33,2.04,0,1.83-.85,2.88-2.55,3.15-.45,.04-.88,.08-1.31,.1-.42,.02-.84,.03-1.24,.03Z"/>
    <path class="cls-1" d="M571.39,813.3c-2.28,0-3.42-1.14-3.42-3.42v-24.52h-3.75c-1.83,0-2.75-.87-2.75-2.61s.92-2.61,2.75-2.61h3.75v-.6c0-4.42,1.09-7.76,3.28-10.02,2.19-2.25,5.38-3.58,9.58-3.99l2.08-.13c.94-.09,1.64,.1,2.11,.57,.47,.47,.7,1.05,.7,1.74s-.18,1.31-.54,1.84c-.36,.54-.89,.85-1.61,.94l-1.27,.07c-2.64,.18-4.56,.92-5.76,2.21-1.21,1.3-1.81,3.24-1.81,5.83v1.54h6.5c1.88,0,2.81,.87,2.81,2.61s-.94,2.61-2.81,2.61h-6.5v24.52c0,2.28-1.12,3.42-3.35,3.42Z"/>
    <path class="cls-1" d="M620.91,813.44c-4.11,0-7.17-1.05-9.18-3.15-2.01-2.1-3.01-5.14-3.01-9.11v-15.81h-4.02c-1.88,0-2.81-.87-2.81-2.61s.94-2.61,2.81-2.61h4.02v-6.9c0-2.28,1.14-3.42,3.42-3.42s3.35,1.14,3.35,3.42v6.9h7.84c1.88,0,2.81,.87,2.81,2.61s-.94,2.61-2.81,2.61h-7.84v15.28c0,2.37,.5,4.15,1.51,5.36s2.65,1.81,4.92,1.81c.8,0,1.5-.08,2.08-.23,.58-.16,1.09-.26,1.54-.3,.49,0,.89,.17,1.21,.5,.31,.33,.47,.97,.47,1.91,0,.71-.12,1.35-.37,1.91-.25,.56-.68,.93-1.31,1.11-.54,.22-1.26,.4-2.18,.54-.92,.13-1.73,.2-2.45,.2Z"/>
    <path class="cls-1" d="M645.29,813.44c-3.31,0-6.16-.69-8.58-2.08-2.41-1.38-4.28-3.34-5.59-5.86-1.32-2.52-1.98-5.53-1.98-9.01s.66-6.49,1.98-9.01c1.32-2.52,3.18-4.48,5.59-5.86,2.41-1.38,5.27-2.08,8.58-2.08s6.03,.69,8.44,2.08c2.41,1.39,4.29,3.34,5.63,5.86,1.34,2.52,2.01,5.53,2.01,9.01s-.67,6.49-2.01,9.01c-1.34,2.52-3.22,4.48-5.63,5.86-2.41,1.39-5.23,2.08-8.44,2.08Zm0-5.23c2.77,0,5-1,6.7-3.02,1.7-2.01,2.55-4.91,2.55-8.71s-.85-6.69-2.55-8.68c-1.7-1.99-3.93-2.98-6.7-2.98s-5.07,.99-6.77,2.98c-1.7,1.99-2.55,4.88-2.55,8.68s.85,6.7,2.55,8.71c1.7,2.01,3.95,3.02,6.77,3.02Z"/>
    <path class="cls-1" d="M701.04,813.44c-3.35,0-6.24-.7-8.68-2.11-2.43-1.41-4.32-3.39-5.66-5.96-1.34-2.57-2.01-5.59-2.01-9.08,0-5.18,1.47-9.27,4.42-12.26,2.95-2.99,6.92-4.49,11.93-4.49,1.56,0,3.2,.23,4.92,.7,1.72,.47,3.32,1.24,4.79,2.31,.71,.45,1.13,1.02,1.24,1.71,.11,.69,0,1.34-.33,1.94s-.82,1-1.44,1.21c-.63,.2-1.34,.08-2.14-.37-1.07-.76-2.17-1.31-3.28-1.64-1.12-.33-2.19-.5-3.22-.5-3.17,0-5.62,.99-7.34,2.98-1.72,1.99-2.58,4.81-2.58,8.48s.86,6.53,2.58,8.61c1.72,2.08,4.17,3.12,7.34,3.12,1.03,0,2.09-.16,3.18-.47,1.09-.31,2.2-.85,3.32-1.61,.8-.45,1.51-.56,2.11-.33,.6,.22,1.05,.64,1.34,1.24,.29,.6,.38,1.25,.27,1.94-.11,.69-.53,1.26-1.24,1.71-1.43,1.03-2.98,1.76-4.66,2.21-1.67,.45-3.29,.67-4.86,.67Z"/>
    <path class="cls-1" d="M731.45,813.44c-3.31,0-6.16-.69-8.58-2.08-2.41-1.38-4.28-3.34-5.59-5.86-1.32-2.52-1.98-5.53-1.98-9.01s.66-6.49,1.98-9.01c1.32-2.52,3.18-4.48,5.59-5.86,2.41-1.38,5.27-2.08,8.58-2.08s6.03,.69,8.44,2.08c2.41,1.39,4.29,3.34,5.63,5.86,1.34,2.52,2.01,5.53,2.01,9.01s-.67,6.49-2.01,9.01c-1.34,2.52-3.22,4.48-5.63,5.86-2.41,1.39-5.23,2.08-8.44,2.08Zm0-5.23c2.77,0,5-1,6.7-3.02,1.7-2.01,2.55-4.91,2.55-8.71s-.85-6.69-2.55-8.68c-1.7-1.99-3.93-2.98-6.7-2.98s-5.07,.99-6.77,2.98c-1.7,1.99-2.55,4.88-2.55,8.68s.85,6.7,2.55,8.71c1.7,2.01,3.95,3.02,6.77,3.02Z"/>
    <path class="cls-1" d="M758.46,825.36c-2.23,0-3.35-1.14-3.35-3.42v-38.86c0-2.28,1.09-3.42,3.28-3.42s3.35,1.14,3.35,3.42v2.55c.98-1.88,2.43-3.36,4.36-4.46,1.92-1.09,4.11-1.64,6.57-1.64,2.9,0,5.44,.69,7.6,2.08,2.17,1.39,3.84,3.34,5.03,5.86,1.18,2.52,1.78,5.53,1.78,9.01s-.59,6.5-1.78,9.04c-1.18,2.55-2.86,4.5-5.03,5.86-2.17,1.36-4.7,2.04-7.6,2.04-2.41,0-4.57-.53-6.46-1.57-1.9-1.05-3.34-2.49-4.32-4.32v14.4c0,2.28-1.14,3.42-3.42,3.42Zm12.53-17.15c2.81,0,5.06-1,6.73-3.02,1.68-2.01,2.51-4.91,2.51-8.71s-.84-6.69-2.51-8.68c-1.67-1.99-3.92-2.98-6.73-2.98s-5.06,.99-6.73,2.98c-1.67,1.99-2.51,4.88-2.51,8.68s.84,6.7,2.51,8.71c1.67,2.01,3.92,3.02,6.73,3.02Z"/>
    <path class="cls-1" d="M801.8,825.36c-1.25,0-2.11-.46-2.58-1.37-.47-.92-.44-1.98,.1-3.18l3.95-8.84-11.93-27.67c-.54-1.21-.55-2.28-.03-3.22,.51-.94,1.53-1.41,3.05-1.41,.8,0,1.46,.2,1.98,.6,.51,.4,.97,1.1,1.37,2.08l9.18,22.65,9.31-22.65c.4-1.03,.87-1.73,1.41-2.11,.54-.38,1.27-.57,2.21-.57,1.21,0,2.03,.47,2.48,1.41,.45,.94,.42,1.99-.07,3.15l-16.75,38.52c-.45,1.03-.95,1.72-1.51,2.08-.56,.36-1.28,.54-2.18,.54Z"/>
    <path class="cls-1" d="M849.98,772.83c-1.34,0-2.38-.33-3.12-1-.74-.67-1.11-1.61-1.11-2.81,0-2.55,1.41-3.82,4.22-3.82s4.22,1.27,4.22,3.82-1.41,3.82-4.22,3.82Zm0,40.4c-2.23,0-3.35-1.23-3.35-3.69v-26.13c0-2.41,1.12-3.62,3.35-3.62s3.42,1.21,3.42,3.62v26.13c0,2.46-1.14,3.69-3.42,3.69Z"/>
    <path class="cls-1" d="M876.84,813.44c-4.11,0-7.17-1.05-9.18-3.15-2.01-2.1-3.01-5.14-3.01-9.11v-15.81h-4.02c-1.88,0-2.81-.87-2.81-2.61s.94-2.61,2.81-2.61h4.02v-6.9c0-2.28,1.14-3.42,3.42-3.42s3.35,1.14,3.35,3.42v6.9h7.84c1.88,0,2.81,.87,2.81,2.61s-.94,2.61-2.81,2.61h-7.84v15.28c0,2.37,.5,4.15,1.51,5.36s2.65,1.81,4.92,1.81c.8,0,1.5-.08,2.08-.23,.58-.16,1.09-.26,1.54-.3,.49,0,.89,.17,1.21,.5,.31,.33,.47,.97,.47,1.91,0,.71-.12,1.35-.37,1.91-.25,.56-.68,.93-1.31,1.11-.54,.22-1.26,.4-2.18,.54-.92,.13-1.73,.2-2.45,.2Z"/>
    <path class="cls-1" d="M918.98,813.44c-4.11,0-7.17-1.05-9.18-3.15-2.01-2.1-3.01-5.14-3.01-9.11v-15.81h-4.02c-1.88,0-2.81-.87-2.81-2.61s.94-2.61,2.81-2.61h4.02v-6.9c0-2.28,1.14-3.42,3.42-3.42s3.35,1.14,3.35,3.42v6.9h7.84c1.88,0,2.81,.87,2.81,2.61s-.94,2.61-2.81,2.61h-7.84v15.28c0,2.37,.5,4.15,1.51,5.36s2.65,1.81,4.92,1.81c.8,0,1.5-.08,2.08-.23,.58-.16,1.09-.26,1.54-.3,.49,0,.89,.17,1.21,.5,.31,.33,.47,.97,.47,1.91,0,.71-.12,1.35-.37,1.91-.25,.56-.68,.93-1.31,1.11-.54,.22-1.26,.4-2.18,.54-.92,.13-1.73,.2-2.45,.2Z"/>
    <path class="cls-1" d="M943.37,813.44c-3.31,0-6.16-.69-8.58-2.08-2.41-1.38-4.28-3.34-5.59-5.86-1.32-2.52-1.98-5.53-1.98-9.01s.66-6.49,1.98-9.01c1.32-2.52,3.18-4.48,5.59-5.86,2.41-1.38,5.27-2.08,8.58-2.08s6.03,.69,8.44,2.08c2.41,1.39,4.29,3.34,5.63,5.86,1.34,2.52,2.01,5.53,2.01,9.01s-.67,6.49-2.01,9.01c-1.34,2.52-3.22,4.48-5.63,5.86-2.41,1.39-5.23,2.08-8.44,2.08Zm0-5.23c2.77,0,5-1,6.7-3.02,1.7-2.01,2.55-4.91,2.55-8.71s-.85-6.69-2.55-8.68c-1.7-1.99-3.93-2.98-6.7-2.98s-5.07,.99-6.77,2.98c-1.7,1.99-2.55,4.88-2.55,8.68s.85,6.7,2.55,8.71c1.7,2.01,3.95,3.02,6.77,3.02Z"/>
    <path class="cls-1" d="M324.97,919.36c-1.25,0-2.11-.46-2.58-1.37-.47-.92-.44-1.98,.1-3.18l3.95-8.84-11.93-27.67c-.54-1.21-.55-2.28-.03-3.22,.51-.94,1.53-1.41,3.05-1.41,.8,0,1.46,.2,1.98,.6,.51,.4,.97,1.1,1.37,2.08l9.18,22.65,9.31-22.65c.4-1.03,.87-1.73,1.41-2.11,.54-.38,1.27-.57,2.21-.57,1.21,0,2.03,.47,2.48,1.41,.45,.94,.42,1.99-.07,3.15l-16.75,38.52c-.45,1.03-.95,1.72-1.51,2.08-.56,.36-1.28,.54-2.18,.54Z"/>
    <path class="cls-1" d="M365.71,907.44c-3.31,0-6.16-.69-8.58-2.08-2.41-1.38-4.28-3.34-5.59-5.86-1.32-2.52-1.98-5.53-1.98-9.01s.66-6.49,1.98-9.01c1.32-2.52,3.18-4.48,5.59-5.86,2.41-1.38,5.27-2.08,8.58-2.08s6.03,.69,8.44,2.08c2.41,1.39,4.29,3.34,5.63,5.86,1.34,2.52,2.01,5.53,2.01,9.01s-.67,6.49-2.01,9.01c-1.34,2.52-3.22,4.48-5.63,5.86-2.41,1.39-5.23,2.08-8.44,2.08Zm0-5.23c2.77,0,5-1,6.7-3.02,1.7-2.01,2.55-4.91,2.55-8.71s-.85-6.69-2.55-8.68c-1.7-1.99-3.93-2.98-6.7-2.98s-5.07,.99-6.77,2.98c-1.7,1.99-2.55,4.88-2.55,8.68s.85,6.7,2.55,8.71c1.7,2.01,3.95,3.02,6.77,3.02Z"/>
    <path class="cls-1" d="M401.01,907.44c-7.91,0-11.86-4.4-11.86-13.2v-17.15c0-2.28,1.12-3.42,3.35-3.42s3.42,1.14,3.42,3.42v17.22c0,2.64,.54,4.58,1.61,5.83,1.07,1.25,2.77,1.88,5.09,1.88,2.55,0,4.61-.85,6.2-2.55,1.58-1.7,2.38-3.98,2.38-6.83v-15.54c0-2.28,1.14-3.42,3.42-3.42s3.35,1.14,3.35,3.42v26.8c0,2.28-1.1,3.42-3.28,3.42s-3.28-1.14-3.28-3.42v-2.28c-1.07,1.92-2.5,3.37-4.29,4.35-1.79,.98-3.82,1.47-6.1,1.47Z"/>
    <path class="cls-1" d="M430.9,907.3c-2.28,0-3.42-1.14-3.42-3.42v-26.8c0-2.28,1.09-3.42,3.28-3.42s3.28,1.14,3.28,3.42v2.88c.89-2.01,2.24-3.55,4.05-4.62,1.81-1.07,4.01-1.7,6.6-1.88,1.65-.13,2.55,.76,2.68,2.68,.18,1.97-.78,3.04-2.88,3.22l-1.27,.13c-5.94,.58-8.91,3.64-8.91,9.18v15.21c0,2.28-1.14,3.42-3.42,3.42Z"/>
    <path class="cls-1" d="M484.56,907.44c-3.35,0-6.24-.7-8.68-2.11-2.44-1.41-4.32-3.39-5.66-5.96-1.34-2.57-2.01-5.59-2.01-9.08,0-5.18,1.47-9.27,4.42-12.26,2.95-2.99,6.92-4.49,11.93-4.49,1.56,0,3.2,.23,4.92,.7,1.72,.47,3.32,1.24,4.79,2.31,.71,.45,1.13,1.02,1.24,1.71,.11,.69,0,1.34-.33,1.94-.34,.6-.82,1-1.44,1.21-.63,.2-1.34,.08-2.14-.37-1.07-.76-2.17-1.31-3.28-1.64-1.12-.33-2.19-.5-3.22-.5-3.17,0-5.62,.99-7.34,2.98-1.72,1.99-2.58,4.81-2.58,8.48s.86,6.53,2.58,8.61c1.72,2.08,4.16,3.12,7.34,3.12,1.03,0,2.09-.16,3.18-.47,1.09-.31,2.2-.85,3.32-1.61,.8-.45,1.51-.56,2.11-.33,.6,.22,1.05,.64,1.34,1.24,.29,.6,.38,1.25,.27,1.94-.11,.69-.53,1.26-1.24,1.71-1.43,1.03-2.98,1.76-4.66,2.21-1.67,.45-3.29,.67-4.86,.67Z"/>
    <path class="cls-1" d="M511.96,907.44c-3.48,0-6.11-1-7.87-3.02-1.76-2.01-2.65-4.96-2.65-8.84v-33.03c0-2.28,1.12-3.42,3.35-3.42s3.42,1.14,3.42,3.42v32.63c0,4.42,1.79,6.63,5.36,6.63,.4,0,.76-.02,1.07-.07,.31-.04,.62-.07,.94-.07,.54-.04,.92,.1,1.14,.44,.22,.33,.33,1.02,.33,2.04,0,1.83-.85,2.88-2.55,3.15-.45,.04-.88,.08-1.31,.1-.43,.02-.84,.03-1.24,.03Z"/>
    <path class="cls-1" d="M525.3,866.83c-1.34,0-2.38-.33-3.12-1-.74-.67-1.11-1.61-1.11-2.81,0-2.55,1.41-3.82,4.22-3.82s4.22,1.27,4.22,3.82-1.41,3.82-4.22,3.82Zm0,40.4c-2.23,0-3.35-1.23-3.35-3.69v-26.13c0-2.41,1.12-3.62,3.35-3.62s3.42,1.21,3.42,3.62v26.13c0,2.46-1.14,3.69-3.42,3.69Z"/>
    <path class="cls-1" d="M541.58,919.36c-2.23,0-3.35-1.14-3.35-3.42v-38.86c0-2.28,1.09-3.42,3.28-3.42s3.35,1.14,3.35,3.42v2.55c.98-1.88,2.43-3.36,4.35-4.46,1.92-1.09,4.11-1.64,6.57-1.64,2.9,0,5.44,.69,7.6,2.08,2.17,1.39,3.84,3.34,5.02,5.86,1.18,2.52,1.78,5.53,1.78,9.01s-.59,6.5-1.78,9.04c-1.18,2.55-2.86,4.5-5.02,5.86-2.17,1.36-4.7,2.04-7.6,2.04-2.41,0-4.57-.53-6.47-1.57-1.9-1.05-3.34-2.49-4.32-4.32v14.4c0,2.28-1.14,3.42-3.42,3.42Zm12.53-17.15c2.81,0,5.06-1,6.73-3.02,1.67-2.01,2.51-4.91,2.51-8.71s-.84-6.69-2.51-8.68c-1.68-1.99-3.92-2.98-6.73-2.98s-5.06,.99-6.73,2.98c-1.67,1.99-2.51,4.88-2.51,8.68s.84,6.7,2.51,8.71c1.68,2.01,3.92,3.02,6.73,3.02Z"/>
    <path class="cls-1" d="M595.38,907.44c-2.46,0-4.65-.55-6.57-1.64-1.92-1.09-3.37-2.58-4.36-4.46v2.55c0,2.28-1.09,3.42-3.28,3.42s-3.35-1.14-3.35-3.42v-41.34c0-2.28,1.12-3.42,3.35-3.42s3.42,1.14,3.42,3.42v16.88c.98-1.79,2.42-3.22,4.32-4.29,1.9-1.07,4.05-1.61,6.46-1.61,2.9,0,5.44,.69,7.6,2.08,2.17,1.39,3.84,3.34,5.03,5.86,1.18,2.52,1.78,5.53,1.78,9.01s-.59,6.5-1.78,9.04c-1.18,2.55-2.86,4.5-5.03,5.86-2.17,1.36-4.7,2.04-7.6,2.04Zm-1.67-5.23c2.81,0,5.06-1,6.73-3.02,1.68-2.01,2.51-4.91,2.51-8.71s-.84-6.69-2.51-8.68c-1.67-1.99-3.92-2.98-6.73-2.98s-5.06,.99-6.73,2.98c-1.67,1.99-2.51,4.88-2.51,8.68s.84,6.7,2.51,8.71c1.67,2.01,3.92,3.02,6.73,3.02Z"/>
    <path class="cls-1" d="M631.62,907.44c-3.31,0-6.16-.69-8.58-2.08-2.41-1.38-4.28-3.34-5.59-5.86-1.32-2.52-1.98-5.53-1.98-9.01s.66-6.49,1.98-9.01c1.32-2.52,3.18-4.48,5.59-5.86,2.41-1.38,5.27-2.08,8.58-2.08s6.03,.69,8.44,2.08c2.41,1.39,4.29,3.34,5.63,5.86,1.34,2.52,2.01,5.53,2.01,9.01s-.67,6.49-2.01,9.01c-1.34,2.52-3.22,4.48-5.63,5.86-2.41,1.39-5.23,2.08-8.44,2.08Zm0-5.23c2.77,0,5-1,6.7-3.02,1.7-2.01,2.55-4.91,2.55-8.71s-.85-6.69-2.55-8.68c-1.7-1.99-3.93-2.98-6.7-2.98s-5.07,.99-6.77,2.98c-1.7,1.99-2.55,4.88-2.55,8.68s.85,6.7,2.55,8.71c1.7,2.01,3.95,3.02,6.77,3.02Z"/>
    <path class="cls-1" d="M665.73,907.44c-2.28,0-4.31-.45-6.1-1.34-1.79-.89-3.21-2.1-4.25-3.62-1.05-1.52-1.57-3.24-1.57-5.16,0-2.41,.61-4.31,1.84-5.69,1.23-1.38,3.26-2.39,6.1-3.02,2.84-.62,6.67-.94,11.49-.94h2.28v-1.74c0-2.55-.54-4.38-1.61-5.49-1.07-1.12-2.84-1.68-5.29-1.68-1.43,0-2.91,.18-4.46,.54-1.54,.36-3.14,.96-4.79,1.81-.94,.45-1.71,.51-2.31,.2-.6-.31-1.02-.8-1.24-1.47-.22-.67-.2-1.36,.07-2.08,.27-.71,.83-1.25,1.67-1.61,1.96-.89,3.91-1.55,5.83-1.98,1.92-.42,3.73-.64,5.43-.64,4.47,0,7.77,1.06,9.92,3.18,2.14,2.12,3.22,5.44,3.22,9.95v17.22c0,2.28-1.05,3.42-3.15,3.42s-3.22-1.14-3.22-3.42v-2.48c-.8,1.88-2.05,3.35-3.75,4.42-1.7,1.07-3.73,1.61-6.1,1.61Zm1.34-4.82c2.41,0,4.42-.85,6.03-2.55,1.61-1.7,2.41-3.84,2.41-6.43v-1.81h-2.21c-3.26,0-5.82,.16-7.67,.47-1.85,.31-3.17,.84-3.95,1.57-.78,.74-1.17,1.75-1.17,3.05,0,1.7,.58,3.07,1.74,4.12,1.16,1.05,2.77,1.57,4.82,1.57Z"/>
    <path class="cls-1" d="M694.67,907.3c-2.28,0-3.42-1.14-3.42-3.42v-26.8c0-2.28,1.09-3.42,3.28-3.42s3.28,1.14,3.28,3.42v2.88c.89-2.01,2.24-3.55,4.05-4.62,1.81-1.07,4.01-1.7,6.6-1.88,1.65-.13,2.55,.76,2.68,2.68,.18,1.97-.78,3.04-2.88,3.22l-1.27,.13c-5.94,.58-8.91,3.64-8.91,9.18v15.21c0,2.28-1.14,3.42-3.42,3.42Z"/>
    <path class="cls-1" d="M728.24,907.44c-2.86,0-5.37-.68-7.54-2.04-2.17-1.36-3.85-3.32-5.06-5.86-1.21-2.55-1.81-5.56-1.81-9.04s.6-6.49,1.81-9.01c1.21-2.52,2.88-4.48,5.03-5.86,2.14-1.38,4.67-2.08,7.57-2.08,2.46,0,4.65,.54,6.57,1.61,1.92,1.07,3.35,2.52,4.29,4.35v-16.95c0-2.28,1.12-3.42,3.35-3.42s3.42,1.14,3.42,3.42v41.34c0,2.28-1.12,3.42-3.35,3.42s-3.35-1.14-3.35-3.42v-2.55c-.98,1.88-2.43,3.36-4.35,4.46-1.92,1.09-4.11,1.64-6.57,1.64Zm1.74-5.23c2.77,0,5-1,6.7-3.02,1.7-2.01,2.55-4.91,2.55-8.71s-.85-6.69-2.55-8.68c-1.7-1.99-3.93-2.98-6.7-2.98s-5.07,.99-6.77,2.98c-1.7,1.99-2.55,4.88-2.55,8.68s.85,6.7,2.55,8.71c1.7,2.01,3.95,3.02,6.77,3.02Z"/>
    <path class="cls-1" d="M758.66,907.1c-1.34,0-2.4-.4-3.18-1.21-.78-.8-1.17-1.83-1.17-3.08s.39-2.27,1.17-3.05c.78-.78,1.84-1.17,3.18-1.17s2.32,.39,3.08,1.17c.76,.78,1.14,1.8,1.14,3.05s-.38,2.28-1.14,3.08c-.76,.8-1.79,1.21-3.08,1.21Z"/>
  </g>
  <g class="cls-2">
    <path class="cls-1" d="M230.24,1188.57c-1.39,.06-2.46-.23-3.18-.86-.73-.64-1.14-1.41-1.23-2.32-.09-.91,.11-1.73,.59-2.46,.49-.73,1.27-1.15,2.37-1.27,3.03-.18,5.26-1,6.69-2.46,1.42-1.46,2.14-3.76,2.14-6.92v-41.4c0-3.09,1.55-4.64,4.64-4.64s4.55,1.55,4.55,4.64v40.68c0,5.7-1.38,9.89-4.14,12.56-2.76,2.67-6.9,4.16-12.42,4.46Zm12.01-71.62c-1.82,0-3.23-.46-4.23-1.36-1-.91-1.5-2.18-1.5-3.82,0-3.46,1.91-5.19,5.73-5.19s5.64,1.73,5.64,5.19-1.88,5.19-5.64,5.19Z"/>
    <path class="cls-1" d="M279.56,1172.1c-3.4,0-6.87-.46-10.42-1.37-3.55-.91-6.6-2.33-9.15-4.28-1.21-.79-1.94-1.73-2.18-2.82-.24-1.09-.12-2.08,.36-2.96,.48-.88,1.24-1.47,2.27-1.77,1.03-.3,2.18-.06,3.46,.73,2.61,1.58,5.16,2.72,7.64,3.41,2.49,.7,5.06,1.05,7.73,1.05,4.37,0,7.69-.94,9.96-2.82,2.27-1.88,3.41-4.58,3.41-8.1s-1.14-6.13-3.41-7.83c-2.28-1.7-5.57-2.55-9.87-2.55h-6.19c-2.85,0-4.28-1.33-4.28-4s1.42-3.91,4.28-3.91h5.28c3.82,0,6.84-.97,9.05-2.91,2.21-1.94,3.32-4.61,3.32-8.01,0-3.09-1.03-5.47-3.09-7.14-2.06-1.67-5-2.5-8.83-2.5-2.55,0-4.91,.33-7.1,1-2.18,.67-4.46,1.85-6.83,3.55-1.15,.73-2.21,.96-3.18,.68-.97-.27-1.71-.85-2.23-1.73-.52-.88-.68-1.85-.5-2.91,.18-1.06,.85-1.99,2-2.78,2.55-1.88,5.41-3.32,8.6-4.32,3.19-1,6.51-1.5,9.96-1.5,6.43,0,11.43,1.47,15.01,4.41,3.58,2.94,5.37,7.02,5.37,12.24,0,3.52-.9,6.61-2.68,9.28-1.79,2.67-4.26,4.61-7.42,5.82,3.82,.97,6.76,2.84,8.83,5.6,2.06,2.76,3.09,6.14,3.09,10.15,0,5.64-1.99,10.1-5.96,13.38-3.97,3.28-9.42,4.91-16.33,4.91Z"/>
    <path class="cls-1" d="M336.89,1171.92c-2.55,0-4.31-1.37-5.28-4.1l-19.56-55.78c-.55-1.58-.44-2.9,.32-3.96,.76-1.06,2.02-1.59,3.78-1.59,1.33,0,2.38,.3,3.14,.91,.76,.61,1.35,1.58,1.77,2.91l16.11,47.32,16.47-47.14c1.03-2.67,2.64-4,4.82-4,1.21,0,2.17,.33,2.87,1,.7,.67,1.32,1.7,1.87,3.09l16.29,47.59,16.47-47.87c.42-1.27,1.02-2.23,1.77-2.87,.76-.64,1.77-.96,3.05-.96,1.58,0,2.74,.53,3.5,1.59,.76,1.06,.83,2.38,.23,3.96l-19.66,55.87c-.55,1.34-1.21,2.34-2,3-.79,.67-1.85,1-3.19,1s-2.49-.33-3.28-1c-.79-.67-1.43-1.7-1.91-3.09l-16.2-46.41-16.38,46.5c-.49,1.34-1.11,2.34-1.87,3-.76,.67-1.81,1-3.14,1Z"/>
    <path class="cls-1" d="M426.34,1172.1c-10.74,0-16.11-5.97-16.11-17.93v-23.3c0-3.09,1.52-4.64,4.55-4.64s4.64,1.55,4.64,4.64v23.39c0,3.58,.73,6.22,2.18,7.92,1.46,1.7,3.76,2.55,6.92,2.55,3.46,0,6.26-1.15,8.42-3.46,2.15-2.3,3.23-5.4,3.23-9.28v-21.11c0-3.09,1.55-4.64,4.64-4.64s4.55,1.55,4.55,4.64v36.4c0,3.09-1.49,4.64-4.46,4.64s-4.46-1.55-4.46-4.64v-3.09c-1.46,2.61-3.4,4.58-5.82,5.92-2.43,1.33-5.19,2-8.28,2Z"/>
    <path class="cls-1" d="M469.57,1171.92c-3.09,0-4.64-1.55-4.64-4.64v-33.31h-5.1c-2.49,0-3.73-1.18-3.73-3.55s1.24-3.55,3.73-3.55h5.1v-.82c0-6.01,1.49-10.54,4.46-13.6,2.97-3.06,7.31-4.87,13.01-5.42l2.82-.18c1.27-.12,2.23,.14,2.87,.77,.64,.64,.96,1.43,.96,2.37s-.24,1.77-.73,2.5c-.49,.73-1.21,1.15-2.18,1.27l-1.73,.09c-3.58,.24-6.19,1.24-7.83,3-1.64,1.76-2.46,4.4-2.46,7.92v2.09h8.83c2.55,0,3.82,1.18,3.82,3.55s-1.27,3.55-3.82,3.55h-8.83v33.31c0,3.09-1.52,4.64-4.55,4.64Z"/>
    <path class="cls-1" d="M501.51,1171.28c-2.73,0-4.1-1.33-4.1-4s1.37-3.91,4.1-3.91h11.1v-45.41l-8.55,5.46c-1.15,.73-2.23,.93-3.23,.59-1-.33-1.76-.96-2.27-1.87-.52-.91-.67-1.9-.46-2.96,.21-1.06,.89-1.96,2.05-2.68l12.56-7.92c1.03-.61,2.02-1.11,2.96-1.5,.94-.39,1.83-.59,2.68-.59,1.03,0,1.9,.3,2.59,.91,.7,.61,1.05,1.55,1.05,2.82v53.14h10.19c2.79,0,4.19,1.31,4.19,3.91s-1.4,4-4.19,4h-30.67Z"/>
    <path class="cls-1" d="M553.92,1171.28c-3.09,0-4.64-1.42-4.64-4.28,0-1.52,.82-3.15,2.46-4.91l19.38-20.75c2.97-3.15,5.11-6.05,6.42-8.69,1.3-2.64,1.96-5.29,1.96-7.96,0-6.92-4.07-10.37-12.2-10.37-2.43,0-4.78,.36-7.05,1.09-2.28,.73-4.5,1.91-6.69,3.55-1.09,.79-2.11,1.05-3.05,.77-.94-.27-1.67-.87-2.18-1.78-.52-.91-.7-1.89-.55-2.96,.15-1.06,.77-1.99,1.87-2.78,2.49-1.88,5.37-3.34,8.64-4.37,3.28-1.03,6.61-1.55,10.01-1.55,6.61,0,11.69,1.52,15.24,4.55,3.55,3.03,5.32,7.37,5.32,13.01,0,3.82-.93,7.55-2.78,11.19-1.85,3.64-4.75,7.52-8.69,11.65l-15.92,16.65h26.48c2.79,0,4.19,1.31,4.19,3.91s-1.4,4-4.19,4h-34.04Z"/>
    <path class="cls-1" d="M604.61,1171.92c-1.82,0-3.12-.68-3.91-2.05-.79-1.37-.61-2.83,.55-4.41l20.11-26.94-18.93-25.39c-1.27-1.64-1.52-3.15-.73-4.55,.79-1.39,2.09-2.09,3.91-2.09s3.46,1,4.91,3l16.2,22.11,16.02-22.11c1.46-2,3.12-3,5-3s3.12,.68,3.91,2.05c.79,1.37,.55,2.9-.73,4.6l-18.93,25.39,20.02,26.94c1.15,1.58,1.35,3.05,.59,4.41-.76,1.37-2.08,2.05-3.96,2.05s-3.49-1-5-3l-17.02-23.3-16.93,23.3c-1.52,2-3.22,3-5.1,3Z"/>
    <path class="cls-1" d="M684.5,1171.92c-3.16,0-4.73-1.61-4.73-4.82v-52.05h-19.29c-2.73,0-4.1-1.33-4.1-4s1.37-3.91,4.1-3.91h47.96c2.79,0,4.19,1.3,4.19,3.91s-1.4,4-4.19,4h-19.29v52.05c0,3.22-1.55,4.82-4.64,4.82Z"/>
    <path class="cls-1" d="M732.64,1145.53c-4.97,0-8.86-1.74-11.65-5.23-2.79-3.49-4.19-8.29-4.19-14.42s1.41-10.92,4.23-14.38c2.82-3.46,6.69-5.19,11.6-5.19s8.78,1.73,11.6,5.19,4.23,8.25,4.23,14.38-1.4,10.94-4.19,14.42c-2.79,3.49-6.67,5.23-11.65,5.23Zm0-6.46c2.55,0,4.53-1.09,5.96-3.28,1.42-2.18,2.14-5.49,2.14-9.92s-.71-7.73-2.14-9.92c-1.43-2.18-3.41-3.28-5.96-3.28s-4.54,1.09-5.96,3.28c-1.43,2.18-2.14,5.49-2.14,9.92s.71,7.81,2.14,9.96c1.42,2.15,3.41,3.23,5.96,3.23Zm8.1,31.94c-.67,1.15-1.47,1.82-2.41,2-.94,.18-1.82,.04-2.64-.41s-1.38-1.15-1.68-2.09c-.3-.94-.12-1.99,.55-3.14l34.4-59.79c.67-1.15,1.47-1.83,2.41-2.05,.94-.21,1.82-.08,2.64,.41,.82,.49,1.38,1.18,1.68,2.09,.3,.91,.12,1.94-.55,3.09l-34.4,59.88Zm36.4,1.09c-4.91,0-8.77-1.73-11.56-5.19-2.79-3.46-4.19-8.28-4.19-14.47s1.4-10.84,4.19-14.33c2.79-3.49,6.64-5.23,11.56-5.23s8.86,1.74,11.65,5.23c2.79,3.49,4.19,8.27,4.19,14.33s-1.4,11.01-4.19,14.47c-2.79,3.46-6.67,5.19-11.65,5.19Zm0-6.37c2.55,0,4.53-1.09,5.96-3.28,1.42-2.18,2.14-5.52,2.14-10.01s-.71-7.64-2.14-9.83c-1.43-2.18-3.41-3.28-5.96-3.28s-4.54,1.08-5.96,3.23c-1.43,2.15-2.14,5.45-2.14,9.87s.71,7.83,2.14,10.01c1.42,2.18,3.41,3.28,5.96,3.28Z"/>
    <path class="cls-1" d="M808.72,1171.92c-1.21,0-2.03-.36-2.46-1.09-.43-.73-.52-1.7-.27-2.91l2.37-12.74h-3.82c-2.49,0-3.73-1.06-3.73-3.19s1.24-3.09,3.73-3.09h5l4-20.11h-7.19c-2.49,0-3.73-1.06-3.73-3.18s1.24-3.09,3.73-3.09h8.28l2.55-12.74c.42-2.18,1.73-3.28,3.91-3.28s3.12,1.33,2.64,4l-2.37,12.01h13.1l2.55-12.74c.42-2.18,1.73-3.28,3.91-3.28s3.12,1.33,2.64,4l-2.37,12.01h3.91c2.49,0,3.73,1.03,3.73,3.09s-1.24,3.18-3.73,3.18h-5.1l-3.91,20.11h7.19c2.49,0,3.73,1.03,3.73,3.09s-1.24,3.19-3.73,3.19h-8.28l-2.73,13.47c-.42,2.18-1.7,3.28-3.82,3.28-1.09,0-1.88-.35-2.37-1.05-.49-.7-.61-1.68-.36-2.96l2.55-12.74h-13.1l-2.64,13.47c-.42,2.18-1.7,3.28-3.82,3.28Zm7.64-23.02h13.01l3.91-20.11h-13.01l-3.91,20.11Z"/>
  </g>
  <g id="CharNumBox">
    <rect class="cls-4" x="89.5" y="1937" width="520" height="168" rx="60" ry="60"/>
  </g>
  <g class="cls-2">
    <path class="cls-1" d="M144.54,2045.74c-2.1,0-3.15-1.03-3.15-3.08s1.05-3.01,3.15-3.01h8.54v-34.93l-6.58,4.2c-.89,.56-1.71,.71-2.48,.46-.77-.26-1.35-.74-1.75-1.43-.4-.7-.51-1.46-.35-2.28,.16-.82,.69-1.5,1.57-2.07l9.66-6.09c.79-.47,1.55-.85,2.27-1.15,.72-.3,1.41-.46,2.06-.46,.79,0,1.46,.23,2,.7,.54,.47,.81,1.19,.81,2.17v40.88h7.84c2.15,0,3.22,1,3.22,3.01s-1.07,3.08-3.22,3.08h-23.59Z"/>
    <path class="cls-1" d="M184.86,2045.74c-2.38,0-3.57-1.1-3.57-3.29,0-1.17,.63-2.43,1.89-3.78l14.91-15.96c2.29-2.43,3.93-4.66,4.94-6.68,1-2.03,1.5-4.07,1.5-6.12,0-5.32-3.13-7.98-9.38-7.98-1.87,0-3.67,.28-5.42,.84-1.75,.56-3.47,1.47-5.15,2.73-.84,.61-1.62,.8-2.35,.59-.72-.21-1.28-.67-1.68-1.37-.4-.7-.54-1.46-.42-2.27,.12-.82,.6-1.53,1.44-2.14,1.91-1.45,4.13-2.57,6.65-3.36,2.52-.79,5.09-1.19,7.7-1.19,5.09,0,9,1.17,11.73,3.5,2.73,2.33,4.09,5.67,4.09,10.01,0,2.94-.71,5.81-2.13,8.61-1.42,2.8-3.65,5.79-6.69,8.96l-12.25,12.81h20.37c2.15,0,3.22,1,3.22,3.01s-1.07,3.08-3.22,3.08h-26.18Z"/>
    <path class="cls-1" d="M256.19,2046.37c-3.5,0-6.52-.74-9.06-2.21-2.54-1.47-4.52-3.55-5.92-6.23-1.4-2.68-2.1-5.84-2.1-9.48,0-5.41,1.54-9.68,4.62-12.81,3.08-3.13,7.23-4.69,12.46-4.69,1.63,0,3.35,.25,5.15,.73,1.8,.49,3.46,1.3,5,2.42,.75,.47,1.18,1.06,1.29,1.79,.12,.72,0,1.4-.35,2.03-.35,.63-.85,1.05-1.51,1.26-.65,.21-1.4,.08-2.24-.38-1.12-.79-2.26-1.37-3.43-1.71-1.17-.35-2.29-.53-3.36-.53-3.31,0-5.87,1.04-7.67,3.12-1.8,2.08-2.69,5.03-2.69,8.85s.9,6.83,2.69,9c1.8,2.17,4.35,3.25,7.67,3.25,1.07,0,2.18-.16,3.32-.49,1.14-.33,2.3-.89,3.47-1.68,.84-.47,1.57-.58,2.21-.35,.63,.23,1.1,.67,1.4,1.29,.3,.63,.4,1.31,.28,2.03-.12,.72-.55,1.32-1.29,1.79-1.49,1.07-3.11,1.84-4.86,2.31s-3.44,.7-5.08,.7Z"/>
    <path class="cls-1" d="M277.33,2046.23c-2.33,0-3.5-1.19-3.5-3.57v-43.19c0-2.38,1.17-3.57,3.5-3.57s3.57,1.19,3.57,3.57v17.43c1.17-1.96,2.74-3.44,4.73-4.45,1.98-1,4.21-1.5,6.69-1.5,8.07,0,12.11,4.57,12.11,13.72v17.99c0,2.38-1.17,3.57-3.5,3.57s-3.57-1.19-3.57-3.57v-17.57c0-2.94-.57-5.09-1.72-6.44-1.14-1.35-2.93-2.03-5.35-2.03-2.85,0-5.12,.9-6.82,2.7-1.7,1.8-2.56,4.17-2.56,7.1v16.24c0,2.38-1.19,3.57-3.57,3.57Z"/>
    <path class="cls-1" d="M325.07,2046.37c-2.38,0-4.5-.47-6.37-1.4-1.87-.93-3.35-2.19-4.44-3.78-1.1-1.59-1.65-3.38-1.65-5.39,0-2.52,.64-4.5,1.92-5.95,1.28-1.45,3.41-2.5,6.37-3.15,2.96-.65,6.96-.98,12-.98h2.38v-1.82c0-2.66-.56-4.57-1.68-5.74-1.12-1.17-2.96-1.75-5.53-1.75-1.49,0-3.04,.19-4.65,.56-1.61,.37-3.28,1-5,1.89-.98,.47-1.79,.54-2.42,.21-.63-.33-1.06-.84-1.3-1.54-.23-.7-.21-1.42,.07-2.17,.28-.75,.86-1.31,1.75-1.68,2.05-.93,4.08-1.62,6.09-2.06,2.01-.44,3.9-.67,5.67-.67,4.67,0,8.12,1.11,10.36,3.33,2.24,2.22,3.36,5.68,3.36,10.39v17.99c0,2.38-1.1,3.57-3.29,3.57s-3.36-1.19-3.36-3.57v-2.59c-.84,1.96-2.15,3.5-3.92,4.62-1.77,1.12-3.9,1.68-6.37,1.68Zm1.4-5.04c2.52,0,4.62-.89,6.3-2.66,1.68-1.77,2.52-4.01,2.52-6.72v-1.89h-2.31c-3.41,0-6.08,.16-8.01,.49-1.94,.33-3.31,.88-4.13,1.65-.82,.77-1.22,1.83-1.22,3.18,0,1.77,.61,3.21,1.82,4.3,1.21,1.1,2.89,1.65,5.04,1.65Z"/>
    <path class="cls-1" d="M355.31,2046.23c-2.38,0-3.57-1.19-3.57-3.57v-28c0-2.38,1.14-3.57,3.43-3.57s3.43,1.19,3.43,3.57v3.01c.93-2.1,2.34-3.71,4.23-4.83s4.19-1.77,6.9-1.96c1.73-.14,2.66,.79,2.8,2.8,.19,2.05-.82,3.17-3.01,3.36l-1.33,.14c-6.21,.61-9.31,3.8-9.31,9.59v15.89c0,2.38-1.19,3.57-3.57,3.57Z"/>
    <path class="cls-1" d="M388.42,2046.37c-2.38,0-4.5-.47-6.37-1.4-1.87-.93-3.35-2.19-4.44-3.78-1.1-1.59-1.65-3.38-1.65-5.39,0-2.52,.64-4.5,1.92-5.95,1.28-1.45,3.41-2.5,6.37-3.15,2.96-.65,6.97-.98,12.01-.98h2.38v-1.82c0-2.66-.56-4.57-1.68-5.74-1.12-1.17-2.96-1.75-5.53-1.75-1.49,0-3.04,.19-4.66,.56-1.61,.37-3.28,1-5,1.89-.98,.47-1.79,.54-2.42,.21-.63-.33-1.06-.84-1.3-1.54-.23-.7-.21-1.42,.07-2.17,.28-.75,.86-1.31,1.75-1.68,2.05-.93,4.08-1.62,6.09-2.06,2.01-.44,3.9-.67,5.67-.67,4.67,0,8.12,1.11,10.36,3.33,2.24,2.22,3.36,5.68,3.36,10.39v17.99c0,2.38-1.1,3.57-3.29,3.57s-3.36-1.19-3.36-3.57v-2.59c-.84,1.96-2.15,3.5-3.92,4.62-1.77,1.12-3.9,1.68-6.37,1.68Zm1.4-5.04c2.52,0,4.62-.89,6.3-2.66,1.68-1.77,2.52-4.01,2.52-6.72v-1.89h-2.31c-3.41,0-6.08,.16-8.01,.49-1.94,.33-3.31,.88-4.13,1.65-.82,.77-1.22,1.83-1.22,3.18,0,1.77,.61,3.21,1.82,4.3,1.21,1.1,2.89,1.65,5.04,1.65Z"/>
    <path class="cls-1" d="M430.14,2046.37c-3.5,0-6.52-.74-9.06-2.21-2.54-1.47-4.51-3.55-5.92-6.23-1.4-2.68-2.1-5.84-2.1-9.48,0-5.41,1.54-9.68,4.62-12.81,3.08-3.13,7.23-4.69,12.46-4.69,1.63,0,3.35,.25,5.15,.73,1.8,.49,3.46,1.3,5,2.42,.75,.47,1.18,1.06,1.29,1.79,.12,.72,0,1.4-.35,2.03-.35,.63-.85,1.05-1.5,1.26-.65,.21-1.4,.08-2.24-.38-1.12-.79-2.26-1.37-3.43-1.71-1.17-.35-2.29-.53-3.36-.53-3.31,0-5.87,1.04-7.67,3.12-1.8,2.08-2.7,5.03-2.7,8.85s.9,6.83,2.7,9c1.8,2.17,4.35,3.25,7.67,3.25,1.07,0,2.18-.16,3.33-.49,1.14-.33,2.3-.89,3.46-1.68,.84-.47,1.58-.58,2.21-.35,.63,.23,1.1,.67,1.4,1.29s.4,1.31,.28,2.03c-.12,.72-.55,1.32-1.29,1.79-1.49,1.07-3.12,1.84-4.87,2.31s-3.44,.7-5.08,.7Z"/>
    <path class="cls-1" d="M462.41,2046.37c-4.29,0-7.49-1.1-9.59-3.29-2.1-2.19-3.15-5.37-3.15-9.52v-16.52h-4.2c-1.96,0-2.94-.91-2.94-2.73s.98-2.73,2.94-2.73h4.2v-7.21c0-2.38,1.19-3.57,3.57-3.57s3.5,1.19,3.5,3.57v7.21h8.19c1.96,0,2.94,.91,2.94,2.73s-.98,2.73-2.94,2.73h-8.19v15.96c0,2.47,.52,4.34,1.57,5.6,1.05,1.26,2.77,1.89,5.15,1.89,.84,0,1.56-.08,2.17-.25,.61-.16,1.14-.27,1.61-.32,.51,0,.93,.18,1.26,.53,.33,.35,.49,1.01,.49,2,0,.75-.13,1.41-.39,2-.26,.58-.71,.97-1.36,1.15-.56,.23-1.32,.42-2.28,.56-.96,.14-1.81,.21-2.55,.21Z"/>
    <path class="cls-1" d="M489.08,2046.37c-5.6,0-10.01-1.58-13.23-4.73-3.22-3.15-4.83-7.45-4.83-12.91,0-3.5,.71-6.59,2.13-9.28,1.42-2.68,3.39-4.77,5.92-6.26,2.52-1.49,5.41-2.24,8.68-2.24,4.71,0,8.42,1.5,11.13,4.51,2.71,3.01,4.06,7.15,4.06,12.42,0,1.59-.93,2.38-2.8,2.38h-22.26c.51,7.09,4.27,10.64,11.27,10.64,1.4,0,2.87-.17,4.41-.53,1.54-.35,3.03-.99,4.48-1.92,.98-.56,1.83-.76,2.55-.59,.72,.16,1.25,.56,1.58,1.19,.33,.63,.38,1.33,.17,2.1-.21,.77-.76,1.43-1.64,2-1.59,1.07-3.44,1.88-5.57,2.42-2.12,.54-4.14,.8-6.05,.8Zm-1.05-30.45c-2.94,0-5.27,.91-7,2.73-1.73,1.82-2.78,4.25-3.15,7.28h19.11c-.14-3.17-.98-5.63-2.52-7.38s-3.69-2.62-6.44-2.62Z"/>
    <path class="cls-1" d="M514.21,2046.23c-2.38,0-3.57-1.19-3.57-3.57v-28c0-2.38,1.14-3.57,3.43-3.57s3.43,1.19,3.43,3.57v3.01c.93-2.1,2.34-3.71,4.24-4.83,1.89-1.12,4.19-1.77,6.89-1.96,1.73-.14,2.66,.79,2.8,2.8,.19,2.05-.82,3.17-3.01,3.36l-1.33,.14c-6.21,.61-9.31,3.8-9.31,9.59v15.89c0,2.38-1.19,3.57-3.57,3.57Z"/>
    <path class="cls-1" d="M548.37,2046.37c-2.05,0-4.18-.23-6.37-.7-2.19-.47-4.18-1.26-5.95-2.38-.79-.47-1.28-1.05-1.47-1.75-.19-.7-.14-1.35,.14-1.96,.28-.61,.74-1.04,1.37-1.29,.63-.26,1.34-.17,2.13,.25,1.82,.98,3.57,1.68,5.25,2.1s3.34,.63,4.97,.63c2.47,0,4.34-.44,5.6-1.33,1.26-.89,1.89-2.08,1.89-3.57,0-1.21-.42-2.16-1.26-2.83s-2.1-1.2-3.78-1.58l-6.65-1.33c-5.88-1.21-8.82-4.25-8.82-9.1,0-3.22,1.28-5.79,3.85-7.7,2.57-1.91,5.93-2.87,10.08-2.87s7.82,1.03,10.85,3.08c.75,.47,1.19,1.04,1.33,1.71,.14,.68,.05,1.31-.28,1.89-.33,.58-.81,.99-1.44,1.23s-1.37,.14-2.21-.28c-1.4-.84-2.8-1.46-4.2-1.86-1.4-.4-2.75-.59-4.06-.59-2.43,0-4.27,.46-5.53,1.37-1.26,.91-1.89,2.13-1.89,3.67,0,2.33,1.54,3.83,4.62,4.48l6.65,1.33c3.03,.61,5.33,1.63,6.9,3.08,1.56,1.45,2.34,3.41,2.34,5.88,0,3.27-1.28,5.82-3.85,7.67-2.57,1.84-5.97,2.76-10.22,2.76Z"/>
  </g>
  <g id="MoreCharsBox">
    <rect class="cls-6" x="825.5" y="1937" width="168" height="168" rx="60" ry="60"/>
  </g>
  <g id="LessCharsBox">
    <rect class="cls-6" x="640.5" y="1937" width="168" height="168" rx="60" ry="60"/>
  </g>
  <g class="cls-2">
    <path class="cls-1" d="M442.9,1459.7c-1.36,0-2.3-.44-2.82-1.33-.52-.88-.49-1.96,.1-3.23l18.43-41.34c.45-1.04,1.02-1.8,1.7-2.28,.68-.48,1.47-.71,2.38-.71,.82,0,1.57,.24,2.28,.71,.7,.48,1.28,1.24,1.73,2.28l18.43,41.34c.59,1.32,.65,2.4,.17,3.26s-1.37,1.29-2.69,1.29c-1,0-1.79-.25-2.38-.75-.59-.5-1.11-1.27-1.56-2.31l-3.94-9.11h-24.28l-3.88,9.11c-.45,1.09-.95,1.87-1.5,2.35s-1.27,.71-2.18,.71Zm19.65-40.6l-9.59,22.71h19.38l-9.66-22.71h-.14Z"/>
    <path class="cls-1" d="M493.49,1443.85c-.82,0-1.5-.27-2.04-.82s-.82-1.2-.82-1.97c0-.82,.27-1.48,.82-2.01,.54-.52,1.22-.78,2.04-.78h14.96c.77,0,1.43,.26,1.97,.78,.54,.52,.82,1.19,.82,2.01,0,.77-.27,1.43-.82,1.97-.54,.54-1.2,.82-1.97,.82h-14.96Z"/>
    <path class="cls-1" d="M521.98,1459.22c-1.77,0-2.88-.69-3.33-2.07-.45-1.38-.05-2.93,1.22-4.66l25.43-35.29h-23.87c-2.13,0-3.2-1-3.2-2.99s1.06-2.92,3.2-2.92h28.9c1.81,0,2.95,.68,3.4,2.04,.45,1.36,.04,2.92-1.22,4.69l-25.5,35.29h24.89c2.13,0,3.2,.98,3.2,2.92s-1.07,2.99-3.2,2.99h-29.92Z"/>
  </g>
  <g class="cls-2">
    <path class="cls-1" d="M461.98,1594.16c-2.31,0-4.38-.45-6.19-1.36-1.81-.91-3.25-2.13-4.32-3.67-1.07-1.54-1.6-3.29-1.6-5.24,0-2.45,.62-4.37,1.87-5.78,1.25-1.4,3.31-2.42,6.19-3.06,2.88-.63,6.77-.95,11.66-.95h2.31v-1.77c0-2.58-.54-4.44-1.63-5.58-1.09-1.13-2.88-1.7-5.37-1.7-1.45,0-2.96,.18-4.52,.54-1.56,.36-3.19,.98-4.86,1.84-.95,.45-1.73,.52-2.35,.2-.61-.32-1.03-.82-1.26-1.5-.23-.68-.2-1.38,.07-2.11,.27-.72,.84-1.27,1.7-1.63,1.99-.91,3.97-1.57,5.92-2.01,1.95-.43,3.78-.65,5.51-.65,4.53,0,7.89,1.08,10.06,3.23,2.18,2.15,3.26,5.52,3.26,10.1v17.48c0,2.31-1.07,3.47-3.2,3.47s-3.26-1.16-3.26-3.47v-2.52c-.82,1.9-2.09,3.4-3.81,4.49-1.72,1.09-3.79,1.63-6.19,1.63Zm1.36-4.9c2.45,0,4.49-.86,6.12-2.58,1.63-1.72,2.45-3.9,2.45-6.53v-1.84h-2.24c-3.31,0-5.91,.16-7.79,.48-1.88,.32-3.22,.85-4.01,1.6-.79,.75-1.19,1.78-1.19,3.09,0,1.72,.59,3.12,1.77,4.18,1.18,1.07,2.81,1.6,4.9,1.6Z"/>
    <path class="cls-1" d="M490.2,1578.18c-.82,0-1.5-.27-2.04-.82s-.82-1.2-.82-1.97c0-.82,.27-1.48,.82-2.01,.54-.52,1.22-.78,2.04-.78h14.96c.77,0,1.43,.26,1.97,.78,.54,.52,.82,1.19,.82,2.01,0,.77-.27,1.43-.82,1.97-.54,.54-1.2,.82-1.97,.82h-14.96Z"/>
    <path class="cls-1" d="M517.67,1593.54c-1,0-1.73-.29-2.21-.88s-.68-1.31-.61-2.18c.07-.86,.46-1.7,1.19-2.52l17.14-22.3h-15.91c-1.77,0-2.65-.88-2.65-2.65s.88-2.65,2.65-2.65h20.54c1.13,0,1.97,.3,2.52,.88s.78,1.3,.71,2.14c-.07,.84-.44,1.67-1.12,2.48l-17.34,22.44h16.73c1.81,0,2.72,.86,2.72,2.58s-.91,2.65-2.72,2.65h-21.62Z"/>
  </g>
  <g class="cls-2">
    <path class="cls-1" d="M460.98,1730.42c-5.58,0-9.83-2.12-12.75-6.36-2.92-4.24-4.39-10.32-4.39-18.26s1.46-14.18,4.39-18.33c2.92-4.15,7.17-6.22,12.75-6.22s9.88,2.07,12.78,6.22c2.9,4.15,4.35,10.23,4.35,18.26s-1.46,14.09-4.39,18.33c-2.92,4.24-7.17,6.36-12.75,6.36Zm0-5.85c3.44,0,6.01-1.53,7.68-4.59,1.68-3.06,2.52-7.81,2.52-14.25s-.83-11.21-2.48-14.18c-1.66-2.97-4.23-4.45-7.72-4.45s-6.01,1.5-7.68,4.49c-1.68,2.99-2.52,7.71-2.52,14.14s.84,11.19,2.52,14.25c1.68,3.06,4.24,4.59,7.68,4.59Z"/>
    <path class="cls-1" d="M488.52,1714.44c-.82,0-1.5-.27-2.04-.82-.54-.54-.82-1.2-.82-1.97,0-.82,.27-1.48,.82-2.01,.54-.52,1.22-.78,2.04-.78h14.96c.77,0,1.43,.26,1.97,.78,.54,.52,.82,1.19,.82,2.01,0,.77-.27,1.43-.82,1.97-.54,.54-1.2,.82-1.97,.82h-14.96Z"/>
    <path class="cls-1" d="M527.41,1730.42c-2,0-4.07-.36-6.22-1.09-2.15-.72-4.11-1.77-5.88-3.13-.73-.54-1.13-1.2-1.22-1.97-.09-.77,.04-1.48,.41-2.14,.36-.66,.9-1.1,1.6-1.33,.7-.23,1.48-.07,2.35,.48,1.54,1.13,3.07,1.95,4.59,2.45,1.52,.5,3.03,.75,4.52,.75,4.22,0,7.45-1.53,9.69-4.59,2.24-3.06,3.37-7.63,3.37-13.7v-2.72c-.91,2.77-2.48,4.93-4.73,6.49-2.24,1.56-4.84,2.35-7.79,2.35s-5.29-.66-7.45-1.97c-2.15-1.31-3.84-3.12-5.07-5.41-1.22-2.29-1.84-4.91-1.84-7.85s.66-5.81,1.97-8.19c1.31-2.38,3.14-4.24,5.47-5.58,2.33-1.34,5.02-2.01,8.06-2.01,5.8,0,10.28,2.06,13.43,6.19,3.15,4.13,4.73,9.91,4.73,17.34,0,8.21-1.77,14.53-5.3,18.97-3.54,4.44-8.43,6.66-14.69,6.66Zm2.31-23.94c2.76,0,5.01-.91,6.73-2.72,1.72-1.81,2.58-4.17,2.58-7.07s-.86-5.26-2.58-7.07c-1.72-1.81-3.97-2.72-6.73-2.72s-5.01,.91-6.73,2.72c-1.72,1.81-2.58,4.17-2.58,7.07s.86,5.26,2.58,7.07c1.72,1.81,3.97,2.72,6.73,2.72Z"/>
  </g>
  <g class="cls-2">
    <path class="cls-1" d="M355.02,1863.67c-1.36,0-2.44-.41-3.23-1.22-.79-.82-1.19-1.86-1.19-3.13s.4-2.3,1.19-3.09c.79-.79,1.87-1.19,3.23-1.19s2.36,.4,3.13,1.19c.77,.79,1.16,1.83,1.16,3.09s-.39,2.31-1.16,3.13c-.77,.82-1.81,1.22-3.13,1.22Zm0-13.19c-1.5,0-2.29-.86-2.38-2.58l-1.63-28.42c-.09-1.36,.21-2.45,.92-3.26,.7-.82,1.73-1.22,3.09-1.22s2.31,.41,2.99,1.22c.68,.82,.95,1.9,.82,3.26l-1.63,28.42c-.09,1.72-.82,2.58-2.18,2.58Z"/>
    <path class="cls-1" d="M395.96,1874.55c-5.76,0-10.82-1.21-15.2-3.64-4.38-2.43-7.78-5.86-10.2-10.3-2.43-4.44-3.64-9.66-3.64-15.64,0-4.49,.72-8.58,2.18-12.27,1.45-3.69,3.5-6.88,6.15-9.55s5.82-4.73,9.52-6.15c3.69-1.43,7.76-2.14,12.21-2.14,5.3,0,9.94,1.04,13.91,3.13,3.97,2.08,7.06,5.02,9.28,8.81,2.22,3.79,3.33,8.22,3.33,13.29,0,3.9-.54,7.3-1.63,10.2-1.09,2.9-2.61,5.15-4.56,6.73-1.95,1.59-4.24,2.38-6.87,2.38-2.22,0-4.04-.52-5.44-1.56-1.41-1.04-2.29-2.52-2.65-4.42-1.27,2-2.78,3.49-4.52,4.49-1.75,1-3.59,1.5-5.54,1.5-3.58,0-6.36-1.11-8.33-3.33-1.97-2.22-2.96-5.28-2.96-9.18,0-3.31,.63-6.27,1.9-8.87,1.27-2.61,3.01-4.66,5.24-6.15,2.22-1.5,4.74-2.24,7.55-2.24,4.17,0,6.98,1.7,8.43,5.1l.41-2.18c.27-1.68,1.27-2.52,2.99-2.52,.86,0,1.51,.25,1.94,.75,.43,.5,.55,1.22,.37,2.18l-2.52,14.35c-.27,1.32-.41,2.47-.41,3.47,0,2.9,1.29,4.35,3.88,4.35,2.45,0,4.42-1.38,5.92-4.15,1.5-2.76,2.24-6.39,2.24-10.88s-.9-7.94-2.69-11.05c-1.79-3.1-4.34-5.5-7.65-7.17-3.31-1.68-7.21-2.52-11.7-2.52-4.99,0-9.35,1.05-13.09,3.16-3.74,2.11-6.65,5.09-8.74,8.94-2.09,3.85-3.13,8.36-3.13,13.53s.97,9.7,2.92,13.46c1.95,3.76,4.73,6.64,8.33,8.64,3.6,1.99,7.85,2.99,12.75,2.99,3.22,0,6.11-.41,8.67-1.22,2.56-.82,4.82-2,6.77-3.54,.68-.54,1.33-.76,1.94-.65,.61,.11,1.09,.41,1.43,.88,.34,.48,.46,1.04,.37,1.7-.09,.66-.48,1.23-1.16,1.73-2.09,1.72-4.66,3.08-7.72,4.08-3.06,1-6.49,1.5-10.3,1.5Zm-2.79-19.72c1.86,0,3.52-.58,5-1.73,1.47-1.16,2.63-2.74,3.47-4.76,.84-2.02,1.26-4.32,1.26-6.9,0-4.8-2.15-7.21-6.46-7.21-1.9,0-3.59,.54-5.07,1.63-1.47,1.09-2.63,2.57-3.47,4.45-.84,1.88-1.26,4.05-1.26,6.49,0,2.58,.57,4.57,1.7,5.95,1.13,1.38,2.74,2.07,4.83,2.07Z"/>
    <path class="cls-1" d="M435.81,1863.87c-.91,0-1.52-.27-1.84-.82-.32-.54-.39-1.27-.2-2.18l1.77-9.52h-2.86c-1.86,0-2.79-.79-2.79-2.38s.93-2.31,2.79-2.31h3.74l2.99-15.03h-5.37c-1.86,0-2.79-.79-2.79-2.38s.93-2.31,2.79-2.31h6.19l1.9-9.52c.32-1.63,1.29-2.45,2.92-2.45s2.33,1,1.97,2.99l-1.77,8.98h9.79l1.9-9.52c.32-1.63,1.29-2.45,2.92-2.45s2.33,1,1.97,2.99l-1.77,8.98h2.92c1.86,0,2.79,.77,2.79,2.31s-.93,2.38-2.79,2.38h-3.81l-2.92,15.03h5.37c1.86,0,2.79,.77,2.79,2.31s-.93,2.38-2.79,2.38h-6.19l-2.04,10.06c-.32,1.63-1.27,2.45-2.86,2.45-.82,0-1.41-.26-1.77-.78-.36-.52-.45-1.26-.27-2.21l1.9-9.52h-9.79l-1.97,10.06c-.32,1.63-1.27,2.45-2.86,2.45Zm5.71-17.2h9.72l2.92-15.03h-9.72l-2.92,15.03Z"/>
    <path class="cls-1" d="M489.32,1871.69c-.82,0-1.49-.27-2.01-.82-.52-.54-.78-1.2-.78-1.97v-5.17c-2.86-.18-5.44-.65-7.75-1.39-2.31-.75-4.26-1.67-5.85-2.75-.82-.5-1.33-1.17-1.53-2.01-.2-.84-.14-1.62,.2-2.35,.34-.72,.86-1.22,1.56-1.5,.7-.27,1.53-.11,2.48,.48,1.4,.91,3.16,1.72,5.27,2.45,2.11,.73,4.68,1.09,7.72,1.09,3.67,0,6.36-.69,8.06-2.07s2.55-3.14,2.55-5.27c0-1.77-.61-3.18-1.84-4.25-1.22-1.06-3.29-1.92-6.19-2.55l-7-1.5c-8.16-1.77-12.24-6.01-12.24-12.72,0-2.58,.6-4.87,1.8-6.87,1.2-1.99,2.89-3.63,5.07-4.9,2.18-1.27,4.74-2.06,7.68-2.38v-5.3c0-.77,.26-1.43,.78-1.97,.52-.54,1.19-.82,2.01-.82,.77,0,1.43,.27,1.97,.82,.54,.54,.82,1.2,.82,1.97v5.3c1.95,.18,3.98,.66,6.09,1.43s3.93,1.81,5.47,3.13c.68,.59,1.06,1.25,1.16,1.97,.09,.73-.05,1.39-.41,2.01-.36,.61-.91,1.01-1.63,1.19-.73,.18-1.56-.02-2.52-.61-1.45-1-3.05-1.79-4.79-2.38-1.75-.59-3.82-.88-6.22-.88-3.17,0-5.69,.75-7.55,2.24-1.86,1.5-2.79,3.45-2.79,5.85,0,1.81,.57,3.28,1.7,4.39,1.13,1.11,3.04,1.96,5.71,2.55l7.14,1.5c4.4,.95,7.63,2.44,9.69,4.45,2.06,2.02,3.09,4.66,3.09,7.92,0,3.76-1.32,6.83-3.94,9.21-2.63,2.38-6.03,3.82-10.2,4.32v5.37c0,.77-.26,1.43-.78,1.97-.52,.54-1.19,.82-2.01,.82Z"/>
    <path class="cls-1" d="M524.27,1844.15c-3.72,0-6.62-1.3-8.7-3.91-2.09-2.61-3.13-6.2-3.13-10.78s1.05-8.16,3.16-10.74,5-3.88,8.67-3.88,6.56,1.29,8.67,3.88c2.11,2.58,3.16,6.17,3.16,10.74s-1.04,8.17-3.13,10.78c-2.09,2.61-4.99,3.91-8.7,3.91Zm0-4.83c1.9,0,3.39-.82,4.45-2.45,1.06-1.63,1.6-4.1,1.6-7.41s-.53-5.78-1.6-7.41c-1.07-1.63-2.55-2.45-4.45-2.45s-3.39,.82-4.45,2.45c-1.07,1.63-1.6,4.1-1.6,7.41s.53,5.84,1.6,7.45c1.06,1.61,2.55,2.41,4.45,2.41Zm6.05,23.87c-.5,.86-1.1,1.36-1.8,1.5-.7,.14-1.36,.03-1.97-.31-.61-.34-1.03-.86-1.26-1.56-.23-.7-.09-1.48,.41-2.35l25.7-44.68c.5-.86,1.1-1.37,1.8-1.53,.7-.16,1.36-.06,1.97,.31,.61,.36,1.03,.88,1.26,1.56,.23,.68,.09,1.45-.41,2.31l-25.7,44.74Zm27.2,.82c-3.67,0-6.55-1.29-8.64-3.88s-3.13-6.19-3.13-10.81,1.04-8.1,3.13-10.71c2.08-2.61,4.96-3.91,8.64-3.91s6.62,1.3,8.7,3.91c2.08,2.61,3.13,6.18,3.13,10.71s-1.04,8.23-3.13,10.81c-2.09,2.58-4.99,3.88-8.7,3.88Zm0-4.76c1.9,0,3.39-.82,4.45-2.45,1.06-1.63,1.6-4.12,1.6-7.48s-.53-5.71-1.6-7.34c-1.07-1.63-2.55-2.45-4.45-2.45s-3.39,.81-4.45,2.41c-1.07,1.61-1.6,4.07-1.6,7.38s.53,5.85,1.6,7.48c1.06,1.63,2.55,2.45,4.45,2.45Z"/>
    <path class="cls-1" d="M579.42,1854.35c-1.13,0-1.88-.34-2.24-1.02-.36-.68-.34-1.52,.07-2.52l12.51-28.36c.63-1.5,1.77-2.24,3.4-2.24s2.72,.75,3.4,2.24l12.51,28.36c.41,1,.43,1.84,.07,2.52-.36,.68-1.11,1.02-2.24,1.02-.63,0-1.16-.16-1.56-.48-.41-.32-.79-.86-1.16-1.63l-11.02-25.3-11.02,25.3c-.36,.82-.74,1.37-1.12,1.67-.39,.3-.92,.44-1.6,.44Z"/>
    <path class="cls-1" d="M622.19,1838.71c-1.45-.91-1.66-2.18-.61-3.81l3.67-5.64-6.6,.27c-.91,.09-1.63-.08-2.18-.51-.54-.43-.82-1.03-.82-1.8s.27-1.36,.82-1.77,1.27-.59,2.18-.54l6.6,.34-3.6-5.71c-1.04-1.68-.84-2.92,.61-3.74,.63-.41,1.28-.46,1.94-.17,.66,.3,1.19,.87,1.6,1.73l3.13,6.19,3.13-6.19c.41-.86,.94-1.44,1.6-1.73,.66-.29,1.33-.24,2.01,.17,1.41,.86,1.56,2.13,.48,3.81l-3.6,5.64,6.6-.34c.95-.04,1.7,.14,2.24,.54,.54,.41,.82,1,.82,1.77,0,.82-.27,1.43-.82,1.84-.54,.41-1.29,.57-2.24,.48l-6.6-.27,3.6,5.64c.5,.77,.71,1.49,.65,2.14-.07,.66-.44,1.19-1.12,1.6-.73,.41-1.42,.46-2.07,.17-.66-.29-1.17-.85-1.53-1.67l-3.13-6.26-3.2,6.26c-.41,.82-.93,1.38-1.56,1.7-.64,.32-1.29,.27-1.97-.14Z"/>
  </g>
  <path id="A-Z_CB" data-name="A-Z CB" class="cls-3" d="M619.94,1406h-38.89c-3.06,0-5.56,2.5-5.56,5.56v38.89c0,3.06,2.5,5.56,5.56,5.56h38.89c3.06,0,5.56-2.5,5.56-5.56v-38.89c0-3.06-2.5-5.56-5.56-5.56Zm-23.03,36.92c-1.08,1.08-2.83,1.08-3.92,0l-9.97-9.97c-1.08-1.08-1.08-2.83,0-3.92,1.08-1.08,2.83-1.08,3.92,0l8,8,19.11-19.11c1.08-1.08,2.83-1.08,3.92,0s1.08,2.83,0,3.92l-21.06,21.08Z"/>
  <path id="a-z_CB" data-name="a-z CB" class="cls-3" d="M609.94,1541h-38.89c-3.06,0-5.56,2.5-5.56,5.56v38.89c0,3.06,2.5,5.56,5.56,5.56h38.89c3.06,0,5.56-2.5,5.56-5.56v-38.89c0-3.06-2.5-5.56-5.56-5.56Zm-23.03,36.92c-1.08,1.08-2.83,1.08-3.92,0l-9.97-9.97c-1.08-1.08-1.08-2.83,0-3.92,1.08-1.08,2.83-1.08,3.92,0l8,8,19.11-19.11c1.08-1.08,2.83-1.08,3.92,0s1.08,2.83,0,3.92l-21.06,21.08Z"/>
  <path id="_-9_CB" data-name="0-9 CB" class="cls-3" d="M615.94,1676h-38.89c-3.06,0-5.56,2.5-5.56,5.56v38.89c0,3.06,2.5,5.56,5.56,5.56h38.89c3.06,0,5.56-2.5,5.56-5.56v-38.89c0-3.06-2.5-5.56-5.56-5.56Zm-23.03,36.92c-1.08,1.08-2.83,1.08-3.92,0l-9.97-9.97c-1.08-1.08-1.08-2.83,0-3.92,1.08-1.08,2.83-1.08,3.92,0l8,8,19.11-19.11c1.08-1.08,2.83-1.08,3.92,0s1.08,2.83,0,3.92l-21.06,21.08Z"/>
  <path id="________CB" data-name="!@#$%^* CB" class="cls-3" d="M708.94,1811h-38.89c-3.06,0-5.56,2.5-5.56,5.56v38.89c0,3.06,2.5,5.56,5.56,5.56h38.89c3.06,0,5.56-2.5,5.56-5.56v-38.89c0-3.06-2.5-5.56-5.56-5.56Zm-23.03,36.92c-1.08,1.08-2.83,1.08-3.92,0l-9.97-9.97c-1.08-1.08-1.08-2.83,0-3.92,1.08-1.08,2.83-1.08,3.92,0l8,8,19.11-19.11c1.08-1.08,2.83-1.08,3.92,0s1.08,2.83,0,3.92l-21.06,21.08Z"/>
  <path id="MoreCharsIcon" class="cls-3" d="M952.36,2028.14h-35.71v35.71c0,3.93-3.21,7.14-7.14,7.14s-7.14-3.21-7.14-7.14v-35.71h-35.71c-3.93,0-7.14-3.21-7.14-7.14s3.21-7.14,7.14-7.14h35.71v-35.71c0-3.93,3.21-7.14,7.14-7.14s7.14,3.21,7.14,7.14v35.71h35.71c3.93,0,7.14,3.21,7.14,7.14s-3.21,7.14-7.14,7.14Z"/>
  <path id="LessCharsIcon" class="cls-3" d="M767.36,2028.14h-85.71c-3.93,0-7.14-3.21-7.14-7.14s3.21-7.14,7.14-7.14h85.71c3.93,0,7.14,3.21,7.14,7.14s-3.21,7.14-7.14,7.14Z"/>
</svg>