<?xml version="1.0" encoding="UTF-8"?>
<svg id="QR_Code_Generator" data-name="QR Code Generator" xmlns="http://www.w3.org/2000/svg" viewBox="0 0 1080 2272">
  <defs>
    <style>
      .cls-1 {
        fill: #fff;
      }

      .cls-2 {
        opacity: .5;
      }

      .cls-3 {
        fill: #9f58f2;
      }

      .cls-4 {
        fill: #0c0414;
      }

      .cls-5 {
        fill: #22283d;
      }
    </style>
  </defs>
  <rect id="Background" class="cls-4" width="1080" height="2272" rx="100" ry="100"/>
  <rect id="QRCard" class="cls-1" x="93.52" y="880" width="895.2" height="895" rx="50" ry="50"/>
  <g>
    <path class="cls-1" d="M343.42,321.59c1.52,2.23,1.98,4.26,1.37,6.08-.61,1.82-1.8,3.17-3.57,4.03-1.77,.86-3.67,1.06-5.7,.61-2.03-.46-3.75-1.8-5.17-4.03l-10.03-16.26c-3.24-5.27-8.51-7.9-15.81-7.9-10.13,0-18.95-2.25-26.45-6.76-7.5-4.51-13.3-10.89-17.4-19.15-4.1-8.26-6.16-17.96-6.16-29.11s2.05-20.98,6.16-29.18,9.9-14.54,17.4-19c7.5-4.46,16.36-6.69,26.6-6.69s18.97,2.23,26.52,6.69c7.55,4.46,13.38,10.79,17.48,19s6.16,17.89,6.16,29.03c0,12.67-2.61,23.43-7.83,32.3-5.22,8.87-12.39,15.23-21.51,19.08,2.23,.71,4.2,1.9,5.93,3.57,1.72,1.67,3.44,3.93,5.17,6.76l6.84,10.94Zm-38.76-31.16c10.64,0,18.92-3.62,24.85-10.87,5.93-7.24,8.89-17.4,8.89-30.48s-2.94-23.2-8.82-30.4c-5.88-7.19-14.19-10.79-24.93-10.79s-18.92,3.6-24.85,10.79c-5.93,7.2-8.89,17.33-8.89,30.4s2.96,23.23,8.89,30.48c5.93,7.25,14.21,10.87,24.85,10.87Z"/>
    <path class="cls-1" d="M383.86,303.8c-5.27,0-7.9-2.68-7.9-8.06v-92.11c0-5.37,2.68-8.06,8.06-8.06h36.33c11.55,0,20.47,2.76,26.75,8.28,6.28,5.52,9.42,13.25,9.42,23.18,0,8.01-2.13,14.57-6.38,19.68-4.26,5.12-10.29,8.54-18.09,10.26,4.86,1.62,8.97,5.52,12.31,11.7l13.07,24.32c1.52,2.74,1.82,5.22,.91,7.45-.91,2.23-2.99,3.34-6.23,3.34-2.23,0-4.05-.46-5.47-1.37-1.42-.91-2.64-2.38-3.65-4.41l-15.96-29.49c-2.13-3.95-4.59-6.61-7.37-7.98-2.79-1.37-6.36-2.05-10.72-2.05h-17.18v37.24c0,5.37-2.64,8.06-7.9,8.06Zm7.9-57.15h25.99c15.6,0,23.41-6.43,23.41-19.3s-7.8-19.15-23.41-19.15h-25.99v38.46Z"/>
    <path class="cls-1" d="M549.99,304.11c-7.6,0-14.16-1.6-19.68-4.79-5.52-3.19-9.8-7.7-12.84-13.53-3.04-5.83-4.56-12.69-4.56-20.6,0-11.75,3.34-21.03,10.03-27.82,6.69-6.79,15.71-10.18,27.06-10.18,3.55,0,7.27,.53,11.17,1.6,3.9,1.06,7.52,2.81,10.87,5.24,1.62,1.01,2.56,2.31,2.81,3.88,.25,1.57,0,3.04-.76,4.41s-1.85,2.28-3.27,2.74c-1.42,.46-3.04,.18-4.86-.84-2.43-1.72-4.92-2.96-7.45-3.72-2.53-.76-4.97-1.14-7.3-1.14-7.2,0-12.74,2.26-16.64,6.76-3.9,4.51-5.85,10.92-5.85,19.23s1.95,14.82,5.85,19.53c3.9,4.71,9.45,7.07,16.64,7.07,2.33,0,4.74-.35,7.22-1.06,2.48-.71,4.99-1.92,7.52-3.65,1.82-1.01,3.42-1.27,4.79-.76,1.37,.51,2.38,1.44,3.04,2.81,.66,1.37,.86,2.84,.61,4.41-.25,1.57-1.19,2.86-2.81,3.88-3.24,2.33-6.76,4-10.56,5.02-3.8,1.01-7.47,1.52-11.02,1.52Z"/>
    <path class="cls-1" d="M619,304.11c-7.5,0-13.98-1.57-19.46-4.71-5.47-3.14-9.7-7.57-12.69-13.3-2.99-5.72-4.48-12.54-4.48-20.44s1.49-14.72,4.48-20.44c2.99-5.72,7.22-10.16,12.69-13.3,5.47-3.14,11.96-4.71,19.46-4.71s13.68,1.57,19.15,4.71c5.47,3.14,9.73,7.58,12.77,13.3,3.04,5.73,4.56,12.54,4.56,20.44s-1.52,14.72-4.56,20.44c-3.04,5.73-7.3,10.16-12.77,13.3-5.47,3.14-11.86,4.71-19.15,4.71Zm0-11.86c6.28,0,11.35-2.28,15.2-6.84,3.85-4.56,5.78-11.15,5.78-19.76s-1.93-15.17-5.78-19.68c-3.85-4.51-8.92-6.76-15.2-6.76s-11.5,2.26-15.35,6.76c-3.85,4.51-5.78,11.07-5.78,19.68s1.92,15.2,5.78,19.76c3.85,4.56,8.97,6.84,15.35,6.84Z"/>
    <path class="cls-1" d="M700.92,304.11c-6.49,0-12.19-1.54-17.1-4.64-4.92-3.09-8.74-7.52-11.48-13.3-2.74-5.78-4.1-12.62-4.1-20.52s1.37-14.72,4.1-20.44c2.74-5.72,6.54-10.16,11.4-13.3,4.86-3.14,10.59-4.71,17.18-4.71,5.57,0,10.54,1.22,14.9,3.65,4.36,2.43,7.6,5.73,9.73,9.88v-38.46c0-5.17,2.53-7.75,7.6-7.75s7.75,2.58,7.75,7.75v93.78c0,5.17-2.53,7.75-7.6,7.75s-7.6-2.58-7.6-7.75v-5.78c-2.23,4.26-5.52,7.63-9.88,10.11-4.36,2.48-9.32,3.72-14.9,3.72Zm3.95-11.86c6.28,0,11.35-2.28,15.2-6.84,3.85-4.56,5.78-11.15,5.78-19.76s-1.93-15.17-5.78-19.68c-3.85-4.51-8.92-6.76-15.2-6.76s-11.5,2.26-15.35,6.76c-3.85,4.51-5.78,11.07-5.78,19.68s1.92,15.2,5.78,19.76c3.85,4.56,8.97,6.84,15.35,6.84Z"/>
    <path class="cls-1" d="M797.29,304.11c-12.16,0-21.74-3.42-28.73-10.26-6.99-6.84-10.49-16.19-10.49-28.04,0-7.6,1.54-14.31,4.64-20.14,3.09-5.83,7.37-10.36,12.84-13.6,5.47-3.24,11.75-4.86,18.85-4.86,10.23,0,18.29,3.27,24.17,9.8,5.88,6.54,8.82,15.53,8.82,26.98,0,3.45-2.03,5.17-6.08,5.17h-48.34c1.11,15.4,9.27,23.1,24.47,23.1,3.04,0,6.23-.38,9.58-1.14,3.34-.76,6.59-2.15,9.73-4.18,2.13-1.22,3.98-1.65,5.55-1.29,1.57,.36,2.71,1.22,3.42,2.58,.71,1.37,.84,2.89,.38,4.56s-1.65,3.12-3.57,4.33c-3.45,2.33-7.47,4.08-12.08,5.24-4.61,1.16-8.99,1.75-13.15,1.75Zm-2.28-66.12c-6.38,0-11.45,1.98-15.2,5.93-3.75,3.95-6.03,9.22-6.84,15.81h41.5c-.3-6.89-2.13-12.24-5.47-16.04-3.34-3.8-8.01-5.7-13.98-5.7Z"/>
    <path class="cls-1" d="M344.03,508.8c-5.07,0-7.6-2.58-7.6-7.75v-60.8c0-5.17,2.48-7.75,7.45-7.75s7.45,2.58,7.45,7.75v5.32c2.23-4.26,5.32-7.55,9.27-9.88,3.95-2.33,8.56-3.5,13.83-3.5,11.35,0,18.7,4.97,22.04,14.9,2.33-4.66,5.67-8.31,10.03-10.94,4.36-2.63,9.32-3.95,14.9-3.95,16.62,0,24.93,9.93,24.93,29.79v39.06c0,5.17-2.58,7.75-7.75,7.75s-7.6-2.58-7.6-7.75v-38.3c0-6.28-1.09-10.89-3.27-13.83-2.18-2.94-5.75-4.41-10.72-4.41-5.57,0-9.98,1.95-13.22,5.85-3.24,3.9-4.86,9.2-4.86,15.88v34.81c0,5.17-2.53,7.75-7.6,7.75s-7.75-2.58-7.75-7.75v-38.3c0-6.28-1.06-10.89-3.19-13.83-2.13-2.94-5.68-4.41-10.64-4.41-5.57,0-9.96,1.95-13.15,5.85-3.19,3.9-4.79,9.2-4.79,15.88v34.81c0,5.17-2.58,7.75-7.75,7.75Z"/>
    <path class="cls-1" d="M491.47,509.11c-5.17,0-9.78-1.01-13.83-3.04-4.05-2.03-7.27-4.76-9.65-8.21-2.38-3.44-3.57-7.35-3.57-11.7,0-5.47,1.39-9.78,4.18-12.92,2.79-3.14,7.4-5.42,13.83-6.84,6.43-1.42,15.12-2.13,26.07-2.13h5.17v-3.95c0-5.78-1.22-9.93-3.65-12.46-2.43-2.53-6.44-3.8-12.01-3.8-3.24,0-6.61,.41-10.11,1.22-3.5,.81-7.12,2.18-10.87,4.1-2.13,1.01-3.88,1.17-5.24,.46-1.37-.71-2.31-1.82-2.81-3.34-.51-1.52-.46-3.09,.15-4.71,.61-1.62,1.87-2.84,3.8-3.65,4.46-2.03,8.87-3.52,13.22-4.48,4.36-.96,8.46-1.44,12.31-1.44,10.13,0,17.63,2.41,22.5,7.22,4.86,4.81,7.3,12.34,7.3,22.57v39.06c0,5.17-2.38,7.75-7.14,7.75s-7.3-2.58-7.3-7.75v-5.62c-1.82,4.26-4.66,7.6-8.51,10.03-3.85,2.43-8.46,3.65-13.83,3.65Zm3.04-10.94c5.47,0,10.03-1.92,13.68-5.78,3.65-3.85,5.47-8.71,5.47-14.59v-4.1h-5.02c-7.4,0-13.2,.36-17.4,1.06-4.21,.71-7.2,1.9-8.97,3.57-1.77,1.67-2.66,3.98-2.66,6.92,0,3.85,1.32,6.97,3.95,9.35,2.63,2.38,6.28,3.57,10.94,3.57Z"/>
    <path class="cls-1" d="M556.98,508.8c-5.07,0-7.6-2.58-7.6-7.75v-93.78c0-5.17,2.53-7.75,7.6-7.75s7.75,2.58,7.75,7.75v58.67h.3l28.42-28.27c1.62-1.62,3.09-2.89,4.41-3.8,1.32-.91,3.04-1.37,5.17-1.37,3.14,0,5.19,1.17,6.16,3.5,.96,2.33,.33,4.66-1.9,6.99l-26.6,26.3,29.34,29.03c1.62,1.62,2.38,3.24,2.28,4.86-.1,1.62-.76,2.96-1.98,4.03-1.22,1.06-2.74,1.6-4.56,1.6-2.33,0-4.18-.46-5.55-1.37-1.37-.91-2.96-2.28-4.79-4.1l-30.4-29.49h-.3v27.21c0,5.17-2.58,7.75-7.75,7.75Z"/>
    <path class="cls-1" d="M660.95,509.11c-12.16,0-21.74-3.42-28.73-10.26-6.99-6.84-10.49-16.19-10.49-28.04,0-7.6,1.54-14.31,4.64-20.14,3.09-5.83,7.37-10.36,12.84-13.6,5.47-3.24,11.75-4.86,18.85-4.86,10.23,0,18.29,3.27,24.17,9.8,5.88,6.54,8.82,15.53,8.82,26.98,0,3.45-2.03,5.17-6.08,5.17h-48.34c1.11,15.4,9.27,23.1,24.47,23.1,3.04,0,6.23-.38,9.58-1.14,3.34-.76,6.59-2.15,9.73-4.18,2.13-1.22,3.98-1.65,5.55-1.29,1.57,.36,2.71,1.22,3.42,2.58,.71,1.37,.84,2.89,.38,4.56s-1.65,3.12-3.57,4.33c-3.45,2.33-7.47,4.08-12.08,5.24-4.61,1.16-8.99,1.75-13.15,1.75Zm-2.28-66.12c-6.38,0-11.45,1.98-15.2,5.93-3.75,3.95-6.03,9.22-6.84,15.81h41.5c-.3-6.89-2.13-12.24-5.47-16.04-3.34-3.8-8.01-5.7-13.98-5.7Z"/>
    <path class="cls-1" d="M715.51,508.8c-5.17,0-7.75-2.58-7.75-7.75v-60.8c0-5.17,2.48-7.75,7.45-7.75s7.45,2.58,7.45,7.75v6.54c2.03-4.56,5.09-8.06,9.2-10.49,4.1-2.43,9.09-3.85,14.97-4.26,3.75-.3,5.78,1.72,6.08,6.08,.4,4.46-1.77,6.89-6.54,7.3l-2.89,.3c-13.48,1.32-20.22,8.26-20.22,20.82v34.5c0,5.17-2.58,7.75-7.75,7.75Z"/>
  </g>
  <g class="cls-2">
    <path class="cls-1" d="M152.88,625.44c-3.48,0-6.11-1-7.87-3.02-1.76-2.01-2.65-4.96-2.65-8.84v-33.03c0-2.28,1.12-3.42,3.35-3.42s3.42,1.14,3.42,3.42v32.63c0,4.42,1.79,6.63,5.36,6.63,.4,0,.76-.02,1.07-.07,.31-.04,.62-.07,.94-.07,.54-.04,.92,.1,1.14,.44,.22,.33,.33,1.02,.33,2.04,0,1.83-.85,2.88-2.55,3.15-.45,.04-.88,.08-1.31,.1-.43,.02-.84,.03-1.24,.03Z"/>
    <path class="cls-1" d="M176.74,625.44c-3.31,0-6.16-.69-8.58-2.08-2.41-1.38-4.28-3.34-5.59-5.86-1.32-2.52-1.98-5.53-1.98-9.01s.66-6.49,1.98-9.01c1.32-2.52,3.18-4.48,5.59-5.86,2.41-1.38,5.27-2.08,8.58-2.08s6.03,.69,8.44,2.08c2.41,1.39,4.29,3.34,5.63,5.86,1.34,2.52,2.01,5.53,2.01,9.01s-.67,6.49-2.01,9.01c-1.34,2.52-3.22,4.48-5.63,5.86-2.41,1.39-5.23,2.08-8.44,2.08Zm0-5.23c2.77,0,5-1,6.7-3.02,1.7-2.01,2.55-4.91,2.55-8.71s-.85-6.69-2.55-8.68c-1.7-1.99-3.93-2.98-6.7-2.98s-5.07,.99-6.77,2.98c-1.7,1.99-2.55,4.88-2.55,8.68s.85,6.7,2.55,8.71c1.7,2.01,3.95,3.02,6.77,3.02Z"/>
    <path class="cls-1" d="M203.74,625.3c-2.23,0-3.35-1.14-3.35-3.42v-26.8c0-2.28,1.09-3.42,3.28-3.42s3.28,1.14,3.28,3.42v2.48c1.12-1.96,2.65-3.46,4.59-4.49,1.94-1.03,4.12-1.54,6.53-1.54,7.73,0,11.59,4.38,11.59,13.13v17.22c0,2.28-1.12,3.42-3.35,3.42s-3.42-1.14-3.42-3.42v-16.82c0-2.81-.55-4.87-1.64-6.16-1.1-1.29-2.8-1.94-5.13-1.94-2.73,0-4.9,.86-6.53,2.58-1.63,1.72-2.45,3.99-2.45,6.8v15.54c0,2.28-1.14,3.42-3.42,3.42Z"/>
    <path class="cls-1" d="M253.78,637.5c-2.41,0-4.75-.25-7-.74-2.26-.49-4.3-1.3-6.13-2.41-.8-.45-1.3-1.01-1.47-1.68-.18-.67-.1-1.32,.23-1.94,.33-.63,.8-1.08,1.41-1.37,.6-.29,1.26-.23,1.98,.17,1.96,1.07,3.83,1.8,5.59,2.18,1.76,.38,3.41,.57,4.92,.57,6.25,0,9.38-3.13,9.38-9.38v-5.16c-.94,1.97-2.4,3.51-4.39,4.62-1.99,1.12-4.21,1.67-6.67,1.67-2.95,0-5.52-.68-7.71-2.04-2.19-1.36-3.89-3.26-5.09-5.69-1.21-2.43-1.81-5.28-1.81-8.54s.6-6.04,1.81-8.48c1.21-2.43,2.9-4.33,5.09-5.69,2.19-1.36,4.76-2.04,7.71-2.04,2.46,0,4.66,.55,6.6,1.64,1.94,1.1,3.38,2.58,4.32,4.46v-2.55c0-2.28,1.12-3.42,3.35-3.42s3.35,1.14,3.35,3.42v27c0,5.14-1.32,8.99-3.95,11.56-2.64,2.57-6.48,3.85-11.52,3.85Zm-.54-18.76c2.86,0,5.14-.98,6.83-2.95,1.7-1.96,2.55-4.65,2.55-8.04s-.85-6.06-2.55-8.01c-1.7-1.94-3.98-2.91-6.83-2.91s-5.14,.97-6.83,2.91c-1.7,1.94-2.55,4.61-2.55,8.01s.85,6.08,2.55,8.04c1.7,1.97,3.98,2.95,6.83,2.95Z"/>
    <path class="cls-1" d="M281.05,609.69c-.8,0-1.47-.27-2.01-.8-.54-.54-.8-1.18-.8-1.94,0-.8,.27-1.46,.8-1.98,.54-.51,1.21-.77,2.01-.77h14.74c.76,0,1.41,.26,1.94,.77,.54,.51,.8,1.17,.8,1.98,0,.76-.27,1.41-.8,1.94s-1.18,.8-1.94,.8h-14.74Z"/>
    <path class="cls-1" d="M310.87,637.36c-2.23,0-3.35-1.14-3.35-3.42v-38.86c0-2.28,1.09-3.42,3.28-3.42s3.35,1.14,3.35,3.42v2.55c.98-1.88,2.43-3.36,4.35-4.46,1.92-1.09,4.11-1.64,6.57-1.64,2.9,0,5.44,.69,7.6,2.08,2.17,1.39,3.84,3.34,5.02,5.86,1.18,2.52,1.78,5.53,1.78,9.01s-.59,6.5-1.78,9.04c-1.18,2.55-2.86,4.5-5.02,5.86-2.17,1.36-4.7,2.04-7.6,2.04-2.41,0-4.57-.53-6.47-1.57-1.9-1.05-3.34-2.49-4.32-4.32v14.4c0,2.28-1.14,3.42-3.42,3.42Zm12.53-17.15c2.81,0,5.06-1,6.73-3.02,1.67-2.01,2.51-4.91,2.51-8.71s-.84-6.69-2.51-8.68c-1.68-1.99-3.92-2.98-6.73-2.98s-5.06,.99-6.73,2.98c-1.67,1.99-2.51,4.88-2.51,8.68s.84,6.7,2.51,8.71c1.68,2.01,3.92,3.02,6.73,3.02Z"/>
    <path class="cls-1" d="M350.53,625.3c-2.28,0-3.42-1.14-3.42-3.42v-26.8c0-2.28,1.09-3.42,3.28-3.42s3.28,1.14,3.28,3.42v2.88c.89-2.01,2.24-3.55,4.05-4.62,1.81-1.07,4.01-1.7,6.6-1.88,1.65-.13,2.55,.76,2.68,2.68,.18,1.97-.78,3.04-2.88,3.22l-1.27,.13c-5.94,.58-8.91,3.64-8.91,9.18v15.21c0,2.28-1.14,3.42-3.42,3.42Z"/>
    <path class="cls-1" d="M386.98,625.44c-5.36,0-9.58-1.51-12.66-4.52s-4.62-7.14-4.62-12.36c0-3.35,.68-6.31,2.04-8.88,1.36-2.57,3.25-4.57,5.66-6,2.41-1.43,5.18-2.14,8.31-2.14,4.51,0,8.06,1.44,10.65,4.32,2.59,2.88,3.89,6.85,3.89,11.89,0,1.52-.89,2.28-2.68,2.28h-21.31c.49,6.79,4.09,10.18,10.79,10.18,1.34,0,2.75-.17,4.22-.5,1.47-.33,2.9-.95,4.29-1.84,.94-.54,1.75-.73,2.45-.57,.69,.16,1.19,.54,1.51,1.14,.31,.6,.37,1.27,.17,2.01-.2,.74-.73,1.37-1.57,1.91-1.52,1.03-3.29,1.8-5.33,2.31-2.03,.51-3.96,.77-5.8,.77Zm-1-29.15c-2.81,0-5.05,.87-6.7,2.61-1.65,1.74-2.66,4.07-3.02,6.97h18.29c-.13-3.04-.94-5.39-2.41-7.07-1.47-1.68-3.53-2.51-6.16-2.51Z"/>
    <path class="cls-1" d="M419.07,625.44c-1.97,0-4-.22-6.1-.67-2.1-.45-4-1.21-5.7-2.28-.76-.45-1.23-1-1.41-1.67-.18-.67-.13-1.29,.13-1.88,.27-.58,.7-.99,1.31-1.24,.6-.24,1.28-.17,2.04,.23,1.74,.94,3.42,1.61,5.02,2.01,1.61,.4,3.19,.6,4.76,.6,2.37,0,4.15-.42,5.36-1.27,1.21-.85,1.81-1.99,1.81-3.42,0-1.16-.4-2.07-1.21-2.71-.8-.65-2.01-1.15-3.62-1.51l-6.36-1.27c-5.63-1.16-8.44-4.06-8.44-8.71,0-3.08,1.23-5.54,3.69-7.37,2.46-1.83,5.67-2.75,9.65-2.75s7.48,.98,10.39,2.95c.71,.45,1.14,.99,1.27,1.64,.13,.65,.04,1.25-.27,1.81-.31,.56-.77,.95-1.37,1.17-.6,.22-1.31,.13-2.11-.27-1.34-.8-2.68-1.4-4.02-1.78-1.34-.38-2.64-.57-3.89-.57-2.32,0-4.09,.44-5.29,1.31-1.21,.87-1.81,2.04-1.81,3.52,0,2.23,1.47,3.66,4.42,4.29l6.36,1.27c2.9,.58,5.1,1.56,6.6,2.95,1.5,1.38,2.24,3.26,2.24,5.63,0,3.13-1.23,5.57-3.69,7.34-2.46,1.77-5.72,2.65-9.78,2.65Z"/>
    <path class="cls-1" d="M451.5,625.44c-1.97,0-4-.22-6.1-.67-2.1-.45-4-1.21-5.7-2.28-.76-.45-1.23-1-1.41-1.67-.18-.67-.13-1.29,.13-1.88,.27-.58,.7-.99,1.31-1.24,.6-.24,1.28-.17,2.04,.23,1.74,.94,3.42,1.61,5.02,2.01,1.61,.4,3.19,.6,4.76,.6,2.37,0,4.15-.42,5.36-1.27,1.21-.85,1.81-1.99,1.81-3.42,0-1.16-.4-2.07-1.21-2.71-.8-.65-2.01-1.15-3.62-1.51l-6.36-1.27c-5.63-1.16-8.44-4.06-8.44-8.71,0-3.08,1.23-5.54,3.69-7.37,2.46-1.83,5.67-2.75,9.65-2.75s7.48,.98,10.39,2.95c.71,.45,1.14,.99,1.27,1.64,.13,.65,.04,1.25-.27,1.81-.31,.56-.77,.95-1.37,1.17-.6,.22-1.31,.13-2.11-.27-1.34-.8-2.68-1.4-4.02-1.78-1.34-.38-2.64-.57-3.89-.57-2.32,0-4.09,.44-5.29,1.31-1.21,.87-1.81,2.04-1.81,3.52,0,2.23,1.47,3.66,4.42,4.29l6.36,1.27c2.9,.58,5.1,1.56,6.6,2.95,1.5,1.38,2.24,3.26,2.24,5.63,0,3.13-1.23,5.57-3.69,7.34-2.46,1.77-5.72,2.65-9.78,2.65Z"/>
    <path class="cls-1" d="M504.09,625.44c-4.11,0-7.17-1.05-9.18-3.15-2.01-2.1-3.02-5.14-3.02-9.11v-15.81h-4.02c-1.88,0-2.81-.87-2.81-2.61s.94-2.61,2.81-2.61h4.02v-6.9c0-2.28,1.14-3.42,3.42-3.42s3.35,1.14,3.35,3.42v6.9h7.84c1.88,0,2.81,.87,2.81,2.61s-.94,2.61-2.81,2.61h-7.84v15.28c0,2.37,.5,4.15,1.51,5.36s2.65,1.81,4.92,1.81c.8,0,1.5-.08,2.08-.23,.58-.16,1.09-.26,1.54-.3,.49,0,.89,.17,1.21,.5,.31,.33,.47,.97,.47,1.91,0,.71-.12,1.35-.37,1.91-.25,.56-.68,.93-1.31,1.11-.54,.22-1.26,.4-2.18,.54-.92,.13-1.73,.2-2.45,.2Z"/>
    <path class="cls-1" d="M518.56,625.3c-2.23,0-3.35-1.14-3.35-3.42v-41.34c0-2.28,1.12-3.42,3.35-3.42s3.42,1.14,3.42,3.42v16.68c1.12-1.88,2.62-3.29,4.52-4.25,1.9-.96,4.03-1.44,6.4-1.44,7.73,0,11.59,4.38,11.59,13.13v17.22c0,2.28-1.12,3.42-3.35,3.42s-3.42-1.14-3.42-3.42v-16.82c0-2.81-.55-4.87-1.64-6.16-1.1-1.29-2.8-1.94-5.13-1.94-2.73,0-4.9,.86-6.53,2.58-1.63,1.72-2.45,3.99-2.45,6.8v15.54c0,2.28-1.14,3.42-3.42,3.42Z"/>
    <path class="cls-1" d="M569.15,625.44c-5.36,0-9.58-1.51-12.66-4.52s-4.62-7.14-4.62-12.36c0-3.35,.68-6.31,2.04-8.88,1.36-2.57,3.25-4.57,5.66-6,2.41-1.43,5.18-2.14,8.31-2.14,4.51,0,8.06,1.44,10.65,4.32,2.59,2.88,3.89,6.85,3.89,11.89,0,1.52-.89,2.28-2.68,2.28h-21.31c.49,6.79,4.09,10.18,10.79,10.18,1.34,0,2.75-.17,4.22-.5,1.47-.33,2.9-.95,4.29-1.84,.94-.54,1.75-.73,2.45-.57,.69,.16,1.2,.54,1.51,1.14s.37,1.27,.17,2.01c-.2,.74-.73,1.37-1.57,1.91-1.52,1.03-3.29,1.8-5.33,2.31-2.03,.51-3.96,.77-5.8,.77Zm-1-29.15c-2.81,0-5.05,.87-6.7,2.61-1.65,1.74-2.66,4.07-3.02,6.97h18.29c-.13-3.04-.94-5.39-2.41-7.07-1.47-1.68-3.53-2.51-6.16-2.51Z"/>
    <path class="cls-1" d="M645.79,633.14c.67,.98,.87,1.88,.6,2.68-.27,.8-.79,1.4-1.57,1.78-.78,.38-1.62,.47-2.51,.27-.89-.2-1.65-.79-2.28-1.78l-4.42-7.17c-1.43-2.32-3.75-3.48-6.97-3.48-4.47,0-8.35-.99-11.66-2.98-3.31-1.99-5.86-4.8-7.67-8.44-1.81-3.64-2.71-7.92-2.71-12.83s.9-9.25,2.71-12.86c1.81-3.62,4.37-6.41,7.67-8.38,3.3-1.96,7.21-2.95,11.72-2.95s8.36,.98,11.69,2.95c3.33,1.97,5.9,4.76,7.71,8.38,1.81,3.62,2.71,7.88,2.71,12.8,0,5.58-1.15,10.33-3.45,14.24-2.3,3.91-5.46,6.71-9.48,8.41,.98,.31,1.85,.84,2.61,1.57,.76,.74,1.52,1.73,2.28,2.98l3.01,4.82Zm-17.08-13.73c4.69,0,8.34-1.6,10.95-4.79,2.61-3.19,3.92-7.67,3.92-13.43s-1.3-10.23-3.89-13.4c-2.59-3.17-6.25-4.76-10.99-4.76s-8.34,1.59-10.96,4.76c-2.61,3.17-3.92,7.64-3.92,13.4s1.31,10.24,3.92,13.43c2.61,3.19,6.26,4.79,10.96,4.79Z"/>
    <path class="cls-1" d="M663.62,625.3c-2.32,0-3.48-1.18-3.48-3.55v-40.6c0-2.37,1.18-3.55,3.55-3.55h16.01c5.09,0,9.02,1.22,11.79,3.65,2.77,2.44,4.15,5.84,4.15,10.22,0,3.53-.94,6.42-2.81,8.68-1.88,2.26-4.53,3.76-7.97,4.52,2.14,.71,3.95,2.44,5.43,5.16l5.76,10.72c.67,1.21,.8,2.3,.4,3.28-.4,.98-1.32,1.47-2.75,1.47-.98,0-1.79-.2-2.41-.6-.63-.4-1.16-1.05-1.61-1.94l-7.04-13c-.94-1.74-2.02-2.91-3.25-3.52-1.23-.6-2.8-.9-4.72-.9h-7.57v16.42c0,2.37-1.16,3.55-3.48,3.55Zm3.48-25.19h11.46c6.88,0,10.32-2.84,10.32-8.51s-3.44-8.44-10.32-8.44h-11.46v16.95Z"/>
    <path class="cls-1" d="M736.85,625.44c-3.35,0-6.24-.7-8.68-2.11-2.43-1.41-4.32-3.39-5.66-5.96-1.34-2.57-2.01-5.59-2.01-9.08,0-5.18,1.47-9.27,4.42-12.26,2.95-2.99,6.92-4.49,11.93-4.49,1.56,0,3.2,.23,4.92,.7,1.72,.47,3.32,1.24,4.79,2.31,.71,.45,1.13,1.02,1.24,1.71,.11,.69,0,1.34-.33,1.94s-.82,1-1.44,1.21c-.63,.2-1.34,.08-2.14-.37-1.07-.76-2.17-1.31-3.28-1.64-1.12-.33-2.19-.5-3.22-.5-3.17,0-5.62,.99-7.34,2.98-1.72,1.99-2.58,4.81-2.58,8.48s.86,6.53,2.58,8.61c1.72,2.08,4.17,3.12,7.34,3.12,1.03,0,2.09-.16,3.18-.47,1.09-.31,2.2-.85,3.32-1.61,.8-.45,1.51-.56,2.11-.33,.6,.22,1.05,.64,1.34,1.24,.29,.6,.38,1.25,.27,1.94-.11,.69-.53,1.26-1.24,1.71-1.43,1.03-2.98,1.76-4.66,2.21-1.67,.45-3.29,.67-4.86,.67Z"/>
    <path class="cls-1" d="M767.26,625.44c-3.31,0-6.16-.69-8.58-2.08-2.41-1.38-4.28-3.34-5.59-5.86-1.32-2.52-1.98-5.53-1.98-9.01s.66-6.49,1.98-9.01c1.32-2.52,3.18-4.48,5.59-5.86,2.41-1.38,5.27-2.08,8.58-2.08s6.03,.69,8.44,2.08c2.41,1.39,4.29,3.34,5.63,5.86,1.34,2.52,2.01,5.53,2.01,9.01s-.67,6.49-2.01,9.01c-1.34,2.52-3.22,4.48-5.63,5.86-2.41,1.39-5.23,2.08-8.44,2.08Zm0-5.23c2.77,0,5-1,6.7-3.02,1.7-2.01,2.55-4.91,2.55-8.71s-.85-6.69-2.55-8.68c-1.7-1.99-3.93-2.98-6.7-2.98s-5.07,.99-6.77,2.98c-1.7,1.99-2.55,4.88-2.55,8.68s.85,6.7,2.55,8.71c1.7,2.01,3.95,3.02,6.77,3.02Z"/>
    <path class="cls-1" d="M803.38,625.44c-2.86,0-5.37-.68-7.54-2.04-2.17-1.36-3.85-3.32-5.06-5.86-1.21-2.55-1.81-5.56-1.81-9.04s.6-6.49,1.81-9.01c1.21-2.52,2.88-4.48,5.03-5.86,2.14-1.38,4.67-2.08,7.57-2.08,2.46,0,4.65,.54,6.57,1.61,1.92,1.07,3.35,2.52,4.29,4.35v-16.95c0-2.28,1.12-3.42,3.35-3.42s3.42,1.14,3.42,3.42v41.34c0,2.28-1.12,3.42-3.35,3.42s-3.35-1.14-3.35-3.42v-2.55c-.98,1.88-2.43,3.36-4.35,4.46-1.92,1.09-4.11,1.64-6.57,1.64Zm1.74-5.23c2.77,0,5-1,6.7-3.02,1.7-2.01,2.55-4.91,2.55-8.71s-.85-6.69-2.55-8.68c-1.7-1.99-3.93-2.98-6.7-2.98s-5.07,.99-6.77,2.98c-1.7,1.99-2.55,4.88-2.55,8.68s.85,6.7,2.55,8.71c1.7,2.01,3.95,3.02,6.77,3.02Z"/>
    <path class="cls-1" d="M845.85,625.44c-5.36,0-9.58-1.51-12.66-4.52-3.08-3.02-4.62-7.14-4.62-12.36,0-3.35,.68-6.31,2.04-8.88,1.36-2.57,3.25-4.57,5.66-6,2.41-1.43,5.18-2.14,8.31-2.14,4.51,0,8.06,1.44,10.65,4.32,2.59,2.88,3.89,6.85,3.89,11.89,0,1.52-.89,2.28-2.68,2.28h-21.31c.49,6.79,4.09,10.18,10.79,10.18,1.34,0,2.75-.17,4.22-.5,1.47-.33,2.9-.95,4.29-1.84,.94-.54,1.75-.73,2.45-.57,.69,.16,1.2,.54,1.51,1.14s.37,1.27,.17,2.01c-.2,.74-.73,1.37-1.58,1.91-1.52,1.03-3.29,1.8-5.33,2.31-2.03,.51-3.96,.77-5.8,.77Zm-1-29.15c-2.81,0-5.05,.87-6.7,2.61-1.65,1.74-2.66,4.07-3.01,6.97h18.29c-.13-3.04-.94-5.39-2.41-7.07-1.47-1.68-3.53-2.51-6.16-2.51Z"/>
    <path class="cls-1" d="M898.11,625.44c-4.11,0-7.17-1.05-9.18-3.15-2.01-2.1-3.01-5.14-3.01-9.11v-15.81h-4.02c-1.88,0-2.81-.87-2.81-2.61s.94-2.61,2.81-2.61h4.02v-6.9c0-2.28,1.14-3.42,3.42-3.42s3.35,1.14,3.35,3.42v6.9h7.84c1.88,0,2.81,.87,2.81,2.61s-.94,2.61-2.81,2.61h-7.84v15.28c0,2.37,.5,4.15,1.51,5.36s2.65,1.81,4.92,1.81c.8,0,1.5-.08,2.08-.23,.58-.16,1.09-.26,1.54-.3,.49,0,.89,.17,1.21,.5,.31,.33,.47,.97,.47,1.91,0,.71-.12,1.35-.37,1.91-.25,.56-.68,.93-1.31,1.11-.54,.22-1.26,.4-2.18,.54-.92,.13-1.73,.2-2.45,.2Z"/>
    <path class="cls-1" d="M922.5,625.44c-3.31,0-6.16-.69-8.58-2.08-2.41-1.38-4.28-3.34-5.59-5.86-1.32-2.52-1.98-5.53-1.98-9.01s.66-6.49,1.98-9.01c1.32-2.52,3.18-4.48,5.59-5.86,2.41-1.38,5.27-2.08,8.58-2.08s6.03,.69,8.44,2.08c2.41,1.39,4.29,3.34,5.63,5.86,1.34,2.52,2.01,5.53,2.01,9.01s-.67,6.49-2.01,9.01c-1.34,2.52-3.22,4.48-5.63,5.86-2.41,1.39-5.23,2.08-8.44,2.08Zm0-5.23c2.77,0,5-1,6.7-3.02,1.7-2.01,2.55-4.91,2.55-8.71s-.85-6.69-2.55-8.68c-1.7-1.99-3.93-2.98-6.7-2.98s-5.07,.99-6.77,2.98c-1.7,1.99-2.55,4.88-2.55,8.68s.85,6.7,2.55,8.71c1.7,2.01,3.95,3.02,6.77,3.02Z"/>
    <path class="cls-1" d="M225.11,719.44c-1.97,0-4-.22-6.1-.67-2.1-.45-4-1.21-5.7-2.28-.76-.45-1.23-1-1.41-1.67-.18-.67-.13-1.29,.13-1.88,.27-.58,.7-.99,1.31-1.24,.6-.24,1.28-.17,2.04,.23,1.74,.94,3.42,1.61,5.02,2.01,1.61,.4,3.19,.6,4.76,.6,2.37,0,4.15-.42,5.36-1.27,1.21-.85,1.81-1.99,1.81-3.42,0-1.16-.4-2.07-1.21-2.71-.8-.65-2.01-1.15-3.62-1.51l-6.36-1.27c-5.63-1.16-8.44-4.06-8.44-8.71,0-3.08,1.23-5.54,3.69-7.37,2.46-1.83,5.67-2.75,9.65-2.75s7.48,.98,10.39,2.95c.71,.45,1.14,.99,1.27,1.64,.13,.65,.04,1.25-.27,1.81-.31,.56-.77,.95-1.37,1.17-.6,.22-1.31,.13-2.11-.27-1.34-.8-2.68-1.4-4.02-1.78-1.34-.38-2.64-.57-3.89-.57-2.32,0-4.09,.44-5.29,1.31-1.21,.87-1.81,2.04-1.81,3.52,0,2.23,1.47,3.66,4.42,4.29l6.36,1.27c2.9,.58,5.1,1.56,6.6,2.95,1.5,1.38,2.24,3.26,2.24,5.63,0,3.13-1.23,5.57-3.69,7.34-2.46,1.77-5.72,2.65-9.78,2.65Z"/>
    <path class="cls-1" d="M256.53,719.44c-2.28,0-4.31-.45-6.1-1.34-1.79-.89-3.21-2.1-4.25-3.62-1.05-1.52-1.57-3.24-1.57-5.16,0-2.41,.61-4.31,1.84-5.69,1.23-1.38,3.26-2.39,6.1-3.02,2.84-.62,6.67-.94,11.49-.94h2.28v-1.74c0-2.55-.54-4.38-1.61-5.49-1.07-1.12-2.84-1.68-5.29-1.68-1.43,0-2.91,.18-4.46,.54-1.54,.36-3.14,.96-4.79,1.81-.94,.45-1.71,.51-2.31,.2-.6-.31-1.02-.8-1.24-1.47-.22-.67-.2-1.36,.07-2.08,.27-.71,.83-1.25,1.68-1.61,1.96-.89,3.91-1.55,5.83-1.98,1.92-.42,3.73-.64,5.43-.64,4.47,0,7.77,1.06,9.92,3.18,2.14,2.12,3.22,5.44,3.22,9.95v17.22c0,2.28-1.05,3.42-3.15,3.42s-3.22-1.14-3.22-3.42v-2.48c-.8,1.88-2.06,3.35-3.75,4.42-1.7,1.07-3.73,1.61-6.1,1.61Zm1.34-4.82c2.41,0,4.42-.85,6.03-2.55,1.61-1.7,2.41-3.84,2.41-6.43v-1.81h-2.21c-3.26,0-5.82,.16-7.67,.47-1.85,.31-3.17,.84-3.95,1.57-.78,.74-1.17,1.75-1.17,3.05,0,1.7,.58,3.07,1.74,4.12,1.16,1.05,2.77,1.57,4.82,1.57Z"/>
    <path class="cls-1" d="M294.39,719.3c-1.88,0-3.26-1.01-4.15-3.02l-11.19-26c-.54-1.21-.56-2.28-.07-3.22,.49-.94,1.5-1.41,3.02-1.41,.8,0,1.46,.2,1.98,.6,.51,.4,.97,1.1,1.37,2.08l9.18,22.65,9.38-22.65c.4-.98,.86-1.68,1.37-2.08,.51-.4,1.24-.6,2.18-.6,1.21,0,2.03,.47,2.48,1.41,.45,.94,.42,1.99-.07,3.15l-11.32,26.06c-.85,2.01-2.23,3.02-4.15,3.02Z"/>
    <path class="cls-1" d="M331.3,719.44c-5.36,0-9.58-1.51-12.66-4.52s-4.62-7.14-4.62-12.36c0-3.35,.68-6.31,2.04-8.88,1.36-2.57,3.25-4.57,5.66-6,2.41-1.43,5.18-2.14,8.31-2.14,4.51,0,8.06,1.44,10.65,4.32,2.59,2.88,3.89,6.85,3.89,11.89,0,1.52-.89,2.28-2.68,2.28h-21.31c.49,6.79,4.09,10.18,10.79,10.18,1.34,0,2.75-.17,4.22-.5,1.47-.33,2.9-.95,4.29-1.84,.94-.54,1.75-.73,2.45-.57,.69,.16,1.19,.54,1.51,1.14,.31,.6,.37,1.27,.17,2.01-.2,.74-.73,1.37-1.57,1.91-1.52,1.03-3.29,1.8-5.33,2.31-2.03,.51-3.96,.77-5.8,.77Zm-1-29.15c-2.81,0-5.05,.87-6.7,2.61-1.65,1.74-2.66,4.07-3.02,6.97h18.29c-.13-3.04-.94-5.39-2.41-7.07-1.47-1.68-3.53-2.51-6.16-2.51Z"/>
    <path class="cls-1" d="M372.98,678.83c-1.34,0-2.38-.33-3.12-1-.74-.67-1.11-1.61-1.11-2.81,0-2.55,1.41-3.82,4.22-3.82s4.22,1.27,4.22,3.82-1.41,3.82-4.22,3.82Zm0,40.4c-2.23,0-3.35-1.23-3.35-3.69v-26.13c0-2.41,1.12-3.62,3.35-3.62s3.42,1.21,3.42,3.62v26.13c0,2.46-1.14,3.69-3.42,3.69Z"/>
    <path class="cls-1" d="M399.84,719.44c-4.11,0-7.17-1.05-9.18-3.15-2.01-2.1-3.02-5.14-3.02-9.11v-15.81h-4.02c-1.88,0-2.81-.87-2.81-2.61s.94-2.61,2.81-2.61h4.02v-6.9c0-2.28,1.14-3.42,3.42-3.42s3.35,1.14,3.35,3.42v6.9h7.84c1.88,0,2.81,.87,2.81,2.61s-.94,2.61-2.81,2.61h-7.84v15.28c0,2.37,.5,4.15,1.51,5.36s2.65,1.81,4.92,1.81c.8,0,1.5-.08,2.08-.23,.58-.16,1.09-.26,1.54-.3,.49,0,.89,.17,1.21,.5,.31,.33,.47,.97,.47,1.91,0,.71-.12,1.35-.37,1.91-.25,.56-.68,.93-1.31,1.11-.54,.22-1.26,.4-2.18,.54-.92,.13-1.73,.2-2.45,.2Z"/>
    <path class="cls-1" d="M441.98,719.44c-4.11,0-7.17-1.05-9.18-3.15-2.01-2.1-3.02-5.14-3.02-9.11v-15.81h-4.02c-1.88,0-2.81-.87-2.81-2.61s.94-2.61,2.81-2.61h4.02v-6.9c0-2.28,1.14-3.42,3.42-3.42s3.35,1.14,3.35,3.42v6.9h7.84c1.88,0,2.81,.87,2.81,2.61s-.94,2.61-2.81,2.61h-7.84v15.28c0,2.37,.5,4.15,1.51,5.36s2.65,1.81,4.92,1.81c.8,0,1.5-.08,2.08-.23,.58-.16,1.09-.26,1.54-.3,.49,0,.89,.17,1.21,.5,.31,.33,.47,.97,.47,1.91,0,.71-.12,1.35-.37,1.91-.25,.56-.68,.93-1.31,1.11-.54,.22-1.26,.4-2.18,.54-.92,.13-1.73,.2-2.45,.2Z"/>
    <path class="cls-1" d="M466.37,719.44c-3.31,0-6.16-.69-8.58-2.08-2.41-1.38-4.28-3.34-5.59-5.86-1.32-2.52-1.98-5.53-1.98-9.01s.66-6.49,1.98-9.01c1.32-2.52,3.18-4.48,5.59-5.86,2.41-1.38,5.27-2.08,8.58-2.08s6.03,.69,8.44,2.08c2.41,1.39,4.29,3.34,5.63,5.86,1.34,2.52,2.01,5.53,2.01,9.01s-.67,6.49-2.01,9.01c-1.34,2.52-3.22,4.48-5.63,5.86-2.41,1.39-5.23,2.08-8.44,2.08Zm0-5.23c2.77,0,5-1,6.7-3.02,1.7-2.01,2.55-4.91,2.55-8.71s-.85-6.69-2.55-8.68c-1.7-1.99-3.93-2.98-6.7-2.98s-5.07,.99-6.77,2.98c-1.7,1.99-2.55,4.88-2.55,8.68s.85,6.7,2.55,8.71c1.7,2.01,3.95,3.02,6.77,3.02Z"/>
    <path class="cls-1" d="M515.41,731.36c-1.25,0-2.11-.46-2.58-1.37-.47-.92-.44-1.98,.1-3.18l3.95-8.84-11.93-27.67c-.54-1.21-.55-2.28-.03-3.22,.51-.94,1.53-1.41,3.05-1.41,.8,0,1.46,.2,1.98,.6,.51,.4,.97,1.1,1.37,2.08l9.18,22.65,9.31-22.65c.4-1.03,.87-1.73,1.41-2.11,.54-.38,1.27-.57,2.21-.57,1.21,0,2.03,.47,2.48,1.41,.45,.94,.42,1.99-.07,3.15l-16.75,38.52c-.45,1.03-.95,1.72-1.51,2.08-.56,.36-1.28,.54-2.18,.54Z"/>
    <path class="cls-1" d="M556.15,719.44c-3.31,0-6.16-.69-8.58-2.08-2.41-1.38-4.28-3.34-5.59-5.86-1.32-2.52-1.98-5.53-1.98-9.01s.66-6.49,1.98-9.01c1.32-2.52,3.18-4.48,5.59-5.86,2.41-1.38,5.27-2.08,8.58-2.08s6.03,.69,8.44,2.08c2.41,1.39,4.29,3.34,5.63,5.86,1.34,2.52,2.01,5.53,2.01,9.01s-.67,6.49-2.01,9.01c-1.34,2.52-3.22,4.48-5.63,5.86-2.41,1.39-5.23,2.08-8.44,2.08Zm0-5.23c2.77,0,5-1,6.7-3.02,1.7-2.01,2.55-4.91,2.55-8.71s-.85-6.69-2.55-8.68c-1.7-1.99-3.93-2.98-6.7-2.98s-5.07,.99-6.77,2.98c-1.7,1.99-2.55,4.88-2.55,8.68s.85,6.7,2.55,8.71c1.7,2.01,3.95,3.02,6.77,3.02Z"/>
    <path class="cls-1" d="M591.46,719.44c-7.91,0-11.86-4.4-11.86-13.2v-17.15c0-2.28,1.12-3.42,3.35-3.42s3.42,1.14,3.42,3.42v17.22c0,2.64,.54,4.58,1.61,5.83,1.07,1.25,2.77,1.88,5.09,1.88,2.55,0,4.61-.85,6.2-2.55,1.58-1.7,2.38-3.98,2.38-6.83v-15.54c0-2.28,1.14-3.42,3.42-3.42s3.35,1.14,3.35,3.42v26.8c0,2.28-1.1,3.42-3.28,3.42s-3.28-1.14-3.28-3.42v-2.28c-1.07,1.92-2.5,3.37-4.29,4.35-1.79,.98-3.82,1.47-6.1,1.47Z"/>
    <path class="cls-1" d="M621.34,719.3c-2.28,0-3.42-1.14-3.42-3.42v-26.8c0-2.28,1.09-3.42,3.28-3.42s3.28,1.14,3.28,3.42v2.88c.89-2.01,2.24-3.55,4.05-4.62,1.81-1.07,4.01-1.7,6.6-1.88,1.65-.13,2.55,.76,2.68,2.68,.18,1.97-.78,3.04-2.88,3.22l-1.27,.13c-5.94,.58-8.91,3.64-8.91,9.18v15.21c0,2.28-1.14,3.42-3.42,3.42Z"/>
    <path class="cls-1" d="M675.41,731.5c-2.41,0-4.75-.25-7-.74-2.26-.49-4.3-1.3-6.13-2.41-.8-.45-1.3-1.01-1.47-1.68-.18-.67-.1-1.32,.23-1.94,.33-.63,.8-1.08,1.41-1.37,.6-.29,1.26-.23,1.98,.17,1.96,1.07,3.83,1.8,5.59,2.18,1.76,.38,3.41,.57,4.92,.57,6.25,0,9.38-3.13,9.38-9.38v-5.16c-.94,1.97-2.4,3.51-4.39,4.62-1.99,1.12-4.21,1.67-6.67,1.67-2.95,0-5.52-.68-7.71-2.04-2.19-1.36-3.89-3.26-5.09-5.69-1.21-2.43-1.81-5.28-1.81-8.54s.6-6.04,1.81-8.48c1.21-2.43,2.9-4.33,5.09-5.69,2.19-1.36,4.76-2.04,7.71-2.04,2.46,0,4.66,.55,6.6,1.64,1.94,1.1,3.38,2.58,4.32,4.46v-2.55c0-2.28,1.12-3.42,3.35-3.42s3.35,1.14,3.35,3.42v27c0,5.14-1.32,8.99-3.95,11.56-2.64,2.57-6.48,3.85-11.52,3.85Zm-.54-18.76c2.86,0,5.14-.98,6.83-2.95,1.7-1.96,2.55-4.65,2.55-8.04s-.85-6.06-2.55-8.01c-1.7-1.94-3.98-2.91-6.83-2.91s-5.14,.97-6.83,2.91c-1.7,1.94-2.55,4.61-2.55,8.01s.85,6.08,2.55,8.04c1.7,1.97,3.97,2.95,6.83,2.95Z"/>
    <path class="cls-1" d="M710.85,719.44c-2.28,0-4.31-.45-6.1-1.34-1.79-.89-3.21-2.1-4.25-3.62-1.05-1.52-1.57-3.24-1.57-5.16,0-2.41,.61-4.31,1.84-5.69,1.23-1.38,3.26-2.39,6.1-3.02,2.84-.62,6.67-.94,11.49-.94h2.28v-1.74c0-2.55-.54-4.38-1.61-5.49-1.07-1.12-2.84-1.68-5.29-1.68-1.43,0-2.91,.18-4.46,.54-1.54,.36-3.14,.96-4.79,1.81-.94,.45-1.71,.51-2.31,.2-.6-.31-1.02-.8-1.24-1.47-.22-.67-.2-1.36,.07-2.08,.27-.71,.83-1.25,1.67-1.61,1.96-.89,3.91-1.55,5.83-1.98,1.92-.42,3.73-.64,5.43-.64,4.47,0,7.77,1.06,9.92,3.18,2.14,2.12,3.22,5.44,3.22,9.95v17.22c0,2.28-1.05,3.42-3.15,3.42s-3.22-1.14-3.22-3.42v-2.48c-.8,1.88-2.05,3.35-3.75,4.42-1.7,1.07-3.73,1.61-6.1,1.61Zm1.34-4.82c2.41,0,4.42-.85,6.03-2.55,1.61-1.7,2.41-3.84,2.41-6.43v-1.81h-2.21c-3.26,0-5.82,.16-7.67,.47-1.85,.31-3.17,.84-3.95,1.57-.78,.74-1.17,1.75-1.17,3.05,0,1.7,.58,3.07,1.74,4.12,1.16,1.05,2.77,1.57,4.82,1.57Z"/>
    <path class="cls-1" d="M746.9,719.44c-3.48,0-6.11-1-7.87-3.02-1.76-2.01-2.65-4.96-2.65-8.84v-33.03c0-2.28,1.12-3.42,3.35-3.42s3.42,1.14,3.42,3.42v32.63c0,4.42,1.79,6.63,5.36,6.63,.4,0,.76-.02,1.07-.07,.31-.04,.62-.07,.94-.07,.54-.04,.92,.1,1.14,.44,.22,.33,.33,1.02,.33,2.04,0,1.83-.85,2.88-2.55,3.15-.45,.04-.88,.08-1.31,.1-.42,.02-.84,.03-1.24,.03Z"/>
    <path class="cls-1" d="M767.4,719.44c-3.48,0-6.11-1-7.87-3.02-1.76-2.01-2.65-4.96-2.65-8.84v-33.03c0-2.28,1.12-3.42,3.35-3.42s3.42,1.14,3.42,3.42v32.63c0,4.42,1.79,6.63,5.36,6.63,.4,0,.76-.02,1.07-.07,.31-.04,.62-.07,.94-.07,.54-.04,.92,.1,1.14,.44,.22,.33,.33,1.02,.33,2.04,0,1.83-.85,2.88-2.55,3.15-.45,.04-.88,.08-1.31,.1-.42,.02-.84,.03-1.24,.03Z"/>
    <path class="cls-1" d="M792.39,719.44c-5.36,0-9.58-1.51-12.66-4.52-3.08-3.02-4.62-7.14-4.62-12.36,0-3.35,.68-6.31,2.04-8.88,1.36-2.57,3.25-4.57,5.66-6,2.41-1.43,5.18-2.14,8.31-2.14,4.51,0,8.06,1.44,10.65,4.32,2.59,2.88,3.89,6.85,3.89,11.89,0,1.52-.89,2.28-2.68,2.28h-21.31c.49,6.79,4.09,10.18,10.79,10.18,1.34,0,2.75-.17,4.22-.5,1.47-.33,2.9-.95,4.29-1.84,.94-.54,1.75-.73,2.45-.57,.69,.16,1.2,.54,1.51,1.14s.37,1.27,.17,2.01c-.2,.74-.73,1.37-1.58,1.91-1.52,1.03-3.29,1.8-5.33,2.31-2.03,.51-3.96,.77-5.8,.77Zm-1-29.15c-2.81,0-5.05,.87-6.7,2.61-1.65,1.74-2.66,4.07-3.01,6.97h18.29c-.13-3.04-.94-5.39-2.41-7.07-1.47-1.68-3.53-2.51-6.16-2.51Z"/>
    <path class="cls-1" d="M816.44,719.3c-2.28,0-3.42-1.14-3.42-3.42v-26.8c0-2.28,1.09-3.42,3.28-3.42s3.28,1.14,3.28,3.42v2.88c.89-2.01,2.24-3.55,4.05-4.62,1.81-1.07,4.01-1.7,6.6-1.88,1.65-.13,2.55,.76,2.68,2.68,.18,1.97-.78,3.04-2.88,3.22l-1.27,.13c-5.94,.58-8.91,3.64-8.91,9.18v15.21c0,2.28-1.14,3.42-3.42,3.42Z"/>
    <path class="cls-1" d="M847.73,731.36c-1.25,0-2.11-.46-2.58-1.37-.47-.92-.44-1.98,.1-3.18l3.95-8.84-11.93-27.67c-.54-1.21-.55-2.28-.03-3.22,.51-.94,1.53-1.41,3.05-1.41,.8,0,1.46,.2,1.98,.6,.51,.4,.97,1.1,1.37,2.08l9.18,22.65,9.31-22.65c.4-1.03,.87-1.73,1.41-2.11,.54-.38,1.27-.57,2.21-.57,1.21,0,2.03,.47,2.48,1.41,.45,.94,.42,1.99-.07,3.15l-16.75,38.52c-.45,1.03-.95,1.72-1.51,2.08-.56,.36-1.28,.54-2.18,.54Z"/>
  </g>
  <g id="InputBox">
    <rect class="cls-5" x="92" y="1926.5" width="895" height="163" rx="57.5" ry="57.5"/>
    <path class="cls-3" d="M929.5,1929c30.33,0,55,24.67,55,55v48c0,30.33-24.67,55-55,55H149.5c-30.33,0-55-24.67-55-55v-48c0-30.33,24.67-55,55-55H929.5m0-5H149.5c-33.14,0-60,26.86-60,60v48c0,33.14,26.86,60,60,60H929.5c33.14,0,60-26.86,60-60v-48c0-33.14-26.86-60-60-60h0Z"/>
  </g>
  <g>
    <path class="cls-1" d="M166.52,2036.31c-2.94,0-4.4-1.51-4.4-4.54v-42.17c0-2.98,1.47-4.47,4.4-4.47s4.47,1.49,4.47,4.47v16.47c1.18-1.89,2.77-3.32,4.76-4.29,1.99-.97,4.19-1.46,6.6-1.46,8.19,0,12.28,4.76,12.28,14.27v17.18c0,3.03-1.47,4.54-4.4,4.54s-4.47-1.51-4.47-4.54v-16.76c0-2.7-.51-4.66-1.53-5.89-1.02-1.23-2.59-1.85-4.72-1.85-2.6,0-4.67,.82-6.21,2.45-1.54,1.63-2.31,3.8-2.31,6.5v15.55c0,3.03-1.49,4.54-4.47,4.54Z"/>
    <path class="cls-1" d="M219.55,2036.45c-9.18,0-13.77-4.54-13.77-13.63v-15.12h-3.69c-2.37,0-3.55-1.11-3.55-3.34s1.18-3.34,3.55-3.34h3.69v-6.46c0-2.98,1.49-4.47,4.47-4.47s4.4,1.49,4.4,4.47v6.46h7.53c2.37,0,3.55,1.11,3.55,3.34s-1.18,3.34-3.55,3.34h-7.53v14.63c0,2.27,.5,3.98,1.49,5.11,.99,1.14,2.6,1.7,4.83,1.7,.8,0,1.51-.07,2.13-.21,.61-.14,1.16-.24,1.63-.28,.57-.05,1.04,.13,1.42,.53,.38,.4,.57,1.22,.57,2.45,0,.95-.15,1.79-.46,2.52-.31,.73-.86,1.24-1.67,1.53-.62,.19-1.42,.37-2.41,.53-.99,.17-1.87,.25-2.63,.25Z"/>
    <path class="cls-1" d="M244.83,2036.45c-9.18,0-13.77-4.54-13.77-13.63v-15.12h-3.69c-2.37,0-3.55-1.11-3.55-3.34s1.18-3.34,3.55-3.34h3.69v-6.46c0-2.98,1.49-4.47,4.47-4.47s4.4,1.49,4.4,4.47v6.46h7.53c2.37,0,3.55,1.11,3.55,3.34s-1.18,3.34-3.55,3.34h-7.53v14.63c0,2.27,.5,3.98,1.49,5.11,.99,1.14,2.6,1.7,4.83,1.7,.8,0,1.51-.07,2.13-.21,.61-.14,1.16-.24,1.63-.28,.57-.05,1.04,.13,1.42,.53,.38,.4,.57,1.22,.57,2.45,0,.95-.15,1.79-.46,2.52-.31,.73-.86,1.24-1.67,1.53-.62,.19-1.42,.37-2.41,.53-.99,.17-1.87,.25-2.63,.25Z"/>
    <path class="cls-1" d="M260.59,2049.09c-2.93,0-4.4-1.49-4.4-4.47v-39.69c0-2.98,1.44-4.47,4.33-4.47s4.4,1.49,4.4,4.47v1.49c.99-1.85,2.49-3.33,4.47-4.44,1.99-1.11,4.26-1.67,6.82-1.67,3.03,0,5.69,.73,7.99,2.2,2.3,1.47,4.08,3.54,5.36,6.21,1.28,2.67,1.92,5.88,1.92,9.62s-.64,6.9-1.92,9.62c-1.28,2.72-3.05,4.82-5.33,6.28-2.27,1.47-4.95,2.2-8.02,2.2-2.46,0-4.67-.53-6.64-1.6s-3.47-2.5-4.51-4.3v14.06c0,2.98-1.49,4.47-4.47,4.47Zm13.14-19.38c2.65,0,4.78-.96,6.39-2.88,1.61-1.92,2.41-4.74,2.41-8.48s-.81-6.61-2.41-8.48c-1.61-1.87-3.74-2.8-6.39-2.8s-4.78,.94-6.39,2.8c-1.61,1.87-2.41,4.7-2.41,8.48s.8,6.57,2.41,8.48c1.61,1.92,3.74,2.88,6.39,2.88Z"/>
    <path class="cls-1" d="M311.5,2036.45c-2.04,0-4.19-.21-6.46-.64-2.27-.43-4.31-1.16-6.11-2.2-.99-.57-1.61-1.27-1.85-2.09-.24-.83-.2-1.61,.11-2.34,.31-.73,.83-1.27,1.56-1.6,.73-.33,1.6-.26,2.59,.21,1.89,.9,3.67,1.53,5.33,1.88,1.66,.35,3.29,.53,4.9,.53,2.27,0,3.96-.39,5.08-1.17,1.11-.78,1.67-1.81,1.67-3.09,0-1.99-1.47-3.27-4.4-3.83l-7.1-1.35c-6.01-1.14-9.02-4.26-9.02-9.37,0-2.27,.63-4.24,1.88-5.89,1.25-1.66,2.99-2.93,5.22-3.83,2.22-.9,4.78-1.35,7.67-1.35,4.17,0,7.88,.92,11.15,2.77,.9,.47,1.43,1.12,1.6,1.95,.17,.83,.07,1.61-.28,2.34-.36,.73-.91,1.25-1.67,1.56-.76,.31-1.63,.23-2.63-.25-1.47-.76-2.88-1.3-4.22-1.63-1.35-.33-2.64-.5-3.87-.5-2.32,0-4.04,.4-5.15,1.21-1.11,.81-1.67,1.87-1.67,3.2,0,2.08,1.35,3.36,4.05,3.83l7.1,1.35c3.08,.57,5.41,1.61,6.99,3.12,1.59,1.52,2.38,3.55,2.38,6.11,0,3.46-1.35,6.17-4.05,8.13s-6.3,2.95-10.79,2.95Z"/>
    <path class="cls-1" d="M337.69,2011.17c-1.61,0-2.9-.5-3.87-1.49-.97-.99-1.46-2.25-1.46-3.76s.49-2.83,1.46-3.8,2.26-1.46,3.87-1.46,2.95,.49,3.87,1.46c.92,.97,1.38,2.24,1.38,3.8s-.46,2.77-1.38,3.76c-.92,.99-2.21,1.49-3.87,1.49Zm0,24.92c-1.61,0-2.9-.5-3.87-1.49-.97-.99-1.46-2.27-1.46-3.83s.49-2.76,1.46-3.73c.97-.97,2.26-1.46,3.87-1.46s2.95,.49,3.87,1.46c.92,.97,1.38,2.21,1.38,3.73s-.46,2.84-1.38,3.83c-.92,.99-2.21,1.49-3.87,1.49Z"/>
    <path class="cls-1" d="M356.58,2037.8c-.33,1.14-.94,1.88-1.81,2.24-.88,.36-1.75,.4-2.63,.14-.88-.26-1.56-.77-2.06-1.53-.5-.76-.56-1.73-.18-2.91l16.4-50.91c.38-1.14,.99-1.89,1.85-2.27,.85-.38,1.71-.44,2.59-.18,.88,.26,1.56,.78,2.06,1.56s.56,1.74,.18,2.88l-16.4,50.98Z"/>
    <path class="cls-1" d="M375.61,2037.8c-.33,1.14-.94,1.88-1.81,2.24-.88,.36-1.75,.4-2.63,.14-.88-.26-1.56-.77-2.06-1.53-.5-.76-.56-1.73-.18-2.91l16.4-50.91c.38-1.14,.99-1.89,1.85-2.27,.85-.38,1.71-.44,2.59-.18,.88,.26,1.56,.78,2.06,1.56s.56,1.74,.18,2.88l-16.4,50.98Z"/>
    <path class="cls-1" d="M396.48,2036.31c-2.94,0-4.4-1.51-4.4-4.54v-26.84c0-2.98,1.44-4.47,4.33-4.47s4.33,1.49,4.33,4.47v1.42c1.04-1.89,2.49-3.37,4.33-4.44,1.85-1.06,3.98-1.6,6.39-1.6,5.21,0,8.61,2.27,10.22,6.82,1.09-2.13,2.65-3.8,4.69-5.01s4.35-1.81,6.96-1.81c7.81,0,11.71,4.76,11.71,14.27v17.18c0,3.03-1.49,4.54-4.47,4.54s-4.4-1.51-4.4-4.54v-16.83c0-2.65-.44-4.59-1.31-5.82-.88-1.23-2.35-1.85-4.44-1.85-2.32,0-4.14,.82-5.47,2.45s-1.99,3.89-1.99,6.78v15.26c0,3.03-1.47,4.54-4.4,4.54s-4.47-1.51-4.47-4.54v-16.83c0-2.65-.44-4.59-1.31-5.82-.88-1.23-2.33-1.85-4.37-1.85-2.32,0-4.14,.82-5.47,2.45-1.33,1.63-1.99,3.89-1.99,6.78v15.26c0,3.03-1.49,4.54-4.47,4.54Z"/>
    <path class="cls-1" d="M465.63,2036.45c-2.51,0-4.75-.49-6.71-1.46-1.96-.97-3.5-2.28-4.62-3.94-1.11-1.66-1.67-3.53-1.67-5.61,0-2.56,.66-4.58,1.99-6.07,1.32-1.49,3.48-2.57,6.46-3.23,2.98-.66,6.98-.99,12-.99h2.49v-1.49c0-2.37-.52-4.07-1.56-5.11-1.04-1.04-2.79-1.56-5.25-1.56-1.37,0-2.85,.17-4.44,.5-1.59,.33-3.25,.9-5.01,1.7-1.14,.52-2.08,.58-2.84,.18-.76-.4-1.27-1.04-1.53-1.92-.26-.88-.21-1.76,.14-2.66,.35-.9,1.08-1.56,2.17-1.99,2.18-.9,4.27-1.54,6.28-1.92,2.01-.38,3.85-.57,5.5-.57,5.06,0,8.83,1.17,11.29,3.51,2.46,2.34,3.69,5.98,3.69,10.9v17.04c0,3.03-1.37,4.54-4.12,4.54s-4.19-1.51-4.19-4.54v-1.56c-.81,1.94-2.08,3.47-3.83,4.58-1.75,1.11-3.83,1.67-6.25,1.67Zm1.85-6.11c2.32,0,4.25-.8,5.79-2.41,1.54-1.61,2.31-3.64,2.31-6.11v-1.56h-2.41c-4.45,0-7.54,.34-9.27,1.03-1.73,.69-2.59,1.93-2.59,3.73,0,1.56,.54,2.84,1.63,3.83,1.09,.99,2.6,1.49,4.54,1.49Z"/>
    <path class="cls-1" d="M497.58,2036.31c-3.03,0-4.54-1.51-4.54-4.54v-26.84c0-2.98,1.44-4.47,4.33-4.47s4.33,1.49,4.33,4.47v2.2c1.7-4.07,5.35-6.34,10.93-6.82,2.03-.24,3.17,.92,3.41,3.48,.24,2.51-.99,3.91-3.69,4.19l-1.56,.14c-5.82,.57-8.73,3.55-8.73,8.95v14.7c0,3.03-1.49,4.54-4.47,4.54Z"/>
    <path class="cls-1" d="M537.06,2036.31c-2.37,0-4.12-1.25-5.25-3.76l-11.29-26.2c-.66-1.56-.67-2.93-.04-4.12,.64-1.18,1.93-1.77,3.87-1.77,1.09,0,1.96,.25,2.63,.75,.66,.5,1.25,1.43,1.78,2.8l8.52,21.3,8.8-21.37c.52-1.32,1.12-2.24,1.81-2.73,.69-.5,1.62-.75,2.8-.75,1.51,0,2.58,.59,3.2,1.77,.61,1.18,.59,2.53-.07,4.05l-11.5,26.27c-1.04,2.51-2.79,3.76-5.25,3.76Z"/>
    <path class="cls-1" d="M564.82,1993.92c-1.66,0-2.95-.41-3.87-1.24s-1.38-1.98-1.38-3.44,.46-2.67,1.38-3.48c.92-.8,2.21-1.21,3.87-1.21,3.5,0,5.25,1.56,5.25,4.69s-1.75,4.69-5.25,4.69Zm0,42.32c-1.42,0-2.51-.43-3.27-1.28-.76-.85-1.14-2.03-1.14-3.55v-26.06c0-3.22,1.47-4.83,4.4-4.83s4.47,1.61,4.47,4.83v26.06c0,1.52-.38,2.7-1.14,3.55s-1.87,1.28-3.34,1.28Z"/>
    <path class="cls-1" d="M590.38,2036.45c-7.91,0-11.86-4.43-11.86-13.28v-33.58c0-2.98,1.47-4.47,4.4-4.47s4.47,1.49,4.47,4.47v33.16c0,4.26,1.77,6.39,5.33,6.39,.38,0,.73-.01,1.06-.04,.33-.02,.66-.06,.99-.11,.66-.09,1.11,.08,1.35,.53,.24,.45,.36,1.36,.36,2.73,0,1.18-.24,2.11-.71,2.77-.47,.66-1.25,1.06-2.34,1.21-.99,.14-2.01,.21-3.05,.21Z"/>
    <path class="cls-1" d="M606.14,2036.09c-1.61,0-2.9-.5-3.87-1.49-.97-.99-1.46-2.27-1.46-3.83s.49-2.76,1.46-3.73c.97-.97,2.26-1.46,3.87-1.46s2.95,.49,3.87,1.46c.92,.97,1.38,2.21,1.38,3.73s-.46,2.84-1.38,3.83c-.92,.99-2.21,1.49-3.87,1.49Z"/>
    <path class="cls-1" d="M634.26,2036.45c-3.65,0-6.82-.75-9.51-2.24-2.7-1.49-4.78-3.61-6.25-6.35-1.47-2.75-2.2-5.96-2.2-9.66s.73-6.88,2.2-9.55c1.47-2.67,3.55-4.73,6.25-6.18,2.7-1.44,5.87-2.17,9.51-2.17,1.56,0,3.25,.21,5.08,.64s3.54,1.14,5.15,2.13c.95,.57,1.5,1.3,1.67,2.2,.17,.9,.05,1.73-.36,2.48-.4,.76-.99,1.3-1.77,1.63-.78,.33-1.67,.21-2.66-.36-2.18-1.23-4.28-1.85-6.32-1.85-3.08,0-5.46,.96-7.14,2.88-1.68,1.92-2.52,4.65-2.52,8.2s.84,6.26,2.52,8.27c1.68,2.01,4.06,3.02,7.14,3.02,2.03,0,4.14-.59,6.32-1.78,.99-.57,1.87-.69,2.63-.36,.76,.33,1.3,.89,1.63,1.67,.33,.78,.4,1.61,.21,2.49-.19,.88-.73,1.6-1.63,2.17-1.56,.95-3.22,1.63-4.97,2.06-1.75,.43-3.41,.64-4.97,.64Z"/>
    <path class="cls-1" d="M666.84,2036.45c-3.6,0-6.72-.73-9.37-2.2-2.65-1.47-4.71-3.56-6.18-6.28-1.47-2.72-2.2-5.93-2.2-9.62s.73-6.89,2.2-9.58c1.47-2.7,3.53-4.78,6.18-6.25,2.65-1.47,5.77-2.2,9.37-2.2s6.72,.73,9.37,2.2c2.65,1.47,4.71,3.55,6.18,6.25,1.47,2.7,2.2,5.89,2.2,9.58s-.73,6.9-2.2,9.62c-1.47,2.72-3.53,4.82-6.18,6.28-2.65,1.47-5.78,2.2-9.37,2.2Zm0-6.75c2.65,0,4.78-.96,6.39-2.88,1.61-1.92,2.41-4.74,2.41-8.48s-.81-6.61-2.41-8.48c-1.61-1.87-3.74-2.8-6.39-2.8s-4.78,.94-6.39,2.8c-1.61,1.87-2.41,4.7-2.41,8.48s.8,6.57,2.41,8.48,3.74,2.88,6.39,2.88Z"/>
    <path class="cls-1" d="M693.54,2037.8c-.33,1.14-.94,1.88-1.81,2.24-.88,.36-1.75,.4-2.63,.14-.88-.26-1.56-.77-2.06-1.53-.5-.76-.56-1.73-.18-2.91l16.4-50.91c.38-1.14,.99-1.89,1.85-2.27,.85-.38,1.71-.44,2.59-.18,.88,.26,1.56,.78,2.06,1.56s.56,1.74,.18,2.88l-16.4,50.98Z"/>
    <path class="cls-1" d="M725.92,2036.45c-3.65,0-6.82-.75-9.51-2.24-2.7-1.49-4.78-3.61-6.25-6.35-1.47-2.75-2.2-5.96-2.2-9.66s.73-6.88,2.2-9.55c1.47-2.67,3.55-4.73,6.25-6.18,2.7-1.44,5.87-2.17,9.51-2.17,1.56,0,3.25,.21,5.08,.64s3.54,1.14,5.15,2.13c.95,.57,1.5,1.3,1.67,2.2,.17,.9,.05,1.73-.36,2.48-.4,.76-.99,1.3-1.77,1.63-.78,.33-1.67,.21-2.66-.36-2.18-1.23-4.28-1.85-6.32-1.85-3.08,0-5.46,.96-7.14,2.88-1.68,1.92-2.52,4.65-2.52,8.2s.84,6.26,2.52,8.27c1.68,2.01,4.06,3.02,7.14,3.02,2.03,0,4.14-.59,6.32-1.78,.99-.57,1.87-.69,2.63-.36,.76,.33,1.3,.89,1.63,1.67,.33,.78,.4,1.61,.21,2.49-.19,.88-.73,1.6-1.63,2.17-1.56,.95-3.22,1.63-4.97,2.06-1.75,.43-3.41,.64-4.97,.64Z"/>
    <path class="cls-1" d="M759.78,2036.45c-3.93,0-7.31-.73-10.15-2.2-2.84-1.47-5.03-3.55-6.57-6.25-1.54-2.7-2.31-5.89-2.31-9.58s.75-6.75,2.24-9.44c1.49-2.7,3.55-4.82,6.18-6.35,2.63-1.54,5.62-2.31,8.98-2.31,4.92,0,8.82,1.56,11.68,4.69,2.86,3.12,4.3,7.38,4.3,12.78,0,1.75-1.14,2.63-3.41,2.63h-21.44c.66,6.2,4.21,9.3,10.65,9.3,1.23,0,2.61-.15,4.15-.46,1.54-.31,2.99-.84,4.37-1.6,1.23-.71,2.27-.93,3.12-.67,.85,.26,1.46,.77,1.81,1.53,.36,.76,.4,1.6,.14,2.52-.26,.92-.94,1.72-2.02,2.38-1.66,1.04-3.56,1.81-5.72,2.31-2.15,.5-4.15,.75-6,.75Zm-1.28-30.1c-2.6,0-4.71,.81-6.32,2.41-1.61,1.61-2.58,3.79-2.91,6.53h17.47c-.19-2.89-.98-5.1-2.38-6.64-1.4-1.54-3.35-2.31-5.86-2.31Z"/>
    <path class="cls-1" d="M785.55,2036.31c-2.93,0-4.4-1.51-4.4-4.54v-26.84c0-2.98,1.44-4.47,4.33-4.47s4.33,1.49,4.33,4.47v1.49c1.18-1.99,2.78-3.5,4.79-4.54,2.01-1.04,4.27-1.56,6.78-1.56,8.19,0,12.28,4.76,12.28,14.27v17.18c0,3.03-1.47,4.54-4.4,4.54s-4.47-1.51-4.47-4.54v-16.76c0-2.7-.51-4.66-1.53-5.89-1.02-1.23-2.59-1.85-4.72-1.85-2.6,0-4.67,.82-6.21,2.45-1.54,1.63-2.31,3.8-2.31,6.5v15.55c0,3.03-1.49,4.54-4.47,4.54Z"/>
    <path class="cls-1" d="M838.59,2036.45c-9.18,0-13.77-4.54-13.77-13.63v-15.12h-3.69c-2.37,0-3.55-1.11-3.55-3.34s1.18-3.34,3.55-3.34h3.69v-6.46c0-2.98,1.49-4.47,4.47-4.47s4.4,1.49,4.4,4.47v6.46h7.53c2.37,0,3.55,1.11,3.55,3.34s-1.18,3.34-3.55,3.34h-7.53v14.63c0,2.27,.5,3.98,1.49,5.11,.99,1.14,2.6,1.7,4.83,1.7,.8,0,1.51-.07,2.13-.21,.61-.14,1.16-.24,1.63-.28,.57-.05,1.04,.13,1.42,.53,.38,.4,.57,1.22,.57,2.45,0,.95-.15,1.79-.46,2.52-.31,.73-.86,1.24-1.67,1.53-.62,.19-1.42,.37-2.41,.53-.99,.17-1.87,.25-2.63,.25Z"/>
    <path class="cls-1" d="M854.49,2036.31c-3.03,0-4.54-1.51-4.54-4.54v-26.84c0-2.98,1.44-4.47,4.33-4.47s4.33,1.49,4.33,4.47v2.2c1.7-4.07,5.35-6.34,10.93-6.82,2.03-.24,3.17,.92,3.41,3.48,.24,2.51-.99,3.91-3.69,4.19l-1.56,.14c-5.82,.57-8.73,3.55-8.73,8.95v14.7c0,3.03-1.49,4.54-4.47,4.54Z"/>
  </g>
  <g id="QRCode">
    <path d="M194.5,982v193.2h193.2v-193.2H194.5Zm165.6,165.6H222.1v-138h138v138Z"/>
    <rect x="249.7" y="1037.2" width="82.8" height="82.8"/>
    <rect x="442.9" y="1009.6" width="27.6" height="27.6"/>
    <rect x="415.3" y="982" width="27.6" height="27.6"/>
    <rect x="470.5" y="1009.6" width="27.6" height="27.6"/>
    <rect x="470.5" y="1037.2" width="27.6" height="27.6"/>
    <rect x="498.1" y="982" width="27.6" height="27.6"/>
    <rect x="525.7" y="982" width="27.6" height="27.6"/>
    <rect x="580.9" y="982" width="27.6" height="27.6"/>
    <rect x="580.9" y="1037.2" width="27.6" height="27.6"/>
    <rect x="525.7" y="1037.2" width="55.2" height="55.2"/>
    <rect x="580.9" y="1092.4" width="27.6" height="27.6"/>
    <rect x="608.5" y="1064.8" width="27.6" height="27.6"/>
    <rect x="636.1" y="1064.8" width="27.6" height="27.6"/>
    <rect x="636.1" y="1092.4" width="27.6" height="27.6"/>
    <rect x="498.1" y="1092.4" width="27.6" height="27.6"/>
    <rect x="470.5" y="1120" width="27.6" height="110.4"/>
    <rect x="442.9" y="1092.4" width="27.6" height="27.6"/>
    <rect x="415.3" y="1147.6" width="27.6" height="55.2"/>
    <rect x="498.1" y="1175.2" width="27.6" height="27.6"/>
    <rect x="498.1" y="1202.8" width="27.6" height="27.6"/>
    <rect x="442.9" y="1202.8" width="27.6" height="27.6"/>
    <rect x="415.3" y="1230.4" width="27.6" height="27.6"/>
    <rect x="442.9" y="1230.4" width="27.6" height="27.6"/>
    <rect x="387.7" y="1230.4" width="27.6" height="27.6"/>
    <rect x="360.1" y="1202.8" width="27.6" height="27.6"/>
    <rect x="332.5" y="1230.4" width="27.6" height="27.6"/>
    <rect x="360.1" y="1258" width="27.6" height="27.6"/>
    <rect x="387.7" y="1258" width="27.6" height="27.6"/>
    <rect x="304.9" y="1202.8" width="27.6" height="27.6"/>
    <rect x="277.3" y="1202.8" width="27.6" height="27.6"/>
    <rect x="277.3" y="1230.4" width="27.6" height="27.6"/>
    <rect x="249.7" y="1230.4" width="27.6" height="27.6"/>
    <rect x="222.1" y="1202.8" width="27.6" height="27.6"/>
    <rect x="222.1" y="1230.4" width="27.6" height="27.6"/>
    <rect x="194.5" y="1202.8" width="27.6" height="27.6"/>
    <rect x="249.7" y="1258" width="27.6" height="27.6"/>
    <rect x="277.3" y="1258" width="27.6" height="27.6"/>
    <rect x="277.3" y="1285.6" width="27.6" height="27.6"/>
    <rect x="304.9" y="1313.2" width="27.6" height="27.6"/>
    <rect x="332.5" y="1340.8" width="27.6" height="27.6"/>
    <rect x="360.1" y="1313.2" width="27.6" height="27.6"/>
    <rect x="222.1" y="1285.6" width="27.6" height="27.6"/>
    <rect x="194.5" y="1285.6" width="27.6" height="27.6"/>
    <rect x="222.1" y="1313.2" width="27.6" height="27.6"/>
    <rect x="194.5" y="1340.8" width="55.2" height="55.2"/>
    <rect x="194.5" y="1396" width="27.6" height="27.6"/>
    <rect x="194.5" y="1423.6" width="27.6" height="27.6"/>
    <rect x="249.7" y="1396" width="27.6" height="27.6"/>
    <rect x="249.7" y="1423.6" width="27.6" height="27.6"/>
    <rect x="277.3" y="1396" width="27.6" height="27.6"/>
    <rect x="304.9" y="1396" width="27.6" height="27.6"/>
    <rect x="304.9" y="1423.6" width="27.6" height="27.6"/>
    <rect x="304.9" y="1368.4" width="138" height="27.6"/>
    <rect x="415.3" y="1340.8" width="27.6" height="27.6"/>
    <rect x="442.9" y="1285.6" width="27.6" height="55.2"/>
    <rect x="470.5" y="1285.6" width="27.6" height="27.6"/>
    <rect x="470.5" y="1258" width="27.6" height="27.6"/>
    <rect x="525.7" y="1230.4" width="27.6" height="27.6"/>
    <rect x="498.1" y="1258" width="27.6" height="27.6"/>
    <rect x="498.1" y="1285.6" width="55.2" height="55.2"/>
    <path d="M194.5,1478.8v193.2h193.2v-193.2H194.5Zm165.6,165.6H222.1v-138h138v138Z"/>
    <rect x="249.7" y="1534" width="82.8" height="82.8"/>
    <rect x="360.1" y="1423.6" width="27.6" height="27.6"/>
    <rect x="387.7" y="1396" width="27.6" height="27.6"/>
    <rect x="415.3" y="1396" width="27.6" height="82.8"/>
    <rect x="442.9" y="1478.8" width="27.6" height="27.6"/>
    <rect x="442.9" y="1451.2" width="27.6" height="27.6"/>
    <rect x="442.9" y="1396" width="27.6" height="27.6"/>
    <rect x="470.5" y="1368.4" width="82.8" height="27.6"/>
    <rect x="498.1" y="1396" width="27.6" height="27.6"/>
    <rect x="470.5" y="1423.6" width="27.6" height="27.6"/>
    <rect x="470.5" y="1451.2" width="82.8" height="27.6"/>
    <rect x="553.3" y="1423.6" width="27.6" height="27.6"/>
    <rect x="580.9" y="1451.2" width="27.6" height="27.6"/>
    <rect x="553.3" y="1478.8" width="27.6" height="27.6"/>
    <rect x="498.1" y="1478.8" width="27.6" height="27.6"/>
    <rect x="525.7" y="1506.4" width="110.4" height="27.6"/>
    <rect x="580.9" y="1340.8" width="27.6" height="82.8"/>
    <rect x="608.5" y="1340.8" width="27.6" height="55.2"/>
    <rect x="636.1" y="1368.4" width="27.6" height="27.6"/>
    <rect x="636.1" y="1313.2" width="27.6" height="27.6"/>
    <rect x="663.7" y="1340.8" width="27.6" height="27.6"/>
    <rect x="580.9" y="1285.6" width="55.2" height="27.6"/>
    <rect x="608.5" y="1258" width="27.6" height="27.6"/>
    <rect x="580.9" y="1202.8" width="55.2" height="55.2"/>
    <rect x="608.5" y="1175.2" width="27.6" height="27.6"/>
    <rect x="636.1" y="1202.8" width="27.6" height="27.6"/>
    <rect x="636.1" y="1147.6" width="27.6" height="27.6"/>
    <rect x="580.9" y="1147.6" width="27.6" height="27.6"/>
    <rect x="553.3" y="1175.2" width="27.6" height="27.6"/>
    <rect x="525.7" y="1120" width="27.6" height="55.2"/>
    <rect x="553.3" y="1120" width="27.6" height="27.6"/>
    <rect x="636.1" y="982" width="27.6" height="55.2"/>
    <path d="M691.3,982v193.2h193.2v-193.2h-193.2Zm165.6,165.6h-138v-138h138v138Z"/>
    <rect x="746.5" y="1037.2" width="82.8" height="82.8"/>
    <rect x="691.3" y="1202.8" width="27.6" height="27.6"/>
    <rect x="718.9" y="1230.4" width="138" height="27.6"/>
    <rect x="856.9" y="1202.8" width="27.6" height="27.6"/>
    <rect x="856.9" y="1258" width="27.6" height="82.8"/>
    <rect x="691.3" y="1285.6" width="165.6" height="27.6"/>
    <rect x="691.3" y="1313.2" width="27.6" height="27.6"/>
    <rect x="718.9" y="1313.2" width="27.6" height="27.6"/>
    <rect x="663.7" y="1258" width="143.52" height="27.6"/>
    <rect x="746.5" y="1340.8" width="27.6" height="55.2"/>
    <rect x="829.3" y="1340.8" width="27.6" height="27.6"/>
    <rect x="856.9" y="1368.4" width="27.6" height="55.2"/>
    <rect x="774.1" y="1368.4" width="82.8" height="27.6"/>
    <rect x="774.1" y="1396" width="55.2" height="27.6"/>
    <rect x="801.7" y="1423.6" width="55.2" height="55.2"/>
    <rect x="856.9" y="1478.8" width="27.6" height="110.4"/>
    <rect x="829.3" y="1506.4" width="27.6" height="82.8"/>
    <rect x="691.3" y="1368.4" width="27.6" height="27.6"/>
    <rect x="718.9" y="1396" width="27.6" height="27.6"/>
    <path d="M636.1,1423.6v138h138v-138h-138Zm110.4,110.4h-82.8v-82.8h82.8v82.8Z"/>
    <rect x="691.3" y="1478.8" width="27.6" height="27.6"/>
    <rect x="525.7" y="1534" width="27.6" height="27.6"/>
    <rect x="580.9" y="1534" width="55.2" height="27.6"/>
    <rect x="608.5" y="1561.6" width="110.4" height="27.6"/>
    <rect x="525.7" y="1589.2" width="136.16" height="27.6"/>
    <rect x="525.7" y="1644.4" width="82.8" height="27.6"/>
    <rect x="634.26" y="1644.4" width="57.04" height="27.6"/>
    <rect x="691.3" y="1616.8" width="82.8" height="27.6"/>
    <rect x="746.5" y="1589.2" width="138" height="27.6"/>
    <rect x="801.7" y="1616.8" width="82.8" height="27.6"/>
    <rect x="774.1" y="1644.4" width="27.6" height="27.6"/>
    <rect x="856.9" y="1644.4" width="27.6" height="27.6"/>
    <rect x="415.3" y="1531.24" width="27.6" height="57.96"/>
    <rect x="442.9" y="1561.6" width="55.2" height="55.2"/>
    <rect x="470.5" y="1616.8" width="27.6" height="55.2"/>
    <rect x="415.3" y="1644.4" width="55.2" height="27.6"/>
    <rect x="415.3" y="1616.8" width="27.6" height="27.6"/>
  </g>
</svg>