<?xml version="1.0" encoding="UTF-8"?>
<svg id="QR_Code_Scanner" data-name="QR Code Scanner" xmlns="http://www.w3.org/2000/svg" viewBox="0 0 1080.5 2272">
  <defs>
    <style>
      .cls-1 {
        fill: #fff;
      }

      .cls-2 {
        opacity: .5;
      }

      .cls-3 {
        fill: #9f58f2;
      }

      .cls-4 {
        stroke: #fff;
        stroke-miterlimit: 10;
        stroke-width: 5px;
      }

      .cls-4, .cls-5 {
        fill: none;
      }

      .cls-6 {
        fill: #0c0414;
      }

      .cls-7 {
        fill: #22283d;
      }
    </style>
  </defs>
  <rect id="Background" class="cls-6" x=".5" width="1080" height="2272" rx="100" ry="100"/>
  <rect id="BottomBar" class="cls-7" y="2002" width="1080" height="270" rx="100" ry="100"/>
  <polyline id="GuideTL" class="cls-4" points="135.56 871.07 135.56 731.07 275.56 731.07"/>
  <polyline id="GuideTR" class="cls-4" points="944.44 870.93 944.44 730.93 804.44 730.93"/>
  <polyline id="GuideBL" class="cls-4" points="136.69 1401.08 136.69 1541.08 276.69 1541.08"/>
  <polyline id="GuideBR" class="cls-4" points="945.58 1401.22 945.58 1541.22 805.58 1541.22"/>
  <g>
    <path class="cls-1" d="M213.65,2120.33c-2,0-4.06-.23-6.19-.68-2.13-.45-4.06-1.22-5.78-2.31-.77-.45-1.25-1.02-1.43-1.7-.18-.68-.14-1.31,.14-1.9s.71-1.01,1.33-1.26c.61-.25,1.3-.17,2.07,.24,1.77,.95,3.47,1.63,5.1,2.04,1.63,.41,3.24,.61,4.83,.61,2.4,0,4.22-.43,5.44-1.29,1.22-.86,1.84-2.02,1.84-3.47,0-1.18-.41-2.1-1.22-2.75-.82-.66-2.04-1.17-3.67-1.53l-6.46-1.29c-5.71-1.18-8.57-4.12-8.57-8.84,0-3.13,1.25-5.62,3.74-7.48,2.49-1.86,5.76-2.79,9.79-2.79s7.59,1,10.54,2.99c.72,.45,1.16,1.01,1.29,1.67,.14,.66,.04,1.27-.27,1.84-.32,.57-.78,.96-1.39,1.19-.61,.23-1.33,.14-2.14-.27-1.36-.82-2.72-1.42-4.08-1.8-1.36-.38-2.68-.58-3.94-.58-2.36,0-4.15,.44-5.37,1.33-1.22,.88-1.84,2.07-1.84,3.57,0,2.27,1.5,3.72,4.49,4.35l6.46,1.29c2.95,.59,5.18,1.59,6.7,2.99,1.52,1.41,2.28,3.31,2.28,5.71,0,3.17-1.25,5.66-3.74,7.45-2.49,1.79-5.8,2.69-9.93,2.69Z"/>
    <path class="cls-1" d="M249.56,2120.33c-3.4,0-6.34-.71-8.81-2.14-2.47-1.43-4.39-3.45-5.75-6.05-1.36-2.61-2.04-5.68-2.04-9.21,0-5.26,1.5-9.41,4.49-12.44,2.99-3.04,7.03-4.56,12.1-4.56,1.59,0,3.25,.24,5,.71,1.74,.48,3.37,1.26,4.86,2.35,.72,.45,1.14,1.03,1.26,1.73,.11,.7,0,1.36-.34,1.97-.34,.61-.83,1.02-1.46,1.22-.64,.2-1.36,.08-2.18-.37-1.09-.77-2.2-1.33-3.33-1.67-1.13-.34-2.22-.51-3.26-.51-3.22,0-5.7,1.01-7.45,3.03-1.75,2.02-2.62,4.89-2.62,8.6s.87,6.63,2.62,8.74c1.74,2.11,4.23,3.16,7.45,3.16,1.04,0,2.12-.16,3.23-.48,1.11-.32,2.23-.86,3.37-1.63,.82-.45,1.53-.57,2.14-.34s1.06,.65,1.36,1.26c.29,.61,.38,1.27,.27,1.97-.11,.7-.53,1.28-1.26,1.73-1.45,1.04-3.03,1.79-4.73,2.24-1.7,.45-3.34,.68-4.93,.68Z"/>
    <path class="cls-1" d="M277.03,2120.33c-2.31,0-4.38-.45-6.19-1.36-1.81-.91-3.25-2.13-4.32-3.67-1.07-1.54-1.6-3.29-1.6-5.24,0-2.45,.62-4.38,1.87-5.78,1.25-1.41,3.31-2.42,6.19-3.06,2.88-.63,6.77-.95,11.66-.95h2.31v-1.77c0-2.58-.54-4.44-1.63-5.58-1.09-1.13-2.88-1.7-5.37-1.7-1.45,0-2.96,.18-4.52,.54-1.56,.36-3.19,.98-4.86,1.84-.95,.45-1.73,.52-2.35,.2-.61-.32-1.03-.82-1.26-1.5-.23-.68-.2-1.38,.07-2.11,.27-.72,.84-1.27,1.7-1.63,1.99-.91,3.97-1.58,5.92-2.01,1.95-.43,3.78-.65,5.51-.65,4.53,0,7.89,1.08,10.06,3.23,2.18,2.15,3.26,5.52,3.26,10.1v17.48c0,2.31-1.07,3.47-3.2,3.47s-3.26-1.16-3.26-3.47v-2.52c-.82,1.9-2.09,3.4-3.81,4.49-1.72,1.09-3.79,1.63-6.19,1.63Zm1.36-4.9c2.45,0,4.49-.86,6.12-2.58,1.63-1.72,2.45-3.9,2.45-6.53v-1.84h-2.24c-3.31,0-5.91,.16-7.79,.48-1.88,.32-3.22,.85-4.01,1.6-.79,.75-1.19,1.78-1.19,3.09,0,1.72,.59,3.12,1.77,4.18,1.18,1.07,2.81,1.6,4.9,1.6Z"/>
    <path class="cls-1" d="M306.33,2120.2c-2.27,0-3.4-1.16-3.4-3.47v-27.2c0-2.31,1.11-3.47,3.33-3.47s3.33,1.16,3.33,3.47v2.52c1.13-1.99,2.69-3.51,4.66-4.56,1.97-1.04,4.18-1.56,6.63-1.56,7.84,0,11.76,4.44,11.76,13.33v17.48c0,2.31-1.13,3.47-3.4,3.47s-3.47-1.16-3.47-3.47v-17.07c0-2.86-.56-4.94-1.67-6.26-1.11-1.31-2.85-1.97-5.2-1.97-2.77,0-4.98,.87-6.63,2.62-1.66,1.75-2.48,4.05-2.48,6.9v15.78c0,2.31-1.16,3.47-3.47,3.47Z"/>
    <path class="cls-1" d="M370.66,2120.33c-2.31,0-4.38-.45-6.19-1.36-1.81-.91-3.25-2.13-4.32-3.67-1.07-1.54-1.6-3.29-1.6-5.24,0-2.45,.62-4.38,1.87-5.78,1.25-1.41,3.31-2.42,6.19-3.06,2.88-.63,6.77-.95,11.66-.95h2.31v-1.77c0-2.58-.54-4.44-1.63-5.58-1.09-1.13-2.88-1.7-5.37-1.7-1.45,0-2.96,.18-4.52,.54-1.56,.36-3.19,.98-4.86,1.84-.95,.45-1.73,.52-2.35,.2-.61-.32-1.03-.82-1.26-1.5-.23-.68-.2-1.38,.07-2.11,.27-.72,.84-1.27,1.7-1.63,1.99-.91,3.97-1.58,5.92-2.01,1.95-.43,3.78-.65,5.51-.65,4.53,0,7.89,1.08,10.06,3.23,2.18,2.15,3.26,5.52,3.26,10.1v17.48c0,2.31-1.07,3.47-3.2,3.47s-3.26-1.16-3.26-3.47v-2.52c-.82,1.9-2.09,3.4-3.81,4.49-1.72,1.09-3.79,1.63-6.19,1.63Zm1.36-4.9c2.45,0,4.49-.86,6.12-2.58,1.63-1.72,2.45-3.9,2.45-6.53v-1.84h-2.24c-3.31,0-5.91,.16-7.79,.48-1.88,.32-3.22,.85-4.01,1.6-.79,.75-1.19,1.78-1.19,3.09,0,1.72,.59,3.12,1.77,4.18,1.18,1.07,2.81,1.6,4.9,1.6Z"/>
    <path class="cls-1" d="M453.42,2128.16c.68,1,.88,1.9,.61,2.72-.27,.82-.81,1.42-1.6,1.8-.79,.38-1.64,.48-2.55,.27-.91-.2-1.68-.81-2.31-1.8l-4.49-7.28c-1.45-2.36-3.81-3.54-7.07-3.54-4.53,0-8.48-1.01-11.83-3.03-3.36-2.02-5.95-4.87-7.79-8.57-1.84-3.69-2.75-8.04-2.75-13.02s.92-9.38,2.75-13.06c1.84-3.67,4.43-6.5,7.79-8.5,3.35-1.99,7.32-2.99,11.9-2.99s8.49,1,11.87,2.99c3.38,2,5.98,4.83,7.82,8.5s2.75,8,2.75,12.99c0,5.67-1.17,10.48-3.5,14.45-2.33,3.97-5.54,6.81-9.62,8.53,1,.32,1.88,.85,2.65,1.6,.77,.75,1.54,1.76,2.31,3.03l3.06,4.9Zm-17.34-13.94c4.76,0,8.47-1.62,11.12-4.86,2.65-3.24,3.98-7.79,3.98-13.63s-1.32-10.38-3.94-13.6c-2.63-3.22-6.35-4.83-11.15-4.83s-8.47,1.61-11.12,4.83c-2.65,3.22-3.98,7.75-3.98,13.6s1.33,10.39,3.98,13.63c2.65,3.24,6.36,4.86,11.12,4.86Z"/>
    <path class="cls-1" d="M471.5,2120.2c-2.36,0-3.54-1.2-3.54-3.6v-41.21c0-2.4,1.2-3.6,3.6-3.6h16.25c5.17,0,9.16,1.24,11.97,3.71,2.81,2.47,4.22,5.93,4.22,10.37,0,3.58-.95,6.52-2.86,8.81-1.9,2.29-4.6,3.82-8.09,4.59,2.18,.73,4.01,2.47,5.51,5.24l5.85,10.88c.68,1.22,.82,2.33,.41,3.33-.41,1-1.34,1.5-2.79,1.5-1,0-1.81-.2-2.45-.61-.64-.41-1.18-1.06-1.63-1.97l-7.14-13.19c-.95-1.77-2.05-2.96-3.3-3.57-1.25-.61-2.85-.92-4.79-.92h-7.68v16.66c0,2.4-1.18,3.6-3.54,3.6Zm3.54-25.57h11.63c6.98,0,10.47-2.88,10.47-8.64s-3.49-8.57-10.47-8.57h-11.63v17.2Z"/>
    <path class="cls-1" d="M545.83,2120.33c-3.4,0-6.34-.71-8.81-2.14-2.47-1.43-4.39-3.45-5.75-6.05-1.36-2.61-2.04-5.68-2.04-9.21,0-5.26,1.5-9.41,4.49-12.44,2.99-3.04,7.03-4.56,12.1-4.56,1.59,0,3.25,.24,5,.71,1.74,.48,3.37,1.26,4.86,2.35,.72,.45,1.14,1.03,1.26,1.73,.11,.7,0,1.36-.34,1.97-.34,.61-.83,1.02-1.46,1.22s-1.36,.08-2.18-.37c-1.09-.77-2.2-1.33-3.33-1.67-1.13-.34-2.22-.51-3.26-.51-3.22,0-5.7,1.01-7.45,3.03-1.75,2.02-2.62,4.89-2.62,8.6s.87,6.63,2.62,8.74c1.75,2.11,4.23,3.16,7.45,3.16,1.04,0,2.12-.16,3.23-.48,1.11-.32,2.23-.86,3.37-1.63,.82-.45,1.53-.57,2.14-.34,.61,.23,1.06,.65,1.36,1.26s.38,1.27,.27,1.97c-.11,.7-.53,1.28-1.26,1.73-1.45,1.04-3.03,1.79-4.73,2.24-1.7,.45-3.34,.68-4.93,.68Z"/>
    <path class="cls-1" d="M576.7,2120.33c-3.36,0-6.26-.7-8.7-2.11-2.45-1.4-4.34-3.39-5.68-5.95-1.34-2.56-2.01-5.61-2.01-9.15s.67-6.58,2.01-9.15c1.34-2.56,3.23-4.54,5.68-5.95s5.35-2.11,8.7-2.11,6.12,.7,8.57,2.11c2.45,1.41,4.35,3.39,5.71,5.95,1.36,2.56,2.04,5.61,2.04,9.15s-.68,6.58-2.04,9.15c-1.36,2.56-3.26,4.54-5.71,5.95-2.45,1.41-5.3,2.11-8.57,2.11Zm0-5.3c2.81,0,5.08-1.02,6.8-3.06,1.72-2.04,2.58-4.99,2.58-8.84s-.86-6.79-2.58-8.81c-1.72-2.02-3.99-3.03-6.8-3.03s-5.15,1.01-6.87,3.03c-1.72,2.02-2.58,4.95-2.58,8.81s.86,6.8,2.58,8.84c1.72,2.04,4.01,3.06,6.87,3.06Z"/>
    <path class="cls-1" d="M613.35,2120.33c-2.9,0-5.45-.69-7.65-2.07-2.2-1.38-3.91-3.37-5.13-5.95-1.22-2.58-1.84-5.64-1.84-9.18s.61-6.58,1.84-9.15c1.22-2.56,2.92-4.54,5.1-5.95s4.74-2.11,7.68-2.11c2.49,0,4.71,.54,6.66,1.63s3.4,2.56,4.35,4.42v-17.2c0-2.31,1.13-3.47,3.4-3.47s3.47,1.16,3.47,3.47v41.96c0,2.31-1.13,3.47-3.4,3.47s-3.4-1.16-3.4-3.47v-2.58c-1,1.9-2.47,3.41-4.42,4.52s-4.17,1.67-6.66,1.67Zm1.77-5.3c2.81,0,5.08-1.02,6.8-3.06,1.72-2.04,2.58-4.99,2.58-8.84s-.86-6.79-2.58-8.81c-1.72-2.02-3.99-3.03-6.8-3.03s-5.15,1.01-6.87,3.03c-1.72,2.02-2.58,4.95-2.58,8.81s.86,6.8,2.58,8.84c1.72,2.04,4.01,3.06,6.87,3.06Z"/>
    <path class="cls-1" d="M656.46,2120.33c-5.44,0-9.72-1.53-12.85-4.59-3.13-3.06-4.69-7.24-4.69-12.55,0-3.4,.69-6.4,2.07-9.01,1.38-2.61,3.3-4.63,5.75-6.09,2.45-1.45,5.26-2.18,8.43-2.18,4.58,0,8.18,1.46,10.81,4.39,2.63,2.92,3.94,6.95,3.94,12.07,0,1.54-.91,2.31-2.72,2.31h-21.62c.5,6.89,4.15,10.34,10.95,10.34,1.36,0,2.79-.17,4.28-.51,1.5-.34,2.95-.96,4.35-1.87,.95-.54,1.78-.74,2.48-.58,.7,.16,1.21,.54,1.53,1.16,.32,.61,.37,1.29,.17,2.04s-.74,1.39-1.6,1.94c-1.54,1.04-3.34,1.83-5.41,2.35-2.06,.52-4.02,.78-5.88,.78Zm-1.02-29.58c-2.86,0-5.12,.88-6.8,2.65-1.68,1.77-2.7,4.12-3.06,7.07h18.56c-.14-3.08-.95-5.47-2.45-7.17s-3.58-2.55-6.26-2.55Z"/>
    <path class="cls-1" d="M709.77,2120.33c-3.36,0-6.26-.7-8.7-2.11-2.45-1.4-4.34-3.39-5.68-5.95-1.34-2.56-2.01-5.61-2.01-9.15s.67-6.58,2.01-9.15c1.34-2.56,3.23-4.54,5.68-5.95s5.35-2.11,8.7-2.11,6.12,.7,8.57,2.11c2.45,1.41,4.35,3.39,5.71,5.95,1.36,2.56,2.04,5.61,2.04,9.15s-.68,6.58-2.04,9.15c-1.36,2.56-3.26,4.54-5.71,5.95-2.45,1.41-5.3,2.11-8.57,2.11Zm0-5.3c2.81,0,5.08-1.02,6.8-3.06,1.72-2.04,2.58-4.99,2.58-8.84s-.86-6.79-2.58-8.81c-1.72-2.02-3.99-3.03-6.8-3.03s-5.15,1.01-6.87,3.03c-1.72,2.02-2.58,4.95-2.58,8.81s.86,6.8,2.58,8.84c1.72,2.04,4.01,3.06,6.87,3.06Z"/>
    <path class="cls-1" d="M737.24,2120.2c-2.31,0-3.47-1.16-3.47-3.47v-27.2c0-2.31,1.11-3.47,3.33-3.47s3.33,1.16,3.33,3.47v2.92c.91-2.04,2.28-3.6,4.11-4.69,1.84-1.09,4.07-1.72,6.7-1.9,1.68-.14,2.58,.77,2.72,2.72,.18,2-.79,3.08-2.92,3.26l-1.29,.14c-6.03,.59-9.04,3.7-9.04,9.32v15.44c0,2.31-1.16,3.47-3.47,3.47Z"/>
    <path class="cls-1" d="M243.95,2214.33c-8.02,0-12.04-4.46-12.04-13.4v-17.41c0-2.31,1.13-3.47,3.4-3.47s3.47,1.16,3.47,3.47v17.48c0,2.68,.54,4.65,1.63,5.92,1.09,1.27,2.81,1.9,5.17,1.9,2.58,0,4.68-.86,6.29-2.58,1.61-1.72,2.41-4.03,2.41-6.94v-15.78c0-2.31,1.16-3.47,3.47-3.47s3.4,1.16,3.4,3.47v27.2c0,2.31-1.11,3.47-3.33,3.47s-3.33-1.16-3.33-3.47v-2.31c-1.09,1.95-2.54,3.42-4.35,4.42-1.81,1-3.88,1.5-6.19,1.5Z"/>
    <path class="cls-1" d="M274.2,2226.44c-2.27,0-3.4-1.16-3.4-3.47v-39.44c0-2.31,1.11-3.47,3.33-3.47s3.4,1.16,3.4,3.47v2.58c1-1.9,2.47-3.41,4.42-4.52,1.95-1.11,4.17-1.67,6.66-1.67,2.95,0,5.52,.7,7.72,2.11,2.2,1.41,3.9,3.39,5.1,5.95,1.2,2.56,1.8,5.61,1.8,9.15s-.6,6.6-1.8,9.18c-1.2,2.58-2.9,4.57-5.1,5.95-2.2,1.38-4.77,2.07-7.72,2.07-2.45,0-4.64-.53-6.56-1.6-1.93-1.07-3.39-2.53-4.39-4.39v14.62c0,2.31-1.16,3.47-3.47,3.47Zm12.72-17.41c2.86,0,5.13-1.02,6.83-3.06,1.7-2.04,2.55-4.99,2.55-8.84s-.85-6.79-2.55-8.81c-1.7-2.02-3.98-3.03-6.83-3.03s-5.13,1.01-6.83,3.03c-1.7,2.02-2.55,4.95-2.55,8.81s.85,6.8,2.55,8.84c1.7,2.04,3.98,3.06,6.83,3.06Z"/>
    <path class="cls-1" d="M321.67,2214.33c-3.54,0-6.2-1.02-7.99-3.06-1.79-2.04-2.69-5.03-2.69-8.98v-33.52c0-2.31,1.13-3.47,3.4-3.47s3.47,1.16,3.47,3.47v33.12c0,4.49,1.81,6.73,5.44,6.73,.41,0,.77-.02,1.09-.07,.32-.04,.63-.07,.95-.07,.54-.04,.93,.1,1.16,.44,.23,.34,.34,1.03,.34,2.07,0,1.86-.86,2.92-2.58,3.2-.45,.04-.9,.08-1.33,.1-.43,.02-.85,.03-1.26,.03Z"/>
    <path class="cls-1" d="M345.88,2214.33c-3.36,0-6.26-.7-8.7-2.11-2.45-1.4-4.34-3.39-5.68-5.95-1.34-2.56-2.01-5.61-2.01-9.15s.67-6.58,2.01-9.15c1.34-2.56,3.23-4.54,5.68-5.95,2.45-1.41,5.35-2.11,8.7-2.11s6.12,.7,8.57,2.11c2.45,1.41,4.35,3.39,5.71,5.95s2.04,5.61,2.04,9.15-.68,6.58-2.04,9.15-3.26,4.54-5.71,5.95c-2.45,1.41-5.3,2.11-8.57,2.11Zm0-5.3c2.81,0,5.08-1.02,6.8-3.06,1.72-2.04,2.58-4.99,2.58-8.84s-.86-6.79-2.58-8.81c-1.72-2.02-3.99-3.03-6.8-3.03s-5.15,1.01-6.87,3.03c-1.72,2.02-2.58,4.95-2.58,8.81s.86,6.8,2.58,8.84c1.72,2.04,4.01,3.06,6.87,3.06Z"/>
    <path class="cls-1" d="M380.49,2214.33c-2.31,0-4.38-.45-6.19-1.36-1.81-.91-3.25-2.13-4.32-3.67-1.07-1.54-1.6-3.29-1.6-5.24,0-2.45,.62-4.38,1.87-5.78,1.25-1.41,3.31-2.42,6.19-3.06,2.88-.63,6.77-.95,11.66-.95h2.31v-1.77c0-2.58-.54-4.44-1.63-5.58-1.09-1.13-2.88-1.7-5.37-1.7-1.45,0-2.96,.18-4.52,.54-1.56,.36-3.19,.98-4.86,1.84-.95,.45-1.73,.52-2.35,.2-.61-.32-1.03-.82-1.26-1.5-.23-.68-.2-1.38,.07-2.11,.27-.72,.84-1.27,1.7-1.63,1.99-.91,3.97-1.58,5.92-2.01,1.95-.43,3.78-.65,5.51-.65,4.53,0,7.89,1.08,10.06,3.23,2.18,2.15,3.26,5.52,3.26,10.1v17.48c0,2.31-1.07,3.47-3.2,3.47s-3.26-1.16-3.26-3.47v-2.52c-.82,1.9-2.09,3.4-3.81,4.49-1.72,1.09-3.79,1.63-6.19,1.63Zm1.36-4.9c2.45,0,4.49-.86,6.12-2.58,1.63-1.72,2.45-3.9,2.45-6.53v-1.84h-2.24c-3.31,0-5.91,.16-7.79,.48-1.88,.32-3.22,.85-4.01,1.6-.79,.75-1.19,1.78-1.19,3.09,0,1.72,.59,3.12,1.77,4.18,1.18,1.07,2.81,1.6,4.9,1.6Z"/>
    <path class="cls-1" d="M419.04,2214.33c-2.9,0-5.45-.69-7.65-2.07-2.2-1.38-3.91-3.37-5.13-5.95s-1.84-5.64-1.84-9.18,.61-6.58,1.84-9.15,2.92-4.54,5.1-5.95,4.74-2.11,7.68-2.11c2.49,0,4.71,.54,6.66,1.63,1.95,1.09,3.4,2.56,4.35,4.42v-17.2c0-2.31,1.13-3.47,3.4-3.47s3.47,1.16,3.47,3.47v41.96c0,2.31-1.13,3.47-3.4,3.47s-3.4-1.16-3.4-3.47v-2.58c-1,1.9-2.47,3.41-4.42,4.52-1.95,1.11-4.17,1.67-6.66,1.67Zm1.77-5.3c2.81,0,5.08-1.02,6.8-3.06,1.72-2.04,2.58-4.99,2.58-8.84s-.86-6.79-2.58-8.81c-1.72-2.02-3.99-3.03-6.8-3.03s-5.15,1.01-6.87,3.03c-1.72,2.02-2.58,4.95-2.58,8.81s.86,6.8,2.58,8.84c1.72,2.04,4.01,3.06,6.87,3.06Z"/>
    <path class="cls-1" d="M475.14,2214.33c-2.31,0-4.38-.45-6.19-1.36-1.81-.91-3.25-2.13-4.32-3.67-1.07-1.54-1.6-3.29-1.6-5.24,0-2.45,.62-4.38,1.87-5.78,1.25-1.41,3.31-2.42,6.19-3.06,2.88-.63,6.77-.95,11.66-.95h2.31v-1.77c0-2.58-.54-4.44-1.63-5.58-1.09-1.13-2.88-1.7-5.37-1.7-1.45,0-2.96,.18-4.52,.54-1.56,.36-3.19,.98-4.86,1.84-.95,.45-1.73,.52-2.35,.2-.61-.32-1.03-.82-1.26-1.5-.23-.68-.2-1.38,.07-2.11,.27-.72,.84-1.27,1.7-1.63,1.99-.91,3.97-1.58,5.92-2.01,1.95-.43,3.78-.65,5.51-.65,4.53,0,7.89,1.08,10.06,3.23,2.18,2.15,3.26,5.52,3.26,10.1v17.48c0,2.31-1.07,3.47-3.2,3.47s-3.26-1.16-3.26-3.47v-2.52c-.82,1.9-2.09,3.4-3.81,4.49-1.72,1.09-3.79,1.63-6.19,1.63Zm1.36-4.9c2.45,0,4.49-.86,6.12-2.58,1.63-1.72,2.45-3.9,2.45-6.53v-1.84h-2.24c-3.31,0-5.91,.16-7.79,.48-1.88,.32-3.22,.85-4.01,1.6-.79,.75-1.19,1.78-1.19,3.09,0,1.72,.59,3.12,1.77,4.18,1.18,1.07,2.81,1.6,4.9,1.6Z"/>
    <path class="cls-1" d="M504.45,2214.2c-2.27,0-3.4-1.16-3.4-3.47v-27.2c0-2.31,1.11-3.47,3.33-3.47s3.33,1.16,3.33,3.47v2.52c1.13-1.99,2.69-3.51,4.66-4.56,1.97-1.04,4.18-1.56,6.63-1.56,7.84,0,11.76,4.44,11.76,13.33v17.48c0,2.31-1.13,3.47-3.4,3.47s-3.47-1.16-3.47-3.47v-17.07c0-2.86-.55-4.94-1.67-6.26-1.11-1.31-2.84-1.97-5.2-1.97-2.77,0-4.98,.87-6.63,2.62-1.66,1.75-2.48,4.05-2.48,6.9v15.78c0,2.31-1.16,3.47-3.47,3.47Z"/>
    <path class="cls-1" d="M561.57,2173.13c-1.36,0-2.41-.34-3.16-1.02-.75-.68-1.12-1.63-1.12-2.86,0-2.58,1.43-3.88,4.28-3.88s4.28,1.29,4.28,3.88-1.43,3.88-4.28,3.88Zm0,41c-2.27,0-3.4-1.25-3.4-3.74v-26.52c0-2.45,1.13-3.67,3.4-3.67s3.47,1.22,3.47,3.67v26.52c0,2.49-1.16,3.74-3.47,3.74Z"/>
    <path class="cls-1" d="M578.23,2214.2c-2.27,0-3.4-1.16-3.4-3.47v-27.2c0-2.31,1.11-3.47,3.33-3.47s3.33,1.16,3.33,3.47v2.38c1-1.9,2.38-3.38,4.15-4.42,1.77-1.04,3.83-1.56,6.19-1.56,5.08,0,8.36,2.22,9.86,6.66,1.04-2.08,2.54-3.72,4.49-4.9s4.17-1.77,6.66-1.77c7.43,0,11.15,4.44,11.15,13.33v17.48c0,2.31-1.16,3.47-3.47,3.47s-3.4-1.16-3.4-3.47v-17.14c0-2.81-.49-4.87-1.46-6.19-.98-1.31-2.57-1.97-4.79-1.97-2.49,0-4.47,.87-5.92,2.62-1.45,1.75-2.18,4.11-2.18,7.11v15.57c0,2.31-1.13,3.47-3.4,3.47s-3.47-1.16-3.47-3.47v-17.14c0-2.81-.48-4.87-1.43-6.19-.95-1.31-2.54-1.97-4.76-1.97-2.49,0-4.45,.87-5.88,2.62-1.43,1.75-2.14,4.11-2.14,7.11v15.57c0,2.31-1.16,3.47-3.47,3.47Z"/>
    <path class="cls-1" d="M644.18,2214.33c-2.31,0-4.38-.45-6.19-1.36-1.81-.91-3.25-2.13-4.32-3.67-1.07-1.54-1.6-3.29-1.6-5.24,0-2.45,.62-4.38,1.87-5.78,1.25-1.41,3.31-2.42,6.19-3.06,2.88-.63,6.77-.95,11.66-.95h2.31v-1.77c0-2.58-.54-4.44-1.63-5.58-1.09-1.13-2.88-1.7-5.37-1.7-1.45,0-2.96,.18-4.52,.54-1.56,.36-3.19,.98-4.86,1.84-.95,.45-1.73,.52-2.35,.2-.61-.32-1.03-.82-1.26-1.5-.23-.68-.2-1.38,.07-2.11,.27-.72,.84-1.27,1.7-1.63,2-.91,3.97-1.58,5.92-2.01s3.79-.65,5.51-.65c4.53,0,7.89,1.08,10.06,3.23s3.26,5.52,3.26,10.1v17.48c0,2.31-1.07,3.47-3.2,3.47s-3.26-1.16-3.26-3.47v-2.52c-.82,1.9-2.08,3.4-3.81,4.49-1.72,1.09-3.79,1.63-6.19,1.63Zm1.36-4.9c2.45,0,4.49-.86,6.12-2.58,1.63-1.72,2.45-3.9,2.45-6.53v-1.84h-2.24c-3.31,0-5.91,.16-7.79,.48-1.88,.32-3.22,.85-4.01,1.6-.79,.75-1.19,1.78-1.19,3.09,0,1.72,.59,3.12,1.77,4.18,1.18,1.07,2.81,1.6,4.9,1.6Z"/>
    <path class="cls-1" d="M685.12,2226.58c-2.45,0-4.82-.25-7.11-.75-2.29-.5-4.36-1.32-6.22-2.45-.82-.45-1.32-1.02-1.5-1.7-.18-.68-.1-1.34,.24-1.97,.34-.64,.82-1.1,1.43-1.39,.61-.29,1.28-.24,2.01,.17,1.99,1.09,3.89,1.83,5.68,2.21,1.79,.38,3.46,.58,5,.58,6.35,0,9.52-3.17,9.52-9.52v-5.24c-.95,2-2.44,3.56-4.45,4.69-2.02,1.13-4.27,1.7-6.77,1.7-2.99,0-5.6-.69-7.82-2.07-2.22-1.38-3.94-3.31-5.17-5.78-1.22-2.47-1.84-5.36-1.84-8.67s.61-6.13,1.84-8.6c1.22-2.47,2.95-4.4,5.17-5.78,2.22-1.38,4.83-2.07,7.82-2.07,2.49,0,4.73,.56,6.7,1.67,1.97,1.11,3.43,2.62,4.39,4.52v-2.58c0-2.31,1.13-3.47,3.4-3.47s3.4,1.16,3.4,3.47v27.4c0,5.21-1.34,9.12-4.01,11.73-2.67,2.61-6.57,3.91-11.7,3.91Zm-.54-19.04c2.9,0,5.21-1,6.94-2.99,1.72-1.99,2.58-4.71,2.58-8.16s-.86-6.15-2.58-8.13c-1.72-1.97-4.04-2.96-6.94-2.96s-5.21,.99-6.94,2.96c-1.72,1.97-2.58,4.68-2.58,8.13s.86,6.17,2.58,8.16c1.72,2,4.03,2.99,6.94,2.99Z"/>
    <path class="cls-1" d="M726.06,2214.33c-5.44,0-9.72-1.53-12.85-4.59-3.13-3.06-4.69-7.24-4.69-12.55,0-3.4,.69-6.4,2.07-9.01,1.38-2.61,3.3-4.63,5.75-6.09,2.45-1.45,5.26-2.18,8.43-2.18,4.58,0,8.18,1.46,10.81,4.39,2.63,2.92,3.94,6.95,3.94,12.07,0,1.54-.91,2.31-2.72,2.31h-21.62c.5,6.89,4.15,10.34,10.95,10.34,1.36,0,2.79-.17,4.28-.51,1.5-.34,2.95-.96,4.35-1.87,.95-.54,1.78-.74,2.48-.58,.7,.16,1.21,.54,1.53,1.16,.32,.61,.37,1.29,.17,2.04s-.74,1.39-1.6,1.94c-1.54,1.04-3.34,1.83-5.41,2.35-2.06,.52-4.02,.78-5.88,.78Zm-1.02-29.58c-2.86,0-5.12,.88-6.8,2.65-1.68,1.77-2.7,4.12-3.06,7.07h18.56c-.14-3.08-.95-5.47-2.45-7.17s-3.58-2.55-6.26-2.55Z"/>
  </g>
  <path class="cls-5" d="M52,52h24v24h-24v-24Z"/>
  <path id="FocusIcon" class="cls-1" d="M59.78,88.67h-5.78v11.56c0,3.18,2.6,5.78,5.78,5.78h11.56v-5.78h-11.56v-11.56Zm0-28.89h11.56v-5.78h-11.56c-3.18,0-5.78,2.6-5.78,5.78v11.56h5.78v-11.56Zm40.44-5.78h-11.56v5.78h11.56v11.56h5.78v-11.56c0-3.18-2.6-5.78-5.78-5.78Zm0,46.22h-11.56v5.78h11.56c3.18,0,5.78-2.6,5.78-5.78v-11.56h-5.78v11.56Zm-20.22-28.89c-4.8,0-8.67,3.87-8.67,8.67s3.87,8.67,8.67,8.67,8.67-3.87,8.67-8.67-3.87-8.67-8.67-8.67Z"/>
  <path id="NoFlashIcon" class="cls-1" d="M1015.56,74.74h-10l6.32,6.32,3.69-6.32Zm0-22.17h-27.71v4.46l16.99,16.99,10.73-21.45Zm-37.66,2.38l-3.91,3.91,13.86,13.86v10.34h8.31v24.94l9.92-17.04,11.5,11.5,3.91-3.91-43.59-43.59Z"/>
  <path id="ImgIcon" class="cls-3" d="M962.31,2175.67v-79.29c0-6.23-5.1-11.33-11.33-11.33h-79.29c-6.23,0-11.33,5.1-11.33,11.33v79.29c0,6.23,5.1,11.33,11.33,11.33h79.29c6.23,0,11.33-5.1,11.33-11.33Zm-68.53-28.43l11.89,14.33,17.56-22.6c1.13-1.47,3.4-1.47,4.53,.06l19.88,26.5c1.42,1.87,.06,4.53-2.27,4.53h-67.9c-2.38,0-3.68-2.72-2.21-4.59l14.1-18.12c1.08-1.47,3.23-1.53,4.42-.11Z"/>
  <rect id="DarkFilter" class="cls-2" x="0" y="0" width="1080" height="2272" rx="100" ry="100"/>
  <rect id="Dialog" class="cls-7" x="205" y="906" width="670" height="460"/>
  <g>
    <path class="cls-1" d="M290.52,1018.22c-1.57,0-2.65-.84-3.25-2.52l-12.04-34.33c-.34-.97-.27-1.78,.2-2.44,.47-.65,1.24-.98,2.32-.98,.82,0,1.46,.19,1.93,.56,.47,.37,.83,.97,1.09,1.79l9.91,29.12,10.14-29.01c.63-1.64,1.62-2.46,2.97-2.46,.75,0,1.33,.21,1.76,.62,.43,.41,.81,1.05,1.15,1.9l10.02,29.29,10.14-29.46c.26-.78,.62-1.37,1.09-1.76,.47-.39,1.09-.59,1.88-.59,.97,0,1.69,.33,2.16,.98,.47,.65,.51,1.47,.14,2.44l-12.1,34.38c-.34,.82-.75,1.44-1.23,1.85-.49,.41-1.14,.62-1.96,.62s-1.53-.21-2.02-.62c-.49-.41-.88-1.04-1.18-1.9l-9.97-28.56-10.08,28.62c-.3,.82-.68,1.44-1.15,1.85-.47,.41-1.11,.62-1.93,.62Z"/>
    <path class="cls-1" d="M348.03,1018.34c-4.48,0-8.01-1.26-10.58-3.78-2.58-2.52-3.86-5.96-3.86-10.33,0-2.8,.57-5.27,1.71-7.42,1.14-2.15,2.72-3.82,4.73-5.01,2.02-1.19,4.33-1.79,6.94-1.79,3.77,0,6.74,1.2,8.9,3.61,2.16,2.41,3.25,5.72,3.25,9.94,0,1.27-.75,1.9-2.24,1.9h-17.81c.41,5.68,3.42,8.51,9.02,8.51,1.12,0,2.3-.14,3.53-.42,1.23-.28,2.43-.79,3.58-1.54,.78-.45,1.46-.61,2.04-.48,.58,.13,1,.45,1.26,.95,.26,.5,.31,1.06,.14,1.68s-.61,1.15-1.32,1.6c-1.27,.86-2.75,1.5-4.45,1.93-1.7,.43-3.31,.64-4.84,.64Zm-.84-24.36c-2.35,0-4.22,.73-5.6,2.18-1.38,1.46-2.22,3.4-2.52,5.82h15.29c-.11-2.54-.78-4.51-2.02-5.91-1.23-1.4-2.95-2.1-5.15-2.1Z"/>
    <path class="cls-1" d="M379.95,1018.34c-2.05,0-3.88-.46-5.49-1.37-1.61-.91-2.82-2.16-3.64-3.72v2.13c0,1.9-.92,2.86-2.74,2.86s-2.8-.95-2.8-2.86v-34.55c0-1.9,.93-2.86,2.8-2.86s2.86,.95,2.86,2.86v14.11c.82-1.49,2.02-2.69,3.61-3.58,1.59-.9,3.39-1.34,5.4-1.34,2.43,0,4.54,.58,6.36,1.74,1.81,1.16,3.21,2.79,4.2,4.9,.99,2.11,1.48,4.62,1.48,7.53s-.5,5.43-1.48,7.56c-.99,2.13-2.39,3.76-4.2,4.9-1.81,1.14-3.93,1.71-6.36,1.71Zm-1.4-4.37c2.35,0,4.23-.84,5.63-2.52,1.4-1.68,2.1-4.11,2.1-7.28s-.7-5.59-2.1-7.25c-1.4-1.66-3.28-2.49-5.63-2.49s-4.23,.83-5.63,2.49c-1.4,1.66-2.1,4.08-2.1,7.25s.7,5.6,2.1,7.28c1.4,1.68,3.28,2.52,5.63,2.52Z"/>
    <path class="cls-1" d="M407.95,1018.34c-1.64,0-3.34-.19-5.1-.56-1.76-.37-3.34-1.01-4.76-1.9-.64-.37-1.03-.84-1.18-1.4-.15-.56-.11-1.08,.11-1.57,.22-.48,.59-.83,1.09-1.04,.5-.21,1.07-.14,1.71,.2,1.46,.78,2.86,1.34,4.2,1.68,1.34,.34,2.67,.5,3.98,.5,1.98,0,3.47-.35,4.48-1.06,1.01-.71,1.51-1.66,1.51-2.86,0-.97-.34-1.73-1.01-2.27-.67-.54-1.68-.96-3.02-1.26l-5.32-1.06c-4.7-.97-7.06-3.4-7.06-7.28,0-2.58,1.03-4.63,3.08-6.16,2.05-1.53,4.74-2.3,8.06-2.3s6.25,.82,8.68,2.46c.6,.37,.95,.83,1.06,1.37,.11,.54,.04,1.05-.22,1.51-.26,.47-.64,.79-1.15,.98-.5,.19-1.09,.11-1.76-.22-1.12-.67-2.24-1.17-3.36-1.48-1.12-.32-2.2-.48-3.25-.48-1.94,0-3.42,.36-4.42,1.09-1.01,.73-1.51,1.71-1.51,2.94,0,1.87,1.23,3.06,3.7,3.58l5.32,1.06c2.43,.49,4.26,1.31,5.52,2.46,1.25,1.16,1.88,2.73,1.88,4.7,0,2.61-1.03,4.66-3.08,6.13-2.05,1.48-4.78,2.21-8.18,2.21Z"/>
    <path class="cls-1" d="M428.28,984.4c-1.12,0-1.99-.28-2.6-.84s-.92-1.34-.92-2.35c0-2.13,1.18-3.19,3.53-3.19s3.53,1.06,3.53,3.19-1.18,3.19-3.53,3.19Zm0,33.77c-1.87,0-2.8-1.03-2.8-3.08v-21.84c0-2.02,.93-3.02,2.8-3.02s2.86,1.01,2.86,3.02v21.84c0,2.05-.95,3.08-2.86,3.08Z"/>
    <path class="cls-1" d="M450.74,1018.34c-3.44,0-5.99-.88-7.67-2.63-1.68-1.75-2.52-4.29-2.52-7.62v-13.22h-3.36c-1.57,0-2.35-.73-2.35-2.18s.78-2.18,2.35-2.18h3.36v-5.77c0-1.9,.95-2.86,2.86-2.86s2.8,.95,2.8,2.86v5.77h6.55c1.57,0,2.35,.73,2.35,2.18s-.78,2.18-2.35,2.18h-6.55v12.77c0,1.98,.42,3.47,1.26,4.48,.84,1.01,2.21,1.51,4.12,1.51,.67,0,1.25-.06,1.74-.2,.48-.13,.91-.21,1.29-.25,.41,0,.75,.14,1.01,.42,.26,.28,.39,.81,.39,1.6,0,.6-.1,1.13-.31,1.6-.21,.47-.57,.78-1.09,.92-.45,.19-1.06,.34-1.82,.45-.77,.11-1.45,.17-2.04,.17Z"/>
    <path class="cls-1" d="M472.07,1018.34c-4.48,0-8.01-1.26-10.58-3.78s-3.86-5.96-3.86-10.33c0-2.8,.57-5.27,1.71-7.42,1.14-2.15,2.72-3.82,4.73-5.01,2.02-1.19,4.33-1.79,6.94-1.79,3.77,0,6.74,1.2,8.9,3.61,2.17,2.41,3.25,5.72,3.25,9.94,0,1.27-.75,1.9-2.24,1.9h-17.81c.41,5.68,3.42,8.51,9.02,8.51,1.12,0,2.3-.14,3.53-.42,1.23-.28,2.43-.79,3.58-1.54,.78-.45,1.46-.61,2.04-.48,.58,.13,1,.45,1.26,.95,.26,.5,.31,1.06,.14,1.68s-.61,1.15-1.32,1.6c-1.27,.86-2.75,1.5-4.45,1.93s-3.31,.64-4.84,.64Zm-.84-24.36c-2.35,0-4.22,.73-5.6,2.18-1.38,1.46-2.22,3.4-2.52,5.82h15.29c-.11-2.54-.78-4.51-2.02-5.91-1.23-1.4-2.95-2.1-5.15-2.1Z"/>
  </g>
  <g class="cls-2">
    <path class="cls-1" d="M277.65,1083.99c1.68-2.06,3.87-3.1,6.56-3.1,4.69,0,7.05,2.65,7.1,7.94v14.66h-3.79v-14.68c-.01-1.6-.38-2.78-1.1-3.55s-1.84-1.15-3.35-1.15c-1.23,0-2.31,.33-3.24,.98s-1.65,1.52-2.17,2.58v15.81h-3.79v-31.5h3.79v12Z"/>
    <path class="cls-1" d="M302.14,1075.93v5.37h4.14v2.93h-4.14v13.78c0,.89,.18,1.56,.55,2,.37,.44,1,.67,1.89,.67,.44,0,1.04-.08,1.81-.25v3.06c-1,.27-1.97,.41-2.91,.41-1.7,0-2.97-.51-3.83-1.54s-1.29-2.48-1.29-4.37v-13.76h-4.04v-2.93h4.04v-5.37h3.79Z"/>
    <path class="cls-1" d="M315.86,1075.93v5.37h4.14v2.93h-4.14v13.78c0,.89,.18,1.56,.55,2,.37,.44,1,.67,1.89,.67,.44,0,1.04-.08,1.8-.25v3.06c-1,.27-1.97,.41-2.91,.41-1.7,0-2.97-.51-3.83-1.54s-1.29-2.48-1.29-4.37v-13.76h-4.04v-2.93h4.04v-5.37h3.79Z"/>
    <path class="cls-1" d="M343.17,1092.64c0,3.38-.77,6.1-2.32,8.16s-3.64,3.1-6.28,3.1-4.81-.85-6.36-2.56v10.68h-3.79v-30.72h3.47l.18,2.46c1.54-1.91,3.69-2.87,6.44-2.87s4.77,1,6.33,3.01,2.33,4.81,2.33,8.39v.35Zm-3.79-.43c0-2.5-.53-4.48-1.6-5.93s-2.53-2.17-4.39-2.17c-2.3,0-4.02,1.02-5.17,3.06v10.6c1.13,2.02,2.87,3.04,5.21,3.04,1.82,0,3.26-.72,4.34-2.16s1.61-3.58,1.61-6.43Z"/>
    <path class="cls-1" d="M360.91,1097.6c0-1.03-.39-1.82-1.16-2.39-.77-.57-2.12-1.06-4.04-1.47s-3.45-.9-4.57-1.48c-1.13-.57-1.96-1.26-2.5-2.05-.54-.79-.81-1.74-.81-2.83,0-1.82,.77-3.36,2.31-4.61,1.54-1.26,3.5-1.89,5.9-1.89,2.52,0,4.56,.65,6.12,1.95s2.35,2.96,2.35,4.98h-3.81c0-1.04-.44-1.93-1.32-2.69-.88-.75-1.99-1.13-3.33-1.13s-2.46,.3-3.24,.9-1.17,1.39-1.17,2.36c0,.92,.36,1.61,1.09,2.07s2.03,.91,3.93,1.33c1.89,.42,3.43,.93,4.6,1.52s2.05,1.29,2.62,2.12c.57,.83,.85,1.84,.85,3.03,0,1.98-.79,3.57-2.38,4.77s-3.64,1.79-6.17,1.79c-1.78,0-3.35-.31-4.72-.94s-2.44-1.51-3.21-2.64c-.77-1.13-1.16-2.35-1.16-3.66h3.79c.07,1.27,.58,2.28,1.53,3.02s2.21,1.12,3.76,1.12c1.44,0,2.59-.29,3.46-.87s1.3-1.36,1.3-2.33Z"/>
    <path class="cls-1" d="M369.53,1101.5c0-.66,.2-1.2,.58-1.64,.39-.44,.97-.66,1.75-.66s1.37,.22,1.77,.66,.61,.98,.61,1.64-.2,1.16-.61,1.58-.99,.64-1.77,.64-1.36-.21-1.75-.64c-.39-.42-.58-.95-.58-1.58Zm.02-18.11c0-.66,.19-1.2,.58-1.64,.39-.44,.97-.66,1.75-.66s1.37,.22,1.77,.66c.4,.44,.6,.98,.6,1.64s-.2,1.16-.6,1.58c-.4,.42-1,.64-1.77,.64s-1.36-.21-1.75-.64c-.39-.42-.58-.95-.58-1.58Z"/>
    <path class="cls-1" d="M380.58,1106.05h-3.26l12.47-32.42h3.24l-12.45,32.42Z"/>
    <path class="cls-1" d="M393.29,1106.05h-3.26l12.47-32.42h3.24l-12.45,32.42Z"/>
    <path class="cls-1" d="M413.41,1081.3l.1,2.46c1.63-1.91,3.82-2.87,6.58-2.87,3.1,0,5.22,1.19,6.34,3.57,.74-1.07,1.7-1.93,2.88-2.58,1.18-.66,2.58-.98,4.19-.98,4.87,0,7.34,2.58,7.42,7.73v14.87h-3.79v-14.64c0-1.59-.36-2.77-1.09-3.56s-1.94-1.18-3.65-1.18c-1.41,0-2.58,.42-3.51,1.26s-1.47,1.97-1.62,3.39v14.72h-3.81v-14.54c0-3.23-1.58-4.84-4.74-4.84-2.49,0-4.19,1.06-5.11,3.18v16.2h-3.79v-22.19h3.59Z"/>
    <path class="cls-1" d="M460.36,1103.49c-.22-.44-.4-1.22-.53-2.34-1.76,1.83-3.87,2.75-6.32,2.75-2.19,0-3.98-.62-5.38-1.86-1.4-1.24-2.1-2.81-2.1-4.71,0-2.31,.88-4.11,2.64-5.38,1.76-1.28,4.23-1.92,7.41-1.92h3.69v-1.74c0-1.33-.4-2.38-1.19-3.17s-1.96-1.18-3.51-1.18c-1.35,0-2.49,.34-3.4,1.03s-1.37,1.51-1.37,2.48h-3.81c0-1.11,.39-2.18,1.18-3.21s1.85-1.85,3.2-2.45,2.83-.9,4.44-.9c2.56,0,4.56,.64,6.01,1.92s2.2,3.04,2.26,5.28v10.21c0,2.04,.26,3.66,.78,4.86v.33h-3.98Zm-6.3-2.89c1.19,0,2.32-.31,3.38-.92s1.84-1.42,2.32-2.4v-4.55h-2.97c-4.65,0-6.97,1.36-6.97,4.08,0,1.19,.4,2.12,1.19,2.79s1.81,1,3.06,1Z"/>
    <path class="cls-1" d="M480.23,1084.7c-.57-.1-1.2-.14-1.87-.14-2.49,0-4.18,1.06-5.07,3.18v15.75h-3.79v-22.19h3.69l.06,2.56c1.24-1.98,3.01-2.97,5.29-2.97,.74,0,1.3,.1,1.68,.29v3.53Z"/>
    <path class="cls-1" d="M491.4,1098.34l5.5-17.04h3.88l-7.96,22.19h-2.89l-8.04-22.19h3.88l5.64,17.04Z"/>
    <path class="cls-1" d="M504.45,1075.41c0-.62,.19-1.13,.56-1.56s.93-.64,1.67-.64,1.3,.21,1.68,.64,.57,.94,.57,1.56-.19,1.13-.57,1.54-.94,.62-1.68,.62-1.3-.21-1.67-.62-.56-.92-.56-1.54Zm4.1,28.08h-3.79v-22.19h3.79v22.19Z"/>
    <path class="cls-1" d="M518.74,1103.49h-3.79v-31.5h3.79v31.5Z"/>
    <path class="cls-1" d="M524.89,1101.5c0-.66,.2-1.2,.58-1.64,.39-.44,.97-.66,1.75-.66s1.37,.22,1.77,.66,.61,.98,.61,1.64-.2,1.16-.61,1.58-.99,.64-1.77,.64-1.36-.21-1.75-.64c-.39-.42-.58-.95-.58-1.58Z"/>
    <path class="cls-1" d="M544.77,1100.8c1.35,0,2.54-.41,3.55-1.23s1.57-1.85,1.68-3.08h3.59c-.07,1.27-.51,2.48-1.31,3.63s-1.88,2.06-3.23,2.75-2.77,1.03-4.28,1.03c-3.02,0-5.42-1.01-7.21-3.03-1.78-2.02-2.68-4.77-2.68-8.27v-.64c0-2.16,.4-4.08,1.19-5.76s1.93-2.99,3.41-3.92,3.24-1.39,5.26-1.39c2.49,0,4.56,.75,6.2,2.24,1.65,1.49,2.53,3.42,2.63,5.8h-3.59c-.11-1.44-.65-2.62-1.63-3.54-.98-.92-2.18-1.38-3.62-1.38-1.93,0-3.42,.69-4.48,2.08s-1.59,3.39-1.59,6.02v.72c0,2.56,.53,4.53,1.58,5.91s2.56,2.07,4.51,2.07Z"/>
    <path class="cls-1" d="M556.84,1092.19c0-2.17,.43-4.13,1.28-5.87,.85-1.74,2.04-3.08,3.57-4.02,1.52-.94,3.26-1.42,5.22-1.42,3.02,0,5.46,1.05,7.33,3.14,1.87,2.09,2.8,4.87,2.8,8.35v.27c0,2.16-.41,4.1-1.24,5.81-.83,1.72-2.01,3.05-3.55,4.01-1.54,.96-3.3,1.44-5.3,1.44-3.01,0-5.45-1.05-7.31-3.14-1.87-2.09-2.8-4.86-2.8-8.31v-.27Zm3.81,.45c0,2.46,.57,4.44,1.71,5.93s2.67,2.24,4.58,2.24,3.46-.76,4.59-2.27,1.7-3.63,1.7-6.35c0-2.43-.58-4.41-1.73-5.92s-2.69-2.27-4.6-2.27-3.38,.75-4.53,2.24-1.72,3.62-1.72,6.4Z"/>
    <path class="cls-1" d="M582.56,1106.05h-3.26l12.47-32.42h3.24l-12.45,32.42Z"/>
    <path class="cls-1" d="M608.01,1100.8c1.35,0,2.54-.41,3.55-1.23s1.57-1.85,1.68-3.08h3.59c-.07,1.27-.51,2.48-1.31,3.63s-1.88,2.06-3.23,2.75-2.77,1.03-4.28,1.03c-3.02,0-5.42-1.01-7.21-3.03-1.78-2.02-2.68-4.77-2.68-8.27v-.64c0-2.16,.4-4.08,1.19-5.76s1.93-2.99,3.41-3.92,3.24-1.39,5.26-1.39c2.49,0,4.56,.75,6.2,2.24,1.65,1.49,2.53,3.42,2.63,5.8h-3.59c-.11-1.44-.65-2.62-1.63-3.54-.98-.92-2.18-1.38-3.62-1.38-1.93,0-3.42,.69-4.48,2.08s-1.59,3.39-1.59,6.02v.72c0,2.56,.53,4.53,1.58,5.91s2.56,2.07,4.51,2.07Z"/>
    <path class="cls-1" d="M630.3,1103.9c-3.01,0-5.46-.99-7.34-2.96s-2.83-4.62-2.83-7.93v-.7c0-2.2,.42-4.17,1.26-5.9,.84-1.73,2.02-3.08,3.53-4.06s3.15-1.47,4.91-1.47c2.88,0,5.13,.95,6.73,2.85s2.4,4.62,2.4,8.16v1.58h-15.03c.05,2.19,.69,3.95,1.92,5.3,1.22,1.35,2.78,2.02,4.67,2.02,1.34,0,2.47-.27,3.4-.82s1.74-1.27,2.44-2.17l2.32,1.8c-1.86,2.86-4.65,4.29-8.37,4.29Zm-.47-19.89c-1.53,0-2.82,.56-3.86,1.67s-1.68,2.68-1.93,4.69h11.12v-.29c-.11-1.93-.63-3.42-1.56-4.48s-2.19-1.59-3.77-1.59Z"/>
    <path class="cls-1" d="M646.94,1081.3l.12,2.79c1.7-2.13,3.91-3.2,6.64-3.2,4.69,0,7.05,2.65,7.1,7.94v14.66h-3.79v-14.68c-.01-1.6-.38-2.78-1.1-3.55-.72-.77-1.83-1.15-3.35-1.15-1.23,0-2.31,.33-3.24,.98s-1.65,1.52-2.17,2.58v15.81h-3.79v-22.19h3.59Z"/>
    <path class="cls-1" d="M671.67,1075.93v5.37h4.14v2.93h-4.14v13.78c0,.89,.18,1.56,.55,2,.37,.44,1,.67,1.89,.67,.44,0,1.04-.08,1.8-.25v3.06c-1,.27-1.97,.41-2.91,.41-1.7,0-2.97-.51-3.83-1.54s-1.29-2.48-1.29-4.37v-13.76h-4.04v-2.93h4.04v-5.37h3.79Z"/>
    <path class="cls-1" d="M690.97,1084.7c-.57-.1-1.2-.14-1.87-.14-2.49,0-4.18,1.06-5.07,3.18v15.75h-3.79v-22.19h3.69l.06,2.56c1.24-1.98,3.01-2.97,5.29-2.97,.74,0,1.3,.1,1.68,.29v3.53Z"/>
  </g>
  <g>
    <path class="cls-1" d="M297.86,1294.46c-2.78,0-5.16-.57-7.14-1.72-1.98-1.14-3.49-2.78-4.54-4.89-1.05-2.12-1.58-4.62-1.58-7.51s.53-5.38,1.58-7.49,2.57-3.73,4.54-4.88c1.98-1.14,4.35-1.72,7.14-1.72,1.53,0,3.01,.21,4.43,.62,1.42,.42,2.65,1.01,3.69,1.79,.57,.37,.9,.8,.99,1.31,.09,.51,.01,.96-.23,1.37-.25,.4-.6,.67-1.07,.8-.47,.13-.99,0-1.56-.39-.88-.65-1.84-1.13-2.87-1.44-1.03-.31-2.11-.47-3.26-.47-2.96,0-5.23,.91-6.79,2.73-1.56,1.82-2.34,4.41-2.34,7.76s.78,5.95,2.34,7.78,3.82,2.75,6.79,2.75c1.14,0,2.24-.16,3.3-.47,1.05-.31,2.05-.81,2.98-1.48,.57-.36,1.08-.49,1.52-.37,.44,.12,.78,.37,1.01,.76,.23,.39,.31,.83,.23,1.31-.08,.48-.35,.89-.82,1.23-1.09,.86-2.36,1.51-3.8,1.95-1.44,.44-2.96,.66-4.54,.66Z"/>
    <path class="cls-1" d="M313.96,1294.11c-1.38,0-2.07-.69-2.07-2.07v-23.52c0-1.38,.68-2.07,2.03-2.07s2.03,.69,2.03,2.07v22.11h12.09c1.2,0,1.79,.57,1.79,1.72s-.6,1.75-1.79,1.75h-14.08Z"/>
    <path class="cls-1" d="M343.92,1294.46c-2.63,0-4.9-.58-6.82-1.74-1.92-1.16-3.41-2.79-4.47-4.91-1.05-2.12-1.58-4.61-1.58-7.47s.53-5.38,1.58-7.49,2.54-3.73,4.47-4.88c1.92-1.14,4.2-1.72,6.82-1.72s4.87,.57,6.81,1.72c1.94,1.14,3.43,2.77,4.48,4.88,1.05,2.11,1.58,4.59,1.58,7.45s-.53,5.39-1.58,7.51c-1.05,2.12-2.55,3.76-4.48,4.91-1.94,1.16-4.21,1.74-6.81,1.74Zm0-3.51c2.73,0,4.86-.93,6.38-2.79,1.52-1.86,2.28-4.47,2.28-7.82s-.75-5.95-2.26-7.8c-1.51-1.85-3.64-2.77-6.4-2.77s-4.86,.92-6.38,2.77c-1.52,1.85-2.28,4.45-2.28,7.8s.76,5.96,2.28,7.82c1.52,1.86,3.65,2.79,6.38,2.79Z"/>
    <path class="cls-1" d="M371.37,1294.46c-1.79,0-3.52-.21-5.17-.62-1.65-.42-3.09-1.04-4.31-1.87-.49-.34-.79-.75-.9-1.23-.1-.48-.06-.92,.14-1.33,.19-.4,.49-.68,.9-.84,.4-.16,.86-.06,1.38,.27,1.17,.75,2.4,1.31,3.7,1.66,1.3,.35,2.72,.53,4.25,.53,2.21,0,3.84-.4,4.89-1.19,1.05-.79,1.58-1.83,1.58-3.1,0-1.04-.38-1.87-1.13-2.48-.75-.61-2.02-1.1-3.78-1.46l-4.17-.86c-2.47-.52-4.31-1.38-5.52-2.57-1.21-1.2-1.81-2.81-1.81-4.84,0-1.64,.44-3.08,1.31-4.33,.87-1.25,2.09-2.22,3.65-2.91s3.35-1.03,5.38-1.03c1.61,0,3.13,.21,4.54,.62,1.42,.42,2.68,1.05,3.8,1.91,.44,.31,.7,.69,.78,1.13,.08,.44,.01,.85-.2,1.23-.21,.38-.52,.63-.94,.76-.42,.13-.9,.03-1.44-.31-1.01-.68-2.05-1.16-3.12-1.46-1.07-.3-2.22-.45-3.47-.45-1.92,0-3.45,.43-4.58,1.29-1.13,.86-1.7,2-1.7,3.43,0,1.09,.35,1.96,1.05,2.61,.7,.65,1.87,1.14,3.51,1.48l4.13,.86c2.6,.55,4.54,1.38,5.81,2.52,1.27,1.13,1.91,2.66,1.91,4.58,0,1.61-.43,3.02-1.29,4.21-.86,1.2-2.07,2.13-3.63,2.79s-3.42,.99-5.58,.99Z"/>
    <path class="cls-1" d="M388.65,1294.11c-1.46,0-2.18-.73-2.18-2.18v-23.13c0-1.46,.73-2.18,2.18-2.18h14.24c1.12,0,1.68,.53,1.68,1.6,0,1.12-.56,1.68-1.68,1.68h-12.52v8.62h11.66c1.12,0,1.68,.55,1.68,1.64s-.56,1.64-1.68,1.64h-11.66v9.05h12.52c1.12,0,1.68,.55,1.68,1.64s-.56,1.64-1.68,1.64h-14.24Z"/>
  </g>
  <g>
    <path class="cls-3" d="M705.61,1294.57c-2.63,0-4.9-.58-6.83-1.74-1.92-1.16-3.41-2.79-4.47-4.91-1.05-2.12-1.58-4.61-1.58-7.47s.53-5.38,1.58-7.49c1.05-2.11,2.54-3.73,4.47-4.88s4.2-1.72,6.83-1.72,4.87,.57,6.81,1.72c1.94,1.14,3.43,2.77,4.48,4.88,1.05,2.11,1.58,4.59,1.58,7.45s-.53,5.39-1.58,7.51c-1.05,2.12-2.55,3.76-4.48,4.91-1.94,1.16-4.21,1.74-6.81,1.74Zm0-3.51c2.73,0,4.86-.93,6.38-2.79,1.52-1.86,2.28-4.47,2.28-7.82s-.75-5.95-2.26-7.8c-1.51-1.85-3.64-2.77-6.4-2.77s-4.86,.92-6.38,2.77c-1.52,1.85-2.28,4.45-2.28,7.8s.76,5.96,2.28,7.82c1.52,1.86,3.65,2.79,6.38,2.79Z"/>
    <path class="cls-3" d="M725.93,1294.5c-1.35,0-2.03-.69-2.03-2.07v-23.63c0-1.38,.69-2.07,2.07-2.07h9.32c2.96,0,5.25,.73,6.86,2.2,1.61,1.47,2.42,3.53,2.42,6.18s-.81,4.75-2.42,6.22c-1.61,1.47-3.9,2.2-6.86,2.2h-7.33v8.89c0,1.38-.68,2.07-2.03,2.07Zm2.03-14.2h6.75c3.95,0,5.93-1.73,5.93-5.19s-1.98-5.15-5.93-5.15h-6.75v10.33Z"/>
    <path class="cls-3" d="M751.13,1294.22c-1.46,0-2.18-.73-2.18-2.18v-23.13c0-1.46,.73-2.18,2.18-2.18h14.24c1.12,0,1.68,.53,1.68,1.6,0,1.12-.56,1.68-1.68,1.68h-12.52v8.62h11.66c1.12,0,1.68,.55,1.68,1.64s-.56,1.64-1.68,1.64h-11.66v9.05h12.52c1.12,0,1.68,.55,1.68,1.64s-.56,1.64-1.68,1.64h-14.24Z"/>
    <path class="cls-3" d="M773.82,1294.5c-1.27,0-1.91-.65-1.91-1.95v-24.06c0-.65,.16-1.15,.49-1.5,.32-.35,.76-.53,1.31-.53,.47,0,.83,.08,1.09,.25,.26,.17,.55,.47,.86,.92l15.09,19.89v-19.15c0-1.27,.62-1.91,1.87-1.91s1.87,.64,1.87,1.91v24.22c0,.6-.15,1.07-.45,1.4s-.7,.51-1.19,.51-.88-.09-1.17-.27-.6-.49-.94-.94l-15.09-19.93v19.19c0,1.3-.61,1.95-1.83,1.95Z"/>
  </g>
  <g>
    <path class="cls-3" d="M511.49,1294.57c-2.78,0-5.16-.57-7.14-1.72-1.98-1.14-3.49-2.77-4.54-4.89-1.05-2.12-1.58-4.62-1.58-7.51s.53-5.38,1.58-7.49c1.05-2.11,2.57-3.73,4.54-4.88,1.98-1.14,4.35-1.72,7.14-1.72,1.53,0,3.01,.21,4.43,.62,1.42,.42,2.65,1.01,3.69,1.79,.57,.36,.9,.8,.99,1.31,.09,.51,.01,.96-.23,1.37-.25,.4-.6,.67-1.07,.8-.47,.13-.99,0-1.56-.39-.88-.65-1.84-1.13-2.87-1.44-1.03-.31-2.11-.47-3.26-.47-2.96,0-5.23,.91-6.79,2.73-1.56,1.82-2.34,4.41-2.34,7.76s.78,5.95,2.34,7.78,3.82,2.75,6.79,2.75c1.14,0,2.24-.16,3.3-.47,1.05-.31,2.05-.81,2.98-1.48,.57-.36,1.08-.49,1.52-.37,.44,.12,.78,.37,1.01,.76s.31,.83,.23,1.31c-.08,.48-.35,.89-.82,1.23-1.09,.86-2.36,1.51-3.8,1.95-1.44,.44-2.96,.66-4.54,.66Z"/>
    <path class="cls-3" d="M536.6,1294.57c-2.63,0-4.9-.58-6.82-1.74-1.92-1.16-3.41-2.79-4.47-4.91-1.05-2.12-1.58-4.61-1.58-7.47s.53-5.38,1.58-7.49c1.05-2.11,2.54-3.73,4.47-4.88,1.92-1.14,4.2-1.72,6.82-1.72s4.87,.57,6.81,1.72c1.94,1.14,3.43,2.77,4.49,4.88,1.05,2.11,1.58,4.59,1.58,7.45s-.53,5.39-1.58,7.51-2.55,3.76-4.49,4.91c-1.94,1.16-4.21,1.74-6.81,1.74Zm0-3.51c2.73,0,4.85-.93,6.38-2.79,1.52-1.86,2.28-4.47,2.28-7.82s-.75-5.95-2.26-7.8-3.64-2.77-6.4-2.77-4.86,.92-6.38,2.77-2.28,4.45-2.28,7.8,.76,5.96,2.28,7.82c1.52,1.86,3.65,2.79,6.38,2.79Z"/>
    <path class="cls-3" d="M556.92,1294.5c-1.35,0-2.03-.69-2.03-2.07v-23.63c0-1.38,.69-2.07,2.07-2.07h9.32c2.96,0,5.25,.74,6.86,2.2s2.42,3.53,2.42,6.18-.81,4.75-2.42,6.22c-1.61,1.47-3.9,2.2-6.86,2.2h-7.33v8.89c0,1.38-.68,2.07-2.03,2.07Zm2.03-14.2h6.75c3.95,0,5.93-1.73,5.93-5.19s-1.98-5.15-5.93-5.15h-6.75v10.33Z"/>
    <path class="cls-3" d="M588.39,1294.5c-1.35,0-2.03-.7-2.03-2.11v-11l-8.74-12.17c-.42-.6-.49-1.21-.21-1.83,.27-.62,.83-.94,1.66-.94s1.55,.43,2.15,1.29l7.25,10.1,7.25-10.1c.34-.47,.66-.8,.97-1,.31-.19,.7-.29,1.17-.29,.81,0,1.34,.29,1.6,.88s.14,1.23-.35,1.93l-8.74,12.17v10.96c0,1.4-.66,2.11-1.99,2.11Z"/>
  </g>
</svg>