<svg id="Layer_1" data-name="Layer 1" xmlns="http://www.w3.org/2000/svg" xmlns:xlink="http://www.w3.org/1999/xlink" viewBox="0 0 1000 1000"><defs><style>.cls-1{fill:url(#linear-gradient);}</style><linearGradient id="linear-gradient" x1="716.17" y1="1093.92" x2="292.17" y2="-71" gradientUnits="userSpaceOnUse"><stop offset="0" stop-color="#3767e5"/><stop offset="0.65" stop-color="#9f58f2"/></linearGradient></defs><path class="cls-1" d="M352.94,0H117.65A118,118,0,0,0,0,117.65V352.94A118,118,0,0,0,117.65,470.59H352.94A118,118,0,0,0,470.59,352.94V117.65A118,118,0,0,0,352.94,0ZM299,352.94H171.62a54,54,0,0,1-54-54V176.47a58.81,58.81,0,0,1,58.82-58.82H299a54,54,0,0,1,54,54V299A54,54,0,0,1,299,352.94Zm54,176.47H117.65A118,118,0,0,0,0,647.06V882.35A118,118,0,0,0,117.65,1000H352.94A118,118,0,0,0,470.59,882.35V647.06A118,118,0,0,0,352.94,529.41ZM299,882.35H171.62a54,54,0,0,1-54-54V701a54,54,0,0,1,54-54H299a54,54,0,0,1,54,54V828.38A54,54,0,0,1,299,882.35ZM882.35,0H647.06A118,118,0,0,0,529.41,117.65V352.94A118,118,0,0,0,647.06,470.59H882.35A118,118,0,0,0,1000,352.94V117.65A118,118,0,0,0,882.35,0Zm-54,352.94H701a54,54,0,0,1-54-54V171.62a54,54,0,0,1,54-54H828.38a54,54,0,0,1,54,54V299A54,54,0,0,1,828.38,352.94Zm-622.5-58.82h58.83a31.65,31.65,0,0,0,29.41-29.41V205.88a31.65,31.65,0,0,0-29.41-29.41H205.88a31.65,31.65,0,0,0-29.41,29.41v58.83A31.65,31.65,0,0,0,205.88,294.12Zm0,529.41h58.83a31.65,31.65,0,0,0,29.41-29.41V735.29a31.65,31.65,0,0,0-29.41-29.41H205.88a31.65,31.65,0,0,0-29.41,29.41v58.83A31.65,31.65,0,0,0,205.88,823.53ZM735.29,294.12h58.83a31.65,31.65,0,0,0,29.41-29.41V205.88a31.65,31.65,0,0,0-29.41-29.41H735.29a31.65,31.65,0,0,0-29.41,29.41v58.83A31.65,31.65,0,0,0,735.29,294.12ZM558.82,764.71h58.83a31.65,31.65,0,0,0,29.41-29.42V676.47a31.65,31.65,0,0,1,29.41-29.41h58.82a31.65,31.65,0,0,0,29.42-29.41V558.82a31.65,31.65,0,0,0-29.42-29.41H558.82a31.65,31.65,0,0,0-29.41,29.41V735.29A31.65,31.65,0,0,0,558.82,764.71Zm411.77-235.3H911.76a31.65,31.65,0,0,0-29.41,29.41V735.29a31.65,31.65,0,0,0,29.41,29.42h58.83A31.65,31.65,0,0,0,1000,735.29V558.82A31.65,31.65,0,0,0,970.59,529.41ZM617.65,882.35H558.82a31.65,31.65,0,0,0-29.41,29.41v58.83A31.65,31.65,0,0,0,558.82,1000h58.83a31.65,31.65,0,0,0,29.41-29.41V911.76A31.65,31.65,0,0,0,617.65,882.35Zm352.94,0H911.76a31.64,31.64,0,0,1-29.41-29.41V794.12a31.64,31.64,0,0,0-29.41-29.41H676.47a31.64,31.64,0,0,0-29.41,29.41v58.82a31.64,31.64,0,0,0,29.41,29.41h58.82a31.65,31.65,0,0,1,29.42,29.41v58.83A31.64,31.64,0,0,0,794.12,1000H970.59A31.65,31.65,0,0,0,1000,970.59V911.76A31.65,31.65,0,0,0,970.59,882.35Z"/></svg>