<?xml version="1.0" encoding="UTF-8"?>
<svg id="Layer_1" data-name="Layer 1" xmlns="http://www.w3.org/2000/svg" viewBox="0 0 1080 2272">
  <defs>
    <style>
      .cls-1 {
        fill: #fff;
      }

      .cls-2 {
        opacity: .5;
      }

      .cls-3 {
        fill: #9f58f2;
      }

      .cls-4 {
        fill: #2b324d;
      }

      .cls-5 {
        fill: #0c0414;
      }

      .cls-6 {
        fill: #22283d;
      }
    </style>
  </defs>
  <rect id="Background" class="cls-5" width="1080" height="2272" rx="100" ry="100"/>
  <g>
    <path class="cls-1" d="M303.23,293.75c-4.93,0-7.4-2.47-7.4-7.4v-58c0-4.93,2.37-7.4,7.1-7.4s7.1,2.46,7.1,7.4v6.23c1.93-4.35,4.86-7.69,8.77-10,3.92-2.32,8.68-3.67,14.28-4.06,3.58-.29,5.51,1.65,5.8,5.8,.39,4.25-1.69,6.58-6.23,6.96l-2.75,.29c-12.86,1.26-19.29,7.88-19.29,19.87v32.92c0,4.93-2.46,7.4-7.4,7.4Z"/>
    <path class="cls-1" d="M371.81,294.04c-4.93,0-9.33-.97-13.19-2.9-3.87-1.93-6.94-4.54-9.21-7.83-2.27-3.29-3.41-7.01-3.41-11.17,0-5.22,1.33-9.33,3.99-12.33,2.66-3,7.06-5.17,13.2-6.52,6.14-1.35,14.43-2.03,24.87-2.03h4.93v-3.77c0-5.51-1.16-9.47-3.48-11.89-2.32-2.42-6.14-3.62-11.46-3.62-3.09,0-6.31,.39-9.64,1.16-3.33,.77-6.79,2.08-10.37,3.92-2.03,.97-3.7,1.11-5,.44-1.31-.67-2.2-1.74-2.68-3.19-.48-1.45-.44-2.95,.15-4.5,.58-1.54,1.79-2.71,3.62-3.48,4.25-1.93,8.46-3.36,12.61-4.28,4.16-.92,8.07-1.38,11.75-1.38,9.67,0,16.82,2.3,21.46,6.89,4.64,4.59,6.96,11.77,6.96,21.53v37.27c0,4.93-2.27,7.4-6.81,7.4s-6.96-2.47-6.96-7.4v-5.37c-1.74,4.06-4.45,7.25-8.12,9.57-3.67,2.32-8.07,3.48-13.19,3.48Zm2.9-10.44c5.22,0,9.57-1.84,13.05-5.51,3.48-3.67,5.22-8.31,5.22-13.92v-3.92h-4.79c-7.06,0-12.59,.34-16.6,1.02-4.01,.68-6.86,1.81-8.55,3.41-1.69,1.6-2.54,3.79-2.54,6.6,0,3.67,1.26,6.65,3.77,8.92,2.51,2.27,5.99,3.41,10.44,3.41Z"/>
    <path class="cls-1" d="M434.3,293.75c-4.83,0-7.25-2.47-7.25-7.4v-58c0-4.93,2.37-7.4,7.1-7.4s7.1,2.46,7.1,7.4v5.36c2.42-4.25,5.73-7.49,9.93-9.71,4.21-2.22,8.92-3.33,14.14-3.33,16.72,0,25.08,9.47,25.08,28.42v37.27c0,4.93-2.42,7.4-7.25,7.4s-7.4-2.47-7.4-7.4v-36.4c0-6.09-1.19-10.54-3.55-13.34-2.37-2.8-6.07-4.2-11.09-4.2-5.9,0-10.61,1.86-14.14,5.58-3.53,3.72-5.29,8.63-5.29,14.72v33.64c0,4.93-2.46,7.4-7.4,7.4Z"/>
    <path class="cls-1" d="M537.54,294.04c-6.19,0-11.62-1.47-16.31-4.42-4.69-2.95-8.34-7.18-10.95-12.69-2.61-5.51-3.92-12.03-3.92-19.57s1.31-14.04,3.92-19.5c2.61-5.46,6.24-9.69,10.88-12.69,4.64-3,10.1-4.5,16.39-4.5,5.31,0,10.05,1.16,14.21,3.48,4.16,2.32,7.25,5.46,9.28,9.42v-36.69c0-4.93,2.42-7.4,7.25-7.4s7.4,2.47,7.4,7.4v89.47c0,4.93-2.42,7.4-7.25,7.4s-7.25-2.47-7.25-7.4v-5.51c-2.13,4.06-5.27,7.27-9.42,9.64-4.16,2.37-8.9,3.55-14.21,3.55Zm3.77-11.31c5.99,0,10.83-2.18,14.5-6.52,3.67-4.35,5.51-10.63,5.51-18.85s-1.84-14.48-5.51-18.78c-3.67-4.3-8.51-6.45-14.5-6.45s-10.97,2.15-14.65,6.45c-3.67,4.3-5.51,10.56-5.51,18.78s1.84,14.5,5.51,18.85c3.67,4.35,8.55,6.52,14.65,6.52Z"/>
    <path class="cls-1" d="M627.01,294.04c-7.16,0-13.34-1.5-18.56-4.5-5.22-3-9.26-7.23-12.11-12.69-2.85-5.46-4.28-11.96-4.28-19.5s1.42-14.04,4.28-19.5c2.85-5.46,6.89-9.69,12.11-12.69,5.22-3,11.41-4.5,18.56-4.5s13.05,1.5,18.27,4.5c5.22,3,9.28,7.23,12.18,12.69,2.9,5.46,4.35,11.96,4.35,19.5s-1.45,14.04-4.35,19.5c-2.9,5.46-6.96,9.69-12.18,12.69-5.22,3-11.31,4.5-18.27,4.5Zm0-11.31c5.99,0,10.83-2.18,14.5-6.52,3.67-4.35,5.51-10.63,5.51-18.85s-1.84-14.48-5.51-18.78c-3.67-4.3-8.51-6.45-14.5-6.45s-10.97,2.15-14.65,6.45c-3.67,4.3-5.51,10.56-5.51,18.78s1.83,14.5,5.51,18.85c3.67,4.35,8.56,6.52,14.65,6.52Z"/>
    <path class="cls-1" d="M685.73,293.75c-4.83,0-7.25-2.47-7.25-7.4v-58c0-4.93,2.37-7.4,7.11-7.4s7.1,2.46,7.1,7.4v5.07c2.12-4.06,5.08-7.2,8.84-9.42,3.77-2.22,8.17-3.33,13.2-3.33,10.83,0,17.83,4.74,21.03,14.21,2.22-4.45,5.41-7.93,9.57-10.44,4.16-2.51,8.89-3.77,14.21-3.77,15.85,0,23.78,9.47,23.78,28.42v37.27c0,4.93-2.46,7.4-7.39,7.4s-7.25-2.47-7.25-7.4v-36.54c0-5.99-1.04-10.39-3.12-13.2-2.08-2.8-5.49-4.2-10.22-4.2-5.32,0-9.52,1.86-12.61,5.58-3.09,3.72-4.64,8.77-4.64,15.15v33.21c0,4.93-2.42,7.4-7.25,7.4s-7.39-2.47-7.39-7.4v-36.54c0-5.99-1.02-10.39-3.04-13.2-2.03-2.8-5.42-4.2-10.15-4.2-5.32,0-9.5,1.86-12.54,5.58-3.04,3.72-4.57,8.77-4.57,15.15v33.21c0,4.93-2.47,7.4-7.4,7.4Z"/>
    <path class="cls-1" d="M302.43,494.75c-4.83,0-7.25-2.47-7.25-7.4v-58c0-4.93,2.37-7.4,7.1-7.4s7.1,2.46,7.1,7.4v5.36c2.42-4.25,5.73-7.49,9.93-9.71,4.21-2.22,8.92-3.33,14.14-3.33,16.72,0,25.08,9.47,25.08,28.42v37.27c0,4.93-2.42,7.4-7.25,7.4s-7.4-2.47-7.4-7.4v-36.4c0-6.09-1.19-10.54-3.55-13.34-2.37-2.8-6.07-4.2-11.09-4.2-5.9,0-10.61,1.86-14.14,5.58-3.53,3.72-5.29,8.63-5.29,14.72v33.64c0,4.93-2.46,7.4-7.4,7.4Z"/>
    <path class="cls-1" d="M403.93,495.04c-17.11,0-25.67-9.52-25.67-28.56v-37.12c0-4.93,2.42-7.4,7.25-7.4s7.4,2.46,7.4,7.4v37.26c0,5.71,1.16,9.91,3.48,12.62,2.32,2.71,5.99,4.06,11.02,4.06,5.51,0,9.98-1.84,13.41-5.51,3.43-3.67,5.15-8.6,5.15-14.79v-33.64c0-4.93,2.46-7.4,7.4-7.4s7.25,2.46,7.25,7.4v58c0,4.93-2.37,7.4-7.1,7.4s-7.1-2.47-7.1-7.4v-4.93c-2.32,4.16-5.42,7.3-9.28,9.43-3.87,2.12-8.27,3.19-13.2,3.19Z"/>
    <path class="cls-1" d="M468.74,494.75c-4.83,0-7.25-2.47-7.25-7.4v-58c0-4.93,2.37-7.4,7.1-7.4s7.1,2.46,7.1,7.4v5.07c2.12-4.06,5.08-7.2,8.85-9.42,3.77-2.22,8.17-3.33,13.19-3.33,10.83,0,17.83,4.74,21.02,14.21,2.22-4.45,5.41-7.93,9.57-10.44,4.15-2.51,8.89-3.77,14.21-3.77,15.85,0,23.78,9.47,23.78,28.42v37.27c0,4.93-2.46,7.4-7.4,7.4s-7.25-2.47-7.25-7.4v-36.54c0-5.99-1.04-10.39-3.12-13.2-2.08-2.8-5.49-4.2-10.22-4.2-5.32,0-9.52,1.86-12.62,5.58-3.09,3.72-4.64,8.77-4.64,15.15v33.21c0,4.93-2.42,7.4-7.25,7.4s-7.4-2.47-7.4-7.4v-36.54c0-5.99-1.02-10.39-3.04-13.2-2.03-2.8-5.42-4.2-10.15-4.2-5.32,0-9.5,1.86-12.54,5.58-3.04,3.72-4.57,8.77-4.57,15.15v33.21c0,4.93-2.46,7.4-7.4,7.4Z"/>
    <path class="cls-1" d="M624.76,495.04c-5.32,0-10.05-1.19-14.21-3.55-4.16-2.37-7.3-5.58-9.42-9.64v5.51c0,4.93-2.37,7.4-7.11,7.4s-7.25-2.47-7.25-7.4v-89.47c0-4.93,2.42-7.4,7.25-7.4s7.4,2.47,7.4,7.4v36.54c2.12-3.86,5.24-6.96,9.35-9.28,4.11-2.32,8.77-3.48,13.99-3.48,6.28,0,11.77,1.5,16.46,4.5,4.69,3,8.31,7.23,10.88,12.69,2.56,5.46,3.84,11.96,3.84,19.5s-1.28,14.06-3.84,19.57c-2.56,5.51-6.19,9.74-10.88,12.69-4.69,2.95-10.17,4.42-16.46,4.42Zm-3.62-11.31c6.09,0,10.95-2.18,14.57-6.52,3.62-4.35,5.44-10.63,5.44-18.85s-1.81-14.48-5.44-18.78c-3.62-4.3-8.48-6.45-14.57-6.45s-10.95,2.15-14.57,6.45c-3.62,4.3-5.44,10.56-5.44,18.78s1.81,14.5,5.44,18.85c3.62,4.35,8.48,6.52,14.57,6.52Z"/>
    <path class="cls-1" d="M705.67,495.04c-11.6,0-20.74-3.26-27.41-9.79s-10-15.44-10-26.75c0-7.25,1.47-13.65,4.42-19.21,2.95-5.56,7.03-9.88,12.25-12.98,5.22-3.09,11.21-4.64,17.98-4.64,9.76,0,17.45,3.12,23.05,9.35,5.61,6.23,8.41,14.81,8.41,25.74,0,3.29-1.93,4.93-5.8,4.93h-46.11c1.06,14.69,8.84,22.04,23.34,22.04,2.9,0,5.95-.36,9.14-1.09,3.19-.73,6.28-2.05,9.28-3.99,2.03-1.16,3.79-1.57,5.29-1.23,1.5,.34,2.58,1.16,3.26,2.46,.67,1.31,.8,2.76,.36,4.35-.43,1.6-1.57,2.97-3.41,4.13-3.29,2.23-7.13,3.89-11.53,5-4.4,1.11-8.58,1.67-12.54,1.67Zm-2.17-63.08c-6.09,0-10.92,1.89-14.5,5.65-3.58,3.77-5.75,8.8-6.53,15.08h39.58c-.29-6.57-2.03-11.67-5.22-15.3s-7.64-5.44-13.34-5.44Z"/>
    <path class="cls-1" d="M757.72,494.75c-4.93,0-7.4-2.47-7.4-7.4v-58c0-4.93,2.37-7.4,7.11-7.4s7.1,2.46,7.1,7.4v6.23c1.93-4.35,4.86-7.69,8.77-10,3.92-2.32,8.67-3.67,14.28-4.06,3.58-.29,5.51,1.65,5.8,5.8,.38,4.25-1.69,6.58-6.24,6.96l-2.75,.29c-12.86,1.26-19.29,7.88-19.29,19.87v32.92c0,4.93-2.46,7.4-7.39,7.4Z"/>
  </g>
  <g>
    <path class="cls-1" d="M428.8,1274.9c-2.84,0-4.89-.96-6.16-2.89-1.27-1.92-1.19-4.36,.23-7.3l44.38-84.82h-49.1c-4.66,0-6.99-2.18-6.99-6.54s2.33-6.69,6.99-6.69h59.74c2.23,0,4.03,.58,5.4,1.75,1.37,1.17,2.05,2.81,2.05,4.94,0,1.82-.23,3.4-.68,4.71-.46,1.32-1.09,2.79-1.9,4.41l-45.14,87.25c-1.72,3.45-4.66,5.17-8.82,5.17Z"/>
    <path class="cls-1" d="M531.86,1275.21c-4.46,0-9.1-.81-13.91-2.43-4.81-1.62-9.2-3.95-13.15-6.99-1.62-1.22-2.53-2.68-2.74-4.41-.2-1.72,.1-3.32,.91-4.79,.81-1.47,2-2.46,3.57-2.96,1.57-.51,3.32-.15,5.24,1.06,3.44,2.53,6.86,4.36,10.26,5.47,3.39,1.12,6.76,1.67,10.11,1.67,9.42,0,16.64-3.42,21.66-10.26,5.02-6.84,7.52-17.05,7.52-30.63v-6.08c-2.03,6.18-5.55,11.02-10.56,14.52-5.02,3.5-10.82,5.24-17.4,5.24s-11.83-1.47-16.64-4.41c-4.81-2.94-8.59-6.97-11.32-12.08-2.74-5.12-4.1-10.97-4.1-17.56s1.47-13,4.41-18.32c2.94-5.32,7.02-9.47,12.24-12.46,5.22-2.99,11.22-4.48,18.01-4.48,12.97,0,22.98,4.61,30.02,13.83,7.04,9.22,10.56,22.14,10.56,38.76,0,18.34-3.95,32.48-11.86,42.41-7.9,9.93-18.85,14.9-32.83,14.9Zm5.17-53.5c6.18,0,11.2-2.03,15.05-6.08,3.85-4.05,5.78-9.32,5.78-15.81s-1.93-11.75-5.78-15.81c-3.85-4.05-8.87-6.08-15.05-6.08s-11.2,2.03-15.05,6.08c-3.85,4.05-5.78,9.32-5.78,15.81s1.92,11.76,5.78,15.81c3.85,4.05,8.87,6.08,15.05,6.08Z"/>
    <path class="cls-1" d="M605.27,1273.84c-5.17,0-7.75-2.38-7.75-7.14,0-2.53,1.37-5.27,4.1-8.21l32.38-34.66c4.96-5.27,8.54-10.11,10.72-14.52,2.18-4.41,3.27-8.84,3.27-13.3,0-11.55-6.79-17.33-20.37-17.33-4.05,0-7.98,.61-11.78,1.82-3.8,1.22-7.52,3.19-11.17,5.93-1.82,1.32-3.52,1.75-5.09,1.29-1.57-.46-2.79-1.44-3.65-2.96-.86-1.52-1.17-3.17-.91-4.94,.25-1.77,1.29-3.32,3.12-4.64,4.15-3.14,8.97-5.57,14.44-7.3,5.47-1.72,11.04-2.58,16.72-2.58,11.04,0,19.53,2.53,25.46,7.6,5.93,5.07,8.89,12.31,8.89,21.74,0,6.38-1.55,12.62-4.64,18.7-3.09,6.08-7.93,12.57-14.52,19.46l-26.6,27.82h44.23c4.66,0,6.99,2.18,6.99,6.54s-2.33,6.69-6.99,6.69h-56.85Z"/>
  </g>
  <g id="FromBox">
    <path class="cls-4" d="M527.5,1715v158H150.5c-30.33,0-55-24.67-55-55v-48c0-30.33,24.67-55,55-55h377m5-5H150.5c-33.14,0-60,26.86-60,60v48c0,33.14,26.86,60,60,60h382v-168h0Z"/>
  </g>
  <g>
    <path class="cls-1" d="M125.94,1821.74c-1.52,0-2.62-.34-3.3-1.03-.69-.69-1.03-1.69-1.03-3.02,0-.8,.21-1.59,.64-2.34,.43-.76,1.04-1.56,1.85-2.41l14.27-15.19c2.18-2.27,3.74-4.34,4.69-6.21,.95-1.87,1.42-3.75,1.42-5.64,0-4.83-2.91-7.24-8.73-7.24-1.61,0-3.22,.23-4.83,.67-1.61,.45-3.24,1.22-4.9,2.31-1.04,.71-2.01,.92-2.91,.64-.9-.28-1.59-.86-2.06-1.74-.47-.88-.63-1.81-.46-2.8,.17-.99,.77-1.85,1.81-2.56,2.03-1.37,4.32-2.41,6.85-3.12,2.53-.71,5.08-1.07,7.63-1.07,5.35,0,9.45,1.21,12.32,3.62,2.86,2.41,4.3,5.87,4.3,10.37,0,3.03-.72,5.94-2.17,8.73-1.44,2.79-3.7,5.8-6.78,9.02l-11,11.5h18.53c2.6,0,3.9,1.23,3.9,3.69s-1.3,3.83-3.9,3.83h-26.13Z"/>
    <path class="cls-1" d="M180.82,1822.45c-2.51,0-5.07-.33-7.67-.99-2.6-.66-4.99-1.68-7.17-3.05-1.14-.71-1.81-1.57-2.02-2.59-.21-1.02-.08-1.96,.39-2.84,.47-.88,1.17-1.47,2.09-1.78,.92-.31,1.98-.13,3.16,.53,1.75,.99,3.53,1.75,5.33,2.27,1.8,.52,3.71,.78,5.75,.78,2.98,0,5.31-.77,6.99-2.31,1.68-1.54,2.52-3.61,2.52-6.21s-.8-4.79-2.41-6.42c-1.61-1.63-3.81-2.45-6.6-2.45-1.52,0-2.98,.25-4.4,.75s-2.82,1.36-4.19,2.59c-.43,.38-.97,.75-1.63,1.1-.66,.36-1.37,.53-2.13,.53-2.41,0-3.62-1.16-3.62-3.48v-23.22c0-2.65,1.32-3.98,3.98-3.98h23.36c2.65,0,3.98,1.25,3.98,3.76s-1.33,3.76-3.98,3.76h-18.46v13.56c2.51-1.89,5.58-2.84,9.23-2.84,3.17,0,5.93,.67,8.27,2.02,2.34,1.35,4.17,3.22,5.47,5.61,1.3,2.39,1.95,5.17,1.95,8.34s-.73,6.14-2.2,8.63c-1.47,2.49-3.56,4.43-6.28,5.82-2.72,1.4-5.95,2.09-9.69,2.09Z"/>
    <path class="cls-1" d="M223,1822.45c-5.92,0-10.44-2.24-13.56-6.71-3.12-4.47-4.69-10.85-4.69-19.13s1.56-14.74,4.69-19.1c3.12-4.35,7.64-6.53,13.56-6.53s10.5,2.18,13.6,6.53c3.1,4.36,4.65,10.7,4.65,19.03s-1.56,14.73-4.69,19.21c-3.12,4.47-7.65,6.71-13.56,6.71Zm0-7.46c3.22,0,5.6-1.49,7.14-4.47,1.54-2.98,2.31-7.64,2.31-13.99s-.77-10.95-2.31-13.81c-1.54-2.86-3.92-4.3-7.14-4.3s-5.54,1.43-7.1,4.3c-1.56,2.86-2.34,7.47-2.34,13.81s.78,11,2.34,13.99c1.56,2.98,3.93,4.47,7.1,4.47Z"/>
  </g>
  <g id="ToBox">
    <path class="cls-6" d="M549,1875.5v-163h379.5c31.71,0,57.5,25.79,57.5,57.5v48c0,31.71-25.79,57.5-57.5,57.5h-379.5Z"/>
    <path class="cls-3" d="M928.5,1715c30.33,0,55,24.67,55,55v48c0,30.33-24.67,55-55,55h-377v-158h377m0-5h-382v168h382c33.14,0,60-26.86,60-60v-48c0-33.14-26.86-60-60-60h0Z"/>
  </g>
  <g>
    <path class="cls-1" d="M591.25,1821.96c-2.04,0-4.14-.32-6.32-.96-2.18-.64-4.21-1.6-6.11-2.88-.9-.62-1.43-1.41-1.6-2.38-.17-.97-.04-1.89,.39-2.77s1.08-1.47,1.95-1.78c.88-.31,1.88-.13,3.02,.53,1.61,.95,3.12,1.61,4.54,1.99,1.42,.38,2.84,.57,4.26,.57,4.12,0,7.26-1.44,9.44-4.33,2.18-2.89,3.27-7.19,3.27-12.92v-2.06c-.99,2.6-2.6,4.64-4.83,6.11-2.23,1.47-4.78,2.2-7.67,2.2s-5.38-.69-7.63-2.06c-2.25-1.37-4.01-3.28-5.29-5.71-1.28-2.44-1.92-5.19-1.92-8.27,0-3.27,.7-6.15,2.09-8.66,1.4-2.51,3.35-4.48,5.86-5.93,2.51-1.44,5.37-2.17,8.59-2.17,6.2,0,10.99,2.17,14.38,6.5,3.38,4.33,5.08,10.45,5.08,18.35,0,8.47-1.89,15.03-5.68,19.67-3.79,4.64-9.06,6.96-15.83,6.96Zm2.63-25.92c2.56,0,4.63-.85,6.21-2.56,1.58-1.7,2.38-3.93,2.38-6.67s-.79-4.96-2.38-6.64c-1.59-1.68-3.66-2.52-6.21-2.52s-4.63,.84-6.21,2.52c-1.59,1.68-2.38,3.89-2.38,6.64s.79,4.97,2.38,6.67c1.58,1.7,3.66,2.56,6.21,2.56Z"/>
    <path class="cls-1" d="M633.85,1821.96c-2.04,0-4.14-.32-6.32-.96-2.18-.64-4.21-1.6-6.11-2.88-.9-.62-1.43-1.41-1.6-2.38-.17-.97-.04-1.89,.39-2.77,.43-.88,1.08-1.47,1.95-1.78,.88-.31,1.88-.13,3.02,.53,1.61,.95,3.12,1.61,4.54,1.99,1.42,.38,2.84,.57,4.26,.57,4.12,0,7.27-1.44,9.44-4.33,2.18-2.89,3.27-7.19,3.27-12.92v-2.06c-.99,2.6-2.6,4.64-4.83,6.11-2.23,1.47-4.78,2.2-7.67,2.2s-5.38-.69-7.63-2.06c-2.25-1.37-4.01-3.28-5.29-5.71s-1.92-5.19-1.92-8.27c0-3.27,.7-6.15,2.09-8.66,1.4-2.51,3.35-4.48,5.86-5.93,2.51-1.44,5.37-2.17,8.59-2.17,6.2,0,10.99,2.17,14.38,6.5s5.08,10.45,5.08,18.35c0,8.47-1.89,15.03-5.68,19.67-3.79,4.64-9.06,6.96-15.83,6.96Zm2.63-25.92c2.56,0,4.63-.85,6.21-2.56,1.58-1.7,2.38-3.93,2.38-6.67s-.79-4.96-2.38-6.64c-1.59-1.68-3.66-2.52-6.21-2.52s-4.63,.84-6.21,2.52c-1.59,1.68-2.38,3.89-2.38,6.64s.79,4.97,2.38,6.67c1.58,1.7,3.66,2.56,6.21,2.56Z"/>
    <path class="cls-1" d="M676.45,1821.96c-2.04,0-4.14-.32-6.32-.96-2.18-.64-4.21-1.6-6.11-2.88-.9-.62-1.43-1.41-1.6-2.38-.17-.97-.04-1.89,.39-2.77,.43-.88,1.08-1.47,1.95-1.78,.88-.31,1.88-.13,3.02,.53,1.61,.95,3.12,1.61,4.54,1.99,1.42,.38,2.84,.57,4.26,.57,4.12,0,7.27-1.44,9.44-4.33,2.18-2.89,3.27-7.19,3.27-12.92v-2.06c-.99,2.6-2.6,4.64-4.83,6.11-2.23,1.47-4.78,2.2-7.67,2.2s-5.38-.69-7.63-2.06c-2.25-1.37-4.01-3.28-5.29-5.71s-1.92-5.19-1.92-8.27c0-3.27,.7-6.15,2.09-8.66,1.4-2.51,3.35-4.48,5.86-5.93,2.51-1.44,5.37-2.17,8.59-2.17,6.2,0,10.99,2.17,14.38,6.5s5.08,10.45,5.08,18.35c0,8.47-1.89,15.03-5.68,19.67-3.79,4.64-9.06,6.96-15.83,6.96Zm2.63-25.92c2.56,0,4.63-.85,6.21-2.56,1.58-1.7,2.38-3.93,2.38-6.67s-.79-4.96-2.38-6.64c-1.59-1.68-3.66-2.52-6.21-2.52s-4.63,.84-6.21,2.52c-1.59,1.68-2.38,3.89-2.38,6.64s.79,4.97,2.38,6.67c1.58,1.7,3.66,2.56,6.21,2.56Z"/>
  </g>
  <g class="cls-2">
    <path class="cls-1" d="M172.07,2016.18c-2.31,0-4.38-.45-6.19-1.36-1.81-.91-3.25-2.13-4.32-3.67-1.07-1.54-1.6-3.29-1.6-5.24,0-2.45,.62-4.37,1.87-5.78,1.25-1.4,3.31-2.42,6.19-3.06,2.88-.63,6.77-.95,11.66-.95h2.31v-1.77c0-2.58-.54-4.44-1.63-5.58-1.09-1.13-2.88-1.7-5.37-1.7-1.45,0-2.96,.18-4.52,.54-1.56,.36-3.19,.98-4.86,1.84-.95,.45-1.73,.52-2.35,.2-.61-.32-1.03-.82-1.26-1.5-.23-.68-.2-1.38,.07-2.11,.27-.72,.84-1.27,1.7-1.63,1.99-.91,3.97-1.57,5.92-2.01,1.95-.43,3.78-.65,5.51-.65,4.53,0,7.89,1.08,10.06,3.23,2.18,2.15,3.26,5.52,3.26,10.1v17.48c0,2.31-1.07,3.47-3.2,3.47s-3.26-1.16-3.26-3.47v-2.52c-.82,1.9-2.09,3.4-3.81,4.49-1.72,1.09-3.79,1.63-6.19,1.63Zm1.36-4.9c2.45,0,4.49-.86,6.12-2.58,1.63-1.72,2.45-3.9,2.45-6.53v-1.84h-2.24c-3.31,0-5.91,.16-7.79,.48-1.88,.32-3.22,.85-4.01,1.6-.79,.75-1.19,1.78-1.19,3.09,0,1.72,.59,3.12,1.77,4.18,1.18,1.07,2.81,1.6,4.9,1.6Z"/>
    <path class="cls-1" d="M208.65,2016.18c-3.54,0-6.2-1.02-7.99-3.06-1.79-2.04-2.69-5.03-2.69-8.98v-33.52c0-2.31,1.13-3.47,3.4-3.47s3.47,1.16,3.47,3.47v33.12c0,4.49,1.81,6.73,5.44,6.73,.41,0,.77-.02,1.09-.07,.32-.04,.63-.07,.95-.07,.54-.04,.93,.1,1.16,.44,.23,.34,.34,1.03,.34,2.07,0,1.86-.86,2.92-2.58,3.2-.45,.04-.9,.08-1.33,.1-.43,.02-.85,.03-1.26,.03Z"/>
    <path class="cls-1" d="M229.46,2016.18c-3.54,0-6.2-1.02-7.99-3.06-1.79-2.04-2.69-5.03-2.69-8.98v-33.52c0-2.31,1.13-3.47,3.4-3.47s3.47,1.16,3.47,3.47v33.12c0,4.49,1.81,6.73,5.44,6.73,.41,0,.77-.02,1.09-.07,.32-.04,.63-.07,.95-.07,.54-.04,.93,.1,1.16,.44,.23,.34,.34,1.03,.34,2.07,0,1.86-.86,2.92-2.58,3.2-.45,.04-.9,.08-1.33,.1-.43,.02-.85,.03-1.26,.03Z"/>
    <path class="cls-1" d="M253.67,2016.18c-3.36,0-6.26-.7-8.7-2.11-2.45-1.4-4.34-3.39-5.68-5.95-1.34-2.56-2.01-5.61-2.01-9.15s.67-6.58,2.01-9.15c1.34-2.56,3.23-4.54,5.68-5.95,2.45-1.4,5.35-2.11,8.7-2.11s6.12,.7,8.57,2.11c2.45,1.41,4.35,3.39,5.71,5.95,1.36,2.56,2.04,5.61,2.04,9.15s-.68,6.58-2.04,9.15c-1.36,2.56-3.26,4.55-5.71,5.95-2.45,1.41-5.3,2.11-8.57,2.11Zm0-5.3c2.81,0,5.08-1.02,6.8-3.06,1.72-2.04,2.58-4.99,2.58-8.84s-.86-6.79-2.58-8.81c-1.72-2.02-3.99-3.03-6.8-3.03s-5.15,1.01-6.87,3.03c-1.72,2.02-2.58,4.95-2.58,8.81s.86,6.8,2.58,8.84c1.72,2.04,4.01,3.06,6.87,3.06Z"/>
    <path class="cls-1" d="M289.16,2016.04c-2,0-3.38-1-4.15-2.99l-10-26.45c-.54-1.36-.53-2.48,.03-3.37,.57-.88,1.53-1.33,2.89-1.33,.82,0,1.47,.19,1.97,.58,.5,.39,.95,1.12,1.36,2.21l8.09,22.85,8.43-23.12c.63-1.68,1.77-2.52,3.4-2.52s2.81,.84,3.4,2.52l8.3,23.26,8.3-23.12c.36-1.04,.83-1.75,1.39-2.11,.57-.36,1.21-.54,1.94-.54,1.36,0,2.23,.48,2.62,1.43,.38,.95,.35,2.04-.1,3.26l-10,26.45c-.82,2-2.18,2.99-4.08,2.99-2.04,0-3.42-1-4.15-2.99l-7.82-21.22-7.75,21.22c-.73,2-2.09,2.99-4.08,2.99Z"/>
    <path class="cls-1" d="M356.01,2016.04c-2.31,0-3.47-1.16-3.47-3.47v-27.2c0-2.31,1.11-3.47,3.33-3.47s3.33,1.16,3.33,3.47v2.92c.91-2.04,2.28-3.6,4.11-4.69s4.07-1.72,6.7-1.9c1.68-.14,2.58,.77,2.72,2.72,.18,2-.79,3.08-2.92,3.26l-1.29,.14c-6.03,.59-9.04,3.7-9.04,9.32v15.44c0,2.31-1.16,3.47-3.47,3.47Z"/>
    <path class="cls-1" d="M393,2016.18c-5.44,0-9.72-1.53-12.85-4.59-3.13-3.06-4.69-7.24-4.69-12.55,0-3.4,.69-6.4,2.07-9.01,1.38-2.61,3.3-4.63,5.75-6.09,2.45-1.45,5.26-2.18,8.43-2.18,4.58,0,8.18,1.46,10.81,4.39,2.63,2.92,3.94,6.95,3.94,12.07,0,1.54-.91,2.31-2.72,2.31h-21.62c.5,6.89,4.15,10.34,10.95,10.34,1.36,0,2.79-.17,4.28-.51s2.95-.96,4.35-1.87c.95-.54,1.78-.74,2.48-.58,.7,.16,1.21,.54,1.53,1.16,.32,.61,.37,1.29,.17,2.04s-.74,1.39-1.6,1.94c-1.54,1.04-3.34,1.83-5.41,2.35-2.06,.52-4.02,.78-5.88,.78Zm-1.02-29.58c-2.86,0-5.12,.88-6.8,2.65-1.68,1.77-2.7,4.13-3.06,7.07h18.56c-.14-3.08-.95-5.47-2.45-7.17-1.5-1.7-3.58-2.55-6.26-2.55Z"/>
    <path class="cls-1" d="M417.34,2028.28c-2.27,0-3.4-1.16-3.4-3.47v-39.44c0-2.31,1.11-3.47,3.33-3.47s3.4,1.16,3.4,3.47v2.58c1-1.9,2.47-3.41,4.42-4.52,1.95-1.11,4.17-1.67,6.66-1.67,2.95,0,5.52,.7,7.72,2.11,2.2,1.41,3.9,3.39,5.1,5.95,1.2,2.56,1.8,5.61,1.8,9.15s-.6,6.6-1.8,9.18c-1.2,2.58-2.9,4.57-5.1,5.95-2.2,1.38-4.77,2.07-7.72,2.07-2.45,0-4.64-.53-6.56-1.6-1.93-1.06-3.39-2.53-4.39-4.39v14.62c0,2.31-1.16,3.47-3.47,3.47Zm12.72-17.41c2.86,0,5.13-1.02,6.83-3.06,1.7-2.04,2.55-4.99,2.55-8.84s-.85-6.79-2.55-8.81c-1.7-2.02-3.98-3.03-6.83-3.03s-5.13,1.01-6.83,3.03c-1.7,2.02-2.55,4.95-2.55,8.81s.85,6.8,2.55,8.84c1.7,2.04,3.98,3.06,6.83,3.06Z"/>
    <path class="cls-1" d="M469.7,2016.18c-5.44,0-9.72-1.53-12.85-4.59-3.13-3.06-4.69-7.24-4.69-12.55,0-3.4,.69-6.4,2.07-9.01,1.38-2.61,3.3-4.63,5.75-6.09,2.45-1.45,5.26-2.18,8.43-2.18,4.58,0,8.18,1.46,10.81,4.39,2.63,2.92,3.94,6.95,3.94,12.07,0,1.54-.91,2.31-2.72,2.31h-21.62c.5,6.89,4.15,10.34,10.95,10.34,1.36,0,2.79-.17,4.28-.51s2.95-.96,4.35-1.87c.95-.54,1.78-.74,2.48-.58,.7,.16,1.21,.54,1.53,1.16,.32,.61,.37,1.29,.17,2.04s-.74,1.39-1.6,1.94c-1.54,1.04-3.34,1.83-5.41,2.35-2.06,.52-4.02,.78-5.88,.78Zm-1.02-29.58c-2.86,0-5.12,.88-6.8,2.65-1.68,1.77-2.7,4.13-3.06,7.07h18.56c-.14-3.08-.95-5.47-2.45-7.17-1.5-1.7-3.58-2.55-6.26-2.55Z"/>
    <path class="cls-1" d="M501.25,2016.18c-2.31,0-4.38-.45-6.19-1.36-1.81-.91-3.25-2.13-4.32-3.67-1.07-1.54-1.6-3.29-1.6-5.24,0-2.45,.62-4.37,1.87-5.78,1.25-1.4,3.31-2.42,6.19-3.06,2.88-.63,6.77-.95,11.66-.95h2.31v-1.77c0-2.58-.54-4.44-1.63-5.58-1.09-1.13-2.88-1.7-5.37-1.7-1.45,0-2.96,.18-4.52,.54-1.56,.36-3.19,.98-4.86,1.84-.95,.45-1.73,.52-2.35,.2-.61-.32-1.03-.82-1.26-1.5-.23-.68-.2-1.38,.07-2.11,.27-.72,.84-1.27,1.7-1.63,1.99-.91,3.97-1.57,5.92-2.01,1.95-.43,3.78-.65,5.51-.65,4.53,0,7.89,1.08,10.06,3.23,2.18,2.15,3.26,5.52,3.26,10.1v17.48c0,2.31-1.07,3.47-3.2,3.47s-3.26-1.16-3.26-3.47v-2.52c-.82,1.9-2.09,3.4-3.81,4.49-1.72,1.09-3.79,1.63-6.19,1.63Zm1.36-4.9c2.45,0,4.49-.86,6.12-2.58,1.63-1.72,2.45-3.9,2.45-6.53v-1.84h-2.24c-3.31,0-5.91,.16-7.79,.48-1.88,.32-3.22,.85-4.01,1.6-.79,.75-1.19,1.78-1.19,3.09,0,1.72,.59,3.12,1.77,4.18,1.18,1.07,2.81,1.6,4.9,1.6Z"/>
    <path class="cls-1" d="M541.3,2016.18c-4.17,0-7.28-1.06-9.32-3.2-2.04-2.13-3.06-5.21-3.06-9.25v-16.05h-4.08c-1.9,0-2.86-.88-2.86-2.65s.95-2.65,2.86-2.65h4.08v-7c0-2.31,1.16-3.47,3.47-3.47s3.4,1.16,3.4,3.47v7h7.96c1.9,0,2.86,.88,2.86,2.65s-.95,2.65-2.86,2.65h-7.96v15.5c0,2.4,.51,4.22,1.53,5.44,1.02,1.22,2.69,1.84,5,1.84,.82,0,1.52-.08,2.11-.24,.59-.16,1.11-.26,1.56-.31,.5,0,.91,.17,1.22,.51,.32,.34,.48,.99,.48,1.94,0,.73-.13,1.37-.37,1.94-.25,.57-.69,.94-1.33,1.12-.54,.23-1.28,.41-2.21,.54-.93,.14-1.76,.2-2.48,.2Z"/>
    <path class="cls-1" d="M567.21,2016.18c-5.44,0-9.72-1.53-12.85-4.59-3.13-3.06-4.69-7.24-4.69-12.55,0-3.4,.69-6.4,2.07-9.01,1.38-2.61,3.3-4.63,5.75-6.09,2.45-1.45,5.26-2.18,8.43-2.18,4.58,0,8.18,1.46,10.81,4.39,2.63,2.92,3.94,6.95,3.94,12.07,0,1.54-.91,2.31-2.72,2.31h-21.62c.5,6.89,4.15,10.34,10.95,10.34,1.36,0,2.79-.17,4.28-.51s2.95-.96,4.35-1.87c.95-.54,1.78-.74,2.48-.58,.7,.16,1.21,.54,1.53,1.16,.32,.61,.37,1.29,.17,2.04s-.74,1.39-1.6,1.94c-1.54,1.04-3.34,1.83-5.41,2.35-2.06,.52-4.02,.78-5.88,.78Zm-1.02-29.58c-2.86,0-5.12,.88-6.8,2.65-1.68,1.77-2.7,4.13-3.06,7.07h18.56c-.14-3.08-.95-5.47-2.45-7.17s-3.58-2.55-6.26-2.55Z"/>
    <path class="cls-1" d="M600.8,2016.18c-2.9,0-5.45-.69-7.65-2.07-2.2-1.38-3.91-3.37-5.13-5.95-1.22-2.58-1.84-5.64-1.84-9.18s.61-6.58,1.84-9.15c1.22-2.56,2.92-4.54,5.1-5.95,2.18-1.4,4.74-2.11,7.68-2.11,2.49,0,4.71,.54,6.66,1.63s3.4,2.56,4.35,4.42v-17.2c0-2.31,1.13-3.47,3.4-3.47s3.47,1.16,3.47,3.47v41.96c0,2.31-1.13,3.47-3.4,3.47s-3.4-1.16-3.4-3.47v-2.58c-1,1.9-2.47,3.41-4.42,4.52s-4.17,1.67-6.66,1.67Zm1.77-5.3c2.81,0,5.08-1.02,6.8-3.06,1.72-2.04,2.58-4.99,2.58-8.84s-.86-6.79-2.58-8.81c-1.72-2.02-3.99-3.03-6.8-3.03s-5.15,1.01-6.87,3.03c-1.72,2.02-2.58,4.95-2.58,8.81s.86,6.8,2.58,8.84c1.72,2.04,4.01,3.06,6.87,3.06Z"/>
    <path class="cls-1" d="M649.76,2016.04c-2.31,0-3.47-1.16-3.47-3.47v-27.2c0-2.31,1.11-3.47,3.33-3.47s3.33,1.16,3.33,3.47v2.92c.91-2.04,2.28-3.6,4.11-4.69,1.84-1.09,4.07-1.72,6.7-1.9,1.68-.14,2.58,.77,2.72,2.72,.18,2-.79,3.08-2.92,3.26l-1.29,.14c-6.03,.59-9.04,3.7-9.04,9.32v15.44c0,2.31-1.16,3.47-3.47,3.47Z"/>
    <path class="cls-1" d="M686.75,2016.18c-5.44,0-9.72-1.53-12.85-4.59-3.13-3.06-4.69-7.24-4.69-12.55,0-3.4,.69-6.4,2.07-9.01,1.38-2.61,3.3-4.63,5.75-6.09,2.45-1.45,5.26-2.18,8.43-2.18,4.58,0,8.18,1.46,10.81,4.39,2.63,2.92,3.94,6.95,3.94,12.07,0,1.54-.91,2.31-2.72,2.31h-21.62c.5,6.89,4.15,10.34,10.95,10.34,1.36,0,2.79-.17,4.28-.51s2.95-.96,4.35-1.87c.95-.54,1.78-.74,2.48-.58,.7,.16,1.21,.54,1.53,1.16,.32,.61,.37,1.29,.17,2.04s-.74,1.39-1.6,1.94c-1.54,1.04-3.34,1.83-5.41,2.35-2.06,.52-4.02,.78-5.88,.78Zm-1.02-29.58c-2.86,0-5.12,.88-6.8,2.65-1.68,1.77-2.7,4.13-3.06,7.07h18.56c-.14-3.08-.95-5.47-2.45-7.17s-3.58-2.55-6.26-2.55Z"/>
    <path class="cls-1" d="M719.32,2016.18c-2,0-4.06-.23-6.19-.68-2.13-.45-4.06-1.22-5.78-2.31-.77-.45-1.25-1.02-1.43-1.7-.18-.68-.14-1.31,.14-1.9,.27-.59,.71-1.01,1.33-1.26,.61-.25,1.3-.17,2.07,.24,1.77,.95,3.47,1.63,5.1,2.04,1.63,.41,3.24,.61,4.83,.61,2.4,0,4.22-.43,5.44-1.29,1.22-.86,1.84-2.02,1.84-3.47,0-1.18-.41-2.1-1.22-2.75-.82-.66-2.04-1.17-3.67-1.53l-6.46-1.29c-5.71-1.18-8.57-4.12-8.57-8.84,0-3.13,1.25-5.62,3.74-7.48,2.49-1.86,5.76-2.79,9.79-2.79s7.59,1,10.54,2.99c.72,.45,1.16,1.01,1.29,1.67,.14,.66,.04,1.27-.27,1.84-.32,.57-.78,.96-1.39,1.19-.61,.23-1.33,.14-2.14-.27-1.36-.82-2.72-1.42-4.08-1.8-1.36-.38-2.67-.58-3.94-.58-2.36,0-4.15,.44-5.37,1.33-1.22,.88-1.84,2.07-1.84,3.57,0,2.27,1.5,3.72,4.49,4.35l6.46,1.29c2.95,.59,5.18,1.59,6.7,2.99,1.52,1.41,2.28,3.31,2.28,5.71,0,3.17-1.25,5.66-3.74,7.45-2.49,1.79-5.8,2.69-9.93,2.69Z"/>
    <path class="cls-1" d="M752.44,2016.18c-8.02,0-12.04-4.46-12.04-13.4v-17.41c0-2.31,1.13-3.47,3.4-3.47s3.47,1.16,3.47,3.47v17.48c0,2.67,.54,4.65,1.63,5.92s2.81,1.9,5.17,1.9c2.58,0,4.68-.86,6.29-2.58,1.61-1.72,2.41-4.03,2.41-6.94v-15.78c0-2.31,1.16-3.47,3.47-3.47s3.4,1.16,3.4,3.47v27.2c0,2.31-1.11,3.47-3.33,3.47s-3.33-1.16-3.33-3.47v-2.31c-1.09,1.95-2.54,3.42-4.35,4.42-1.81,1-3.88,1.5-6.19,1.5Z"/>
    <path class="cls-1" d="M789.97,2016.18c-3.54,0-6.2-1.02-7.99-3.06s-2.69-5.03-2.69-8.98v-33.52c0-2.31,1.13-3.47,3.4-3.47s3.47,1.16,3.47,3.47v33.12c0,4.49,1.81,6.73,5.44,6.73,.41,0,.77-.02,1.09-.07,.32-.04,.63-.07,.95-.07,.54-.04,.93,.1,1.16,.44,.23,.34,.34,1.03,.34,2.07,0,1.86-.86,2.92-2.58,3.2-.45,.04-.9,.08-1.33,.1-.43,.02-.85,.03-1.26,.03Z"/>
    <path class="cls-1" d="M813.5,2016.18c-4.17,0-7.28-1.06-9.32-3.2s-3.06-5.21-3.06-9.25v-16.05h-4.08c-1.9,0-2.86-.88-2.86-2.65s.95-2.65,2.86-2.65h4.08v-7c0-2.31,1.16-3.47,3.47-3.47s3.4,1.16,3.4,3.47v7h7.96c1.9,0,2.86,.88,2.86,2.65s-.95,2.65-2.86,2.65h-7.96v15.5c0,2.4,.51,4.22,1.53,5.44,1.02,1.22,2.69,1.84,5,1.84,.82,0,1.52-.08,2.11-.24,.59-.16,1.11-.26,1.56-.31,.5,0,.91,.17,1.22,.51,.32,.34,.48,.99,.48,1.94,0,.73-.13,1.37-.37,1.94-.25,.57-.69,.94-1.33,1.12-.54,.23-1.28,.41-2.21,.54-.93,.14-1.76,.2-2.48,.2Z"/>
    <path class="cls-1" d="M835.81,2016.18c-2,0-4.06-.23-6.19-.68-2.13-.45-4.06-1.22-5.78-2.31-.77-.45-1.25-1.02-1.43-1.7-.18-.68-.14-1.31,.14-1.9,.27-.59,.71-1.01,1.33-1.26,.61-.25,1.3-.17,2.07,.24,1.77,.95,3.47,1.63,5.1,2.04,1.63,.41,3.24,.61,4.83,.61,2.4,0,4.22-.43,5.44-1.29,1.22-.86,1.84-2.02,1.84-3.47,0-1.18-.41-2.1-1.22-2.75-.82-.66-2.04-1.17-3.67-1.53l-6.46-1.29c-5.71-1.18-8.57-4.12-8.57-8.84,0-3.13,1.25-5.62,3.74-7.48,2.49-1.86,5.76-2.79,9.79-2.79s7.59,1,10.54,2.99c.72,.45,1.16,1.01,1.29,1.67,.14,.66,.04,1.27-.27,1.84-.32,.57-.78,.96-1.39,1.19-.61,.23-1.33,.14-2.14-.27-1.36-.82-2.72-1.42-4.08-1.8-1.36-.38-2.67-.58-3.94-.58-2.36,0-4.15,.44-5.37,1.33-1.22,.88-1.84,2.07-1.84,3.57,0,2.27,1.5,3.72,4.49,4.35l6.46,1.29c2.95,.59,5.18,1.59,6.7,2.99,1.52,1.41,2.28,3.31,2.28,5.71,0,3.17-1.25,5.66-3.74,7.45-2.49,1.79-5.8,2.69-9.93,2.69Z"/>
  </g>
  <path id="AllowRepeatCB" class="cls-3" d="M916.81,1963.17h-38.89c-3.06,0-5.56,2.5-5.56,5.56v38.89c0,3.06,2.5,5.56,5.56,5.56h38.89c3.06,0,5.56-2.5,5.56-5.56v-38.89c0-3.06-2.5-5.56-5.56-5.56Zm-23.03,36.92c-1.08,1.08-2.83,1.08-3.92,0l-9.97-9.97c-1.08-1.08-1.08-2.83,0-3.92,1.08-1.08,2.83-1.08,3.92,0l8,8,19.11-19.11c1.08-1.08,2.83-1.08,3.92,0s1.08,2.83,0,3.92l-21.06,21.08Z"/>
  <g class="cls-2">
    <path class="cls-1" d="M134.19,614.03c-4.11,0-7.17-1.05-9.18-3.15-2.01-2.1-3.02-5.14-3.02-9.11v-15.81h-4.02c-1.88,0-2.81-.87-2.81-2.61s.94-2.61,2.81-2.61h4.02v-6.9c0-2.28,1.14-3.42,3.42-3.42s3.35,1.14,3.35,3.42v6.9h7.84c1.88,0,2.81,.87,2.81,2.61s-.94,2.61-2.81,2.61h-7.84v15.28c0,2.37,.5,4.15,1.51,5.36s2.65,1.81,4.92,1.81c.8,0,1.5-.08,2.08-.23,.58-.16,1.09-.26,1.54-.3,.49,0,.89,.17,1.21,.5,.31,.33,.47,.97,.47,1.91,0,.71-.12,1.35-.37,1.91-.25,.56-.68,.93-1.31,1.11-.54,.22-1.26,.4-2.18,.54-.92,.13-1.73,.2-2.45,.2Z"/>
    <path class="cls-1" d="M155.16,614.03c-2.28,0-4.31-.45-6.1-1.34-1.79-.89-3.21-2.1-4.25-3.62-1.05-1.52-1.57-3.24-1.57-5.16,0-2.41,.61-4.31,1.84-5.69,1.23-1.38,3.26-2.39,6.1-3.02,2.84-.62,6.67-.94,11.49-.94h2.28v-1.74c0-2.55-.54-4.38-1.61-5.49-1.07-1.12-2.84-1.68-5.29-1.68-1.43,0-2.91,.18-4.46,.54-1.54,.36-3.14,.96-4.79,1.81-.94,.45-1.71,.51-2.31,.2-.6-.31-1.02-.8-1.24-1.47-.22-.67-.2-1.36,.07-2.08,.27-.71,.83-1.25,1.68-1.61,1.96-.89,3.91-1.55,5.83-1.98,1.92-.42,3.73-.64,5.43-.64,4.47,0,7.77,1.06,9.92,3.18,2.14,2.12,3.22,5.44,3.22,9.95v17.22c0,2.28-1.05,3.42-3.15,3.42s-3.22-1.14-3.22-3.42v-2.48c-.8,1.88-2.06,3.35-3.75,4.42-1.7,1.07-3.73,1.61-6.1,1.61Zm1.34-4.82c2.41,0,4.42-.85,6.03-2.55,1.61-1.7,2.41-3.84,2.41-6.43v-1.81h-2.21c-3.26,0-5.82,.16-7.67,.47-1.85,.31-3.17,.84-3.95,1.57-.78,.74-1.17,1.75-1.17,3.05,0,1.7,.58,3.07,1.74,4.12,1.16,1.05,2.77,1.57,4.82,1.57Z"/>
    <path class="cls-1" d="M184.04,625.96c-2.23,0-3.35-1.14-3.35-3.42v-38.86c0-2.28,1.09-3.42,3.28-3.42s3.35,1.14,3.35,3.42v2.55c.98-1.88,2.43-3.36,4.35-4.46,1.92-1.09,4.11-1.64,6.57-1.64,2.9,0,5.44,.69,7.6,2.08,2.17,1.39,3.84,3.34,5.02,5.86,1.18,2.52,1.78,5.53,1.78,9.01s-.59,6.5-1.78,9.04c-1.18,2.55-2.86,4.5-5.02,5.86-2.17,1.36-4.7,2.04-7.6,2.04-2.41,0-4.57-.53-6.47-1.57-1.9-1.05-3.34-2.49-4.32-4.32v14.4c0,2.28-1.14,3.42-3.42,3.42Zm12.53-17.15c2.81,0,5.06-1,6.73-3.02,1.67-2.01,2.51-4.91,2.51-8.71s-.84-6.69-2.51-8.68c-1.68-1.99-3.92-2.98-6.73-2.98s-5.06,.99-6.73,2.98c-1.67,1.99-2.51,4.88-2.51,8.68s.84,6.7,2.51,8.71c1.68,2.01,3.92,3.02,6.73,3.02Z"/>
    <path class="cls-1" d="M248.42,614.03c-2.28,0-4.31-.45-6.1-1.34-1.79-.89-3.21-2.1-4.25-3.62-1.05-1.52-1.57-3.24-1.57-5.16,0-2.41,.61-4.31,1.84-5.69,1.23-1.38,3.26-2.39,6.1-3.02,2.84-.62,6.67-.94,11.49-.94h2.28v-1.74c0-2.55-.54-4.38-1.61-5.49-1.07-1.12-2.84-1.68-5.29-1.68-1.43,0-2.91,.18-4.46,.54-1.54,.36-3.14,.96-4.79,1.81-.94,.45-1.71,.51-2.31,.2-.6-.31-1.02-.8-1.24-1.47-.22-.67-.2-1.36,.07-2.08,.27-.71,.83-1.25,1.68-1.61,1.96-.89,3.91-1.55,5.83-1.98,1.92-.42,3.73-.64,5.43-.64,4.47,0,7.77,1.06,9.92,3.18,2.14,2.12,3.22,5.44,3.22,9.95v17.22c0,2.28-1.05,3.42-3.15,3.42s-3.22-1.14-3.22-3.42v-2.48c-.8,1.88-2.06,3.35-3.75,4.42-1.7,1.07-3.73,1.61-6.1,1.61Zm1.34-4.82c2.41,0,4.42-.85,6.03-2.55,1.61-1.7,2.41-3.84,2.41-6.43v-1.81h-2.21c-3.26,0-5.82,.16-7.67,.47-1.85,.31-3.17,.84-3.95,1.57-.78,.74-1.17,1.75-1.17,3.05,0,1.7,.58,3.07,1.74,4.12,1.16,1.05,2.77,1.57,4.82,1.57Z"/>
    <path class="cls-1" d="M277.3,613.9c-2.23,0-3.35-1.14-3.35-3.42v-26.8c0-2.28,1.09-3.42,3.28-3.42s3.28,1.14,3.28,3.42v2.48c1.12-1.96,2.65-3.46,4.59-4.49,1.94-1.03,4.12-1.54,6.53-1.54,7.73,0,11.59,4.38,11.59,13.13v17.22c0,2.28-1.12,3.42-3.35,3.42s-3.42-1.14-3.42-3.42v-16.82c0-2.81-.55-4.87-1.64-6.16-1.1-1.29-2.8-1.94-5.13-1.94-2.73,0-4.9,.86-6.53,2.58-1.63,1.72-2.45,3.99-2.45,6.8v15.54c0,2.28-1.14,3.42-3.42,3.42Z"/>
    <path class="cls-1" d="M319.91,625.96c-1.25,0-2.11-.46-2.58-1.37-.47-.92-.44-1.98,.1-3.18l3.95-8.84-11.93-27.67c-.54-1.21-.55-2.28-.03-3.22,.51-.94,1.53-1.41,3.05-1.41,.8,0,1.46,.2,1.98,.6,.51,.4,.97,1.1,1.37,2.08l9.18,22.65,9.31-22.65c.4-1.03,.87-1.73,1.41-2.11,.54-.38,1.27-.57,2.21-.57,1.21,0,2.03,.47,2.48,1.41,.45,.94,.42,1.99-.07,3.15l-16.75,38.52c-.45,1.03-.95,1.72-1.51,2.08-.56,.36-1.28,.54-2.18,.54Z"/>
    <path class="cls-1" d="M360.85,613.9c-1.97,0-3.33-.98-4.09-2.95l-9.85-26.06c-.54-1.34-.53-2.45,.03-3.32,.56-.87,1.51-1.31,2.85-1.31,.8,0,1.45,.19,1.94,.57,.49,.38,.94,1.11,1.34,2.18l7.97,22.51,8.31-22.78c.62-1.65,1.74-2.48,3.35-2.48s2.77,.83,3.35,2.48l8.17,22.91,8.17-22.78c.36-1.03,.81-1.72,1.37-2.08,.56-.36,1.19-.54,1.91-.54,1.34,0,2.2,.47,2.58,1.41,.38,.94,.35,2.01-.1,3.22l-9.85,26.06c-.8,1.97-2.14,2.95-4.02,2.95-2.01,0-3.37-.98-4.09-2.95l-7.71-20.9-7.64,20.9c-.72,1.97-2.06,2.95-4.02,2.95Z"/>
    <path class="cls-1" d="M408.95,613.9c-2.23,0-3.35-1.14-3.35-3.42v-41.34c0-2.28,1.12-3.42,3.35-3.42s3.42,1.14,3.42,3.42v16.68c1.12-1.88,2.62-3.29,4.52-4.25,1.9-.96,4.03-1.44,6.4-1.44,7.73,0,11.59,4.38,11.59,13.13v17.22c0,2.28-1.12,3.42-3.35,3.42s-3.42-1.14-3.42-3.42v-16.82c0-2.81-.55-4.87-1.64-6.16-1.1-1.29-2.8-1.94-5.13-1.94-2.73,0-4.9,.86-6.53,2.58-1.63,1.72-2.45,3.99-2.45,6.8v15.54c0,2.28-1.14,3.42-3.42,3.42Z"/>
    <path class="cls-1" d="M459.54,614.03c-5.36,0-9.58-1.51-12.66-4.52s-4.62-7.14-4.62-12.36c0-3.35,.68-6.31,2.04-8.88,1.36-2.57,3.25-4.57,5.66-6,2.41-1.43,5.18-2.14,8.31-2.14,4.51,0,8.06,1.44,10.65,4.32,2.59,2.88,3.89,6.85,3.89,11.89,0,1.52-.89,2.28-2.68,2.28h-21.31c.49,6.79,4.09,10.18,10.79,10.18,1.34,0,2.75-.17,4.22-.5,1.47-.33,2.9-.95,4.29-1.84,.94-.54,1.75-.73,2.45-.57,.69,.16,1.19,.54,1.51,1.14,.31,.6,.37,1.27,.17,2.01-.2,.74-.73,1.37-1.57,1.91-1.52,1.03-3.29,1.8-5.33,2.31-2.03,.51-3.96,.77-5.8,.77Zm-1-29.15c-2.81,0-5.05,.87-6.7,2.61-1.65,1.74-2.66,4.07-3.02,6.97h18.29c-.13-3.04-.94-5.39-2.41-7.07-1.47-1.68-3.53-2.51-6.16-2.51Z"/>
    <path class="cls-1" d="M483.59,613.9c-2.28,0-3.42-1.14-3.42-3.42v-26.8c0-2.28,1.09-3.42,3.28-3.42s3.28,1.14,3.28,3.42v2.88c.89-2.01,2.24-3.55,4.05-4.62,1.81-1.07,4.01-1.7,6.6-1.88,1.65-.13,2.55,.76,2.68,2.68,.18,1.97-.78,3.04-2.88,3.22l-1.27,.13c-5.94,.58-8.91,3.64-8.91,9.18v15.21c0,2.28-1.14,3.42-3.42,3.42Z"/>
    <path class="cls-1" d="M520.04,614.03c-5.36,0-9.58-1.51-12.66-4.52s-4.62-7.14-4.62-12.36c0-3.35,.68-6.31,2.04-8.88,1.36-2.57,3.25-4.57,5.66-6,2.41-1.43,5.18-2.14,8.31-2.14,4.51,0,8.06,1.44,10.65,4.32,2.59,2.88,3.89,6.85,3.89,11.89,0,1.52-.89,2.28-2.68,2.28h-21.31c.49,6.79,4.09,10.18,10.79,10.18,1.34,0,2.75-.17,4.22-.5,1.47-.33,2.9-.95,4.29-1.84,.94-.54,1.75-.73,2.45-.57,.69,.16,1.19,.54,1.51,1.14,.31,.6,.37,1.27,.17,2.01-.2,.74-.73,1.37-1.57,1.91-1.52,1.03-3.29,1.8-5.33,2.31-2.03,.51-3.96,.77-5.8,.77Zm-1-29.15c-2.81,0-5.05,.87-6.7,2.61-1.65,1.74-2.66,4.07-3.02,6.97h18.29c-.13-3.04-.94-5.39-2.41-7.07-1.47-1.68-3.53-2.51-6.16-2.51Z"/>
    <path class="cls-1" d="M572.56,614.03c-3.31,0-6.16-.69-8.58-2.08-2.41-1.38-4.28-3.34-5.59-5.86-1.32-2.52-1.98-5.53-1.98-9.01s.66-6.49,1.98-9.01c1.32-2.52,3.18-4.48,5.59-5.86,2.41-1.38,5.27-2.08,8.58-2.08s6.03,.69,8.44,2.08c2.41,1.39,4.29,3.34,5.63,5.86,1.34,2.52,2.01,5.53,2.01,9.01s-.67,6.49-2.01,9.01c-1.34,2.52-3.22,4.48-5.63,5.86-2.41,1.39-5.23,2.08-8.44,2.08Zm0-5.23c2.77,0,5-1,6.7-3.02,1.7-2.01,2.55-4.91,2.55-8.71s-.85-6.69-2.55-8.68c-1.7-1.99-3.93-2.98-6.7-2.98s-5.07,.99-6.77,2.98c-1.7,1.99-2.55,4.88-2.55,8.68s.85,6.7,2.55,8.71c1.7,2.01,3.95,3.02,6.77,3.02Z"/>
    <path class="cls-1" d="M599.57,613.9c-2.23,0-3.35-1.14-3.35-3.42v-26.8c0-2.28,1.09-3.42,3.28-3.42s3.28,1.14,3.28,3.42v2.48c1.12-1.96,2.65-3.46,4.59-4.49,1.94-1.03,4.12-1.54,6.53-1.54,7.73,0,11.59,4.38,11.59,13.13v17.22c0,2.28-1.12,3.42-3.35,3.42s-3.42-1.14-3.42-3.42v-16.82c0-2.81-.55-4.87-1.64-6.16-1.1-1.29-2.8-1.94-5.13-1.94-2.72,0-4.9,.86-6.53,2.58-1.63,1.72-2.45,3.99-2.45,6.8v15.54c0,2.28-1.14,3.42-3.42,3.42Z"/>
    <path class="cls-1" d="M666.43,614.03c-4.11,0-7.17-1.05-9.18-3.15-2.01-2.1-3.01-5.14-3.01-9.11v-15.81h-4.02c-1.88,0-2.81-.87-2.81-2.61s.94-2.61,2.81-2.61h4.02v-6.9c0-2.28,1.14-3.42,3.42-3.42s3.35,1.14,3.35,3.42v6.9h7.84c1.88,0,2.81,.87,2.81,2.61s-.94,2.61-2.81,2.61h-7.84v15.28c0,2.37,.5,4.15,1.51,5.36s2.65,1.81,4.92,1.81c.8,0,1.5-.08,2.08-.23,.58-.16,1.09-.26,1.54-.3,.49,0,.89,.17,1.21,.5,.31,.33,.47,.97,.47,1.91,0,.71-.12,1.35-.37,1.91-.25,.56-.68,.93-1.31,1.11-.54,.22-1.26,.4-2.18,.54-.92,.13-1.73,.2-2.45,.2Z"/>
    <path class="cls-1" d="M680.9,613.9c-2.23,0-3.35-1.14-3.35-3.42v-41.34c0-2.28,1.12-3.42,3.35-3.42s3.42,1.14,3.42,3.42v16.68c1.12-1.88,2.62-3.29,4.52-4.25,1.9-.96,4.03-1.44,6.4-1.44,7.73,0,11.59,4.38,11.59,13.13v17.22c0,2.28-1.12,3.42-3.35,3.42s-3.42-1.14-3.42-3.42v-16.82c0-2.81-.55-4.87-1.64-6.16-1.1-1.29-2.8-1.94-5.13-1.94-2.72,0-4.9,.86-6.53,2.58-1.63,1.72-2.45,3.99-2.45,6.8v15.54c0,2.28-1.14,3.42-3.42,3.42Z"/>
    <path class="cls-1" d="M731.48,614.03c-5.36,0-9.58-1.51-12.66-4.52-3.08-3.02-4.62-7.14-4.62-12.36,0-3.35,.68-6.31,2.04-8.88,1.36-2.57,3.25-4.57,5.66-6,2.41-1.43,5.18-2.14,8.31-2.14,4.51,0,8.06,1.44,10.65,4.32,2.59,2.88,3.89,6.85,3.89,11.89,0,1.52-.89,2.28-2.68,2.28h-21.31c.49,6.79,4.09,10.18,10.79,10.18,1.34,0,2.75-.17,4.22-.5,1.47-.33,2.9-.95,4.29-1.84,.94-.54,1.75-.73,2.45-.57,.69,.16,1.2,.54,1.51,1.14s.37,1.27,.17,2.01c-.2,.74-.73,1.37-1.58,1.91-1.52,1.03-3.29,1.8-5.33,2.31-2.03,.51-3.96,.77-5.8,.77Zm-1-29.15c-2.81,0-5.05,.87-6.7,2.61-1.65,1.74-2.66,4.07-3.01,6.97h18.29c-.13-3.04-.94-5.39-2.41-7.07-1.47-1.68-3.53-2.51-6.16-2.51Z"/>
    <path class="cls-1" d="M781.26,614.03c-1.97,0-4-.22-6.1-.67-2.1-.45-4-1.21-5.7-2.28-.76-.45-1.23-1-1.41-1.67s-.13-1.29,.13-1.88c.27-.58,.7-.99,1.31-1.24,.6-.24,1.28-.17,2.04,.23,1.74,.94,3.42,1.61,5.03,2.01,1.61,.4,3.19,.6,4.76,.6,2.37,0,4.15-.42,5.36-1.27,1.21-.85,1.81-1.99,1.81-3.42,0-1.16-.4-2.07-1.21-2.71-.8-.65-2.01-1.15-3.62-1.51l-6.37-1.27c-5.63-1.16-8.44-4.06-8.44-8.71,0-3.08,1.23-5.54,3.68-7.37,2.46-1.83,5.67-2.75,9.65-2.75s7.48,.98,10.38,2.95c.71,.45,1.14,.99,1.27,1.64,.13,.65,.04,1.25-.27,1.81-.31,.56-.77,.95-1.37,1.17-.6,.22-1.31,.13-2.11-.27-1.34-.8-2.68-1.4-4.02-1.78-1.34-.38-2.64-.57-3.89-.57-2.32,0-4.09,.44-5.29,1.31-1.21,.87-1.81,2.04-1.81,3.52,0,2.23,1.47,3.66,4.42,4.29l6.37,1.27c2.9,.58,5.1,1.56,6.6,2.95,1.5,1.38,2.24,3.26,2.24,5.63,0,3.13-1.23,5.57-3.68,7.34-2.46,1.77-5.72,2.65-9.78,2.65Z"/>
    <path class="cls-1" d="M816.64,614.03c-3.35,0-6.24-.7-8.68-2.11-2.43-1.41-4.32-3.39-5.66-5.96-1.34-2.57-2.01-5.59-2.01-9.08,0-5.18,1.47-9.27,4.42-12.26,2.95-2.99,6.92-4.49,11.93-4.49,1.56,0,3.2,.23,4.92,.7,1.72,.47,3.32,1.24,4.79,2.31,.71,.45,1.13,1.02,1.24,1.71,.11,.69,0,1.34-.33,1.94s-.82,1-1.44,1.21c-.63,.2-1.34,.08-2.14-.37-1.07-.76-2.17-1.31-3.28-1.64-1.12-.33-2.19-.5-3.22-.5-3.17,0-5.62,.99-7.34,2.98-1.72,1.99-2.58,4.81-2.58,8.48s.86,6.53,2.58,8.61c1.72,2.08,4.17,3.12,7.34,3.12,1.03,0,2.09-.16,3.18-.47,1.09-.31,2.2-.85,3.32-1.61,.8-.45,1.51-.56,2.11-.33,.6,.22,1.05,.64,1.34,1.24,.29,.6,.38,1.25,.27,1.94-.11,.69-.53,1.26-1.24,1.71-1.43,1.03-2.98,1.76-4.66,2.21-1.67,.45-3.29,.67-4.86,.67Z"/>
    <path class="cls-1" d="M836.94,613.9c-2.28,0-3.42-1.14-3.42-3.42v-26.8c0-2.28,1.09-3.42,3.28-3.42s3.28,1.14,3.28,3.42v2.88c.89-2.01,2.24-3.55,4.05-4.62,1.81-1.07,4.01-1.7,6.6-1.88,1.65-.13,2.55,.76,2.68,2.68,.18,1.97-.78,3.04-2.88,3.22l-1.27,.13c-5.94,.58-8.91,3.64-8.91,9.18v15.21c0,2.28-1.14,3.42-3.42,3.42Z"/>
    <path class="cls-1" d="M873.39,614.03c-5.36,0-9.58-1.51-12.66-4.52-3.08-3.02-4.62-7.14-4.62-12.36,0-3.35,.68-6.31,2.04-8.88,1.36-2.57,3.25-4.57,5.66-6,2.41-1.43,5.18-2.14,8.31-2.14,4.51,0,8.06,1.44,10.65,4.32,2.59,2.88,3.89,6.85,3.89,11.89,0,1.52-.89,2.28-2.68,2.28h-21.31c.49,6.79,4.09,10.18,10.79,10.18,1.34,0,2.75-.17,4.22-.5,1.47-.33,2.9-.95,4.29-1.84,.94-.54,1.75-.73,2.45-.57,.69,.16,1.2,.54,1.51,1.14s.37,1.27,.17,2.01c-.2,.74-.73,1.37-1.58,1.91-1.52,1.03-3.29,1.8-5.33,2.31-2.03,.51-3.96,.77-5.8,.77Zm-1-29.15c-2.81,0-5.05,.87-6.7,2.61-1.65,1.74-2.66,4.07-3.01,6.97h18.29c-.13-3.04-.94-5.39-2.41-7.07-1.47-1.68-3.53-2.51-6.16-2.51Z"/>
    <path class="cls-1" d="M909.37,614.03c-5.36,0-9.58-1.51-12.66-4.52-3.08-3.02-4.62-7.14-4.62-12.36,0-3.35,.68-6.31,2.04-8.88,1.36-2.57,3.25-4.57,5.66-6,2.41-1.43,5.18-2.14,8.31-2.14,4.51,0,8.06,1.44,10.65,4.32,2.59,2.88,3.89,6.85,3.89,11.89,0,1.52-.89,2.28-2.68,2.28h-21.31c.49,6.79,4.09,10.18,10.79,10.18,1.34,0,2.75-.17,4.22-.5,1.47-.33,2.9-.95,4.29-1.84,.94-.54,1.75-.73,2.45-.57,.69,.16,1.2,.54,1.51,1.14s.37,1.27,.17,2.01c-.2,.74-.73,1.37-1.58,1.91-1.52,1.03-3.29,1.8-5.33,2.31-2.03,.51-3.96,.77-5.8,.77Zm-1-29.15c-2.81,0-5.05,.87-6.7,2.61-1.65,1.74-2.66,4.07-3.01,6.97h18.29c-.13-3.04-.94-5.39-2.41-7.07-1.47-1.68-3.53-2.51-6.16-2.51Z"/>
    <path class="cls-1" d="M933.35,613.9c-2.23,0-3.35-1.14-3.35-3.42v-26.8c0-2.28,1.09-3.42,3.28-3.42s3.28,1.14,3.28,3.42v2.48c1.12-1.96,2.65-3.46,4.59-4.49,1.94-1.03,4.12-1.54,6.53-1.54,7.73,0,11.59,4.38,11.59,13.13v17.22c0,2.28-1.12,3.42-3.35,3.42s-3.42-1.14-3.42-3.42v-16.82c0-2.81-.55-4.87-1.64-6.16-1.1-1.29-2.8-1.94-5.13-1.94-2.72,0-4.9,.86-6.53,2.58-1.63,1.72-2.45,3.99-2.45,6.8v15.54c0,2.28-1.14,3.42-3.42,3.42Z"/>
    <path class="cls-1" d="M279.65,707.9c-2.28,0-3.42-1.14-3.42-3.42v-24.52h-3.75c-1.83,0-2.75-.87-2.75-2.61s.92-2.61,2.75-2.61h3.75v-.6c0-4.42,1.09-7.76,3.28-10.02,2.19-2.25,5.38-3.58,9.58-3.99l2.08-.13c.94-.09,1.64,.1,2.11,.57s.7,1.05,.7,1.74-.18,1.31-.54,1.84c-.36,.54-.89,.85-1.61,.94l-1.27,.07c-2.64,.18-4.56,.92-5.76,2.21-1.21,1.3-1.81,3.24-1.81,5.83v1.54h6.5c1.88,0,2.81,.87,2.81,2.61s-.94,2.61-2.81,2.61h-6.5v24.52c0,2.28-1.12,3.42-3.35,3.42Z"/>
    <path class="cls-1" d="M310.8,708.03c-3.31,0-6.16-.69-8.58-2.08-2.41-1.38-4.28-3.34-5.59-5.86-1.32-2.52-1.98-5.53-1.98-9.01s.66-6.49,1.98-9.01c1.32-2.52,3.18-4.48,5.59-5.86,2.41-1.38,5.27-2.08,8.58-2.08s6.03,.69,8.44,2.08c2.41,1.39,4.29,3.34,5.63,5.86,1.34,2.52,2.01,5.53,2.01,9.01s-.67,6.49-2.01,9.01c-1.34,2.52-3.22,4.48-5.63,5.86-2.41,1.39-5.23,2.08-8.44,2.08Zm0-5.23c2.77,0,5-1,6.7-3.02,1.7-2.01,2.55-4.91,2.55-8.71s-.85-6.69-2.55-8.68c-1.7-1.99-3.93-2.98-6.7-2.98s-5.07,.99-6.77,2.98c-1.7,1.99-2.55,4.88-2.55,8.68s.85,6.7,2.55,8.71c1.7,2.01,3.95,3.02,6.77,3.02Z"/>
    <path class="cls-1" d="M337.87,707.9c-2.28,0-3.42-1.14-3.42-3.42v-26.8c0-2.28,1.09-3.42,3.28-3.42s3.28,1.14,3.28,3.42v2.88c.89-2.01,2.24-3.55,4.05-4.62,1.81-1.07,4.01-1.7,6.6-1.88,1.65-.13,2.55,.76,2.68,2.68,.18,1.97-.78,3.04-2.88,3.22l-1.27,.13c-5.94,.58-8.91,3.64-8.91,9.18v15.21c0,2.28-1.14,3.42-3.42,3.42Z"/>
    <path class="cls-1" d="M387.58,708.03c-2.28,0-4.31-.45-6.1-1.34-1.79-.89-3.21-2.1-4.25-3.62-1.05-1.52-1.57-3.24-1.57-5.16,0-2.41,.61-4.31,1.84-5.69,1.23-1.38,3.26-2.39,6.1-3.02,2.84-.62,6.67-.94,11.49-.94h2.28v-1.74c0-2.55-.54-4.38-1.61-5.49-1.07-1.12-2.84-1.68-5.29-1.68-1.43,0-2.91,.18-4.46,.54-1.54,.36-3.14,.96-4.79,1.81-.94,.45-1.71,.51-2.31,.2-.6-.31-1.02-.8-1.24-1.47-.22-.67-.2-1.36,.07-2.08,.27-.71,.83-1.25,1.68-1.61,1.96-.89,3.91-1.55,5.83-1.98,1.92-.42,3.73-.64,5.43-.64,4.47,0,7.77,1.06,9.92,3.18,2.14,2.12,3.22,5.44,3.22,9.95v17.22c0,2.28-1.05,3.42-3.15,3.42s-3.22-1.14-3.22-3.42v-2.48c-.8,1.88-2.06,3.35-3.75,4.42-1.7,1.07-3.73,1.61-6.1,1.61Zm1.34-4.82c2.41,0,4.42-.85,6.03-2.55,1.61-1.7,2.41-3.84,2.41-6.43v-1.81h-2.21c-3.26,0-5.82,.16-7.67,.47-1.85,.31-3.17,.84-3.95,1.57-.78,.74-1.17,1.75-1.17,3.05,0,1.7,.58,3.07,1.74,4.12,1.16,1.05,2.77,1.57,4.82,1.57Z"/>
    <path class="cls-1" d="M434.14,707.9c-2.23,0-3.35-1.14-3.35-3.42v-26.8c0-2.28,1.09-3.42,3.28-3.42s3.28,1.14,3.28,3.42v2.48c1.12-1.96,2.65-3.46,4.59-4.49,1.94-1.03,4.12-1.54,6.53-1.54,7.73,0,11.59,4.38,11.59,13.13v17.22c0,2.28-1.12,3.42-3.35,3.42s-3.42-1.14-3.42-3.42v-16.82c0-2.81-.55-4.87-1.64-6.16-1.1-1.29-2.8-1.94-5.13-1.94-2.73,0-4.9,.86-6.53,2.58-1.63,1.72-2.45,3.99-2.45,6.8v15.54c0,2.28-1.14,3.42-3.42,3.42Z"/>
    <path class="cls-1" d="M484.73,708.03c-5.36,0-9.58-1.51-12.66-4.52s-4.62-7.14-4.62-12.36c0-3.35,.68-6.31,2.04-8.88,1.36-2.57,3.25-4.57,5.66-6,2.41-1.43,5.18-2.14,8.31-2.14,4.51,0,8.06,1.44,10.65,4.32,2.59,2.88,3.89,6.85,3.89,11.89,0,1.52-.89,2.28-2.68,2.28h-21.31c.49,6.79,4.09,10.18,10.79,10.18,1.34,0,2.75-.17,4.22-.5,1.47-.33,2.9-.95,4.29-1.84,.94-.54,1.75-.73,2.45-.57,.69,.16,1.19,.54,1.51,1.14,.31,.6,.37,1.27,.17,2.01-.2,.74-.73,1.37-1.57,1.91-1.52,1.03-3.29,1.8-5.33,2.31-2.03,.51-3.96,.77-5.8,.77Zm-1-29.15c-2.81,0-5.05,.87-6.7,2.61-1.65,1.74-2.66,4.07-3.02,6.97h18.29c-.13-3.04-.94-5.39-2.41-7.07-1.47-1.68-3.53-2.51-6.16-2.51Z"/>
    <path class="cls-1" d="M516.82,707.9c-1.97,0-3.33-.98-4.09-2.95l-9.85-26.06c-.54-1.34-.53-2.45,.03-3.32,.56-.87,1.51-1.31,2.85-1.31,.8,0,1.45,.19,1.94,.57,.49,.38,.94,1.11,1.34,2.18l7.97,22.51,8.31-22.78c.62-1.65,1.74-2.48,3.35-2.48s2.77,.83,3.35,2.48l8.17,22.91,8.17-22.78c.36-1.03,.81-1.72,1.37-2.08,.56-.36,1.19-.54,1.91-.54,1.34,0,2.2,.47,2.58,1.41,.38,.94,.34,2.01-.1,3.22l-9.85,26.06c-.8,1.97-2.14,2.95-4.02,2.95-2.01,0-3.37-.98-4.09-2.95l-7.71-20.9-7.64,20.9c-.72,1.97-2.06,2.95-4.02,2.95Z"/>
    <path class="cls-1" d="M582.61,707.9c-2.23,0-3.35-1.14-3.35-3.42v-26.8c0-2.28,1.09-3.42,3.28-3.42s3.28,1.14,3.28,3.42v2.48c1.12-1.96,2.65-3.46,4.59-4.49,1.94-1.03,4.12-1.54,6.53-1.54,7.73,0,11.59,4.38,11.59,13.13v17.22c0,2.28-1.12,3.42-3.35,3.42s-3.42-1.14-3.42-3.42v-16.82c0-2.81-.55-4.87-1.64-6.16-1.1-1.29-2.8-1.94-5.13-1.94-2.72,0-4.9,.86-6.53,2.58-1.63,1.72-2.45,3.99-2.45,6.8v15.54c0,2.28-1.14,3.42-3.42,3.42Z"/>
    <path class="cls-1" d="M629.51,708.03c-7.91,0-11.86-4.4-11.86-13.2v-17.15c0-2.28,1.12-3.42,3.35-3.42s3.42,1.14,3.42,3.42v17.22c0,2.64,.54,4.58,1.61,5.83,1.07,1.25,2.77,1.88,5.09,1.88,2.55,0,4.61-.85,6.2-2.55,1.58-1.7,2.38-3.98,2.38-6.83v-15.54c0-2.28,1.14-3.42,3.42-3.42s3.35,1.14,3.35,3.42v26.8c0,2.28-1.1,3.42-3.28,3.42s-3.28-1.14-3.28-3.42v-2.28c-1.07,1.92-2.5,3.37-4.29,4.35-1.79,.98-3.82,1.47-6.1,1.47Z"/>
    <path class="cls-1" d="M659.46,707.9c-2.23,0-3.35-1.14-3.35-3.42v-26.8c0-2.28,1.09-3.42,3.28-3.42s3.28,1.14,3.28,3.42v2.35c.98-1.88,2.34-3.33,4.09-4.35,1.74-1.03,3.77-1.54,6.1-1.54,5,0,8.24,2.19,9.72,6.57,1.03-2.05,2.5-3.66,4.42-4.82,1.92-1.16,4.11-1.74,6.57-1.74,7.33,0,10.99,4.38,10.99,13.13v17.22c0,2.28-1.14,3.42-3.42,3.42s-3.35-1.14-3.35-3.42v-16.88c0-2.77-.48-4.8-1.44-6.1-.96-1.29-2.54-1.94-4.72-1.94-2.46,0-4.4,.86-5.83,2.58-1.43,1.72-2.14,4.05-2.14,7v15.34c0,2.28-1.12,3.42-3.35,3.42s-3.42-1.14-3.42-3.42v-16.88c0-2.77-.47-4.8-1.41-6.1-.94-1.29-2.5-1.94-4.69-1.94-2.46,0-4.39,.86-5.8,2.58-1.41,1.72-2.11,4.05-2.11,7v15.34c0,2.28-1.14,3.42-3.42,3.42Z"/>
    <path class="cls-1" d="M731.55,708.03c-2.46,0-4.65-.55-6.57-1.64-1.92-1.09-3.37-2.58-4.36-4.46v2.55c0,2.28-1.09,3.42-3.28,3.42s-3.35-1.14-3.35-3.42v-41.34c0-2.28,1.12-3.42,3.35-3.42s3.42,1.14,3.42,3.42v16.88c.98-1.79,2.42-3.22,4.32-4.29,1.9-1.07,4.05-1.61,6.46-1.61,2.9,0,5.44,.69,7.6,2.08,2.17,1.39,3.84,3.34,5.03,5.86,1.18,2.52,1.78,5.53,1.78,9.01s-.59,6.5-1.78,9.04c-1.18,2.55-2.86,4.5-5.03,5.86-2.17,1.36-4.7,2.04-7.6,2.04Zm-1.67-5.23c2.81,0,5.06-1,6.73-3.02,1.68-2.01,2.51-4.91,2.51-8.71s-.84-6.69-2.51-8.68c-1.67-1.99-3.92-2.98-6.73-2.98s-5.06,.99-6.73,2.98c-1.67,1.99-2.51,4.88-2.51,8.68s.84,6.7,2.51,8.71c1.67,2.01,3.92,3.02,6.73,3.02Z"/>
    <path class="cls-1" d="M768.94,708.03c-5.36,0-9.58-1.51-12.66-4.52-3.08-3.02-4.62-7.14-4.62-12.36,0-3.35,.68-6.31,2.04-8.88,1.36-2.57,3.25-4.57,5.66-6,2.41-1.43,5.18-2.14,8.31-2.14,4.51,0,8.06,1.44,10.65,4.32,2.59,2.88,3.89,6.85,3.89,11.89,0,1.52-.89,2.28-2.68,2.28h-21.31c.49,6.79,4.09,10.18,10.79,10.18,1.34,0,2.75-.17,4.22-.5,1.47-.33,2.9-.95,4.29-1.84,.94-.54,1.75-.73,2.45-.57,.69,.16,1.2,.54,1.51,1.14s.37,1.27,.17,2.01c-.2,.74-.73,1.37-1.58,1.91-1.52,1.03-3.29,1.8-5.33,2.31-2.03,.51-3.96,.77-5.8,.77Zm-1-29.15c-2.81,0-5.05,.87-6.7,2.61-1.65,1.74-2.66,4.07-3.01,6.97h18.29c-.13-3.04-.94-5.39-2.41-7.07-1.47-1.68-3.53-2.51-6.16-2.51Z"/>
    <path class="cls-1" d="M792.99,707.9c-2.28,0-3.42-1.14-3.42-3.42v-26.8c0-2.28,1.09-3.42,3.28-3.42s3.28,1.14,3.28,3.42v2.88c.89-2.01,2.24-3.55,4.05-4.62,1.81-1.07,4.01-1.7,6.6-1.88,1.65-.13,2.55,.76,2.68,2.68,.18,1.97-.78,3.04-2.88,3.22l-1.27,.13c-5.94,.58-8.91,3.64-8.91,9.18v15.21c0,2.28-1.14,3.42-3.42,3.42Z"/>
  </g>
</svg>