<?xml version="1.0" encoding="UTF-8"?><svg id="a" xmlns="http://www.w3.org/2000/svg" viewBox="0 0 1080 2272"><defs><style>.b{letter-spacing:0em;}.c{letter-spacing:0em;}.d{letter-spacing:0em;}.e{fill:#9f58f2;}.f{font-size:152px;}.f,.g,.h,.i,.j{fill:#fff;}.f,.g,.i,.j{font-family:Nunito-SemiBold, Nunito;}.k{letter-spacing:0em;}.l{letter-spacing:-.01em;}.m{letter-spacing:0em;}.n{fill:#2b324d;}.o{letter-spacing:0em;}.g{font-size:145px;}.h{font-family:Nunito-Bold, Nunito;font-size:71px;}.p{letter-spacing:0em;}.i{font-size:67px;}.i,.j{opacity:.5;}.q{fill:#0c0414;}.r{fill:none;}.s{letter-spacing:0em;}.t{letter-spacing:0em;}.u{letter-spacing:0em;}.v{letter-spacing:0em;}.j{font-size:68px;}.w{letter-spacing:0em;}.x{letter-spacing:0em;}.y{letter-spacing:-.01em;}.a`{fill:#22283d;}.aa{letter-spacing:.03em;}</style></defs><rect class="q" width="1080" height="2272" rx="100" ry="100"/><text class="g" transform="translate(285.54 292.74)"><tspan class="o" x="0" y="0">r</tspan><tspan x="53.36" y="0">andom</tspan><tspan x="-.65" y="201">number</tspan></text><path class="r" d="M834.66,1937.44h166.6v166.6h-166.6v-166.6Z"/><path class="r" d="M709.61,2009.33h24v24h-24v-24Z"/><text class="f" transform="translate(402.96 1273.84)"><tspan x="0" y="0">792</tspan></text><path class="n" d="M527.5,1715v158H150.5c-30.33,0-55-24.67-55-55v-48c0-30.33,24.67-55,55-55h377m5-5H150.5c-33.14,0-60,26.86-60,60v48c0,33.14,26.86,60,60,60h382v-168h0Z"/><text class="h" transform="translate(116.5 1821.74)"><tspan x="0" y="0">250</tspan></text><path class="r" d="M470.5,1542h138v138h-138v-138Z"/><g><path class="a`" d="M549,1875.5v-163h379.5c31.71,0,57.5,25.79,57.5,57.5v48c0,31.71-25.79,57.5-57.5,57.5h-379.5Z"/><path class="e" d="M928.5,1715c30.33,0,55,24.67,55,55v48c0,30.33-24.67,55-55,55h-377v-158h377m0-5h-382v168h382c33.14,0,60-26.86,60-60v-48c0-33.14-26.86-60-60-60h0Z"/></g><text class="h" transform="translate(573.85 1821.24)"><tspan x="0" y="0">999</tspan></text><text class="j" transform="translate(156.63 2015.57)"><tspan x="0" y="0">al</tspan><tspan class="m" x="57.32" y="0">l</tspan><tspan class="w" x="77.79" y="0">o</tspan><tspan class="x" x="115.6" y="0">w </tspan><tspan class="t" x="191.08" y="0">r</tspan><tspan x="215.97" y="0">epea</tspan><tspan class="p" x="365.7" y="0">t</tspan><tspan class="u" x="390.18" y="0">ed </tspan><tspan class="b" x="484.83" y="0">r</tspan><tspan x="509.72" y="0">esu</tspan><tspan class="y" x="617.84" y="0">l</tspan><tspan x="637.9" y="0">ts</tspan></text><path class="e" d="M916.81,1963.17h-38.89c-3.06,0-5.56,2.5-5.56,5.56v38.89c0,3.06,2.5,5.56,5.56,5.56h38.89c3.06,0,5.56-2.5,5.56-5.56v-38.89c0-3.06-2.5-5.56-5.56-5.56Zm-23.03,36.92c-1.08,1.08-2.83,1.08-3.92,0l-9.97-9.97c-1.08-1.08-1.08-2.83,0-3.92,1.08-1.08,2.83-1.08,3.92,0l8,8,19.11-19.11c1.08-1.08,2.83-1.08,3.92,0s1.08,2.83,0,3.92l-21.06,21.08Z"/><text class="i" transform="translate(115.5 613.43)"><tspan x="0" y="0">tap a</tspan><tspan class="k" x="153.69" y="0">n</tspan><tspan class="aa" x="191.95" y="0">y</tspan><tspan x="228.67" y="0">whe</tspan><tspan class="v" x="359.92" y="0">r</tspan><tspan x="384.44" y="0">e on </tspan><tspan class="d" x="532.24" y="0">t</tspan><tspan class="c" x="557.29" y="0">he sc</tspan><tspan class="s" x="713.27" y="0">r</tspan><tspan x="737.79" y="0">een</tspan><tspan class="l" x="154.03" y="94">f</tspan><tspan x="176.34" y="94">or a n</tspan><tspan class="v" x="349.13" y="94">e</tspan><tspan x="384.64" y="94">w number</tspan></text></svg>