<?xml version="1.0" encoding="utf-8"?>
<!-- Generator: Adobe Illustrator 26.1.0, SVG Export Plug-In . SVG Version: 6.00 Build 0)  -->
<svg version="1.1" id="a" xmlns="http://www.w3.org/2000/svg" xmlns:xlink="http://www.w3.org/1999/xlink" x="0px" y="0px"
	 viewBox="0 0 1000 1000" style="enable-background:new 0 0 1000 1000;" xml:space="preserve">
<style type="text/css">
	.st0{fill:#313957;}
	.st1{fill:none;}
	.st2{fill:#FFFFFF;}
</style>
<path class="st0" d="M800.5,1000h-600c-110.5,0-200-89.5-200-200V200C0.5,89.5,90,0,200.5,0h600c110.5,0,200,89.5,200,200v600
	C1000.5,910.5,911,1000,800.5,1000z"/>
<path class="st1" d="M0,0h1000v1000H0V0z"/>
<path class="st2" d="M370,414.2l22.1,22.1c12.1,12.1,32.1,12.1,44.2,0c12.1-12.1,12.1-32.1,0-44.2l-36.7-36.7
	c-16.2-16.2-42.5-16.2-58.8,0l-37.1,36.7c-12.1,12.1-12.1,32.1,0,44.2c12.1,12.1,32.1,12.1,44.2,0L370,414.2L370,414.2z M500,729.2
	c84.6,0,158.3-46.2,197.9-114.6c7.9-13.8-2.1-31.2-18.3-31.2H320.4c-15.8,0-26.2,17.5-18.3,31.2C341.7,682.9,415.4,729.2,500,729.2
	L500,729.2z M563.8,436.3c12.1,12.1,32.1,12.1,44.2,0l22.1-22.1l22.1,22.1c12.1,12.1,32.1,12.1,44.2,0c12.1-12.1,12.1-32.1,0-44.2
	l-36.7-36.7c-16.2-16.2-42.5-16.2-58.8,0l-36.7,36.7C551.7,404.2,551.7,424.2,563.8,436.3L563.8,436.3z M499.6,83.3
	c-230,0-416.2,186.3-416.2,416.7s186.2,416.7,416.2,416.7S916.7,730.4,916.7,500S730,83.3,499.6,83.3z M500,833.3
	c-184.2,0-333.3-149.2-333.3-333.3S315.8,166.7,500,166.7S833.3,315.8,833.3,500S684.2,833.3,500,833.3L500,833.3z"/>
</svg>
