<?xml version="1.0" encoding="UTF-8"?>
<svg id="Time_Remaining_Calculator" data-name="Time Remaining Calculator" xmlns="http://www.w3.org/2000/svg" xmlns:xlink="http://www.w3.org/1999/xlink" viewBox="0 0 1080 2272">
  <defs>
    <style>
      .cls-1 {
        fill: #fff;
      }

      .cls-2 {
        opacity: .5;
      }

      .cls-3, .cls-4 {
        fill: #9f58f2;
      }

      .cls-5 {
        fill: #0c0414;
      }

      .cls-4 {
        filter: url(#drop-shadow-1);
      }

      .cls-6 {
        fill: #22283d;
      }
    </style>
    <filter id="drop-shadow-1" filterUnits="userSpaceOnUse">
      <feOffset dx="4" dy="4"/>
      <feGaussianBlur result="blur" stdDeviation="5"/>
      <feFlood flood-color="#000" flood-opacity="1"/>
      <feComposite in2="blur" operator="in"/>
      <feComposite in="SourceGraphic"/>
    </filter>
  </defs>
  <rect id="Background" class="cls-5" width="1080" height="2272" rx="100" ry="100"/>
  <g>
    <path class="cls-1" d="M443.28,282.94c-8.16,0-14.23-2.08-18.22-6.25-3.99-4.17-5.99-10.2-5.99-18.09v-31.39h-7.98c-3.72,0-5.59-1.73-5.59-5.19s1.86-5.19,5.59-5.19h7.98v-13.7c0-4.52,2.26-6.78,6.78-6.78s6.65,2.26,6.65,6.78v13.7h15.56c3.72,0,5.59,1.73,5.59,5.19s-1.86,5.19-5.59,5.19h-15.56v30.32c0,4.7,1,8.25,2.99,10.64,1.99,2.39,5.25,3.59,9.78,3.59,1.6,0,2.97-.15,4.12-.47,1.15-.31,2.17-.51,3.06-.6,.97,0,1.77,.33,2.39,1,.62,.67,.93,1.93,.93,3.79,0,1.42-.25,2.68-.73,3.79-.49,1.11-1.35,1.84-2.59,2.19-1.06,.44-2.51,.8-4.32,1.06-1.82,.27-3.44,.4-4.85,.4Z"/>
    <path class="cls-1" d="M472,202.34c-2.66,0-4.72-.67-6.18-2-1.46-1.33-2.19-3.19-2.19-5.59,0-5.05,2.79-7.58,8.38-7.58s8.38,2.53,8.38,7.58-2.79,7.58-8.38,7.58Zm0,80.2c-4.43,0-6.65-2.44-6.65-7.31v-51.87c0-4.79,2.22-7.18,6.65-7.18s6.78,2.39,6.78,7.18v51.87c0,4.88-2.26,7.31-6.78,7.31Z"/>
    <path class="cls-1" d="M504.59,282.67c-4.43,0-6.65-2.26-6.65-6.78v-53.2c0-4.52,2.17-6.78,6.52-6.78s6.52,2.26,6.52,6.78v4.65c1.95-3.72,4.65-6.6,8.11-8.65,3.46-2.04,7.49-3.06,12.1-3.06,9.93,0,16.36,4.35,19.29,13.03,2.04-4.08,4.96-7.27,8.78-9.58,3.81-2.3,8.16-3.46,13.03-3.46,14.54,0,21.81,8.69,21.81,26.07v34.18c0,4.52-2.26,6.78-6.78,6.78s-6.65-2.26-6.65-6.78v-33.52c0-5.5-.95-9.53-2.86-12.1-1.91-2.57-5.03-3.86-9.38-3.86-4.88,0-8.73,1.71-11.57,5.12-2.84,3.41-4.26,8.05-4.26,13.9v30.46c0,4.52-2.22,6.78-6.65,6.78s-6.78-2.26-6.78-6.78v-33.52c0-5.5-.93-9.53-2.79-12.1-1.86-2.57-4.97-3.86-9.31-3.86-4.88,0-8.71,1.71-11.5,5.12-2.79,3.41-4.19,8.05-4.19,13.9v30.46c0,4.52-2.26,6.78-6.78,6.78Z"/>
    <path class="cls-1" d="M643.31,282.94c-10.64,0-19.02-2.99-25.14-8.98-6.12-5.99-9.18-14.16-9.18-24.54,0-6.65,1.35-12.52,4.06-17.62,2.7-5.1,6.45-9.06,11.24-11.9,4.79-2.84,10.29-4.26,16.49-4.26,8.96,0,16,2.86,21.15,8.58,5.14,5.72,7.71,13.59,7.71,23.61,0,3.02-1.78,4.52-5.32,4.52h-42.29c.97,13.48,8.11,20.22,21.41,20.22,2.66,0,5.45-.33,8.38-1s5.76-1.88,8.51-3.66c1.86-1.06,3.48-1.44,4.85-1.13,1.37,.31,2.37,1.06,2.99,2.26,.62,1.2,.73,2.53,.33,3.99s-1.44,2.73-3.13,3.79c-3.01,2.04-6.54,3.57-10.57,4.59-4.04,1.02-7.87,1.53-11.5,1.53Zm-2-57.85c-5.59,0-10.02,1.73-13.3,5.19-3.28,3.46-5.28,8.07-5.99,13.83h36.31c-.27-6.03-1.86-10.71-4.79-14.03-2.93-3.33-7-4.99-12.24-4.99Z"/>
    <path class="cls-1" d="M254.95,400.67c-4.52,0-6.78-2.26-6.78-6.78v-53.2c0-4.52,2.17-6.78,6.52-6.78s6.52,2.26,6.52,6.78v5.72c1.77-3.99,4.46-7.05,8.05-9.18,3.59-2.13,7.96-3.37,13.1-3.72,3.28-.27,5.05,1.51,5.32,5.32,.35,3.9-1.55,6.03-5.72,6.38l-2.53,.27c-11.79,1.15-17.69,7.23-17.69,18.22v30.19c0,4.52-2.26,6.78-6.78,6.78Z"/>
    <path class="cls-1" d="M327.3,400.94c-10.64,0-19.02-2.99-25.14-8.98-6.12-5.99-9.18-14.16-9.18-24.54,0-6.65,1.35-12.52,4.06-17.62,2.7-5.1,6.45-9.06,11.24-11.9,4.79-2.84,10.28-4.26,16.49-4.26,8.95,0,16,2.86,21.15,8.58,5.14,5.72,7.71,13.59,7.71,23.61,0,3.02-1.77,4.52-5.32,4.52h-42.29c.97,13.48,8.11,20.22,21.41,20.22,2.66,0,5.45-.33,8.38-1,2.93-.67,5.76-1.88,8.51-3.66,1.86-1.06,3.48-1.44,4.85-1.13,1.37,.31,2.37,1.06,2.99,2.26,.62,1.2,.73,2.53,.33,3.99s-1.44,2.73-3.13,3.79c-3.02,2.04-6.54,3.57-10.57,4.59-4.04,1.02-7.87,1.53-11.5,1.53Zm-2-57.85c-5.59,0-10.02,1.73-13.3,5.19-3.28,3.46-5.28,8.07-5.98,13.83h36.31c-.27-6.03-1.86-10.71-4.79-14.03-2.93-3.33-7.01-4.99-12.24-4.99Z"/>
    <path class="cls-1" d="M375.18,400.67c-4.43,0-6.65-2.26-6.65-6.78v-53.2c0-4.52,2.17-6.78,6.52-6.78s6.52,2.26,6.52,6.78v4.65c1.95-3.72,4.65-6.6,8.11-8.65,3.46-2.04,7.49-3.06,12.1-3.06,9.93,0,16.36,4.35,19.29,13.03,2.04-4.08,4.96-7.27,8.78-9.58,3.81-2.3,8.16-3.46,13.03-3.46,14.54,0,21.81,8.69,21.81,26.07v34.18c0,4.52-2.26,6.78-6.78,6.78s-6.65-2.26-6.65-6.78v-33.52c0-5.5-.95-9.53-2.86-12.1-1.91-2.57-5.03-3.86-9.38-3.86-4.88,0-8.73,1.71-11.57,5.12-2.84,3.41-4.26,8.05-4.26,13.9v30.46c0,4.52-2.22,6.78-6.65,6.78s-6.78-2.26-6.78-6.78v-33.52c0-5.5-.93-9.53-2.79-12.1-1.86-2.57-4.97-3.86-9.31-3.86-4.88,0-8.71,1.71-11.5,5.12-2.79,3.41-4.19,8.05-4.19,13.9v30.46c0,4.52-2.26,6.78-6.78,6.78Z"/>
    <path class="cls-1" d="M504.19,400.94c-4.52,0-8.56-.89-12.1-2.66-3.55-1.77-6.36-4.17-8.45-7.18-2.08-3.01-3.13-6.43-3.13-10.24,0-4.79,1.22-8.56,3.66-11.3,2.44-2.75,6.47-4.74,12.1-5.98,5.63-1.24,13.23-1.86,22.81-1.86h4.52v-3.46c0-5.05-1.06-8.69-3.19-10.91-2.13-2.22-5.63-3.33-10.51-3.33-2.84,0-5.79,.36-8.84,1.06-3.06,.71-6.23,1.91-9.51,3.59-1.86,.89-3.39,1.02-4.59,.4-1.2-.62-2.02-1.6-2.46-2.93-.44-1.33-.4-2.7,.13-4.12,.53-1.42,1.64-2.48,3.32-3.19,3.9-1.77,7.76-3.08,11.57-3.92,3.81-.84,7.4-1.26,10.77-1.26,8.87,0,15.43,2.11,19.68,6.32,4.26,4.21,6.38,10.8,6.38,19.75v34.18c0,4.52-2.08,6.78-6.25,6.78s-6.38-2.26-6.38-6.78v-4.92c-1.6,3.72-4.08,6.65-7.45,8.78-3.37,2.13-7.4,3.19-12.1,3.19Zm2.66-9.58c4.79,0,8.78-1.68,11.97-5.05,3.19-3.37,4.79-7.62,4.79-12.77v-3.59h-4.39c-6.47,0-11.55,.31-15.23,.93-3.68,.62-6.3,1.66-7.85,3.13-1.55,1.46-2.33,3.48-2.33,6.05,0,3.37,1.15,6.1,3.46,8.18,2.3,2.08,5.5,3.13,9.58,3.13Z"/>
    <path class="cls-1" d="M561.51,320.34c-2.66,0-4.72-.67-6.18-2-1.46-1.33-2.2-3.19-2.2-5.59,0-5.05,2.79-7.58,8.38-7.58s8.38,2.53,8.38,7.58-2.79,7.58-8.38,7.58Zm0,80.2c-4.43,0-6.65-2.44-6.65-7.31v-51.87c0-4.79,2.21-7.18,6.65-7.18s6.78,2.39,6.78,7.18v51.87c0,4.88-2.26,7.31-6.78,7.31Z"/>
    <path class="cls-1" d="M593.83,400.67c-4.43,0-6.65-2.26-6.65-6.78v-53.2c0-4.52,2.17-6.78,6.52-6.78s6.52,2.26,6.52,6.78v4.92c2.22-3.9,5.25-6.87,9.11-8.91,3.86-2.04,8.18-3.06,12.97-3.06,15.34,0,23.01,8.69,23.01,26.07v34.18c0,4.52-2.22,6.78-6.65,6.78s-6.78-2.26-6.78-6.78v-33.38c0-5.59-1.09-9.66-3.26-12.24-2.17-2.57-5.56-3.86-10.17-3.86-5.41,0-9.73,1.71-12.97,5.12-3.24,3.41-4.85,7.91-4.85,13.5v30.86c0,4.52-2.26,6.78-6.78,6.78Z"/>
    <path class="cls-1" d="M670.44,320.34c-2.66,0-4.72-.67-6.18-2s-2.19-3.19-2.19-5.59c0-5.05,2.79-7.58,8.38-7.58s8.38,2.53,8.38,7.58-2.79,7.58-8.38,7.58Zm0,80.2c-4.43,0-6.65-2.44-6.65-7.31v-51.87c0-4.79,2.21-7.18,6.65-7.18s6.78,2.39,6.78,7.18v51.87c0,4.88-2.26,7.31-6.78,7.31Z"/>
    <path class="cls-1" d="M702.76,400.67c-4.43,0-6.65-2.26-6.65-6.78v-53.2c0-4.52,2.17-6.78,6.52-6.78s6.52,2.26,6.52,6.78v4.92c2.22-3.9,5.25-6.87,9.11-8.91,3.86-2.04,8.18-3.06,12.97-3.06,15.34,0,23.01,8.69,23.01,26.07v34.18c0,4.52-2.22,6.78-6.65,6.78s-6.78-2.26-6.78-6.78v-33.38c0-5.59-1.09-9.66-3.26-12.24-2.17-2.57-5.56-3.86-10.17-3.86-5.41,0-9.73,1.71-12.97,5.12-3.24,3.41-4.85,7.91-4.85,13.5v30.86c0,4.52-2.26,6.78-6.78,6.78Z"/>
    <path class="cls-1" d="M802.11,424.88c-4.79,0-9.42-.49-13.9-1.46-4.48-.98-8.54-2.57-12.17-4.79-1.6-.89-2.57-2-2.93-3.33-.36-1.33-.2-2.62,.47-3.86,.67-1.24,1.6-2.15,2.79-2.73,1.2-.58,2.5-.47,3.92,.33,3.9,2.13,7.6,3.57,11.11,4.32,3.5,.75,6.76,1.13,9.78,1.13,12.41,0,18.62-6.21,18.62-18.62v-10.24c-1.86,3.9-4.77,6.96-8.71,9.18-3.95,2.22-8.36,3.32-13.23,3.32-5.85,0-10.95-1.35-15.29-4.06-4.35-2.7-7.71-6.47-10.11-11.31-2.39-4.83-3.59-10.48-3.59-16.96s1.2-11.99,3.59-16.82c2.39-4.83,5.76-8.6,10.11-11.31,4.34-2.7,9.44-4.06,15.29-4.06,4.88,0,9.24,1.09,13.1,3.26,3.86,2.17,6.72,5.12,8.58,8.84v-5.05c0-4.52,2.22-6.78,6.65-6.78s6.65,2.26,6.65,6.78v53.6c0,10.2-2.62,17.84-7.85,22.94-5.23,5.1-12.86,7.65-22.88,7.65Zm-1.06-37.24c5.67,0,10.19-1.95,13.57-5.85,3.37-3.9,5.05-9.22,5.05-15.96s-1.68-12.04-5.05-15.89c-3.37-3.86-7.89-5.79-13.57-5.79s-10.2,1.93-13.57,5.79c-3.37,3.86-5.05,9.16-5.05,15.89s1.68,12.06,5.05,15.96c3.37,3.9,7.89,5.85,13.57,5.85Z"/>
    <path class="cls-1" d="M280.75,518.94c-6.65,0-12.39-1.4-17.22-4.19-4.83-2.79-8.58-6.74-11.24-11.84-2.66-5.1-3.99-11.11-3.99-18.02,0-10.28,2.93-18.4,8.78-24.34,5.85-5.94,13.74-8.91,23.67-8.91,3.1,0,6.36,.47,9.78,1.4,3.41,.93,6.58,2.46,9.51,4.59,1.42,.89,2.24,2.02,2.46,3.39,.22,1.38,0,2.66-.67,3.86-.67,1.2-1.62,2-2.86,2.39-1.24,.4-2.66,.16-4.26-.73-2.13-1.51-4.3-2.59-6.52-3.26-2.22-.67-4.35-1-6.38-1-6.3,0-11.15,1.97-14.56,5.92-3.41,3.95-5.12,9.56-5.12,16.82s1.71,12.97,5.12,17.09c3.41,4.12,8.27,6.18,14.56,6.18,2.04,0,4.14-.31,6.32-.93,2.17-.62,4.37-1.68,6.58-3.19,1.6-.89,2.99-1.11,4.19-.67,1.2,.44,2.08,1.26,2.66,2.46,.58,1.2,.75,2.48,.53,3.86-.22,1.38-1.04,2.51-2.46,3.39-2.84,2.04-5.92,3.5-9.24,4.39-3.33,.89-6.54,1.33-9.64,1.33Z"/>
    <path class="cls-1" d="M334.49,518.94c-4.52,0-8.56-.89-12.1-2.66-3.55-1.77-6.36-4.17-8.45-7.18-2.08-3.01-3.13-6.43-3.13-10.24,0-4.79,1.22-8.56,3.66-11.3,2.44-2.75,6.47-4.74,12.1-5.98,5.63-1.24,13.23-1.86,22.81-1.86h4.52v-3.46c0-5.05-1.06-8.69-3.19-10.91-2.13-2.22-5.63-3.33-10.51-3.33-2.84,0-5.79,.36-8.84,1.06-3.06,.71-6.23,1.91-9.51,3.59-1.86,.89-3.39,1.02-4.59,.4-1.2-.62-2.02-1.6-2.46-2.93-.44-1.33-.4-2.7,.13-4.12,.53-1.42,1.64-2.48,3.32-3.19,3.9-1.77,7.76-3.08,11.57-3.92,3.81-.84,7.4-1.26,10.77-1.26,8.87,0,15.43,2.11,19.68,6.32,4.26,4.21,6.38,10.8,6.38,19.75v34.18c0,4.52-2.08,6.78-6.25,6.78s-6.38-2.26-6.38-6.78v-4.92c-1.6,3.72-4.08,6.65-7.45,8.78-3.37,2.13-7.4,3.19-12.1,3.19Zm2.66-9.58c4.79,0,8.78-1.68,11.97-5.05,3.19-3.37,4.79-7.62,4.79-12.77v-3.59h-4.39c-6.47,0-11.55,.31-15.23,.93-3.68,.62-6.3,1.66-7.85,3.13-1.55,1.46-2.33,3.48-2.33,6.05,0,3.37,1.15,6.1,3.46,8.18,2.3,2.08,5.5,3.13,9.58,3.13Z"/>
    <path class="cls-1" d="M406.04,518.94c-6.92,0-12.13-1.99-15.63-5.98-3.5-3.99-5.25-9.84-5.25-17.56v-65.57c0-4.52,2.22-6.78,6.65-6.78s6.78,2.26,6.78,6.78v64.77c0,8.78,3.55,13.17,10.64,13.17,.8,0,1.51-.04,2.13-.13,.62-.09,1.24-.13,1.86-.13,1.06-.09,1.82,.2,2.26,.86,.44,.67,.67,2.02,.67,4.06,0,3.64-1.69,5.72-5.05,6.25-.89,.09-1.75,.15-2.59,.2-.84,.04-1.66,.07-2.46,.07Z"/>
    <path class="cls-1" d="M453.79,518.94c-6.65,0-12.39-1.4-17.22-4.19-4.83-2.79-8.58-6.74-11.24-11.84-2.66-5.1-3.99-11.11-3.99-18.02,0-10.28,2.93-18.4,8.78-24.34,5.85-5.94,13.74-8.91,23.67-8.91,3.1,0,6.36,.47,9.78,1.4,3.41,.93,6.58,2.46,9.51,4.59,1.42,.89,2.24,2.02,2.46,3.39,.22,1.38,0,2.66-.67,3.86-.67,1.2-1.62,2-2.86,2.39-1.24,.4-2.66,.16-4.26-.73-2.13-1.51-4.3-2.59-6.52-3.26-2.22-.67-4.35-1-6.38-1-6.3,0-11.15,1.97-14.56,5.92-3.41,3.95-5.12,9.56-5.12,16.82s1.71,12.97,5.12,17.09c3.41,4.12,8.27,6.18,14.56,6.18,2.04,0,4.14-.31,6.32-.93,2.17-.62,4.37-1.68,6.58-3.19,1.6-.89,2.99-1.11,4.19-.67,1.2,.44,2.08,1.26,2.66,2.46,.58,1.2,.75,2.48,.53,3.86-.22,1.38-1.04,2.51-2.46,3.39-2.84,2.04-5.92,3.5-9.24,4.39-3.33,.89-6.54,1.33-9.64,1.33Z"/>
    <path class="cls-1" d="M510.44,518.94c-15.69,0-23.54-8.73-23.54-26.2v-34.05c0-4.52,2.22-6.78,6.65-6.78s6.78,2.26,6.78,6.78v34.18c0,5.23,1.06,9.09,3.19,11.57,2.13,2.48,5.5,3.72,10.11,3.72,5.05,0,9.15-1.68,12.3-5.05,3.15-3.37,4.72-7.89,4.72-13.57v-30.86c0-4.52,2.26-6.78,6.78-6.78s6.65,2.26,6.65,6.78v53.2c0,4.52-2.17,6.78-6.52,6.78s-6.52-2.26-6.52-6.78v-4.52c-2.13,3.81-4.97,6.7-8.51,8.65-3.55,1.95-7.58,2.93-12.1,2.93Z"/>
    <path class="cls-1" d="M583.86,518.94c-6.92,0-12.13-1.99-15.63-5.98-3.5-3.99-5.25-9.84-5.25-17.56v-65.57c0-4.52,2.21-6.78,6.65-6.78s6.78,2.26,6.78,6.78v64.77c0,8.78,3.54,13.17,10.64,13.17,.8,0,1.51-.04,2.13-.13,.62-.09,1.24-.13,1.86-.13,1.06-.09,1.82,.2,2.26,.86,.44,.67,.67,2.02,.67,4.06,0,3.64-1.68,5.72-5.05,6.25-.89,.09-1.75,.15-2.59,.2-.84,.04-1.66,.07-2.46,.07Z"/>
    <path class="cls-1" d="M624.42,518.94c-4.52,0-8.56-.89-12.1-2.66-3.55-1.77-6.36-4.17-8.45-7.18-2.08-3.01-3.13-6.43-3.13-10.24,0-4.79,1.22-8.56,3.66-11.3,2.44-2.75,6.47-4.74,12.1-5.98,5.63-1.24,13.23-1.86,22.81-1.86h4.52v-3.46c0-5.05-1.06-8.69-3.19-10.91-2.13-2.22-5.63-3.33-10.51-3.33-2.84,0-5.79,.36-8.84,1.06-3.06,.71-6.23,1.91-9.51,3.59-1.86,.89-3.39,1.02-4.59,.4-1.2-.62-2.02-1.6-2.46-2.93-.44-1.33-.4-2.7,.13-4.12,.53-1.42,1.64-2.48,3.33-3.19,3.9-1.77,7.76-3.08,11.57-3.92,3.81-.84,7.4-1.26,10.77-1.26,8.87,0,15.43,2.11,19.68,6.32,4.26,4.21,6.38,10.8,6.38,19.75v34.18c0,4.52-2.08,6.78-6.25,6.78s-6.38-2.26-6.38-6.78v-4.92c-1.6,3.72-4.08,6.65-7.45,8.78-3.37,2.13-7.4,3.19-12.1,3.19Zm2.66-9.58c4.79,0,8.78-1.68,11.97-5.05,3.19-3.37,4.79-7.62,4.79-12.77v-3.59h-4.39c-6.47,0-11.55,.31-15.23,.93-3.68,.62-6.3,1.66-7.85,3.13-1.55,1.46-2.33,3.48-2.33,6.05,0,3.37,1.15,6.1,3.46,8.18,2.3,2.08,5.5,3.13,9.58,3.13Z"/>
    <path class="cls-1" d="M702.76,518.94c-8.16,0-14.23-2.08-18.22-6.25-3.99-4.17-5.98-10.2-5.98-18.09v-31.39h-7.98c-3.72,0-5.59-1.73-5.59-5.19s1.86-5.19,5.59-5.19h7.98v-13.7c0-4.52,2.26-6.78,6.78-6.78s6.65,2.26,6.65,6.78v13.7h15.56c3.72,0,5.59,1.73,5.59,5.19s-1.86,5.19-5.59,5.19h-15.56v30.32c0,4.7,1,8.25,2.99,10.64s5.25,3.59,9.78,3.59c1.6,0,2.97-.15,4.12-.47,1.15-.31,2.17-.51,3.06-.6,.97,0,1.77,.33,2.39,1,.62,.67,.93,1.93,.93,3.79,0,1.42-.25,2.68-.73,3.79-.49,1.11-1.35,1.84-2.59,2.19-1.06,.44-2.51,.8-4.32,1.06-1.82,.27-3.44,.4-4.85,.4Z"/>
    <path class="cls-1" d="M751.17,518.94c-6.56,0-12.24-1.37-17.02-4.12-4.79-2.75-8.49-6.63-11.11-11.64-2.62-5.01-3.92-10.97-3.92-17.89s1.31-12.88,3.92-17.89c2.61-5.01,6.32-8.89,11.11-11.64,4.79-2.75,10.46-4.12,17.02-4.12s11.97,1.38,16.76,4.12c4.79,2.75,8.51,6.63,11.17,11.64,2.66,5.01,3.99,10.97,3.99,17.89s-1.33,12.88-3.99,17.89c-2.66,5.01-6.38,8.89-11.17,11.64-4.79,2.75-10.37,4.12-16.76,4.12Zm0-10.37c5.5,0,9.93-2,13.3-5.99,3.37-3.99,5.05-9.75,5.05-17.29s-1.69-13.28-5.05-17.22c-3.37-3.94-7.8-5.92-13.3-5.92s-10.06,1.97-13.43,5.92c-3.37,3.95-5.05,9.69-5.05,17.22s1.68,13.3,5.05,17.29c3.37,3.99,7.85,5.99,13.43,5.99Z"/>
    <path class="cls-1" d="M804.9,518.67c-4.52,0-6.78-2.26-6.78-6.78v-53.2c0-4.52,2.17-6.78,6.52-6.78s6.52,2.26,6.52,6.78v5.72c1.77-3.99,4.46-7.05,8.05-9.18,3.59-2.13,7.96-3.37,13.1-3.72,3.28-.27,5.05,1.51,5.32,5.32,.35,3.9-1.55,6.03-5.72,6.38l-2.53,.27c-11.79,1.15-17.69,7.23-17.69,18.22v30.19c0,4.52-2.26,6.78-6.78,6.78Z"/>
  </g>
  <g class="cls-2">
    <path class="cls-1" d="M345.6,1783.18c-3.4,0-6.34-.71-8.81-2.14-2.47-1.43-4.39-3.44-5.75-6.05-1.36-2.61-2.04-5.68-2.04-9.21,0-5.26,1.5-9.41,4.49-12.44,2.99-3.04,7.03-4.56,12.1-4.56,1.59,0,3.25,.24,5,.71,1.75,.48,3.37,1.26,4.86,2.35,.72,.45,1.14,1.03,1.26,1.73,.11,.7,0,1.36-.34,1.97s-.83,1.02-1.46,1.22c-.64,.2-1.36,.08-2.18-.37-1.09-.77-2.2-1.33-3.33-1.67-1.13-.34-2.22-.51-3.26-.51-3.22,0-5.7,1.01-7.45,3.03-1.75,2.02-2.62,4.88-2.62,8.6s.87,6.63,2.62,8.74c1.74,2.11,4.23,3.16,7.45,3.16,1.04,0,2.12-.16,3.23-.48,1.11-.32,2.23-.86,3.37-1.63,.82-.45,1.53-.57,2.14-.34,.61,.23,1.06,.65,1.36,1.26,.29,.61,.38,1.27,.27,1.97s-.53,1.28-1.26,1.73c-1.45,1.04-3.03,1.79-4.73,2.24-1.7,.45-3.34,.68-4.93,.68Z"/>
    <path class="cls-1" d="M376.47,1783.18c-3.36,0-6.26-.7-8.7-2.11-2.45-1.4-4.34-3.39-5.68-5.95-1.34-2.56-2.01-5.61-2.01-9.15s.67-6.58,2.01-9.15c1.34-2.56,3.23-4.54,5.68-5.95,2.45-1.4,5.35-2.11,8.7-2.11s6.12,.7,8.57,2.11c2.45,1.41,4.35,3.39,5.71,5.95,1.36,2.56,2.04,5.61,2.04,9.15s-.68,6.58-2.04,9.15c-1.36,2.56-3.26,4.55-5.71,5.95-2.45,1.41-5.3,2.11-8.57,2.11Zm0-5.3c2.81,0,5.08-1.02,6.8-3.06,1.72-2.04,2.58-4.99,2.58-8.84s-.86-6.79-2.58-8.81c-1.72-2.02-3.99-3.03-6.8-3.03s-5.15,1.01-6.87,3.03c-1.72,2.02-2.58,4.95-2.58,8.81s.86,6.8,2.58,8.84c1.72,2.04,4.01,3.06,6.87,3.06Z"/>
    <path class="cls-1" d="M404.01,1783.04c-2.27,0-3.4-1.16-3.4-3.47v-27.2c0-2.31,1.11-3.47,3.33-3.47s3.33,1.16,3.33,3.47v2.38c1-1.9,2.38-3.38,4.15-4.42,1.77-1.04,3.83-1.56,6.19-1.56,5.08,0,8.36,2.22,9.86,6.66,1.04-2.08,2.54-3.72,4.49-4.9,1.95-1.18,4.17-1.77,6.66-1.77,7.43,0,11.15,4.44,11.15,13.33v17.48c0,2.31-1.16,3.47-3.47,3.47s-3.4-1.16-3.4-3.47v-17.14c0-2.81-.49-4.87-1.46-6.19-.98-1.31-2.57-1.97-4.79-1.97-2.49,0-4.47,.87-5.92,2.62-1.45,1.75-2.18,4.11-2.18,7.11v15.57c0,2.31-1.13,3.47-3.4,3.47s-3.47-1.16-3.47-3.47v-17.14c0-2.81-.48-4.87-1.43-6.19-.95-1.31-2.54-1.97-4.76-1.97-2.49,0-4.45,.87-5.88,2.62s-2.14,4.11-2.14,7.11v15.57c0,2.31-1.16,3.47-3.47,3.47Z"/>
    <path class="cls-1" d="M462.76,1795.28c-2.27,0-3.4-1.16-3.4-3.47v-39.44c0-2.31,1.11-3.47,3.33-3.47s3.4,1.16,3.4,3.47v2.58c1-1.9,2.47-3.41,4.42-4.52,1.95-1.11,4.17-1.67,6.66-1.67,2.95,0,5.52,.7,7.72,2.11,2.2,1.41,3.9,3.39,5.1,5.95,1.2,2.56,1.8,5.61,1.8,9.15s-.6,6.6-1.8,9.18c-1.2,2.58-2.9,4.57-5.1,5.95s-4.77,2.07-7.72,2.07c-2.45,0-4.64-.53-6.56-1.6-1.93-1.06-3.39-2.53-4.39-4.39v14.62c0,2.31-1.16,3.47-3.47,3.47Zm12.72-17.41c2.86,0,5.13-1.02,6.83-3.06,1.7-2.04,2.55-4.99,2.55-8.84s-.85-6.79-2.55-8.81c-1.7-2.02-3.98-3.03-6.83-3.03s-5.13,1.01-6.83,3.03c-1.7,2.02-2.55,4.95-2.55,8.81s.85,6.8,2.55,8.84c1.7,2.04,3.98,3.06,6.83,3.06Z"/>
    <path class="cls-1" d="M510.23,1783.18c-3.54,0-6.2-1.02-7.99-3.06-1.79-2.04-2.69-5.03-2.69-8.98v-33.52c0-2.31,1.13-3.47,3.4-3.47s3.47,1.16,3.47,3.47v33.12c0,4.49,1.81,6.73,5.44,6.73,.41,0,.77-.02,1.09-.07,.32-.04,.63-.07,.95-.07,.54-.04,.93,.1,1.16,.44,.23,.34,.34,1.03,.34,2.07,0,1.86-.86,2.92-2.58,3.2-.45,.04-.9,.08-1.33,.1-.43,.02-.85,.03-1.26,.03Z"/>
    <path class="cls-1" d="M535.59,1783.18c-5.44,0-9.72-1.53-12.85-4.59-3.13-3.06-4.69-7.24-4.69-12.55,0-3.4,.69-6.4,2.07-9.01,1.38-2.61,3.3-4.63,5.75-6.09,2.45-1.45,5.26-2.18,8.43-2.18,4.58,0,8.18,1.46,10.81,4.39s3.94,6.95,3.94,12.07c0,1.54-.91,2.31-2.72,2.31h-21.62c.5,6.89,4.15,10.34,10.95,10.34,1.36,0,2.79-.17,4.28-.51s2.95-.96,4.35-1.87c.95-.54,1.78-.74,2.48-.58,.7,.16,1.21,.54,1.53,1.16,.32,.61,.37,1.29,.17,2.04s-.74,1.39-1.6,1.94c-1.54,1.04-3.34,1.83-5.41,2.35-2.06,.52-4.02,.78-5.88,.78Zm-1.02-29.58c-2.86,0-5.12,.88-6.8,2.65-1.68,1.77-2.7,4.13-3.06,7.07h18.56c-.14-3.08-.95-5.47-2.45-7.17-1.5-1.7-3.58-2.55-6.26-2.55Z"/>
    <path class="cls-1" d="M570.61,1783.18c-4.17,0-7.28-1.06-9.32-3.2-2.04-2.13-3.06-5.21-3.06-9.25v-16.05h-4.08c-1.9,0-2.86-.88-2.86-2.65s.95-2.65,2.86-2.65h4.08v-7c0-2.31,1.16-3.47,3.47-3.47s3.4,1.16,3.4,3.47v7h7.96c1.9,0,2.86,.88,2.86,2.65s-.95,2.65-2.86,2.65h-7.96v15.5c0,2.4,.51,4.22,1.53,5.44,1.02,1.22,2.69,1.84,5,1.84,.82,0,1.52-.08,2.11-.24,.59-.16,1.11-.26,1.56-.31,.5,0,.91,.17,1.22,.51,.32,.34,.48,.99,.48,1.94,0,.73-.13,1.37-.37,1.94-.25,.57-.69,.94-1.33,1.12-.54,.23-1.28,.41-2.21,.54-.93,.14-1.76,.2-2.48,.2Z"/>
    <path class="cls-1" d="M585.3,1741.97c-1.36,0-2.41-.34-3.16-1.02s-1.12-1.63-1.12-2.86c0-2.58,1.43-3.88,4.28-3.88s4.28,1.29,4.28,3.88-1.43,3.88-4.28,3.88Zm0,41c-2.27,0-3.4-1.25-3.4-3.74v-26.52c0-2.45,1.13-3.67,3.4-3.67s3.47,1.22,3.47,3.67v26.52c0,2.49-1.16,3.74-3.47,3.74Z"/>
    <path class="cls-1" d="M612.84,1783.18c-3.36,0-6.26-.7-8.7-2.11-2.45-1.4-4.34-3.39-5.68-5.95-1.34-2.56-2.01-5.61-2.01-9.15s.67-6.58,2.01-9.15c1.34-2.56,3.23-4.54,5.68-5.95,2.45-1.4,5.35-2.11,8.7-2.11s6.12,.7,8.57,2.11c2.45,1.41,4.35,3.39,5.71,5.95,1.36,2.56,2.04,5.61,2.04,9.15s-.68,6.58-2.04,9.15c-1.36,2.56-3.26,4.55-5.71,5.95-2.45,1.41-5.3,2.11-8.57,2.11Zm0-5.3c2.81,0,5.08-1.02,6.8-3.06,1.72-2.04,2.58-4.99,2.58-8.84s-.86-6.79-2.58-8.81c-1.72-2.02-3.99-3.03-6.8-3.03s-5.15,1.01-6.87,3.03c-1.72,2.02-2.58,4.95-2.58,8.81s.86,6.8,2.58,8.84c1.72,2.04,4.01,3.06,6.87,3.06Z"/>
    <path class="cls-1" d="M640.24,1783.04c-2.27,0-3.4-1.16-3.4-3.47v-27.2c0-2.31,1.11-3.47,3.33-3.47s3.33,1.16,3.33,3.47v2.52c1.13-2,2.69-3.51,4.66-4.56,1.97-1.04,4.18-1.56,6.63-1.56,7.84,0,11.76,4.44,11.76,13.33v17.48c0,2.31-1.13,3.47-3.4,3.47s-3.47-1.16-3.47-3.47v-17.07c0-2.86-.56-4.94-1.67-6.26-1.11-1.31-2.84-1.97-5.2-1.97-2.77,0-4.98,.87-6.63,2.62-1.66,1.75-2.48,4.05-2.48,6.9v15.78c0,2.31-1.16,3.47-3.47,3.47Z"/>
    <path class="cls-1" d="M704.36,1763.32c-3.72,0-6.62-1.3-8.7-3.91-2.09-2.61-3.13-6.2-3.13-10.78s1.05-8.16,3.16-10.74c2.11-2.58,5-3.88,8.67-3.88s6.56,1.29,8.67,3.88c2.11,2.58,3.16,6.17,3.16,10.74s-1.04,8.17-3.13,10.78c-2.08,2.61-4.99,3.91-8.7,3.91Zm0-4.83c1.9,0,3.39-.82,4.45-2.45s1.6-4.1,1.6-7.41-.53-5.78-1.6-7.41c-1.07-1.63-2.55-2.45-4.45-2.45s-3.39,.82-4.45,2.45c-1.07,1.63-1.6,4.1-1.6,7.41s.53,5.84,1.6,7.45c1.06,1.61,2.55,2.41,4.45,2.41Zm6.05,23.87c-.5,.86-1.1,1.36-1.8,1.5-.7,.14-1.36,.03-1.97-.31-.61-.34-1.03-.86-1.26-1.56-.23-.7-.09-1.48,.41-2.35l25.7-44.68c.5-.86,1.1-1.37,1.8-1.53,.7-.16,1.36-.06,1.97,.31,.61,.36,1.03,.88,1.26,1.56,.23,.68,.09,1.45-.41,2.31l-25.7,44.74Zm27.2,.82c-3.67,0-6.55-1.29-8.64-3.88s-3.13-6.19-3.13-10.81,1.04-8.1,3.13-10.71c2.08-2.61,4.96-3.91,8.64-3.91s6.62,1.3,8.7,3.91c2.08,2.61,3.13,6.18,3.13,10.71s-1.04,8.23-3.13,10.81c-2.09,2.58-4.99,3.88-8.7,3.88Zm0-4.76c1.9,0,3.39-.82,4.45-2.45,1.06-1.63,1.6-4.12,1.6-7.48s-.53-5.71-1.6-7.34c-1.07-1.63-2.55-2.45-4.45-2.45s-3.39,.81-4.45,2.41c-1.07,1.61-1.6,4.07-1.6,7.38s.53,5.85,1.6,7.48c1.06,1.63,2.55,2.45,4.45,2.45Z"/>
  </g>
  <g id="InputBox">
    <rect class="cls-6" x="93" y="1499.5" width="895" height="163" rx="57.5" ry="57.5"/>
    <path class="cls-3" d="M930.5,1502c30.33,0,55,24.67,55,55v48c0,30.33-24.67,55-55,55H150.5c-30.33,0-55-24.67-55-55v-48c0-30.33,24.67-55,55-55H930.5m0-5H150.5c-33.14,0-60,26.86-60,60v48c0,33.14,26.86,60,60,60H930.5c33.14,0,60-26.86,60-60v-48c0-33.14-26.86-60-60-60h0Z"/>
  </g>
  <g>
    <path class="cls-1" d="M167.93,1609.25c-2.6,0-3.91-1.28-3.91-3.83s1.3-3.69,3.91-3.69h7.95v-32.16l-6.03,3.62c-1.14,.66-2.17,.83-3.09,.5-.92-.33-1.62-.92-2.09-1.78-.47-.85-.62-1.79-.43-2.8,.19-1.02,.85-1.86,1.99-2.52l9.8-5.89c.95-.57,1.89-1.05,2.84-1.46,.95-.4,1.82-.6,2.63-.6,.99,0,1.82,.27,2.48,.82,.66,.54,.99,1.43,.99,2.66v39.62h7.24c2.6,0,3.9,1.23,3.9,3.69s-1.3,3.83-3.9,3.83h-24.28Z"/>
    <path class="cls-1" d="M228.77,1609.81c-1.42,0-2.53-.39-3.34-1.17-.81-.78-1.21-1.91-1.21-3.37v-5.54h-17.54c-1.47,0-2.64-.31-3.51-.92-.88-.61-1.31-1.56-1.31-2.84,0-.8,.2-1.66,.6-2.56,.4-.9,1.12-2.08,2.17-3.55l19.45-28.19c.66-.99,1.4-1.75,2.2-2.27,.8-.52,1.73-.78,2.77-.78,1.23,0,2.25,.37,3.05,1.1,.8,.73,1.21,1.88,1.21,3.44v29.04h3.48c2.75,0,4.12,1.25,4.12,3.76s-1.37,3.76-4.12,3.76h-3.48v5.54c0,1.47-.4,2.59-1.21,3.37-.81,.78-1.92,1.17-3.34,1.17Zm-4.54-17.61v-19.1l-13.06,19.1h13.06Z"/>
    <path class="cls-1" d="M250.93,1584.68c-1.61,0-2.9-.5-3.87-1.49-.97-.99-1.46-2.25-1.46-3.76s.49-2.83,1.46-3.8,2.26-1.46,3.87-1.46,2.95,.49,3.87,1.46c.92,.97,1.38,2.24,1.38,3.8s-.46,2.77-1.38,3.76c-.92,.99-2.21,1.49-3.87,1.49Zm0,24.92c-1.61,0-2.9-.5-3.87-1.49-.97-.99-1.46-2.27-1.46-3.83s.49-2.76,1.46-3.73c.97-.97,2.26-1.46,3.87-1.46s2.95,.49,3.87,1.46c.92,.97,1.38,2.21,1.38,3.73s-.46,2.84-1.38,3.83c-.92,.99-2.21,1.49-3.87,1.49Z"/>
    <path class="cls-1" d="M269.1,1609.25c-1.52,0-2.62-.34-3.3-1.03-.69-.69-1.03-1.69-1.03-3.02,0-.8,.21-1.59,.64-2.34,.43-.76,1.04-1.56,1.85-2.41l14.27-15.19c2.18-2.27,3.74-4.34,4.69-6.21,.95-1.87,1.42-3.75,1.42-5.64,0-4.83-2.91-7.24-8.73-7.24-1.61,0-3.22,.23-4.83,.67-1.61,.45-3.24,1.22-4.9,2.31-1.04,.71-2.01,.92-2.91,.64-.9-.28-1.59-.86-2.06-1.74-.47-.88-.63-1.81-.46-2.8s.77-1.85,1.81-2.56c2.04-1.37,4.32-2.41,6.85-3.12s5.08-1.07,7.63-1.07c5.35,0,9.45,1.21,12.32,3.62,2.86,2.41,4.3,5.87,4.3,10.37,0,3.03-.72,5.94-2.17,8.73-1.44,2.79-3.7,5.8-6.78,9.02l-11,11.5h18.53c2.6,0,3.9,1.23,3.9,3.69s-1.3,3.83-3.9,3.83h-26.13Z"/>
    <path class="cls-1" d="M314.47,1609.81c-1.66,0-2.84-.57-3.55-1.7-.71-1.14-.64-2.51,.21-4.12l19.81-37.2h-21.37c-2.65,0-3.98-1.25-3.98-3.76s1.32-3.83,3.98-3.83h27.48c1.28,0,2.32,.33,3.12,.99,.8,.66,1.21,1.61,1.21,2.84,0,1.04-.14,1.95-.43,2.73-.28,.78-.66,1.62-1.14,2.52l-20.16,38.55c-1.04,1.99-2.77,2.98-5.18,2.98Z"/>
  </g>
  <g>
    <path class="cls-1" d="M408.51,983.84c-4.56,0-6.84-2.23-6.84-6.69s2.28-6.54,6.84-6.54h18.54v-75.85l-14.29,9.12c-1.93,1.22-3.72,1.55-5.4,.99-1.67-.56-2.94-1.6-3.8-3.12-.86-1.52-1.12-3.17-.76-4.94,.35-1.77,1.49-3.27,3.42-4.48l20.98-13.22c1.72-1.01,3.37-1.85,4.94-2.51,1.57-.66,3.06-.99,4.48-.99,1.72,0,3.17,.51,4.33,1.52,1.16,1.01,1.75,2.58,1.75,4.71v88.77h17.02c4.66,0,6.99,2.18,6.99,6.54s-2.33,6.69-6.99,6.69h-51.22Z"/>
    <path class="cls-1" d="M494.39,928.36c-3.04,0-5.45-.91-7.22-2.74-1.77-1.82-2.66-4.1-2.66-6.84,0-2.94,.89-5.29,2.66-7.07,1.77-1.77,4.18-2.66,7.22-2.66s5.27,.89,6.99,2.66c1.72,1.77,2.58,4.13,2.58,7.07,0,2.74-.86,5.02-2.58,6.84-1.72,1.82-4.05,2.74-6.99,2.74Zm0,56.09c-3.04,0-5.45-.91-7.22-2.74-1.77-1.82-2.66-4.15-2.66-6.99s.89-5.14,2.66-6.92c1.77-1.77,4.18-2.66,7.22-2.66s5.27,.89,6.99,2.66c1.72,1.77,2.58,4.08,2.58,6.92s-.86,5.17-2.58,6.99c-1.72,1.82-4.05,2.74-6.99,2.74Z"/>
    <path class="cls-1" d="M559.44,985.21c-5.68,0-11.32-.79-16.95-2.36-5.62-1.57-10.77-4.03-15.43-7.37-1.93-1.22-3.07-2.74-3.42-4.56-.36-1.82-.1-3.47,.76-4.94,.86-1.47,2.13-2.48,3.8-3.04,1.67-.56,3.52-.18,5.55,1.14,7.8,5.17,16.26,7.75,25.38,7.75,6.99,0,12.46-1.9,16.42-5.7s5.93-8.79,5.93-14.97-1.88-11.6-5.62-15.66c-3.75-4.05-8.97-6.08-15.66-6.08-3.85,0-7.47,.68-10.87,2.05-3.4,1.37-6.56,3.62-9.5,6.76-.81,.81-1.8,1.55-2.96,2.2-1.17,.66-2.41,.99-3.72,.99-4.36,0-6.54-2.08-6.54-6.23v-51.53c0-4.66,2.33-6.99,6.99-6.99h50.92c4.66,0,6.99,2.18,6.99,6.54s-2.33,6.69-6.99,6.69h-42.56v33.9c5.67-4.96,12.87-7.45,21.58-7.45,6.79,0,12.67,1.42,17.63,4.26,4.96,2.84,8.82,6.82,11.55,11.93,2.74,5.12,4.1,11.07,4.1,17.86s-1.52,12.95-4.56,18.16c-3.04,5.22-7.35,9.3-12.92,12.24-5.57,2.94-12.21,4.41-19.91,4.41Z"/>
    <path class="cls-1" d="M648.97,985.21c-12.26,0-21.81-2.63-28.65-7.9-6.84-5.27-10.26-12.62-10.26-22.04,0-6.59,1.75-12.18,5.24-16.8,3.5-4.61,8.08-7.78,13.76-9.5-5.07-2.13-9.07-5.4-12.01-9.8-2.94-4.41-4.41-9.5-4.41-15.28,0-8.92,3.29-15.91,9.88-20.98,6.59-5.07,15.4-7.6,26.45-7.6s20.01,2.53,26.6,7.6c6.59,5.07,9.88,12.06,9.88,20.98,0,5.78-1.5,10.89-4.48,15.35-2.99,4.46-7.02,7.7-12.08,9.73,5.78,1.72,10.39,4.89,13.83,9.5,3.44,4.61,5.17,10.21,5.17,16.8,0,9.42-3.42,16.77-10.26,22.04-6.84,5.27-16.39,7.9-28.65,7.9Zm0-12.46c16.11,0,24.17-6.18,24.17-18.54s-8.06-18.39-24.17-18.39c-7.9,0-13.91,1.52-18.01,4.56-4.1,3.04-6.16,7.65-6.16,13.83,0,12.36,8.06,18.54,24.17,18.54Zm0-49.4c6.79,0,12.08-1.6,15.88-4.79,3.8-3.19,5.7-7.57,5.7-13.15s-1.9-9.78-5.7-12.92c-3.8-3.14-9.1-4.71-15.88-4.71s-12.06,1.57-15.81,4.71c-3.75,3.14-5.62,7.45-5.62,12.92s1.87,9.96,5.62,13.15c3.75,3.19,9.02,4.79,15.81,4.79Z"/>
    <path class="cls-1" d="M213.42,1189.9c-5.17,0-7.75-2.58-7.75-7.75v-60.8c0-5.17,2.48-7.75,7.45-7.75s7.45,2.58,7.45,7.75v6.54c2.03-4.56,5.09-8.06,9.2-10.49,4.1-2.43,9.09-3.85,14.97-4.26,3.75-.3,5.78,1.72,6.08,6.08,.4,4.46-1.77,6.89-6.54,7.3l-2.89,.3c-13.48,1.32-20.22,8.26-20.22,20.82v34.5c0,5.17-2.58,7.75-7.75,7.75Z"/>
    <path class="cls-1" d="M296.11,1190.21c-12.16,0-21.74-3.42-28.73-10.26-6.99-6.84-10.49-16.19-10.49-28.04,0-7.6,1.54-14.31,4.64-20.14,3.09-5.83,7.37-10.36,12.84-13.6,5.47-3.24,11.75-4.86,18.85-4.86,10.23,0,18.29,3.27,24.17,9.8,5.88,6.54,8.82,15.53,8.82,26.98,0,3.45-2.03,5.17-6.08,5.17h-48.34c1.11,15.4,9.27,23.1,24.47,23.1,3.04,0,6.23-.38,9.58-1.14,3.34-.76,6.59-2.15,9.73-4.18,2.13-1.22,3.98-1.65,5.55-1.29,1.57,.36,2.71,1.22,3.42,2.58,.71,1.37,.84,2.89,.38,4.56-.46,1.67-1.65,3.12-3.57,4.33-3.45,2.33-7.47,4.08-12.08,5.24-4.61,1.16-8.99,1.75-13.15,1.75Zm-2.28-66.12c-6.38,0-11.45,1.98-15.2,5.93-3.75,3.95-6.03,9.22-6.84,15.81h41.5c-.3-6.89-2.13-12.24-5.47-16.04-3.34-3.8-8.01-5.7-13.98-5.7Z"/>
    <path class="cls-1" d="M350.83,1189.9c-5.07,0-7.6-2.58-7.6-7.75v-60.8c0-5.17,2.48-7.75,7.45-7.75s7.45,2.58,7.45,7.75v5.32c2.23-4.26,5.32-7.55,9.27-9.88,3.95-2.33,8.56-3.5,13.83-3.5,11.35,0,18.7,4.97,22.04,14.9,2.33-4.66,5.67-8.31,10.03-10.94,4.36-2.63,9.32-3.95,14.9-3.95,16.62,0,24.93,9.93,24.93,29.79v39.06c0,5.17-2.58,7.75-7.75,7.75s-7.6-2.58-7.6-7.75v-38.3c0-6.28-1.09-10.89-3.27-13.83-2.18-2.94-5.75-4.41-10.72-4.41-5.57,0-9.98,1.95-13.22,5.85-3.24,3.9-4.86,9.2-4.86,15.88v34.81c0,5.17-2.53,7.75-7.6,7.75s-7.75-2.58-7.75-7.75v-38.3c0-6.28-1.06-10.89-3.19-13.83-2.13-2.94-5.68-4.41-10.64-4.41-5.57,0-9.96,1.95-13.15,5.85-3.19,3.9-4.79,9.2-4.79,15.88v34.81c0,5.17-2.58,7.75-7.75,7.75Z"/>
    <path class="cls-1" d="M498.27,1190.21c-5.17,0-9.78-1.01-13.83-3.04-4.05-2.03-7.27-4.76-9.65-8.21-2.38-3.44-3.57-7.35-3.57-11.7,0-5.47,1.39-9.78,4.18-12.92,2.79-3.14,7.4-5.42,13.83-6.84,6.43-1.42,15.12-2.13,26.07-2.13h5.17v-3.95c0-5.78-1.22-9.93-3.65-12.46-2.43-2.53-6.44-3.8-12.01-3.8-3.24,0-6.61,.41-10.11,1.22-3.5,.81-7.12,2.18-10.87,4.1-2.13,1.01-3.88,1.17-5.24,.46-1.37-.71-2.31-1.82-2.81-3.34-.51-1.52-.46-3.09,.15-4.71,.61-1.62,1.87-2.84,3.8-3.65,4.46-2.03,8.87-3.52,13.22-4.48,4.36-.96,8.46-1.44,12.31-1.44,10.13,0,17.63,2.41,22.5,7.22,4.86,4.81,7.3,12.34,7.3,22.57v39.06c0,5.17-2.38,7.75-7.14,7.75s-7.3-2.58-7.3-7.75v-5.62c-1.82,4.26-4.66,7.6-8.51,10.03-3.85,2.43-8.46,3.65-13.83,3.65Zm3.04-10.94c5.47,0,10.03-1.92,13.68-5.78,3.65-3.85,5.47-8.71,5.47-14.59v-4.1h-5.02c-7.4,0-13.2,.36-17.4,1.06-4.21,.71-7.2,1.9-8.97,3.57-1.77,1.67-2.66,3.98-2.66,6.92,0,3.85,1.32,6.97,3.95,9.35,2.63,2.38,6.28,3.57,10.94,3.57Z"/>
    <path class="cls-1" d="M563.78,1098.09c-3.04,0-5.4-.76-7.07-2.28-1.67-1.52-2.51-3.65-2.51-6.38,0-5.78,3.19-8.66,9.58-8.66s9.58,2.89,9.58,8.66-3.19,8.66-9.58,8.66Zm0,91.66c-5.07,0-7.6-2.79-7.6-8.36v-59.28c0-5.47,2.53-8.21,7.6-8.21s7.75,2.74,7.75,8.21v59.28c0,5.57-2.58,8.36-7.75,8.36Z"/>
    <path class="cls-1" d="M600.71,1189.9c-5.07,0-7.6-2.58-7.6-7.75v-60.8c0-5.17,2.48-7.75,7.45-7.75s7.45,2.58,7.45,7.75v5.62c2.53-4.46,6-7.85,10.41-10.18,4.41-2.33,9.35-3.5,14.82-3.5,17.53,0,26.3,9.93,26.3,29.79v39.06c0,5.17-2.53,7.75-7.6,7.75s-7.75-2.58-7.75-7.75v-38.15c0-6.38-1.24-11.04-3.72-13.98-2.48-2.94-6.36-4.41-11.63-4.41-6.18,0-11.12,1.95-14.82,5.85-3.7,3.9-5.55,9.04-5.55,15.43v35.26c0,5.17-2.58,7.75-7.75,7.75Z"/>
    <path class="cls-1" d="M688.26,1098.09c-3.04,0-5.4-.76-7.07-2.28-1.67-1.52-2.51-3.65-2.51-6.38,0-5.78,3.19-8.66,9.58-8.66s9.58,2.89,9.58,8.66-3.19,8.66-9.58,8.66Zm0,91.66c-5.07,0-7.6-2.79-7.6-8.36v-59.28c0-5.47,2.53-8.21,7.6-8.21s7.75,2.74,7.75,8.21v59.28c0,5.57-2.58,8.36-7.75,8.36Z"/>
    <path class="cls-1" d="M725.2,1189.9c-5.07,0-7.6-2.58-7.6-7.75v-60.8c0-5.17,2.48-7.75,7.45-7.75s7.45,2.58,7.45,7.75v5.62c2.53-4.46,6-7.85,10.41-10.18,4.41-2.33,9.35-3.5,14.82-3.5,17.53,0,26.3,9.93,26.3,29.79v39.06c0,5.17-2.53,7.75-7.6,7.75s-7.75-2.58-7.75-7.75v-38.15c0-6.38-1.24-11.04-3.72-13.98-2.48-2.94-6.36-4.41-11.63-4.41-6.18,0-11.12,1.95-14.82,5.85-3.7,3.9-5.55,9.04-5.55,15.43v35.26c0,5.17-2.58,7.75-7.75,7.75Z"/>
    <path class="cls-1" d="M838.74,1217.57c-5.47,0-10.77-.56-15.88-1.67-5.12-1.12-9.75-2.94-13.91-5.47-1.82-1.01-2.94-2.28-3.34-3.8-.41-1.52-.23-2.99,.53-4.41,.76-1.42,1.82-2.46,3.19-3.12,1.37-.66,2.86-.53,4.48,.38,4.46,2.43,8.69,4.08,12.69,4.94,4,.86,7.73,1.29,11.17,1.29,14.19,0,21.28-7.09,21.28-21.28v-11.7c-2.13,4.46-5.45,7.96-9.96,10.49-4.51,2.53-9.55,3.8-15.12,3.8-6.69,0-12.52-1.54-17.48-4.64-4.97-3.09-8.82-7.4-11.55-12.92-2.74-5.52-4.1-11.98-4.1-19.38s1.37-13.7,4.1-19.23c2.74-5.52,6.59-9.83,11.55-12.92,4.96-3.09,10.79-4.64,17.48-4.64,5.57,0,10.56,1.24,14.97,3.72,4.41,2.48,7.68,5.85,9.8,10.11v-5.78c0-5.17,2.53-7.75,7.6-7.75s7.6,2.58,7.6,7.75v61.26c0,11.65-2.99,20.39-8.97,26.22-5.98,5.83-14.69,8.74-26.14,8.74Zm-1.22-42.56c6.48,0,11.65-2.23,15.5-6.69,3.85-4.46,5.78-10.54,5.78-18.24s-1.93-13.76-5.78-18.16c-3.85-4.41-9.02-6.61-15.5-6.61s-11.65,2.2-15.5,6.61c-3.85,4.41-5.78,10.46-5.78,18.16s1.92,13.78,5.78,18.24c3.85,4.46,9.02,6.69,15.5,6.69Z"/>
  </g>
  <path id="UnusedBar" class="cls-3" d="M134.5,1839H843.5v10H134.5c-2.76,0-5-2.24-5-5h0c0-2.76,2.24-5,5-5Z"/>
  <path id="UsedBar" class="cls-6" d="M843.5,1839h101c2.76,0,5,2.24,5,5h0c0,2.76-2.24,5-5,5h-101v-10h0Z"/>
  <circle id="Thumb" class="cls-4" cx="843.5" cy="1844" r="28"/>
</svg>