<?xml version="1.0" encoding="UTF-8"?>
<svg id="Tip_Calculator" data-name="Tip Calculator" xmlns="http://www.w3.org/2000/svg" viewBox="0 0 1080 2272">
  <defs>
    <style>
      .cls-1 {
        fill: #fff;
      }

      .cls-2 {
        opacity: .5;
      }

      .cls-3 {
        fill: #9f58f2;
      }

      .cls-4 {
        fill: #2b324d;
      }

      .cls-5 {
        fill: #0c0414;
      }

      .cls-6 {
        fill: #22283d;
      }
    </style>
  </defs>
  <rect id="Background" class="cls-5" width="1080" height="2272" rx="100" ry="100"/>
  <g>
    <path class="cls-1" d="M129.72,304.11c-9.32,0-16.26-2.38-20.82-7.14-4.56-4.76-6.84-11.65-6.84-20.67v-35.87h-9.12c-4.26,0-6.38-1.98-6.38-5.93s2.13-5.93,6.38-5.93h9.12v-15.66c0-5.17,2.58-7.75,7.75-7.75s7.6,2.58,7.6,7.75v15.66h17.78c4.26,0,6.38,1.98,6.38,5.93s-2.13,5.93-6.38,5.93h-17.78v34.66c0,5.37,1.14,9.42,3.42,12.16,2.28,2.74,6,4.1,11.17,4.1,1.82,0,3.39-.18,4.71-.53,1.32-.35,2.48-.58,3.5-.68,1.11,0,2.03,.38,2.74,1.14,.71,.76,1.06,2.2,1.06,4.33,0,1.62-.28,3.07-.84,4.33-.56,1.27-1.55,2.1-2.96,2.51-1.22,.51-2.86,.91-4.94,1.22-2.08,.3-3.93,.46-5.55,.46Z"/>
    <path class="cls-1" d="M162.54,211.99c-3.04,0-5.4-.76-7.07-2.28-1.67-1.52-2.51-3.65-2.51-6.38,0-5.78,3.19-8.66,9.58-8.66s9.58,2.89,9.58,8.66-3.19,8.66-9.58,8.66Zm0,91.66c-5.07,0-7.6-2.79-7.6-8.36v-59.28c0-5.47,2.53-8.21,7.6-8.21s7.75,2.74,7.75,8.21v59.28c0,5.57-2.58,8.36-7.75,8.36Z"/>
    <path class="cls-1" d="M199.48,331.16c-5.07,0-7.6-2.58-7.6-7.75v-88.16c0-5.17,2.48-7.75,7.45-7.75s7.6,2.58,7.6,7.75v5.78c2.23-4.26,5.52-7.62,9.88-10.11,4.36-2.48,9.32-3.72,14.9-3.72,6.59,0,12.34,1.57,17.25,4.71,4.91,3.14,8.71,7.58,11.4,13.3,2.68,5.73,4.03,12.54,4.03,20.44s-1.34,14.74-4.03,20.52c-2.69,5.78-6.49,10.21-11.4,13.3-4.92,3.09-10.67,4.64-17.25,4.64-5.47,0-10.36-1.19-14.67-3.57-4.31-2.38-7.58-5.65-9.8-9.8v32.68c0,5.17-2.58,7.75-7.75,7.75Zm28.42-38.91c6.38,0,11.48-2.28,15.28-6.84,3.8-4.56,5.7-11.15,5.7-19.76s-1.9-15.17-5.7-19.68c-3.8-4.51-8.89-6.76-15.28-6.76s-11.48,2.26-15.28,6.76c-3.8,4.51-5.7,11.07-5.7,19.68s1.9,15.2,5.7,19.76,8.89,6.84,15.28,6.84Z"/>
    <path class="cls-1" d="M354.52,304.11c-7.6,0-14.16-1.6-19.68-4.79-5.52-3.19-9.8-7.7-12.84-13.53-3.04-5.83-4.56-12.69-4.56-20.6,0-11.75,3.34-21.03,10.03-27.82,6.69-6.79,15.71-10.18,27.06-10.18,3.55,0,7.27,.53,11.17,1.6,3.9,1.06,7.52,2.81,10.87,5.24,1.62,1.01,2.56,2.31,2.81,3.88,.25,1.57,0,3.04-.76,4.41-.76,1.37-1.85,2.28-3.27,2.74-1.42,.46-3.04,.18-4.86-.84-2.43-1.72-4.92-2.96-7.45-3.72-2.53-.76-4.97-1.14-7.3-1.14-7.2,0-12.74,2.26-16.64,6.76-3.9,4.51-5.85,10.92-5.85,19.23s1.95,14.82,5.85,19.53c3.9,4.71,9.45,7.07,16.64,7.07,2.33,0,4.74-.35,7.22-1.06,2.48-.71,4.99-1.92,7.52-3.65,1.82-1.01,3.42-1.27,4.79-.76,1.37,.51,2.38,1.44,3.04,2.81,.66,1.37,.86,2.84,.61,4.41-.25,1.57-1.19,2.86-2.81,3.88-3.24,2.33-6.76,4-10.56,5.02-3.8,1.01-7.47,1.52-11.02,1.52Z"/>
    <path class="cls-1" d="M415.92,304.11c-5.17,0-9.78-1.01-13.83-3.04-4.05-2.03-7.27-4.76-9.65-8.21-2.38-3.44-3.57-7.35-3.57-11.7,0-5.47,1.39-9.78,4.18-12.92,2.79-3.14,7.4-5.42,13.83-6.84,6.43-1.42,15.12-2.13,26.07-2.13h5.17v-3.95c0-5.78-1.22-9.93-3.65-12.46-2.43-2.53-6.44-3.8-12.01-3.8-3.24,0-6.61,.41-10.11,1.22-3.5,.81-7.12,2.18-10.87,4.1-2.13,1.01-3.88,1.17-5.24,.46-1.37-.71-2.31-1.82-2.81-3.34-.51-1.52-.46-3.09,.15-4.71,.61-1.62,1.87-2.84,3.8-3.65,4.46-2.03,8.87-3.52,13.22-4.48,4.36-.96,8.46-1.44,12.31-1.44,10.13,0,17.63,2.41,22.5,7.22,4.86,4.81,7.3,12.34,7.3,22.57v39.06c0,5.17-2.38,7.75-7.14,7.75s-7.3-2.58-7.3-7.75v-5.62c-1.82,4.26-4.66,7.6-8.51,10.03-3.85,2.43-8.46,3.65-13.83,3.65Zm3.04-10.94c5.47,0,10.03-1.92,13.68-5.78,3.65-3.85,5.47-8.71,5.47-14.59v-4.1h-5.02c-7.4,0-13.2,.36-17.4,1.06-4.21,.71-7.2,1.9-8.97,3.57-1.77,1.67-2.66,3.98-2.66,6.92,0,3.85,1.32,6.97,3.95,9.35,2.63,2.38,6.28,3.57,10.94,3.57Z"/>
    <path class="cls-1" d="M497.7,304.11c-7.9,0-13.86-2.28-17.86-6.84-4-4.56-6-11.25-6-20.06v-74.94c0-5.17,2.53-7.75,7.6-7.75s7.75,2.58,7.75,7.75v74.02c0,10.03,4.05,15.05,12.16,15.05,.91,0,1.72-.05,2.43-.15,.71-.1,1.42-.15,2.13-.15,1.22-.1,2.08,.23,2.58,.99,.51,.76,.76,2.31,.76,4.64,0,4.16-1.93,6.54-5.78,7.14-1.01,.1-2,.18-2.96,.23-.96,.05-1.9,.08-2.81,.08Z"/>
    <path class="cls-1" d="M552.27,304.11c-7.6,0-14.16-1.6-19.68-4.79-5.52-3.19-9.8-7.7-12.84-13.53-3.04-5.83-4.56-12.69-4.56-20.6,0-11.75,3.34-21.03,10.03-27.82,6.69-6.79,15.71-10.18,27.06-10.18,3.55,0,7.27,.53,11.17,1.6,3.9,1.06,7.52,2.81,10.87,5.24,1.62,1.01,2.56,2.31,2.81,3.88,.25,1.57,0,3.04-.76,4.41-.76,1.37-1.85,2.28-3.27,2.74-1.42,.46-3.04,.18-4.86-.84-2.43-1.72-4.92-2.96-7.45-3.72-2.53-.76-4.97-1.14-7.3-1.14-7.2,0-12.74,2.26-16.64,6.76-3.9,4.51-5.85,10.92-5.85,19.23s1.95,14.82,5.85,19.53c3.9,4.71,9.45,7.07,16.64,7.07,2.33,0,4.74-.35,7.22-1.06,2.48-.71,4.99-1.92,7.52-3.65,1.82-1.01,3.42-1.27,4.79-.76,1.37,.51,2.38,1.44,3.04,2.81,.66,1.37,.86,2.84,.61,4.41-.25,1.57-1.19,2.86-2.81,3.88-3.25,2.33-6.76,4-10.56,5.02s-7.47,1.52-11.02,1.52Z"/>
    <path class="cls-1" d="M617.02,304.11c-17.94,0-26.9-9.98-26.9-29.94v-38.91c0-5.17,2.53-7.75,7.6-7.75s7.75,2.58,7.75,7.75v39.06c0,5.98,1.22,10.39,3.65,13.22,2.43,2.84,6.28,4.26,11.55,4.26,5.78,0,10.46-1.92,14.06-5.78,3.6-3.85,5.4-9.02,5.4-15.5v-35.26c0-5.17,2.58-7.75,7.75-7.75s7.6,2.58,7.6,7.75v60.8c0,5.17-2.48,7.75-7.45,7.75s-7.45-2.58-7.45-7.75v-5.17c-2.43,4.36-5.68,7.65-9.73,9.88-4.05,2.23-8.66,3.34-13.83,3.34Z"/>
    <path class="cls-1" d="M700.92,304.11c-7.9,0-13.86-2.28-17.86-6.84-4-4.56-6-11.25-6-20.06v-74.94c0-5.17,2.53-7.75,7.6-7.75s7.75,2.58,7.75,7.75v74.02c0,10.03,4.05,15.05,12.16,15.05,.91,0,1.72-.05,2.43-.15,.71-.1,1.42-.15,2.13-.15,1.22-.1,2.08,.23,2.58,.99,.51,.76,.76,2.31,.76,4.64,0,4.16-1.93,6.54-5.78,7.14-1.01,.1-2,.18-2.96,.23-.96,.05-1.9,.08-2.81,.08Z"/>
    <path class="cls-1" d="M747.28,304.11c-5.17,0-9.78-1.01-13.83-3.04-4.05-2.03-7.27-4.76-9.65-8.21-2.38-3.44-3.57-7.35-3.57-11.7,0-5.47,1.39-9.78,4.18-12.92,2.79-3.14,7.4-5.42,13.83-6.84,6.43-1.42,15.12-2.13,26.07-2.13h5.17v-3.95c0-5.78-1.22-9.93-3.65-12.46-2.43-2.53-6.44-3.8-12.01-3.8-3.24,0-6.61,.41-10.11,1.22-3.5,.81-7.12,2.18-10.87,4.1-2.13,1.01-3.88,1.17-5.24,.46-1.37-.71-2.31-1.82-2.81-3.34-.51-1.52-.46-3.09,.15-4.71,.61-1.62,1.87-2.84,3.8-3.65,4.46-2.03,8.87-3.52,13.22-4.48,4.36-.96,8.46-1.44,12.31-1.44,10.13,0,17.63,2.41,22.5,7.22,4.86,4.81,7.3,12.34,7.3,22.57v39.06c0,5.17-2.38,7.75-7.14,7.75s-7.3-2.58-7.3-7.75v-5.62c-1.82,4.26-4.66,7.6-8.51,10.03-3.85,2.43-8.46,3.65-13.83,3.65Zm3.04-10.94c5.47,0,10.03-1.92,13.68-5.78,3.65-3.85,5.47-8.71,5.47-14.59v-4.1h-5.02c-7.4,0-13.2,.36-17.4,1.06-4.21,.71-7.2,1.9-8.97,3.57-1.77,1.67-2.66,3.98-2.66,6.92,0,3.85,1.32,6.97,3.95,9.35,2.63,2.38,6.28,3.57,10.94,3.57Z"/>
    <path class="cls-1" d="M836.81,304.11c-9.32,0-16.26-2.38-20.82-7.14-4.56-4.76-6.84-11.65-6.84-20.67v-35.87h-9.12c-4.26,0-6.38-1.98-6.38-5.93s2.13-5.93,6.38-5.93h9.12v-15.66c0-5.17,2.58-7.75,7.75-7.75s7.6,2.58,7.6,7.75v15.66h17.78c4.26,0,6.38,1.98,6.38,5.93s-2.13,5.93-6.38,5.93h-17.78v34.66c0,5.37,1.14,9.42,3.42,12.16,2.28,2.74,6,4.1,11.17,4.1,1.82,0,3.39-.18,4.71-.53,1.32-.35,2.48-.58,3.5-.68,1.11,0,2.03,.38,2.74,1.14,.71,.76,1.06,2.2,1.06,4.33,0,1.62-.28,3.07-.84,4.33-.56,1.27-1.55,2.1-2.96,2.51-1.22,.51-2.86,.91-4.94,1.22-2.08,.3-3.93,.46-5.55,.46Z"/>
    <path class="cls-1" d="M892.13,304.11c-7.5,0-13.98-1.57-19.46-4.71-5.47-3.14-9.7-7.57-12.69-13.3-2.99-5.72-4.48-12.54-4.48-20.44s1.49-14.72,4.48-20.44c2.99-5.72,7.22-10.16,12.69-13.3,5.47-3.14,11.96-4.71,19.46-4.71s13.68,1.57,19.15,4.71c5.47,3.14,9.73,7.58,12.77,13.3,3.04,5.73,4.56,12.54,4.56,20.44s-1.52,14.72-4.56,20.44c-3.04,5.73-7.3,10.16-12.77,13.3-5.47,3.14-11.86,4.71-19.15,4.71Zm0-11.86c6.28,0,11.35-2.28,15.2-6.84,3.85-4.56,5.78-11.15,5.78-19.76s-1.93-15.17-5.78-19.68c-3.85-4.51-8.92-6.76-15.2-6.76s-11.5,2.26-15.35,6.76c-3.85,4.51-5.78,11.07-5.78,19.68s1.92,15.2,5.78,19.76c3.85,4.56,8.97,6.84,15.35,6.84Z"/>
    <path class="cls-1" d="M953.54,303.8c-5.17,0-7.75-2.58-7.75-7.75v-60.8c0-5.17,2.48-7.75,7.45-7.75s7.45,2.58,7.45,7.75v6.54c2.03-4.56,5.09-8.06,9.2-10.49,4.1-2.43,9.09-3.85,14.97-4.26,3.75-.3,5.78,1.72,6.08,6.08,.4,4.46-1.77,6.89-6.54,7.3l-2.89,.3c-13.48,1.32-20.22,8.26-20.22,20.82v34.5c0,5.17-2.58,7.75-7.75,7.75Z"/>
  </g>
  <g class="cls-2">
    <path class="cls-1" d="M372.07,979.45c-.8,0-1.46-.27-1.98-.8-.51-.54-.77-1.18-.77-1.94v-5.09c-2.81-.18-5.36-.64-7.64-1.37-2.28-.74-4.2-1.64-5.76-2.71-.8-.49-1.31-1.15-1.51-1.98-.2-.83-.13-1.6,.2-2.31,.33-.71,.85-1.21,1.54-1.47,.69-.27,1.51-.11,2.45,.47,1.38,.89,3.12,1.7,5.19,2.41,2.08,.71,4.61,1.07,7.6,1.07,3.62,0,6.26-.68,7.94-2.04,1.67-1.36,2.51-3.09,2.51-5.19,0-1.74-.6-3.14-1.81-4.19-1.21-1.05-3.24-1.89-6.1-2.51l-6.9-1.47c-8.04-1.74-12.06-5.92-12.06-12.53,0-2.55,.59-4.8,1.78-6.77,1.18-1.96,2.85-3.57,4.99-4.82,2.14-1.25,4.67-2.03,7.57-2.35v-5.23c0-.76,.26-1.41,.77-1.94,.51-.54,1.17-.8,1.98-.8,.76,0,1.41,.27,1.94,.8s.8,1.18,.8,1.94v5.23c1.92,.18,3.92,.65,6,1.41,2.08,.76,3.87,1.79,5.39,3.08,.67,.58,1.05,1.23,1.14,1.94,.09,.71-.04,1.37-.4,1.98-.36,.6-.89,.99-1.61,1.17-.72,.18-1.54-.02-2.48-.6-1.43-.98-3-1.76-4.72-2.35-1.72-.58-3.76-.87-6.13-.87-3.13,0-5.61,.74-7.44,2.21-1.83,1.47-2.75,3.4-2.75,5.76,0,1.79,.56,3.23,1.67,4.32,1.12,1.09,2.99,1.93,5.63,2.51l7.04,1.47c4.33,.94,7.51,2.4,9.55,4.39,2.03,1.99,3.05,4.59,3.05,7.81,0,3.71-1.3,6.73-3.89,9.08-2.59,2.35-5.94,3.76-10.05,4.25v5.29c0,.76-.26,1.41-.77,1.94-.51,.54-1.17,.8-1.98,.8Z"/>
    <path class="cls-1" d="M401.88,971.28c-2.01,0-3.01-.98-3.01-2.95s1-2.88,3.01-2.88h8.17v-33.43l-6.3,4.02c-.85,.54-1.64,.68-2.38,.44-.74-.24-1.3-.7-1.67-1.37-.38-.67-.49-1.4-.33-2.18,.16-.78,.66-1.44,1.51-1.98l9.25-5.83c.76-.45,1.48-.81,2.18-1.11,.69-.29,1.35-.44,1.98-.44,.76,0,1.4,.22,1.91,.67,.51,.45,.77,1.14,.77,2.08v39.13h7.5c2.05,0,3.08,.96,3.08,2.88s-1.03,2.95-3.08,2.95h-22.58Z"/>
    <path class="cls-1" d="M440.48,971.28c-2.28,0-3.42-1.05-3.42-3.15,0-1.12,.6-2.32,1.81-3.62l14.27-15.28c2.19-2.32,3.76-4.46,4.72-6.4,.96-1.94,1.44-3.9,1.44-5.86,0-5.09-2.99-7.64-8.98-7.64-1.79,0-3.52,.27-5.19,.8-1.68,.54-3.32,1.41-4.92,2.61-.8,.58-1.55,.77-2.24,.57-.69-.2-1.23-.64-1.61-1.31-.38-.67-.51-1.4-.4-2.18,.11-.78,.57-1.46,1.37-2.04,1.83-1.38,3.95-2.46,6.37-3.22,2.41-.76,4.87-1.14,7.37-1.14,4.87,0,8.61,1.12,11.22,3.35,2.61,2.23,3.92,5.43,3.92,9.58,0,2.81-.68,5.56-2.04,8.24-1.36,2.68-3.5,5.54-6.4,8.58l-11.73,12.26h19.5c2.05,0,3.08,.96,3.08,2.88s-1.03,2.95-3.08,2.95h-25.06Z"/>
    <path class="cls-1" d="M479.94,971.55c-1.34,0-2.4-.4-3.18-1.21-.78-.8-1.17-1.83-1.17-3.08s.39-2.27,1.17-3.05,1.84-1.17,3.18-1.17,2.32,.39,3.08,1.17c.76,.78,1.14,1.8,1.14,3.05s-.38,2.28-1.14,3.08c-.76,.8-1.79,1.21-3.08,1.21Z"/>
    <path class="cls-1" d="M507.88,971.88c-5.49,0-9.68-2.09-12.56-6.26-2.88-4.18-4.32-10.17-4.32-17.99s1.44-13.97,4.32-18.06,7.07-6.13,12.56-6.13,9.74,2.04,12.6,6.13c2.86,4.09,4.29,10.08,4.29,17.99s-1.44,13.88-4.32,18.06c-2.88,4.18-7.07,6.26-12.56,6.26Zm0-5.76c3.39,0,5.92-1.51,7.57-4.52,1.65-3.01,2.48-7.69,2.48-14.04s-.82-11.04-2.45-13.97c-1.63-2.92-4.17-4.39-7.6-4.39s-5.92,1.47-7.57,4.42c-1.65,2.95-2.48,7.59-2.48,13.94s.83,11.02,2.48,14.04c1.65,3.02,4.18,4.52,7.57,4.52Z"/>
    <path class="cls-1" d="M548.08,971.88c-5.49,0-9.68-2.09-12.56-6.26-2.88-4.18-4.32-10.17-4.32-17.99s1.44-13.97,4.32-18.06,7.07-6.13,12.56-6.13,9.74,2.04,12.6,6.13,4.29,10.08,4.29,17.99-1.44,13.88-4.32,18.06c-2.88,4.18-7.07,6.26-12.56,6.26Zm0-5.76c3.39,0,5.92-1.51,7.57-4.52,1.65-3.01,2.48-7.69,2.48-14.04s-.82-11.04-2.45-13.97c-1.63-2.92-4.17-4.39-7.6-4.39s-5.92,1.47-7.57,4.42c-1.65,2.95-2.48,7.59-2.48,13.94s.83,11.02,2.48,14.04c1.65,3.02,4.18,4.52,7.57,4.52Z"/>
    <path class="cls-1" d="M605.96,971.88c-5.36,0-9.58-1.51-12.66-4.52-3.08-3.02-4.62-7.14-4.62-12.36,0-3.35,.68-6.31,2.04-8.88,1.36-2.57,3.25-4.57,5.66-6,2.41-1.43,5.18-2.14,8.31-2.14,4.51,0,8.06,1.44,10.65,4.32,2.59,2.88,3.89,6.85,3.89,11.89,0,1.52-.89,2.28-2.68,2.28h-21.31c.49,6.79,4.09,10.18,10.79,10.18,1.34,0,2.75-.17,4.22-.5,1.47-.33,2.9-.95,4.29-1.84,.94-.54,1.75-.73,2.45-.57,.69,.16,1.2,.54,1.51,1.14s.37,1.27,.17,2.01c-.2,.74-.73,1.37-1.58,1.91-1.52,1.03-3.29,1.8-5.33,2.31-2.03,.51-3.96,.77-5.8,.77Zm-1-29.15c-2.81,0-5.05,.87-6.7,2.61-1.65,1.74-2.66,4.07-3.01,6.97h18.29c-.13-3.04-.94-5.39-2.41-7.07-1.47-1.68-3.53-2.51-6.16-2.51Z"/>
    <path class="cls-1" d="M637.05,971.88c-2.28,0-4.31-.45-6.1-1.34-1.79-.89-3.21-2.1-4.25-3.62-1.05-1.52-1.57-3.24-1.57-5.16,0-2.41,.61-4.31,1.84-5.69,1.23-1.38,3.26-2.39,6.1-3.02,2.84-.62,6.67-.94,11.49-.94h2.28v-1.74c0-2.55-.54-4.38-1.61-5.49-1.07-1.12-2.84-1.68-5.29-1.68-1.43,0-2.91,.18-4.46,.54-1.54,.36-3.14,.96-4.79,1.81-.94,.45-1.71,.51-2.31,.2-.6-.31-1.02-.8-1.24-1.47-.22-.67-.2-1.36,.07-2.08,.27-.71,.83-1.25,1.67-1.61,1.96-.89,3.91-1.55,5.83-1.98,1.92-.42,3.73-.64,5.43-.64,4.47,0,7.77,1.06,9.92,3.18,2.14,2.12,3.22,5.44,3.22,9.95v17.22c0,2.28-1.05,3.42-3.15,3.42s-3.22-1.14-3.22-3.42v-2.48c-.8,1.88-2.05,3.35-3.75,4.42-1.7,1.07-3.73,1.61-6.1,1.61Zm1.34-4.82c2.41,0,4.42-.85,6.03-2.55,1.61-1.7,2.41-3.84,2.41-6.43v-1.81h-2.21c-3.26,0-5.82,.16-7.67,.47-1.85,.31-3.17,.84-3.95,1.57-.78,.74-1.17,1.75-1.17,3.05,0,1.7,.58,3.07,1.74,4.12,1.16,1.05,2.77,1.57,4.82,1.57Z"/>
    <path class="cls-1" d="M676.98,971.88c-3.35,0-6.24-.7-8.68-2.11-2.43-1.41-4.32-3.39-5.66-5.96-1.34-2.57-2.01-5.59-2.01-9.08,0-5.18,1.47-9.27,4.42-12.26,2.95-2.99,6.92-4.49,11.93-4.49,1.56,0,3.2,.23,4.92,.7,1.72,.47,3.32,1.24,4.79,2.31,.71,.45,1.13,1.02,1.24,1.71,.11,.69,0,1.34-.33,1.94s-.82,1-1.44,1.21c-.63,.2-1.34,.08-2.14-.37-1.07-.76-2.17-1.31-3.28-1.64-1.12-.33-2.19-.5-3.22-.5-3.17,0-5.62,.99-7.34,2.98-1.72,1.99-2.58,4.81-2.58,8.48s.86,6.53,2.58,8.61c1.72,2.08,4.17,3.12,7.34,3.12,1.03,0,2.09-.16,3.18-.47,1.09-.31,2.2-.85,3.32-1.61,.8-.45,1.51-.56,2.11-.33,.6,.22,1.05,.64,1.34,1.24,.29,.6,.38,1.25,.27,1.94-.11,.69-.53,1.26-1.24,1.71-1.43,1.03-2.98,1.76-4.66,2.21-1.67,.45-3.29,.67-4.86,.67Z"/>
    <path class="cls-1" d="M697.22,971.75c-2.23,0-3.35-1.14-3.35-3.42v-41.34c0-2.28,1.12-3.42,3.35-3.42s3.42,1.14,3.42,3.42v16.68c1.12-1.88,2.62-3.29,4.52-4.25,1.9-.96,4.03-1.44,6.4-1.44,7.73,0,11.59,4.38,11.59,13.13v17.22c0,2.28-1.12,3.42-3.35,3.42s-3.42-1.14-3.42-3.42v-16.82c0-2.81-.55-4.87-1.64-6.16-1.1-1.29-2.8-1.94-5.13-1.94-2.72,0-4.9,.86-6.53,2.58-1.63,1.72-2.45,3.99-2.45,6.8v15.54c0,2.28-1.14,3.42-3.42,3.42Z"/>
  </g>
  <g id="TipPBox">
    <rect class="cls-4" x="89.5" y="2014" width="520" height="168" rx="60" ry="60"/>
  </g>
  <g class="cls-2">
    <path class="cls-1" d="M167.06,2125.74c-2.38,0-3.57-1.1-3.57-3.29,0-1.17,.63-2.43,1.89-3.78l14.91-15.96c2.29-2.43,3.93-4.66,4.94-6.68,1-2.03,1.5-4.07,1.5-6.12,0-5.32-3.13-7.98-9.38-7.98-1.87,0-3.67,.28-5.42,.84-1.75,.56-3.47,1.47-5.15,2.73-.84,.61-1.62,.8-2.35,.59-.72-.21-1.28-.67-1.68-1.37-.4-.7-.54-1.46-.42-2.27,.12-.82,.6-1.53,1.44-2.14,1.91-1.45,4.13-2.57,6.65-3.36,2.52-.79,5.09-1.19,7.7-1.19,5.09,0,9,1.17,11.73,3.5,2.73,2.33,4.09,5.67,4.09,10.01,0,2.94-.71,5.81-2.13,8.61-1.42,2.8-3.65,5.79-6.69,8.96l-12.25,12.81h20.37c2.15,0,3.22,1,3.22,3.01s-1.07,3.08-3.22,3.08h-26.18Z"/>
    <path class="cls-1" d="M220.89,2126.37c-5.74,0-10.12-2.18-13.12-6.54-3.01-4.36-4.52-10.63-4.52-18.79s1.51-14.6,4.52-18.87c3.01-4.27,7.38-6.41,13.12-6.41s10.17,2.13,13.16,6.41c2.99,4.27,4.48,10.54,4.48,18.79s-1.51,14.5-4.52,18.87c-3.01,4.36-7.38,6.54-13.12,6.54Zm0-6.02c3.55,0,6.18-1.57,7.91-4.72,1.73-3.15,2.59-8.04,2.59-14.67s-.85-11.54-2.56-14.59c-1.7-3.06-4.35-4.58-7.94-4.58s-6.18,1.54-7.91,4.62c-1.73,3.08-2.59,7.93-2.59,14.56s.86,11.51,2.59,14.67c1.73,3.15,4.36,4.72,7.91,4.72Z"/>
    <path class="cls-1" d="M250.29,2126.02c-1.4,0-2.51-.42-3.32-1.26-.82-.84-1.23-1.91-1.23-3.22s.41-2.37,1.23-3.18c.82-.82,1.92-1.23,3.32-1.23s2.43,.41,3.22,1.23c.79,.82,1.19,1.88,1.19,3.18s-.4,2.38-1.19,3.22c-.79,.84-1.87,1.26-3.22,1.26Z"/>
    <path class="cls-1" d="M279.48,2126.37c-5.74,0-10.12-2.18-13.12-6.54-3.01-4.36-4.52-10.63-4.52-18.79s1.51-14.6,4.52-18.87c3.01-4.27,7.38-6.41,13.12-6.41s10.17,2.13,13.16,6.41c2.99,4.27,4.48,10.54,4.48,18.79s-1.51,14.5-4.52,18.87c-3.01,4.36-7.38,6.54-13.12,6.54Zm0-6.02c3.55,0,6.18-1.57,7.91-4.72,1.73-3.15,2.59-8.04,2.59-14.67s-.85-11.54-2.56-14.59c-1.7-3.06-4.35-4.58-7.94-4.58s-6.18,1.54-7.91,4.62c-1.73,3.08-2.59,7.93-2.59,14.56s.86,11.51,2.59,14.67c1.73,3.15,4.36,4.72,7.91,4.72Z"/>
    <path class="cls-1" d="M316.16,2105.93c-3.83,0-6.81-1.34-8.96-4.02-2.15-2.68-3.22-6.38-3.22-11.1s1.08-8.4,3.25-11.06,5.15-3.99,8.93-3.99,6.75,1.33,8.92,3.99,3.25,6.35,3.25,11.06-1.07,8.41-3.22,11.1c-2.15,2.68-5.13,4.02-8.96,4.02Zm0-4.97c1.96,0,3.49-.84,4.58-2.52,1.1-1.68,1.65-4.22,1.65-7.63s-.55-5.95-1.65-7.63c-1.1-1.68-2.62-2.52-4.58-2.52s-3.49,.84-4.58,2.52c-1.1,1.68-1.65,4.22-1.65,7.63s.55,6.01,1.65,7.67c1.1,1.66,2.62,2.49,4.58,2.49Zm6.23,24.57c-.51,.89-1.13,1.4-1.85,1.54-.72,.14-1.4,.04-2.03-.32-.63-.35-1.06-.89-1.29-1.61-.23-.72-.09-1.53,.42-2.41l26.46-45.99c.51-.89,1.13-1.41,1.85-1.58,.72-.16,1.4-.06,2.03,.32,.63,.37,1.06,.91,1.29,1.61,.23,.7,.09,1.49-.42,2.38l-26.46,46.06Zm28,.84c-3.78,0-6.74-1.33-8.89-3.99-2.15-2.66-3.22-6.37-3.22-11.13s1.07-8.34,3.22-11.03c2.15-2.68,5.11-4.02,8.89-4.02s6.81,1.34,8.96,4.02c2.15,2.68,3.22,6.36,3.22,11.03s-1.07,8.47-3.22,11.13c-2.15,2.66-5.13,3.99-8.96,3.99Zm0-4.9c1.96,0,3.49-.84,4.58-2.52,1.1-1.68,1.64-4.25,1.64-7.7s-.55-5.88-1.64-7.56c-1.1-1.68-2.62-2.52-4.58-2.52s-3.49,.83-4.58,2.49c-1.1,1.66-1.65,4.19-1.65,7.59s.55,6.02,1.65,7.7c1.1,1.68,2.62,2.52,4.58,2.52Z"/>
    <path class="cls-1" d="M404.08,2126.37c-4.29,0-7.49-1.1-9.59-3.29-2.1-2.19-3.15-5.37-3.15-9.52v-16.52h-4.2c-1.96,0-2.94-.91-2.94-2.73s.98-2.73,2.94-2.73h4.2v-7.21c0-2.38,1.19-3.57,3.57-3.57s3.5,1.19,3.5,3.57v7.21h8.19c1.96,0,2.94,.91,2.94,2.73s-.98,2.73-2.94,2.73h-8.19v15.96c0,2.47,.52,4.34,1.57,5.6,1.05,1.26,2.77,1.89,5.15,1.89,.84,0,1.56-.08,2.17-.25,.61-.16,1.14-.27,1.61-.32,.51,0,.93,.18,1.26,.53,.33,.35,.49,1.01,.49,2,0,.75-.13,1.41-.39,2-.26,.58-.71,.97-1.36,1.15-.56,.23-1.32,.42-2.28,.56-.96,.14-1.81,.21-2.55,.21Z"/>
    <path class="cls-1" d="M419.2,2083.95c-1.4,0-2.48-.35-3.25-1.05-.77-.7-1.16-1.68-1.16-2.94,0-2.66,1.47-3.99,4.41-3.99s4.41,1.33,4.41,3.99-1.47,3.99-4.41,3.99Zm0,42.21c-2.33,0-3.5-1.28-3.5-3.85v-27.3c0-2.52,1.17-3.78,3.5-3.78s3.57,1.26,3.57,3.78v27.3c0,2.57-1.19,3.85-3.57,3.85Z"/>
    <path class="cls-1" d="M436.21,2138.83c-2.33,0-3.5-1.19-3.5-3.57v-40.6c0-2.38,1.14-3.57,3.43-3.57s3.5,1.19,3.5,3.57v2.66c1.03-1.96,2.54-3.51,4.55-4.66,2.01-1.14,4.29-1.71,6.86-1.71,3.03,0,5.68,.72,7.95,2.17,2.26,1.45,4.01,3.49,5.25,6.12,1.24,2.64,1.86,5.77,1.86,9.42s-.62,6.79-1.86,9.45c-1.24,2.66-2.99,4.7-5.25,6.12-2.26,1.42-4.91,2.13-7.95,2.13-2.52,0-4.77-.55-6.75-1.65-1.98-1.1-3.49-2.6-4.51-4.51v15.05c0,2.38-1.19,3.57-3.57,3.57Zm13.09-17.92c2.94,0,5.29-1.05,7.04-3.15,1.75-2.1,2.62-5.13,2.62-9.1s-.88-6.99-2.62-9.07c-1.75-2.08-4.09-3.11-7.04-3.11s-5.28,1.04-7.03,3.11c-1.75,2.08-2.62,5.1-2.62,9.07s.88,7,2.62,9.1c1.75,2.1,4.09,3.15,7.03,3.15Z"/>
  </g>
  <g id="MoreTipPBox">
    <rect class="cls-6" x="825.5" y="2014" width="168" height="168" rx="60" ry="60"/>
  </g>
  <g id="LessTipPBox">
    <rect class="cls-6" x="640.5" y="2014" width="168" height="168" rx="60" ry="60"/>
  </g>
  <path id="MoreTipPIcon" class="cls-3" d="M952.36,2105.14h-35.71v35.71c0,3.93-3.21,7.14-7.14,7.14s-7.14-3.21-7.14-7.14v-35.71h-35.71c-3.93,0-7.14-3.21-7.14-7.14s3.21-7.14,7.14-7.14h35.71v-35.71c0-3.93,3.21-7.14,7.14-7.14s7.14,3.21,7.14,7.14v35.71h35.71c3.93,0,7.14,3.21,7.14,7.14s-3.21,7.14-7.14,7.14Z"/>
  <path id="LessTipPIcon" class="cls-3" d="M767.36,2105.14h-85.71c-3.93,0-7.14-3.21-7.14-7.14s3.21-7.14,7.14-7.14h85.71c3.93,0,7.14,3.21,7.14,7.14s-3.21,7.14-7.14,7.14Z"/>
  <g id="PeopleBox">
    <rect class="cls-4" x="90" y="1808.93" width="520" height="168" rx="60" ry="60"/>
  </g>
  <g class="cls-2">
    <path class="cls-1" d="M180.26,1921.29c-2.61,0-5.21-.36-7.81-1.08-2.59-.72-4.96-1.85-7.1-3.4-.89-.56-1.41-1.26-1.57-2.1-.16-.84-.05-1.6,.35-2.28,.4-.68,.98-1.14,1.75-1.4,.77-.26,1.62-.08,2.56,.52,3.59,2.38,7.49,3.57,11.69,3.57,3.22,0,5.74-.88,7.56-2.62s2.73-4.05,2.73-6.89-.86-5.34-2.59-7.21c-1.73-1.87-4.13-2.8-7.21-2.8-1.77,0-3.44,.31-5,.94-1.56,.63-3.02,1.67-4.38,3.12-.37,.37-.83,.71-1.37,1.01-.54,.3-1.11,.46-1.71,.46-2.01,0-3.01-.96-3.01-2.87v-23.73c0-2.15,1.07-3.22,3.22-3.22h23.45c2.15,0,3.22,1,3.22,3.01s-1.07,3.08-3.22,3.08h-19.6v15.61c2.61-2.29,5.93-3.43,9.94-3.43,3.13,0,5.83,.65,8.12,1.96,2.29,1.31,4.06,3.14,5.32,5.5,1.26,2.36,1.89,5.1,1.89,8.23s-.7,5.96-2.1,8.36c-1.4,2.4-3.38,4.28-5.95,5.64-2.57,1.35-5.62,2.03-9.17,2.03Z"/>
    <path class="cls-1" d="M227.44,1933.75c-2.33,0-3.5-1.19-3.5-3.57v-40.6c0-2.38,1.14-3.57,3.43-3.57s3.5,1.19,3.5,3.57v2.66c1.03-1.96,2.54-3.51,4.55-4.66,2.01-1.14,4.29-1.71,6.86-1.71,3.03,0,5.68,.72,7.94,2.17,2.26,1.45,4.01,3.49,5.25,6.12,1.24,2.64,1.85,5.78,1.85,9.42s-.62,6.79-1.85,9.45c-1.24,2.66-2.99,4.7-5.25,6.12-2.26,1.42-4.91,2.13-7.94,2.13-2.52,0-4.77-.55-6.75-1.64-1.98-1.1-3.49-2.6-4.52-4.52v15.05c0,2.38-1.19,3.57-3.57,3.57Zm13.09-17.92c2.94,0,5.29-1.05,7.04-3.15,1.75-2.1,2.62-5.13,2.62-9.1s-.88-6.99-2.62-9.07c-1.75-2.08-4.1-3.11-7.04-3.11s-5.29,1.04-7.04,3.11c-1.75,2.08-2.62,5.1-2.62,9.07s.88,7,2.62,9.1c1.75,2.1,4.1,3.15,7.04,3.15Z"/>
    <path class="cls-1" d="M281.34,1921.29c-5.6,0-10.01-1.57-13.23-4.72s-4.83-7.46-4.83-12.92c0-3.5,.71-6.59,2.14-9.28,1.42-2.68,3.4-4.77,5.92-6.26,2.52-1.49,5.41-2.24,8.68-2.24,4.71,0,8.42,1.5,11.13,4.52,2.71,3.01,4.06,7.15,4.06,12.42,0,1.59-.93,2.38-2.8,2.38h-22.26c.51,7.09,4.27,10.64,11.27,10.64,1.4,0,2.87-.17,4.41-.52,1.54-.35,3.03-.99,4.48-1.93,.98-.56,1.83-.76,2.56-.59,.72,.16,1.25,.56,1.57,1.19,.33,.63,.39,1.33,.18,2.1s-.76,1.44-1.65,2c-1.59,1.07-3.44,1.88-5.56,2.42-2.12,.54-4.14,.8-6.06,.8Zm-1.05-30.45c-2.94,0-5.27,.91-7,2.73-1.73,1.82-2.78,4.25-3.15,7.28h19.11c-.14-3.17-.98-5.63-2.52-7.38s-3.69-2.62-6.44-2.62Z"/>
    <path class="cls-1" d="M317.74,1921.29c-3.45,0-6.44-.72-8.96-2.17-2.52-1.45-4.47-3.49-5.85-6.12-1.38-2.64-2.06-5.78-2.06-9.42s.69-6.78,2.06-9.42c1.38-2.64,3.33-4.68,5.85-6.12,2.52-1.45,5.51-2.17,8.96-2.17s6.3,.72,8.82,2.17c2.52,1.45,4.48,3.49,5.88,6.12,1.4,2.64,2.1,5.78,2.1,9.42s-.7,6.78-2.1,9.42c-1.4,2.64-3.36,4.68-5.88,6.12-2.52,1.45-5.46,2.17-8.82,2.17Zm0-5.46c2.89,0,5.23-1.05,7-3.15,1.77-2.1,2.66-5.13,2.66-9.1s-.89-6.99-2.66-9.07c-1.77-2.08-4.11-3.11-7-3.11s-5.3,1.04-7.07,3.11c-1.77,2.08-2.66,5.1-2.66,9.07s.89,7,2.66,9.1c1.77,2.1,4.13,3.15,7.07,3.15Z"/>
    <path class="cls-1" d="M345.95,1933.75c-2.33,0-3.5-1.19-3.5-3.57v-40.6c0-2.38,1.14-3.57,3.43-3.57s3.5,1.19,3.5,3.57v2.66c1.03-1.96,2.54-3.51,4.55-4.66,2.01-1.14,4.29-1.71,6.86-1.71,3.03,0,5.68,.72,7.95,2.17,2.26,1.45,4.01,3.49,5.25,6.12,1.24,2.64,1.86,5.78,1.86,9.42s-.62,6.79-1.86,9.45c-1.24,2.66-2.99,4.7-5.25,6.12-2.26,1.42-4.91,2.13-7.95,2.13-2.52,0-4.77-.55-6.75-1.64s-3.49-2.6-4.51-4.52v15.05c0,2.38-1.19,3.57-3.57,3.57Zm13.09-17.92c2.94,0,5.29-1.05,7.04-3.15,1.75-2.1,2.62-5.13,2.62-9.1s-.88-6.99-2.62-9.07c-1.75-2.08-4.09-3.11-7.04-3.11s-5.28,1.04-7.03,3.11c-1.75,2.08-2.62,5.1-2.62,9.07s.88,7,2.62,9.1c1.75,2.1,4.09,3.15,7.03,3.15Z"/>
    <path class="cls-1" d="M394.81,1921.29c-3.64,0-6.38-1.05-8.22-3.15-1.84-2.1-2.77-5.18-2.77-9.24v-34.51c0-2.38,1.17-3.57,3.5-3.57s3.57,1.19,3.57,3.57v34.09c0,4.62,1.87,6.93,5.6,6.93,.42,0,.79-.02,1.12-.07,.33-.05,.65-.07,.98-.07,.56-.05,.96,.1,1.19,.46,.23,.35,.35,1.06,.35,2.13,0,1.91-.89,3.01-2.66,3.29-.47,.05-.92,.08-1.37,.1-.44,.02-.88,.04-1.29,.04Z"/>
    <path class="cls-1" d="M420.92,1921.29c-5.6,0-10.01-1.57-13.23-4.72-3.22-3.15-4.83-7.46-4.83-12.92,0-3.5,.71-6.59,2.13-9.28,1.42-2.68,3.39-4.77,5.92-6.26,2.52-1.49,5.41-2.24,8.68-2.24,4.71,0,8.42,1.5,11.13,4.52,2.71,3.01,4.06,7.15,4.06,12.42,0,1.59-.93,2.38-2.8,2.38h-22.26c.51,7.09,4.27,10.64,11.27,10.64,1.4,0,2.87-.17,4.41-.52,1.54-.35,3.03-.99,4.48-1.93,.98-.56,1.83-.76,2.55-.59,.72,.16,1.25,.56,1.58,1.19,.33,.63,.38,1.33,.17,2.1s-.76,1.44-1.64,2c-1.59,1.07-3.44,1.88-5.57,2.42-2.12,.54-4.14,.8-6.05,.8Zm-1.05-30.45c-2.94,0-5.27,.91-7,2.73-1.73,1.82-2.78,4.25-3.15,7.28h19.11c-.14-3.17-.98-5.63-2.52-7.38s-3.69-2.62-6.44-2.62Z"/>
  </g>
  <g id="MorePeopleBox">
    <rect class="cls-6" x="826" y="1808.93" width="168" height="168" rx="60" ry="60"/>
  </g>
  <g id="LessPeopleBox">
    <rect class="cls-6" x="641" y="1808.93" width="168" height="168" rx="60" ry="60"/>
  </g>
  <path id="MorePeopleIcon" class="cls-3" d="M952.86,1900.07h-35.71v35.71c0,3.93-3.21,7.14-7.14,7.14s-7.14-3.21-7.14-7.14v-35.71h-35.71c-3.93,0-7.14-3.21-7.14-7.14s3.21-7.14,7.14-7.14h35.71v-35.71c0-3.93,3.21-7.14,7.14-7.14s7.14,3.21,7.14,7.14v35.71h35.71c3.93,0,7.14,3.21,7.14,7.14s-3.21,7.14-7.14,7.14Z"/>
  <path id="LessPeopleIcon" class="cls-3" d="M767.86,1900.07h-85.71c-3.93,0-7.14-3.21-7.14-7.14s3.21-7.14,7.14-7.14h85.71c3.93,0,7.14,3.21,7.14,7.14s-3.21,7.14-7.14,7.14Z"/>
  <g>
    <path class="cls-1" d="M159.08,872.38c-1.82,0-3.32-.61-4.48-1.82-1.17-1.22-1.75-2.69-1.75-4.41v-11.55c-6.38-.41-12.16-1.44-17.33-3.12s-9.53-3.72-13.07-6.16c-1.82-1.11-2.96-2.61-3.42-4.48-.46-1.87-.3-3.62,.46-5.24,.76-1.62,1.92-2.74,3.5-3.34,1.57-.61,3.42-.25,5.55,1.06,3.14,2.03,7.07,3.85,11.78,5.47,4.71,1.62,10.46,2.43,17.25,2.43,8.21,0,14.21-1.54,18.01-4.64,3.8-3.09,5.7-7.02,5.7-11.78,0-3.95-1.37-7.12-4.1-9.5-2.74-2.38-7.35-4.28-13.83-5.7l-15.66-3.34c-18.24-3.95-27.36-13.43-27.36-28.42,0-5.78,1.34-10.89,4.03-15.35,2.68-4.46,6.46-8.11,11.32-10.94,4.86-2.84,10.59-4.61,17.18-5.32v-11.86c0-1.72,.58-3.19,1.75-4.41,1.16-1.22,2.66-1.82,4.48-1.82,1.72,0,3.19,.61,4.41,1.82,1.22,1.22,1.82,2.69,1.82,4.41v11.86c4.36,.41,8.89,1.47,13.6,3.19,4.71,1.72,8.79,4.05,12.24,6.99,1.52,1.32,2.38,2.79,2.58,4.41,.2,1.62-.1,3.12-.91,4.48-.81,1.37-2.03,2.26-3.65,2.66-1.62,.41-3.5-.05-5.62-1.37-3.24-2.23-6.82-4-10.72-5.32-3.9-1.32-8.54-1.98-13.91-1.98-7.09,0-12.72,1.67-16.87,5.02-4.16,3.34-6.23,7.7-6.23,13.07,0,4.05,1.27,7.32,3.8,9.8,2.53,2.48,6.79,4.38,12.77,5.7l15.96,3.34c9.83,2.13,17.05,5.45,21.66,9.96,4.61,4.51,6.92,10.41,6.92,17.71,0,8.41-2.94,15.28-8.82,20.6-5.88,5.32-13.48,8.54-22.8,9.65v12.01c0,1.72-.58,3.19-1.75,4.41-1.17,1.22-2.66,1.82-4.48,1.82Z"/>
    <path class="cls-1" d="M252.56,855.21c-12.97,0-22.98-4.61-30.02-13.83-7.04-9.22-10.56-22.14-10.56-38.76,0-18.34,3.95-32.48,11.86-42.41,7.9-9.93,18.85-14.9,32.83-14.9,4.46,0,9.09,.79,13.91,2.36,4.81,1.57,9.2,3.93,13.15,7.07,1.62,1.12,2.53,2.56,2.74,4.33,.2,1.77-.1,3.4-.91,4.86-.81,1.47-2,2.46-3.57,2.96-1.57,.51-3.32,.1-5.24-1.22-3.45-2.53-6.87-4.33-10.26-5.4-3.4-1.06-6.76-1.6-10.11-1.6-9.42,0-16.64,3.42-21.66,10.26-5.02,6.84-7.52,17.05-7.52,30.63v6.08c2.03-6.18,5.55-11.02,10.56-14.52,5.02-3.5,10.82-5.24,17.4-5.24s11.83,1.47,16.64,4.41c4.81,2.94,8.59,6.97,11.32,12.08,2.74,5.12,4.1,10.97,4.1,17.56s-1.47,13-4.41,18.32c-2.94,5.32-7.02,9.48-12.24,12.46-5.22,2.99-11.22,4.48-18.01,4.48Zm-.91-12.77c6.18,0,11.2-2.03,15.05-6.08,3.85-4.05,5.78-9.32,5.78-15.81s-1.93-11.75-5.78-15.81c-3.85-4.05-8.87-6.08-15.05-6.08s-11.2,2.03-15.05,6.08c-3.85,4.05-5.78,9.32-5.78,15.81s1.92,11.76,5.78,15.81c3.85,4.05,8.87,6.08,15.05,6.08Z"/>
    <path class="cls-1" d="M339.96,855.21c-12.46,0-21.96-4.74-28.5-14.21-6.54-9.47-9.8-23.08-9.8-40.81s3.27-31.69,9.8-40.96,16.04-13.91,28.5-13.91,22.09,4.64,28.58,13.91c6.48,9.27,9.73,22.88,9.73,40.81s-3.27,31.49-9.8,40.96c-6.54,9.48-16.04,14.21-28.5,14.21Zm0-13.07c7.7,0,13.43-3.42,17.18-10.26,3.75-6.84,5.62-17.45,5.62-31.84s-1.85-25.05-5.55-31.69c-3.7-6.64-9.45-9.96-17.25-9.96s-13.43,3.34-17.18,10.03c-3.75,6.69-5.62,17.23-5.62,31.62s1.87,25,5.62,31.84c3.75,6.84,9.47,10.26,17.18,10.26Z"/>
    <path class="cls-1" d="M403.8,854.45c-3.04,0-5.45-.91-7.22-2.74-1.77-1.82-2.66-4.15-2.66-6.99s.89-5.14,2.66-6.92c1.77-1.77,4.18-2.66,7.22-2.66s5.27,.89,6.99,2.66c1.72,1.77,2.58,4.08,2.58,6.92s-.86,5.17-2.58,6.99c-1.72,1.82-4.05,2.74-6.99,2.74Z"/>
    <path class="cls-1" d="M467.18,855.21c-12.46,0-21.96-4.74-28.5-14.21-6.54-9.47-9.8-23.08-9.8-40.81s3.27-31.69,9.8-40.96,16.04-13.91,28.5-13.91,22.09,4.64,28.58,13.91c6.48,9.27,9.73,22.88,9.73,40.81s-3.27,31.49-9.8,40.96c-6.54,9.48-16.04,14.21-28.5,14.21Zm0-13.07c7.7,0,13.43-3.42,17.18-10.26,3.75-6.84,5.62-17.45,5.62-31.84s-1.85-25.05-5.55-31.69c-3.7-6.64-9.45-9.96-17.25-9.96s-13.43,3.34-17.18,10.03c-3.75,6.69-5.62,17.23-5.62,31.62s1.87,25,5.62,31.84c3.75,6.84,9.47,10.26,17.18,10.26Z"/>
    <path class="cls-1" d="M558.38,855.21c-12.46,0-21.96-4.74-28.5-14.21-6.54-9.47-9.8-23.08-9.8-40.81s3.27-31.69,9.8-40.96,16.04-13.91,28.5-13.91,22.09,4.64,28.58,13.91c6.48,9.27,9.73,22.88,9.73,40.81s-3.27,31.49-9.8,40.96c-6.54,9.48-16.04,14.21-28.5,14.21Zm0-13.07c7.7,0,13.43-3.42,17.18-10.26,3.75-6.84,5.62-17.45,5.62-31.84s-1.85-25.05-5.55-31.69c-3.7-6.64-9.45-9.96-17.25-9.96s-13.43,3.34-17.18,10.03c-3.75,6.69-5.62,17.23-5.62,31.62s1.87,25,5.62,31.84c3.75,6.84,9.47,10.26,17.18,10.26Z"/>
    <path class="cls-1" d="M686.51,855.21c-9.32,0-16.26-2.38-20.82-7.14-4.56-4.76-6.84-11.65-6.84-20.67v-35.87h-9.12c-4.26,0-6.38-1.98-6.38-5.93s2.13-5.93,6.38-5.93h9.12v-15.66c0-5.17,2.58-7.75,7.75-7.75s7.6,2.58,7.6,7.75v15.66h17.78c4.26,0,6.38,1.98,6.38,5.93s-2.13,5.93-6.38,5.93h-17.78v34.66c0,5.37,1.14,9.42,3.42,12.16,2.28,2.74,6,4.1,11.17,4.1,1.82,0,3.39-.18,4.71-.53,1.32-.35,2.48-.58,3.5-.68,1.11,0,2.03,.38,2.74,1.14,.71,.76,1.06,2.2,1.06,4.33,0,1.62-.28,3.07-.84,4.33-.56,1.27-1.55,2.1-2.96,2.51-1.22,.51-2.86,.91-4.94,1.22-2.08,.3-3.93,.46-5.55,.46Z"/>
    <path class="cls-1" d="M741.84,855.21c-7.5,0-13.98-1.57-19.46-4.71-5.47-3.14-9.7-7.57-12.69-13.3-2.99-5.72-4.48-12.54-4.48-20.44s1.49-14.72,4.48-20.44c2.99-5.72,7.22-10.16,12.69-13.3,5.47-3.14,11.96-4.71,19.46-4.71s13.68,1.57,19.15,4.71c5.47,3.14,9.73,7.58,12.77,13.3,3.04,5.73,4.56,12.54,4.56,20.44s-1.52,14.72-4.56,20.44c-3.04,5.73-7.3,10.16-12.77,13.3-5.47,3.14-11.86,4.71-19.15,4.71Zm0-11.86c6.28,0,11.35-2.28,15.2-6.84,3.85-4.56,5.78-11.15,5.78-19.76s-1.93-15.17-5.78-19.68c-3.85-4.51-8.92-6.76-15.2-6.76s-11.5,2.26-15.35,6.76c-3.85,4.51-5.78,11.07-5.78,19.68s1.92,15.2,5.78,19.76c3.85,4.56,8.97,6.84,15.35,6.84Z"/>
    <path class="cls-1" d="M826.35,855.21c-9.32,0-16.26-2.38-20.82-7.14-4.56-4.76-6.84-11.65-6.84-20.67v-35.87h-9.12c-4.26,0-6.38-1.98-6.38-5.93s2.13-5.93,6.38-5.93h9.12v-15.66c0-5.17,2.58-7.75,7.75-7.75s7.6,2.58,7.6,7.75v15.66h17.78c4.26,0,6.38,1.98,6.38,5.93s-2.13,5.93-6.38,5.93h-17.78v34.66c0,5.37,1.14,9.42,3.42,12.16,2.28,2.74,6,4.1,11.17,4.1,1.82,0,3.39-.18,4.71-.53,1.32-.35,2.48-.58,3.5-.68,1.11,0,2.03,.38,2.74,1.14,.71,.76,1.06,2.2,1.06,4.33,0,1.62-.28,3.07-.84,4.33-.56,1.27-1.55,2.1-2.96,2.51-1.22,.51-2.86,.91-4.94,1.22-2.08,.3-3.93,.46-5.55,.46Z"/>
    <path class="cls-1" d="M873.93,855.21c-5.17,0-9.78-1.01-13.83-3.04-4.05-2.03-7.27-4.76-9.65-8.21-2.38-3.44-3.57-7.35-3.57-11.7,0-5.47,1.39-9.78,4.18-12.92,2.79-3.14,7.4-5.42,13.83-6.84,6.43-1.42,15.12-2.13,26.07-2.13h5.17v-3.95c0-5.78-1.22-9.93-3.65-12.46-2.43-2.53-6.44-3.8-12.01-3.8-3.24,0-6.61,.41-10.11,1.22-3.5,.81-7.12,2.18-10.87,4.1-2.13,1.01-3.88,1.17-5.24,.46-1.37-.71-2.31-1.82-2.81-3.34-.51-1.52-.46-3.09,.15-4.71,.61-1.62,1.87-2.84,3.8-3.65,4.46-2.03,8.87-3.52,13.22-4.48,4.36-.96,8.46-1.44,12.31-1.44,10.13,0,17.63,2.41,22.5,7.22,4.86,4.81,7.3,12.34,7.3,22.57v39.06c0,5.17-2.38,7.75-7.14,7.75s-7.3-2.58-7.3-7.75v-5.62c-1.82,4.26-4.66,7.6-8.51,10.03-3.85,2.43-8.46,3.65-13.83,3.65Zm3.04-10.94c5.47,0,10.03-1.92,13.68-5.78,3.65-3.85,5.47-8.71,5.47-14.59v-4.1h-5.02c-7.4,0-13.2,.36-17.4,1.06-4.21,.71-7.2,1.9-8.97,3.57-1.77,1.67-2.66,3.98-2.66,6.92,0,3.85,1.32,6.97,3.95,9.35,2.63,2.38,6.28,3.57,10.94,3.57Z"/>
    <path class="cls-1" d="M955.7,855.21c-7.9,0-13.86-2.28-17.86-6.84-4-4.56-6-11.25-6-20.06v-74.94c0-5.17,2.53-7.75,7.6-7.75s7.75,2.58,7.75,7.75v74.02c0,10.03,4.05,15.05,12.16,15.05,.91,0,1.72-.05,2.43-.15,.71-.1,1.42-.15,2.13-.15,1.22-.1,2.08,.23,2.58,.99,.51,.76,.76,2.31,.76,4.64,0,4.16-1.93,6.54-5.78,7.14-1.01,.1-2,.18-2.96,.23-.96,.05-1.9,.08-2.81,.08Z"/>
  </g>
  <g id="InputBox">
    <rect class="cls-6" x="93" y="1611.5" width="895" height="163" rx="57.5" ry="57.5"/>
    <path class="cls-3" d="M930.5,1614c30.33,0,55,24.67,55,55v48c0,30.33-24.67,55-55,55H150.5c-30.33,0-55-24.67-55-55v-48c0-30.33,24.67-55,55-55H930.5m0-5H150.5c-33.14,0-60,26.86-60,60v48c0,33.14,26.86,60,60,60H930.5c33.14,0,60-26.86,60-60v-48c0-33.14-26.86-60-60-60h0Z"/>
  </g>
  <g>
    <path class="cls-1" d="M180.23,1721.45c-2.51,0-5.07-.33-7.67-.99-2.6-.66-4.99-1.68-7.17-3.05-1.14-.71-1.81-1.57-2.02-2.59-.21-1.02-.08-1.96,.39-2.84,.47-.88,1.17-1.47,2.09-1.78,.92-.31,1.98-.13,3.16,.53,1.75,.99,3.53,1.75,5.33,2.27,1.8,.52,3.72,.78,5.75,.78,2.98,0,5.31-.77,6.99-2.31,1.68-1.54,2.52-3.61,2.52-6.21s-.81-4.79-2.41-6.42c-1.61-1.63-3.81-2.45-6.6-2.45-1.52,0-2.98,.25-4.4,.75-1.42,.5-2.82,1.36-4.19,2.59-.43,.38-.97,.75-1.63,1.1-.66,.36-1.37,.53-2.13,.53-2.41,0-3.62-1.16-3.62-3.48v-23.22c0-2.65,1.32-3.98,3.98-3.98h23.36c2.65,0,3.98,1.25,3.98,3.76s-1.33,3.76-3.98,3.76h-18.46v13.56c2.51-1.89,5.58-2.84,9.23-2.84,3.17,0,5.93,.67,8.27,2.02,2.34,1.35,4.16,3.22,5.47,5.61,1.3,2.39,1.95,5.17,1.95,8.34s-.73,6.14-2.2,8.63c-1.47,2.49-3.56,4.43-6.28,5.82-2.72,1.4-5.95,2.09-9.69,2.09Z"/>
    <path class="cls-1" d="M222.4,1721.45c-5.92,0-10.44-2.24-13.56-6.71-3.12-4.47-4.69-10.85-4.69-19.13s1.56-14.74,4.69-19.1c3.12-4.35,7.64-6.53,13.56-6.53s10.5,2.18,13.6,6.53c3.1,4.36,4.65,10.7,4.65,19.03s-1.56,14.73-4.69,19.21c-3.12,4.47-7.65,6.71-13.56,6.71Zm0-7.46c3.22,0,5.6-1.49,7.14-4.47,1.54-2.98,2.31-7.64,2.31-13.99s-.77-10.95-2.31-13.81c-1.54-2.86-3.92-4.3-7.14-4.3s-5.54,1.43-7.1,4.3c-1.56,2.86-2.34,7.47-2.34,13.81s.78,11,2.34,13.99c1.56,2.98,3.93,4.47,7.1,4.47Z"/>
  </g>
</svg>