<?xml version="1.0" encoding="UTF-8"?>
<svg id="Unit_Conversion" data-name="Unit Conversion" xmlns="http://www.w3.org/2000/svg" viewBox="0 0 1080 2272">
  <defs>
    <style>
      .cls-1 {
        fill: #fff;
      }

      .cls-2 {
        fill: #9f58f2;
      }

      .cls-3 {
        fill: #0c0414;
      }

      .cls-4 {
        fill: #22283d;
      }
    </style>
  </defs>
  <rect id="Background" class="cls-3" width="1080" height="2272" rx="100" ry="100"/>
  <g>
    <path class="cls-1" d="M202.02,283.94c-8.16,0-14.23-2.08-18.22-6.25-3.99-4.17-5.99-10.2-5.99-18.09v-31.39h-7.98c-3.72,0-5.59-1.73-5.59-5.19s1.86-5.19,5.59-5.19h7.98v-13.7c0-4.52,2.26-6.78,6.78-6.78s6.65,2.26,6.65,6.78v13.7h15.56c3.72,0,5.59,1.73,5.59,5.19s-1.86,5.19-5.59,5.19h-15.56v30.32c0,4.7,1,8.25,2.99,10.64,1.99,2.39,5.25,3.59,9.78,3.59,1.6,0,2.97-.15,4.12-.47,1.15-.31,2.17-.51,3.06-.6,.97,0,1.77,.33,2.39,1,.62,.67,.93,1.93,.93,3.79,0,1.42-.25,2.68-.73,3.79-.49,1.11-1.35,1.84-2.59,2.19-1.06,.44-2.51,.8-4.32,1.06-1.82,.27-3.44,.4-4.85,.4Z"/>
    <path class="cls-1" d="M252.69,283.94c-10.64,0-19.02-2.99-25.14-8.98-6.12-5.99-9.18-14.16-9.18-24.54,0-6.65,1.35-12.52,4.06-17.62,2.7-5.1,6.45-9.06,11.24-11.9,4.79-2.84,10.28-4.26,16.49-4.26,8.95,0,16,2.86,21.15,8.58,5.14,5.72,7.71,13.59,7.71,23.61,0,3.02-1.77,4.52-5.32,4.52h-42.29c.97,13.48,8.11,20.22,21.41,20.22,2.66,0,5.45-.33,8.38-1,2.93-.67,5.76-1.88,8.51-3.66,1.86-1.06,3.48-1.44,4.85-1.13,1.37,.31,2.37,1.06,2.99,2.26,.62,1.2,.73,2.53,.33,3.99s-1.44,2.73-3.13,3.79c-3.02,2.04-6.54,3.57-10.57,4.59-4.04,1.02-7.87,1.53-11.5,1.53Zm-2-57.85c-5.59,0-10.02,1.73-13.3,5.19-3.28,3.46-5.28,8.07-5.98,13.83h36.31c-.27-6.03-1.86-10.71-4.79-14.03-2.93-3.33-7.01-4.99-12.24-4.99Z"/>
    <path class="cls-1" d="M300.57,283.67c-4.43,0-6.65-2.26-6.65-6.78v-53.2c0-4.52,2.17-6.78,6.52-6.78s6.52,2.26,6.52,6.78v4.65c1.95-3.72,4.65-6.6,8.11-8.65,3.46-2.04,7.49-3.06,12.1-3.06,9.93,0,16.36,4.35,19.29,13.03,2.04-4.08,4.96-7.27,8.78-9.58,3.81-2.3,8.16-3.46,13.03-3.46,14.54,0,21.81,8.69,21.81,26.07v34.18c0,4.52-2.26,6.78-6.78,6.78s-6.65-2.26-6.65-6.78v-33.52c0-5.5-.95-9.53-2.86-12.1-1.91-2.57-5.03-3.86-9.38-3.86-4.88,0-8.73,1.71-11.57,5.12-2.84,3.41-4.26,8.05-4.26,13.9v30.46c0,4.52-2.22,6.78-6.65,6.78s-6.78-2.26-6.78-6.78v-33.52c0-5.5-.93-9.53-2.79-12.1-1.86-2.57-4.97-3.86-9.31-3.86-4.88,0-8.71,1.71-11.5,5.12-2.79,3.41-4.19,8.05-4.19,13.9v30.46c0,4.52-2.26,6.78-6.78,6.78Z"/>
    <path class="cls-1" d="M415.48,307.61c-4.43,0-6.65-2.26-6.65-6.78v-77.14c0-4.52,2.17-6.78,6.52-6.78s6.65,2.26,6.65,6.78v5.05c1.95-3.72,4.83-6.67,8.65-8.84,3.81-2.17,8.16-3.26,13.03-3.26,5.76,0,10.79,1.38,15.1,4.12,4.3,2.75,7.62,6.63,9.98,11.64,2.35,5.01,3.52,10.97,3.52,17.89s-1.18,12.9-3.52,17.96c-2.35,5.05-5.68,8.93-9.98,11.64-4.3,2.71-9.33,4.06-15.1,4.06-4.79,0-9.07-1.04-12.83-3.13-3.77-2.08-6.63-4.94-8.58-8.58v28.59c0,4.52-2.26,6.78-6.78,6.78Zm24.87-34.05c5.59,0,10.04-2,13.37-5.99,3.32-3.99,4.99-9.75,4.99-17.29s-1.66-13.28-4.99-17.22c-3.33-3.94-7.78-5.92-13.37-5.92s-10.04,1.97-13.37,5.92c-3.33,3.95-4.99,9.69-4.99,17.22s1.66,13.3,4.99,17.29c3.32,3.99,7.78,5.99,13.37,5.99Z"/>
    <path class="cls-1" d="M517.89,283.94c-10.64,0-19.02-2.99-25.14-8.98-6.12-5.99-9.18-14.16-9.18-24.54,0-6.65,1.35-12.52,4.06-17.62,2.7-5.1,6.45-9.06,11.24-11.9,4.79-2.84,10.28-4.26,16.49-4.26,8.95,0,16,2.86,21.15,8.58,5.14,5.72,7.71,13.59,7.71,23.61,0,3.02-1.77,4.52-5.32,4.52h-42.29c.97,13.48,8.11,20.22,21.41,20.22,2.66,0,5.45-.33,8.38-1,2.93-.67,5.76-1.88,8.51-3.66,1.86-1.06,3.48-1.44,4.85-1.13,1.37,.31,2.37,1.06,2.99,2.26,.62,1.2,.73,2.53,.33,3.99-.4,1.46-1.44,2.73-3.13,3.79-3.02,2.04-6.54,3.57-10.57,4.59-4.04,1.02-7.87,1.53-11.5,1.53Zm-2-57.85c-5.59,0-10.02,1.73-13.3,5.19-3.28,3.46-5.28,8.07-5.98,13.83h36.31c-.27-6.03-1.86-10.71-4.79-14.03-2.93-3.33-7.01-4.99-12.24-4.99Z"/>
    <path class="cls-1" d="M565.64,283.67c-4.52,0-6.78-2.26-6.78-6.78v-53.2c0-4.52,2.17-6.78,6.52-6.78s6.52,2.26,6.52,6.78v5.72c1.77-3.99,4.46-7.05,8.05-9.18,3.59-2.13,7.96-3.37,13.1-3.72,3.28-.27,5.05,1.51,5.32,5.32,.35,3.9-1.55,6.03-5.72,6.38l-2.53,.27c-11.79,1.15-17.69,7.23-17.69,18.22v30.19c0,4.52-2.26,6.78-6.78,6.78Z"/>
    <path class="cls-1" d="M628.54,283.94c-4.52,0-8.56-.89-12.1-2.66-3.55-1.77-6.36-4.17-8.45-7.18-2.08-3.01-3.13-6.43-3.13-10.24,0-4.79,1.22-8.56,3.66-11.3,2.44-2.75,6.47-4.74,12.1-5.98,5.63-1.24,13.23-1.86,22.81-1.86h4.52v-3.46c0-5.05-1.06-8.69-3.19-10.91-2.13-2.22-5.63-3.33-10.51-3.33-2.84,0-5.79,.36-8.84,1.06-3.06,.71-6.23,1.91-9.51,3.59-1.86,.89-3.39,1.02-4.59,.4-1.2-.62-2.02-1.6-2.46-2.93-.44-1.33-.4-2.7,.13-4.12,.53-1.42,1.64-2.48,3.33-3.19,3.9-1.77,7.76-3.08,11.57-3.92,3.81-.84,7.4-1.26,10.77-1.26,8.87,0,15.43,2.11,19.68,6.32,4.26,4.21,6.38,10.8,6.38,19.75v34.18c0,4.52-2.08,6.78-6.25,6.78s-6.38-2.26-6.38-6.78v-4.92c-1.6,3.72-4.08,6.65-7.45,8.78-3.37,2.13-7.4,3.19-12.1,3.19Zm2.66-9.58c4.79,0,8.78-1.68,11.97-5.05,3.19-3.37,4.79-7.62,4.79-12.77v-3.59h-4.39c-6.47,0-11.55,.31-15.23,.93-3.68,.62-6.3,1.66-7.85,3.13-1.55,1.46-2.33,3.48-2.33,6.05,0,3.37,1.15,6.1,3.46,8.18,2.3,2.08,5.5,3.13,9.58,3.13Z"/>
    <path class="cls-1" d="M706.88,283.94c-8.16,0-14.23-2.08-18.22-6.25-3.99-4.17-5.98-10.2-5.98-18.09v-31.39h-7.98c-3.72,0-5.59-1.73-5.59-5.19s1.86-5.19,5.59-5.19h7.98v-13.7c0-4.52,2.26-6.78,6.78-6.78s6.65,2.26,6.65,6.78v13.7h15.56c3.72,0,5.59,1.73,5.59,5.19s-1.86,5.19-5.59,5.19h-15.56v30.32c0,4.7,1,8.25,2.99,10.64s5.25,3.59,9.78,3.59c1.6,0,2.97-.15,4.12-.47,1.15-.31,2.17-.51,3.06-.6,.97,0,1.77,.33,2.39,1,.62,.67,.93,1.93,.93,3.79,0,1.42-.25,2.68-.73,3.79-.49,1.11-1.35,1.84-2.59,2.19-1.06,.44-2.51,.8-4.32,1.06-1.82,.27-3.44,.4-4.85,.4Z"/>
    <path class="cls-1" d="M750.9,283.94c-15.69,0-23.54-8.73-23.54-26.2v-34.05c0-4.52,2.22-6.78,6.65-6.78s6.78,2.26,6.78,6.78v34.18c0,5.23,1.06,9.09,3.19,11.57,2.13,2.48,5.5,3.72,10.11,3.72,5.05,0,9.15-1.68,12.3-5.05,3.15-3.37,4.72-7.89,4.72-13.57v-30.86c0-4.52,2.26-6.78,6.78-6.78s6.65,2.26,6.65,6.78v53.2c0,4.52-2.17,6.78-6.52,6.78s-6.52-2.26-6.52-6.78v-4.52c-2.13,3.81-4.97,6.7-8.51,8.65-3.55,1.95-7.58,2.93-12.1,2.93Z"/>
    <path class="cls-1" d="M810.22,283.67c-4.52,0-6.78-2.26-6.78-6.78v-53.2c0-4.52,2.17-6.78,6.52-6.78s6.52,2.26,6.52,6.78v5.72c1.77-3.99,4.46-7.05,8.05-9.18,3.59-2.13,7.96-3.37,13.1-3.72,3.28-.27,5.05,1.51,5.32,5.32,.35,3.9-1.55,6.03-5.72,6.38l-2.53,.27c-11.79,1.15-17.69,7.23-17.69,18.22v30.19c0,4.52-2.26,6.78-6.78,6.78Z"/>
    <path class="cls-1" d="M882.57,283.94c-10.64,0-19.02-2.99-25.14-8.98-6.12-5.99-9.18-14.16-9.18-24.54,0-6.65,1.35-12.52,4.06-17.62,2.7-5.1,6.45-9.06,11.24-11.9,4.79-2.84,10.29-4.26,16.49-4.26,8.96,0,16,2.86,21.15,8.58,5.14,5.72,7.71,13.59,7.71,23.61,0,3.02-1.78,4.52-5.32,4.52h-42.29c.97,13.48,8.11,20.22,21.41,20.22,2.66,0,5.45-.33,8.38-1s5.76-1.88,8.51-3.66c1.86-1.06,3.48-1.44,4.85-1.13,1.37,.31,2.37,1.06,2.99,2.26,.62,1.2,.73,2.53,.33,3.99s-1.44,2.73-3.13,3.79c-3.01,2.04-6.54,3.57-10.57,4.59-4.04,1.02-7.87,1.53-11.5,1.53Zm-2-57.85c-5.59,0-10.02,1.73-13.3,5.19-3.28,3.46-5.28,8.07-5.99,13.83h36.31c-.27-6.03-1.86-10.71-4.79-14.03-2.93-3.33-7-4.99-12.24-4.99Z"/>
    <path class="cls-1" d="M253.22,399.94c-6.65,0-12.39-1.4-17.22-4.19-4.83-2.79-8.58-6.74-11.24-11.84-2.66-5.1-3.99-11.11-3.99-18.02,0-10.28,2.93-18.4,8.78-24.34,5.85-5.94,13.74-8.91,23.67-8.91,3.1,0,6.36,.47,9.78,1.4,3.41,.93,6.58,2.46,9.51,4.59,1.42,.89,2.24,2.02,2.46,3.39,.22,1.38,0,2.66-.67,3.86-.67,1.2-1.62,2-2.86,2.39-1.24,.4-2.66,.16-4.26-.73-2.13-1.51-4.3-2.59-6.52-3.26-2.22-.67-4.35-1-6.38-1-6.3,0-11.15,1.97-14.56,5.92-3.41,3.95-5.12,9.56-5.12,16.82s1.71,12.97,5.12,17.09c3.41,4.12,8.27,6.18,14.56,6.18,2.04,0,4.14-.31,6.32-.93,2.17-.62,4.37-1.68,6.58-3.19,1.6-.89,2.99-1.11,4.19-.67,1.2,.44,2.08,1.26,2.66,2.46,.58,1.2,.75,2.48,.53,3.86-.22,1.38-1.04,2.51-2.46,3.39-2.84,2.04-5.92,3.5-9.24,4.39-3.33,.89-6.54,1.33-9.64,1.33Z"/>
    <path class="cls-1" d="M313.6,399.94c-6.56,0-12.24-1.37-17.02-4.12-4.79-2.75-8.49-6.63-11.11-11.64-2.62-5.01-3.92-10.97-3.92-17.89s1.31-12.88,3.92-17.89c2.61-5.01,6.32-8.89,11.11-11.64,4.79-2.75,10.46-4.12,17.02-4.12s11.97,1.38,16.76,4.12c4.79,2.75,8.51,6.63,11.17,11.64,2.66,5.01,3.99,10.97,3.99,17.89s-1.33,12.88-3.99,17.89c-2.66,5.01-6.38,8.89-11.17,11.64-4.79,2.75-10.37,4.12-16.76,4.12Zm0-10.37c5.5,0,9.93-2,13.3-5.99,3.37-3.99,5.05-9.75,5.05-17.29s-1.69-13.28-5.05-17.22c-3.37-3.94-7.8-5.92-13.3-5.92s-10.06,1.97-13.43,5.92c-3.37,3.95-5.05,9.69-5.05,17.22s1.68,13.3,5.05,17.29c3.37,3.99,7.85,5.99,13.43,5.99Z"/>
    <path class="cls-1" d="M367.2,399.67c-4.43,0-6.65-2.26-6.65-6.78v-53.2c0-4.52,2.17-6.78,6.52-6.78s6.52,2.26,6.52,6.78v4.92c2.22-3.9,5.25-6.87,9.11-8.91,3.86-2.04,8.18-3.06,12.97-3.06,15.34,0,23.01,8.69,23.01,26.07v34.18c0,4.52-2.22,6.78-6.65,6.78s-6.78-2.26-6.78-6.78v-33.38c0-5.59-1.09-9.66-3.26-12.24-2.17-2.57-5.57-3.86-10.17-3.86-5.41,0-9.73,1.71-12.97,5.12-3.24,3.41-4.85,7.91-4.85,13.5v30.86c0,4.52-2.26,6.78-6.78,6.78Z"/>
    <path class="cls-1" d="M461.63,399.67c-3.72,0-6.47-2-8.25-5.99l-22.21-51.6c-1.06-2.39-1.11-4.52-.13-6.38,.97-1.86,2.97-2.79,5.98-2.79,1.6,0,2.9,.4,3.92,1.2,1.02,.8,1.93,2.17,2.73,4.12l18.22,44.95,18.62-44.95c.8-1.95,1.71-3.32,2.73-4.12,1.02-.8,2.46-1.2,4.32-1.2,2.39,0,4.03,.93,4.92,2.79,.89,1.86,.84,3.95-.13,6.25l-22.48,51.74c-1.69,3.99-4.44,5.99-8.25,5.99Z"/>
    <path class="cls-1" d="M534.91,399.94c-10.64,0-19.02-2.99-25.14-8.98-6.12-5.99-9.18-14.16-9.18-24.54,0-6.65,1.35-12.52,4.06-17.62,2.7-5.1,6.45-9.06,11.24-11.9,4.79-2.84,10.28-4.26,16.49-4.26,8.96,0,16,2.86,21.15,8.58,5.14,5.72,7.71,13.59,7.71,23.61,0,3.02-1.77,4.52-5.32,4.52h-42.29c.97,13.48,8.11,20.22,21.41,20.22,2.66,0,5.45-.33,8.38-1,2.93-.67,5.76-1.88,8.51-3.66,1.86-1.06,3.48-1.44,4.85-1.13,1.37,.31,2.37,1.06,2.99,2.26,.62,1.2,.73,2.53,.33,3.99-.4,1.46-1.44,2.73-3.12,3.79-3.02,2.04-6.54,3.57-10.57,4.59-4.04,1.02-7.87,1.53-11.5,1.53Zm-2-57.85c-5.59,0-10.02,1.73-13.3,5.19-3.28,3.46-5.28,8.07-5.98,13.83h36.31c-.27-6.03-1.86-10.71-4.79-14.03-2.93-3.33-7.01-4.99-12.24-4.99Z"/>
    <path class="cls-1" d="M582.66,399.67c-4.52,0-6.78-2.26-6.78-6.78v-53.2c0-4.52,2.17-6.78,6.52-6.78s6.52,2.26,6.52,6.78v5.72c1.77-3.99,4.46-7.05,8.05-9.18,3.59-2.13,7.96-3.37,13.1-3.72,3.28-.27,5.05,1.51,5.32,5.32,.35,3.9-1.55,6.03-5.72,6.38l-2.53,.27c-11.79,1.15-17.69,7.23-17.69,18.22v30.19c0,4.52-2.26,6.78-6.78,6.78Z"/>
    <path class="cls-1" d="M647.56,399.94c-3.9,0-7.94-.44-12.1-1.33-4.17-.89-7.94-2.39-11.3-4.52-1.51-.89-2.44-2-2.79-3.33-.36-1.33-.27-2.57,.27-3.72,.53-1.15,1.4-1.97,2.59-2.46,1.2-.49,2.55-.33,4.06,.47,3.46,1.86,6.78,3.19,9.97,3.99s6.34,1.2,9.44,1.2c4.7,0,8.25-.84,10.64-2.53,2.39-1.68,3.59-3.94,3.59-6.78,0-2.3-.8-4.1-2.39-5.39-1.6-1.28-3.99-2.28-7.18-2.99l-12.63-2.53c-11.17-2.3-16.76-8.07-16.76-17.29,0-6.12,2.44-10.99,7.32-14.63,4.88-3.63,11.26-5.45,19.15-5.45s14.85,1.95,20.62,5.85c1.42,.89,2.26,1.97,2.53,3.26,.27,1.29,.09,2.48-.53,3.59-.62,1.11-1.53,1.88-2.73,2.33-1.2,.44-2.59,.27-4.19-.53-2.66-1.6-5.32-2.77-7.98-3.52-2.66-.75-5.23-1.13-7.71-1.13-4.61,0-8.11,.86-10.51,2.59s-3.59,4.06-3.59,6.98c0,4.44,2.93,7.27,8.78,8.51l12.64,2.53c5.76,1.15,10.13,3.1,13.1,5.85,2.97,2.75,4.46,6.47,4.46,11.17,0,6.21-2.44,11.06-7.32,14.56-4.88,3.5-11.35,5.25-19.42,5.25Z"/>
    <path class="cls-1" d="M695.84,319.34c-2.66,0-4.72-.67-6.18-2s-2.19-3.19-2.19-5.59c0-5.05,2.79-7.58,8.38-7.58s8.38,2.53,8.38,7.58-2.79,7.58-8.38,7.58Zm0,80.2c-4.43,0-6.65-2.44-6.65-7.31v-51.87c0-4.79,2.21-7.18,6.65-7.18s6.78,2.39,6.78,7.18v51.87c0,4.88-2.26,7.31-6.78,7.31Z"/>
    <path class="cls-1" d="M749.71,399.94c-6.56,0-12.24-1.37-17.02-4.12-4.79-2.75-8.49-6.63-11.11-11.64-2.62-5.01-3.92-10.97-3.92-17.89s1.31-12.88,3.92-17.89c2.61-5.01,6.32-8.89,11.11-11.64,4.79-2.75,10.46-4.12,17.02-4.12s11.97,1.38,16.76,4.12c4.79,2.75,8.51,6.63,11.17,11.64,2.66,5.01,3.99,10.97,3.99,17.89s-1.33,12.88-3.99,17.89c-2.66,5.01-6.38,8.89-11.17,11.64-4.79,2.75-10.37,4.12-16.76,4.12Zm0-10.37c5.5,0,9.93-2,13.3-5.99,3.37-3.99,5.05-9.75,5.05-17.29s-1.69-13.28-5.05-17.22c-3.37-3.94-7.8-5.92-13.3-5.92s-10.06,1.97-13.43,5.92c-3.37,3.95-5.05,9.69-5.05,17.22s1.68,13.3,5.05,17.29c3.37,3.99,7.85,5.99,13.43,5.99Z"/>
    <path class="cls-1" d="M803.3,399.67c-4.43,0-6.65-2.26-6.65-6.78v-53.2c0-4.52,2.17-6.78,6.52-6.78s6.52,2.26,6.52,6.78v4.92c2.22-3.9,5.25-6.87,9.11-8.91,3.86-2.04,8.18-3.06,12.97-3.06,15.34,0,23.01,8.69,23.01,26.07v34.18c0,4.52-2.22,6.78-6.65,6.78s-6.78-2.26-6.78-6.78v-33.38c0-5.59-1.09-9.66-3.26-12.24-2.17-2.57-5.56-3.86-10.17-3.86-5.41,0-9.73,1.71-12.97,5.12-3.24,3.41-4.85,7.91-4.85,13.5v30.86c0,4.52-2.26,6.78-6.78,6.78Z"/>
  </g>
  <g>
    <path class="cls-1" d="M513.93,944.21c-5.68,0-11.32-.79-16.95-2.36-5.62-1.57-10.77-4.03-15.43-7.37-1.93-1.22-3.07-2.74-3.42-4.56-.36-1.82-.1-3.47,.76-4.94,.86-1.47,2.13-2.48,3.8-3.04,1.67-.56,3.52-.18,5.55,1.14,7.8,5.17,16.26,7.75,25.38,7.75,6.99,0,12.46-1.9,16.42-5.7,3.95-3.8,5.93-8.79,5.93-14.97s-1.88-11.6-5.62-15.66c-3.75-4.05-8.97-6.08-15.66-6.08-3.85,0-7.47,.68-10.87,2.05-3.4,1.37-6.56,3.62-9.5,6.76-.81,.81-1.8,1.55-2.96,2.2-1.17,.66-2.41,.99-3.72,.99-4.36,0-6.54-2.08-6.54-6.23v-51.53c0-4.66,2.33-6.99,6.99-6.99h50.92c4.66,0,6.99,2.18,6.99,6.54s-2.33,6.69-6.99,6.69h-42.56v33.9c5.67-4.96,12.87-7.45,21.58-7.45,6.79,0,12.67,1.42,17.63,4.26,4.96,2.84,8.82,6.82,11.55,11.93,2.74,5.12,4.1,11.07,4.1,17.86s-1.52,12.95-4.56,18.16c-3.04,5.22-7.35,9.3-12.92,12.24-5.57,2.94-12.21,4.41-19.91,4.41Z"/>
    <path class="cls-1" d="M586.44,880.06c-4.46,0-8.44-1.01-11.93-3.04-3.5-2.03-6.26-4.76-8.28-8.21-2.03-3.44-3.04-7.35-3.04-11.7s1.01-8.13,3.04-11.63c2.03-3.5,4.79-6.23,8.28-8.21,3.5-1.98,7.47-2.96,11.93-2.96s8.26,.99,11.7,2.96c3.44,1.98,6.18,4.69,8.21,8.13,2.03,3.45,3.04,7.35,3.04,11.7s-1.01,8.28-3.04,11.78c-2.03,3.5-4.77,6.23-8.21,8.21-3.45,1.98-7.35,2.96-11.7,2.96Zm0-9.42c3.75,0,6.81-1.27,9.2-3.8,2.38-2.53,3.57-5.78,3.57-9.73s-1.19-7.04-3.57-9.58c-2.38-2.53-5.45-3.8-9.2-3.8s-6.99,1.27-9.42,3.8c-2.43,2.53-3.65,5.73-3.65,9.58s1.22,7.2,3.65,9.73c2.43,2.53,5.57,3.8,9.42,3.8Z"/>
    <path class="cls-1" d="M193.22,1148.9c-5.57,0-8.36-2.79-8.36-8.36v-91.35c0-5.67,2.84-8.51,8.51-8.51h54.11c4.36,0,6.54,2.08,6.54,6.23,0,4.36-2.18,6.54-6.54,6.54h-46.82v34.2h43.78c4.36,0,6.54,2.08,6.54,6.23,0,4.36-2.18,6.54-6.54,6.54h-43.78v40.13c0,5.57-2.48,8.36-7.45,8.36Z"/>
    <path class="cls-1" d="M288.06,1149.21c-5.17,0-9.78-1.01-13.83-3.04-4.05-2.03-7.27-4.76-9.65-8.21-2.38-3.44-3.57-7.35-3.57-11.7,0-5.47,1.39-9.78,4.18-12.92,2.79-3.14,7.4-5.42,13.83-6.84,6.43-1.42,15.12-2.13,26.07-2.13h5.17v-3.95c0-5.78-1.22-9.93-3.65-12.46-2.43-2.53-6.44-3.8-12.01-3.8-3.24,0-6.61,.41-10.11,1.22-3.5,.81-7.12,2.18-10.87,4.1-2.13,1.01-3.88,1.17-5.24,.46-1.37-.71-2.31-1.82-2.81-3.34-.51-1.52-.46-3.09,.15-4.71,.61-1.62,1.87-2.84,3.8-3.65,4.46-2.03,8.87-3.52,13.22-4.48,4.36-.96,8.46-1.44,12.31-1.44,10.13,0,17.63,2.41,22.5,7.22,4.86,4.81,7.3,12.34,7.3,22.57v39.06c0,5.17-2.38,7.75-7.14,7.75s-7.3-2.58-7.3-7.75v-5.62c-1.82,4.26-4.66,7.6-8.51,10.03-3.85,2.43-8.46,3.65-13.83,3.65Zm3.04-10.94c5.47,0,10.03-1.92,13.68-5.78,3.65-3.85,5.47-8.71,5.47-14.59v-4.1h-5.02c-7.4,0-13.2,.36-17.4,1.06-4.21,.71-7.2,1.9-8.97,3.57-1.77,1.67-2.66,3.98-2.66,6.92,0,3.85,1.32,6.97,3.95,9.35,2.63,2.38,6.28,3.57,10.94,3.57Z"/>
    <path class="cls-1" d="M353.58,1148.9c-5.07,0-7.6-2.58-7.6-7.75v-93.78c0-5.17,2.53-7.75,7.6-7.75s7.75,2.58,7.75,7.75v37.85c2.53-4.26,5.95-7.47,10.26-9.65,4.31-2.18,9.14-3.27,14.52-3.27,17.53,0,26.3,9.93,26.3,29.79v39.06c0,5.17-2.53,7.75-7.6,7.75s-7.75-2.58-7.75-7.75v-38.15c0-6.38-1.24-11.04-3.72-13.98-2.48-2.94-6.36-4.41-11.63-4.41-6.18,0-11.12,1.95-14.82,5.85-3.7,3.9-5.55,9.04-5.55,15.43v35.26c0,5.17-2.58,7.75-7.75,7.75Z"/>
    <path class="cls-1" d="M441.28,1148.9c-5.17,0-7.75-2.58-7.75-7.75v-60.8c0-5.17,2.48-7.75,7.45-7.75s7.45,2.58,7.45,7.75v6.54c2.03-4.56,5.09-8.06,9.2-10.49s9.09-3.85,14.97-4.26c3.75-.3,5.78,1.72,6.08,6.08,.4,4.46-1.77,6.89-6.54,7.3l-2.89,.3c-13.48,1.32-20.22,8.26-20.22,20.82v34.5c0,5.17-2.58,7.75-7.75,7.75Z"/>
    <path class="cls-1" d="M523.96,1149.21c-12.16,0-21.74-3.42-28.73-10.26-6.99-6.84-10.49-16.19-10.49-28.04,0-7.6,1.54-14.31,4.64-20.14,3.09-5.83,7.37-10.36,12.84-13.6,5.47-3.24,11.75-4.86,18.85-4.86,10.23,0,18.29,3.27,24.17,9.8,5.88,6.54,8.82,15.53,8.82,26.98,0,3.45-2.03,5.17-6.08,5.17h-48.34c1.11,15.4,9.27,23.1,24.47,23.1,3.04,0,6.23-.38,9.58-1.14,3.34-.76,6.59-2.15,9.73-4.18,2.13-1.22,3.98-1.65,5.55-1.29,1.57,.36,2.71,1.22,3.42,2.58,.71,1.37,.84,2.89,.38,4.56-.46,1.67-1.65,3.12-3.57,4.33-3.45,2.33-7.47,4.08-12.08,5.24-4.61,1.16-8.99,1.75-13.15,1.75Zm-2.28-66.12c-6.38,0-11.45,1.98-15.2,5.93-3.75,3.95-6.03,9.22-6.84,15.81h41.5c-.3-6.89-2.13-12.24-5.47-16.04-3.34-3.8-8.01-5.7-13.98-5.7Z"/>
    <path class="cls-1" d="M578.38,1148.9c-5.07,0-7.6-2.58-7.6-7.75v-60.8c0-5.17,2.48-7.75,7.45-7.75s7.45,2.58,7.45,7.75v5.62c2.53-4.46,6-7.85,10.41-10.18,4.41-2.33,9.35-3.5,14.82-3.5,17.53,0,26.3,9.93,26.3,29.79v39.06c0,5.17-2.53,7.75-7.6,7.75s-7.75-2.58-7.75-7.75v-38.15c0-6.38-1.24-11.04-3.72-13.98-2.48-2.94-6.36-4.41-11.63-4.41-6.18,0-11.12,1.95-14.82,5.85-3.7,3.9-5.55,9.04-5.55,15.43v35.26c0,5.17-2.58,7.75-7.75,7.75Z"/>
    <path class="cls-1" d="M665.93,1148.9c-5.07,0-7.6-2.58-7.6-7.75v-93.78c0-5.17,2.53-7.75,7.6-7.75s7.75,2.58,7.75,7.75v37.85c2.53-4.26,5.95-7.47,10.26-9.65,4.31-2.18,9.14-3.27,14.52-3.27,17.53,0,26.3,9.93,26.3,29.79v39.06c0,5.17-2.53,7.75-7.6,7.75s-7.75-2.58-7.75-7.75v-38.15c0-6.38-1.24-11.04-3.72-13.98-2.48-2.94-6.36-4.41-11.63-4.41-6.18,0-11.12,1.95-14.82,5.85-3.7,3.9-5.55,9.04-5.55,15.43v35.26c0,5.17-2.58,7.75-7.75,7.75Z"/>
    <path class="cls-1" d="M780.69,1149.21c-12.16,0-21.74-3.42-28.73-10.26-6.99-6.84-10.49-16.19-10.49-28.04,0-7.6,1.54-14.31,4.64-20.14,3.09-5.83,7.37-10.36,12.84-13.6,5.47-3.24,11.75-4.86,18.85-4.86,10.23,0,18.29,3.27,24.17,9.8,5.88,6.54,8.82,15.53,8.82,26.98,0,3.45-2.03,5.17-6.08,5.17h-48.34c1.11,15.4,9.27,23.1,24.47,23.1,3.04,0,6.23-.38,9.58-1.14,3.34-.76,6.59-2.15,9.73-4.18,2.13-1.22,3.98-1.65,5.55-1.29,1.57,.36,2.71,1.22,3.42,2.58,.71,1.37,.84,2.89,.38,4.56s-1.65,3.12-3.57,4.33c-3.45,2.33-7.47,4.08-12.08,5.24-4.61,1.16-8.99,1.75-13.15,1.75Zm-2.28-66.12c-6.38,0-11.45,1.98-15.2,5.93-3.75,3.95-6.03,9.22-6.84,15.81h41.5c-.3-6.89-2.13-12.24-5.47-16.04-3.34-3.8-8.01-5.7-13.98-5.7Z"/>
    <path class="cls-1" d="M835.1,1057.09c-3.04,0-5.4-.76-7.07-2.28s-2.51-3.65-2.51-6.38c0-5.78,3.19-8.66,9.58-8.66s9.58,2.89,9.58,8.66-3.19,8.66-9.58,8.66Zm0,91.66c-5.07,0-7.6-2.79-7.6-8.36v-59.28c0-5.47,2.53-8.21,7.6-8.21s7.75,2.74,7.75,8.21v59.28c0,5.57-2.58,8.36-7.75,8.36Z"/>
    <path class="cls-1" d="M896.05,1149.21c-9.32,0-16.26-2.38-20.82-7.14-4.56-4.76-6.84-11.65-6.84-20.67v-35.87h-9.12c-4.26,0-6.38-1.98-6.38-5.93s2.13-5.93,6.38-5.93h9.12v-15.66c0-5.17,2.58-7.75,7.75-7.75s7.6,2.58,7.6,7.75v15.66h17.78c4.26,0,6.38,1.98,6.38,5.93s-2.13,5.93-6.38,5.93h-17.78v34.66c0,5.37,1.14,9.42,3.42,12.16,2.28,2.74,6,4.1,11.17,4.1,1.82,0,3.39-.18,4.71-.53,1.32-.35,2.48-.58,3.5-.68,1.11,0,2.03,.38,2.74,1.14,.71,.76,1.06,2.2,1.06,4.33,0,1.62-.28,3.07-.84,4.33-.56,1.27-1.55,2.1-2.96,2.51-1.22,.51-2.86,.91-4.94,1.22-2.08,.3-3.93,.46-5.55,.46Z"/>
  </g>
  <g id="TextInputBox">
    <rect class="cls-4" x="92" y="1746.5" width="895" height="163" rx="57.5" ry="57.5"/>
    <path class="cls-2" d="M929.5,1749c30.33,0,55,24.67,55,55v48c0,30.33-24.67,55-55,55H149.5c-30.33,0-55-24.67-55-55v-48c0-30.33,24.67-55,55-55H929.5m0-5H149.5c-33.14,0-60,26.86-60,60v48c0,33.14,26.86,60,60,60H929.5c33.14,0,60-26.86,60-60v-48c0-33.14-26.86-60-60-60h0Z"/>
  </g>
  <g>
    <path class="cls-1" d="M165.38,1840.26c-1.04,0-1.91-.34-2.59-1.03-.69-.69-1.03-1.53-1.03-2.52s.34-1.89,1.03-2.56c.69-.66,1.55-.99,2.59-.99h15.12c.99,0,1.83,.33,2.52,.99,.69,.66,1.03,1.52,1.03,2.56s-.34,1.83-1.03,2.52-1.53,1.03-2.52,1.03h-15.12Z"/>
    <path class="cls-1" d="M199.39,1855.74c-2.6,0-3.9-1.28-3.9-3.83s1.3-3.69,3.9-3.69h7.95v-32.16l-6.04,3.62c-1.14,.66-2.17,.83-3.09,.5-.92-.33-1.62-.92-2.09-1.78-.47-.85-.62-1.79-.43-2.8,.19-1.02,.85-1.86,1.99-2.52l9.8-5.89c.95-.57,1.89-1.05,2.84-1.46,.95-.4,1.82-.6,2.63-.6,.99,0,1.82,.27,2.49,.82,.66,.54,.99,1.43,.99,2.66v39.62h7.24c2.6,0,3.9,1.23,3.9,3.69s-1.3,3.83-3.9,3.83h-24.28Z"/>
    <path class="cls-1" d="M252.64,1856.45c-2.51,0-5.07-.33-7.67-.99-2.6-.66-4.99-1.68-7.17-3.05-1.14-.71-1.81-1.57-2.02-2.59-.21-1.02-.08-1.96,.39-2.84,.47-.88,1.17-1.47,2.09-1.78,.92-.31,1.98-.13,3.16,.53,1.75,.99,3.53,1.75,5.33,2.27,1.8,.52,3.71,.78,5.75,.78,2.98,0,5.31-.77,6.99-2.31,1.68-1.54,2.52-3.61,2.52-6.21s-.8-4.79-2.41-6.42c-1.61-1.63-3.81-2.45-6.6-2.45-1.52,0-2.98,.25-4.4,.75s-2.82,1.36-4.19,2.59c-.43,.38-.97,.75-1.63,1.1-.66,.36-1.37,.53-2.13,.53-2.41,0-3.62-1.16-3.62-3.48v-23.22c0-2.65,1.32-3.98,3.98-3.98h23.36c2.65,0,3.98,1.25,3.98,3.76s-1.33,3.76-3.98,3.76h-18.46v13.56c2.51-1.89,5.58-2.84,9.23-2.84,3.17,0,5.93,.67,8.27,2.02,2.34,1.35,4.17,3.22,5.47,5.61,1.3,2.39,1.95,5.17,1.95,8.34s-.73,6.14-2.2,8.63c-1.47,2.49-3.56,4.43-6.28,5.82-2.72,1.4-5.95,2.09-9.69,2.09Z"/>
  </g>
  <g id="FromDD">
    <path class="cls-4" d="M441,1695H151c-33.14,0-60-26.86-60-60v-48c0-33.14,26.86-60,60-60H441v168Z"/>
  </g>
  <g id="ToDD">
    <path class="cls-4" d="M638,1695h290c33.14,0,60-26.86,60-60v-48c0-33.14-26.86-60-60-60h-290v168Z"/>
  </g>
  <g id="SwitchButton">
    <rect class="cls-4" x="455.5" y="1527" width="168" height="168"/>
  </g>
  <path id="SwitchIcon" class="cls-2" d="M505.8,1610.19l-15.98,16.04c-1.09,1.15-1.09,2.93,0,4.08l15.98,16.04c1.78,1.84,4.89,.52,4.89-2.01v-10.35h34.56c3.16,0,5.75-2.59,5.75-5.75s-2.59-5.75-5.75-5.75h-34.56v-10.29c0-2.59-3.1-3.85-4.89-2.01Zm83.43-18.46l-15.99-16.04c-1.78-1.84-4.89-.52-4.89,2.01v10.29h-34.61c-3.16,0-5.75,2.59-5.75,5.75s2.59,5.75,5.75,5.75h34.56v10.29c0,2.59,3.11,3.85,4.89,2.01l15.99-16.04c1.15-1.09,1.15-2.93,.06-4.03Z"/>
  <g>
    <path class="cls-1" d="M146.74,1623.47c-2.13,0-4.04-.49-5.72-1.46-1.68-.97-3.01-2.28-3.98-3.94-.97-1.66-1.46-3.53-1.46-5.61s.48-3.94,1.46-5.57c.97-1.63,2.3-2.93,3.98-3.91,1.68-.97,3.59-1.46,5.72-1.46s4.02,.47,5.68,1.42c1.66,.95,2.97,2.25,3.94,3.91,.97,1.66,1.46,3.53,1.46,5.61s-.49,3.96-1.46,5.64c-.97,1.68-2.28,2.99-3.94,3.94-1.66,.95-3.55,1.42-5.68,1.42Zm0-5.04c1.66,0,3-.57,4.05-1.7,1.04-1.14,1.56-2.56,1.56-4.26s-.52-3.05-1.56-4.19c-1.04-1.14-2.39-1.7-4.05-1.7s-3.02,.57-4.08,1.7c-1.07,1.14-1.6,2.53-1.6,4.19s.53,3.12,1.6,4.26c1.06,1.14,2.42,1.7,4.08,1.7Z"/>
    <path class="cls-1" d="M188.2,1653c-5.21,0-9.67-1.05-13.38-3.16-3.72-2.11-6.57-5.09-8.56-8.95-1.99-3.86-2.98-8.41-2.98-13.67s.99-9.8,2.98-13.63c1.99-3.83,4.84-6.8,8.56-8.91,3.71-2.11,8.18-3.16,13.38-3.16,2.6,0,5.16,.33,7.67,.99,2.51,.66,4.71,1.61,6.6,2.84,1.23,.81,1.96,1.76,2.2,2.88,.24,1.11,.09,2.13-.43,3.05-.52,.92-1.3,1.54-2.34,1.85-1.04,.31-2.2,.04-3.48-.82-1.47-.95-3.05-1.63-4.76-2.06-1.7-.43-3.43-.64-5.18-.64-5.07,0-8.92,1.53-11.57,4.58s-3.97,7.4-3.97,13.03,1.32,9.99,3.97,13.06c2.65,3.08,6.51,4.62,11.57,4.62,1.8,0,3.57-.22,5.32-.67,1.75-.45,3.41-1.15,4.97-2.09,1.28-.8,2.41-1.06,3.41-.78,.99,.28,1.74,.86,2.24,1.74,.5,.88,.65,1.83,.46,2.88-.19,1.04-.83,1.96-1.92,2.77-1.89,1.37-4.15,2.43-6.78,3.16s-5.29,1.1-7.99,1.1Z"/>
  </g>
  <g>
    <path class="cls-1" d="M692.1,1625.22c-2.13,0-4.04-.48-5.72-1.46-1.68-.97-3.01-2.28-3.98-3.94-.97-1.66-1.46-3.53-1.46-5.61s.48-3.94,1.46-5.57c.97-1.63,2.3-2.93,3.98-3.91,1.68-.97,3.58-1.46,5.72-1.46s4.02,.47,5.68,1.42c1.66,.95,2.97,2.25,3.94,3.9,.97,1.66,1.46,3.53,1.46,5.61s-.49,3.96-1.46,5.64c-.97,1.68-2.28,2.99-3.94,3.94-1.66,.95-3.55,1.42-5.68,1.42Zm0-5.04c1.66,0,3-.57,4.05-1.7,1.04-1.14,1.56-2.56,1.56-4.26s-.52-3.05-1.56-4.19c-1.04-1.14-2.39-1.7-4.05-1.7s-3.02,.57-4.08,1.7c-1.07,1.14-1.6,2.53-1.6,4.19s.53,3.12,1.6,4.26c1.07,1.14,2.42,1.7,4.08,1.7Z"/>
    <path class="cls-1" d="M715.67,1654.61c-3.12,0-4.69-1.61-4.69-4.83v-40.97c0-3.22,1.61-4.83,4.83-4.83h24.78c2.46,0,3.69,1.18,3.69,3.55s-1.23,3.69-3.69,3.69h-20.52v14.13h19.03c2.46,0,3.69,1.18,3.69,3.55s-1.23,3.69-3.69,3.69h-19.03v17.18c0,3.22-1.47,4.83-4.4,4.83Z"/>
  </g>
  <polygon id="ToDDIcon" class="cls-2" points="922.5 1622 908.64 1608 936.36 1608 922.5 1622"/>
  <polygon id="FromDDIcon" class="cls-2" points="374.3 1622 360.44 1608 388.16 1608 374.3 1622"/>
</svg>