<?xml version="1.0" encoding="UTF-8"?>
<svg id="Unit_Conversion" data-name="Unit Conversion" xmlns="http://www.w3.org/2000/svg" viewBox="0 0 1080 2272">
  <defs>
    <style>
      .cls-1 {
        letter-spacing: 0em;
      }

      .cls-2 {
        letter-spacing: 0em;
      }

      .cls-3 {
        fill: #9f58f2;
      }

      .cls-4 {
        font-size: 152px;
      }

      .cls-4, .cls-5, .cls-6 {
        fill: #fff;
      }

      .cls-4, .cls-6 {
        font-family: Nunito-SemiBold, Nunito;
      }

      .cls-7 {
        letter-spacing: 0em;
      }

      .cls-8 {
        letter-spacing: 0em;
      }

      .cls-9 {
        letter-spacing: 0em;
      }

      .cls-5 {
        font-family: Nunito-Bold, Nunito;
        font-size: 71px;
      }

      .cls-10 {
        letter-spacing: 0em;
      }

      .cls-11 {
        fill: #0c0414;
      }

      .cls-12 {
        letter-spacing: -.02em;
      }

      .cls-13 {
        letter-spacing: 0em;
      }

      .cls-6 {
        font-size: 133px;
      }

      .cls-14 {
        letter-spacing: 0em;
      }

      .cls-15 {
        letter-spacing: 0em;
      }

      .cls-16 {
        fill: #22283d;
      }
    </style>
  </defs>
  <rect id="Background" class="cls-11" width="1080" height="2272" rx="100" ry="100"/>
  <text id="Title" class="cls-6" transform="translate(164.91 282.74)"><tspan class="cls-1" x="0" y="0">t</tspan><tspan x="47.88" y="0">empe</tspan><tspan class="cls-13" x="384.5" y="0">r</tspan><tspan class="cls-8" x="433.44" y="0">atu</tspan><tspan class="cls-7" x="629.08" y="0">r</tspan><tspan x="677.76" y="0">e</tspan><tspan class="cls-14" x="50.27" y="116">c</tspan><tspan x="111.05" y="116">o</tspan><tspan class="cls-1" x="186.2" y="116">n</tspan><tspan class="cls-2" x="262.14" y="116">v</tspan><tspan x="330.1" y="116">e</tspan><tspan class="cls-10" x="401.52" y="116">r</tspan><tspan x="450.46" y="116">sion</tspan></text>
  <text id="Result" class="cls-4" transform="translate(466.66 942.84)"><tspan x="0" y="0">5°</tspan><tspan class="cls-12" x="-294.27" y="205">F</tspan><tspan x="-213.1" y="205">ah</tspan><tspan class="cls-7" x="-43.93" y="205">r</tspan><tspan x="11.71" y="205">enheit</tspan></text>
  <g id="TextInputBox">
    <rect class="cls-16" x="92" y="1746.5" width="895" height="163" rx="57.5" ry="57.5"/>
    <path class="cls-3" d="M929.5,1749c30.33,0,55,24.67,55,55v48c0,30.33-24.67,55-55,55H149.5c-30.33,0-55-24.67-55-55v-48c0-30.33,24.67-55,55-55H929.5m0-5H149.5c-33.14,0-60,26.86-60,60v48c0,33.14,26.86,60,60,60H929.5c33.14,0,60-26.86,60-60v-48c0-33.14-26.86-60-60-60h0Z"/>
  </g>
  <text id="TextInput" class="cls-5" transform="translate(157.5 1855.74)"><tspan x="0" y="0">-15</tspan></text>
  <g id="FromDD">
    <path class="cls-16" d="M441,1695H151c-33.14,0-60-26.86-60-60v-48c0-33.14,26.86-60,60-60H441v168Z"/>
  </g>
  <g id="ToDD">
    <path class="cls-16" d="M638,1695h290c33.14,0,60-26.86,60-60v-48c0-33.14-26.86-60-60-60h-290v168Z"/>
  </g>
  <g id="SwitchButton">
    <rect class="cls-16" x="455.5" y="1527" width="168" height="168"/>
  </g>
  <path id="SwitchIcon" class="cls-3" d="M505.8,1610.19l-15.98,16.04c-1.09,1.15-1.09,2.93,0,4.08l15.98,16.04c1.78,1.84,4.89,.52,4.89-2.01v-10.35h34.56c3.16,0,5.75-2.59,5.75-5.75s-2.59-5.75-5.75-5.75h-34.56v-10.29c0-2.59-3.1-3.85-4.89-2.01Zm83.43-18.46l-15.99-16.04c-1.78-1.84-4.89-.52-4.89,2.01v10.29h-34.61c-3.16,0-5.75,2.59-5.75,5.75s2.59,5.75,5.75,5.75h34.56v10.29c0,2.59,3.11,3.85,4.89,2.01l15.99-16.04c1.15-1.09,1.15-2.93,.06-4.03Z"/>
  <text id="FromUnit" class="cls-5" transform="translate(133.25 1652.29)"><tspan class="cls-15" x="0" y="0">°</tspan><tspan class="cls-9" x="26.2" y="0">C</tspan></text>
  <text id="ToUnit" class="cls-5" transform="translate(678.61 1654.04)"><tspan x="0" y="0">°F</tspan></text>
  <polygon id="ToDDIcon" class="cls-3" points="922.5 1622 908.64 1608 936.36 1608 922.5 1622"/>
  <polygon id="FromDDIcon" class="cls-3" points="374.3 1622 360.44 1608 388.16 1608 374.3 1622"/>
</svg>