<?xml version="1.0" standalone="no"?>
<!DOCTYPE svg PUBLIC "-//W3C//DTD SVG 20010904//EN"
 "http://www.w3.org/TR/2001/REC-SVG-20010904/DTD/svg10.dtd">
<svg version="1.0" xmlns="http://www.w3.org/2000/svg"
 width="1142.000000pt" height="1142.000000pt" viewBox="0 0 1142.000000 1142.000000"
 preserveAspectRatio="xMidYMid meet">
<metadata>
Created by potrace 1.14, written by Peter Selinger 2001-2017
</metadata>
<g transform="translate(0.000000,1142.000000) scale(0.100000,-0.100000)"
fill="#000000" stroke="none">
<path d="M5608 11414 c-3 -2 -18 -6 -34 -7 -86 -10 -179 -52 -381 -170 -62
-36 -113 -63 -113 -61 0 3 -10 -4 -22 -16 -12 -11 -28 -20 -35 -20 -7 0 -13
-4 -13 -10 0 -5 -4 -10 -10 -10 -8 0 -87 -42 -165 -89 -16 -10 -47 -28 -67
-40 -21 -11 -54 -30 -73 -41 -19 -11 -50 -28 -68 -39 -18 -10 -88 -50 -155
-90 -68 -39 -127 -71 -132 -71 -6 0 -10 -4 -10 -8 0 -4 -15 -15 -32 -23 -18
-9 -89 -49 -158 -89 -69 -40 -137 -79 -152 -87 -15 -8 -30 -19 -33 -24 -4 -5
-11 -7 -16 -4 -5 4 -9 2 -9 -4 0 -5 -9 -12 -20 -16 -10 -3 -59 -30 -108 -59
-92 -56 -151 -89 -242 -139 -30 -16 -62 -36 -71 -43 -8 -8 -18 -14 -21 -14 -3
0 -72 -39 -154 -86 -82 -48 -168 -97 -191 -110 -23 -13 -93 -54 -155 -91 -62
-36 -133 -77 -158 -90 -25 -14 -58 -33 -75 -44 -16 -10 -37 -22 -45 -26 -8 -3
-27 -15 -42 -25 -16 -11 -28 -16 -28 -11 0 4 -4 3 -8 -3 -4 -6 -34 -25 -67
-44 -33 -19 -63 -38 -67 -44 -4 -6 -8 -7 -8 -3 0 4 -17 -4 -37 -18 -21 -14
-43 -25 -50 -25 -7 0 -13 -4 -13 -10 0 -5 -7 -10 -15 -10 -8 0 -15 -5 -15 -11
0 -5 -3 -8 -8 -5 -4 2 -26 -9 -50 -25 -23 -16 -45 -29 -47 -29 -3 0 -50 -27
-106 -60 -55 -33 -104 -60 -109 -60 -4 0 -13 -7 -20 -15 -7 -8 -21 -15 -31
-15 -11 0 -19 -4 -19 -8 0 -4 -26 -21 -57 -37 -32 -17 -60 -33 -63 -36 -3 -4
-23 -17 -45 -28 -22 -12 -47 -26 -55 -31 -102 -63 -220 -127 -224 -122 -3 3
-6 1 -6 -5 0 -6 -13 -16 -30 -23 -16 -7 -30 -17 -30 -22 0 -5 -4 -7 -9 -3 -5
3 -16 0 -23 -7 -18 -17 -45 -34 -88 -54 -19 -10 -58 -32 -86 -51 -28 -18 -56
-33 -63 -33 -6 0 -11 -4 -11 -10 0 -5 -3 -9 -8 -8 -16 5 -202 -116 -253 -165
-60 -58 -119 -130 -119 -146 0 -5 -4 -11 -8 -13 -22 -8 -79 -156 -102 -263 -5
-22 -9 -1176 -9 -2611 -1 -2731 -3 -2568 41 -2719 14 -47 58 -132 101 -194 36
-53 147 -161 165 -161 6 0 12 -5 12 -10 0 -6 12 -16 27 -23 16 -6 30 -14 33
-18 3 -3 30 -19 60 -36 30 -17 90 -51 133 -77 43 -25 80 -46 82 -46 3 0 24
-11 46 -26 39 -24 67 -40 159 -92 25 -14 62 -36 82 -49 21 -12 42 -23 48 -23
5 0 10 -4 10 -8 0 -4 12 -13 27 -20 16 -6 51 -25 78 -42 28 -16 59 -34 70 -40
11 -6 34 -19 50 -29 17 -10 47 -28 67 -40 21 -11 53 -29 70 -40 18 -10 49 -27
68 -37 19 -11 40 -25 48 -32 7 -7 18 -10 23 -7 5 4 9 2 9 -3 0 -4 19 -19 43
-31 64 -34 101 -55 107 -61 3 -3 19 -12 35 -20 17 -8 32 -17 35 -20 3 -3 22
-14 42 -25 21 -11 38 -24 38 -29 0 -5 3 -6 6 -3 4 4 19 -2 34 -13 16 -11 33
-20 38 -20 6 0 12 -3 14 -7 2 -5 32 -23 68 -42 36 -19 67 -37 70 -40 3 -4 16
-12 30 -19 14 -6 32 -16 40 -22 36 -24 192 -110 200 -110 5 0 10 -3 12 -8 4
-9 147 -92 159 -92 5 0 9 -5 9 -12 0 -6 3 -9 6 -6 3 4 21 -4 40 -17 19 -13 48
-30 64 -37 17 -7 30 -16 30 -20 0 -5 4 -8 10 -8 5 0 33 -14 62 -31 81 -49 120
-71 150 -86 15 -8 30 -19 33 -24 4 -5 11 -7 16 -4 5 4 9 2 9 -3 0 -5 8 -12 18
-16 22 -7 82 -42 96 -56 5 -5 18 -10 28 -10 10 0 18 -4 18 -9 0 -5 14 -14 30
-21 17 -7 30 -15 30 -19 0 -6 45 -26 64 -28 5 -1 12 -6 15 -11 3 -5 48 -34 99
-63 51 -30 114 -67 140 -82 26 -15 55 -31 65 -34 9 -3 17 -10 17 -16 0 -6 3
-7 7 -4 3 4 13 1 22 -6 9 -8 36 -25 61 -38 25 -13 47 -26 50 -29 3 -3 19 -12
35 -20 17 -8 41 -22 55 -31 28 -19 92 -56 132 -76 15 -8 30 -19 33 -24 4 -5
11 -7 16 -4 5 4 9 1 9 -4 0 -6 6 -11 14 -11 8 0 16 -3 18 -7 3 -8 15 -15 123
-72 28 -14 52 -29 55 -32 3 -3 28 -18 55 -34 28 -15 53 -32 57 -39 4 -6 8 -7
8 -3 0 8 69 -29 80 -43 3 -3 19 -12 36 -19 18 -7 41 -21 53 -32 12 -11 21 -17
21 -15 0 3 23 -8 50 -24 28 -17 55 -30 60 -30 4 0 10 -3 12 -7 2 -5 19 -17 38
-27 106 -57 139 -73 180 -85 25 -7 59 -18 75 -23 43 -14 242 -19 295 -7 25 6
55 13 67 15 12 2 35 9 50 16 16 6 30 12 33 13 14 3 122 59 165 86 28 16 58 33
68 36 9 3 17 8 17 12 0 4 20 15 45 26 25 11 45 23 45 26 0 3 18 14 40 24 22
10 40 22 40 27 0 4 9 8 19 8 11 0 22 4 25 9 8 12 119 76 129 73 4 -1 7 2 7 7
0 5 8 11 18 15 9 3 24 10 32 15 44 30 152 90 170 96 11 3 20 10 20 15 0 4 12
13 28 19 15 6 45 22 67 35 22 14 51 31 65 39 14 7 102 58 195 112 94 54 185
106 203 117 17 10 47 26 65 37 17 10 113 65 212 122 99 57 182 106 185 109 3
3 35 21 73 40 37 19 67 38 67 42 0 5 4 8 9 8 8 0 91 46 285 158 49 29 93 52
97 52 5 0 9 4 9 9 0 5 12 14 28 20 29 11 54 26 140 78 29 18 54 33 57 33 4 0
51 27 130 75 11 7 22 12 25 11 3 0 19 9 37 22 17 12 36 22 41 22 6 0 12 4 14
8 5 11 77 52 93 52 7 0 15 7 19 15 3 8 12 15 21 15 8 0 15 5 15 12 0 6 3 9 6
5 4 -3 23 5 43 18 19 14 41 25 48 25 7 0 13 5 13 10 0 6 7 10 15 10 8 0 15 5
15 11 0 5 4 8 9 4 5 -3 12 -1 15 4 3 5 25 19 48 31 24 12 45 25 48 29 3 4 24
15 48 25 23 11 42 23 42 28 0 4 5 8 11 8 6 0 45 20 86 45 40 25 76 45 79 45 3
0 18 8 32 19 15 10 48 30 75 45 111 62 147 82 240 138 55 32 100 58 102 58 2
0 33 18 69 40 36 22 70 40 76 40 5 0 10 5 10 10 0 6 6 10 14 10 8 0 22 7 30
16 9 8 16 13 16 9 0 -4 12 3 26 14 15 12 31 21 35 21 5 0 33 16 63 35 30 19
58 35 62 35 11 0 137 102 172 139 87 94 160 238 187 366 12 60 14 422 11 2645
-1 1416 -5 2584 -7 2595 -15 61 -22 84 -36 120 -23 63 -66 147 -85 167 -10 10
-18 22 -18 27 0 32 -227 214 -313 251 -12 5 -40 21 -62 35 -22 14 -51 30 -65
37 -14 7 -27 15 -30 18 -3 3 -32 21 -65 39 -33 19 -62 36 -65 40 -3 3 -10 7
-15 8 -6 1 -41 20 -78 42 -36 23 -71 41 -77 41 -5 0 -10 3 -10 8 0 4 -27 20
-60 37 -33 16 -60 33 -60 37 0 4 -5 8 -11 8 -6 0 -38 16 -72 36 -34 20 -82 48
-107 62 -25 13 -49 28 -55 32 -5 4 -32 20 -60 35 -27 16 -59 33 -70 39 -11 6
-38 23 -60 37 -22 14 -55 31 -72 38 -18 8 -33 17 -33 22 0 4 -16 13 -35 20
-19 7 -35 16 -35 20 0 4 -8 9 -17 12 -10 4 -40 20 -68 37 -27 17 -58 33 -67
37 -10 3 -18 10 -18 15 0 5 -4 7 -9 3 -5 -3 -12 -1 -16 5 -3 6 -25 20 -48 31
-23 12 -45 27 -49 33 -4 6 -8 8 -8 4 0 -6 -96 47 -125 69 -6 4 -35 21 -65 37
-30 16 -62 35 -71 42 -9 8 -19 11 -22 7 -4 -3 -7 -1 -7 5 0 7 -5 12 -10 12 -6
0 -45 21 -88 46 -144 86 -187 111 -202 118 -8 3 -37 20 -65 36 -27 17 -57 34
-65 37 -8 4 -17 9 -20 13 -3 4 -34 22 -70 41 -36 19 -66 37 -68 42 -2 4 -10 7
-18 7 -8 0 -14 5 -14 11 0 5 -4 8 -9 5 -5 -3 -14 0 -20 8 -6 7 -29 21 -51 31
-22 10 -40 22 -40 27 0 5 -4 6 -10 3 -5 -3 -10 -1 -10 4 0 6 -5 11 -10 11 -6
0 -65 32 -131 70 -66 39 -124 70 -129 70 -6 0 -10 4 -10 8 0 4 -27 21 -60 37
-33 17 -60 33 -60 38 0 4 -4 7 -8 7 -9 0 -159 82 -177 97 -5 5 -21 14 -35 21
-14 7 -41 22 -60 33 -19 12 -55 32 -79 45 -24 13 -49 28 -55 33 -6 4 -33 21
-61 36 -27 16 -68 39 -90 51 -22 13 -51 29 -65 37 -14 8 -113 65 -220 127
-107 62 -211 122 -230 133 -19 11 -48 28 -65 38 -16 10 -41 24 -55 30 -13 5
-27 13 -30 17 -14 19 -174 88 -240 104 -45 10 -264 21 -272 12z"/>
</g>
</svg>
