<?xml version="1.0" encoding="UTF-8"?>
<svg id="Layer_1" xmlns="http://www.w3.org/2000/svg" viewBox="0 0 60.63 64">
  <defs>
    <style>
      .cls-1 {
        fill: #fff;
      }
    </style>
  </defs>
  <path class="cls-1" d="M15.16,10.11c-1.4,0-2.6.49-3.58,1.47-.98.98-1.47,2.18-1.47,3.58s.49,2.6,1.47,3.58c.98.98,2.18,1.47,3.58,1.47s2.6-.49,3.58-1.47,1.47-2.18,1.47-3.58-.49-2.6-1.47-3.58-2.18-1.47-3.58-1.47ZM15.16,43.79c-1.4,0-2.6.49-3.58,1.47-.98.98-1.47,2.18-1.47,3.58s.49,2.6,1.47,3.58c.98.98,2.18,1.47,3.58,1.47s2.6-.49,3.58-1.47,1.47-2.18,1.47-3.58-.49-2.6-1.47-3.58-2.18-1.47-3.58-1.47ZM3.37,0h53.89c.95,0,1.75.32,2.4.97s.97,1.45.97,2.4v23.58c0,.95-.32,1.75-.97,2.4s-1.45.97-2.4.97H3.37c-.95,0-1.75-.32-2.4-.97-.65-.65-.97-1.45-.97-2.4V3.37c0-.95.32-1.75.97-2.4.65-.65,1.45-.97,2.4-.97ZM6.74,6.74v16.84h47.16V6.74H6.74ZM3.37,33.68h53.89c.95,0,1.75.32,2.4.97s.97,1.45.97,2.4v23.58c0,.95-.32,1.75-.97,2.4s-1.45.97-2.4.97H3.37c-.95,0-1.75-.32-2.4-.97-.65-.65-.97-1.45-.97-2.4v-23.58c0-.95.32-1.75.97-2.4.65-.65,1.45-.97,2.4-.97ZM6.74,40.42v16.84h47.16v-16.84H6.74ZM6.74,6.74v16.84V6.74ZM6.74,40.42v16.84-16.84Z"/>
</svg>