<?xml version="1.0" encoding="UTF-8"?>
<svg id="Layer_1" xmlns="http://www.w3.org/2000/svg" viewBox="0 0 64 43.64">
  <defs>
    <style>
      .cls-1 {
        fill: #fff;
      }
    </style>
  </defs>
  <path class="cls-1" d="M32,34.91c3.64,0,6.73-1.27,9.27-3.82s3.82-5.64,3.82-9.27-1.27-6.73-3.82-9.27-5.64-3.82-9.27-3.82-6.73,1.27-9.27,3.82-3.82,5.64-3.82,9.27,1.27,6.73,3.82,9.27,5.64,3.82,9.27,3.82ZM32,29.67c-2.18,0-4.04-.76-5.56-2.29s-2.29-3.38-2.29-5.56.76-4.04,2.29-5.56,3.38-2.29,5.56-2.29,4.04.76,5.56,2.29,2.29,3.38,2.29,5.56-.76,4.04-2.29,5.56-3.38,2.29-5.56,2.29ZM32,43.64c-7.08,0-13.53-1.98-19.35-5.93-5.82-3.95-10.04-9.25-12.65-15.89,2.62-6.64,6.84-11.94,12.65-15.89S24.92,0,32,0s13.53,1.98,19.35,5.93,10.04,9.25,12.65,15.89c-2.62,6.64-6.84,11.94-12.65,15.89-5.82,3.95-12.27,5.93-19.35,5.93ZM32,37.82c5.48,0,10.51-1.44,15.09-4.33,4.58-2.88,8.08-6.78,10.51-11.67-2.42-4.9-5.93-8.79-10.51-11.67s-9.61-4.33-15.09-4.33-10.51,1.44-15.09,4.33-8.08,6.78-10.51,11.67c2.42,4.9,5.93,8.79,10.51,11.67s9.61,4.33,15.09,4.33Z"/>
</svg>