<?xml version="1.0" encoding="UTF-8"?>
<svg id="Layer_1" xmlns="http://www.w3.org/2000/svg" viewBox="0 0 64 64">
  <defs>
    <style>
      .cls-1 {
        fill: #fff;
      }
    </style>
  </defs>
  <path class="cls-1" d="M7.53,64c-2.07,0-3.84-.74-5.32-2.21-1.47-1.47-2.21-3.25-2.21-5.32s.74-3.84,2.21-5.32c1.47-1.47,3.25-2.21,5.32-2.21s3.84.74,5.32,2.21c1.47,1.47,2.21,3.25,2.21,5.32s-.74,3.84-2.21,5.32c-1.47,1.47-3.25,2.21-5.32,2.21ZM52.71,64c0-7.34-1.38-14.2-4.14-20.56s-6.53-11.94-11.29-16.71c-4.77-4.77-10.34-8.53-16.71-11.29S7.34,11.29,0,11.29V0c8.91,0,17.22,1.66,24.94,4.99s14.49,7.91,20.33,13.74,10.42,12.61,13.74,20.33,4.99,16.03,4.99,24.94h-11.29ZM30.12,64c0-4.2-.78-8.11-2.35-11.72-1.57-3.61-3.73-6.79-6.49-9.55s-5.95-4.93-9.55-6.49c-3.61-1.57-7.51-2.35-11.72-2.35v-11.29c5.77,0,11.15,1.08,16.14,3.25s9.36,5.13,13.13,8.89,6.73,8.14,8.89,13.13,3.25,10.37,3.25,16.14h-11.29Z"/>
</svg>