<?xml version="1.0" encoding="UTF-8"?>
<svg id="Layer_1" xmlns="http://www.w3.org/2000/svg" viewBox="0 0 64 51.2">
  <defs>
    <style>
      .cls-1 {
        fill: #fff;
      }
    </style>
  </defs>
  <path class="cls-1" d="M6.4,0l6.4,12.8h9.6L16,0h6.4l6.4,12.8h9.6L32,0h6.4l6.4,12.8h9.6L48,0h9.6c1.76,0,3.27.63,4.52,1.88s1.88,2.76,1.88,4.52v38.4c0,1.76-.63,3.27-1.88,4.52s-2.76,1.88-4.52,1.88H6.4c-1.76,0-3.27-.63-4.52-1.88s-1.88-2.76-1.88-4.52V6.4c0-1.76.63-3.27,1.88-4.52S4.64,0,6.4,0ZM6.4,19.2v25.6h51.2v-25.6H6.4ZM6.4,19.2v25.6-25.6Z"/>
</svg>