<?xml version="1.0" encoding="UTF-8"?>
<svg id="Layer_1" xmlns="http://www.w3.org/2000/svg" viewBox="0 0 64 57.6">
  <defs>
    <style>
      .cls-1 {
        fill: #fff;
      }
    </style>
  </defs>
  <path class="cls-1" d="M19.2,57.6v-6.4H6.4c-1.76,0-3.27-.63-4.52-1.88s-1.88-2.76-1.88-4.52V6.4c0-1.76.63-3.27,1.88-4.52S4.64,0,6.4,0h51.2c1.76,0,3.27.63,4.52,1.88s1.88,2.76,1.88,4.52v38.4c0,1.76-.63,3.27-1.88,4.52s-2.76,1.88-4.52,1.88h-12.8v6.4h-25.6ZM6.4,44.8h51.2V6.4H6.4v38.4ZM6.4,44.8V6.4v38.4Z"/>
</svg>