<?xml version="1.0" encoding="UTF-8"?>
<svg id="Layer_1" xmlns="http://www.w3.org/2000/svg" viewBox="0 0 64 57.6">
  <defs>
    <style>
      .cls-1 {
        fill: #fff;
      }
    </style>
  </defs>
  <path class="cls-1" d="M0,57.6v-6.4c2.03,0,3.84-.39,5.44-1.16s3.33-1.85,5.2-3.24c1.6,1.33,3.35,2.39,5.24,3.16,1.89.77,3.72,1.16,5.48,1.16s3.6-.37,5.52-1.12,3.65-1.81,5.2-3.2c1.71,1.49,3.47,2.59,5.28,3.28s3.63,1.04,5.44,1.04,3.48-.35,5.16-1.04,3.53-1.79,5.56-3.28c2.08,1.6,3.92,2.73,5.52,3.4s3.25,1,4.96,1v6.4c-1.87,0-3.67-.25-5.4-.76-1.73-.51-3.43-1.24-5.08-2.2-1.71,1.07-3.48,1.83-5.32,2.28-1.84.45-3.64.68-5.4.68s-3.56-.23-5.4-.68c-1.84-.45-3.61-1.21-5.32-2.28-1.55,1.01-3.25,1.76-5.12,2.24s-3.73.72-5.6.72-3.63-.24-5.44-.72-3.57-1.23-5.28-2.24c-1.65.96-3.37,1.69-5.16,2.2-1.79.51-3.61.76-5.48.76ZM0,43.2v-6.4c0-5.17,1-10,3-14.48s4.73-8.37,8.2-11.68c3.47-3.31,7.53-5.91,12.2-7.8s9.67-2.84,15-2.84c1.76,0,3.51.09,5.24.28s3.29.44,4.68.76c-1.12,1.71-1.99,3.51-2.6,5.4s-.92,3.67-.92,5.32c0,2.93,1.04,5.44,3.12,7.52s4.59,3.12,7.52,3.12h8.56v6.4h-8.56c-4.75,0-8.77-1.65-12.08-4.96-3.31-3.31-4.96-7.33-4.96-12.08,0-.75.05-1.53.16-2.36s.27-1.64.48-2.44c-3.95.96-7.17,3-9.68,6.12s-3.76,6.76-3.76,10.92c0,1.92.31,3.75.92,5.48s1.48,3.37,2.6,4.92c.43-.27.88-.57,1.36-.92s.99-.71,1.52-1.08c1.55,1.39,3.33,2.45,5.36,3.2s3.84,1.12,5.44,1.12,3.39-.39,5.36-1.16,3.76-1.83,5.36-3.16c1.71,1.28,3.4,2.33,5.08,3.16s3.48,1.24,5.4,1.24v6.4c-1.87,0-3.67-.25-5.4-.76s-3.43-1.24-5.08-2.2c-1.71,1.07-3.44,1.83-5.2,2.28s-3.6.68-5.52.68-3.84-.27-5.76-.8-3.57-1.25-4.96-2.16c-1.65,1.01-3.39,1.75-5.2,2.2s-3.65.71-5.52.76-3.71-.19-5.52-.72c-1.81-.53-3.55-1.28-5.2-2.24-1.65.96-3.37,1.69-5.16,2.2-1.79.51-3.61.76-5.48.76ZM21.2,36.72h.8c.27,0,.53-.03.8-.08-1.17-1.87-2.07-3.87-2.68-6s-.92-4.35-.92-6.64c0-4.32.99-8.23,2.96-11.72s4.72-6.36,8.24-8.6v3.52c-3.31.85-6.36,2.15-9.16,3.88s-5.25,3.83-7.36,6.28c-2.11,2.45-3.8,5.19-5.08,8.2-1.28,3.01-2.05,6.23-2.32,9.64.8-.48,1.49-.91,2.08-1.28s1.28-.88,2.08-1.52c1.97,1.44,3.76,2.52,5.36,3.24s3.33,1.08,5.2,1.08Z"/>
</svg>